<?xml version="1.0" encoding="UTF-8" standalone="no"?>
<!DOCTYPE svg PUBLIC "-//W3C//DTD SVG 1.1//EN"
 "http://www.w3.org/Graphics/SVG/1.1/DTD/svg11.dtd">
<!-- Generated by graphviz version 2.40.1 (20161225.0304)
 -->
<!-- Title: gocallvis Pages: 1 -->
<svg width="355pt" height="298pt"
 viewBox="0.00 0.00 355.16 298.00" xmlns="http://www.w3.org/2000/svg" xmlns:xlink="http://www.w3.org/1999/xlink">
<g id="graph0" class="graph" transform="scale(1 1) rotate(0) translate(0 298)">
<title>gocallvis</title>
<polygon fill="#d3d3d3" stroke="transparent" points="0,0 0,-298 355.1628,-298 355.1628,0 0,0"/>
<g id="clust1" class="cluster">
<title>cluster_focus</title>
<polygon fill="#e6ecfa" stroke="#000000" stroke-width=".5" points="8,-8 8,-290 347.1628,-290 347.1628,-8 8,-8"/>
<text text-anchor="middle" x="177.5814" y="-269.8" font-family="Arial" font-size="18.00" fill="#000000">tunnel</text>
</g>
<g id="clust3" class="cluster">
<title>cluster_*github.com/sirupsen/logrus.Logger</title>
<g id="a_clust3"><a xlink:title="type: *github.com/sirupsen/logrus.Logger">
<path fill="#eed8ae" stroke="#000000" stroke-width=".5" d="M251.9075,-121C251.9075,-121 306.2287,-121 306.2287,-121 312.2287,-121 318.2287,-127 318.2287,-133 318.2287,-133 318.2287,-187 318.2287,-187 318.2287,-193 312.2287,-199 306.2287,-199 306.2287,-199 251.9075,-199 251.9075,-199 245.9075,-199 239.9075,-193 239.9075,-187 239.9075,-187 239.9075,-133 239.9075,-133 239.9075,-127 245.9075,-121 251.9075,-121"/>
<text text-anchor="middle" x="279.0681" y="-129.5" font-family="Arial" font-size="15.00" fill="#222222">(*Logger)</text>
</a>
</g>
</g>
<g id="clust2" class="cluster">
<title>cluster_*github.com/go&#45;i2p/crypto/tunnel.Tunnel</title>
<g id="a_clust2"><a xlink:title="type: *github.com/go&#45;i2p/crypto/tunnel.Tunnel">
<path fill="#b0c4de" stroke="#000000" stroke-width=".5" d="M49.9432,-60C49.9432,-60 111.0302,-60 111.0302,-60 117.0302,-60 123.0302,-66 123.0302,-72 123.0302,-72 123.0302,-187 123.0302,-187 123.0302,-193 117.0302,-199 111.0302,-199 111.0302,-199 49.9432,-199 49.9432,-199 43.9432,-199 37.9432,-193 37.9432,-187 37.9432,-187 37.9432,-72 37.9432,-72 37.9432,-66 43.9432,-60 49.9432,-60"/>
<text text-anchor="middle" x="80.4867" y="-68.5" font-family="Arial" font-size="15.00" fill="#222222">(*Tunnel)</text>
</a>
</g>
</g>
<!-- github.com/go&#45;i2p/crypto/tunnel.init -->
<g id="node1" class="node">
<title>github.com/go&#45;i2p/crypto/tunnel.init</title>
<g id="a_node1"><a xlink:title="github.com/go&#45;i2p/crypto/tunnel.init | defined in .:0&#10;at constants.go:7: calling [github.com/go&#45;i2p/logger.GetGoI2PLogger]">
<path fill="#add8e6" stroke="#000000" stroke-width=".5" d="M95.4867,-52C95.4867,-52 65.4867,-52 65.4867,-52 59.4867,-52 53.4867,-46 53.4867,-40 53.4867,-40 53.4867,-28 53.4867,-28 53.4867,-22 59.4867,-16 65.4867,-16 65.4867,-16 95.4867,-16 95.4867,-16 101.4867,-16 107.4867,-22 107.4867,-28 107.4867,-28 107.4867,-40 107.4867,-40 107.4867,-46 101.4867,-52 95.4867,-52"/>
<text text-anchor="middle" x="80.4867" y="-29.8" font-family="Verdana" font-size="14.00" fill="#000000">init</text>
</a>
</g>
</g>
<!-- github.com/go&#45;i2p/logger.GetGoI2PLogger -->
<g id="node2" class="node">
<title>github.com/go&#45;i2p/logger.GetGoI2PLogger</title>
<g id="a_node2"><a xlink:title="github.com/go&#45;i2p/logger.GetGoI2PLogger | defined in log.go:120">
<path fill="#ffe4b5" stroke="#000000" stroke-width="1.5" d="M327.2576,-52C327.2576,-52 229.8786,-52 229.8786,-52 223.8786,-52 217.8786,-46 217.8786,-40 217.8786,-40 217.8786,-28 217.8786,-28 217.8786,-22 223.8786,-16 229.8786,-16 229.8786,-16 327.2576,-16 327.2576,-16 333.2576,-16 339.2576,-22 339.2576,-28 339.2576,-28 339.2576,-40 339.2576,-40 339.2576,-46 333.2576,-52 327.2576,-52"/>
<text text-anchor="middle" x="278.5681" y="-38.2" font-family="Verdana" font-size="14.00" fill="#000000">logger</text>
<text text-anchor="middle" x="278.5681" y="-21.4" font-family="Verdana" font-size="14.00" fill="#000000">GetGoI2PLogger</text>
</a>
</g>
</g>
<!-- github.com/go&#45;i2p/crypto/tunnel.init&#45;&gt;github.com/go&#45;i2p/logger.GetGoI2PLogger -->
<g id="edge2" class="edge">
<title>github.com/go&#45;i2p/crypto/tunnel.init&#45;&gt;github.com/go&#45;i2p/logger.GetGoI2PLogger</title>
<g id="a_edge2"><a xlink:title="at constants.go:7: calling [github.com/go&#45;i2p/logger.GetGoI2PLogger]">
<path fill="none" stroke="#8b4513" d="M107.6137,-34C133.2659,-34 172.8825,-34 207.5216,-34"/>
<polygon fill="#8b4513" stroke="#8b4513" points="207.6159,-37.5001 217.6159,-34 207.6158,-30.5001 207.6159,-37.5001"/>
</a>
</g>
</g>
<!-- github.com/go&#45;i2p/crypto/tunnel.NewTunnelCrypto -->
<g id="node3" class="node">
<title>github.com/go&#45;i2p/crypto/tunnel.NewTunnelCrypto</title>
<g id="a_node3"><a xlink:title="github.com/go&#45;i2p/crypto/tunnel.NewTunnelCrypto | defined in tunnel_struct.go:18&#10;at tunnel_struct.go:19: calling [(*github.com/sirupsen/logrus.Logger).Debug]&#10;at tunnel_struct.go:31: calling [(*github.com/sirupsen/logrus.Logger).Debug]">
<path fill="#add8e6" stroke="#000000" stroke-width="1.5" d="M132.9601,-252C132.9601,-252 28.0133,-252 28.0133,-252 22.0133,-252 16.0133,-246 16.0133,-240 16.0133,-240 16.0133,-228 16.0133,-228 16.0133,-222 22.0133,-216 28.0133,-216 28.0133,-216 132.9601,-216 132.9601,-216 138.9601,-216 144.9601,-222 144.9601,-228 144.9601,-228 144.9601,-240 144.9601,-240 144.9601,-246 138.9601,-252 132.9601,-252"/>
<text text-anchor="middle" x="80.4867" y="-229.8" font-family="Verdana" font-size="14.00" fill="#000000">NewTunnelCrypto</text>
</a>
</g>
</g>
<!-- (*github.com/sirupsen/logrus.Logger).Debug -->
<g id="node6" class="node">
<title>(*github.com/sirupsen/logrus.Logger).Debug</title>
<g id="a_node6"><a xlink:title="(*github.com/sirupsen/logrus.Logger).Debug | defined in logger.go:221">
<path fill="#ffe4b5" stroke="#000000" stroke-width="1.5" d="M297.3901,-191C297.3901,-191 259.7461,-191 259.7461,-191 253.7461,-191 247.7461,-185 247.7461,-179 247.7461,-179 247.7461,-167 247.7461,-167 247.7461,-161 253.7461,-155 259.7461,-155 259.7461,-155 297.3901,-155 297.3901,-155 303.3901,-155 309.3901,-161 309.3901,-167 309.3901,-167 309.3901,-179 309.3901,-179 309.3901,-185 303.3901,-191 297.3901,-191"/>
<text text-anchor="middle" x="278.5681" y="-177.2" font-family="Verdana" font-size="14.00" fill="#000000">logrus</text>
<text text-anchor="middle" x="278.5681" y="-160.4" font-family="Verdana" font-size="14.00" fill="#000000">Debug</text>
</a>
</g>
</g>
<!-- github.com/go&#45;i2p/crypto/tunnel.NewTunnelCrypto&#45;&gt;(*github.com/sirupsen/logrus.Logger).Debug -->
<g id="edge1" class="edge">
<title>github.com/go&#45;i2p/crypto/tunnel.NewTunnelCrypto&#45;&gt;(*github.com/sirupsen/logrus.Logger).Debug</title>
<g id="a_edge1"><a xlink:title="at tunnel_struct.go:19: calling [(*github.com/sirupsen/logrus.Logger).Debug]&#10;at tunnel_struct.go:31: calling [(*github.com/sirupsen/logrus.Logger).Debug]">
<path fill="none" stroke="#8b4513" d="M139.1137,-215.9456C170.9529,-206.1405 209.5181,-194.2642 238.0159,-185.4882"/>
<polygon fill="#8b4513" stroke="#8b4513" points="239.1215,-188.81 247.6485,-182.5218 237.0613,-182.1201 239.1215,-188.81"/>
</a>
</g>
</g>
<!-- (*github.com/go&#45;i2p/crypto/tunnel.Tunnel).Encrypt -->
<g id="node4" class="node">
<title>(*github.com/go&#45;i2p/crypto/tunnel.Tunnel).Encrypt</title>
<g id="a_node4"><a xlink:title="(*github.com/go&#45;i2p/crypto/tunnel.Tunnel).Encrypt | defined in tunnel_struct.go:38&#10;at tunnel_struct.go:39: calling [(*github.com/sirupsen/logrus.Logger).Debug]&#10;at tunnel_struct.go:45: calling [(*github.com/sirupsen/logrus.Logger).Debug]">
<path fill="#add8e6" stroke="#000000" stroke-width="1.5" d="M102.8058,-130C102.8058,-130 58.1676,-130 58.1676,-130 52.1676,-130 46.1676,-124 46.1676,-118 46.1676,-118 46.1676,-106 46.1676,-106 46.1676,-100 52.1676,-94 58.1676,-94 58.1676,-94 102.8058,-94 102.8058,-94 108.8058,-94 114.8058,-100 114.8058,-106 114.8058,-106 114.8058,-118 114.8058,-118 114.8058,-124 108.8058,-130 102.8058,-130"/>
<text text-anchor="middle" x="80.4867" y="-107.8" font-family="Verdana" font-size="14.00" fill="#000000">Encrypt</text>
</a>
</g>
</g>
<!-- (*github.com/go&#45;i2p/crypto/tunnel.Tunnel).Encrypt&#45;&gt;(*github.com/sirupsen/logrus.Logger).Debug -->
<g id="edge3" class="edge">
<title>(*github.com/go&#45;i2p/crypto/tunnel.Tunnel).Encrypt&#45;&gt;(*github.com/sirupsen/logrus.Logger).Debug</title>
<g id="a_edge3"><a xlink:title="at tunnel_struct.go:39: calling [(*github.com/sirupsen/logrus.Logger).Debug]&#10;at tunnel_struct.go:45: calling [(*github.com/sirupsen/logrus.Logger).Debug]">
<path fill="none" stroke="#8b4513" d="M114.9898,-122.6254C149.2352,-133.1714 201.7138,-149.3324 237.9515,-160.4919"/>
<polygon fill="#8b4513" stroke="#8b4513" points="237.1258,-163.8998 247.713,-163.4981 239.1861,-157.2099 237.1258,-163.8998"/>
</a>
</g>
</g>
<!-- (*github.com/go&#45;i2p/crypto/tunnel.Tunnel).Decrypt -->
<g id="node5" class="node">
<title>(*github.com/go&#45;i2p/crypto/tunnel.Tunnel).Decrypt</title>
<g id="a_node5"><a xlink:title="(*github.com/go&#45;i2p/crypto/tunnel.Tunnel).Decrypt | defined in tunnel_struct.go:50&#10;at tunnel_struct.go:51: calling [(*github.com/sirupsen/logrus.Logger).Debug]&#10;at tunnel_struct.go:57: calling [(*github.com/sirupsen/logrus.Logger).Debug]">
<path fill="#add8e6" stroke="#000000" stroke-width="1.5" d="M103.0738,-191C103.0738,-191 57.8996,-191 57.8996,-191 51.8996,-191 45.8996,-185 45.8996,-179 45.8996,-179 45.8996,-167 45.8996,-167 45.8996,-161 51.8996,-155 57.8996,-155 57.8996,-155 103.0738,-155 103.0738,-155 109.0738,-155 115.0738,-161 115.0738,-167 115.0738,-167 115.0738,-179 115.0738,-179 115.0738,-185 109.0738,-191 103.0738,-191"/>
<text text-anchor="middle" x="80.4867" y="-168.8" font-family="Verdana" font-size="14.00" fill="#000000">Decrypt</text>
</a>
</g>
</g>
<!-- (*github.com/go&#45;i2p/crypto/tunnel.Tunnel).Decrypt&#45;&gt;(*github.com/sirupsen/logrus.Logger).Debug -->
<g id="edge4" class="edge">
<title>(*github.com/go&#45;i2p/crypto/tunnel.Tunnel).Decrypt&#45;&gt;(*github.com/sirupsen/logrus.Logger).Debug</title>
<g id="a_edge4"><a xlink:title="at tunnel_struct.go:51: calling [(*github.com/sirupsen/logrus.Logger).Debug]&#10;at tunnel_struct.go:57: calling [(*github.com/sirupsen/logrus.Logger).Debug]">
<path fill="none" stroke="#8b4513" d="M115.4437,-173C149.6109,-173 201.6101,-173 237.6778,-173"/>
<polygon fill="#8b4513" stroke="#8b4513" points="237.8607,-176.5001 247.8606,-173 237.8606,-169.5001 237.8607,-176.5001"/>
</a>
</g>
</g>
</g>
</svg>
