<?xml version="1.0" encoding="UTF-8" standalone="no"?>
<!DOCTYPE svg PUBLIC "-//W3C//DTD SVG 1.1//EN"
 "http://www.w3.org/Graphics/SVG/1.1/DTD/svg11.dtd">
<!-- Generated by graphviz version 2.40.1 (20161225.0304)
 -->
<!-- Title: gocallvis Pages: 1 -->
<svg width="355pt" height="306pt"
 viewBox="0.00 0.00 355.16 306.00" xmlns="http://www.w3.org/2000/svg" xmlns:xlink="http://www.w3.org/1999/xlink">
<g id="graph0" class="graph" transform="scale(1 1) rotate(0) translate(0 306)">
<title>gocallvis</title>
<polygon fill="#d3d3d3" stroke="transparent" points="0,0 0,-306 355.1628,-306 355.1628,0 0,0"/>
<g id="clust1" class="cluster">
<title>cluster_focus</title>
<polygon fill="#e6ecfa" stroke="#000000" stroke-width=".5" points="8,-8 8,-298 347.1628,-298 347.1628,-8 8,-8"/>
<text text-anchor="middle" x="177.5814" y="-277.8" font-family="Arial" font-size="18.00" fill="#000000">tunnel</text>
</g>
<g id="clust3" class="cluster">
<title>cluster_*github.com/sirupsen/logrus.Logger</title>
<g id="a_clust3"><a xlink:title="type: *github.com/sirupsen/logrus.Logger">
<path fill="#eed8ae" stroke="#000000" stroke-width=".5" d="M251.9075,-121C251.9075,-121 306.2287,-121 306.2287,-121 312.2287,-121 318.2287,-127 318.2287,-133 318.2287,-133 318.2287,-187 318.2287,-187 318.2287,-193 312.2287,-199 306.2287,-199 306.2287,-199 251.9075,-199 251.9075,-199 245.9075,-199 239.9075,-193 239.9075,-187 239.9075,-187 239.9075,-133 239.9075,-133 239.9075,-127 245.9075,-121 251.9075,-121"/>
<text text-anchor="middle" x="279.0681" y="-129.5" font-family="Arial" font-size="15.00" fill="#222222">(*Logger)</text>
</a>
</g>
</g>
<g id="clust2" class="cluster">
<title>cluster_*github.com/go&#45;i2p/crypto/tunnel.Tunnel</title>
<g id="a_clust2"><a xlink:title="type: *github.com/go&#45;i2p/crypto/tunnel.Tunnel">
<path fill="#b0c4de" stroke="#000000" stroke-width=".5" d="M49.9432,-121C49.9432,-121 111.0302,-121 111.0302,-121 117.0302,-121 123.0302,-127 123.0302,-133 123.0302,-133 123.0302,-248 123.0302,-248 123.0302,-254 117.0302,-260 111.0302,-260 111.0302,-260 49.9432,-260 49.9432,-260 43.9432,-260 37.9432,-254 37.9432,-248 37.9432,-248 37.9432,-133 37.9432,-133 37.9432,-127 43.9432,-121 49.9432,-121"/>
<text text-anchor="middle" x="80.4867" y="-129.5" font-family="Arial" font-size="15.00" fill="#222222">(*Tunnel)</text>
</a>
</g>
</g>
<!-- github.com/go&#45;i2p/crypto/tunnel.NewTunnelCrypto -->
<g id="node1" class="node">
<title>github.com/go&#45;i2p/crypto/tunnel.NewTunnelCrypto</title>
<g id="a_node1"><a xlink:title="github.com/go&#45;i2p/crypto/tunnel.NewTunnelCrypto | defined in tunnel_struct.go:33&#10;at tunnel_struct.go:34: calling [(*github.com/sirupsen/logrus.Logger).Debug]&#10;at tunnel_struct.go:51: calling [(*github.com/sirupsen/logrus.Logger).Debug]">
<path fill="#add8e6" stroke="#000000" stroke-width="1.5" d="M132.9601,-113C132.9601,-113 28.0133,-113 28.0133,-113 22.0133,-113 16.0133,-107 16.0133,-101 16.0133,-101 16.0133,-89 16.0133,-89 16.0133,-83 22.0133,-77 28.0133,-77 28.0133,-77 132.9601,-77 132.9601,-77 138.9601,-77 144.9601,-83 144.9601,-89 144.9601,-89 144.9601,-101 144.9601,-101 144.9601,-107 138.9601,-113 132.9601,-113"/>
<text text-anchor="middle" x="80.4867" y="-90.8" font-family="Verdana" font-size="14.00" fill="#000000">NewTunnelCrypto</text>
</a>
</g>
</g>
<!-- (*github.com/sirupsen/logrus.Logger).Debug -->
<g id="node6" class="node">
<title>(*github.com/sirupsen/logrus.Logger).Debug</title>
<g id="a_node6"><a xlink:title="(*github.com/sirupsen/logrus.Logger).Debug | defined in logger.go:221">
<path fill="#ffe4b5" stroke="#000000" stroke-width="1.5" d="M297.3901,-191C297.3901,-191 259.7461,-191 259.7461,-191 253.7461,-191 247.7461,-185 247.7461,-179 247.7461,-179 247.7461,-167 247.7461,-167 247.7461,-161 253.7461,-155 259.7461,-155 259.7461,-155 297.3901,-155 297.3901,-155 303.3901,-155 309.3901,-161 309.3901,-167 309.3901,-167 309.3901,-179 309.3901,-179 309.3901,-185 303.3901,-191 297.3901,-191"/>
<text text-anchor="middle" x="278.5681" y="-177.2" font-family="Verdana" font-size="14.00" fill="#000000">logrus</text>
<text text-anchor="middle" x="278.5681" y="-160.4" font-family="Verdana" font-size="14.00" fill="#000000">Debug</text>
</a>
</g>
</g>
<!-- github.com/go&#45;i2p/crypto/tunnel.NewTunnelCrypto&#45;&gt;(*github.com/sirupsen/logrus.Logger).Debug -->
<g id="edge2" class="edge">
<title>github.com/go&#45;i2p/crypto/tunnel.NewTunnelCrypto&#45;&gt;(*github.com/sirupsen/logrus.Logger).Debug</title>
<g id="a_edge2"><a xlink:title="at tunnel_struct.go:34: calling [(*github.com/sirupsen/logrus.Logger).Debug]&#10;at tunnel_struct.go:51: calling [(*github.com/sirupsen/logrus.Logger).Debug]">
<path fill="none" stroke="#8b4513" d="M134.826,-113.0689C138.2744,-114.3602 141.6809,-115.676 144.9734,-117 178.1802,-130.3528 184.8984,-137.3241 217.9734,-151 224.4359,-153.6721 231.3536,-156.3505 238.1192,-158.8728"/>
<polygon fill="#8b4513" stroke="#8b4513" points="237.2585,-162.2849 247.8522,-162.4378 239.6661,-155.7119 237.2585,-162.2849"/>
</a>
</g>
</g>
<!-- github.com/go&#45;i2p/crypto/tunnel.init -->
<g id="node2" class="node">
<title>github.com/go&#45;i2p/crypto/tunnel.init</title>
<g id="a_node2"><a xlink:title="github.com/go&#45;i2p/crypto/tunnel.init | defined in .:0&#10;at constants.go:10: calling [github.com/go&#45;i2p/logger.GetGoI2PLogger]">
<path fill="#add8e6" stroke="#000000" stroke-width=".5" d="M95.4867,-52C95.4867,-52 65.4867,-52 65.4867,-52 59.4867,-52 53.4867,-46 53.4867,-40 53.4867,-40 53.4867,-28 53.4867,-28 53.4867,-22 59.4867,-16 65.4867,-16 65.4867,-16 95.4867,-16 95.4867,-16 101.4867,-16 107.4867,-22 107.4867,-28 107.4867,-28 107.4867,-40 107.4867,-40 107.4867,-46 101.4867,-52 95.4867,-52"/>
<text text-anchor="middle" x="80.4867" y="-29.8" font-family="Verdana" font-size="14.00" fill="#000000">init</text>
</a>
</g>
</g>
<!-- github.com/go&#45;i2p/logger.GetGoI2PLogger -->
<g id="node3" class="node">
<title>github.com/go&#45;i2p/logger.GetGoI2PLogger</title>
<g id="a_node3"><a xlink:title="github.com/go&#45;i2p/logger.GetGoI2PLogger | defined in log.go:120">
<path fill="#ffe4b5" stroke="#000000" stroke-width="1.5" d="M327.2576,-52C327.2576,-52 229.8786,-52 229.8786,-52 223.8786,-52 217.8786,-46 217.8786,-40 217.8786,-40 217.8786,-28 217.8786,-28 217.8786,-22 223.8786,-16 229.8786,-16 229.8786,-16 327.2576,-16 327.2576,-16 333.2576,-16 339.2576,-22 339.2576,-28 339.2576,-28 339.2576,-40 339.2576,-40 339.2576,-46 333.2576,-52 327.2576,-52"/>
<text text-anchor="middle" x="278.5681" y="-38.2" font-family="Verdana" font-size="14.00" fill="#000000">logger</text>
<text text-anchor="middle" x="278.5681" y="-21.4" font-family="Verdana" font-size="14.00" fill="#000000">GetGoI2PLogger</text>
</a>
</g>
</g>
<!-- github.com/go&#45;i2p/crypto/tunnel.init&#45;&gt;github.com/go&#45;i2p/logger.GetGoI2PLogger -->
<g id="edge1" class="edge">
<title>github.com/go&#45;i2p/crypto/tunnel.init&#45;&gt;github.com/go&#45;i2p/logger.GetGoI2PLogger</title>
<g id="a_edge1"><a xlink:title="at constants.go:10: calling [github.com/go&#45;i2p/logger.GetGoI2PLogger]">
<path fill="none" stroke="#8b4513" d="M107.6137,-34C133.2659,-34 172.8825,-34 207.5216,-34"/>
<polygon fill="#8b4513" stroke="#8b4513" points="207.6159,-37.5001 217.6159,-34 207.6158,-30.5001 207.6159,-37.5001"/>
</a>
</g>
</g>
<!-- (*github.com/go&#45;i2p/crypto/tunnel.Tunnel).Decrypt -->
<g id="node4" class="node">
<title>(*github.com/go&#45;i2p/crypto/tunnel.Tunnel).Decrypt</title>
<g id="a_node4"><a xlink:title="(*github.com/go&#45;i2p/crypto/tunnel.Tunnel).Decrypt | defined in tunnel_struct.go:86&#10;at tunnel_struct.go:87: calling [(*github.com/sirupsen/logrus.Logger).Debug]&#10;at tunnel_struct.go:99: calling [(*github.com/sirupsen/logrus.Logger).Debug]">
<path fill="#add8e6" stroke="#000000" stroke-width="1.5" d="M103.0738,-191C103.0738,-191 57.8996,-191 57.8996,-191 51.8996,-191 45.8996,-185 45.8996,-179 45.8996,-179 45.8996,-167 45.8996,-167 45.8996,-161 51.8996,-155 57.8996,-155 57.8996,-155 103.0738,-155 103.0738,-155 109.0738,-155 115.0738,-161 115.0738,-167 115.0738,-167 115.0738,-179 115.0738,-179 115.0738,-185 109.0738,-191 103.0738,-191"/>
<text text-anchor="middle" x="80.4867" y="-168.8" font-family="Verdana" font-size="14.00" fill="#000000">Decrypt</text>
</a>
</g>
</g>
<!-- (*github.com/go&#45;i2p/crypto/tunnel.Tunnel).Decrypt&#45;&gt;(*github.com/sirupsen/logrus.Logger).Debug -->
<g id="edge3" class="edge">
<title>(*github.com/go&#45;i2p/crypto/tunnel.Tunnel).Decrypt&#45;&gt;(*github.com/sirupsen/logrus.Logger).Debug</title>
<g id="a_edge3"><a xlink:title="at tunnel_struct.go:87: calling [(*github.com/sirupsen/logrus.Logger).Debug]&#10;at tunnel_struct.go:99: calling [(*github.com/sirupsen/logrus.Logger).Debug]">
<path fill="none" stroke="#8b4513" d="M115.4437,-173C149.6109,-173 201.6101,-173 237.6778,-173"/>
<polygon fill="#8b4513" stroke="#8b4513" points="237.8607,-176.5001 247.8606,-173 237.8606,-169.5001 237.8607,-176.5001"/>
</a>
</g>
</g>
<!-- (*github.com/go&#45;i2p/crypto/tunnel.Tunnel).Encrypt -->
<g id="node5" class="node">
<title>(*github.com/go&#45;i2p/crypto/tunnel.Tunnel).Encrypt</title>
<g id="a_node5"><a xlink:title="(*github.com/go&#45;i2p/crypto/tunnel.Tunnel).Encrypt | defined in tunnel_struct.go:63&#10;at tunnel_struct.go:64: calling [(*github.com/sirupsen/logrus.Logger).Debug]&#10;at tunnel_struct.go:76: calling [(*github.com/sirupsen/logrus.Logger).Debug]">
<path fill="#add8e6" stroke="#000000" stroke-width="1.5" d="M102.8058,-252C102.8058,-252 58.1676,-252 58.1676,-252 52.1676,-252 46.1676,-246 46.1676,-240 46.1676,-240 46.1676,-228 46.1676,-228 46.1676,-222 52.1676,-216 58.1676,-216 58.1676,-216 102.8058,-216 102.8058,-216 108.8058,-216 114.8058,-222 114.8058,-228 114.8058,-228 114.8058,-240 114.8058,-240 114.8058,-246 108.8058,-252 102.8058,-252"/>
<text text-anchor="middle" x="80.4867" y="-229.8" font-family="Verdana" font-size="14.00" fill="#000000">Encrypt</text>
</a>
</g>
</g>
<!-- (*github.com/go&#45;i2p/crypto/tunnel.Tunnel).Encrypt&#45;&gt;(*github.com/sirupsen/logrus.Logger).Debug -->
<g id="edge4" class="edge">
<title>(*github.com/go&#45;i2p/crypto/tunnel.Tunnel).Encrypt&#45;&gt;(*github.com/sirupsen/logrus.Logger).Debug</title>
<g id="a_edge4"><a xlink:title="at tunnel_struct.go:64: calling [(*github.com/sirupsen/logrus.Logger).Debug]&#10;at tunnel_struct.go:76: calling [(*github.com/sirupsen/logrus.Logger).Debug]">
<path fill="none" stroke="#8b4513" d="M114.9898,-223.3746C149.2352,-212.8286 201.7138,-196.6676 237.9515,-185.5081"/>
<polygon fill="#8b4513" stroke="#8b4513" points="239.1861,-188.7901 247.713,-182.5019 237.1258,-182.1002 239.1861,-188.7901"/>
</a>
</g>
</g>
</g>
</svg>
