<?xml version="1.0" encoding="UTF-8" standalone="no"?>
<!DOCTYPE svg PUBLIC "-//W3C//DTD SVG 1.1//EN"
 "http://www.w3.org/Graphics/SVG/1.1/DTD/svg11.dtd">
<!-- Generated by graphviz version 2.40.1 (20161225.0304)
 -->
<!-- Title: gocallvis Pages: 1 -->
<svg width="765pt" height="575pt"
 viewBox="0.00 0.00 764.52 575.00" xmlns="http://www.w3.org/2000/svg" xmlns:xlink="http://www.w3.org/1999/xlink">
<g id="graph0" class="graph" transform="scale(1 1) rotate(0) translate(0 575)">
<title>gocallvis</title>
<polygon fill="#d3d3d3" stroke="transparent" points="0,0 0,-575 764.5164,-575 764.5164,0 0,0"/>
<g id="clust1" class="cluster">
<title>cluster_focus</title>
<polygon fill="#e6ecfa" stroke="#000000" stroke-width=".5" points="8,-8 8,-567 756.5164,-567 756.5164,-8 8,-8"/>
<text text-anchor="middle" x="382.2582" y="-546.8" font-family="Arial" font-size="18.00" fill="#000000">rand</text>
</g>
<g id="clust4" class="cluster">
<title>cluster_*github.com/sirupsen/logrus.Logger</title>
<g id="a_clust4"><a xlink:title="type: *github.com/sirupsen/logrus.Logger">
<path fill="#eed8ae" stroke="#000000" stroke-width=".5" d="M657.7779,-451C657.7779,-451 712.0991,-451 712.0991,-451 718.0991,-451 724.0991,-457 724.0991,-463 724.0991,-463 724.0991,-517 724.0991,-517 724.0991,-523 718.0991,-529 712.0991,-529 712.0991,-529 657.7779,-529 657.7779,-529 651.7779,-529 645.7779,-523 645.7779,-517 645.7779,-517 645.7779,-463 645.7779,-463 645.7779,-457 651.7779,-451 657.7779,-451"/>
<text text-anchor="middle" x="684.9385" y="-459.5" font-family="Arial" font-size="15.00" fill="#222222">(*Logger)</text>
</a>
</g>
</g>
<g id="clust3" class="cluster">
<title>cluster_*github.com/go&#45;i2p/logger.Logger</title>
<g id="a_clust3"><a xlink:title="type: *github.com/go&#45;i2p/logger.Logger">
<path fill="#eed8ae" stroke="#000000" stroke-width=".5" d="M645.3291,-182C645.3291,-182 723.5479,-182 723.5479,-182 729.5479,-182 735.5479,-188 735.5479,-194 735.5479,-194 735.5479,-431 735.5479,-431 735.5479,-437 729.5479,-443 723.5479,-443 723.5479,-443 645.3291,-443 645.3291,-443 639.3291,-443 633.3291,-437 633.3291,-431 633.3291,-431 633.3291,-194 633.3291,-194 633.3291,-188 639.3291,-182 645.3291,-182"/>
<text text-anchor="middle" x="684.4385" y="-190.5" font-family="Arial" font-size="15.00" fill="#222222">(*Logger)</text>
</a>
</g>
</g>
<g id="clust2" class="cluster">
<title>cluster_*github.com/go&#45;i2p/crypto/rand.SecureReader</title>
<g id="a_clust2"><a xlink:title="type: *github.com/go&#45;i2p/crypto/rand.SecureReader">
<path fill="#b0c4de" stroke="#000000" stroke-width=".5" d="M228.9706,-188C228.9706,-188 543.3606,-188 543.3606,-188 549.3606,-188 555.3606,-194 555.3606,-200 555.3606,-200 555.3606,-315 555.3606,-315 555.3606,-321 549.3606,-327 543.3606,-327 543.3606,-327 228.9706,-327 228.9706,-327 222.9706,-327 216.9706,-321 216.9706,-315 216.9706,-315 216.9706,-200 216.9706,-200 216.9706,-194 222.9706,-188 228.9706,-188"/>
<text text-anchor="middle" x="386.1656" y="-196.5" font-family="Arial" font-size="15.00" fill="#222222">(*SecureReader)</text>
</a>
</g>
</g>
<!-- github.com/go&#45;i2p/logger.GetGoI2PLogger -->
<g id="node1" class="node">
<title>github.com/go&#45;i2p/logger.GetGoI2PLogger</title>
<g id="a_node1"><a xlink:title="github.com/go&#45;i2p/logger.GetGoI2PLogger | defined in log.go:120">
<path fill="#ffe4b5" stroke="#000000" stroke-width="1.5" d="M733.128,-174C733.128,-174 635.749,-174 635.749,-174 629.749,-174 623.749,-168 623.749,-162 623.749,-162 623.749,-150 623.749,-150 623.749,-144 629.749,-138 635.749,-138 635.749,-138 733.128,-138 733.128,-138 739.128,-138 745.128,-144 745.128,-150 745.128,-150 745.128,-162 745.128,-162 745.128,-168 739.128,-174 733.128,-174"/>
<text text-anchor="middle" x="684.4385" y="-160.2" font-family="Verdana" font-size="14.00" fill="#000000">logger</text>
<text text-anchor="middle" x="684.4385" y="-143.4" font-family="Verdana" font-size="14.00" fill="#000000">GetGoI2PLogger</text>
</a>
</g>
</g>
<!-- github.com/samber/oops.Errorf -->
<g id="node2" class="node">
<title>github.com/samber/oops.Errorf</title>
<g id="a_node2"><a xlink:title="github.com/samber/oops.Errorf | defined in oops.go:34">
<path fill="#ffe4b5" stroke="#000000" stroke-width="1.5" d="M701.6338,-113C701.6338,-113 667.2432,-113 667.2432,-113 661.2432,-113 655.2432,-107 655.2432,-101 655.2432,-101 655.2432,-89 655.2432,-89 655.2432,-83 661.2432,-77 667.2432,-77 667.2432,-77 701.6338,-77 701.6338,-77 707.6338,-77 713.6338,-83 713.6338,-89 713.6338,-89 713.6338,-101 713.6338,-101 713.6338,-107 707.6338,-113 701.6338,-113"/>
<text text-anchor="middle" x="684.4385" y="-99.2" font-family="Verdana" font-size="14.00" fill="#000000">oops</text>
<text text-anchor="middle" x="684.4385" y="-82.4" font-family="Verdana" font-size="14.00" fill="#000000">Errorf</text>
</a>
</g>
</g>
<!-- github.com/go&#45;i2p/crypto/rand.ReadBigIntInRange -->
<g id="node3" class="node">
<title>github.com/go&#45;i2p/crypto/rand.ReadBigIntInRange</title>
<g id="a_node3"><a xlink:title="github.com/go&#45;i2p/crypto/rand.ReadBigIntInRange | defined in secure_reader.go:160&#10;at secure_reader.go:161: calling [(*github.com/go&#45;i2p/crypto/rand.SecureReader).ReadBigIntInRange]">
<path fill="#add8e6" stroke="#000000" stroke-width="1.5" d="M139.9559,-258C139.9559,-258 28.0147,-258 28.0147,-258 22.0147,-258 16.0147,-252 16.0147,-246 16.0147,-246 16.0147,-234 16.0147,-234 16.0147,-228 22.0147,-222 28.0147,-222 28.0147,-222 139.9559,-222 139.9559,-222 145.9559,-222 151.9559,-228 151.9559,-234 151.9559,-234 151.9559,-246 151.9559,-246 151.9559,-252 145.9559,-258 139.9559,-258"/>
<text text-anchor="middle" x="83.9853" y="-235.8" font-family="Verdana" font-size="14.00" fill="#000000">ReadBigIntInRange</text>
</a>
</g>
</g>
<!-- (*github.com/go&#45;i2p/crypto/rand.SecureReader).ReadBigIntInRange -->
<g id="node8" class="node">
<title>(*github.com/go&#45;i2p/crypto/rand.SecureReader).ReadBigIntInRange</title>
<g id="a_node8"><a xlink:title="(*github.com/go&#45;i2p/crypto/rand.SecureReader).ReadBigIntInRange | defined in secure_reader.go:87&#10;at secure_reader.go:88: calling [github.com/go&#45;i2p/logger.GetGoI2PLogger]&#10;at secure_reader.go:110: calling [(*github.com/sirupsen/logrus.Logger).Debug]&#10;at secure_reader.go:98: calling [(*github.com/go&#45;i2p/crypto/rand.SecureReader).ReadBigInt]&#10;at secure_reader.go:91: calling [github.com/samber/oops.Errorf]&#10;at secure_reader.go:100: calling [github.com/samber/oops.Errorf]&#10;at secure_reader.go:106: calling [(*github.com/go&#45;i2p/logger.Logger).WithFields]">
<path fill="#add8e6" stroke="#000000" stroke-width="1.5" d="M348.9265,-258C348.9265,-258 236.9853,-258 236.9853,-258 230.9853,-258 224.9853,-252 224.9853,-246 224.9853,-246 224.9853,-234 224.9853,-234 224.9853,-228 230.9853,-222 236.9853,-222 236.9853,-222 348.9265,-222 348.9265,-222 354.9265,-222 360.9265,-228 360.9265,-234 360.9265,-234 360.9265,-246 360.9265,-246 360.9265,-252 354.9265,-258 348.9265,-258"/>
<text text-anchor="middle" x="292.9559" y="-235.8" font-family="Verdana" font-size="14.00" fill="#000000">ReadBigIntInRange</text>
</a>
</g>
</g>
<!-- github.com/go&#45;i2p/crypto/rand.ReadBigIntInRange&#45;&gt;(*github.com/go&#45;i2p/crypto/rand.SecureReader).ReadBigIntInRange -->
<g id="edge4" class="edge">
<title>github.com/go&#45;i2p/crypto/rand.ReadBigIntInRange&#45;&gt;(*github.com/go&#45;i2p/crypto/rand.SecureReader).ReadBigIntInRange</title>
<g id="a_edge4"><a xlink:title="at secure_reader.go:161: calling [(*github.com/go&#45;i2p/crypto/rand.SecureReader).ReadBigIntInRange]">
<path fill="none" stroke="#000000" d="M152.1209,-240C172.0915,-240 194.0859,-240 214.6369,-240"/>
<polygon fill="#000000" stroke="#000000" points="214.9129,-243.5001 224.9128,-240 214.9128,-236.5001 214.9129,-243.5001"/>
</a>
</g>
</g>
<!-- github.com/go&#45;i2p/crypto/rand.Read -->
<g id="node4" class="node">
<title>github.com/go&#45;i2p/crypto/rand.Read</title>
<g id="a_node4"><a xlink:title="github.com/go&#45;i2p/crypto/rand.Read | defined in secure_reader.go:150&#10;at secure_reader.go:151: calling [(*github.com/go&#45;i2p/crypto/rand.SecureReader).Read]">
<path fill="#add8e6" stroke="#000000" stroke-width="1.5" d="M98.9853,-319C98.9853,-319 68.9853,-319 68.9853,-319 62.9853,-319 56.9853,-313 56.9853,-307 56.9853,-307 56.9853,-295 56.9853,-295 56.9853,-289 62.9853,-283 68.9853,-283 68.9853,-283 98.9853,-283 98.9853,-283 104.9853,-283 110.9853,-289 110.9853,-295 110.9853,-295 110.9853,-307 110.9853,-307 110.9853,-313 104.9853,-319 98.9853,-319"/>
<text text-anchor="middle" x="83.9853" y="-296.8" font-family="Verdana" font-size="14.00" fill="#000000">Read</text>
</a>
</g>
</g>
<!-- (*github.com/go&#45;i2p/crypto/rand.SecureReader).Read -->
<g id="node10" class="node">
<title>(*github.com/go&#45;i2p/crypto/rand.SecureReader).Read</title>
<g id="a_node10"><a xlink:title="(*github.com/go&#45;i2p/crypto/rand.SecureReader).Read | defined in secure_reader.go:28&#10;at secure_reader.go:51: calling [github.com/samber/oops.Errorf]&#10;at secure_reader.go:36: calling [github.com/samber/oops.Errorf]&#10;at secure_reader.go:52: calling [(*github.com/go&#45;i2p/logger.Logger).WithError]&#10;at secure_reader.go:35: calling [(*github.com/go&#45;i2p/logger.Logger).WithError]&#10;at secure_reader.go:29: calling [github.com/go&#45;i2p/logger.GetGoI2PLogger]&#10;at secure_reader.go:41: calling [(*github.com/go&#45;i2p/crypto/rand.SecureReader).validateEntropy]&#10;at secure_reader.go:52: calling [(*github.com/go&#45;i2p/logger.Logger).Error]&#10;at secure_reader.go:35: calling [(*github.com/go&#45;i2p/logger.Logger).Error]&#10;at secure_reader.go:47: calling [(*github.com/go&#45;i2p/logger.Logger).WithField]&#10;at secure_reader.go:42: calling [(*github.com/go&#45;i2p/logger.Logger).WithField]&#10;at secure_reader.go:47: calling [(*github.com/sirupsen/logrus.Logger).Debug]&#10;at secure_reader.go:42: calling [(*github.com/sirupsen/logrus.Logger).Debug]">
<path fill="#add8e6" stroke="#000000" stroke-width="1.5" d="M307.9559,-319C307.9559,-319 277.9559,-319 277.9559,-319 271.9559,-319 265.9559,-313 265.9559,-307 265.9559,-307 265.9559,-295 265.9559,-295 265.9559,-289 271.9559,-283 277.9559,-283 277.9559,-283 307.9559,-283 307.9559,-283 313.9559,-283 319.9559,-289 319.9559,-295 319.9559,-295 319.9559,-307 319.9559,-307 319.9559,-313 313.9559,-319 307.9559,-319"/>
<text text-anchor="middle" x="292.9559" y="-296.8" font-family="Verdana" font-size="14.00" fill="#000000">Read</text>
</a>
</g>
</g>
<!-- github.com/go&#45;i2p/crypto/rand.Read&#45;&gt;(*github.com/go&#45;i2p/crypto/rand.SecureReader).Read -->
<g id="edge13" class="edge">
<title>github.com/go&#45;i2p/crypto/rand.Read&#45;&gt;(*github.com/go&#45;i2p/crypto/rand.SecureReader).Read</title>
<g id="a_edge13"><a xlink:title="at secure_reader.go:151: calling [(*github.com/go&#45;i2p/crypto/rand.SecureReader).Read]">
<path fill="none" stroke="#000000" d="M111.3046,-301C148.1466,-301 213.9089,-301 255.3856,-301"/>
<polygon fill="#000000" stroke="#000000" points="255.63,-304.5001 265.6299,-301 255.6299,-297.5001 255.63,-304.5001"/>
</a>
</g>
</g>
<!-- github.com/go&#45;i2p/crypto/rand.ReadBigInt -->
<g id="node5" class="node">
<title>github.com/go&#45;i2p/crypto/rand.ReadBigInt</title>
<g id="a_node5"><a xlink:title="github.com/go&#45;i2p/crypto/rand.ReadBigInt | defined in secure_reader.go:155&#10;at secure_reader.go:156: calling [(*github.com/go&#45;i2p/crypto/rand.SecureReader).ReadBigInt]">
<path fill="#add8e6" stroke="#000000" stroke-width="1.5" d="M325.0013,-498C325.0013,-498 260.9105,-498 260.9105,-498 254.9105,-498 248.9105,-492 248.9105,-486 248.9105,-486 248.9105,-474 248.9105,-474 248.9105,-468 254.9105,-462 260.9105,-462 260.9105,-462 325.0013,-462 325.0013,-462 331.0013,-462 337.0013,-468 337.0013,-474 337.0013,-474 337.0013,-486 337.0013,-486 337.0013,-492 331.0013,-498 325.0013,-498"/>
<text text-anchor="middle" x="292.9559" y="-475.8" font-family="Verdana" font-size="14.00" fill="#000000">ReadBigInt</text>
</a>
</g>
</g>
<!-- (*github.com/go&#45;i2p/crypto/rand.SecureReader).ReadBigInt -->
<g id="node9" class="node">
<title>(*github.com/go&#45;i2p/crypto/rand.SecureReader).ReadBigInt</title>
<g id="a_node9"><a xlink:title="(*github.com/go&#45;i2p/crypto/rand.SecureReader).ReadBigInt | defined in secure_reader.go:57&#10;at secure_reader.go:58: calling [github.com/go&#45;i2p/logger.GetGoI2PLogger]&#10;at secure_reader.go:61: calling [github.com/samber/oops.Errorf]&#10;at secure_reader.go:81: calling [github.com/samber/oops.Errorf]&#10;at secure_reader.go:69: calling [github.com/samber/oops.Errorf]&#10;at secure_reader.go:82: calling [(*github.com/go&#45;i2p/logger.Logger).Error]&#10;at secure_reader.go:68: calling [(*github.com/go&#45;i2p/logger.Logger).Error]&#10;at secure_reader.go:74: calling [(*github.com/sirupsen/logrus.Logger).Debug]&#10;at secure_reader.go:78: calling [(*github.com/sirupsen/logrus.Logger).Debug]&#10;at secure_reader.go:82: calling [(*github.com/go&#45;i2p/logger.Logger).WithError]&#10;at secure_reader.go:68: calling [(*github.com/go&#45;i2p/logger.Logger).WithError]&#10;at secure_reader.go:74: calling [(*github.com/go&#45;i2p/logger.Logger).WithField]&#10;at secure_reader.go:78: calling [(*github.com/go&#45;i2p/logger.Logger).WithField]">
<path fill="#add8e6" stroke="#000000" stroke-width="1.5" d="M522.6963,-319C522.6963,-319 458.6055,-319 458.6055,-319 452.6055,-319 446.6055,-313 446.6055,-307 446.6055,-307 446.6055,-295 446.6055,-295 446.6055,-289 452.6055,-283 458.6055,-283 458.6055,-283 522.6963,-283 522.6963,-283 528.6963,-283 534.6963,-289 534.6963,-295 534.6963,-295 534.6963,-307 534.6963,-307 534.6963,-313 528.6963,-319 522.6963,-319"/>
<text text-anchor="middle" x="490.6509" y="-296.8" font-family="Verdana" font-size="14.00" fill="#000000">ReadBigInt</text>
</a>
</g>
</g>
<!-- github.com/go&#45;i2p/crypto/rand.ReadBigInt&#45;&gt;(*github.com/go&#45;i2p/crypto/rand.SecureReader).ReadBigInt -->
<g id="edge14" class="edge">
<title>github.com/go&#45;i2p/crypto/rand.ReadBigInt&#45;&gt;(*github.com/go&#45;i2p/crypto/rand.SecureReader).ReadBigInt</title>
<g id="a_edge14"><a xlink:title="at secure_reader.go:156: calling [(*github.com/go&#45;i2p/crypto/rand.SecureReader).ReadBigInt]">
<path fill="none" stroke="#000000" d="M312.9999,-461.8515C348.5229,-429.6877 422.5767,-362.6368 462.9497,-326.0816"/>
<polygon fill="#000000" stroke="#000000" points="465.4901,-328.503 470.5538,-319.1966 460.7918,-323.314 465.4901,-328.503"/>
</a>
</g>
</g>
<!-- github.com/go&#45;i2p/crypto/rand.init -->
<g id="node6" class="node">
<title>github.com/go&#45;i2p/crypto/rand.init</title>
<g id="a_node6"><a xlink:title="github.com/go&#45;i2p/crypto/rand.init | defined in .:0&#10;at constants.go:13: calling [github.com/samber/oops.Errorf]&#10;at constants.go:14: calling [github.com/samber/oops.Errorf]&#10;at constants.go:15: calling [github.com/samber/oops.Errorf]&#10;at constants.go:9: calling [github.com/go&#45;i2p/logger.GetGoI2PLogger]&#10;at secure_reader.go:147: calling [github.com/go&#45;i2p/crypto/rand.NewSecureReader]">
<path fill="#add8e6" stroke="#000000" stroke-width=".5" d="M505.6509,-52C505.6509,-52 475.6509,-52 475.6509,-52 469.6509,-52 463.6509,-46 463.6509,-40 463.6509,-40 463.6509,-28 463.6509,-28 463.6509,-22 469.6509,-16 475.6509,-16 475.6509,-16 505.6509,-16 505.6509,-16 511.6509,-16 517.6509,-22 517.6509,-28 517.6509,-28 517.6509,-40 517.6509,-40 517.6509,-46 511.6509,-52 505.6509,-52"/>
<text text-anchor="middle" x="490.6509" y="-29.8" font-family="Verdana" font-size="14.00" fill="#000000">init</text>
</a>
</g>
</g>
<!-- github.com/go&#45;i2p/crypto/rand.init&#45;&gt;github.com/go&#45;i2p/logger.GetGoI2PLogger -->
<g id="edge15" class="edge">
<title>github.com/go&#45;i2p/crypto/rand.init&#45;&gt;github.com/go&#45;i2p/logger.GetGoI2PLogger</title>
<g id="a_edge15"><a xlink:title="at constants.go:9: calling [github.com/go&#45;i2p/logger.GetGoI2PLogger]">
<path fill="none" stroke="#8b4513" d="M513.7074,-52.2764C539.0064,-71.8646 581.2353,-103.2124 620.3606,-126 624.5831,-128.4593 629.0407,-130.8787 633.5583,-133.2113"/>
<polygon fill="#8b4513" stroke="#8b4513" points="632.3498,-136.5201 642.8594,-137.862 635.4805,-130.2592 632.3498,-136.5201"/>
</a>
</g>
</g>
<!-- github.com/go&#45;i2p/crypto/rand.init&#45;&gt;github.com/samber/oops.Errorf -->
<g id="edge7" class="edge">
<title>github.com/go&#45;i2p/crypto/rand.init&#45;&gt;github.com/samber/oops.Errorf</title>
<g id="a_edge7"><a xlink:title="at constants.go:13: calling [github.com/samber/oops.Errorf]&#10;at constants.go:14: calling [github.com/samber/oops.Errorf]&#10;at constants.go:15: calling [github.com/samber/oops.Errorf]">
<path fill="none" stroke="#8b4513" d="M518.0049,-42.6104C551.3339,-53.1017 607.864,-70.896 645.6686,-82.7961"/>
<polygon fill="#8b4513" stroke="#8b4513" points="644.7355,-86.1716 655.325,-85.8357 646.8373,-79.4946 644.7355,-86.1716"/>
</a>
</g>
</g>
<!-- github.com/go&#45;i2p/crypto/rand.NewSecureReader -->
<g id="node7" class="node">
<title>github.com/go&#45;i2p/crypto/rand.NewSecureReader</title>
<g id="a_node7"><a xlink:title="github.com/go&#45;i2p/crypto/rand.NewSecureReader | defined in secure_reader.go:20">
<path fill="#add8e6" stroke="#000000" stroke-width="1.5" d="M736.5944,-52C736.5944,-52 632.2826,-52 632.2826,-52 626.2826,-52 620.2826,-46 620.2826,-40 620.2826,-40 620.2826,-28 620.2826,-28 620.2826,-22 626.2826,-16 632.2826,-16 632.2826,-16 736.5944,-16 736.5944,-16 742.5944,-16 748.5944,-22 748.5944,-28 748.5944,-28 748.5944,-40 748.5944,-40 748.5944,-46 742.5944,-52 736.5944,-52"/>
<text text-anchor="middle" x="684.4385" y="-29.8" font-family="Verdana" font-size="14.00" fill="#000000">NewSecureReader</text>
</a>
</g>
</g>
<!-- github.com/go&#45;i2p/crypto/rand.init&#45;&gt;github.com/go&#45;i2p/crypto/rand.NewSecureReader -->
<g id="edge24" class="edge">
<title>github.com/go&#45;i2p/crypto/rand.init&#45;&gt;github.com/go&#45;i2p/crypto/rand.NewSecureReader</title>
<g id="a_edge24"><a xlink:title="at secure_reader.go:147: calling [github.com/go&#45;i2p/crypto/rand.NewSecureReader]">
<path fill="none" stroke="#000000" d="M518.0049,-34C541.823,-34 577.4901,-34 609.7042,-34"/>
<polygon fill="#000000" stroke="#000000" points="610.0226,-37.5001 620.0226,-34 610.0225,-30.5001 610.0226,-37.5001"/>
</a>
</g>
</g>
<!-- (*github.com/go&#45;i2p/crypto/rand.SecureReader).ReadBigIntInRange&#45;&gt;github.com/go&#45;i2p/logger.GetGoI2PLogger -->
<g id="edge1" class="edge">
<title>(*github.com/go&#45;i2p/crypto/rand.SecureReader).ReadBigIntInRange&#45;&gt;github.com/go&#45;i2p/logger.GetGoI2PLogger</title>
<g id="a_edge1"><a xlink:title="at secure_reader.go:88: calling [github.com/go&#45;i2p/logger.GetGoI2PLogger]">
<path fill="none" stroke="#8b4513" d="M322.7824,-221.9579C342.992,-210.6048 370.6993,-196.692 396.9412,-189 468.8015,-167.9363 554.4425,-160.2137 613.4571,-157.4375"/>
<polygon fill="#8b4513" stroke="#8b4513" points="613.9515,-160.9194 623.7904,-156.9891 613.648,-153.926 613.9515,-160.9194"/>
</a>
</g>
</g>
<!-- (*github.com/go&#45;i2p/crypto/rand.SecureReader).ReadBigIntInRange&#45;&gt;github.com/samber/oops.Errorf -->
<g id="edge16" class="edge">
<title>(*github.com/go&#45;i2p/crypto/rand.SecureReader).ReadBigIntInRange&#45;&gt;github.com/samber/oops.Errorf</title>
<g id="a_edge16"><a xlink:title="at secure_reader.go:91: calling [github.com/samber/oops.Errorf]&#10;at secure_reader.go:100: calling [github.com/samber/oops.Errorf]">
<path fill="none" stroke="#8b4513" d="M317.6883,-221.8417C344.9057,-202.6558 390.5672,-172.7694 433.9412,-155 505.4127,-125.7197 594.4656,-108.6377 644.8446,-100.6222"/>
<polygon fill="#8b4513" stroke="#8b4513" points="645.6426,-104.0403 654.9877,-99.0483 644.5692,-97.1231 645.6426,-104.0403"/>
</a>
</g>
</g>
<!-- (*github.com/go&#45;i2p/crypto/rand.SecureReader).ReadBigIntInRange&#45;&gt;(*github.com/go&#45;i2p/crypto/rand.SecureReader).ReadBigInt -->
<g id="edge11" class="edge">
<title>(*github.com/go&#45;i2p/crypto/rand.SecureReader).ReadBigIntInRange&#45;&gt;(*github.com/go&#45;i2p/crypto/rand.SecureReader).ReadBigInt</title>
<g id="a_edge11"><a xlink:title="at secure_reader.go:98: calling [(*github.com/go&#45;i2p/crypto/rand.SecureReader).ReadBigInt]">
<path fill="none" stroke="#000000" d="M337.3109,-258.0672C355.5951,-265.1385 377.1078,-272.9797 396.9412,-279 409.684,-282.868 423.5736,-286.4596 436.6614,-289.5721"/>
<polygon fill="#000000" stroke="#000000" points="435.9482,-292.9996 446.4811,-291.8555 437.5337,-286.1815 435.9482,-292.9996"/>
</a>
</g>
</g>
<!-- (*github.com/go&#45;i2p/logger.Logger).WithFields -->
<g id="node15" class="node">
<title>(*github.com/go&#45;i2p/logger.Logger).WithFields</title>
<g id="a_node15"><a xlink:title="(*github.com/go&#45;i2p/logger.Logger).WithFields | defined in log.go:60">
<path fill="#ffe4b5" stroke="#000000" stroke-width="1.5" d="M715.6576,-313C715.6576,-313 653.2194,-313 653.2194,-313 647.2194,-313 641.2194,-307 641.2194,-301 641.2194,-301 641.2194,-289 641.2194,-289 641.2194,-283 647.2194,-277 653.2194,-277 653.2194,-277 715.6576,-277 715.6576,-277 721.6576,-277 727.6576,-283 727.6576,-289 727.6576,-289 727.6576,-301 727.6576,-301 727.6576,-307 721.6576,-313 715.6576,-313"/>
<text text-anchor="middle" x="684.4385" y="-299.2" font-family="Verdana" font-size="14.00" fill="#000000">logger</text>
<text text-anchor="middle" x="684.4385" y="-282.4" font-family="Verdana" font-size="14.00" fill="#000000">WithFields</text>
</a>
</g>
</g>
<!-- (*github.com/go&#45;i2p/crypto/rand.SecureReader).ReadBigIntInRange&#45;&gt;(*github.com/go&#45;i2p/logger.Logger).WithFields -->
<g id="edge19" class="edge">
<title>(*github.com/go&#45;i2p/crypto/rand.SecureReader).ReadBigIntInRange&#45;&gt;(*github.com/go&#45;i2p/logger.Logger).WithFields</title>
<g id="a_edge19"><a xlink:title="at secure_reader.go:106: calling [(*github.com/go&#45;i2p/logger.Logger).WithFields]">
<path fill="none" stroke="#8b4513" d="M337.3821,-258.1687C345.4247,-262.0385 353.5864,-266.3689 360.9412,-271 396.7198,-293.5287 394.1956,-317.5798 433.9412,-332 500.3286,-356.0861 582.0393,-335.3728 633.6992,-316.6007"/>
<polygon fill="#8b4513" stroke="#8b4513" points="635.1617,-319.7906 643.3009,-313.0079 632.7085,-313.2345 635.1617,-319.7906"/>
</a>
</g>
</g>
<!-- (*github.com/sirupsen/logrus.Logger).Debug -->
<g id="node16" class="node">
<title>(*github.com/sirupsen/logrus.Logger).Debug</title>
<g id="a_node16"><a xlink:title="(*github.com/sirupsen/logrus.Logger).Debug | defined in logger.go:221">
<path fill="#ffe4b5" stroke="#000000" stroke-width="1.5" d="M703.2605,-521C703.2605,-521 665.6165,-521 665.6165,-521 659.6165,-521 653.6165,-515 653.6165,-509 653.6165,-509 653.6165,-497 653.6165,-497 653.6165,-491 659.6165,-485 665.6165,-485 665.6165,-485 703.2605,-485 703.2605,-485 709.2605,-485 715.2605,-491 715.2605,-497 715.2605,-497 715.2605,-509 715.2605,-509 715.2605,-515 709.2605,-521 703.2605,-521"/>
<text text-anchor="middle" x="684.4385" y="-507.2" font-family="Verdana" font-size="14.00" fill="#000000">logrus</text>
<text text-anchor="middle" x="684.4385" y="-490.4" font-family="Verdana" font-size="14.00" fill="#000000">Debug</text>
</a>
</g>
</g>
<!-- (*github.com/go&#45;i2p/crypto/rand.SecureReader).ReadBigIntInRange&#45;&gt;(*github.com/sirupsen/logrus.Logger).Debug -->
<g id="edge3" class="edge">
<title>(*github.com/go&#45;i2p/crypto/rand.SecureReader).ReadBigIntInRange&#45;&gt;(*github.com/sirupsen/logrus.Logger).Debug</title>
<g id="a_edge3"><a xlink:title="at secure_reader.go:110: calling [(*github.com/sirupsen/logrus.Logger).Debug]">
<path fill="none" stroke="#8b4513" d="M339.8371,-258.0955C347.2127,-261.8533 354.5142,-266.1648 360.9412,-271 380.5875,-285.7806 379.4593,-295.7134 396.9412,-313 412.196,-328.0844 416.625,-331.3352 433.9412,-344 505.7169,-396.4957 594.6027,-450.4959 644.8818,-480.0988"/>
<polygon fill="#8b4513" stroke="#8b4513" points="643.1126,-483.1187 653.5087,-485.1615 646.6556,-477.0815 643.1126,-483.1187"/>
</a>
</g>
</g>
<!-- (*github.com/go&#45;i2p/crypto/rand.SecureReader).ReadBigInt&#45;&gt;github.com/go&#45;i2p/logger.GetGoI2PLogger -->
<g id="edge2" class="edge">
<title>(*github.com/go&#45;i2p/crypto/rand.SecureReader).ReadBigInt&#45;&gt;github.com/go&#45;i2p/logger.GetGoI2PLogger</title>
<g id="a_edge2"><a xlink:title="at secure_reader.go:58: calling [github.com/go&#45;i2p/logger.GetGoI2PLogger]">
<path fill="none" stroke="#8b4513" d="M534.9991,-284.2769C542.2046,-280.51 549.2862,-276.09 555.3606,-271 591.5971,-240.6358 581.6218,-212.1392 618.2815,-180.4011"/>
<polygon fill="#8b4513" stroke="#8b4513" points="620.6455,-182.992 626.2627,-174.0088 616.2696,-177.5283 620.6455,-182.992"/>
</a>
</g>
</g>
<!-- (*github.com/go&#45;i2p/crypto/rand.SecureReader).ReadBigInt&#45;&gt;github.com/samber/oops.Errorf -->
<g id="edge8" class="edge">
<title>(*github.com/go&#45;i2p/crypto/rand.SecureReader).ReadBigInt&#45;&gt;github.com/samber/oops.Errorf</title>
<g id="a_edge8"><a xlink:title="at secure_reader.go:61: calling [github.com/samber/oops.Errorf]&#10;at secure_reader.go:81: calling [github.com/samber/oops.Errorf]&#10;at secure_reader.go:69: calling [github.com/samber/oops.Errorf]">
<path fill="none" stroke="#8b4513" d="M534.8517,-285.7426C542.321,-281.772 549.5314,-276.9037 555.3606,-271 604.9809,-220.7458 571.1561,-176.6613 620.3606,-126 627.5285,-118.6199 636.8109,-112.7614 646.0744,-108.2154"/>
<polygon fill="#8b4513" stroke="#8b4513" points="647.5605,-111.3848 655.2527,-104.0991 644.696,-104.9977 647.5605,-111.3848"/>
</a>
</g>
</g>
<!-- (*github.com/go&#45;i2p/logger.Logger).WithError -->
<g id="node12" class="node">
<title>(*github.com/go&#45;i2p/logger.Logger).WithError</title>
<g id="a_node12"><a xlink:title="(*github.com/go&#45;i2p/logger.Logger).WithError | defined in log.go:66">
<path fill="#ffe4b5" stroke="#000000" stroke-width="1.5" d="M712.97,-374C712.97,-374 655.907,-374 655.907,-374 649.907,-374 643.907,-368 643.907,-362 643.907,-362 643.907,-350 643.907,-350 643.907,-344 649.907,-338 655.907,-338 655.907,-338 712.97,-338 712.97,-338 718.97,-338 724.97,-344 724.97,-350 724.97,-350 724.97,-362 724.97,-362 724.97,-368 718.97,-374 712.97,-374"/>
<text text-anchor="middle" x="684.4385" y="-360.2" font-family="Verdana" font-size="14.00" fill="#000000">logger</text>
<text text-anchor="middle" x="684.4385" y="-343.4" font-family="Verdana" font-size="14.00" fill="#000000">WithError</text>
</a>
</g>
</g>
<!-- (*github.com/go&#45;i2p/crypto/rand.SecureReader).ReadBigInt&#45;&gt;(*github.com/go&#45;i2p/logger.Logger).WithError -->
<g id="edge17" class="edge">
<title>(*github.com/go&#45;i2p/crypto/rand.SecureReader).ReadBigInt&#45;&gt;(*github.com/go&#45;i2p/logger.Logger).WithError</title>
<g id="a_edge17"><a xlink:title="at secure_reader.go:82: calling [(*github.com/go&#45;i2p/logger.Logger).WithError]&#10;at secure_reader.go:68: calling [(*github.com/go&#45;i2p/logger.Logger).WithError]">
<path fill="none" stroke="#8b4513" d="M535.0415,-302.8506C550.8143,-304.2624 568.5679,-306.7237 584.3606,-311 590.0575,-312.5426 613.6909,-323.1369 636.5603,-333.6579"/>
<polygon fill="#8b4513" stroke="#8b4513" points="635.3742,-336.9652 645.9205,-337.9785 638.3079,-330.6096 635.3742,-336.9652"/>
</a>
</g>
</g>
<!-- (*github.com/go&#45;i2p/logger.Logger).Error -->
<g id="node13" class="node">
<title>(*github.com/go&#45;i2p/logger.Logger).Error</title>
<g id="a_node13"><a xlink:title="(*github.com/go&#45;i2p/logger.Logger).Error | defined in log.go:42">
<path fill="#ffe4b5" stroke="#000000" stroke-width="1.5" d="M702.2048,-252C702.2048,-252 666.6722,-252 666.6722,-252 660.6722,-252 654.6722,-246 654.6722,-240 654.6722,-240 654.6722,-228 654.6722,-228 654.6722,-222 660.6722,-216 666.6722,-216 666.6722,-216 702.2048,-216 702.2048,-216 708.2048,-216 714.2048,-222 714.2048,-228 714.2048,-228 714.2048,-240 714.2048,-240 714.2048,-246 708.2048,-252 702.2048,-252"/>
<text text-anchor="middle" x="684.4385" y="-238.2" font-family="Verdana" font-size="14.00" fill="#000000">logger</text>
<text text-anchor="middle" x="684.4385" y="-221.4" font-family="Verdana" font-size="14.00" fill="#000000">Error</text>
</a>
</g>
</g>
<!-- (*github.com/go&#45;i2p/crypto/rand.SecureReader).ReadBigInt&#45;&gt;(*github.com/go&#45;i2p/logger.Logger).Error -->
<g id="edge9" class="edge">
<title>(*github.com/go&#45;i2p/crypto/rand.SecureReader).ReadBigInt&#45;&gt;(*github.com/go&#45;i2p/logger.Logger).Error</title>
<g id="a_edge9"><a xlink:title="at secure_reader.go:82: calling [(*github.com/go&#45;i2p/logger.Logger).Error]&#10;at secure_reader.go:68: calling [(*github.com/go&#45;i2p/logger.Logger).Error]">
<path fill="none" stroke="#8b4513" d="M535.1097,-285.6288C568.1823,-274.1943 612.9182,-258.7274 644.7816,-247.711"/>
<polygon fill="#8b4513" stroke="#8b4513" points="646.336,-250.8769 654.6434,-244.3013 644.0487,-244.2611 646.336,-250.8769"/>
</a>
</g>
</g>
<!-- (*github.com/go&#45;i2p/logger.Logger).WithField -->
<g id="node14" class="node">
<title>(*github.com/go&#45;i2p/logger.Logger).WithField</title>
<g id="a_node14"><a xlink:title="(*github.com/go&#45;i2p/logger.Logger).WithField | defined in log.go:54">
<path fill="#ffe4b5" stroke="#000000" stroke-width="1.5" d="M712.713,-435C712.713,-435 656.164,-435 656.164,-435 650.164,-435 644.164,-429 644.164,-423 644.164,-423 644.164,-411 644.164,-411 644.164,-405 650.164,-399 656.164,-399 656.164,-399 712.713,-399 712.713,-399 718.713,-399 724.713,-405 724.713,-411 724.713,-411 724.713,-423 724.713,-423 724.713,-429 718.713,-435 712.713,-435"/>
<text text-anchor="middle" x="684.4385" y="-421.2" font-family="Verdana" font-size="14.00" fill="#000000">logger</text>
<text text-anchor="middle" x="684.4385" y="-404.4" font-family="Verdana" font-size="14.00" fill="#000000">WithField</text>
</a>
</g>
</g>
<!-- (*github.com/go&#45;i2p/crypto/rand.SecureReader).ReadBigInt&#45;&gt;(*github.com/go&#45;i2p/logger.Logger).WithField -->
<g id="edge18" class="edge">
<title>(*github.com/go&#45;i2p/crypto/rand.SecureReader).ReadBigInt&#45;&gt;(*github.com/go&#45;i2p/logger.Logger).WithField</title>
<g id="a_edge18"><a xlink:title="at secure_reader.go:74: calling [(*github.com/go&#45;i2p/logger.Logger).WithField]&#10;at secure_reader.go:78: calling [(*github.com/go&#45;i2p/logger.Logger).WithField]">
<path fill="none" stroke="#8b4513" d="M516.8381,-319.0266C548.5117,-340.7118 600.1002,-375.6227 620.3606,-387 625.0464,-389.6313 630.002,-392.2394 634.9985,-394.7555"/>
<polygon fill="#8b4513" stroke="#8b4513" points="633.4678,-397.903 643.9867,-399.1699 636.5538,-391.6199 633.4678,-397.903"/>
</a>
</g>
</g>
<!-- (*github.com/go&#45;i2p/crypto/rand.SecureReader).ReadBigInt&#45;&gt;(*github.com/sirupsen/logrus.Logger).Debug -->
<g id="edge10" class="edge">
<title>(*github.com/go&#45;i2p/crypto/rand.SecureReader).ReadBigInt&#45;&gt;(*github.com/sirupsen/logrus.Logger).Debug</title>
<g id="a_edge10"><a xlink:title="at secure_reader.go:74: calling [(*github.com/sirupsen/logrus.Logger).Debug]&#10;at secure_reader.go:78: calling [(*github.com/sirupsen/logrus.Logger).Debug]">
<path fill="none" stroke="#8b4513" d="M510.2962,-319.1248C523.4865,-331.6038 541.0098,-348.7934 555.3606,-365 586.6549,-400.3414 587.6843,-414.9323 620.3606,-449 630.2312,-459.2909 641.9367,-469.6176 652.6252,-478.444"/>
<polygon fill="#8b4513" stroke="#8b4513" points="650.5823,-481.2936 660.5532,-484.8758 654.9924,-475.8575 650.5823,-481.2936"/>
</a>
</g>
</g>
<!-- (*github.com/go&#45;i2p/crypto/rand.SecureReader).Read&#45;&gt;github.com/go&#45;i2p/logger.GetGoI2PLogger -->
<g id="edge12" class="edge">
<title>(*github.com/go&#45;i2p/crypto/rand.SecureReader).Read&#45;&gt;github.com/go&#45;i2p/logger.GetGoI2PLogger</title>
<g id="a_edge12"><a xlink:title="at secure_reader.go:29: calling [github.com/go&#45;i2p/logger.GetGoI2PLogger]">
<path fill="none" stroke="#8b4513" d="M319.9793,-291.1153C332.8167,-285.9152 348.1192,-278.9644 360.9412,-271 396.8571,-248.6907 395.9473,-228.5505 433.9412,-210 465.0414,-194.8153 550.8671,-178.1416 613.4098,-167.3977"/>
<polygon fill="#8b4513" stroke="#8b4513" points="614.3539,-170.7875 623.6252,-165.6598 613.1798,-163.8866 614.3539,-170.7875"/>
</a>
</g>
</g>
<!-- (*github.com/go&#45;i2p/crypto/rand.SecureReader).Read&#45;&gt;github.com/samber/oops.Errorf -->
<g id="edge5" class="edge">
<title>(*github.com/go&#45;i2p/crypto/rand.SecureReader).Read&#45;&gt;github.com/samber/oops.Errorf</title>
<g id="a_edge5"><a xlink:title="at secure_reader.go:51: calling [github.com/samber/oops.Errorf]&#10;at secure_reader.go:36: calling [github.com/samber/oops.Errorf]">
<path fill="none" stroke="#8b4513" d="M320.1939,-292.6179C333.3776,-287.6941 348.9136,-280.5409 360.9412,-271 403.2123,-237.4685 389.0417,-203.9206 433.9412,-174 480.2884,-143.1147 502.2025,-159.6185 555.3606,-143 586.2182,-133.3532 620.4915,-120.5048 645.9623,-110.5288"/>
<polygon fill="#8b4513" stroke="#8b4513" points="647.2492,-113.7837 655.2677,-106.8587 644.6809,-107.2718 647.2492,-113.7837"/>
</a>
</g>
</g>
<!-- (*github.com/go&#45;i2p/crypto/rand.SecureReader).validateEntropy -->
<g id="node11" class="node">
<title>(*github.com/go&#45;i2p/crypto/rand.SecureReader).validateEntropy</title>
<g id="a_node11"><a xlink:title="(*github.com/go&#45;i2p/crypto/rand.SecureReader).validateEntropy | defined in secure_reader.go:116">
<path fill="#add8e6" stroke="#000000" stroke-width=".5" d="M535.5711,-258C535.5711,-258 445.7307,-258 445.7307,-258 439.7307,-258 433.7307,-252 433.7307,-246 433.7307,-246 433.7307,-234 433.7307,-234 433.7307,-228 439.7307,-222 445.7307,-222 445.7307,-222 535.5711,-222 535.5711,-222 541.5711,-222 547.5711,-228 547.5711,-234 547.5711,-234 547.5711,-246 547.5711,-246 547.5711,-252 541.5711,-258 535.5711,-258"/>
<text text-anchor="middle" x="490.6509" y="-235.8" font-family="Verdana" font-size="14.00" fill="#000000">validateEntropy</text>
</a>
</g>
</g>
<!-- (*github.com/go&#45;i2p/crypto/rand.SecureReader).Read&#45;&gt;(*github.com/go&#45;i2p/crypto/rand.SecureReader).validateEntropy -->
<g id="edge20" class="edge">
<title>(*github.com/go&#45;i2p/crypto/rand.SecureReader).Read&#45;&gt;(*github.com/go&#45;i2p/crypto/rand.SecureReader).validateEntropy</title>
<g id="a_edge20"><a xlink:title="at secure_reader.go:41: calling [(*github.com/go&#45;i2p/crypto/rand.SecureReader).validateEntropy]">
<path fill="none" stroke="#000000" d="M320.03,-292.6461C346.7086,-284.4143 388.5211,-271.5128 424.0762,-260.542"/>
<polygon fill="#000000" stroke="#000000" points="425.3973,-263.7973 433.9208,-257.5044 423.3334,-257.1085 425.3973,-263.7973"/>
</a>
</g>
</g>
<!-- (*github.com/go&#45;i2p/crypto/rand.SecureReader).Read&#45;&gt;(*github.com/go&#45;i2p/logger.Logger).WithError -->
<g id="edge6" class="edge">
<title>(*github.com/go&#45;i2p/crypto/rand.SecureReader).Read&#45;&gt;(*github.com/go&#45;i2p/logger.Logger).WithError</title>
<g id="a_edge6"><a xlink:title="at secure_reader.go:52: calling [(*github.com/go&#45;i2p/logger.Logger).WithError]&#10;at secure_reader.go:35: calling [(*github.com/go&#45;i2p/logger.Logger).WithError]">
<path fill="none" stroke="#8b4513" d="M320.1272,-304.4098C333.7712,-307.3521 349.7367,-312.8255 360.9412,-323 390.7088,-350.0311 363.3247,-383.9383 396.9412,-406 466.581,-451.703 503.5065,-426.0274 584.3606,-406 601.9216,-401.6502 604.2152,-395.1629 620.3606,-387 625.7302,-384.2852 631.3751,-381.4818 636.9963,-378.7216"/>
<polygon fill="#8b4513" stroke="#8b4513" points="638.9301,-381.6724 646.3814,-374.1405 635.8595,-375.3818 638.9301,-381.6724"/>
</a>
</g>
</g>
<!-- (*github.com/go&#45;i2p/crypto/rand.SecureReader).Read&#45;&gt;(*github.com/go&#45;i2p/logger.Logger).Error -->
<g id="edge21" class="edge">
<title>(*github.com/go&#45;i2p/crypto/rand.SecureReader).Read&#45;&gt;(*github.com/go&#45;i2p/logger.Logger).Error</title>
<g id="a_edge21"><a xlink:title="at secure_reader.go:52: calling [(*github.com/go&#45;i2p/logger.Logger).Error]&#10;at secure_reader.go:35: calling [(*github.com/go&#45;i2p/logger.Logger).Error]">
<path fill="none" stroke="#8b4513" d="M319.9578,-308.7669C348.1249,-316.4351 393.7039,-327.6285 433.9412,-332 487.5897,-337.8285 505.6621,-353.0283 555.3606,-332 593.5695,-315.8332 586.7289,-289.2939 620.3606,-265 628.0117,-259.4732 636.8009,-254.4849 645.3682,-250.2058"/>
<polygon fill="#8b4513" stroke="#8b4513" points="646.9907,-253.3097 654.513,-245.8488 643.9799,-246.9903 646.9907,-253.3097"/>
</a>
</g>
</g>
<!-- (*github.com/go&#45;i2p/crypto/rand.SecureReader).Read&#45;&gt;(*github.com/go&#45;i2p/logger.Logger).WithField -->
<g id="edge22" class="edge">
<title>(*github.com/go&#45;i2p/crypto/rand.SecureReader).Read&#45;&gt;(*github.com/go&#45;i2p/logger.Logger).WithField</title>
<g id="a_edge22"><a xlink:title="at secure_reader.go:47: calling [(*github.com/go&#45;i2p/logger.Logger).WithField]&#10;at secure_reader.go:42: calling [(*github.com/go&#45;i2p/logger.Logger).WithField]">
<path fill="none" stroke="#8b4513" d="M320.2483,-304.2783C333.9254,-307.1846 349.884,-312.6655 360.9412,-323 392.4155,-352.4172 366.902,-382.1188 396.9412,-413 409.4335,-425.8425 416.3969,-425.3691 433.9412,-429 502.1489,-443.116 582.9326,-434.9031 633.938,-426.7561"/>
<polygon fill="#8b4513" stroke="#8b4513" points="634.7493,-430.1695 644.042,-425.0806 633.6041,-423.2638 634.7493,-430.1695"/>
</a>
</g>
</g>
<!-- (*github.com/go&#45;i2p/crypto/rand.SecureReader).Read&#45;&gt;(*github.com/sirupsen/logrus.Logger).Debug -->
<g id="edge23" class="edge">
<title>(*github.com/go&#45;i2p/crypto/rand.SecureReader).Read&#45;&gt;(*github.com/sirupsen/logrus.Logger).Debug</title>
<g id="a_edge23"><a xlink:title="at secure_reader.go:47: calling [(*github.com/sirupsen/logrus.Logger).Debug]&#10;at secure_reader.go:42: calling [(*github.com/sirupsen/logrus.Logger).Debug]">
<path fill="none" stroke="#8b4513" d="M320.0192,-304.0946C333.8004,-306.9504 349.9252,-312.4415 360.9412,-323 394.1393,-354.8191 366.4168,-385.6077 396.9412,-420 460.0207,-491.0725 579.7365,-502.9542 642.9479,-503.9459"/>
<polygon fill="#8b4513" stroke="#8b4513" points="643.3052,-507.4484 653.3293,-504.018 643.3539,-500.4485 643.3052,-507.4484"/>
</a>
</g>
</g>
</g>
</svg>
