<?xml version="1.0" encoding="UTF-8" standalone="no"?>
<!DOCTYPE svg PUBLIC "-//W3C//DTD SVG 1.1//EN"
 "http://www.w3.org/Graphics/SVG/1.1/DTD/svg11.dtd">
<!-- Generated by graphviz version 2.40.1 (20161225.0304)
 -->
<!-- Title: gocallvis Pages: 1 -->
<svg width="765pt" height="576pt"
 viewBox="0.00 0.00 764.52 576.00" xmlns="http://www.w3.org/2000/svg" xmlns:xlink="http://www.w3.org/1999/xlink">
<g id="graph0" class="graph" transform="scale(1 1) rotate(0) translate(0 576)">
<title>gocallvis</title>
<polygon fill="#d3d3d3" stroke="transparent" points="0,0 0,-576 764.5164,-576 764.5164,0 0,0"/>
<g id="clust1" class="cluster">
<title>cluster_focus</title>
<polygon fill="#e6ecfa" stroke="#000000" stroke-width=".5" points="8,-8 8,-568 756.5164,-568 756.5164,-8 8,-8"/>
<text text-anchor="middle" x="382.2582" y="-547.8" font-family="Arial" font-size="18.00" fill="#000000">rand</text>
</g>
<g id="clust4" class="cluster">
<title>cluster_*github.com/sirupsen/logrus.Logger</title>
<g id="a_clust4"><a xlink:title="type: *github.com/sirupsen/logrus.Logger">
<path fill="#eed8ae" stroke="#000000" stroke-width=".5" d="M657.7779,-338C657.7779,-338 712.0991,-338 712.0991,-338 718.0991,-338 724.0991,-344 724.0991,-350 724.0991,-350 724.0991,-404 724.0991,-404 724.0991,-410 718.0991,-416 712.0991,-416 712.0991,-416 657.7779,-416 657.7779,-416 651.7779,-416 645.7779,-410 645.7779,-404 645.7779,-404 645.7779,-350 645.7779,-350 645.7779,-344 651.7779,-338 657.7779,-338"/>
<text text-anchor="middle" x="684.9385" y="-346.5" font-family="Arial" font-size="15.00" fill="#222222">(*Logger)</text>
</a>
</g>
</g>
<g id="clust3" class="cluster">
<title>cluster_*github.com/go&#45;i2p/logger.Logger</title>
<g id="a_clust3"><a xlink:title="type: *github.com/go&#45;i2p/logger.Logger">
<path fill="#eed8ae" stroke="#000000" stroke-width=".5" d="M645.3291,-16C645.3291,-16 723.5479,-16 723.5479,-16 729.5479,-16 735.5479,-22 735.5479,-28 735.5479,-28 735.5479,-265 735.5479,-265 735.5479,-271 729.5479,-277 723.5479,-277 723.5479,-277 645.3291,-277 645.3291,-277 639.3291,-277 633.3291,-271 633.3291,-265 633.3291,-265 633.3291,-28 633.3291,-28 633.3291,-22 639.3291,-16 645.3291,-16"/>
<text text-anchor="middle" x="684.4385" y="-24.5" font-family="Arial" font-size="15.00" fill="#222222">(*Logger)</text>
</a>
</g>
</g>
<g id="clust2" class="cluster">
<title>cluster_*github.com/go&#45;i2p/crypto/rand.SecureReader</title>
<g id="a_clust2"><a xlink:title="type: *github.com/go&#45;i2p/crypto/rand.SecureReader">
<path fill="#b0c4de" stroke="#000000" stroke-width=".5" d="M228.9706,-154C228.9706,-154 543.3606,-154 543.3606,-154 549.3606,-154 555.3606,-160 555.3606,-166 555.3606,-166 555.3606,-281 555.3606,-281 555.3606,-287 549.3606,-293 543.3606,-293 543.3606,-293 228.9706,-293 228.9706,-293 222.9706,-293 216.9706,-287 216.9706,-281 216.9706,-281 216.9706,-166 216.9706,-166 216.9706,-160 222.9706,-154 228.9706,-154"/>
<text text-anchor="middle" x="386.1656" y="-162.5" font-family="Arial" font-size="15.00" fill="#222222">(*SecureReader)</text>
</a>
</g>
</g>
<!-- github.com/go&#45;i2p/crypto/rand.init -->
<g id="node1" class="node">
<title>github.com/go&#45;i2p/crypto/rand.init</title>
<g id="a_node1"><a xlink:title="github.com/go&#45;i2p/crypto/rand.init | defined in .:0&#10;at secure_reader.go:147: calling [github.com/go&#45;i2p/crypto/rand.NewSecureReader]&#10;at constants.go:9: calling [github.com/go&#45;i2p/logger.GetGoI2PLogger]&#10;at constants.go:13: calling [github.com/samber/oops.Errorf]&#10;at constants.go:14: calling [github.com/samber/oops.Errorf]&#10;at constants.go:15: calling [github.com/samber/oops.Errorf]">
<path fill="#add8e6" stroke="#000000" stroke-width=".5" d="M505.6509,-456C505.6509,-456 475.6509,-456 475.6509,-456 469.6509,-456 463.6509,-450 463.6509,-444 463.6509,-444 463.6509,-432 463.6509,-432 463.6509,-426 469.6509,-420 475.6509,-420 475.6509,-420 505.6509,-420 505.6509,-420 511.6509,-420 517.6509,-426 517.6509,-432 517.6509,-432 517.6509,-444 517.6509,-444 517.6509,-450 511.6509,-456 505.6509,-456"/>
<text text-anchor="middle" x="490.6509" y="-433.8" font-family="Verdana" font-size="14.00" fill="#000000">init</text>
</a>
</g>
</g>
<!-- github.com/go&#45;i2p/logger.GetGoI2PLogger -->
<g id="node2" class="node">
<title>github.com/go&#45;i2p/logger.GetGoI2PLogger</title>
<g id="a_node2"><a xlink:title="github.com/go&#45;i2p/logger.GetGoI2PLogger | defined in log.go:120">
<path fill="#ffe4b5" stroke="#000000" stroke-width="1.5" d="M733.128,-530C733.128,-530 635.749,-530 635.749,-530 629.749,-530 623.749,-524 623.749,-518 623.749,-518 623.749,-506 623.749,-506 623.749,-500 629.749,-494 635.749,-494 635.749,-494 733.128,-494 733.128,-494 739.128,-494 745.128,-500 745.128,-506 745.128,-506 745.128,-518 745.128,-518 745.128,-524 739.128,-530 733.128,-530"/>
<text text-anchor="middle" x="684.4385" y="-516.2" font-family="Verdana" font-size="14.00" fill="#000000">logger</text>
<text text-anchor="middle" x="684.4385" y="-499.4" font-family="Verdana" font-size="14.00" fill="#000000">GetGoI2PLogger</text>
</a>
</g>
</g>
<!-- github.com/go&#45;i2p/crypto/rand.init&#45;&gt;github.com/go&#45;i2p/logger.GetGoI2PLogger -->
<g id="edge14" class="edge">
<title>github.com/go&#45;i2p/crypto/rand.init&#45;&gt;github.com/go&#45;i2p/logger.GetGoI2PLogger</title>
<g id="a_edge14"><a xlink:title="at constants.go:9: calling [github.com/go&#45;i2p/logger.GetGoI2PLogger]">
<path fill="none" stroke="#8b4513" d="M518.0049,-448.4454C546.3537,-459.2708 591.4879,-476.5058 627.6073,-490.2984"/>
<polygon fill="#8b4513" stroke="#8b4513" points="626.4653,-493.6087 637.056,-493.9064 628.9625,-487.0693 626.4653,-493.6087"/>
</a>
</g>
</g>
<!-- github.com/samber/oops.Errorf -->
<g id="node3" class="node">
<title>github.com/samber/oops.Errorf</title>
<g id="a_node3"><a xlink:title="github.com/samber/oops.Errorf | defined in oops.go:34">
<path fill="#ffe4b5" stroke="#000000" stroke-width="1.5" d="M701.6338,-330C701.6338,-330 667.2432,-330 667.2432,-330 661.2432,-330 655.2432,-324 655.2432,-318 655.2432,-318 655.2432,-306 655.2432,-306 655.2432,-300 661.2432,-294 667.2432,-294 667.2432,-294 701.6338,-294 701.6338,-294 707.6338,-294 713.6338,-300 713.6338,-306 713.6338,-306 713.6338,-318 713.6338,-318 713.6338,-324 707.6338,-330 701.6338,-330"/>
<text text-anchor="middle" x="684.4385" y="-316.2" font-family="Verdana" font-size="14.00" fill="#000000">oops</text>
<text text-anchor="middle" x="684.4385" y="-299.4" font-family="Verdana" font-size="14.00" fill="#000000">Errorf</text>
</a>
</g>
</g>
<!-- github.com/go&#45;i2p/crypto/rand.init&#45;&gt;github.com/samber/oops.Errorf -->
<g id="edge15" class="edge">
<title>github.com/go&#45;i2p/crypto/rand.init&#45;&gt;github.com/samber/oops.Errorf</title>
<g id="a_edge15"><a xlink:title="at constants.go:13: calling [github.com/samber/oops.Errorf]&#10;at constants.go:14: calling [github.com/samber/oops.Errorf]&#10;at constants.go:15: calling [github.com/samber/oops.Errorf]">
<path fill="none" stroke="#8b4513" d="M508.9196,-419.8868C532.7604,-397.1112 576.618,-358.0832 620.3606,-334 628.2211,-329.6723 637.0873,-325.9701 645.6616,-322.9051"/>
<polygon fill="#8b4513" stroke="#8b4513" points="646.7855,-326.2198 655.1491,-319.7159 644.5551,-319.5847 646.7855,-326.2198"/>
</a>
</g>
</g>
<!-- github.com/go&#45;i2p/crypto/rand.NewSecureReader -->
<g id="node4" class="node">
<title>github.com/go&#45;i2p/crypto/rand.NewSecureReader</title>
<g id="a_node4"><a xlink:title="github.com/go&#45;i2p/crypto/rand.NewSecureReader | defined in secure_reader.go:20">
<path fill="#add8e6" stroke="#000000" stroke-width="1.5" d="M736.5944,-469C736.5944,-469 632.2826,-469 632.2826,-469 626.2826,-469 620.2826,-463 620.2826,-457 620.2826,-457 620.2826,-445 620.2826,-445 620.2826,-439 626.2826,-433 632.2826,-433 632.2826,-433 736.5944,-433 736.5944,-433 742.5944,-433 748.5944,-439 748.5944,-445 748.5944,-445 748.5944,-457 748.5944,-457 748.5944,-463 742.5944,-469 736.5944,-469"/>
<text text-anchor="middle" x="684.4385" y="-446.8" font-family="Verdana" font-size="14.00" fill="#000000">NewSecureReader</text>
</a>
</g>
</g>
<!-- github.com/go&#45;i2p/crypto/rand.init&#45;&gt;github.com/go&#45;i2p/crypto/rand.NewSecureReader -->
<g id="edge9" class="edge">
<title>github.com/go&#45;i2p/crypto/rand.init&#45;&gt;github.com/go&#45;i2p/crypto/rand.NewSecureReader</title>
<g id="a_edge9"><a xlink:title="at secure_reader.go:147: calling [github.com/go&#45;i2p/crypto/rand.NewSecureReader]">
<path fill="none" stroke="#000000" d="M518.0049,-439.835C541.823,-441.4328 577.4901,-443.8255 609.7042,-445.9865"/>
<polygon fill="#000000" stroke="#000000" points="609.8107,-449.5015 620.0226,-446.6787 610.2793,-442.5172 609.8107,-449.5015"/>
</a>
</g>
</g>
<!-- github.com/go&#45;i2p/crypto/rand.ReadBigIntInRange -->
<g id="node5" class="node">
<title>github.com/go&#45;i2p/crypto/rand.ReadBigIntInRange</title>
<g id="a_node5"><a xlink:title="github.com/go&#45;i2p/crypto/rand.ReadBigIntInRange | defined in secure_reader.go:160&#10;at secure_reader.go:161: calling [(*github.com/go&#45;i2p/crypto/rand.SecureReader).ReadBigIntInRange]">
<path fill="#add8e6" stroke="#000000" stroke-width="1.5" d="M139.9559,-285C139.9559,-285 28.0147,-285 28.0147,-285 22.0147,-285 16.0147,-279 16.0147,-273 16.0147,-273 16.0147,-261 16.0147,-261 16.0147,-255 22.0147,-249 28.0147,-249 28.0147,-249 139.9559,-249 139.9559,-249 145.9559,-249 151.9559,-255 151.9559,-261 151.9559,-261 151.9559,-273 151.9559,-273 151.9559,-279 145.9559,-285 139.9559,-285"/>
<text text-anchor="middle" x="83.9853" y="-262.8" font-family="Verdana" font-size="14.00" fill="#000000">ReadBigIntInRange</text>
</a>
</g>
</g>
<!-- (*github.com/go&#45;i2p/crypto/rand.SecureReader).ReadBigIntInRange -->
<g id="node10" class="node">
<title>(*github.com/go&#45;i2p/crypto/rand.SecureReader).ReadBigIntInRange</title>
<g id="a_node10"><a xlink:title="(*github.com/go&#45;i2p/crypto/rand.SecureReader).ReadBigIntInRange | defined in secure_reader.go:87&#10;at secure_reader.go:91: calling [github.com/samber/oops.Errorf]&#10;at secure_reader.go:100: calling [github.com/samber/oops.Errorf]&#10;at secure_reader.go:98: calling [(*github.com/go&#45;i2p/crypto/rand.SecureReader).ReadBigInt]&#10;at secure_reader.go:110: calling [(*github.com/sirupsen/logrus.Logger).Debug]&#10;at secure_reader.go:106: calling [(*github.com/go&#45;i2p/logger.Logger).WithFields]&#10;at secure_reader.go:88: calling [github.com/go&#45;i2p/logger.GetGoI2PLogger]">
<path fill="#add8e6" stroke="#000000" stroke-width="1.5" d="M348.9265,-285C348.9265,-285 236.9853,-285 236.9853,-285 230.9853,-285 224.9853,-279 224.9853,-273 224.9853,-273 224.9853,-261 224.9853,-261 224.9853,-255 230.9853,-249 236.9853,-249 236.9853,-249 348.9265,-249 348.9265,-249 354.9265,-249 360.9265,-255 360.9265,-261 360.9265,-261 360.9265,-273 360.9265,-273 360.9265,-279 354.9265,-285 348.9265,-285"/>
<text text-anchor="middle" x="292.9559" y="-262.8" font-family="Verdana" font-size="14.00" fill="#000000">ReadBigIntInRange</text>
</a>
</g>
</g>
<!-- github.com/go&#45;i2p/crypto/rand.ReadBigIntInRange&#45;&gt;(*github.com/go&#45;i2p/crypto/rand.SecureReader).ReadBigIntInRange -->
<g id="edge13" class="edge">
<title>github.com/go&#45;i2p/crypto/rand.ReadBigIntInRange&#45;&gt;(*github.com/go&#45;i2p/crypto/rand.SecureReader).ReadBigIntInRange</title>
<g id="a_edge13"><a xlink:title="at secure_reader.go:161: calling [(*github.com/go&#45;i2p/crypto/rand.SecureReader).ReadBigIntInRange]">
<path fill="none" stroke="#000000" d="M152.1209,-267C172.0915,-267 194.0859,-267 214.6369,-267"/>
<polygon fill="#000000" stroke="#000000" points="214.9129,-270.5001 224.9128,-267 214.9128,-263.5001 214.9129,-270.5001"/>
</a>
</g>
</g>
<!-- github.com/go&#45;i2p/crypto/rand.ReadBigInt -->
<g id="node6" class="node">
<title>github.com/go&#45;i2p/crypto/rand.ReadBigInt</title>
<g id="a_node6"><a xlink:title="github.com/go&#45;i2p/crypto/rand.ReadBigInt | defined in secure_reader.go:155&#10;at secure_reader.go:156: calling [(*github.com/go&#45;i2p/crypto/rand.SecureReader).ReadBigInt]">
<path fill="#add8e6" stroke="#000000" stroke-width="1.5" d="M325.0013,-146C325.0013,-146 260.9105,-146 260.9105,-146 254.9105,-146 248.9105,-140 248.9105,-134 248.9105,-134 248.9105,-122 248.9105,-122 248.9105,-116 254.9105,-110 260.9105,-110 260.9105,-110 325.0013,-110 325.0013,-110 331.0013,-110 337.0013,-116 337.0013,-122 337.0013,-122 337.0013,-134 337.0013,-134 337.0013,-140 331.0013,-146 325.0013,-146"/>
<text text-anchor="middle" x="292.9559" y="-123.8" font-family="Verdana" font-size="14.00" fill="#000000">ReadBigInt</text>
</a>
</g>
</g>
<!-- (*github.com/go&#45;i2p/crypto/rand.SecureReader).ReadBigInt -->
<g id="node11" class="node">
<title>(*github.com/go&#45;i2p/crypto/rand.SecureReader).ReadBigInt</title>
<g id="a_node11"><a xlink:title="(*github.com/go&#45;i2p/crypto/rand.SecureReader).ReadBigInt | defined in secure_reader.go:57&#10;at secure_reader.go:74: calling [(*github.com/go&#45;i2p/logger.Logger).WithField]&#10;at secure_reader.go:78: calling [(*github.com/go&#45;i2p/logger.Logger).WithField]&#10;at secure_reader.go:58: calling [github.com/go&#45;i2p/logger.GetGoI2PLogger]&#10;at secure_reader.go:82: calling [(*github.com/go&#45;i2p/logger.Logger).Error]&#10;at secure_reader.go:68: calling [(*github.com/go&#45;i2p/logger.Logger).Error]&#10;at secure_reader.go:74: calling [(*github.com/sirupsen/logrus.Logger).Debug]&#10;at secure_reader.go:78: calling [(*github.com/sirupsen/logrus.Logger).Debug]&#10;at secure_reader.go:61: calling [github.com/samber/oops.Errorf]&#10;at secure_reader.go:81: calling [github.com/samber/oops.Errorf]&#10;at secure_reader.go:69: calling [github.com/samber/oops.Errorf]&#10;at secure_reader.go:82: calling [(*github.com/go&#45;i2p/logger.Logger).WithError]&#10;at secure_reader.go:68: calling [(*github.com/go&#45;i2p/logger.Logger).WithError]">
<path fill="#add8e6" stroke="#000000" stroke-width="1.5" d="M522.6963,-224C522.6963,-224 458.6055,-224 458.6055,-224 452.6055,-224 446.6055,-218 446.6055,-212 446.6055,-212 446.6055,-200 446.6055,-200 446.6055,-194 452.6055,-188 458.6055,-188 458.6055,-188 522.6963,-188 522.6963,-188 528.6963,-188 534.6963,-194 534.6963,-200 534.6963,-200 534.6963,-212 534.6963,-212 534.6963,-218 528.6963,-224 522.6963,-224"/>
<text text-anchor="middle" x="490.6509" y="-201.8" font-family="Verdana" font-size="14.00" fill="#000000">ReadBigInt</text>
</a>
</g>
</g>
<!-- github.com/go&#45;i2p/crypto/rand.ReadBigInt&#45;&gt;(*github.com/go&#45;i2p/crypto/rand.SecureReader).ReadBigInt -->
<g id="edge2" class="edge">
<title>github.com/go&#45;i2p/crypto/rand.ReadBigInt&#45;&gt;(*github.com/go&#45;i2p/crypto/rand.SecureReader).ReadBigInt</title>
<g id="a_edge2"><a xlink:title="at secure_reader.go:156: calling [(*github.com/go&#45;i2p/crypto/rand.SecureReader).ReadBigInt]">
<path fill="none" stroke="#000000" d="M337.053,-141.5974C345.049,-144.2533 353.2791,-147.1137 360.9412,-150 388.1958,-160.2669 418.0724,-173.0571 442.2754,-183.8211"/>
<polygon fill="#000000" stroke="#000000" points="441.0369,-187.1013 451.5944,-187.9899 443.8954,-180.7115 441.0369,-187.1013"/>
</a>
</g>
</g>
<!-- github.com/go&#45;i2p/crypto/rand.Read -->
<g id="node7" class="node">
<title>github.com/go&#45;i2p/crypto/rand.Read</title>
<g id="a_node7"><a xlink:title="github.com/go&#45;i2p/crypto/rand.Read | defined in secure_reader.go:150&#10;at secure_reader.go:151: calling [(*github.com/go&#45;i2p/crypto/rand.SecureReader).Read]">
<path fill="#add8e6" stroke="#000000" stroke-width="1.5" d="M98.9853,-224C98.9853,-224 68.9853,-224 68.9853,-224 62.9853,-224 56.9853,-218 56.9853,-212 56.9853,-212 56.9853,-200 56.9853,-200 56.9853,-194 62.9853,-188 68.9853,-188 68.9853,-188 98.9853,-188 98.9853,-188 104.9853,-188 110.9853,-194 110.9853,-200 110.9853,-200 110.9853,-212 110.9853,-212 110.9853,-218 104.9853,-224 98.9853,-224"/>
<text text-anchor="middle" x="83.9853" y="-201.8" font-family="Verdana" font-size="14.00" fill="#000000">Read</text>
</a>
</g>
</g>
<!-- (*github.com/go&#45;i2p/crypto/rand.SecureReader).Read -->
<g id="node8" class="node">
<title>(*github.com/go&#45;i2p/crypto/rand.SecureReader).Read</title>
<g id="a_node8"><a xlink:title="(*github.com/go&#45;i2p/crypto/rand.SecureReader).Read | defined in secure_reader.go:28&#10;at secure_reader.go:29: calling [github.com/go&#45;i2p/logger.GetGoI2PLogger]&#10;at secure_reader.go:47: calling [(*github.com/sirupsen/logrus.Logger).Debug]&#10;at secure_reader.go:42: calling [(*github.com/sirupsen/logrus.Logger).Debug]&#10;at secure_reader.go:52: calling [(*github.com/go&#45;i2p/logger.Logger).Error]&#10;at secure_reader.go:35: calling [(*github.com/go&#45;i2p/logger.Logger).Error]&#10;at secure_reader.go:41: calling [(*github.com/go&#45;i2p/crypto/rand.SecureReader).validateEntropy]&#10;at secure_reader.go:51: calling [github.com/samber/oops.Errorf]&#10;at secure_reader.go:36: calling [github.com/samber/oops.Errorf]&#10;at secure_reader.go:52: calling [(*github.com/go&#45;i2p/logger.Logger).WithError]&#10;at secure_reader.go:35: calling [(*github.com/go&#45;i2p/logger.Logger).WithError]&#10;at secure_reader.go:47: calling [(*github.com/go&#45;i2p/logger.Logger).WithField]&#10;at secure_reader.go:42: calling [(*github.com/go&#45;i2p/logger.Logger).WithField]">
<path fill="#add8e6" stroke="#000000" stroke-width="1.5" d="M307.9559,-224C307.9559,-224 277.9559,-224 277.9559,-224 271.9559,-224 265.9559,-218 265.9559,-212 265.9559,-212 265.9559,-200 265.9559,-200 265.9559,-194 271.9559,-188 277.9559,-188 277.9559,-188 307.9559,-188 307.9559,-188 313.9559,-188 319.9559,-194 319.9559,-200 319.9559,-200 319.9559,-212 319.9559,-212 319.9559,-218 313.9559,-224 307.9559,-224"/>
<text text-anchor="middle" x="292.9559" y="-201.8" font-family="Verdana" font-size="14.00" fill="#000000">Read</text>
</a>
</g>
</g>
<!-- github.com/go&#45;i2p/crypto/rand.Read&#45;&gt;(*github.com/go&#45;i2p/crypto/rand.SecureReader).Read -->
<g id="edge21" class="edge">
<title>github.com/go&#45;i2p/crypto/rand.Read&#45;&gt;(*github.com/go&#45;i2p/crypto/rand.SecureReader).Read</title>
<g id="a_edge21"><a xlink:title="at secure_reader.go:151: calling [(*github.com/go&#45;i2p/crypto/rand.SecureReader).Read]">
<path fill="none" stroke="#000000" d="M111.3046,-206C148.1466,-206 213.9089,-206 255.3856,-206"/>
<polygon fill="#000000" stroke="#000000" points="255.63,-209.5001 265.6299,-206 255.6299,-202.5001 255.63,-209.5001"/>
</a>
</g>
</g>
<!-- (*github.com/go&#45;i2p/crypto/rand.SecureReader).Read&#45;&gt;github.com/go&#45;i2p/logger.GetGoI2PLogger -->
<g id="edge3" class="edge">
<title>(*github.com/go&#45;i2p/crypto/rand.SecureReader).Read&#45;&gt;github.com/go&#45;i2p/logger.GetGoI2PLogger</title>
<g id="a_edge3"><a xlink:title="at secure_reader.go:29: calling [github.com/go&#45;i2p/logger.GetGoI2PLogger]">
<path fill="none" stroke="#8b4513" d="M320.0439,-212.6139C334.0039,-217.2987 350.2875,-224.9485 360.9412,-237 432.5349,-317.9869 352.5306,-397.8884 433.9412,-469 482.8243,-511.699 558.2343,-519.5258 613.5482,-518.4576"/>
<polygon fill="#8b4513" stroke="#8b4513" points="613.739,-521.9536 623.6317,-518.1611 613.5331,-514.9567 613.739,-521.9536"/>
</a>
</g>
</g>
<!-- (*github.com/go&#45;i2p/crypto/rand.SecureReader).Read&#45;&gt;github.com/samber/oops.Errorf -->
<g id="edge22" class="edge">
<title>(*github.com/go&#45;i2p/crypto/rand.SecureReader).Read&#45;&gt;github.com/samber/oops.Errorf</title>
<g id="a_edge22"><a xlink:title="at secure_reader.go:51: calling [github.com/samber/oops.Errorf]&#10;at secure_reader.go:36: calling [github.com/samber/oops.Errorf]">
<path fill="none" stroke="#8b4513" d="M319.9604,-216.3405C332.7935,-221.7427 348.0978,-228.9129 360.9412,-237 396.7198,-259.5287 394.6136,-282.4761 433.9412,-298 471.2057,-312.7095 584.2597,-313.5082 644.9409,-312.7927"/>
<polygon fill="#8b4513" stroke="#8b4513" points="645.3261,-316.2878 655.2769,-312.6501 645.2295,-309.2885 645.3261,-316.2878"/>
</a>
</g>
</g>
<!-- (*github.com/go&#45;i2p/crypto/rand.SecureReader).validateEntropy -->
<g id="node9" class="node">
<title>(*github.com/go&#45;i2p/crypto/rand.SecureReader).validateEntropy</title>
<g id="a_node9"><a xlink:title="(*github.com/go&#45;i2p/crypto/rand.SecureReader).validateEntropy | defined in secure_reader.go:116">
<path fill="#add8e6" stroke="#000000" stroke-width=".5" d="M535.5711,-285C535.5711,-285 445.7307,-285 445.7307,-285 439.7307,-285 433.7307,-279 433.7307,-273 433.7307,-273 433.7307,-261 433.7307,-261 433.7307,-255 439.7307,-249 445.7307,-249 445.7307,-249 535.5711,-249 535.5711,-249 541.5711,-249 547.5711,-255 547.5711,-261 547.5711,-261 547.5711,-273 547.5711,-273 547.5711,-279 541.5711,-285 535.5711,-285"/>
<text text-anchor="middle" x="490.6509" y="-262.8" font-family="Verdana" font-size="14.00" fill="#000000">validateEntropy</text>
</a>
</g>
</g>
<!-- (*github.com/go&#45;i2p/crypto/rand.SecureReader).Read&#45;&gt;(*github.com/go&#45;i2p/crypto/rand.SecureReader).validateEntropy -->
<g id="edge17" class="edge">
<title>(*github.com/go&#45;i2p/crypto/rand.SecureReader).Read&#45;&gt;(*github.com/go&#45;i2p/crypto/rand.SecureReader).validateEntropy</title>
<g id="a_edge17"><a xlink:title="at secure_reader.go:41: calling [(*github.com/go&#45;i2p/crypto/rand.SecureReader).validateEntropy]">
<path fill="none" stroke="#000000" d="M320.1869,-218.148C332.6567,-223.7798 347.5978,-230.6245 360.9412,-237 377.0819,-244.7121 379.828,-249.7904 396.9412,-255 405.3775,-257.5682 414.4037,-259.5869 423.3998,-261.1737"/>
<polygon fill="#000000" stroke="#000000" points="423.0842,-264.6676 433.5109,-262.788 424.1878,-257.7551 423.0842,-264.6676"/>
</a>
</g>
</g>
<!-- (*github.com/go&#45;i2p/logger.Logger).WithError -->
<g id="node12" class="node">
<title>(*github.com/go&#45;i2p/logger.Logger).WithError</title>
<g id="a_node12"><a xlink:title="(*github.com/go&#45;i2p/logger.Logger).WithError | defined in log.go:66">
<path fill="#ffe4b5" stroke="#000000" stroke-width="1.5" d="M712.97,-269C712.97,-269 655.907,-269 655.907,-269 649.907,-269 643.907,-263 643.907,-257 643.907,-257 643.907,-245 643.907,-245 643.907,-239 649.907,-233 655.907,-233 655.907,-233 712.97,-233 712.97,-233 718.97,-233 724.97,-239 724.97,-245 724.97,-245 724.97,-257 724.97,-257 724.97,-263 718.97,-269 712.97,-269"/>
<text text-anchor="middle" x="684.4385" y="-255.2" font-family="Verdana" font-size="14.00" fill="#000000">logger</text>
<text text-anchor="middle" x="684.4385" y="-238.4" font-family="Verdana" font-size="14.00" fill="#000000">WithError</text>
</a>
</g>
</g>
<!-- (*github.com/go&#45;i2p/crypto/rand.SecureReader).Read&#45;&gt;(*github.com/go&#45;i2p/logger.Logger).WithError -->
<g id="edge23" class="edge">
<title>(*github.com/go&#45;i2p/crypto/rand.SecureReader).Read&#45;&gt;(*github.com/go&#45;i2p/logger.Logger).WithError</title>
<g id="a_edge23"><a xlink:title="at secure_reader.go:52: calling [(*github.com/go&#45;i2p/logger.Logger).WithError]&#10;at secure_reader.go:35: calling [(*github.com/go&#45;i2p/logger.Logger).WithError]">
<path fill="none" stroke="#8b4513" d="M319.9759,-198.483C348.1577,-191.0617 393.7483,-180.2289 433.9412,-176 487.6091,-170.3533 503.8511,-159.9096 555.3606,-176 588.8988,-186.4765 589.8984,-203.4894 620.3606,-221 624.8383,-223.5739 629.5738,-226.1117 634.3615,-228.5556"/>
<polygon fill="#8b4513" stroke="#8b4513" points="633.0648,-231.8193 643.5789,-233.1248 636.1739,-225.5475 633.0648,-231.8193"/>
</a>
</g>
</g>
<!-- (*github.com/go&#45;i2p/logger.Logger).Error -->
<g id="node13" class="node">
<title>(*github.com/go&#45;i2p/logger.Logger).Error</title>
<g id="a_node13"><a xlink:title="(*github.com/go&#45;i2p/logger.Logger).Error | defined in log.go:42">
<path fill="#ffe4b5" stroke="#000000" stroke-width="1.5" d="M702.2048,-86C702.2048,-86 666.6722,-86 666.6722,-86 660.6722,-86 654.6722,-80 654.6722,-74 654.6722,-74 654.6722,-62 654.6722,-62 654.6722,-56 660.6722,-50 666.6722,-50 666.6722,-50 702.2048,-50 702.2048,-50 708.2048,-50 714.2048,-56 714.2048,-62 714.2048,-62 714.2048,-74 714.2048,-74 714.2048,-80 708.2048,-86 702.2048,-86"/>
<text text-anchor="middle" x="684.4385" y="-72.2" font-family="Verdana" font-size="14.00" fill="#000000">logger</text>
<text text-anchor="middle" x="684.4385" y="-55.4" font-family="Verdana" font-size="14.00" fill="#000000">Error</text>
</a>
</g>
</g>
<!-- (*github.com/go&#45;i2p/crypto/rand.SecureReader).Read&#45;&gt;(*github.com/go&#45;i2p/logger.Logger).Error -->
<g id="edge16" class="edge">
<title>(*github.com/go&#45;i2p/crypto/rand.SecureReader).Read&#45;&gt;(*github.com/go&#45;i2p/logger.Logger).Error</title>
<g id="a_edge16"><a xlink:title="at secure_reader.go:52: calling [(*github.com/go&#45;i2p/logger.Logger).Error]&#10;at secure_reader.go:35: calling [(*github.com/go&#45;i2p/logger.Logger).Error]">
<path fill="none" stroke="#8b4513" d="M320.1269,-199.1521C332.8562,-195.4588 348.0259,-190.3467 360.9412,-184 396.2351,-166.6562 398.1809,-150.3607 433.9412,-134 504.5318,-101.7041 593.8106,-82.9547 644.485,-74.1666"/>
<polygon fill="#8b4513" stroke="#8b4513" points="645.1139,-77.61 654.39,-72.4909 643.9462,-70.708 645.1139,-77.61"/>
</a>
</g>
</g>
<!-- (*github.com/go&#45;i2p/logger.Logger).WithField -->
<g id="node14" class="node">
<title>(*github.com/go&#45;i2p/logger.Logger).WithField</title>
<g id="a_node14"><a xlink:title="(*github.com/go&#45;i2p/logger.Logger).WithField | defined in log.go:54">
<path fill="#ffe4b5" stroke="#000000" stroke-width="1.5" d="M712.713,-208C712.713,-208 656.164,-208 656.164,-208 650.164,-208 644.164,-202 644.164,-196 644.164,-196 644.164,-184 644.164,-184 644.164,-178 650.164,-172 656.164,-172 656.164,-172 712.713,-172 712.713,-172 718.713,-172 724.713,-178 724.713,-184 724.713,-184 724.713,-196 724.713,-196 724.713,-202 718.713,-208 712.713,-208"/>
<text text-anchor="middle" x="684.4385" y="-194.2" font-family="Verdana" font-size="14.00" fill="#000000">logger</text>
<text text-anchor="middle" x="684.4385" y="-177.4" font-family="Verdana" font-size="14.00" fill="#000000">WithField</text>
</a>
</g>
</g>
<!-- (*github.com/go&#45;i2p/crypto/rand.SecureReader).Read&#45;&gt;(*github.com/go&#45;i2p/logger.Logger).WithField -->
<g id="edge24" class="edge">
<title>(*github.com/go&#45;i2p/crypto/rand.SecureReader).Read&#45;&gt;(*github.com/go&#45;i2p/logger.Logger).WithField</title>
<g id="a_edge24"><a xlink:title="at secure_reader.go:47: calling [(*github.com/go&#45;i2p/logger.Logger).WithField]&#10;at secure_reader.go:42: calling [(*github.com/go&#45;i2p/logger.Logger).WithField]">
<path fill="none" stroke="#8b4513" d="M320.0265,-199.6898C332.8747,-196.0902 348.1726,-190.9018 360.9412,-184 379.0154,-174.2304 377.5653,-161.8335 396.9412,-155 476.7304,-126.86 575.8373,-150.8331 634.3962,-170.5699"/>
<polygon fill="#8b4513" stroke="#8b4513" points="633.5459,-173.9793 644.1407,-173.9419 635.835,-167.3641 633.5459,-173.9793"/>
</a>
</g>
</g>
<!-- (*github.com/sirupsen/logrus.Logger).Debug -->
<g id="node16" class="node">
<title>(*github.com/sirupsen/logrus.Logger).Debug</title>
<g id="a_node16"><a xlink:title="(*github.com/sirupsen/logrus.Logger).Debug | defined in logger.go:221">
<path fill="#ffe4b5" stroke="#000000" stroke-width="1.5" d="M703.2605,-408C703.2605,-408 665.6165,-408 665.6165,-408 659.6165,-408 653.6165,-402 653.6165,-396 653.6165,-396 653.6165,-384 653.6165,-384 653.6165,-378 659.6165,-372 665.6165,-372 665.6165,-372 703.2605,-372 703.2605,-372 709.2605,-372 715.2605,-378 715.2605,-384 715.2605,-384 715.2605,-396 715.2605,-396 715.2605,-402 709.2605,-408 703.2605,-408"/>
<text text-anchor="middle" x="684.4385" y="-394.2" font-family="Verdana" font-size="14.00" fill="#000000">logrus</text>
<text text-anchor="middle" x="684.4385" y="-377.4" font-family="Verdana" font-size="14.00" fill="#000000">Debug</text>
</a>
</g>
</g>
<!-- (*github.com/go&#45;i2p/crypto/rand.SecureReader).Read&#45;&gt;(*github.com/sirupsen/logrus.Logger).Debug -->
<g id="edge4" class="edge">
<title>(*github.com/go&#45;i2p/crypto/rand.SecureReader).Read&#45;&gt;(*github.com/sirupsen/logrus.Logger).Debug</title>
<g id="a_edge4"><a xlink:title="at secure_reader.go:47: calling [(*github.com/sirupsen/logrus.Logger).Debug]&#10;at secure_reader.go:42: calling [(*github.com/sirupsen/logrus.Logger).Debug]">
<path fill="none" stroke="#8b4513" d="M320.1243,-212.9621C333.9353,-217.7229 350.0549,-225.3349 360.9412,-237 392.0313,-270.3144 362.2029,-303.5094 396.9412,-333 433.6537,-364.1665 573.2497,-380.4063 643.5171,-386.7541"/>
<polygon fill="#8b4513" stroke="#8b4513" points="643.4994,-390.2659 653.7672,-387.6542 644.1117,-383.2928 643.4994,-390.2659"/>
</a>
</g>
</g>
<!-- (*github.com/go&#45;i2p/crypto/rand.SecureReader).ReadBigIntInRange&#45;&gt;github.com/go&#45;i2p/logger.GetGoI2PLogger -->
<g id="edge18" class="edge">
<title>(*github.com/go&#45;i2p/crypto/rand.SecureReader).ReadBigIntInRange&#45;&gt;github.com/go&#45;i2p/logger.GetGoI2PLogger</title>
<g id="a_edge18"><a xlink:title="at secure_reader.go:88: calling [github.com/go&#45;i2p/logger.GetGoI2PLogger]">
<path fill="none" stroke="#8b4513" d="M294.3349,-285.1115C298.9852,-331.8978 318.5458,-456.7711 396.9412,-509 460.6882,-551.4698 551.3165,-544.1013 613.6923,-531.3841"/>
<polygon fill="#8b4513" stroke="#8b4513" points="614.7887,-534.729 623.8375,-529.2181 613.3271,-527.8832 614.7887,-534.729"/>
</a>
</g>
</g>
<!-- (*github.com/go&#45;i2p/crypto/rand.SecureReader).ReadBigIntInRange&#45;&gt;github.com/samber/oops.Errorf -->
<g id="edge5" class="edge">
<title>(*github.com/go&#45;i2p/crypto/rand.SecureReader).ReadBigIntInRange&#45;&gt;github.com/samber/oops.Errorf</title>
<g id="a_edge5"><a xlink:title="at secure_reader.go:91: calling [github.com/samber/oops.Errorf]&#10;at secure_reader.go:100: calling [github.com/samber/oops.Errorf]">
<path fill="none" stroke="#8b4513" d="M320.7675,-285.0054C340.991,-296.9812 369.5193,-311.6374 396.9412,-318 483.5184,-338.0881 588.7158,-327.3354 644.7669,-318.9216"/>
<polygon fill="#8b4513" stroke="#8b4513" points="645.631,-322.3294 654.9737,-317.3329 644.5543,-315.4126 645.631,-322.3294"/>
</a>
</g>
</g>
<!-- (*github.com/go&#45;i2p/crypto/rand.SecureReader).ReadBigIntInRange&#45;&gt;(*github.com/go&#45;i2p/crypto/rand.SecureReader).ReadBigInt -->
<g id="edge7" class="edge">
<title>(*github.com/go&#45;i2p/crypto/rand.SecureReader).ReadBigIntInRange&#45;&gt;(*github.com/go&#45;i2p/crypto/rand.SecureReader).ReadBigInt</title>
<g id="a_edge7"><a xlink:title="at secure_reader.go:98: calling [(*github.com/go&#45;i2p/crypto/rand.SecureReader).ReadBigInt]">
<path fill="none" stroke="#000000" d="M349.297,-248.9284C364.7272,-244.0314 381.4649,-238.7675 396.9412,-234 409.743,-230.0564 423.5539,-225.8843 436.5362,-221.9991"/>
<polygon fill="#000000" stroke="#000000" points="437.6912,-225.307 446.272,-219.0925 435.6886,-218.5995 437.6912,-225.307"/>
</a>
</g>
</g>
<!-- (*github.com/go&#45;i2p/logger.Logger).WithFields -->
<g id="node15" class="node">
<title>(*github.com/go&#45;i2p/logger.Logger).WithFields</title>
<g id="a_node15"><a xlink:title="(*github.com/go&#45;i2p/logger.Logger).WithFields | defined in log.go:60">
<path fill="#ffe4b5" stroke="#000000" stroke-width="1.5" d="M715.6576,-147C715.6576,-147 653.2194,-147 653.2194,-147 647.2194,-147 641.2194,-141 641.2194,-135 641.2194,-135 641.2194,-123 641.2194,-123 641.2194,-117 647.2194,-111 653.2194,-111 653.2194,-111 715.6576,-111 715.6576,-111 721.6576,-111 727.6576,-117 727.6576,-123 727.6576,-123 727.6576,-135 727.6576,-135 727.6576,-141 721.6576,-147 715.6576,-147"/>
<text text-anchor="middle" x="684.4385" y="-133.2" font-family="Verdana" font-size="14.00" fill="#000000">logger</text>
<text text-anchor="middle" x="684.4385" y="-116.4" font-family="Verdana" font-size="14.00" fill="#000000">WithFields</text>
</a>
</g>
</g>
<!-- (*github.com/go&#45;i2p/crypto/rand.SecureReader).ReadBigIntInRange&#45;&gt;(*github.com/go&#45;i2p/logger.Logger).WithFields -->
<g id="edge12" class="edge">
<title>(*github.com/go&#45;i2p/crypto/rand.SecureReader).ReadBigIntInRange&#45;&gt;(*github.com/go&#45;i2p/logger.Logger).WithFields</title>
<g id="a_edge12"><a xlink:title="at secure_reader.go:106: calling [(*github.com/go&#45;i2p/logger.Logger).WithFields]">
<path fill="none" stroke="#8b4513" d="M338.8432,-248.8689C346.4137,-245.2832 354.037,-241.2885 360.9412,-237 396.8571,-214.6907 395.7017,-194.0387 433.9412,-176 497.5335,-146.0016 578.6961,-135.1356 631.114,-131.2085"/>
<polygon fill="#8b4513" stroke="#8b4513" points="631.4655,-134.6927 641.2006,-130.512 630.9832,-127.7093 631.4655,-134.6927"/>
</a>
</g>
</g>
<!-- (*github.com/go&#45;i2p/crypto/rand.SecureReader).ReadBigIntInRange&#45;&gt;(*github.com/sirupsen/logrus.Logger).Debug -->
<g id="edge8" class="edge">
<title>(*github.com/go&#45;i2p/crypto/rand.SecureReader).ReadBigIntInRange&#45;&gt;(*github.com/sirupsen/logrus.Logger).Debug</title>
<g id="a_edge8"><a xlink:title="at secure_reader.go:110: calling [(*github.com/sirupsen/logrus.Logger).Debug]">
<path fill="none" stroke="#8b4513" d="M301.9811,-285.4106C317.0908,-313.8567 350.4854,-367.4571 396.9412,-389 418.6554,-399.0695 569.2375,-394.6106 643.3797,-391.7418"/>
<polygon fill="#8b4513" stroke="#8b4513" points="643.8858,-395.2246 653.7396,-391.332 643.609,-388.2301 643.8858,-395.2246"/>
</a>
</g>
</g>
<!-- (*github.com/go&#45;i2p/crypto/rand.SecureReader).ReadBigInt&#45;&gt;github.com/go&#45;i2p/logger.GetGoI2PLogger -->
<g id="edge6" class="edge">
<title>(*github.com/go&#45;i2p/crypto/rand.SecureReader).ReadBigInt&#45;&gt;github.com/go&#45;i2p/logger.GetGoI2PLogger</title>
<g id="a_edge6"><a xlink:title="at secure_reader.go:58: calling [github.com/go&#45;i2p/logger.GetGoI2PLogger]">
<path fill="none" stroke="#8b4513" d="M535.0159,-220.8611C542.6502,-225.0767 549.8782,-230.3801 555.3606,-237 557.6061,-239.7114 618.1031,-479.2986 620.3606,-482 622.0492,-484.0206 623.9043,-485.9131 625.8863,-487.6849"/>
<polygon fill="#8b4513" stroke="#8b4513" points="624.0026,-490.6502 634.0752,-493.9356 628.2499,-485.0859 624.0026,-490.6502"/>
</a>
</g>
</g>
<!-- (*github.com/go&#45;i2p/crypto/rand.SecureReader).ReadBigInt&#45;&gt;github.com/samber/oops.Errorf -->
<g id="edge19" class="edge">
<title>(*github.com/go&#45;i2p/crypto/rand.SecureReader).ReadBigInt&#45;&gt;github.com/samber/oops.Errorf</title>
<g id="a_edge19"><a xlink:title="at secure_reader.go:61: calling [github.com/samber/oops.Errorf]&#10;at secure_reader.go:81: calling [github.com/samber/oops.Errorf]&#10;at secure_reader.go:69: calling [github.com/samber/oops.Errorf]">
<path fill="none" stroke="#8b4513" d="M528.7262,-224.0019C537.4993,-228.2159 546.7746,-232.7241 555.3606,-237 568.3499,-243.4688 572.3363,-243.877 584.3606,-252 601.857,-263.8197 602.5609,-271.6423 620.3606,-283 628.2981,-288.0648 637.2675,-292.7095 645.927,-296.7278"/>
<polygon fill="#8b4513" stroke="#8b4513" points="644.5796,-299.9591 655.1384,-300.8323 647.4287,-293.5651 644.5796,-299.9591"/>
</a>
</g>
</g>
<!-- (*github.com/go&#45;i2p/crypto/rand.SecureReader).ReadBigInt&#45;&gt;(*github.com/go&#45;i2p/logger.Logger).WithError -->
<g id="edge20" class="edge">
<title>(*github.com/go&#45;i2p/crypto/rand.SecureReader).ReadBigInt&#45;&gt;(*github.com/go&#45;i2p/logger.Logger).WithError</title>
<g id="a_edge20"><a xlink:title="at secure_reader.go:82: calling [(*github.com/go&#45;i2p/logger.Logger).WithError]&#10;at secure_reader.go:68: calling [(*github.com/go&#45;i2p/logger.Logger).WithError]">
<path fill="none" stroke="#8b4513" d="M534.9149,-204.7624C550.6758,-205.1412 568.4542,-206.5141 584.3606,-210 594.6919,-212.2641 615.3115,-220.4757 635.1635,-228.9616"/>
<polygon fill="#8b4513" stroke="#8b4513" points="633.9256,-232.2394 644.4937,-232.9914 636.7012,-225.8132 633.9256,-232.2394"/>
</a>
</g>
</g>
<!-- (*github.com/go&#45;i2p/crypto/rand.SecureReader).ReadBigInt&#45;&gt;(*github.com/go&#45;i2p/logger.Logger).Error -->
<g id="edge10" class="edge">
<title>(*github.com/go&#45;i2p/crypto/rand.SecureReader).ReadBigInt&#45;&gt;(*github.com/go&#45;i2p/logger.Logger).Error</title>
<g id="a_edge10"><a xlink:title="at secure_reader.go:82: calling [(*github.com/go&#45;i2p/logger.Logger).Error]&#10;at secure_reader.go:68: calling [(*github.com/go&#45;i2p/logger.Logger).Error]">
<path fill="none" stroke="#8b4513" d="M509.7297,-187.7535C534.0693,-165.0876 578.0928,-126.1026 620.3606,-99 628.2296,-93.9543 637.0427,-89.1839 645.555,-84.9667"/>
<polygon fill="#8b4513" stroke="#8b4513" points="647.1122,-88.1016 654.6147,-80.6207 644.0846,-81.7902 647.1122,-88.1016"/>
</a>
</g>
</g>
<!-- (*github.com/go&#45;i2p/crypto/rand.SecureReader).ReadBigInt&#45;&gt;(*github.com/go&#45;i2p/logger.Logger).WithField -->
<g id="edge1" class="edge">
<title>(*github.com/go&#45;i2p/crypto/rand.SecureReader).ReadBigInt&#45;&gt;(*github.com/go&#45;i2p/logger.Logger).WithField</title>
<g id="a_edge1"><a xlink:title="at secure_reader.go:74: calling [(*github.com/go&#45;i2p/logger.Logger).WithField]&#10;at secure_reader.go:78: calling [(*github.com/go&#45;i2p/logger.Logger).WithField]">
<path fill="none" stroke="#8b4513" d="M534.9732,-202.111C550.2981,-200.7834 567.5823,-199.3051 583.3606,-198 599.7662,-196.643 617.674,-195.2098 633.7972,-193.9373"/>
<polygon fill="#8b4513" stroke="#8b4513" points="634.4064,-197.4003 644.1011,-193.1267 633.8573,-190.4218 634.4064,-197.4003"/>
</a>
</g>
</g>
<!-- (*github.com/go&#45;i2p/crypto/rand.SecureReader).ReadBigInt&#45;&gt;(*github.com/sirupsen/logrus.Logger).Debug -->
<g id="edge11" class="edge">
<title>(*github.com/go&#45;i2p/crypto/rand.SecureReader).ReadBigInt&#45;&gt;(*github.com/sirupsen/logrus.Logger).Debug</title>
<g id="a_edge11"><a xlink:title="at secure_reader.go:74: calling [(*github.com/sirupsen/logrus.Logger).Debug]&#10;at secure_reader.go:78: calling [(*github.com/sirupsen/logrus.Logger).Debug]">
<path fill="none" stroke="#8b4513" d="M534.9158,-220.9448C542.5588,-225.1531 549.8157,-230.4324 555.3606,-237 584.5832,-271.612 559.2837,-296.63 583.3606,-335 595.0724,-353.6645 601.3435,-356.8698 620.3606,-368 627.6497,-372.2661 635.8909,-375.8698 643.9768,-378.8471"/>
<polygon fill="#8b4513" stroke="#8b4513" points="643.0937,-382.2441 653.6883,-382.1705 645.3602,-375.6212 643.0937,-382.2441"/>
</a>
</g>
</g>
</g>
</svg>
