<?xml version="1.0" encoding="UTF-8" standalone="no"?>
<!DOCTYPE svg PUBLIC "-//W3C//DTD SVG 1.1//EN"
 "http://www.w3.org/Graphics/SVG/1.1/DTD/svg11.dtd">
<!-- Generated by graphviz version 2.40.1 (20161225.0304)
 -->
<!-- Title: gocallvis Pages: 1 -->
<svg width="765pt" height="576pt"
 viewBox="0.00 0.00 764.52 576.00" xmlns="http://www.w3.org/2000/svg" xmlns:xlink="http://www.w3.org/1999/xlink">
<g id="graph0" class="graph" transform="scale(1 1) rotate(0) translate(0 576)">
<title>gocallvis</title>
<polygon fill="#d3d3d3" stroke="transparent" points="0,0 0,-576 764.5164,-576 764.5164,0 0,0"/>
<g id="clust1" class="cluster">
<title>cluster_focus</title>
<polygon fill="#e6ecfa" stroke="#000000" stroke-width=".5" points="8,-8 8,-568 756.5164,-568 756.5164,-8 8,-8"/>
<text text-anchor="middle" x="382.2582" y="-547.8" font-family="Arial" font-size="18.00" fill="#000000">rand</text>
</g>
<g id="clust4" class="cluster">
<title>cluster_*github.com/sirupsen/logrus.Logger</title>
<g id="a_clust4"><a xlink:title="type: *github.com/sirupsen/logrus.Logger">
<path fill="#eed8ae" stroke="#000000" stroke-width=".5" d="M657.7779,-338C657.7779,-338 712.0991,-338 712.0991,-338 718.0991,-338 724.0991,-344 724.0991,-350 724.0991,-350 724.0991,-404 724.0991,-404 724.0991,-410 718.0991,-416 712.0991,-416 712.0991,-416 657.7779,-416 657.7779,-416 651.7779,-416 645.7779,-410 645.7779,-404 645.7779,-404 645.7779,-350 645.7779,-350 645.7779,-344 651.7779,-338 657.7779,-338"/>
<text text-anchor="middle" x="684.9385" y="-346.5" font-family="Arial" font-size="15.00" fill="#222222">(*Logger)</text>
</a>
</g>
</g>
<g id="clust3" class="cluster">
<title>cluster_*github.com/go&#45;i2p/logger.Logger</title>
<g id="a_clust3"><a xlink:title="type: *github.com/go&#45;i2p/logger.Logger">
<path fill="#eed8ae" stroke="#000000" stroke-width=".5" d="M645.3291,-16C645.3291,-16 723.5479,-16 723.5479,-16 729.5479,-16 735.5479,-22 735.5479,-28 735.5479,-28 735.5479,-265 735.5479,-265 735.5479,-271 729.5479,-277 723.5479,-277 723.5479,-277 645.3291,-277 645.3291,-277 639.3291,-277 633.3291,-271 633.3291,-265 633.3291,-265 633.3291,-28 633.3291,-28 633.3291,-22 639.3291,-16 645.3291,-16"/>
<text text-anchor="middle" x="684.4385" y="-24.5" font-family="Arial" font-size="15.00" fill="#222222">(*Logger)</text>
</a>
</g>
</g>
<g id="clust2" class="cluster">
<title>cluster_*github.com/go&#45;i2p/crypto/rand.SecureReader</title>
<g id="a_clust2"><a xlink:title="type: *github.com/go&#45;i2p/crypto/rand.SecureReader">
<path fill="#b0c4de" stroke="#000000" stroke-width=".5" d="M228.9706,-142C228.9706,-142 543.3606,-142 543.3606,-142 549.3606,-142 555.3606,-148 555.3606,-154 555.3606,-154 555.3606,-269 555.3606,-269 555.3606,-275 549.3606,-281 543.3606,-281 543.3606,-281 228.9706,-281 228.9706,-281 222.9706,-281 216.9706,-275 216.9706,-269 216.9706,-269 216.9706,-154 216.9706,-154 216.9706,-148 222.9706,-142 228.9706,-142"/>
<text text-anchor="middle" x="386.1656" y="-150.5" font-family="Arial" font-size="15.00" fill="#222222">(*SecureReader)</text>
</a>
</g>
</g>
<!-- github.com/go&#45;i2p/logger.GetGoI2PLogger -->
<g id="node1" class="node">
<title>github.com/go&#45;i2p/logger.GetGoI2PLogger</title>
<g id="a_node1"><a xlink:title="github.com/go&#45;i2p/logger.GetGoI2PLogger | defined in log.go:120">
<path fill="#ffe4b5" stroke="#000000" stroke-width="1.5" d="M733.128,-530C733.128,-530 635.749,-530 635.749,-530 629.749,-530 623.749,-524 623.749,-518 623.749,-518 623.749,-506 623.749,-506 623.749,-500 629.749,-494 635.749,-494 635.749,-494 733.128,-494 733.128,-494 739.128,-494 745.128,-500 745.128,-506 745.128,-506 745.128,-518 745.128,-518 745.128,-524 739.128,-530 733.128,-530"/>
<text text-anchor="middle" x="684.4385" y="-516.2" font-family="Verdana" font-size="14.00" fill="#000000">logger</text>
<text text-anchor="middle" x="684.4385" y="-499.4" font-family="Verdana" font-size="14.00" fill="#000000">GetGoI2PLogger</text>
</a>
</g>
</g>
<!-- github.com/samber/oops.Errorf -->
<g id="node2" class="node">
<title>github.com/samber/oops.Errorf</title>
<g id="a_node2"><a xlink:title="github.com/samber/oops.Errorf | defined in oops.go:34">
<path fill="#ffe4b5" stroke="#000000" stroke-width="1.5" d="M701.6338,-330C701.6338,-330 667.2432,-330 667.2432,-330 661.2432,-330 655.2432,-324 655.2432,-318 655.2432,-318 655.2432,-306 655.2432,-306 655.2432,-300 661.2432,-294 667.2432,-294 667.2432,-294 701.6338,-294 701.6338,-294 707.6338,-294 713.6338,-300 713.6338,-306 713.6338,-306 713.6338,-318 713.6338,-318 713.6338,-324 707.6338,-330 701.6338,-330"/>
<text text-anchor="middle" x="684.4385" y="-316.2" font-family="Verdana" font-size="14.00" fill="#000000">oops</text>
<text text-anchor="middle" x="684.4385" y="-299.4" font-family="Verdana" font-size="14.00" fill="#000000">Errorf</text>
</a>
</g>
</g>
<!-- github.com/go&#45;i2p/crypto/rand.ReadBigIntInRange -->
<g id="node3" class="node">
<title>github.com/go&#45;i2p/crypto/rand.ReadBigIntInRange</title>
<g id="a_node3"><a xlink:title="github.com/go&#45;i2p/crypto/rand.ReadBigIntInRange | defined in secure_reader.go:160&#10;at secure_reader.go:161: calling [(*github.com/go&#45;i2p/crypto/rand.SecureReader).ReadBigIntInRange]">
<path fill="#add8e6" stroke="#000000" stroke-width="1.5" d="M139.9559,-273C139.9559,-273 28.0147,-273 28.0147,-273 22.0147,-273 16.0147,-267 16.0147,-261 16.0147,-261 16.0147,-249 16.0147,-249 16.0147,-243 22.0147,-237 28.0147,-237 28.0147,-237 139.9559,-237 139.9559,-237 145.9559,-237 151.9559,-243 151.9559,-249 151.9559,-249 151.9559,-261 151.9559,-261 151.9559,-267 145.9559,-273 139.9559,-273"/>
<text text-anchor="middle" x="83.9853" y="-250.8" font-family="Verdana" font-size="14.00" fill="#000000">ReadBigIntInRange</text>
</a>
</g>
</g>
<!-- (*github.com/go&#45;i2p/crypto/rand.SecureReader).ReadBigIntInRange -->
<g id="node8" class="node">
<title>(*github.com/go&#45;i2p/crypto/rand.SecureReader).ReadBigIntInRange</title>
<g id="a_node8"><a xlink:title="(*github.com/go&#45;i2p/crypto/rand.SecureReader).ReadBigIntInRange | defined in secure_reader.go:87&#10;at secure_reader.go:98: calling [(*github.com/go&#45;i2p/crypto/rand.SecureReader).ReadBigInt]&#10;at secure_reader.go:106: calling [(*github.com/go&#45;i2p/logger.Logger).WithFields]&#10;at secure_reader.go:91: calling [github.com/samber/oops.Errorf]&#10;at secure_reader.go:100: calling [github.com/samber/oops.Errorf]&#10;at secure_reader.go:88: calling [github.com/go&#45;i2p/logger.GetGoI2PLogger]&#10;at secure_reader.go:110: calling [(*github.com/sirupsen/logrus.Logger).Debug]">
<path fill="#add8e6" stroke="#000000" stroke-width="1.5" d="M348.9265,-273C348.9265,-273 236.9853,-273 236.9853,-273 230.9853,-273 224.9853,-267 224.9853,-261 224.9853,-261 224.9853,-249 224.9853,-249 224.9853,-243 230.9853,-237 236.9853,-237 236.9853,-237 348.9265,-237 348.9265,-237 354.9265,-237 360.9265,-243 360.9265,-249 360.9265,-249 360.9265,-261 360.9265,-261 360.9265,-267 354.9265,-273 348.9265,-273"/>
<text text-anchor="middle" x="292.9559" y="-250.8" font-family="Verdana" font-size="14.00" fill="#000000">ReadBigIntInRange</text>
</a>
</g>
</g>
<!-- github.com/go&#45;i2p/crypto/rand.ReadBigIntInRange&#45;&gt;(*github.com/go&#45;i2p/crypto/rand.SecureReader).ReadBigIntInRange -->
<g id="edge21" class="edge">
<title>github.com/go&#45;i2p/crypto/rand.ReadBigIntInRange&#45;&gt;(*github.com/go&#45;i2p/crypto/rand.SecureReader).ReadBigIntInRange</title>
<g id="a_edge21"><a xlink:title="at secure_reader.go:161: calling [(*github.com/go&#45;i2p/crypto/rand.SecureReader).ReadBigIntInRange]">
<path fill="none" stroke="#000000" d="M152.1209,-255C172.0915,-255 194.0859,-255 214.6369,-255"/>
<polygon fill="#000000" stroke="#000000" points="214.9129,-258.5001 224.9128,-255 214.9128,-251.5001 214.9129,-258.5001"/>
</a>
</g>
</g>
<!-- github.com/go&#45;i2p/crypto/rand.init -->
<g id="node4" class="node">
<title>github.com/go&#45;i2p/crypto/rand.init</title>
<g id="a_node4"><a xlink:title="github.com/go&#45;i2p/crypto/rand.init | defined in .:0&#10;at secure_reader.go:147: calling [github.com/go&#45;i2p/crypto/rand.NewSecureReader]&#10;at constants.go:9: calling [github.com/go&#45;i2p/logger.GetGoI2PLogger]&#10;at constants.go:13: calling [github.com/samber/oops.Errorf]&#10;at constants.go:14: calling [github.com/samber/oops.Errorf]&#10;at constants.go:15: calling [github.com/samber/oops.Errorf]">
<path fill="#add8e6" stroke="#000000" stroke-width=".5" d="M505.6509,-456C505.6509,-456 475.6509,-456 475.6509,-456 469.6509,-456 463.6509,-450 463.6509,-444 463.6509,-444 463.6509,-432 463.6509,-432 463.6509,-426 469.6509,-420 475.6509,-420 475.6509,-420 505.6509,-420 505.6509,-420 511.6509,-420 517.6509,-426 517.6509,-432 517.6509,-432 517.6509,-444 517.6509,-444 517.6509,-450 511.6509,-456 505.6509,-456"/>
<text text-anchor="middle" x="490.6509" y="-433.8" font-family="Verdana" font-size="14.00" fill="#000000">init</text>
</a>
</g>
</g>
<!-- github.com/go&#45;i2p/crypto/rand.init&#45;&gt;github.com/go&#45;i2p/logger.GetGoI2PLogger -->
<g id="edge14" class="edge">
<title>github.com/go&#45;i2p/crypto/rand.init&#45;&gt;github.com/go&#45;i2p/logger.GetGoI2PLogger</title>
<g id="a_edge14"><a xlink:title="at constants.go:9: calling [github.com/go&#45;i2p/logger.GetGoI2PLogger]">
<path fill="none" stroke="#8b4513" d="M518.0049,-448.4454C546.3537,-459.2708 591.4879,-476.5058 627.6073,-490.2984"/>
<polygon fill="#8b4513" stroke="#8b4513" points="626.4653,-493.6087 637.056,-493.9064 628.9625,-487.0693 626.4653,-493.6087"/>
</a>
</g>
</g>
<!-- github.com/go&#45;i2p/crypto/rand.init&#45;&gt;github.com/samber/oops.Errorf -->
<g id="edge15" class="edge">
<title>github.com/go&#45;i2p/crypto/rand.init&#45;&gt;github.com/samber/oops.Errorf</title>
<g id="a_edge15"><a xlink:title="at constants.go:13: calling [github.com/samber/oops.Errorf]&#10;at constants.go:14: calling [github.com/samber/oops.Errorf]&#10;at constants.go:15: calling [github.com/samber/oops.Errorf]">
<path fill="none" stroke="#8b4513" d="M508.9196,-419.8868C532.7604,-397.1112 576.618,-358.0832 620.3606,-334 628.2211,-329.6723 637.0873,-325.9701 645.6616,-322.9051"/>
<polygon fill="#8b4513" stroke="#8b4513" points="646.7855,-326.2198 655.1491,-319.7159 644.5551,-319.5847 646.7855,-326.2198"/>
</a>
</g>
</g>
<!-- github.com/go&#45;i2p/crypto/rand.NewSecureReader -->
<g id="node5" class="node">
<title>github.com/go&#45;i2p/crypto/rand.NewSecureReader</title>
<g id="a_node5"><a xlink:title="github.com/go&#45;i2p/crypto/rand.NewSecureReader | defined in secure_reader.go:20">
<path fill="#add8e6" stroke="#000000" stroke-width="1.5" d="M736.5944,-469C736.5944,-469 632.2826,-469 632.2826,-469 626.2826,-469 620.2826,-463 620.2826,-457 620.2826,-457 620.2826,-445 620.2826,-445 620.2826,-439 626.2826,-433 632.2826,-433 632.2826,-433 736.5944,-433 736.5944,-433 742.5944,-433 748.5944,-439 748.5944,-445 748.5944,-445 748.5944,-457 748.5944,-457 748.5944,-463 742.5944,-469 736.5944,-469"/>
<text text-anchor="middle" x="684.4385" y="-446.8" font-family="Verdana" font-size="14.00" fill="#000000">NewSecureReader</text>
</a>
</g>
</g>
<!-- github.com/go&#45;i2p/crypto/rand.init&#45;&gt;github.com/go&#45;i2p/crypto/rand.NewSecureReader -->
<g id="edge6" class="edge">
<title>github.com/go&#45;i2p/crypto/rand.init&#45;&gt;github.com/go&#45;i2p/crypto/rand.NewSecureReader</title>
<g id="a_edge6"><a xlink:title="at secure_reader.go:147: calling [github.com/go&#45;i2p/crypto/rand.NewSecureReader]">
<path fill="none" stroke="#000000" d="M518.0049,-439.835C541.823,-441.4328 577.4901,-443.8255 609.7042,-445.9865"/>
<polygon fill="#000000" stroke="#000000" points="609.8107,-449.5015 620.0226,-446.6787 610.2793,-442.5172 609.8107,-449.5015"/>
</a>
</g>
</g>
<!-- github.com/go&#45;i2p/crypto/rand.ReadBigInt -->
<g id="node6" class="node">
<title>github.com/go&#45;i2p/crypto/rand.ReadBigInt</title>
<g id="a_node6"><a xlink:title="github.com/go&#45;i2p/crypto/rand.ReadBigInt | defined in secure_reader.go:155&#10;at secure_reader.go:156: calling [(*github.com/go&#45;i2p/crypto/rand.SecureReader).ReadBigInt]">
<path fill="#add8e6" stroke="#000000" stroke-width="1.5" d="M325.0013,-334C325.0013,-334 260.9105,-334 260.9105,-334 254.9105,-334 248.9105,-328 248.9105,-322 248.9105,-322 248.9105,-310 248.9105,-310 248.9105,-304 254.9105,-298 260.9105,-298 260.9105,-298 325.0013,-298 325.0013,-298 331.0013,-298 337.0013,-304 337.0013,-310 337.0013,-310 337.0013,-322 337.0013,-322 337.0013,-328 331.0013,-334 325.0013,-334"/>
<text text-anchor="middle" x="292.9559" y="-311.8" font-family="Verdana" font-size="14.00" fill="#000000">ReadBigInt</text>
</a>
</g>
</g>
<!-- (*github.com/go&#45;i2p/crypto/rand.SecureReader).ReadBigInt -->
<g id="node9" class="node">
<title>(*github.com/go&#45;i2p/crypto/rand.SecureReader).ReadBigInt</title>
<g id="a_node9"><a xlink:title="(*github.com/go&#45;i2p/crypto/rand.SecureReader).ReadBigInt | defined in secure_reader.go:57&#10;at secure_reader.go:58: calling [github.com/go&#45;i2p/logger.GetGoI2PLogger]&#10;at secure_reader.go:61: calling [github.com/samber/oops.Errorf]&#10;at secure_reader.go:81: calling [github.com/samber/oops.Errorf]&#10;at secure_reader.go:69: calling [github.com/samber/oops.Errorf]&#10;at secure_reader.go:82: calling [(*github.com/go&#45;i2p/logger.Logger).Error]&#10;at secure_reader.go:68: calling [(*github.com/go&#45;i2p/logger.Logger).Error]&#10;at secure_reader.go:74: calling [(*github.com/go&#45;i2p/logger.Logger).WithField]&#10;at secure_reader.go:78: calling [(*github.com/go&#45;i2p/logger.Logger).WithField]&#10;at secure_reader.go:74: calling [(*github.com/sirupsen/logrus.Logger).Debug]&#10;at secure_reader.go:78: calling [(*github.com/sirupsen/logrus.Logger).Debug]&#10;at secure_reader.go:82: calling [(*github.com/go&#45;i2p/logger.Logger).WithError]&#10;at secure_reader.go:68: calling [(*github.com/go&#45;i2p/logger.Logger).WithError]">
<path fill="#add8e6" stroke="#000000" stroke-width="1.5" d="M522.6963,-273C522.6963,-273 458.6055,-273 458.6055,-273 452.6055,-273 446.6055,-267 446.6055,-261 446.6055,-261 446.6055,-249 446.6055,-249 446.6055,-243 452.6055,-237 458.6055,-237 458.6055,-237 522.6963,-237 522.6963,-237 528.6963,-237 534.6963,-243 534.6963,-249 534.6963,-249 534.6963,-261 534.6963,-261 534.6963,-267 528.6963,-273 522.6963,-273"/>
<text text-anchor="middle" x="490.6509" y="-250.8" font-family="Verdana" font-size="14.00" fill="#000000">ReadBigInt</text>
</a>
</g>
</g>
<!-- github.com/go&#45;i2p/crypto/rand.ReadBigInt&#45;&gt;(*github.com/go&#45;i2p/crypto/rand.SecureReader).ReadBigInt -->
<g id="edge9" class="edge">
<title>github.com/go&#45;i2p/crypto/rand.ReadBigInt&#45;&gt;(*github.com/go&#45;i2p/crypto/rand.SecureReader).ReadBigInt</title>
<g id="a_edge9"><a xlink:title="at secure_reader.go:156: calling [(*github.com/go&#45;i2p/crypto/rand.SecureReader).ReadBigInt]">
<path fill="none" stroke="#000000" d="M337.3225,-302.3104C366.7017,-293.2453 405.4187,-281.2989 436.5961,-271.6789"/>
<polygon fill="#000000" stroke="#000000" points="437.9089,-274.9368 446.4324,-268.6439 435.8449,-268.248 437.9089,-274.9368"/>
</a>
</g>
</g>
<!-- github.com/go&#45;i2p/crypto/rand.Read -->
<g id="node7" class="node">
<title>github.com/go&#45;i2p/crypto/rand.Read</title>
<g id="a_node7"><a xlink:title="github.com/go&#45;i2p/crypto/rand.Read | defined in secure_reader.go:150&#10;at secure_reader.go:151: calling [(*github.com/go&#45;i2p/crypto/rand.SecureReader).Read]">
<path fill="#add8e6" stroke="#000000" stroke-width="1.5" d="M98.9853,-212C98.9853,-212 68.9853,-212 68.9853,-212 62.9853,-212 56.9853,-206 56.9853,-200 56.9853,-200 56.9853,-188 56.9853,-188 56.9853,-182 62.9853,-176 68.9853,-176 68.9853,-176 98.9853,-176 98.9853,-176 104.9853,-176 110.9853,-182 110.9853,-188 110.9853,-188 110.9853,-200 110.9853,-200 110.9853,-206 104.9853,-212 98.9853,-212"/>
<text text-anchor="middle" x="83.9853" y="-189.8" font-family="Verdana" font-size="14.00" fill="#000000">Read</text>
</a>
</g>
</g>
<!-- (*github.com/go&#45;i2p/crypto/rand.SecureReader).Read -->
<g id="node10" class="node">
<title>(*github.com/go&#45;i2p/crypto/rand.SecureReader).Read</title>
<g id="a_node10"><a xlink:title="(*github.com/go&#45;i2p/crypto/rand.SecureReader).Read | defined in secure_reader.go:28&#10;at secure_reader.go:41: calling [(*github.com/go&#45;i2p/crypto/rand.SecureReader).validateEntropy]&#10;at secure_reader.go:52: calling [(*github.com/go&#45;i2p/logger.Logger).Error]&#10;at secure_reader.go:35: calling [(*github.com/go&#45;i2p/logger.Logger).Error]&#10;at secure_reader.go:47: calling [(*github.com/sirupsen/logrus.Logger).Debug]&#10;at secure_reader.go:42: calling [(*github.com/sirupsen/logrus.Logger).Debug]&#10;at secure_reader.go:29: calling [github.com/go&#45;i2p/logger.GetGoI2PLogger]&#10;at secure_reader.go:52: calling [(*github.com/go&#45;i2p/logger.Logger).WithError]&#10;at secure_reader.go:35: calling [(*github.com/go&#45;i2p/logger.Logger).WithError]&#10;at secure_reader.go:47: calling [(*github.com/go&#45;i2p/logger.Logger).WithField]&#10;at secure_reader.go:42: calling [(*github.com/go&#45;i2p/logger.Logger).WithField]&#10;at secure_reader.go:51: calling [github.com/samber/oops.Errorf]&#10;at secure_reader.go:36: calling [github.com/samber/oops.Errorf]">
<path fill="#add8e6" stroke="#000000" stroke-width="1.5" d="M307.9559,-212C307.9559,-212 277.9559,-212 277.9559,-212 271.9559,-212 265.9559,-206 265.9559,-200 265.9559,-200 265.9559,-188 265.9559,-188 265.9559,-182 271.9559,-176 277.9559,-176 277.9559,-176 307.9559,-176 307.9559,-176 313.9559,-176 319.9559,-182 319.9559,-188 319.9559,-188 319.9559,-200 319.9559,-200 319.9559,-206 313.9559,-212 307.9559,-212"/>
<text text-anchor="middle" x="292.9559" y="-189.8" font-family="Verdana" font-size="14.00" fill="#000000">Read</text>
</a>
</g>
</g>
<!-- github.com/go&#45;i2p/crypto/rand.Read&#45;&gt;(*github.com/go&#45;i2p/crypto/rand.SecureReader).Read -->
<g id="edge23" class="edge">
<title>github.com/go&#45;i2p/crypto/rand.Read&#45;&gt;(*github.com/go&#45;i2p/crypto/rand.SecureReader).Read</title>
<g id="a_edge23"><a xlink:title="at secure_reader.go:151: calling [(*github.com/go&#45;i2p/crypto/rand.SecureReader).Read]">
<path fill="none" stroke="#000000" d="M111.3046,-194C148.1466,-194 213.9089,-194 255.3856,-194"/>
<polygon fill="#000000" stroke="#000000" points="255.63,-197.5001 265.6299,-194 255.6299,-190.5001 255.63,-197.5001"/>
</a>
</g>
</g>
<!-- (*github.com/go&#45;i2p/crypto/rand.SecureReader).ReadBigIntInRange&#45;&gt;github.com/go&#45;i2p/logger.GetGoI2PLogger -->
<g id="edge18" class="edge">
<title>(*github.com/go&#45;i2p/crypto/rand.SecureReader).ReadBigIntInRange&#45;&gt;github.com/go&#45;i2p/logger.GetGoI2PLogger</title>
<g id="a_edge18"><a xlink:title="at secure_reader.go:88: calling [github.com/go&#45;i2p/logger.GetGoI2PLogger]">
<path fill="none" stroke="#8b4513" d="M357.0588,-273.017C358.435,-274.2581 359.7341,-275.5838 360.9412,-277 428.6309,-356.4103 318.0582,-440.6965 396.9412,-509 457.8334,-561.7255 556.191,-549.173 620.5879,-532.6878"/>
<polygon fill="#8b4513" stroke="#8b4513" points="621.8572,-535.9719 630.6207,-530.0176 620.0569,-529.2073 621.8572,-535.9719"/>
</a>
</g>
</g>
<!-- (*github.com/go&#45;i2p/crypto/rand.SecureReader).ReadBigIntInRange&#45;&gt;github.com/samber/oops.Errorf -->
<g id="edge10" class="edge">
<title>(*github.com/go&#45;i2p/crypto/rand.SecureReader).ReadBigIntInRange&#45;&gt;github.com/samber/oops.Errorf</title>
<g id="a_edge10"><a xlink:title="at secure_reader.go:91: calling [github.com/samber/oops.Errorf]&#10;at secure_reader.go:100: calling [github.com/samber/oops.Errorf]">
<path fill="none" stroke="#8b4513" d="M353.1556,-273.1274C355.8233,-274.3527 358.4311,-275.6432 360.9412,-277 379.0154,-286.7696 377.6376,-298.9647 396.9412,-306 481.0606,-336.6577 588.4128,-327.3061 645.1649,-318.9559"/>
<polygon fill="#8b4513" stroke="#8b4513" points="645.8046,-322.3988 655.1559,-317.4183 644.7398,-315.4802 645.8046,-322.3988"/>
</a>
</g>
</g>
<!-- (*github.com/go&#45;i2p/crypto/rand.SecureReader).ReadBigIntInRange&#45;&gt;(*github.com/go&#45;i2p/crypto/rand.SecureReader).ReadBigInt -->
<g id="edge4" class="edge">
<title>(*github.com/go&#45;i2p/crypto/rand.SecureReader).ReadBigIntInRange&#45;&gt;(*github.com/go&#45;i2p/crypto/rand.SecureReader).ReadBigInt</title>
<g id="a_edge4"><a xlink:title="at secure_reader.go:98: calling [(*github.com/go&#45;i2p/crypto/rand.SecureReader).ReadBigInt]">
<path fill="none" stroke="#000000" d="M360.992,-250.2796C373.287,-249.8482 385.9936,-249.6781 397.9412,-250 410.2777,-250.3324 423.5275,-250.9132 436.041,-251.5641"/>
<polygon fill="#000000" stroke="#000000" points="436.1678,-255.0761 446.3428,-252.1234 436.5473,-248.0864 436.1678,-255.0761"/>
</a>
</g>
</g>
<!-- (*github.com/go&#45;i2p/logger.Logger).WithFields -->
<g id="node15" class="node">
<title>(*github.com/go&#45;i2p/logger.Logger).WithFields</title>
<g id="a_node15"><a xlink:title="(*github.com/go&#45;i2p/logger.Logger).WithFields | defined in log.go:60">
<path fill="#ffe4b5" stroke="#000000" stroke-width="1.5" d="M715.6576,-147C715.6576,-147 653.2194,-147 653.2194,-147 647.2194,-147 641.2194,-141 641.2194,-135 641.2194,-135 641.2194,-123 641.2194,-123 641.2194,-117 647.2194,-111 653.2194,-111 653.2194,-111 715.6576,-111 715.6576,-111 721.6576,-111 727.6576,-117 727.6576,-123 727.6576,-123 727.6576,-135 727.6576,-135 727.6576,-141 721.6576,-147 715.6576,-147"/>
<text text-anchor="middle" x="684.4385" y="-133.2" font-family="Verdana" font-size="14.00" fill="#000000">logger</text>
<text text-anchor="middle" x="684.4385" y="-116.4" font-family="Verdana" font-size="14.00" fill="#000000">WithFields</text>
</a>
</g>
</g>
<!-- (*github.com/go&#45;i2p/crypto/rand.SecureReader).ReadBigIntInRange&#45;&gt;(*github.com/go&#45;i2p/logger.Logger).WithFields -->
<g id="edge5" class="edge">
<title>(*github.com/go&#45;i2p/crypto/rand.SecureReader).ReadBigIntInRange&#45;&gt;(*github.com/go&#45;i2p/logger.Logger).WithFields</title>
<g id="a_edge5"><a xlink:title="at secure_reader.go:106: calling [(*github.com/go&#45;i2p/logger.Logger).WithFields]">
<path fill="none" stroke="#8b4513" d="M338.8432,-236.8689C346.4137,-233.2832 354.037,-229.2885 360.9412,-225 396.8571,-202.6907 395.2983,-181.1576 433.9412,-164 497.7158,-135.6838 578.8343,-129.0353 631.1926,-128.0653"/>
<polygon fill="#8b4513" stroke="#8b4513" points="631.3107,-131.5643 641.2671,-127.9423 631.2251,-124.5648 631.3107,-131.5643"/>
</a>
</g>
</g>
<!-- (*github.com/sirupsen/logrus.Logger).Debug -->
<g id="node16" class="node">
<title>(*github.com/sirupsen/logrus.Logger).Debug</title>
<g id="a_node16"><a xlink:title="(*github.com/sirupsen/logrus.Logger).Debug | defined in logger.go:221">
<path fill="#ffe4b5" stroke="#000000" stroke-width="1.5" d="M703.2605,-408C703.2605,-408 665.6165,-408 665.6165,-408 659.6165,-408 653.6165,-402 653.6165,-396 653.6165,-396 653.6165,-384 653.6165,-384 653.6165,-378 659.6165,-372 665.6165,-372 665.6165,-372 703.2605,-372 703.2605,-372 709.2605,-372 715.2605,-378 715.2605,-384 715.2605,-384 715.2605,-396 715.2605,-396 715.2605,-402 709.2605,-408 703.2605,-408"/>
<text text-anchor="middle" x="684.4385" y="-394.2" font-family="Verdana" font-size="14.00" fill="#000000">logrus</text>
<text text-anchor="middle" x="684.4385" y="-377.4" font-family="Verdana" font-size="14.00" fill="#000000">Debug</text>
</a>
</g>
</g>
<!-- (*github.com/go&#45;i2p/crypto/rand.SecureReader).ReadBigIntInRange&#45;&gt;(*github.com/sirupsen/logrus.Logger).Debug -->
<g id="edge20" class="edge">
<title>(*github.com/go&#45;i2p/crypto/rand.SecureReader).ReadBigIntInRange&#45;&gt;(*github.com/sirupsen/logrus.Logger).Debug</title>
<g id="a_edge20"><a xlink:title="at secure_reader.go:110: calling [(*github.com/sirupsen/logrus.Logger).Debug]">
<path fill="none" stroke="#8b4513" d="M356.3993,-273.1315C357.9888,-274.3388 359.5082,-275.6265 360.9412,-277 394.1393,-308.8191 359.9343,-346.7043 396.9412,-374 434.9203,-402.0128 573.2622,-397.4082 643.267,-393.0613"/>
<polygon fill="#8b4513" stroke="#8b4513" points="643.7326,-396.5386 653.485,-392.3984 643.2793,-389.5532 643.7326,-396.5386"/>
</a>
</g>
</g>
<!-- (*github.com/go&#45;i2p/crypto/rand.SecureReader).ReadBigInt&#45;&gt;github.com/go&#45;i2p/logger.GetGoI2PLogger -->
<g id="edge2" class="edge">
<title>(*github.com/go&#45;i2p/crypto/rand.SecureReader).ReadBigInt&#45;&gt;github.com/go&#45;i2p/logger.GetGoI2PLogger</title>
<g id="a_edge2"><a xlink:title="at secure_reader.go:58: calling [github.com/go&#45;i2p/logger.GetGoI2PLogger]">
<path fill="none" stroke="#8b4513" d="M534.9539,-263.8419C542.502,-266.9816 549.7144,-271.2358 555.3606,-277 588.8026,-311.1406 588.8486,-446.0703 620.3606,-482 622.1323,-484.0201 624.0692,-485.9141 626.1299,-487.6887"/>
<polygon fill="#8b4513" stroke="#8b4513" points="624.4842,-490.8246 634.6057,-493.9559 628.646,-485.1962 624.4842,-490.8246"/>
</a>
</g>
</g>
<!-- (*github.com/go&#45;i2p/crypto/rand.SecureReader).ReadBigInt&#45;&gt;github.com/samber/oops.Errorf -->
<g id="edge3" class="edge">
<title>(*github.com/go&#45;i2p/crypto/rand.SecureReader).ReadBigInt&#45;&gt;github.com/samber/oops.Errorf</title>
<g id="a_edge3"><a xlink:title="at secure_reader.go:61: calling [github.com/samber/oops.Errorf]&#10;at secure_reader.go:81: calling [github.com/samber/oops.Errorf]&#10;at secure_reader.go:69: calling [github.com/samber/oops.Errorf]">
<path fill="none" stroke="#8b4513" d="M535.1608,-246.7401C551.1107,-245.5386 568.9481,-246.2786 584.3606,-252 604.1553,-259.3482 602.5609,-271.6423 620.3606,-283 628.2981,-288.0648 637.2675,-292.7095 645.927,-296.7278"/>
<polygon fill="#8b4513" stroke="#8b4513" points="644.5796,-299.9591 655.1384,-300.8323 647.4287,-293.5651 644.5796,-299.9591"/>
</a>
</g>
</g>
<!-- (*github.com/go&#45;i2p/logger.Logger).WithError -->
<g id="node12" class="node">
<title>(*github.com/go&#45;i2p/logger.Logger).WithError</title>
<g id="a_node12"><a xlink:title="(*github.com/go&#45;i2p/logger.Logger).WithError | defined in log.go:66">
<path fill="#ffe4b5" stroke="#000000" stroke-width="1.5" d="M712.97,-269C712.97,-269 655.907,-269 655.907,-269 649.907,-269 643.907,-263 643.907,-257 643.907,-257 643.907,-245 643.907,-245 643.907,-239 649.907,-233 655.907,-233 655.907,-233 712.97,-233 712.97,-233 718.97,-233 724.97,-239 724.97,-245 724.97,-245 724.97,-257 724.97,-257 724.97,-263 718.97,-269 712.97,-269"/>
<text text-anchor="middle" x="684.4385" y="-255.2" font-family="Verdana" font-size="14.00" fill="#000000">logger</text>
<text text-anchor="middle" x="684.4385" y="-238.4" font-family="Verdana" font-size="14.00" fill="#000000">WithError</text>
</a>
</g>
</g>
<!-- (*github.com/go&#45;i2p/crypto/rand.SecureReader).ReadBigInt&#45;&gt;(*github.com/go&#45;i2p/logger.Logger).WithError -->
<g id="edge19" class="edge">
<title>(*github.com/go&#45;i2p/crypto/rand.SecureReader).ReadBigInt&#45;&gt;(*github.com/go&#45;i2p/logger.Logger).WithError</title>
<g id="a_edge19"><a xlink:title="at secure_reader.go:82: calling [(*github.com/go&#45;i2p/logger.Logger).WithError]&#10;at secure_reader.go:68: calling [(*github.com/go&#45;i2p/logger.Logger).WithError]">
<path fill="none" stroke="#8b4513" d="M530.5208,-236.9552C538.7748,-233.0968 547.3834,-228.9817 555.3606,-225 567.9922,-218.6951 569.6676,-213.4367 583.3606,-210 589.1169,-208.5553 613.4732,-218.3569 636.833,-228.737"/>
<polygon fill="#8b4513" stroke="#8b4513" points="635.4813,-231.9667 646.0371,-232.8763 638.3525,-225.5826 635.4813,-231.9667"/>
</a>
</g>
</g>
<!-- (*github.com/go&#45;i2p/logger.Logger).Error -->
<g id="node13" class="node">
<title>(*github.com/go&#45;i2p/logger.Logger).Error</title>
<g id="a_node13"><a xlink:title="(*github.com/go&#45;i2p/logger.Logger).Error | defined in log.go:42">
<path fill="#ffe4b5" stroke="#000000" stroke-width="1.5" d="M702.2048,-86C702.2048,-86 666.6722,-86 666.6722,-86 660.6722,-86 654.6722,-80 654.6722,-74 654.6722,-74 654.6722,-62 654.6722,-62 654.6722,-56 660.6722,-50 666.6722,-50 666.6722,-50 702.2048,-50 702.2048,-50 708.2048,-50 714.2048,-56 714.2048,-62 714.2048,-62 714.2048,-74 714.2048,-74 714.2048,-80 708.2048,-86 702.2048,-86"/>
<text text-anchor="middle" x="684.4385" y="-72.2" font-family="Verdana" font-size="14.00" fill="#000000">logger</text>
<text text-anchor="middle" x="684.4385" y="-55.4" font-family="Verdana" font-size="14.00" fill="#000000">Error</text>
</a>
</g>
</g>
<!-- (*github.com/go&#45;i2p/crypto/rand.SecureReader).ReadBigInt&#45;&gt;(*github.com/go&#45;i2p/logger.Logger).Error -->
<g id="edge11" class="edge">
<title>(*github.com/go&#45;i2p/crypto/rand.SecureReader).ReadBigInt&#45;&gt;(*github.com/go&#45;i2p/logger.Logger).Error</title>
<g id="a_edge11"><a xlink:title="at secure_reader.go:82: calling [(*github.com/go&#45;i2p/logger.Logger).Error]&#10;at secure_reader.go:68: calling [(*github.com/go&#45;i2p/logger.Logger).Error]">
<path fill="none" stroke="#8b4513" d="M534.926,-239.3004C542.3025,-235.3895 549.4611,-230.6559 555.3606,-225 600.8462,-181.3924 575.2358,-142.9809 620.3606,-99 627.4544,-92.086 636.388,-86.4626 645.3138,-81.9993"/>
<polygon fill="#8b4513" stroke="#8b4513" points="646.9095,-85.1179 654.5351,-77.7626 643.9871,-78.7571 646.9095,-85.1179"/>
</a>
</g>
</g>
<!-- (*github.com/go&#45;i2p/logger.Logger).WithField -->
<g id="node14" class="node">
<title>(*github.com/go&#45;i2p/logger.Logger).WithField</title>
<g id="a_node14"><a xlink:title="(*github.com/go&#45;i2p/logger.Logger).WithField | defined in log.go:54">
<path fill="#ffe4b5" stroke="#000000" stroke-width="1.5" d="M712.713,-208C712.713,-208 656.164,-208 656.164,-208 650.164,-208 644.164,-202 644.164,-196 644.164,-196 644.164,-184 644.164,-184 644.164,-178 650.164,-172 656.164,-172 656.164,-172 712.713,-172 712.713,-172 718.713,-172 724.713,-178 724.713,-184 724.713,-184 724.713,-196 724.713,-196 724.713,-202 718.713,-208 712.713,-208"/>
<text text-anchor="middle" x="684.4385" y="-194.2" font-family="Verdana" font-size="14.00" fill="#000000">logger</text>
<text text-anchor="middle" x="684.4385" y="-177.4" font-family="Verdana" font-size="14.00" fill="#000000">WithField</text>
</a>
</g>
</g>
<!-- (*github.com/go&#45;i2p/crypto/rand.SecureReader).ReadBigInt&#45;&gt;(*github.com/go&#45;i2p/logger.Logger).WithField -->
<g id="edge12" class="edge">
<title>(*github.com/go&#45;i2p/crypto/rand.SecureReader).ReadBigInt&#45;&gt;(*github.com/go&#45;i2p/logger.Logger).WithField</title>
<g id="a_edge12"><a xlink:title="at secure_reader.go:74: calling [(*github.com/go&#45;i2p/logger.Logger).WithField]&#10;at secure_reader.go:78: calling [(*github.com/go&#45;i2p/logger.Logger).WithField]">
<path fill="none" stroke="#8b4513" d="M533.505,-236.8461C540.9499,-233.2122 548.4989,-229.2073 555.3606,-225 568.8525,-216.7273 568.7649,-209.1184 583.3606,-203 599.0353,-196.4293 617.1789,-192.9594 633.7314,-191.1883"/>
<polygon fill="#8b4513" stroke="#8b4513" points="634.1454,-194.6653 643.7957,-190.2925 633.5248,-187.6929 634.1454,-194.6653"/>
</a>
</g>
</g>
<!-- (*github.com/go&#45;i2p/crypto/rand.SecureReader).ReadBigInt&#45;&gt;(*github.com/sirupsen/logrus.Logger).Debug -->
<g id="edge13" class="edge">
<title>(*github.com/go&#45;i2p/crypto/rand.SecureReader).ReadBigInt&#45;&gt;(*github.com/sirupsen/logrus.Logger).Debug</title>
<g id="a_edge13"><a xlink:title="at secure_reader.go:74: calling [(*github.com/sirupsen/logrus.Logger).Debug]&#10;at secure_reader.go:78: calling [(*github.com/sirupsen/logrus.Logger).Debug]">
<path fill="none" stroke="#8b4513" d="M507.0057,-273.0891C530.1002,-297.6655 574.5826,-341.5644 620.3606,-368 627.6744,-372.2235 635.9265,-375.8086 644.0153,-378.781"/>
<polygon fill="#8b4513" stroke="#8b4513" points="643.132,-382.178 653.7266,-382.1047 645.3987,-375.5551 643.132,-382.178"/>
</a>
</g>
</g>
<!-- (*github.com/go&#45;i2p/crypto/rand.SecureReader).Read&#45;&gt;github.com/go&#45;i2p/logger.GetGoI2PLogger -->
<g id="edge16" class="edge">
<title>(*github.com/go&#45;i2p/crypto/rand.SecureReader).Read&#45;&gt;github.com/go&#45;i2p/logger.GetGoI2PLogger</title>
<g id="a_edge16"><a xlink:title="at secure_reader.go:29: calling [github.com/go&#45;i2p/logger.GetGoI2PLogger]">
<path fill="none" stroke="#8b4513" d="M319.9961,-200.2529C334.1179,-204.8522 350.57,-212.5353 360.9412,-225 433.3401,-312.0129 346.8726,-396.6682 433.9412,-469 483.707,-510.3427 558.6398,-518.4332 613.5856,-517.7997"/>
<polygon fill="#8b4513" stroke="#8b4513" points="613.679,-521.2986 623.602,-517.5859 613.5296,-514.3002 613.679,-521.2986"/>
</a>
</g>
</g>
<!-- (*github.com/go&#45;i2p/crypto/rand.SecureReader).Read&#45;&gt;github.com/samber/oops.Errorf -->
<g id="edge24" class="edge">
<title>(*github.com/go&#45;i2p/crypto/rand.SecureReader).Read&#45;&gt;github.com/samber/oops.Errorf</title>
<g id="a_edge24"><a xlink:title="at secure_reader.go:51: calling [github.com/samber/oops.Errorf]&#10;at secure_reader.go:36: calling [github.com/samber/oops.Errorf]">
<path fill="none" stroke="#8b4513" d="M319.9604,-204.3405C332.7935,-209.7427 348.0978,-216.9129 360.9412,-225 396.7198,-247.5287 394.9941,-269.5447 433.9412,-286 470.9856,-301.6514 584.1358,-308.2345 644.8886,-310.7002"/>
<polygon fill="#8b4513" stroke="#8b4513" points="645.1092,-314.2113 655.2371,-311.1009 645.3801,-307.2165 645.1092,-314.2113"/>
</a>
</g>
</g>
<!-- (*github.com/go&#45;i2p/crypto/rand.SecureReader).validateEntropy -->
<g id="node11" class="node">
<title>(*github.com/go&#45;i2p/crypto/rand.SecureReader).validateEntropy</title>
<g id="a_node11"><a xlink:title="(*github.com/go&#45;i2p/crypto/rand.SecureReader).validateEntropy | defined in secure_reader.go:116">
<path fill="#add8e6" stroke="#000000" stroke-width=".5" d="M535.5711,-212C535.5711,-212 445.7307,-212 445.7307,-212 439.7307,-212 433.7307,-206 433.7307,-200 433.7307,-200 433.7307,-188 433.7307,-188 433.7307,-182 439.7307,-176 445.7307,-176 445.7307,-176 535.5711,-176 535.5711,-176 541.5711,-176 547.5711,-182 547.5711,-188 547.5711,-188 547.5711,-200 547.5711,-200 547.5711,-206 541.5711,-212 535.5711,-212"/>
<text text-anchor="middle" x="490.6509" y="-189.8" font-family="Verdana" font-size="14.00" fill="#000000">validateEntropy</text>
</a>
</g>
</g>
<!-- (*github.com/go&#45;i2p/crypto/rand.SecureReader).Read&#45;&gt;(*github.com/go&#45;i2p/crypto/rand.SecureReader).validateEntropy -->
<g id="edge1" class="edge">
<title>(*github.com/go&#45;i2p/crypto/rand.SecureReader).Read&#45;&gt;(*github.com/go&#45;i2p/crypto/rand.SecureReader).validateEntropy</title>
<g id="a_edge1"><a xlink:title="at secure_reader.go:41: calling [(*github.com/go&#45;i2p/crypto/rand.SecureReader).validateEntropy]">
<path fill="none" stroke="#000000" d="M320.03,-194C346.5946,-194 388.164,-194 423.62,-194"/>
<polygon fill="#000000" stroke="#000000" points="423.9209,-197.5001 433.9208,-194 423.9208,-190.5001 423.9209,-197.5001"/>
</a>
</g>
</g>
<!-- (*github.com/go&#45;i2p/crypto/rand.SecureReader).Read&#45;&gt;(*github.com/go&#45;i2p/logger.Logger).WithError -->
<g id="edge17" class="edge">
<title>(*github.com/go&#45;i2p/crypto/rand.SecureReader).Read&#45;&gt;(*github.com/go&#45;i2p/logger.Logger).WithError</title>
<g id="a_edge17"><a xlink:title="at secure_reader.go:52: calling [(*github.com/go&#45;i2p/logger.Logger).WithError]&#10;at secure_reader.go:35: calling [(*github.com/go&#45;i2p/logger.Logger).WithError]">
<path fill="none" stroke="#8b4513" d="M320.028,-182.927C368.7742,-164.7022 473.8231,-133.3129 555.3606,-164 591.3213,-177.534 588.1977,-199.9787 620.3606,-221 624.9233,-223.9821 629.8295,-226.8318 634.8231,-229.5054"/>
<polygon fill="#8b4513" stroke="#8b4513" points="633.3531,-232.6846 643.8505,-234.1181 636.5382,-226.4512 633.3531,-232.6846"/>
</a>
</g>
</g>
<!-- (*github.com/go&#45;i2p/crypto/rand.SecureReader).Read&#45;&gt;(*github.com/go&#45;i2p/logger.Logger).Error -->
<g id="edge7" class="edge">
<title>(*github.com/go&#45;i2p/crypto/rand.SecureReader).Read&#45;&gt;(*github.com/go&#45;i2p/logger.Logger).Error</title>
<g id="a_edge7"><a xlink:title="at secure_reader.go:52: calling [(*github.com/go&#45;i2p/logger.Logger).Error]&#10;at secure_reader.go:35: calling [(*github.com/go&#45;i2p/logger.Logger).Error]">
<path fill="none" stroke="#8b4513" d="M320.043,-178.9971C347.9029,-164.0806 392.8992,-141.4016 433.9412,-127 506.3624,-101.5876 594.3824,-83.7138 644.458,-74.704"/>
<polygon fill="#8b4513" stroke="#8b4513" points="645.3123,-78.1072 654.5484,-72.9164 644.0912,-71.2145 645.3123,-78.1072"/>
</a>
</g>
</g>
<!-- (*github.com/go&#45;i2p/crypto/rand.SecureReader).Read&#45;&gt;(*github.com/go&#45;i2p/logger.Logger).WithField -->
<g id="edge22" class="edge">
<title>(*github.com/go&#45;i2p/crypto/rand.SecureReader).Read&#45;&gt;(*github.com/go&#45;i2p/logger.Logger).WithField</title>
<g id="a_edge22"><a xlink:title="at secure_reader.go:47: calling [(*github.com/go&#45;i2p/logger.Logger).WithField]&#10;at secure_reader.go:42: calling [(*github.com/go&#45;i2p/logger.Logger).WithField]">
<path fill="none" stroke="#8b4513" d="M320.3354,-176.2508C340.5834,-164.2286 369.3234,-149.408 396.9412,-143 465.5278,-127.0862 486.0225,-130.769 555.3606,-143 583.021,-147.8792 612.55,-158.2165 636.3741,-167.9572"/>
<polygon fill="#8b4513" stroke="#8b4513" points="635.3007,-171.302 645.8767,-171.9335 638.0028,-164.8446 635.3007,-171.302"/>
</a>
</g>
</g>
<!-- (*github.com/go&#45;i2p/crypto/rand.SecureReader).Read&#45;&gt;(*github.com/sirupsen/logrus.Logger).Debug -->
<g id="edge8" class="edge">
<title>(*github.com/go&#45;i2p/crypto/rand.SecureReader).Read&#45;&gt;(*github.com/sirupsen/logrus.Logger).Debug</title>
<g id="a_edge8"><a xlink:title="at secure_reader.go:47: calling [(*github.com/sirupsen/logrus.Logger).Debug]&#10;at secure_reader.go:42: calling [(*github.com/sirupsen/logrus.Logger).Debug]">
<path fill="none" stroke="#8b4513" d="M320.2765,-200.4133C334.3045,-205.0392 350.579,-212.6969 360.9412,-225 401.4972,-273.1525 349.0119,-321.1804 396.9412,-362 406.1825,-369.8705 565.9386,-381.8548 643.2188,-387.2263"/>
<polygon fill="#8b4513" stroke="#8b4513" points="643.3345,-390.7425 653.5517,-387.9392 643.8164,-383.7591 643.3345,-390.7425"/>
</a>
</g>
</g>
</g>
</svg>
