<?xml version="1.0" encoding="UTF-8" standalone="no"?>
<!DOCTYPE svg PUBLIC "-//W3C//DTD SVG 1.1//EN"
 "http://www.w3.org/Graphics/SVG/1.1/DTD/svg11.dtd">
<!-- Generated by graphviz version 2.40.1 (20161225.0304)
 -->
<!-- Title: gocallvis Pages: 1 -->
<svg width="652pt" height="766pt"
 viewBox="0.00 0.00 651.66 766.00" xmlns="http://www.w3.org/2000/svg" xmlns:xlink="http://www.w3.org/1999/xlink">
<g id="graph0" class="graph" transform="scale(1 1) rotate(0) translate(0 766)">
<title>gocallvis</title>
<polygon fill="#d3d3d3" stroke="transparent" points="0,0 0,-766 651.6608,-766 651.6608,0 0,0"/>
<g id="clust1" class="cluster">
<title>cluster_focus</title>
<polygon fill="#e6ecfa" stroke="#000000" stroke-width=".5" points="0,-8 0,-758 643.6608,-758 643.6608,-8 0,-8"/>
<text text-anchor="middle" x="321.8304" y="-737.8" font-family="Arial" font-size="18.00" fill="#000000">aes</text>
</g>
<g id="clust6" class="cluster">
<title>cluster_*github.com/sirupsen/logrus.Logger</title>
<g id="a_clust6"><a xlink:title="type: *github.com/sirupsen/logrus.Logger">
<path fill="#eed8ae" stroke="#000000" stroke-width=".5" d="M548.4055,-559C548.4055,-559 602.7267,-559 602.7267,-559 608.7267,-559 614.7267,-565 614.7267,-571 614.7267,-571 614.7267,-625 614.7267,-625 614.7267,-631 608.7267,-637 602.7267,-637 602.7267,-637 548.4055,-637 548.4055,-637 542.4055,-637 536.4055,-631 536.4055,-625 536.4055,-625 536.4055,-571 536.4055,-571 536.4055,-565 542.4055,-559 548.4055,-559"/>
<text text-anchor="middle" x="575.5661" y="-567.5" font-family="Arial" font-size="15.00" fill="#222222">(*Logger)</text>
</a>
</g>
</g>
<g id="clust5" class="cluster">
<title>cluster_*github.com/go&#45;i2p/logger.Logger</title>
<g id="a_clust5"><a xlink:title="type: *github.com/go&#45;i2p/logger.Logger">
<path fill="#eed8ae" stroke="#000000" stroke-width=".5" d="M535.9567,-234C535.9567,-234 614.1755,-234 614.1755,-234 620.1755,-234 626.1755,-240 626.1755,-246 626.1755,-246 626.1755,-483 626.1755,-483 626.1755,-489 620.1755,-495 614.1755,-495 614.1755,-495 535.9567,-495 535.9567,-495 529.9567,-495 523.9567,-489 523.9567,-483 523.9567,-483 523.9567,-246 523.9567,-246 523.9567,-240 529.9567,-234 535.9567,-234"/>
<text text-anchor="middle" x="575.0661" y="-242.5" font-family="Arial" font-size="15.00" fill="#222222">(*Logger)</text>
</a>
</g>
</g>
<g id="clust4" class="cluster">
<title>cluster_*github.com/go&#45;i2p/crypto/aes.AESSymmetricKey</title>
<g id="a_clust4"><a xlink:title="type: *github.com/go&#45;i2p/crypto/aes.AESSymmetricKey">
<path fill="#b0c4de" stroke="#000000" stroke-width=".5" d="M296.0814,-447C296.0814,-447 430.4714,-447 430.4714,-447 436.4714,-447 442.4714,-453 442.4714,-459 442.4714,-459 442.4714,-635 442.4714,-635 442.4714,-641 436.4714,-647 430.4714,-647 430.4714,-647 296.0814,-647 296.0814,-647 290.0814,-647 284.0814,-641 284.0814,-635 284.0814,-635 284.0814,-459 284.0814,-459 284.0814,-453 290.0814,-447 296.0814,-447"/>
<text text-anchor="middle" x="363.2764" y="-455.5" font-family="Arial" font-size="15.00" fill="#222222">(*AESSymmetricKey)</text>
</a>
</g>
</g>
<g id="clust3" class="cluster">
<title>cluster_*github.com/go&#45;i2p/crypto/aes.AESSymmetricEncrypter</title>
<g id="a_clust3"><a xlink:title="type: *github.com/go&#45;i2p/crypto/aes.AESSymmetricEncrypter">
<path fill="#b0c4de" stroke="#000000" stroke-width=".5" d="M20.3843,-277C20.3843,-277 192.6971,-277 192.6971,-277 198.6971,-277 204.6971,-283 204.6971,-289 204.6971,-289 204.6971,-404 204.6971,-404 204.6971,-410 198.6971,-416 192.6971,-416 192.6971,-416 20.3843,-416 20.3843,-416 14.3843,-416 8.3843,-410 8.3843,-404 8.3843,-404 8.3843,-289 8.3843,-289 8.3843,-283 14.3843,-277 20.3843,-277"/>
<text text-anchor="middle" x="106.5407" y="-285.5" font-family="Arial" font-size="15.00" fill="#222222">(*AESSymmetricEncrypter)</text>
</a>
</g>
</g>
<g id="clust2" class="cluster">
<title>cluster_*github.com/go&#45;i2p/crypto/aes.AESSymmetricDecrypter</title>
<g id="a_clust2"><a xlink:title="type: *github.com/go&#45;i2p/crypto/aes.AESSymmetricDecrypter">
<path fill="#b0c4de" stroke="#000000" stroke-width=".5" d="M20,-107C20,-107 193.0814,-107 193.0814,-107 199.0814,-107 205.0814,-113 205.0814,-119 205.0814,-119 205.0814,-234 205.0814,-234 205.0814,-240 199.0814,-246 193.0814,-246 193.0814,-246 20,-246 20,-246 14,-246 8,-240 8,-234 8,-234 8,-119 8,-119 8,-113 14,-107 20,-107"/>
<text text-anchor="middle" x="106.5407" y="-115.5" font-family="Arial" font-size="15.00" fill="#222222">(*AESSymmetricDecrypter)</text>
</a>
</g>
</g>
<!-- github.com/go&#45;i2p/crypto/aes.pkcs7Unpad -->
<g id="node1" class="node">
<title>github.com/go&#45;i2p/crypto/aes.pkcs7Unpad</title>
<g id="a_node1"><a xlink:title="github.com/go&#45;i2p/crypto/aes.pkcs7Unpad | defined in utils.go:29&#10;at utils.go:35: calling [github.com/samber/oops.Errorf]&#10;at utils.go:40: calling [github.com/samber/oops.Errorf]&#10;at utils.go:46: calling [github.com/samber/oops.Errorf]&#10;at utils.go:34: calling [(*github.com/go&#45;i2p/logger.Logger).Error]&#10;at utils.go:39: calling [(*github.com/go&#45;i2p/logger.Logger).Error]&#10;at utils.go:45: calling [(*github.com/go&#45;i2p/logger.Logger).Error]&#10;at utils.go:30: calling [(*github.com/go&#45;i2p/logger.Logger).WithField]&#10;at utils.go:39: calling [(*github.com/go&#45;i2p/logger.Logger).WithField]&#10;at utils.go:51: calling [(*github.com/go&#45;i2p/logger.Logger).WithField]&#10;at utils.go:30: calling [(*github.com/sirupsen/logrus.Logger).Debug]&#10;at utils.go:51: calling [(*github.com/sirupsen/logrus.Logger).Debug]">
<path fill="#add8e6" stroke="#000000" stroke-width=".5" d="M398.2568,-194C398.2568,-194 328.296,-194 328.296,-194 322.296,-194 316.296,-188 316.296,-182 316.296,-182 316.296,-170 316.296,-170 316.296,-164 322.296,-158 328.296,-158 328.296,-158 398.2568,-158 398.2568,-158 404.2568,-158 410.2568,-164 410.2568,-170 410.2568,-170 410.2568,-182 410.2568,-182 410.2568,-188 404.2568,-194 398.2568,-194"/>
<text text-anchor="middle" x="363.2764" y="-171.8" font-family="Verdana" font-size="14.00" fill="#000000">pkcs7Unpad</text>
</a>
</g>
</g>
<!-- github.com/samber/oops.Errorf -->
<g id="node2" class="node">
<title>github.com/samber/oops.Errorf</title>
<g id="a_node2"><a xlink:title="github.com/samber/oops.Errorf | defined in oops.go:34">
<path fill="#ffe4b5" stroke="#000000" stroke-width="1.5" d="M592.2614,-116C592.2614,-116 557.8708,-116 557.8708,-116 551.8708,-116 545.8708,-110 545.8708,-104 545.8708,-104 545.8708,-92 545.8708,-92 545.8708,-86 551.8708,-80 557.8708,-80 557.8708,-80 592.2614,-80 592.2614,-80 598.2614,-80 604.2614,-86 604.2614,-92 604.2614,-92 604.2614,-104 604.2614,-104 604.2614,-110 598.2614,-116 592.2614,-116"/>
<text text-anchor="middle" x="575.0661" y="-102.2" font-family="Verdana" font-size="14.00" fill="#000000">oops</text>
<text text-anchor="middle" x="575.0661" y="-85.4" font-family="Verdana" font-size="14.00" fill="#000000">Errorf</text>
</a>
</g>
</g>
<!-- github.com/go&#45;i2p/crypto/aes.pkcs7Unpad&#45;&gt;github.com/samber/oops.Errorf -->
<g id="edge9" class="edge">
<title>github.com/go&#45;i2p/crypto/aes.pkcs7Unpad&#45;&gt;github.com/samber/oops.Errorf</title>
<g id="a_edge9"><a xlink:title="at utils.go:35: calling [github.com/samber/oops.Errorf]&#10;at utils.go:40: calling [github.com/samber/oops.Errorf]&#10;at utils.go:46: calling [github.com/samber/oops.Errorf]">
<path fill="none" stroke="#8b4513" d="M410.2794,-158.6893C448.1528,-144.7409 500.7627,-125.3652 536.265,-112.29"/>
<polygon fill="#8b4513" stroke="#8b4513" points="537.6241,-115.5194 545.7984,-108.779 535.2049,-108.9507 537.6241,-115.5194"/>
</a>
</g>
</g>
<!-- (*github.com/go&#45;i2p/logger.Logger).WithField -->
<g id="node13" class="node">
<title>(*github.com/go&#45;i2p/logger.Logger).WithField</title>
<g id="a_node13"><a xlink:title="(*github.com/go&#45;i2p/logger.Logger).WithField | defined in log.go:54">
<path fill="#ffe4b5" stroke="#000000" stroke-width="1.5" d="M603.3406,-365C603.3406,-365 546.7916,-365 546.7916,-365 540.7916,-365 534.7916,-359 534.7916,-353 534.7916,-353 534.7916,-341 534.7916,-341 534.7916,-335 540.7916,-329 546.7916,-329 546.7916,-329 603.3406,-329 603.3406,-329 609.3406,-329 615.3406,-335 615.3406,-341 615.3406,-341 615.3406,-353 615.3406,-353 615.3406,-359 609.3406,-365 603.3406,-365"/>
<text text-anchor="middle" x="575.0661" y="-351.2" font-family="Verdana" font-size="14.00" fill="#000000">logger</text>
<text text-anchor="middle" x="575.0661" y="-334.4" font-family="Verdana" font-size="14.00" fill="#000000">WithField</text>
</a>
</g>
</g>
<!-- github.com/go&#45;i2p/crypto/aes.pkcs7Unpad&#45;&gt;(*github.com/go&#45;i2p/logger.Logger).WithField -->
<g id="edge23" class="edge">
<title>github.com/go&#45;i2p/crypto/aes.pkcs7Unpad&#45;&gt;(*github.com/go&#45;i2p/logger.Logger).WithField</title>
<g id="a_edge23"><a xlink:title="at utils.go:30: calling [(*github.com/go&#45;i2p/logger.Logger).WithField]&#10;at utils.go:39: calling [(*github.com/go&#45;i2p/logger.Logger).WithField]&#10;at utils.go:51: calling [(*github.com/go&#45;i2p/logger.Logger).WithField]">
<path fill="none" stroke="#8b4513" d="M379.5391,-194.2711C405.8117,-223.027 460.1565,-279.4317 514.4714,-317 518.0993,-319.5093 521.9678,-321.9284 525.928,-324.2296"/>
<polygon fill="#8b4513" stroke="#8b4513" points="524.2409,-327.2961 534.6865,-329.0684 527.626,-321.169 524.2409,-327.2961"/>
</a>
</g>
</g>
<!-- (*github.com/go&#45;i2p/logger.Logger).Error -->
<g id="node14" class="node">
<title>(*github.com/go&#45;i2p/logger.Logger).Error</title>
<g id="a_node14"><a xlink:title="(*github.com/go&#45;i2p/logger.Logger).Error | defined in log.go:42">
<path fill="#ffe4b5" stroke="#000000" stroke-width="1.5" d="M592.8324,-304C592.8324,-304 557.2998,-304 557.2998,-304 551.2998,-304 545.2998,-298 545.2998,-292 545.2998,-292 545.2998,-280 545.2998,-280 545.2998,-274 551.2998,-268 557.2998,-268 557.2998,-268 592.8324,-268 592.8324,-268 598.8324,-268 604.8324,-274 604.8324,-280 604.8324,-280 604.8324,-292 604.8324,-292 604.8324,-298 598.8324,-304 592.8324,-304"/>
<text text-anchor="middle" x="575.0661" y="-290.2" font-family="Verdana" font-size="14.00" fill="#000000">logger</text>
<text text-anchor="middle" x="575.0661" y="-273.4" font-family="Verdana" font-size="14.00" fill="#000000">Error</text>
</a>
</g>
</g>
<!-- github.com/go&#45;i2p/crypto/aes.pkcs7Unpad&#45;&gt;(*github.com/go&#45;i2p/logger.Logger).Error -->
<g id="edge17" class="edge">
<title>github.com/go&#45;i2p/crypto/aes.pkcs7Unpad&#45;&gt;(*github.com/go&#45;i2p/logger.Logger).Error</title>
<g id="a_edge17"><a xlink:title="at utils.go:34: calling [(*github.com/go&#45;i2p/logger.Logger).Error]&#10;at utils.go:39: calling [(*github.com/go&#45;i2p/logger.Logger).Error]&#10;at utils.go:45: calling [(*github.com/go&#45;i2p/logger.Logger).Error]">
<path fill="none" stroke="#8b4513" d="M410.387,-176.4382C432.828,-178.7557 458.9588,-184.742 478.4714,-199 505.1353,-218.4834 489.3552,-242.5584 514.4714,-264 520.5761,-269.2115 528.016,-273.2297 535.564,-276.3141"/>
<polygon fill="#8b4513" stroke="#8b4513" points="534.4957,-279.6493 545.0901,-279.7412 536.8653,-273.0626 534.4957,-279.6493"/>
</a>
</g>
</g>
<!-- (*github.com/sirupsen/logrus.Logger).Debug -->
<g id="node17" class="node">
<title>(*github.com/sirupsen/logrus.Logger).Debug</title>
<g id="a_node17"><a xlink:title="(*github.com/sirupsen/logrus.Logger).Debug | defined in logger.go:221">
<path fill="#ffe4b5" stroke="#000000" stroke-width="1.5" d="M593.8881,-629C593.8881,-629 556.2441,-629 556.2441,-629 550.2441,-629 544.2441,-623 544.2441,-617 544.2441,-617 544.2441,-605 544.2441,-605 544.2441,-599 550.2441,-593 556.2441,-593 556.2441,-593 593.8881,-593 593.8881,-593 599.8881,-593 605.8881,-599 605.8881,-605 605.8881,-605 605.8881,-617 605.8881,-617 605.8881,-623 599.8881,-629 593.8881,-629"/>
<text text-anchor="middle" x="575.0661" y="-615.2" font-family="Verdana" font-size="14.00" fill="#000000">logrus</text>
<text text-anchor="middle" x="575.0661" y="-598.4" font-family="Verdana" font-size="14.00" fill="#000000">Debug</text>
</a>
</g>
</g>
<!-- github.com/go&#45;i2p/crypto/aes.pkcs7Unpad&#45;&gt;(*github.com/sirupsen/logrus.Logger).Debug -->
<g id="edge24" class="edge">
<title>github.com/go&#45;i2p/crypto/aes.pkcs7Unpad&#45;&gt;(*github.com/sirupsen/logrus.Logger).Debug</title>
<g id="a_edge24"><a xlink:title="at utils.go:30: calling [(*github.com/sirupsen/logrus.Logger).Debug]&#10;at utils.go:51: calling [(*github.com/sirupsen/logrus.Logger).Debug]">
<path fill="none" stroke="#8b4513" d="M371.21,-194.1753C393.0029,-243.8455 456.052,-385.8422 514.4714,-501 529.0578,-529.753 547.0112,-561.9915 559.5748,-584.0949"/>
<polygon fill="#8b4513" stroke="#8b4513" points="556.6075,-585.9569 564.6037,-592.9076 562.6873,-582.4875 556.6075,-585.9569"/>
</a>
</g>
</g>
<!-- github.com/go&#45;i2p/crypto/aes.pkcs7Pad -->
<g id="node3" class="node">
<title>github.com/go&#45;i2p/crypto/aes.pkcs7Pad</title>
<g id="a_node3"><a xlink:title="github.com/go&#45;i2p/crypto/aes.pkcs7Pad | defined in utils.go:13&#10;at utils.go:17: calling [(*github.com/sirupsen/logrus.Logger).Debug]&#10;at utils.go:23: calling [(*github.com/sirupsen/logrus.Logger).Debug]&#10;at utils.go:14: calling [(*github.com/go&#45;i2p/logger.Logger).WithFields]&#10;at utils.go:23: calling [(*github.com/go&#45;i2p/logger.Logger).WithField]">
<path fill="#add8e6" stroke="#000000" stroke-width=".5" d="M389.9336,-439C389.9336,-439 336.6192,-439 336.6192,-439 330.6192,-439 324.6192,-433 324.6192,-427 324.6192,-427 324.6192,-415 324.6192,-415 324.6192,-409 330.6192,-403 336.6192,-403 336.6192,-403 389.9336,-403 389.9336,-403 395.9336,-403 401.9336,-409 401.9336,-415 401.9336,-415 401.9336,-427 401.9336,-427 401.9336,-433 395.9336,-439 389.9336,-439"/>
<text text-anchor="middle" x="363.2764" y="-416.8" font-family="Verdana" font-size="14.00" fill="#000000">pkcs7Pad</text>
</a>
</g>
</g>
<!-- github.com/go&#45;i2p/crypto/aes.pkcs7Pad&#45;&gt;(*github.com/go&#45;i2p/logger.Logger).WithField -->
<g id="edge25" class="edge">
<title>github.com/go&#45;i2p/crypto/aes.pkcs7Pad&#45;&gt;(*github.com/go&#45;i2p/logger.Logger).WithField</title>
<g id="a_edge25"><a xlink:title="at utils.go:23: calling [(*github.com/go&#45;i2p/logger.Logger).WithField]">
<path fill="none" stroke="#8b4513" d="M402.1219,-407.4273C436.6528,-395.3621 487.3423,-377.651 524.9248,-364.5195"/>
<polygon fill="#8b4513" stroke="#8b4513" points="526.3793,-367.7189 534.6652,-361.1162 524.0704,-361.1106 526.3793,-367.7189"/>
</a>
</g>
</g>
<!-- (*github.com/go&#45;i2p/logger.Logger).WithFields -->
<g id="node15" class="node">
<title>(*github.com/go&#45;i2p/logger.Logger).WithFields</title>
<g id="a_node15"><a xlink:title="(*github.com/go&#45;i2p/logger.Logger).WithFields | defined in log.go:60">
<path fill="#ffe4b5" stroke="#000000" stroke-width="1.5" d="M606.2852,-426C606.2852,-426 543.847,-426 543.847,-426 537.847,-426 531.847,-420 531.847,-414 531.847,-414 531.847,-402 531.847,-402 531.847,-396 537.847,-390 543.847,-390 543.847,-390 606.2852,-390 606.2852,-390 612.2852,-390 618.2852,-396 618.2852,-402 618.2852,-402 618.2852,-414 618.2852,-414 618.2852,-420 612.2852,-426 606.2852,-426"/>
<text text-anchor="middle" x="575.0661" y="-412.2" font-family="Verdana" font-size="14.00" fill="#000000">logger</text>
<text text-anchor="middle" x="575.0661" y="-395.4" font-family="Verdana" font-size="14.00" fill="#000000">WithFields</text>
</a>
</g>
</g>
<!-- github.com/go&#45;i2p/crypto/aes.pkcs7Pad&#45;&gt;(*github.com/go&#45;i2p/logger.Logger).WithFields -->
<g id="edge19" class="edge">
<title>github.com/go&#45;i2p/crypto/aes.pkcs7Pad&#45;&gt;(*github.com/go&#45;i2p/logger.Logger).WithFields</title>
<g id="a_edge19"><a xlink:title="at utils.go:14: calling [(*github.com/go&#45;i2p/logger.Logger).WithFields]">
<path fill="none" stroke="#8b4513" d="M402.1219,-418.6156C435.6326,-416.5587 484.3612,-413.5676 521.5602,-411.2843"/>
<polygon fill="#8b4513" stroke="#8b4513" points="521.9575,-414.7666 531.7242,-410.6604 521.5286,-407.7797 521.9575,-414.7666"/>
</a>
</g>
</g>
<!-- github.com/go&#45;i2p/crypto/aes.pkcs7Pad&#45;&gt;(*github.com/sirupsen/logrus.Logger).Debug -->
<g id="edge10" class="edge">
<title>github.com/go&#45;i2p/crypto/aes.pkcs7Pad&#45;&gt;(*github.com/sirupsen/logrus.Logger).Debug</title>
<g id="a_edge10"><a xlink:title="at utils.go:17: calling [(*github.com/sirupsen/logrus.Logger).Debug]&#10;at utils.go:23: calling [(*github.com/sirupsen/logrus.Logger).Debug]">
<path fill="none" stroke="#8b4513" d="M402.3176,-424.4433C416.4186,-427.4514 431.5388,-432.964 442.4714,-443 475.3121,-473.1471 450.8757,-501.2225 477.4714,-537 492.9417,-557.8113 515.8204,-575.5878 535.5384,-588.4981"/>
<polygon fill="#8b4513" stroke="#8b4513" points="533.7323,-591.4972 544.0501,-593.9039 537.4851,-585.5882 533.7323,-591.4972"/>
</a>
</g>
</g>
<!-- github.com/go&#45;i2p/crypto/aes.init -->
<g id="node4" class="node">
<title>github.com/go&#45;i2p/crypto/aes.init</title>
<g id="a_node4"><a xlink:title="github.com/go&#45;i2p/crypto/aes.init | defined in .:0&#10;at constants.go:15: calling [github.com/samber/oops.Errorf]&#10;at constants.go:18: calling [github.com/samber/oops.Errorf]&#10;at constants.go:10: calling [github.com/go&#45;i2p/logger.GetGoI2PLogger]">
<path fill="#add8e6" stroke="#000000" stroke-width=".5" d="M378.2764,-52C378.2764,-52 348.2764,-52 348.2764,-52 342.2764,-52 336.2764,-46 336.2764,-40 336.2764,-40 336.2764,-28 336.2764,-28 336.2764,-22 342.2764,-16 348.2764,-16 348.2764,-16 378.2764,-16 378.2764,-16 384.2764,-16 390.2764,-22 390.2764,-28 390.2764,-28 390.2764,-40 390.2764,-40 390.2764,-46 384.2764,-52 378.2764,-52"/>
<text text-anchor="middle" x="363.2764" y="-29.8" font-family="Verdana" font-size="14.00" fill="#000000">init</text>
</a>
</g>
</g>
<!-- github.com/go&#45;i2p/crypto/aes.init&#45;&gt;github.com/samber/oops.Errorf -->
<g id="edge11" class="edge">
<title>github.com/go&#45;i2p/crypto/aes.init&#45;&gt;github.com/samber/oops.Errorf</title>
<g id="a_edge11"><a xlink:title="at constants.go:15: calling [github.com/samber/oops.Errorf]&#10;at constants.go:18: calling [github.com/samber/oops.Errorf]">
<path fill="none" stroke="#8b4513" d="M390.4552,-40.3974C413.9124,-46.0807 448.6281,-54.8792 478.4714,-64 497.5164,-69.8206 518.3887,-77.0571 535.8428,-83.356"/>
<polygon fill="#8b4513" stroke="#8b4513" points="535.0909,-86.8069 545.6849,-86.9385 537.4853,-80.2291 535.0909,-86.8069"/>
</a>
</g>
</g>
<!-- github.com/go&#45;i2p/logger.GetGoI2PLogger -->
<g id="node5" class="node">
<title>github.com/go&#45;i2p/logger.GetGoI2PLogger</title>
<g id="a_node5"><a xlink:title="github.com/go&#45;i2p/logger.GetGoI2PLogger | defined in log.go:120">
<path fill="#ffe4b5" stroke="#000000" stroke-width="1.5" d="M623.7556,-52C623.7556,-52 526.3766,-52 526.3766,-52 520.3766,-52 514.3766,-46 514.3766,-40 514.3766,-40 514.3766,-28 514.3766,-28 514.3766,-22 520.3766,-16 526.3766,-16 526.3766,-16 623.7556,-16 623.7556,-16 629.7556,-16 635.7556,-22 635.7556,-28 635.7556,-28 635.7556,-40 635.7556,-40 635.7556,-46 629.7556,-52 623.7556,-52"/>
<text text-anchor="middle" x="575.0661" y="-38.2" font-family="Verdana" font-size="14.00" fill="#000000">logger</text>
<text text-anchor="middle" x="575.0661" y="-21.4" font-family="Verdana" font-size="14.00" fill="#000000">GetGoI2PLogger</text>
</a>
</g>
</g>
<!-- github.com/go&#45;i2p/crypto/aes.init&#45;&gt;github.com/go&#45;i2p/logger.GetGoI2PLogger -->
<g id="edge15" class="edge">
<title>github.com/go&#45;i2p/crypto/aes.init&#45;&gt;github.com/go&#45;i2p/logger.GetGoI2PLogger</title>
<g id="a_edge15"><a xlink:title="at constants.go:10: calling [github.com/go&#45;i2p/logger.GetGoI2PLogger]">
<path fill="none" stroke="#8b4513" d="M390.5306,-34C419.0412,-34 464.9752,-34 503.8809,-34"/>
<polygon fill="#8b4513" stroke="#8b4513" points="504.1252,-37.5001 514.1252,-34 504.1251,-30.5001 504.1252,-37.5001"/>
</a>
</g>
</g>
<!-- (*github.com/go&#45;i2p/crypto/aes.AESSymmetricDecrypter).DecryptNoPadding -->
<g id="node6" class="node">
<title>(*github.com/go&#45;i2p/crypto/aes.AESSymmetricDecrypter).DecryptNoPadding</title>
<g id="a_node6"><a xlink:title="(*github.com/go&#45;i2p/crypto/aes.AESSymmetricDecrypter).DecryptNoPadding | defined in aes_decrypter.go:46&#10;at aes_decrypter.go:48: calling [github.com/samber/oops.Errorf]">
<path fill="#add8e6" stroke="#000000" stroke-width="1.5" d="M160.1221,-177C160.1221,-177 51.9593,-177 51.9593,-177 45.9593,-177 39.9593,-171 39.9593,-165 39.9593,-165 39.9593,-153 39.9593,-153 39.9593,-147 45.9593,-141 51.9593,-141 51.9593,-141 160.1221,-141 160.1221,-141 166.1221,-141 172.1221,-147 172.1221,-153 172.1221,-153 172.1221,-165 172.1221,-165 172.1221,-171 166.1221,-177 160.1221,-177"/>
<text text-anchor="middle" x="106.0407" y="-154.8" font-family="Verdana" font-size="14.00" fill="#000000">DecryptNoPadding</text>
</a>
</g>
</g>
<!-- (*github.com/go&#45;i2p/crypto/aes.AESSymmetricDecrypter).DecryptNoPadding&#45;&gt;github.com/samber/oops.Errorf -->
<g id="edge7" class="edge">
<title>(*github.com/go&#45;i2p/crypto/aes.AESSymmetricDecrypter).DecryptNoPadding&#45;&gt;github.com/samber/oops.Errorf</title>
<g id="a_edge7"><a xlink:title="at aes_decrypter.go:48: calling [github.com/samber/oops.Errorf]">
<path fill="none" stroke="#8b4513" d="M138.4361,-140.9114C166.4876,-126.2849 208.6473,-106.7384 248.0814,-98 349.7233,-75.4766 473.5426,-85.2234 535.6038,-92.5642"/>
<polygon fill="#8b4513" stroke="#8b4513" points="535.3866,-96.0637 545.7384,-93.8074 536.239,-89.1158 535.3866,-96.0637"/>
</a>
</g>
</g>
<!-- (*github.com/go&#45;i2p/crypto/aes.AESSymmetricDecrypter).Decrypt -->
<g id="node7" class="node">
<title>(*github.com/go&#45;i2p/crypto/aes.AESSymmetricDecrypter).Decrypt</title>
<g id="a_node7"><a xlink:title="(*github.com/go&#45;i2p/crypto/aes.AESSymmetricDecrypter).Decrypt | defined in aes_decrypter.go:17&#10;at aes_decrypter.go:22: calling [(*github.com/go&#45;i2p/logger.Logger).Error]&#10;at aes_decrypter.go:27: calling [(*github.com/go&#45;i2p/logger.Logger).Error]&#10;at aes_decrypter.go:37: calling [(*github.com/go&#45;i2p/logger.Logger).Error]&#10;at aes_decrypter.go:18: calling [(*github.com/sirupsen/logrus.Logger).Debug]&#10;at aes_decrypter.go:41: calling [(*github.com/sirupsen/logrus.Logger).Debug]&#10;at aes_decrypter.go:18: calling [(*github.com/go&#45;i2p/logger.Logger).WithField]&#10;at aes_decrypter.go:41: calling [(*github.com/go&#45;i2p/logger.Logger).WithField]&#10;at aes_decrypter.go:28: calling [github.com/samber/oops.Errorf]&#10;at aes_decrypter.go:35: calling [github.com/go&#45;i2p/crypto/aes.pkcs7Unpad]&#10;at aes_decrypter.go:22: calling [(*github.com/go&#45;i2p/logger.Logger).WithError]&#10;at aes_decrypter.go:37: calling [(*github.com/go&#45;i2p/logger.Logger).WithError]">
<path fill="#add8e6" stroke="#000000" stroke-width="1.5" d="M128.6278,-238C128.6278,-238 83.4536,-238 83.4536,-238 77.4536,-238 71.4536,-232 71.4536,-226 71.4536,-226 71.4536,-214 71.4536,-214 71.4536,-208 77.4536,-202 83.4536,-202 83.4536,-202 128.6278,-202 128.6278,-202 134.6278,-202 140.6278,-208 140.6278,-214 140.6278,-214 140.6278,-226 140.6278,-226 140.6278,-232 134.6278,-238 128.6278,-238"/>
<text text-anchor="middle" x="106.0407" y="-215.8" font-family="Verdana" font-size="14.00" fill="#000000">Decrypt</text>
</a>
</g>
</g>
<!-- (*github.com/go&#45;i2p/crypto/aes.AESSymmetricDecrypter).Decrypt&#45;&gt;github.com/go&#45;i2p/crypto/aes.pkcs7Unpad -->
<g id="edge21" class="edge">
<title>(*github.com/go&#45;i2p/crypto/aes.AESSymmetricDecrypter).Decrypt&#45;&gt;github.com/go&#45;i2p/crypto/aes.pkcs7Unpad</title>
<g id="a_edge21"><a xlink:title="at aes_decrypter.go:35: calling [github.com/go&#45;i2p/crypto/aes.pkcs7Unpad]">
<path fill="none" stroke="#000000" d="M140.7327,-214.066C183.0711,-206.824 255.2663,-194.4751 305.9176,-185.8112"/>
<polygon fill="#000000" stroke="#000000" points="306.7959,-189.2119 316.0627,-184.0759 305.6157,-182.3121 306.7959,-189.2119"/>
</a>
</g>
</g>
<!-- (*github.com/go&#45;i2p/crypto/aes.AESSymmetricDecrypter).Decrypt&#45;&gt;github.com/samber/oops.Errorf -->
<g id="edge20" class="edge">
<title>(*github.com/go&#45;i2p/crypto/aes.AESSymmetricDecrypter).Decrypt&#45;&gt;github.com/samber/oops.Errorf</title>
<g id="a_edge20"><a xlink:title="at aes_decrypter.go:28: calling [github.com/samber/oops.Errorf]">
<path fill="none" stroke="#8b4513" d="M140.8161,-213.0242C160.4313,-208.2318 184.9633,-200.7644 205.0814,-190 245.1716,-168.5493 242.0361,-142.3076 284.0814,-125 328.5948,-106.6764 466.9974,-100.6824 535.6418,-98.8072"/>
<polygon fill="#8b4513" stroke="#8b4513" points="535.7331,-102.3061 545.6397,-98.5499 535.5529,-95.3085 535.7331,-102.3061"/>
</a>
</g>
</g>
<!-- (*github.com/go&#45;i2p/crypto/aes.AESSymmetricDecrypter).Decrypt&#45;&gt;(*github.com/go&#45;i2p/logger.Logger).WithField -->
<g id="edge16" class="edge">
<title>(*github.com/go&#45;i2p/crypto/aes.AESSymmetricDecrypter).Decrypt&#45;&gt;(*github.com/go&#45;i2p/logger.Logger).WithField</title>
<g id="a_edge16"><a xlink:title="at aes_decrypter.go:18: calling [(*github.com/go&#45;i2p/logger.Logger).WithField]&#10;at aes_decrypter.go:41: calling [(*github.com/go&#45;i2p/logger.Logger).WithField]">
<path fill="none" stroke="#8b4513" d="M140.9107,-229.4419C223.1333,-251.7057 429.3841,-307.5531 524.9779,-333.4374"/>
<polygon fill="#8b4513" stroke="#8b4513" points="524.1335,-336.8347 534.7007,-336.0701 525.9631,-330.0781 524.1335,-336.8347"/>
</a>
</g>
</g>
<!-- (*github.com/go&#45;i2p/crypto/aes.AESSymmetricDecrypter).Decrypt&#45;&gt;(*github.com/go&#45;i2p/logger.Logger).Error -->
<g id="edge2" class="edge">
<title>(*github.com/go&#45;i2p/crypto/aes.AESSymmetricDecrypter).Decrypt&#45;&gt;(*github.com/go&#45;i2p/logger.Logger).Error</title>
<g id="a_edge2"><a xlink:title="at aes_decrypter.go:22: calling [(*github.com/go&#45;i2p/logger.Logger).Error]&#10;at aes_decrypter.go:27: calling [(*github.com/go&#45;i2p/logger.Logger).Error]&#10;at aes_decrypter.go:37: calling [(*github.com/go&#45;i2p/logger.Logger).Error]">
<path fill="none" stroke="#8b4513" d="M140.8824,-219.0312C227.5621,-216.8373 448.1332,-212.66 478.4714,-226 499.768,-235.3643 495.0159,-251.2438 514.4714,-264 520.8417,-268.1767 528.1078,-271.6876 535.3432,-274.5915"/>
<polygon fill="#8b4513" stroke="#8b4513" points="534.5101,-278.0142 545.1036,-278.1806 536.926,-271.4443 534.5101,-278.0142"/>
</a>
</g>
</g>
<!-- (*github.com/go&#45;i2p/logger.Logger).WithError -->
<g id="node16" class="node">
<title>(*github.com/go&#45;i2p/logger.Logger).WithError</title>
<g id="a_node16"><a xlink:title="(*github.com/go&#45;i2p/logger.Logger).WithError | defined in log.go:66">
<path fill="#ffe4b5" stroke="#000000" stroke-width="1.5" d="M603.5976,-487C603.5976,-487 546.5346,-487 546.5346,-487 540.5346,-487 534.5346,-481 534.5346,-475 534.5346,-475 534.5346,-463 534.5346,-463 534.5346,-457 540.5346,-451 546.5346,-451 546.5346,-451 603.5976,-451 603.5976,-451 609.5976,-451 615.5976,-457 615.5976,-463 615.5976,-463 615.5976,-475 615.5976,-475 615.5976,-481 609.5976,-487 603.5976,-487"/>
<text text-anchor="middle" x="575.0661" y="-473.2" font-family="Verdana" font-size="14.00" fill="#000000">logger</text>
<text text-anchor="middle" x="575.0661" y="-456.4" font-family="Verdana" font-size="14.00" fill="#000000">WithError</text>
</a>
</g>
</g>
<!-- (*github.com/go&#45;i2p/crypto/aes.AESSymmetricDecrypter).Decrypt&#45;&gt;(*github.com/go&#45;i2p/logger.Logger).WithError -->
<g id="edge26" class="edge">
<title>(*github.com/go&#45;i2p/crypto/aes.AESSymmetricDecrypter).Decrypt&#45;&gt;(*github.com/go&#45;i2p/logger.Logger).WithError</title>
<g id="a_edge26"><a xlink:title="at aes_decrypter.go:22: calling [(*github.com/go&#45;i2p/logger.Logger).WithError]&#10;at aes_decrypter.go:37: calling [(*github.com/go&#45;i2p/logger.Logger).WithError]">
<path fill="none" stroke="#8b4513" d="M140.7759,-233.7215C203.3149,-259.071 338.0617,-316.6568 442.4714,-382 477.0686,-403.6521 479.9933,-417.1587 514.4714,-439 518.3124,-441.4332 522.3783,-443.8169 526.5132,-446.1104"/>
<polygon fill="#8b4513" stroke="#8b4513" points="525.1448,-449.3475 535.6145,-450.9713 528.4426,-443.1729 525.1448,-449.3475"/>
</a>
</g>
</g>
<!-- (*github.com/go&#45;i2p/crypto/aes.AESSymmetricDecrypter).Decrypt&#45;&gt;(*github.com/sirupsen/logrus.Logger).Debug -->
<g id="edge8" class="edge">
<title>(*github.com/go&#45;i2p/crypto/aes.AESSymmetricDecrypter).Decrypt&#45;&gt;(*github.com/sirupsen/logrus.Logger).Debug</title>
<g id="a_edge8"><a xlink:title="at aes_decrypter.go:18: calling [(*github.com/sirupsen/logrus.Logger).Debug]&#10;at aes_decrypter.go:41: calling [(*github.com/sirupsen/logrus.Logger).Debug]">
<path fill="none" stroke="#8b4513" d="M140.9184,-229.4755C162.6099,-237.1627 189.2886,-250.2083 205.0814,-271 309.9476,-409.0593 149.6483,-543.5238 284.0814,-653 338.6668,-697.4519 372.9022,-663.7549 442.4714,-653 474.3178,-648.0768 508.9937,-636.8731 534.895,-627.2747"/>
<polygon fill="#8b4513" stroke="#8b4513" points="536.2534,-630.503 544.3681,-623.6911 533.7766,-623.9558 536.2534,-630.503"/>
</a>
</g>
</g>
<!-- (*github.com/go&#45;i2p/crypto/aes.AESSymmetricEncrypter).Encrypt -->
<g id="node8" class="node">
<title>(*github.com/go&#45;i2p/crypto/aes.AESSymmetricEncrypter).Encrypt</title>
<g id="a_node8"><a xlink:title="(*github.com/go&#45;i2p/crypto/aes.AESSymmetricEncrypter).Encrypt | defined in aes_encrypter.go:17&#10;at aes_encrypter.go:18: calling [(*github.com/sirupsen/logrus.Logger).Debug]&#10;at aes_encrypter.go:31: calling [(*github.com/sirupsen/logrus.Logger).Debug]&#10;at aes_encrypter.go:22: calling [(*github.com/go&#45;i2p/logger.Logger).Error]&#10;at aes_encrypter.go:18: calling [(*github.com/go&#45;i2p/logger.Logger).WithField]&#10;at aes_encrypter.go:31: calling [(*github.com/go&#45;i2p/logger.Logger).WithField]&#10;at aes_encrypter.go:22: calling [(*github.com/go&#45;i2p/logger.Logger).WithError]&#10;at aes_encrypter.go:26: calling [github.com/go&#45;i2p/crypto/aes.pkcs7Pad]">
<path fill="#add8e6" stroke="#000000" stroke-width="1.5" d="M128.3598,-408C128.3598,-408 83.7216,-408 83.7216,-408 77.7216,-408 71.7216,-402 71.7216,-396 71.7216,-396 71.7216,-384 71.7216,-384 71.7216,-378 77.7216,-372 83.7216,-372 83.7216,-372 128.3598,-372 128.3598,-372 134.3598,-372 140.3598,-378 140.3598,-384 140.3598,-384 140.3598,-396 140.3598,-396 140.3598,-402 134.3598,-408 128.3598,-408"/>
<text text-anchor="middle" x="106.0407" y="-385.8" font-family="Verdana" font-size="14.00" fill="#000000">Encrypt</text>
</a>
</g>
</g>
<!-- (*github.com/go&#45;i2p/crypto/aes.AESSymmetricEncrypter).Encrypt&#45;&gt;github.com/go&#45;i2p/crypto/aes.pkcs7Pad -->
<g id="edge28" class="edge">
<title>(*github.com/go&#45;i2p/crypto/aes.AESSymmetricEncrypter).Encrypt&#45;&gt;github.com/go&#45;i2p/crypto/aes.pkcs7Pad</title>
<g id="a_edge28"><a xlink:title="at aes_encrypter.go:26: calling [github.com/go&#45;i2p/crypto/aes.pkcs7Pad]">
<path fill="none" stroke="#000000" d="M140.4657,-394.1486C185.1654,-399.5355 263.4649,-408.9715 314.3325,-415.1017"/>
<polygon fill="#000000" stroke="#000000" points="314.0884,-418.5975 324.4353,-416.3192 314.926,-411.6478 314.0884,-418.5975"/>
</a>
</g>
</g>
<!-- (*github.com/go&#45;i2p/crypto/aes.AESSymmetricEncrypter).Encrypt&#45;&gt;(*github.com/go&#45;i2p/logger.Logger).WithField -->
<g id="edge12" class="edge">
<title>(*github.com/go&#45;i2p/crypto/aes.AESSymmetricEncrypter).Encrypt&#45;&gt;(*github.com/go&#45;i2p/logger.Logger).WithField</title>
<g id="a_edge12"><a xlink:title="at aes_encrypter.go:18: calling [(*github.com/go&#45;i2p/logger.Logger).WithField]&#10;at aes_encrypter.go:31: calling [(*github.com/go&#45;i2p/logger.Logger).WithField]">
<path fill="none" stroke="#8b4513" d="M140.471,-379.7611C159.5412,-374.0422 183.6565,-366.7318 205.0814,-360 224.2557,-353.9753 228.2313,-349.15 248.0814,-346 349.2115,-329.9515 376.0772,-345.47 478.4714,-346 493.4601,-346.0776 509.7566,-346.2229 524.6207,-346.3792"/>
<polygon fill="#8b4513" stroke="#8b4513" points="524.6113,-349.8792 534.6488,-346.4884 524.6876,-342.8796 524.6113,-349.8792"/>
</a>
</g>
</g>
<!-- (*github.com/go&#45;i2p/crypto/aes.AESSymmetricEncrypter).Encrypt&#45;&gt;(*github.com/go&#45;i2p/logger.Logger).Error -->
<g id="edge4" class="edge">
<title>(*github.com/go&#45;i2p/crypto/aes.AESSymmetricEncrypter).Encrypt&#45;&gt;(*github.com/go&#45;i2p/logger.Logger).Error</title>
<g id="a_edge4"><a xlink:title="at aes_encrypter.go:22: calling [(*github.com/go&#45;i2p/logger.Logger).Error]">
<path fill="none" stroke="#8b4513" d="M140.361,-380.8953C159.6104,-375.4684 183.9333,-368.0748 205.0814,-360 224.7721,-352.4817 228.1212,-346.7703 248.0814,-340 263.6031,-334.7352 267.9791,-335.0589 284.0814,-332 373.2982,-315.052 478.7363,-299.4851 534.976,-291.5364"/>
<polygon fill="#8b4513" stroke="#8b4513" points="535.804,-294.9545 545.2192,-290.0962 534.8293,-288.0227 535.804,-294.9545"/>
</a>
</g>
</g>
<!-- (*github.com/go&#45;i2p/crypto/aes.AESSymmetricEncrypter).Encrypt&#45;&gt;(*github.com/go&#45;i2p/logger.Logger).WithError -->
<g id="edge22" class="edge">
<title>(*github.com/go&#45;i2p/crypto/aes.AESSymmetricEncrypter).Encrypt&#45;&gt;(*github.com/go&#45;i2p/logger.Logger).WithError</title>
<g id="a_edge22"><a xlink:title="at aes_encrypter.go:22: calling [(*github.com/go&#45;i2p/logger.Logger).WithError]">
<path fill="none" stroke="#8b4513" d="M108.6571,-408.1949C117.2765,-460.5408 150.067,-611.6233 248.0814,-672 321.9913,-717.5284 367.2401,-696.3099 442.4714,-653 489.9342,-625.6761 482.4514,-597.4301 514.4714,-553 528.4377,-533.6207 544.2261,-511.7346 556.1847,-495.1618"/>
<polygon fill="#8b4513" stroke="#8b4513" points="559.0457,-497.1783 562.0592,-487.0211 553.3693,-493.0821 559.0457,-497.1783"/>
</a>
</g>
</g>
<!-- (*github.com/go&#45;i2p/crypto/aes.AESSymmetricEncrypter).Encrypt&#45;&gt;(*github.com/sirupsen/logrus.Logger).Debug -->
<g id="edge3" class="edge">
<title>(*github.com/go&#45;i2p/crypto/aes.AESSymmetricEncrypter).Encrypt&#45;&gt;(*github.com/sirupsen/logrus.Logger).Debug</title>
<g id="a_edge3"><a xlink:title="at aes_encrypter.go:18: calling [(*github.com/sirupsen/logrus.Logger).Debug]&#10;at aes_encrypter.go:31: calling [(*github.com/sirupsen/logrus.Logger).Debug]">
<path fill="none" stroke="#8b4513" d="M108.7561,-408.2324C117.6439,-460.7552 151.0892,-612.8489 248.0814,-679 339.1248,-741.0939 475.2144,-673.5066 539.2809,-634.5693"/>
<polygon fill="#8b4513" stroke="#8b4513" points="541.1668,-637.5183 547.8308,-629.2817 537.4849,-631.5648 541.1668,-637.5183"/>
</a>
</g>
</g>
<!-- (*github.com/go&#45;i2p/crypto/aes.AESSymmetricEncrypter).EncryptNoPadding -->
<g id="node9" class="node">
<title>(*github.com/go&#45;i2p/crypto/aes.AESSymmetricEncrypter).EncryptNoPadding</title>
<g id="a_node9"><a xlink:title="(*github.com/go&#45;i2p/crypto/aes.AESSymmetricEncrypter).EncryptNoPadding | defined in aes_encrypter.go:36&#10;at aes_encrypter.go:38: calling [github.com/samber/oops.Errorf]">
<path fill="#add8e6" stroke="#000000" stroke-width="1.5" d="M159.8539,-347C159.8539,-347 52.2275,-347 52.2275,-347 46.2275,-347 40.2275,-341 40.2275,-335 40.2275,-335 40.2275,-323 40.2275,-323 40.2275,-317 46.2275,-311 52.2275,-311 52.2275,-311 159.8539,-311 159.8539,-311 165.8539,-311 171.8539,-317 171.8539,-323 171.8539,-323 171.8539,-335 171.8539,-335 171.8539,-341 165.8539,-347 159.8539,-347"/>
<text text-anchor="middle" x="106.0407" y="-324.8" font-family="Verdana" font-size="14.00" fill="#000000">EncryptNoPadding</text>
</a>
</g>
</g>
<!-- (*github.com/go&#45;i2p/crypto/aes.AESSymmetricEncrypter).EncryptNoPadding&#45;&gt;github.com/samber/oops.Errorf -->
<g id="edge27" class="edge">
<title>(*github.com/go&#45;i2p/crypto/aes.AESSymmetricEncrypter).EncryptNoPadding&#45;&gt;github.com/samber/oops.Errorf</title>
<g id="a_edge27"><a xlink:title="at aes_encrypter.go:38: calling [github.com/samber/oops.Errorf]">
<path fill="none" stroke="#8b4513" d="M133.2877,-310.8473C154.1407,-296.2641 182.9791,-274.5572 205.0814,-252 246.2028,-210.0324 233.79,-176.3814 284.0814,-146 345.0816,-109.1494 372.1624,-132.646 442.4714,-121 473.9098,-115.7926 509.4872,-109.6051 535.8688,-104.9602"/>
<polygon fill="#8b4513" stroke="#8b4513" points="536.6177,-108.3822 545.8575,-103.1979 535.4014,-101.4887 536.6177,-108.3822"/>
</a>
</g>
</g>
<!-- (*github.com/go&#45;i2p/crypto/aes.AESSymmetricKey).Zero -->
<g id="node10" class="node">
<title>(*github.com/go&#45;i2p/crypto/aes.AESSymmetricKey).Zero</title>
<g id="a_node10"><a xlink:title="(*github.com/go&#45;i2p/crypto/aes.AESSymmetricKey).Zero | defined in aes_key.go:64&#10;at aes_key.go:65: calling [(*github.com/sirupsen/logrus.Logger).Debug]&#10;at aes_key.go:77: calling [(*github.com/sirupsen/logrus.Logger).Debug]">
<path fill="#add8e6" stroke="#000000" stroke-width="1.5" d="M378.2764,-639C378.2764,-639 348.2764,-639 348.2764,-639 342.2764,-639 336.2764,-633 336.2764,-627 336.2764,-627 336.2764,-615 336.2764,-615 336.2764,-609 342.2764,-603 348.2764,-603 348.2764,-603 378.2764,-603 378.2764,-603 384.2764,-603 390.2764,-609 390.2764,-615 390.2764,-615 390.2764,-627 390.2764,-627 390.2764,-633 384.2764,-639 378.2764,-639"/>
<text text-anchor="middle" x="363.2764" y="-616.8" font-family="Verdana" font-size="14.00" fill="#000000">Zero</text>
</a>
</g>
</g>
<!-- (*github.com/go&#45;i2p/crypto/aes.AESSymmetricKey).Zero&#45;&gt;(*github.com/sirupsen/logrus.Logger).Debug -->
<g id="edge6" class="edge">
<title>(*github.com/go&#45;i2p/crypto/aes.AESSymmetricKey).Zero&#45;&gt;(*github.com/sirupsen/logrus.Logger).Debug</title>
<g id="a_edge6"><a xlink:title="at aes_key.go:65: calling [(*github.com/sirupsen/logrus.Logger).Debug]&#10;at aes_key.go:77: calling [(*github.com/sirupsen/logrus.Logger).Debug]">
<path fill="none" stroke="#8b4513" d="M390.2891,-620.6496C413.6425,-620.2622 448.299,-619.4854 478.4714,-618 496.6898,-617.1031 516.8138,-615.7093 533.9567,-614.4008"/>
<polygon fill="#8b4513" stroke="#8b4513" points="534.5039,-617.8689 544.2017,-613.6023 533.9599,-610.8901 534.5039,-617.8689"/>
</a>
</g>
</g>
<!-- (*github.com/go&#45;i2p/crypto/aes.AESSymmetricKey).NewDecrypter -->
<g id="node11" class="node">
<title>(*github.com/go&#45;i2p/crypto/aes.AESSymmetricKey).NewDecrypter</title>
<g id="a_node11"><a xlink:title="(*github.com/go&#45;i2p/crypto/aes.AESSymmetricKey).NewDecrypter | defined in aes_key.go:40&#10;at aes_key.go:41: calling [(*github.com/sirupsen/logrus.Logger).Debug]&#10;at aes_key.go:46: calling [(*github.com/go&#45;i2p/logger.Logger).WithField]&#10;at aes_key.go:52: calling [(*github.com/go&#45;i2p/logger.Logger).WithField]&#10;at aes_key.go:46: calling [(*github.com/go&#45;i2p/logger.Logger).Error]&#10;at aes_key.go:52: calling [(*github.com/go&#45;i2p/logger.Logger).Error]">
<path fill="#add8e6" stroke="#000000" stroke-width="1.5" d="M404.6671,-578C404.6671,-578 321.8857,-578 321.8857,-578 315.8857,-578 309.8857,-572 309.8857,-566 309.8857,-566 309.8857,-554 309.8857,-554 309.8857,-548 315.8857,-542 321.8857,-542 321.8857,-542 404.6671,-542 404.6671,-542 410.6671,-542 416.6671,-548 416.6671,-554 416.6671,-554 416.6671,-566 416.6671,-566 416.6671,-572 410.6671,-578 404.6671,-578"/>
<text text-anchor="middle" x="363.2764" y="-555.8" font-family="Verdana" font-size="14.00" fill="#000000">NewDecrypter</text>
</a>
</g>
</g>
<!-- (*github.com/go&#45;i2p/crypto/aes.AESSymmetricKey).NewDecrypter&#45;&gt;(*github.com/go&#45;i2p/logger.Logger).WithField -->
<g id="edge14" class="edge">
<title>(*github.com/go&#45;i2p/crypto/aes.AESSymmetricKey).NewDecrypter&#45;&gt;(*github.com/go&#45;i2p/logger.Logger).WithField</title>
<g id="a_edge14"><a xlink:title="at aes_key.go:46: calling [(*github.com/go&#45;i2p/logger.Logger).WithField]&#10;at aes_key.go:52: calling [(*github.com/go&#45;i2p/logger.Logger).WithField]">
<path fill="none" stroke="#8b4513" d="M416.7891,-546.1953C426.0921,-542.075 435.124,-536.7801 442.4714,-530 497.4067,-479.3062 462.4266,-431.6572 514.4714,-378 517.8908,-374.4746 521.7972,-371.2768 525.9421,-368.3932"/>
<polygon fill="#8b4513" stroke="#8b4513" points="528.0842,-371.1817 534.7059,-362.911 524.3718,-365.2471 528.0842,-371.1817"/>
</a>
</g>
</g>
<!-- (*github.com/go&#45;i2p/crypto/aes.AESSymmetricKey).NewDecrypter&#45;&gt;(*github.com/go&#45;i2p/logger.Logger).Error -->
<g id="edge18" class="edge">
<title>(*github.com/go&#45;i2p/crypto/aes.AESSymmetricKey).NewDecrypter&#45;&gt;(*github.com/go&#45;i2p/logger.Logger).Error</title>
<g id="a_edge18"><a xlink:title="at aes_key.go:46: calling [(*github.com/go&#45;i2p/logger.Logger).Error]&#10;at aes_key.go:52: calling [(*github.com/go&#45;i2p/logger.Logger).Error]">
<path fill="none" stroke="#8b4513" d="M416.6309,-547.2339C426.168,-543.0074 435.3267,-537.4077 442.4714,-530 477.1575,-494.0372 481.8294,-354.8278 514.4714,-317 520.3608,-310.1749 528.1213,-304.6646 536.1147,-300.2917"/>
<polygon fill="#8b4513" stroke="#8b4513" points="537.7352,-303.3949 545.1511,-295.8282 534.6351,-297.1188 537.7352,-303.3949"/>
</a>
</g>
</g>
<!-- (*github.com/go&#45;i2p/crypto/aes.AESSymmetricKey).NewDecrypter&#45;&gt;(*github.com/sirupsen/logrus.Logger).Debug -->
<g id="edge1" class="edge">
<title>(*github.com/go&#45;i2p/crypto/aes.AESSymmetricKey).NewDecrypter&#45;&gt;(*github.com/sirupsen/logrus.Logger).Debug</title>
<g id="a_edge1"><a xlink:title="at aes_key.go:41: calling [(*github.com/sirupsen/logrus.Logger).Debug]">
<path fill="none" stroke="#8b4513" d="M416.5466,-575.2072C435.6898,-580.4741 457.4863,-586.2446 477.4714,-591 496.0377,-595.4178 516.7306,-599.7429 534.2674,-603.2345"/>
<polygon fill="#8b4513" stroke="#8b4513" points="533.7003,-606.69 544.1882,-605.1884 535.053,-599.8219 533.7003,-606.69"/>
</a>
</g>
</g>
<!-- (*github.com/go&#45;i2p/crypto/aes.AESSymmetricKey).NewEncrypter -->
<g id="node12" class="node">
<title>(*github.com/go&#45;i2p/crypto/aes.AESSymmetricKey).NewEncrypter</title>
<g id="a_node12"><a xlink:title="(*github.com/go&#45;i2p/crypto/aes.AESSymmetricKey).NewEncrypter | defined in aes_key.go:12&#10;at aes_key.go:18: calling [(*github.com/go&#45;i2p/logger.Logger).WithField]&#10;at aes_key.go:24: calling [(*github.com/go&#45;i2p/logger.Logger).WithField]&#10;at aes_key.go:18: calling [(*github.com/go&#45;i2p/logger.Logger).Error]&#10;at aes_key.go:24: calling [(*github.com/go&#45;i2p/logger.Logger).Error]&#10;at aes_key.go:13: calling [(*github.com/sirupsen/logrus.Logger).Debug]">
<path fill="#add8e6" stroke="#000000" stroke-width="1.5" d="M403.8985,-517C403.8985,-517 322.6543,-517 322.6543,-517 316.6543,-517 310.6543,-511 310.6543,-505 310.6543,-505 310.6543,-493 310.6543,-493 310.6543,-487 316.6543,-481 322.6543,-481 322.6543,-481 403.8985,-481 403.8985,-481 409.8985,-481 415.8985,-487 415.8985,-493 415.8985,-493 415.8985,-505 415.8985,-505 415.8985,-511 409.8985,-517 403.8985,-517"/>
<text text-anchor="middle" x="363.2764" y="-494.8" font-family="Verdana" font-size="14.00" fill="#000000">NewEncrypter</text>
</a>
</g>
</g>
<!-- (*github.com/go&#45;i2p/crypto/aes.AESSymmetricKey).NewEncrypter&#45;&gt;(*github.com/go&#45;i2p/logger.Logger).WithField -->
<g id="edge5" class="edge">
<title>(*github.com/go&#45;i2p/crypto/aes.AESSymmetricKey).NewEncrypter&#45;&gt;(*github.com/go&#45;i2p/logger.Logger).WithField</title>
<g id="a_edge5"><a xlink:title="at aes_key.go:18: calling [(*github.com/go&#45;i2p/logger.Logger).WithField]&#10;at aes_key.go:24: calling [(*github.com/go&#45;i2p/logger.Logger).WithField]">
<path fill="none" stroke="#8b4513" d="M416.1916,-489.6428C425.4474,-486.5534 434.6157,-482.4494 442.4714,-477 487.1745,-445.9897 473.1214,-413.3579 514.4714,-378 517.9501,-375.0254 521.7634,-372.2412 525.7303,-369.658"/>
<polygon fill="#8b4513" stroke="#8b4513" points="527.8254,-372.4822 534.5898,-364.3278 524.2167,-366.484 527.8254,-372.4822"/>
</a>
</g>
</g>
<!-- (*github.com/go&#45;i2p/crypto/aes.AESSymmetricKey).NewEncrypter&#45;&gt;(*github.com/go&#45;i2p/logger.Logger).Error -->
<g id="edge13" class="edge">
<title>(*github.com/go&#45;i2p/crypto/aes.AESSymmetricKey).NewEncrypter&#45;&gt;(*github.com/go&#45;i2p/logger.Logger).Error</title>
<g id="a_edge13"><a xlink:title="at aes_key.go:18: calling [(*github.com/go&#45;i2p/logger.Logger).Error]&#10;at aes_key.go:24: calling [(*github.com/go&#45;i2p/logger.Logger).Error]">
<path fill="none" stroke="#8b4513" d="M415.9435,-491.34C425.5373,-488.1003 434.8927,-483.5069 442.4714,-477 501.6358,-426.2027 460.728,-373.5016 514.4714,-317 520.5005,-310.6614 528.11,-305.3964 535.8816,-301.1142"/>
<polygon fill="#8b4513" stroke="#8b4513" points="537.6317,-304.1518 544.9942,-296.5331 534.4876,-297.8976 537.6317,-304.1518"/>
</a>
</g>
</g>
<!-- (*github.com/go&#45;i2p/crypto/aes.AESSymmetricKey).NewEncrypter&#45;&gt;(*github.com/sirupsen/logrus.Logger).Debug -->
<g id="edge29" class="edge">
<title>(*github.com/go&#45;i2p/crypto/aes.AESSymmetricKey).NewEncrypter&#45;&gt;(*github.com/sirupsen/logrus.Logger).Debug</title>
<g id="a_edge29"><a xlink:title="at aes_key.go:13: calling [(*github.com/sirupsen/logrus.Logger).Debug]">
<path fill="none" stroke="#8b4513" d="M416.2762,-514.8002C425.5238,-518.8998 434.6675,-523.9205 442.4714,-530 463.5838,-546.4473 455.9047,-563.1531 477.4714,-579 494.0812,-591.2047 515.5893,-598.9119 534.1857,-603.695"/>
<polygon fill="#8b4513" stroke="#8b4513" points="533.6302,-607.1602 544.1679,-606.0614 535.2449,-600.349 533.6302,-607.1602"/>
</a>
</g>
</g>
</g>
</svg>
