<?xml version="1.0" encoding="UTF-8" standalone="no"?>
<!DOCTYPE svg PUBLIC "-//W3C//DTD SVG 1.1//EN"
 "http://www.w3.org/Graphics/SVG/1.1/DTD/svg11.dtd">
<!-- Generated by graphviz version 2.40.1 (20161225.0304)
 -->
<!-- Title: gocallvis Pages: 1 -->
<svg width="652pt" height="766pt"
 viewBox="0.00 0.00 651.66 766.00" xmlns="http://www.w3.org/2000/svg" xmlns:xlink="http://www.w3.org/1999/xlink">
<g id="graph0" class="graph" transform="scale(1 1) rotate(0) translate(0 766)">
<title>gocallvis</title>
<polygon fill="#d3d3d3" stroke="transparent" points="0,0 0,-766 651.6608,-766 651.6608,0 0,0"/>
<g id="clust1" class="cluster">
<title>cluster_focus</title>
<polygon fill="#e6ecfa" stroke="#000000" stroke-width=".5" points="0,-8 0,-758 643.6608,-758 643.6608,-8 0,-8"/>
<text text-anchor="middle" x="321.8304" y="-737.8" font-family="Arial" font-size="18.00" fill="#000000">aes</text>
</g>
<g id="clust6" class="cluster">
<title>cluster_*github.com/sirupsen/logrus.Logger</title>
<g id="a_clust6"><a xlink:title="type: *github.com/sirupsen/logrus.Logger">
<path fill="#eed8ae" stroke="#000000" stroke-width=".5" d="M548.4055,-262C548.4055,-262 602.7267,-262 602.7267,-262 608.7267,-262 614.7267,-268 614.7267,-274 614.7267,-274 614.7267,-328 614.7267,-328 614.7267,-334 608.7267,-340 602.7267,-340 602.7267,-340 548.4055,-340 548.4055,-340 542.4055,-340 536.4055,-334 536.4055,-328 536.4055,-328 536.4055,-274 536.4055,-274 536.4055,-268 542.4055,-262 548.4055,-262"/>
<text text-anchor="middle" x="575.5661" y="-270.5" font-family="Arial" font-size="15.00" fill="#222222">(*Logger)</text>
</a>
</g>
</g>
<g id="clust5" class="cluster">
<title>cluster_*github.com/go&#45;i2p/logger.Logger</title>
<g id="a_clust5"><a xlink:title="type: *github.com/go&#45;i2p/logger.Logger">
<path fill="#eed8ae" stroke="#000000" stroke-width=".5" d="M535.9567,-420C535.9567,-420 614.1755,-420 614.1755,-420 620.1755,-420 626.1755,-426 626.1755,-432 626.1755,-432 626.1755,-669 626.1755,-669 626.1755,-675 620.1755,-681 614.1755,-681 614.1755,-681 535.9567,-681 535.9567,-681 529.9567,-681 523.9567,-675 523.9567,-669 523.9567,-669 523.9567,-432 523.9567,-432 523.9567,-426 529.9567,-420 535.9567,-420"/>
<text text-anchor="middle" x="575.0661" y="-428.5" font-family="Arial" font-size="15.00" fill="#222222">(*Logger)</text>
</a>
</g>
</g>
<g id="clust4" class="cluster">
<title>cluster_*github.com/go&#45;i2p/crypto/aes.AESSymmetricKey</title>
<g id="a_clust4"><a xlink:title="type: *github.com/go&#45;i2p/crypto/aes.AESSymmetricKey">
<path fill="#b0c4de" stroke="#000000" stroke-width=".5" d="M296.0814,-362C296.0814,-362 430.4714,-362 430.4714,-362 436.4714,-362 442.4714,-368 442.4714,-374 442.4714,-374 442.4714,-550 442.4714,-550 442.4714,-556 436.4714,-562 430.4714,-562 430.4714,-562 296.0814,-562 296.0814,-562 290.0814,-562 284.0814,-556 284.0814,-550 284.0814,-550 284.0814,-374 284.0814,-374 284.0814,-368 290.0814,-362 296.0814,-362"/>
<text text-anchor="middle" x="363.2764" y="-370.5" font-family="Arial" font-size="15.00" fill="#222222">(*AESSymmetricKey)</text>
</a>
</g>
</g>
<g id="clust3" class="cluster">
<title>cluster_*github.com/go&#45;i2p/crypto/aes.AESSymmetricEncrypter</title>
<g id="a_clust3"><a xlink:title="type: *github.com/go&#45;i2p/crypto/aes.AESSymmetricEncrypter">
<path fill="#b0c4de" stroke="#000000" stroke-width=".5" d="M20.3843,-489C20.3843,-489 192.6971,-489 192.6971,-489 198.6971,-489 204.6971,-495 204.6971,-501 204.6971,-501 204.6971,-616 204.6971,-616 204.6971,-622 198.6971,-628 192.6971,-628 192.6971,-628 20.3843,-628 20.3843,-628 14.3843,-628 8.3843,-622 8.3843,-616 8.3843,-616 8.3843,-501 8.3843,-501 8.3843,-495 14.3843,-489 20.3843,-489"/>
<text text-anchor="middle" x="106.5407" y="-497.5" font-family="Arial" font-size="15.00" fill="#222222">(*AESSymmetricEncrypter)</text>
</a>
</g>
</g>
<g id="clust2" class="cluster">
<title>cluster_*github.com/go&#45;i2p/crypto/aes.AESSymmetricDecrypter</title>
<g id="a_clust2"><a xlink:title="type: *github.com/go&#45;i2p/crypto/aes.AESSymmetricDecrypter">
<path fill="#b0c4de" stroke="#000000" stroke-width=".5" d="M20,-56C20,-56 193.0814,-56 193.0814,-56 199.0814,-56 205.0814,-62 205.0814,-68 205.0814,-68 205.0814,-183 205.0814,-183 205.0814,-189 199.0814,-195 193.0814,-195 193.0814,-195 20,-195 20,-195 14,-195 8,-189 8,-183 8,-183 8,-68 8,-68 8,-62 14,-56 20,-56"/>
<text text-anchor="middle" x="106.5407" y="-64.5" font-family="Arial" font-size="15.00" fill="#222222">(*AESSymmetricDecrypter)</text>
</a>
</g>
</g>
<!-- github.com/go&#45;i2p/crypto/aes.pkcs7Pad -->
<g id="node1" class="node">
<title>github.com/go&#45;i2p/crypto/aes.pkcs7Pad</title>
<g id="a_node1"><a xlink:title="github.com/go&#45;i2p/crypto/aes.pkcs7Pad | defined in utils.go:13&#10;at utils.go:23: calling [(*github.com/go&#45;i2p/logger.Logger).WithField]&#10;at utils.go:17: calling [(*github.com/sirupsen/logrus.Logger).Debug]&#10;at utils.go:23: calling [(*github.com/sirupsen/logrus.Logger).Debug]&#10;at utils.go:14: calling [(*github.com/go&#45;i2p/logger.Logger).WithFields]">
<path fill="#add8e6" stroke="#000000" stroke-width=".5" d="M389.9336,-647C389.9336,-647 336.6192,-647 336.6192,-647 330.6192,-647 324.6192,-641 324.6192,-635 324.6192,-635 324.6192,-623 324.6192,-623 324.6192,-617 330.6192,-611 336.6192,-611 336.6192,-611 389.9336,-611 389.9336,-611 395.9336,-611 401.9336,-617 401.9336,-623 401.9336,-623 401.9336,-635 401.9336,-635 401.9336,-641 395.9336,-647 389.9336,-647"/>
<text text-anchor="middle" x="363.2764" y="-624.8" font-family="Verdana" font-size="14.00" fill="#000000">pkcs7Pad</text>
</a>
</g>
</g>
<!-- (*github.com/go&#45;i2p/logger.Logger).WithFields -->
<g id="node13" class="node">
<title>(*github.com/go&#45;i2p/logger.Logger).WithFields</title>
<g id="a_node13"><a xlink:title="(*github.com/go&#45;i2p/logger.Logger).WithFields | defined in log.go:60">
<path fill="#ffe4b5" stroke="#000000" stroke-width="1.5" d="M606.2852,-673C606.2852,-673 543.847,-673 543.847,-673 537.847,-673 531.847,-667 531.847,-661 531.847,-661 531.847,-649 531.847,-649 531.847,-643 537.847,-637 543.847,-637 543.847,-637 606.2852,-637 606.2852,-637 612.2852,-637 618.2852,-643 618.2852,-649 618.2852,-649 618.2852,-661 618.2852,-661 618.2852,-667 612.2852,-673 606.2852,-673"/>
<text text-anchor="middle" x="575.0661" y="-659.2" font-family="Verdana" font-size="14.00" fill="#000000">logger</text>
<text text-anchor="middle" x="575.0661" y="-642.4" font-family="Verdana" font-size="14.00" fill="#000000">WithFields</text>
</a>
</g>
</g>
<!-- github.com/go&#45;i2p/crypto/aes.pkcs7Pad&#45;&gt;(*github.com/go&#45;i2p/logger.Logger).WithFields -->
<g id="edge19" class="edge">
<title>github.com/go&#45;i2p/crypto/aes.pkcs7Pad&#45;&gt;(*github.com/go&#45;i2p/logger.Logger).WithFields</title>
<g id="a_edge19"><a xlink:title="at utils.go:14: calling [(*github.com/go&#45;i2p/logger.Logger).WithFields]">
<path fill="none" stroke="#8b4513" d="M402.0779,-634.8006C424.1531,-638.0093 452.3313,-641.9519 477.4714,-645 491.7577,-646.7321 507.2448,-648.4102 521.5838,-649.8812"/>
<polygon fill="#8b4513" stroke="#8b4513" points="521.4869,-653.3892 531.7884,-650.9136 522.1915,-646.4248 521.4869,-653.3892"/>
</a>
</g>
</g>
<!-- (*github.com/go&#45;i2p/logger.Logger).WithField -->
<g id="node14" class="node">
<title>(*github.com/go&#45;i2p/logger.Logger).WithField</title>
<g id="a_node14"><a xlink:title="(*github.com/go&#45;i2p/logger.Logger).WithField | defined in log.go:54">
<path fill="#ffe4b5" stroke="#000000" stroke-width="1.5" d="M603.3406,-551C603.3406,-551 546.7916,-551 546.7916,-551 540.7916,-551 534.7916,-545 534.7916,-539 534.7916,-539 534.7916,-527 534.7916,-527 534.7916,-521 540.7916,-515 546.7916,-515 546.7916,-515 603.3406,-515 603.3406,-515 609.3406,-515 615.3406,-521 615.3406,-527 615.3406,-527 615.3406,-539 615.3406,-539 615.3406,-545 609.3406,-551 603.3406,-551"/>
<text text-anchor="middle" x="575.0661" y="-537.2" font-family="Verdana" font-size="14.00" fill="#000000">logger</text>
<text text-anchor="middle" x="575.0661" y="-520.4" font-family="Verdana" font-size="14.00" fill="#000000">WithField</text>
</a>
</g>
</g>
<!-- github.com/go&#45;i2p/crypto/aes.pkcs7Pad&#45;&gt;(*github.com/go&#45;i2p/logger.Logger).WithField -->
<g id="edge1" class="edge">
<title>github.com/go&#45;i2p/crypto/aes.pkcs7Pad&#45;&gt;(*github.com/go&#45;i2p/logger.Logger).WithField</title>
<g id="a_edge1"><a xlink:title="at utils.go:23: calling [(*github.com/go&#45;i2p/logger.Logger).WithField]">
<path fill="none" stroke="#8b4513" d="M402.1219,-611.3921C436.9098,-595.6235 488.0978,-572.421 525.7618,-555.3486"/>
<polygon fill="#8b4513" stroke="#8b4513" points="527.3648,-558.4649 535.0278,-551.1485 524.4748,-552.0893 527.3648,-558.4649"/>
</a>
</g>
</g>
<!-- (*github.com/sirupsen/logrus.Logger).Debug -->
<g id="node17" class="node">
<title>(*github.com/sirupsen/logrus.Logger).Debug</title>
<g id="a_node17"><a xlink:title="(*github.com/sirupsen/logrus.Logger).Debug | defined in logger.go:221">
<path fill="#ffe4b5" stroke="#000000" stroke-width="1.5" d="M593.8881,-332C593.8881,-332 556.2441,-332 556.2441,-332 550.2441,-332 544.2441,-326 544.2441,-320 544.2441,-320 544.2441,-308 544.2441,-308 544.2441,-302 550.2441,-296 556.2441,-296 556.2441,-296 593.8881,-296 593.8881,-296 599.8881,-296 605.8881,-302 605.8881,-308 605.8881,-308 605.8881,-320 605.8881,-320 605.8881,-326 599.8881,-332 593.8881,-332"/>
<text text-anchor="middle" x="575.0661" y="-318.2" font-family="Verdana" font-size="14.00" fill="#000000">logrus</text>
<text text-anchor="middle" x="575.0661" y="-301.4" font-family="Verdana" font-size="14.00" fill="#000000">Debug</text>
</a>
</g>
</g>
<!-- github.com/go&#45;i2p/crypto/aes.pkcs7Pad&#45;&gt;(*github.com/sirupsen/logrus.Logger).Debug -->
<g id="edge7" class="edge">
<title>github.com/go&#45;i2p/crypto/aes.pkcs7Pad&#45;&gt;(*github.com/sirupsen/logrus.Logger).Debug</title>
<g id="a_edge7"><a xlink:title="at utils.go:17: calling [(*github.com/sirupsen/logrus.Logger).Debug]&#10;at utils.go:23: calling [(*github.com/sirupsen/logrus.Logger).Debug]">
<path fill="none" stroke="#8b4513" d="M393.2187,-610.9828C409.3927,-600.1033 428.7913,-585.0596 442.4714,-568 489.7389,-509.0557 478.8424,-480.6274 514.4714,-414 528.0853,-388.5415 545.2742,-360.5068 557.8643,-340.6155"/>
<polygon fill="#8b4513" stroke="#8b4513" points="560.8757,-342.4025 563.296,-332.0878 554.9717,-338.6419 560.8757,-342.4025"/>
</a>
</g>
</g>
<!-- github.com/samber/oops.Errorf -->
<g id="node2" class="node">
<title>github.com/samber/oops.Errorf</title>
<g id="a_node2"><a xlink:title="github.com/samber/oops.Errorf | defined in oops.go:34">
<path fill="#ffe4b5" stroke="#000000" stroke-width="1.5" d="M592.2614,-116C592.2614,-116 557.8708,-116 557.8708,-116 551.8708,-116 545.8708,-110 545.8708,-104 545.8708,-104 545.8708,-92 545.8708,-92 545.8708,-86 551.8708,-80 557.8708,-80 557.8708,-80 592.2614,-80 592.2614,-80 598.2614,-80 604.2614,-86 604.2614,-92 604.2614,-92 604.2614,-104 604.2614,-104 604.2614,-110 598.2614,-116 592.2614,-116"/>
<text text-anchor="middle" x="575.0661" y="-102.2" font-family="Verdana" font-size="14.00" fill="#000000">oops</text>
<text text-anchor="middle" x="575.0661" y="-85.4" font-family="Verdana" font-size="14.00" fill="#000000">Errorf</text>
</a>
</g>
</g>
<!-- github.com/go&#45;i2p/crypto/aes.init -->
<g id="node3" class="node">
<title>github.com/go&#45;i2p/crypto/aes.init</title>
<g id="a_node3"><a xlink:title="github.com/go&#45;i2p/crypto/aes.init | defined in .:0&#10;at constants.go:10: calling [github.com/go&#45;i2p/logger.GetGoI2PLogger]&#10;at constants.go:15: calling [github.com/samber/oops.Errorf]&#10;at constants.go:18: calling [github.com/samber/oops.Errorf]">
<path fill="#add8e6" stroke="#000000" stroke-width=".5" d="M378.2764,-52C378.2764,-52 348.2764,-52 348.2764,-52 342.2764,-52 336.2764,-46 336.2764,-40 336.2764,-40 336.2764,-28 336.2764,-28 336.2764,-22 342.2764,-16 348.2764,-16 348.2764,-16 378.2764,-16 378.2764,-16 384.2764,-16 390.2764,-22 390.2764,-28 390.2764,-28 390.2764,-40 390.2764,-40 390.2764,-46 384.2764,-52 378.2764,-52"/>
<text text-anchor="middle" x="363.2764" y="-29.8" font-family="Verdana" font-size="14.00" fill="#000000">init</text>
</a>
</g>
</g>
<!-- github.com/go&#45;i2p/crypto/aes.init&#45;&gt;github.com/samber/oops.Errorf -->
<g id="edge24" class="edge">
<title>github.com/go&#45;i2p/crypto/aes.init&#45;&gt;github.com/samber/oops.Errorf</title>
<g id="a_edge24"><a xlink:title="at constants.go:15: calling [github.com/samber/oops.Errorf]&#10;at constants.go:18: calling [github.com/samber/oops.Errorf]">
<path fill="none" stroke="#8b4513" d="M390.4552,-40.3974C413.9124,-46.0807 448.6281,-54.8792 478.4714,-64 497.5164,-69.8206 518.3887,-77.0571 535.8428,-83.356"/>
<polygon fill="#8b4513" stroke="#8b4513" points="535.0909,-86.8069 545.6849,-86.9385 537.4853,-80.2291 535.0909,-86.8069"/>
</a>
</g>
</g>
<!-- github.com/go&#45;i2p/logger.GetGoI2PLogger -->
<g id="node4" class="node">
<title>github.com/go&#45;i2p/logger.GetGoI2PLogger</title>
<g id="a_node4"><a xlink:title="github.com/go&#45;i2p/logger.GetGoI2PLogger | defined in log.go:120">
<path fill="#ffe4b5" stroke="#000000" stroke-width="1.5" d="M623.7556,-52C623.7556,-52 526.3766,-52 526.3766,-52 520.3766,-52 514.3766,-46 514.3766,-40 514.3766,-40 514.3766,-28 514.3766,-28 514.3766,-22 520.3766,-16 526.3766,-16 526.3766,-16 623.7556,-16 623.7556,-16 629.7556,-16 635.7556,-22 635.7556,-28 635.7556,-28 635.7556,-40 635.7556,-40 635.7556,-46 629.7556,-52 623.7556,-52"/>
<text text-anchor="middle" x="575.0661" y="-38.2" font-family="Verdana" font-size="14.00" fill="#000000">logger</text>
<text text-anchor="middle" x="575.0661" y="-21.4" font-family="Verdana" font-size="14.00" fill="#000000">GetGoI2PLogger</text>
</a>
</g>
</g>
<!-- github.com/go&#45;i2p/crypto/aes.init&#45;&gt;github.com/go&#45;i2p/logger.GetGoI2PLogger -->
<g id="edge12" class="edge">
<title>github.com/go&#45;i2p/crypto/aes.init&#45;&gt;github.com/go&#45;i2p/logger.GetGoI2PLogger</title>
<g id="a_edge12"><a xlink:title="at constants.go:10: calling [github.com/go&#45;i2p/logger.GetGoI2PLogger]">
<path fill="none" stroke="#8b4513" d="M390.5306,-34C419.0412,-34 464.9752,-34 503.8809,-34"/>
<polygon fill="#8b4513" stroke="#8b4513" points="504.1252,-37.5001 514.1252,-34 504.1251,-30.5001 504.1252,-37.5001"/>
</a>
</g>
</g>
<!-- github.com/go&#45;i2p/crypto/aes.pkcs7Unpad -->
<g id="node5" class="node">
<title>github.com/go&#45;i2p/crypto/aes.pkcs7Unpad</title>
<g id="a_node5"><a xlink:title="github.com/go&#45;i2p/crypto/aes.pkcs7Unpad | defined in utils.go:29&#10;at utils.go:30: calling [(*github.com/sirupsen/logrus.Logger).Debug]&#10;at utils.go:51: calling [(*github.com/sirupsen/logrus.Logger).Debug]&#10;at utils.go:30: calling [(*github.com/go&#45;i2p/logger.Logger).WithField]&#10;at utils.go:39: calling [(*github.com/go&#45;i2p/logger.Logger).WithField]&#10;at utils.go:51: calling [(*github.com/go&#45;i2p/logger.Logger).WithField]&#10;at utils.go:34: calling [(*github.com/go&#45;i2p/logger.Logger).Error]&#10;at utils.go:39: calling [(*github.com/go&#45;i2p/logger.Logger).Error]&#10;at utils.go:45: calling [(*github.com/go&#45;i2p/logger.Logger).Error]&#10;at utils.go:35: calling [github.com/samber/oops.Errorf]&#10;at utils.go:40: calling [github.com/samber/oops.Errorf]&#10;at utils.go:46: calling [github.com/samber/oops.Errorf]">
<path fill="#add8e6" stroke="#000000" stroke-width=".5" d="M398.2568,-268C398.2568,-268 328.296,-268 328.296,-268 322.296,-268 316.296,-262 316.296,-256 316.296,-256 316.296,-244 316.296,-244 316.296,-238 322.296,-232 328.296,-232 328.296,-232 398.2568,-232 398.2568,-232 404.2568,-232 410.2568,-238 410.2568,-244 410.2568,-244 410.2568,-256 410.2568,-256 410.2568,-262 404.2568,-268 398.2568,-268"/>
<text text-anchor="middle" x="363.2764" y="-245.8" font-family="Verdana" font-size="14.00" fill="#000000">pkcs7Unpad</text>
</a>
</g>
</g>
<!-- github.com/go&#45;i2p/crypto/aes.pkcs7Unpad&#45;&gt;github.com/samber/oops.Errorf -->
<g id="edge15" class="edge">
<title>github.com/go&#45;i2p/crypto/aes.pkcs7Unpad&#45;&gt;github.com/samber/oops.Errorf</title>
<g id="a_edge15"><a xlink:title="at utils.go:35: calling [github.com/samber/oops.Errorf]&#10;at utils.go:40: calling [github.com/samber/oops.Errorf]&#10;at utils.go:46: calling [github.com/samber/oops.Errorf]">
<path fill="none" stroke="#8b4513" d="M388.4031,-231.9667C426.5368,-204.5985 499.0743,-152.5388 541.6256,-122"/>
<polygon fill="#8b4513" stroke="#8b4513" points="543.8886,-124.684 549.9721,-116.0098 539.8071,-118.9971 543.8886,-124.684"/>
</a>
</g>
</g>
<!-- github.com/go&#45;i2p/crypto/aes.pkcs7Unpad&#45;&gt;(*github.com/go&#45;i2p/logger.Logger).WithField -->
<g id="edge13" class="edge">
<title>github.com/go&#45;i2p/crypto/aes.pkcs7Unpad&#45;&gt;(*github.com/go&#45;i2p/logger.Logger).WithField</title>
<g id="a_edge13"><a xlink:title="at utils.go:30: calling [(*github.com/go&#45;i2p/logger.Logger).WithField]&#10;at utils.go:39: calling [(*github.com/go&#45;i2p/logger.Logger).WithField]&#10;at utils.go:51: calling [(*github.com/go&#45;i2p/logger.Logger).WithField]">
<path fill="none" stroke="#8b4513" d="M390.1292,-268.1826C407.0489,-280.7842 428.2972,-298.8718 442.4714,-319 493.0324,-390.7997 455.1265,-438.2715 514.4714,-503 517.8156,-506.6476 521.7015,-509.9073 525.8601,-512.8081"/>
<polygon fill="#8b4513" stroke="#8b4513" points="524.3464,-515.987 534.6929,-518.2674 528.0267,-510.0326 524.3464,-515.987"/>
</a>
</g>
</g>
<!-- (*github.com/go&#45;i2p/logger.Logger).Error -->
<g id="node15" class="node">
<title>(*github.com/go&#45;i2p/logger.Logger).Error</title>
<g id="a_node15"><a xlink:title="(*github.com/go&#45;i2p/logger.Logger).Error | defined in log.go:42">
<path fill="#ffe4b5" stroke="#000000" stroke-width="1.5" d="M592.8324,-490C592.8324,-490 557.2998,-490 557.2998,-490 551.2998,-490 545.2998,-484 545.2998,-478 545.2998,-478 545.2998,-466 545.2998,-466 545.2998,-460 551.2998,-454 557.2998,-454 557.2998,-454 592.8324,-454 592.8324,-454 598.8324,-454 604.8324,-460 604.8324,-466 604.8324,-466 604.8324,-478 604.8324,-478 604.8324,-484 598.8324,-490 592.8324,-490"/>
<text text-anchor="middle" x="575.0661" y="-476.2" font-family="Verdana" font-size="14.00" fill="#000000">logger</text>
<text text-anchor="middle" x="575.0661" y="-459.4" font-family="Verdana" font-size="14.00" fill="#000000">Error</text>
</a>
</g>
</g>
<!-- github.com/go&#45;i2p/crypto/aes.pkcs7Unpad&#45;&gt;(*github.com/go&#45;i2p/logger.Logger).Error -->
<g id="edge14" class="edge">
<title>github.com/go&#45;i2p/crypto/aes.pkcs7Unpad&#45;&gt;(*github.com/go&#45;i2p/logger.Logger).Error</title>
<g id="a_edge14"><a xlink:title="at utils.go:34: calling [(*github.com/go&#45;i2p/logger.Logger).Error]&#10;at utils.go:39: calling [(*github.com/go&#45;i2p/logger.Logger).Error]&#10;at utils.go:45: calling [(*github.com/go&#45;i2p/logger.Logger).Error]">
<path fill="none" stroke="#8b4513" d="M410.5052,-253.2979C433.1082,-256.9722 459.3444,-264.5416 478.4714,-280 485.5089,-285.6877 537.351,-393.0135 562.0505,-444.6682"/>
<polygon fill="#8b4513" stroke="#8b4513" points="559.0008,-446.4042 566.4685,-453.9197 565.3175,-443.3876 559.0008,-446.4042"/>
</a>
</g>
</g>
<!-- github.com/go&#45;i2p/crypto/aes.pkcs7Unpad&#45;&gt;(*github.com/sirupsen/logrus.Logger).Debug -->
<g id="edge11" class="edge">
<title>github.com/go&#45;i2p/crypto/aes.pkcs7Unpad&#45;&gt;(*github.com/sirupsen/logrus.Logger).Debug</title>
<g id="a_edge11"><a xlink:title="at utils.go:30: calling [(*github.com/sirupsen/logrus.Logger).Debug]&#10;at utils.go:51: calling [(*github.com/sirupsen/logrus.Logger).Debug]">
<path fill="none" stroke="#8b4513" d="M410.2676,-243.0962C431.9232,-241.9152 457.4269,-243.4577 478.4714,-253 499.9551,-262.7415 494.8287,-278.9383 514.4714,-292 520.6223,-296.0901 527.6291,-299.5335 534.6418,-302.3918"/>
<polygon fill="#8b4513" stroke="#8b4513" points="533.5357,-305.7148 544.1283,-305.9327 535.9836,-299.1567 533.5357,-305.7148"/>
</a>
</g>
</g>
<!-- (*github.com/go&#45;i2p/crypto/aes.AESSymmetricDecrypter).DecryptNoPadding -->
<g id="node6" class="node">
<title>(*github.com/go&#45;i2p/crypto/aes.AESSymmetricDecrypter).DecryptNoPadding</title>
<g id="a_node6"><a xlink:title="(*github.com/go&#45;i2p/crypto/aes.AESSymmetricDecrypter).DecryptNoPadding | defined in aes_decrypter.go:46&#10;at aes_decrypter.go:48: calling [github.com/samber/oops.Errorf]">
<path fill="#add8e6" stroke="#000000" stroke-width="1.5" d="M160.1221,-126C160.1221,-126 51.9593,-126 51.9593,-126 45.9593,-126 39.9593,-120 39.9593,-114 39.9593,-114 39.9593,-102 39.9593,-102 39.9593,-96 45.9593,-90 51.9593,-90 51.9593,-90 160.1221,-90 160.1221,-90 166.1221,-90 172.1221,-96 172.1221,-102 172.1221,-102 172.1221,-114 172.1221,-114 172.1221,-120 166.1221,-126 160.1221,-126"/>
<text text-anchor="middle" x="106.0407" y="-103.8" font-family="Verdana" font-size="14.00" fill="#000000">DecryptNoPadding</text>
</a>
</g>
</g>
<!-- (*github.com/go&#45;i2p/crypto/aes.AESSymmetricDecrypter).DecryptNoPadding&#45;&gt;github.com/samber/oops.Errorf -->
<g id="edge27" class="edge">
<title>(*github.com/go&#45;i2p/crypto/aes.AESSymmetricDecrypter).DecryptNoPadding&#45;&gt;github.com/samber/oops.Errorf</title>
<g id="a_edge27"><a xlink:title="at aes_decrypter.go:48: calling [github.com/samber/oops.Errorf]">
<path fill="none" stroke="#8b4513" d="M172.1313,-102.7988C196.0466,-101.0616 223.2685,-99.2515 248.0814,-98 349.9505,-92.8618 375.4847,-92.5557 477.4714,-91 496.6393,-90.7076 517.8732,-92.0333 535.6266,-93.6073"/>
<polygon fill="#8b4513" stroke="#8b4513" points="535.3508,-97.0967 545.6355,-94.5524 536.0089,-90.1277 535.3508,-97.0967"/>
</a>
</g>
</g>
<!-- (*github.com/go&#45;i2p/crypto/aes.AESSymmetricDecrypter).Decrypt -->
<g id="node7" class="node">
<title>(*github.com/go&#45;i2p/crypto/aes.AESSymmetricDecrypter).Decrypt</title>
<g id="a_node7"><a xlink:title="(*github.com/go&#45;i2p/crypto/aes.AESSymmetricDecrypter).Decrypt | defined in aes_decrypter.go:17&#10;at aes_decrypter.go:18: calling [(*github.com/sirupsen/logrus.Logger).Debug]&#10;at aes_decrypter.go:41: calling [(*github.com/sirupsen/logrus.Logger).Debug]&#10;at aes_decrypter.go:22: calling [(*github.com/go&#45;i2p/logger.Logger).WithError]&#10;at aes_decrypter.go:37: calling [(*github.com/go&#45;i2p/logger.Logger).WithError]&#10;at aes_decrypter.go:28: calling [github.com/samber/oops.Errorf]&#10;at aes_decrypter.go:18: calling [(*github.com/go&#45;i2p/logger.Logger).WithField]&#10;at aes_decrypter.go:41: calling [(*github.com/go&#45;i2p/logger.Logger).WithField]&#10;at aes_decrypter.go:22: calling [(*github.com/go&#45;i2p/logger.Logger).Error]&#10;at aes_decrypter.go:27: calling [(*github.com/go&#45;i2p/logger.Logger).Error]&#10;at aes_decrypter.go:37: calling [(*github.com/go&#45;i2p/logger.Logger).Error]&#10;at aes_decrypter.go:35: calling [github.com/go&#45;i2p/crypto/aes.pkcs7Unpad]">
<path fill="#add8e6" stroke="#000000" stroke-width="1.5" d="M128.6278,-187C128.6278,-187 83.4536,-187 83.4536,-187 77.4536,-187 71.4536,-181 71.4536,-175 71.4536,-175 71.4536,-163 71.4536,-163 71.4536,-157 77.4536,-151 83.4536,-151 83.4536,-151 128.6278,-151 128.6278,-151 134.6278,-151 140.6278,-157 140.6278,-163 140.6278,-163 140.6278,-175 140.6278,-175 140.6278,-181 134.6278,-187 128.6278,-187"/>
<text text-anchor="middle" x="106.0407" y="-164.8" font-family="Verdana" font-size="14.00" fill="#000000">Decrypt</text>
</a>
</g>
</g>
<!-- (*github.com/go&#45;i2p/crypto/aes.AESSymmetricDecrypter).Decrypt&#45;&gt;github.com/samber/oops.Errorf -->
<g id="edge17" class="edge">
<title>(*github.com/go&#45;i2p/crypto/aes.AESSymmetricDecrypter).Decrypt&#45;&gt;github.com/samber/oops.Errorf</title>
<g id="a_edge17"><a xlink:title="at aes_decrypter.go:28: calling [github.com/samber/oops.Errorf]">
<path fill="none" stroke="#8b4513" d="M140.8157,-159.4172C169.4205,-151.8397 211.1193,-141.4899 248.0814,-135 351.0087,-116.9277 473.788,-105.7914 535.501,-100.906"/>
<polygon fill="#8b4513" stroke="#8b4513" points="535.8848,-104.3868 545.5828,-100.1207 535.3411,-97.4079 535.8848,-104.3868"/>
</a>
</g>
</g>
<!-- (*github.com/go&#45;i2p/crypto/aes.AESSymmetricDecrypter).Decrypt&#45;&gt;github.com/go&#45;i2p/crypto/aes.pkcs7Unpad -->
<g id="edge28" class="edge">
<title>(*github.com/go&#45;i2p/crypto/aes.AESSymmetricDecrypter).Decrypt&#45;&gt;github.com/go&#45;i2p/crypto/aes.pkcs7Unpad</title>
<g id="a_edge28"><a xlink:title="at aes_decrypter.go:35: calling [github.com/go&#45;i2p/crypto/aes.pkcs7Unpad]">
<path fill="none" stroke="#000000" d="M140.7327,-179.924C183.1595,-193.2837 255.5679,-216.0841 306.2345,-232.0383"/>
<polygon fill="#000000" stroke="#000000" points="305.4731,-235.4679 316.0627,-235.133 307.5756,-228.7911 305.4731,-235.4679"/>
</a>
</g>
</g>
<!-- (*github.com/go&#45;i2p/crypto/aes.AESSymmetricDecrypter).Decrypt&#45;&gt;(*github.com/go&#45;i2p/logger.Logger).WithField -->
<g id="edge21" class="edge">
<title>(*github.com/go&#45;i2p/crypto/aes.AESSymmetricDecrypter).Decrypt&#45;&gt;(*github.com/go&#45;i2p/logger.Logger).WithField</title>
<g id="a_edge21"><a xlink:title="at aes_decrypter.go:18: calling [(*github.com/go&#45;i2p/logger.Logger).WithField]&#10;at aes_decrypter.go:41: calling [(*github.com/go&#45;i2p/logger.Logger).WithField]">
<path fill="none" stroke="#8b4513" d="M123.7662,-187.2414C149.6119,-213.261 199.8323,-261.6764 248.0814,-296 262.9959,-306.6099 266.8699,-309.773 284.0814,-316 351.4547,-340.3753 389.6826,-297.5577 442.4714,-346 484.9784,-385.0071 446.5639,-422.2853 477.4714,-471 488.8269,-488.898 507.4191,-502.5794 525.346,-512.4777"/>
<polygon fill="#8b4513" stroke="#8b4513" points="524.1328,-515.7922 534.6181,-517.3113 527.3686,-509.585 524.1328,-515.7922"/>
</a>
</g>
</g>
<!-- (*github.com/go&#45;i2p/crypto/aes.AESSymmetricDecrypter).Decrypt&#45;&gt;(*github.com/go&#45;i2p/logger.Logger).Error -->
<g id="edge22" class="edge">
<title>(*github.com/go&#45;i2p/crypto/aes.AESSymmetricDecrypter).Decrypt&#45;&gt;(*github.com/go&#45;i2p/logger.Logger).Error</title>
<g id="a_edge22"><a xlink:title="at aes_decrypter.go:22: calling [(*github.com/go&#45;i2p/logger.Logger).Error]&#10;at aes_decrypter.go:27: calling [(*github.com/go&#45;i2p/logger.Logger).Error]&#10;at aes_decrypter.go:37: calling [(*github.com/go&#45;i2p/logger.Logger).Error]">
<path fill="none" stroke="#8b4513" d="M121.3812,-187.1803C145.3767,-214.2717 194.6106,-264.6515 248.0814,-289 327.6397,-325.2277 365.9618,-276.7122 442.4714,-319 496.5503,-348.8901 538.882,-409.8749 560.0996,-445.1557"/>
<polygon fill="#8b4513" stroke="#8b4513" points="557.1894,-447.1115 565.2753,-453.9577 563.2235,-443.5634 557.1894,-447.1115"/>
</a>
</g>
</g>
<!-- (*github.com/go&#45;i2p/logger.Logger).WithError -->
<g id="node16" class="node">
<title>(*github.com/go&#45;i2p/logger.Logger).WithError</title>
<g id="a_node16"><a xlink:title="(*github.com/go&#45;i2p/logger.Logger).WithError | defined in log.go:66">
<path fill="#ffe4b5" stroke="#000000" stroke-width="1.5" d="M603.5976,-612C603.5976,-612 546.5346,-612 546.5346,-612 540.5346,-612 534.5346,-606 534.5346,-600 534.5346,-600 534.5346,-588 534.5346,-588 534.5346,-582 540.5346,-576 546.5346,-576 546.5346,-576 603.5976,-576 603.5976,-576 609.5976,-576 615.5976,-582 615.5976,-588 615.5976,-588 615.5976,-600 615.5976,-600 615.5976,-606 609.5976,-612 603.5976,-612"/>
<text text-anchor="middle" x="575.0661" y="-598.2" font-family="Verdana" font-size="14.00" fill="#000000">logger</text>
<text text-anchor="middle" x="575.0661" y="-581.4" font-family="Verdana" font-size="14.00" fill="#000000">WithError</text>
</a>
</g>
</g>
<!-- (*github.com/go&#45;i2p/crypto/aes.AESSymmetricDecrypter).Decrypt&#45;&gt;(*github.com/go&#45;i2p/logger.Logger).WithError -->
<g id="edge16" class="edge">
<title>(*github.com/go&#45;i2p/crypto/aes.AESSymmetricDecrypter).Decrypt&#45;&gt;(*github.com/go&#45;i2p/logger.Logger).WithError</title>
<g id="a_edge16"><a xlink:title="at aes_decrypter.go:22: calling [(*github.com/go&#45;i2p/logger.Logger).WithError]&#10;at aes_decrypter.go:37: calling [(*github.com/go&#45;i2p/logger.Logger).WithError]">
<path fill="none" stroke="#8b4513" d="M118.7573,-187.1524C144.9891,-222.9857 208.9804,-302.4162 284.0814,-338 348.2025,-368.3814 388.4916,-311.9486 442.4714,-358 484.7362,-394.057 458.6804,-425.7189 477.4714,-478 491.5454,-517.1571 485.8452,-533.8023 514.4714,-564 517.78,-567.4902 521.5814,-570.6316 525.6333,-573.4465"/>
<polygon fill="#8b4513" stroke="#8b4513" points="523.8811,-576.4782 534.2244,-578.773 527.5697,-570.5289 523.8811,-576.4782"/>
</a>
</g>
</g>
<!-- (*github.com/go&#45;i2p/crypto/aes.AESSymmetricDecrypter).Decrypt&#45;&gt;(*github.com/sirupsen/logrus.Logger).Debug -->
<g id="edge9" class="edge">
<title>(*github.com/go&#45;i2p/crypto/aes.AESSymmetricDecrypter).Decrypt&#45;&gt;(*github.com/sirupsen/logrus.Logger).Debug</title>
<g id="a_edge9"><a xlink:title="at aes_decrypter.go:18: calling [(*github.com/sirupsen/logrus.Logger).Debug]&#10;at aes_decrypter.go:41: calling [(*github.com/sirupsen/logrus.Logger).Debug]">
<path fill="none" stroke="#8b4513" d="M140.6002,-162.1246C169.2562,-156.7916 211.1342,-149.8443 248.0814,-147 300.4122,-142.9714 438.7434,-164.7009 478.4714,-199 512.0202,-227.9642 482.8026,-260.9914 514.4714,-292 520.1503,-297.5605 527.3415,-301.729 534.7689,-304.8498"/>
<polygon fill="#8b4513" stroke="#8b4513" points="533.613,-308.1536 544.2072,-308.2685 535.997,-301.5721 533.613,-308.1536"/>
</a>
</g>
</g>
<!-- (*github.com/go&#45;i2p/crypto/aes.AESSymmetricEncrypter).Encrypt -->
<g id="node8" class="node">
<title>(*github.com/go&#45;i2p/crypto/aes.AESSymmetricEncrypter).Encrypt</title>
<g id="a_node8"><a xlink:title="(*github.com/go&#45;i2p/crypto/aes.AESSymmetricEncrypter).Encrypt | defined in aes_encrypter.go:17&#10;at aes_encrypter.go:18: calling [(*github.com/sirupsen/logrus.Logger).Debug]&#10;at aes_encrypter.go:31: calling [(*github.com/sirupsen/logrus.Logger).Debug]&#10;at aes_encrypter.go:22: calling [(*github.com/go&#45;i2p/logger.Logger).WithError]&#10;at aes_encrypter.go:22: calling [(*github.com/go&#45;i2p/logger.Logger).Error]&#10;at aes_encrypter.go:18: calling [(*github.com/go&#45;i2p/logger.Logger).WithField]&#10;at aes_encrypter.go:31: calling [(*github.com/go&#45;i2p/logger.Logger).WithField]&#10;at aes_encrypter.go:26: calling [github.com/go&#45;i2p/crypto/aes.pkcs7Pad]">
<path fill="#add8e6" stroke="#000000" stroke-width="1.5" d="M128.3598,-620C128.3598,-620 83.7216,-620 83.7216,-620 77.7216,-620 71.7216,-614 71.7216,-608 71.7216,-608 71.7216,-596 71.7216,-596 71.7216,-590 77.7216,-584 83.7216,-584 83.7216,-584 128.3598,-584 128.3598,-584 134.3598,-584 140.3598,-590 140.3598,-596 140.3598,-596 140.3598,-608 140.3598,-608 140.3598,-614 134.3598,-620 128.3598,-620"/>
<text text-anchor="middle" x="106.0407" y="-597.8" font-family="Verdana" font-size="14.00" fill="#000000">Encrypt</text>
</a>
</g>
</g>
<!-- (*github.com/go&#45;i2p/crypto/aes.AESSymmetricEncrypter).Encrypt&#45;&gt;github.com/go&#45;i2p/crypto/aes.pkcs7Pad -->
<g id="edge29" class="edge">
<title>(*github.com/go&#45;i2p/crypto/aes.AESSymmetricEncrypter).Encrypt&#45;&gt;github.com/go&#45;i2p/crypto/aes.pkcs7Pad</title>
<g id="a_edge29"><a xlink:title="at aes_encrypter.go:26: calling [github.com/go&#45;i2p/crypto/aes.pkcs7Pad]">
<path fill="none" stroke="#000000" d="M140.4657,-605.6133C185.1654,-610.3051 263.4649,-618.5236 314.3325,-623.8627"/>
<polygon fill="#000000" stroke="#000000" points="314.1246,-627.3601 324.4353,-624.9232 314.8554,-620.3983 314.1246,-627.3601"/>
</a>
</g>
</g>
<!-- (*github.com/go&#45;i2p/crypto/aes.AESSymmetricEncrypter).Encrypt&#45;&gt;(*github.com/go&#45;i2p/logger.Logger).WithField -->
<g id="edge5" class="edge">
<title>(*github.com/go&#45;i2p/crypto/aes.AESSymmetricEncrypter).Encrypt&#45;&gt;(*github.com/go&#45;i2p/logger.Logger).WithField</title>
<g id="a_edge5"><a xlink:title="at aes_encrypter.go:18: calling [(*github.com/go&#45;i2p/logger.Logger).WithField]&#10;at aes_encrypter.go:31: calling [(*github.com/go&#45;i2p/logger.Logger).WithField]">
<path fill="none" stroke="#8b4513" d="M127.8853,-620.296C154.3613,-641.1633 201.2688,-674.063 248.0814,-687 272.7554,-693.8189 457.9851,-702.3497 478.4714,-687 524.0554,-652.8453 478.1561,-607.8822 514.4714,-564 517.7769,-560.0058 521.7292,-556.4701 526.0095,-553.3531"/>
<polygon fill="#8b4513" stroke="#8b4513" points="528.036,-556.2114 534.5613,-547.8645 524.255,-550.3203 528.036,-556.2114"/>
</a>
</g>
</g>
<!-- (*github.com/go&#45;i2p/crypto/aes.AESSymmetricEncrypter).Encrypt&#45;&gt;(*github.com/go&#45;i2p/logger.Logger).Error -->
<g id="edge4" class="edge">
<title>(*github.com/go&#45;i2p/crypto/aes.AESSymmetricEncrypter).Encrypt&#45;&gt;(*github.com/go&#45;i2p/logger.Logger).Error</title>
<g id="a_edge4"><a xlink:title="at aes_encrypter.go:22: calling [(*github.com/go&#45;i2p/logger.Logger).Error]">
<path fill="none" stroke="#8b4513" d="M140.449,-597.5705C169.1939,-593.9449 211.2728,-588.8112 248.0814,-585 291.2135,-580.534 405.8473,-591.2162 442.4714,-568 468.546,-551.4712 453.8205,-527.8424 477.4714,-508 493.89,-494.2253 516.0586,-485.4855 535.1181,-480.0725"/>
<polygon fill="#8b4513" stroke="#8b4513" points="536.2586,-483.3918 545.0417,-477.4665 534.4806,-476.6213 536.2586,-483.3918"/>
</a>
</g>
</g>
<!-- (*github.com/go&#45;i2p/crypto/aes.AESSymmetricEncrypter).Encrypt&#45;&gt;(*github.com/go&#45;i2p/logger.Logger).WithError -->
<g id="edge3" class="edge">
<title>(*github.com/go&#45;i2p/crypto/aes.AESSymmetricEncrypter).Encrypt&#45;&gt;(*github.com/go&#45;i2p/logger.Logger).WithError</title>
<g id="a_edge3"><a xlink:title="at aes_encrypter.go:22: calling [(*github.com/go&#45;i2p/logger.Logger).WithError]">
<path fill="none" stroke="#8b4513" d="M124.7065,-620.3558C150.1094,-643.9125 198.1515,-683.5779 248.0814,-699 345.9163,-729.2188 391.6624,-753.3051 478.4714,-699 509.4784,-679.603 488.8707,-651.1206 514.4714,-625 517.86,-621.5426 521.7159,-618.3978 525.8028,-615.5542"/>
<polygon fill="#8b4513" stroke="#8b4513" points="527.8285,-618.4152 534.4403,-610.1365 524.109,-612.4851 527.8285,-618.4152"/>
</a>
</g>
</g>
<!-- (*github.com/go&#45;i2p/crypto/aes.AESSymmetricEncrypter).Encrypt&#45;&gt;(*github.com/sirupsen/logrus.Logger).Debug -->
<g id="edge2" class="edge">
<title>(*github.com/go&#45;i2p/crypto/aes.AESSymmetricEncrypter).Encrypt&#45;&gt;(*github.com/sirupsen/logrus.Logger).Debug</title>
<g id="a_edge2"><a xlink:title="at aes_encrypter.go:18: calling [(*github.com/sirupsen/logrus.Logger).Debug]&#10;at aes_encrypter.go:31: calling [(*github.com/sirupsen/logrus.Logger).Debug]">
<path fill="none" stroke="#8b4513" d="M140.4695,-600.1668C161.9768,-597.1802 188.6189,-589.8116 205.0814,-572 316.5601,-451.3861 156.1324,-313.977 284.0814,-211 300.9076,-197.4578 460.3609,-199.2305 478.4714,-211 511.5042,-232.4671 485.6575,-265.1344 514.4714,-292 520.0991,-297.2471 527.0743,-301.2627 534.2673,-304.3297"/>
<polygon fill="#8b4513" stroke="#8b4513" points="533.5115,-307.781 544.105,-307.9506 535.9295,-301.2118 533.5115,-307.781"/>
</a>
</g>
</g>
<!-- (*github.com/go&#45;i2p/crypto/aes.AESSymmetricEncrypter).EncryptNoPadding -->
<g id="node9" class="node">
<title>(*github.com/go&#45;i2p/crypto/aes.AESSymmetricEncrypter).EncryptNoPadding</title>
<g id="a_node9"><a xlink:title="(*github.com/go&#45;i2p/crypto/aes.AESSymmetricEncrypter).EncryptNoPadding | defined in aes_encrypter.go:36&#10;at aes_encrypter.go:38: calling [github.com/samber/oops.Errorf]">
<path fill="#add8e6" stroke="#000000" stroke-width="1.5" d="M159.8539,-559C159.8539,-559 52.2275,-559 52.2275,-559 46.2275,-559 40.2275,-553 40.2275,-547 40.2275,-547 40.2275,-535 40.2275,-535 40.2275,-529 46.2275,-523 52.2275,-523 52.2275,-523 159.8539,-523 159.8539,-523 165.8539,-523 171.8539,-529 171.8539,-535 171.8539,-535 171.8539,-547 171.8539,-547 171.8539,-553 165.8539,-559 159.8539,-559"/>
<text text-anchor="middle" x="106.0407" y="-536.8" font-family="Verdana" font-size="14.00" fill="#000000">EncryptNoPadding</text>
</a>
</g>
</g>
<!-- (*github.com/go&#45;i2p/crypto/aes.AESSymmetricEncrypter).EncryptNoPadding&#45;&gt;github.com/samber/oops.Errorf -->
<g id="edge25" class="edge">
<title>(*github.com/go&#45;i2p/crypto/aes.AESSymmetricEncrypter).EncryptNoPadding&#45;&gt;github.com/samber/oops.Errorf</title>
<g id="a_edge25"><a xlink:title="at aes_encrypter.go:38: calling [github.com/samber/oops.Errorf]">
<path fill="none" stroke="#8b4513" d="M109.4085,-522.9891C121.323,-464.7084 167.2202,-280.1095 284.0814,-195 325.1088,-165.1199 466.3788,-125.9552 535.8557,-107.9007"/>
<polygon fill="#8b4513" stroke="#8b4513" points="536.7576,-111.2827 545.565,-105.3937 535.0075,-104.505 536.7576,-111.2827"/>
</a>
</g>
</g>
<!-- (*github.com/go&#45;i2p/crypto/aes.AESSymmetricKey).NewEncrypter -->
<g id="node10" class="node">
<title>(*github.com/go&#45;i2p/crypto/aes.AESSymmetricKey).NewEncrypter</title>
<g id="a_node10"><a xlink:title="(*github.com/go&#45;i2p/crypto/aes.AESSymmetricKey).NewEncrypter | defined in aes_key.go:12&#10;at aes_key.go:13: calling [(*github.com/sirupsen/logrus.Logger).Debug]&#10;at aes_key.go:18: calling [(*github.com/go&#45;i2p/logger.Logger).Error]&#10;at aes_key.go:24: calling [(*github.com/go&#45;i2p/logger.Logger).Error]&#10;at aes_key.go:18: calling [(*github.com/go&#45;i2p/logger.Logger).WithField]&#10;at aes_key.go:24: calling [(*github.com/go&#45;i2p/logger.Logger).WithField]">
<path fill="#add8e6" stroke="#000000" stroke-width="1.5" d="M403.8985,-554C403.8985,-554 322.6543,-554 322.6543,-554 316.6543,-554 310.6543,-548 310.6543,-542 310.6543,-542 310.6543,-530 310.6543,-530 310.6543,-524 316.6543,-518 322.6543,-518 322.6543,-518 403.8985,-518 403.8985,-518 409.8985,-518 415.8985,-524 415.8985,-530 415.8985,-530 415.8985,-542 415.8985,-542 415.8985,-548 409.8985,-554 403.8985,-554"/>
<text text-anchor="middle" x="363.2764" y="-531.8" font-family="Verdana" font-size="14.00" fill="#000000">NewEncrypter</text>
</a>
</g>
</g>
<!-- (*github.com/go&#45;i2p/crypto/aes.AESSymmetricKey).NewEncrypter&#45;&gt;(*github.com/go&#45;i2p/logger.Logger).WithField -->
<g id="edge26" class="edge">
<title>(*github.com/go&#45;i2p/crypto/aes.AESSymmetricKey).NewEncrypter&#45;&gt;(*github.com/go&#45;i2p/logger.Logger).WithField</title>
<g id="a_edge26"><a xlink:title="at aes_key.go:18: calling [(*github.com/go&#45;i2p/logger.Logger).WithField]&#10;at aes_key.go:24: calling [(*github.com/go&#45;i2p/logger.Logger).WithField]">
<path fill="none" stroke="#8b4513" d="M415.9938,-550.7639C443.1658,-558.0185 471.9646,-565.0185 478.4714,-564 493.7403,-561.6099 509.8909,-557.216 524.5248,-552.4729"/>
<polygon fill="#8b4513" stroke="#8b4513" points="526.0235,-555.6614 534.3842,-549.1537 523.7901,-549.0273 526.0235,-555.6614"/>
</a>
</g>
</g>
<!-- (*github.com/go&#45;i2p/crypto/aes.AESSymmetricKey).NewEncrypter&#45;&gt;(*github.com/go&#45;i2p/logger.Logger).Error -->
<g id="edge20" class="edge">
<title>(*github.com/go&#45;i2p/crypto/aes.AESSymmetricKey).NewEncrypter&#45;&gt;(*github.com/go&#45;i2p/logger.Logger).Error</title>
<g id="a_edge20"><a xlink:title="at aes_key.go:18: calling [(*github.com/go&#45;i2p/logger.Logger).Error]&#10;at aes_key.go:24: calling [(*github.com/go&#45;i2p/logger.Logger).Error]">
<path fill="none" stroke="#8b4513" d="M411.563,-517.9348C431.7835,-510.6711 455.6246,-502.4962 477.4714,-496 496.2056,-490.4293 517.2305,-485.1387 534.9547,-480.9495"/>
<polygon fill="#8b4513" stroke="#8b4513" points="536.0219,-484.2946 544.9667,-478.6165 534.4333,-477.4773 536.0219,-484.2946"/>
</a>
</g>
</g>
<!-- (*github.com/go&#45;i2p/crypto/aes.AESSymmetricKey).NewEncrypter&#45;&gt;(*github.com/sirupsen/logrus.Logger).Debug -->
<g id="edge8" class="edge">
<title>(*github.com/go&#45;i2p/crypto/aes.AESSymmetricKey).NewEncrypter&#45;&gt;(*github.com/sirupsen/logrus.Logger).Debug</title>
<g id="a_edge8"><a xlink:title="at aes_key.go:13: calling [(*github.com/sirupsen/logrus.Logger).Debug]">
<path fill="none" stroke="#8b4513" d="M415.9405,-521.1974C425.3217,-517.1691 434.5994,-512.1634 442.4714,-506 472.8226,-482.2365 531.3264,-387.695 559.3512,-340.7425"/>
<polygon fill="#8b4513" stroke="#8b4513" points="562.4337,-342.4065 564.5325,-332.0216 556.4157,-338.8311 562.4337,-342.4065"/>
</a>
</g>
</g>
<!-- (*github.com/go&#45;i2p/crypto/aes.AESSymmetricKey).NewDecrypter -->
<g id="node11" class="node">
<title>(*github.com/go&#45;i2p/crypto/aes.AESSymmetricKey).NewDecrypter</title>
<g id="a_node11"><a xlink:title="(*github.com/go&#45;i2p/crypto/aes.AESSymmetricKey).NewDecrypter | defined in aes_key.go:40&#10;at aes_key.go:46: calling [(*github.com/go&#45;i2p/logger.Logger).WithField]&#10;at aes_key.go:52: calling [(*github.com/go&#45;i2p/logger.Logger).WithField]&#10;at aes_key.go:46: calling [(*github.com/go&#45;i2p/logger.Logger).Error]&#10;at aes_key.go:52: calling [(*github.com/go&#45;i2p/logger.Logger).Error]&#10;at aes_key.go:41: calling [(*github.com/sirupsen/logrus.Logger).Debug]">
<path fill="#add8e6" stroke="#000000" stroke-width="1.5" d="M404.6671,-493C404.6671,-493 321.8857,-493 321.8857,-493 315.8857,-493 309.8857,-487 309.8857,-481 309.8857,-481 309.8857,-469 309.8857,-469 309.8857,-463 315.8857,-457 321.8857,-457 321.8857,-457 404.6671,-457 404.6671,-457 410.6671,-457 416.6671,-463 416.6671,-469 416.6671,-469 416.6671,-481 416.6671,-481 416.6671,-487 410.6671,-493 404.6671,-493"/>
<text text-anchor="middle" x="363.2764" y="-470.8" font-family="Verdana" font-size="14.00" fill="#000000">NewDecrypter</text>
</a>
</g>
</g>
<!-- (*github.com/go&#45;i2p/crypto/aes.AESSymmetricKey).NewDecrypter&#45;&gt;(*github.com/go&#45;i2p/logger.Logger).WithField -->
<g id="edge10" class="edge">
<title>(*github.com/go&#45;i2p/crypto/aes.AESSymmetricKey).NewDecrypter&#45;&gt;(*github.com/go&#45;i2p/logger.Logger).WithField</title>
<g id="a_edge10"><a xlink:title="at aes_key.go:46: calling [(*github.com/go&#45;i2p/logger.Logger).WithField]&#10;at aes_key.go:52: calling [(*github.com/go&#45;i2p/logger.Logger).WithField]">
<path fill="none" stroke="#8b4513" d="M416.7199,-489.6358C449.9246,-498.7292 492.3344,-510.3434 524.9056,-519.2632"/>
<polygon fill="#8b4513" stroke="#8b4513" points="524.1076,-522.6735 534.6769,-521.9392 525.9565,-515.9221 524.1076,-522.6735"/>
</a>
</g>
</g>
<!-- (*github.com/go&#45;i2p/crypto/aes.AESSymmetricKey).NewDecrypter&#45;&gt;(*github.com/go&#45;i2p/logger.Logger).Error -->
<g id="edge18" class="edge">
<title>(*github.com/go&#45;i2p/crypto/aes.AESSymmetricKey).NewDecrypter&#45;&gt;(*github.com/go&#45;i2p/logger.Logger).Error</title>
<g id="a_edge18"><a xlink:title="at aes_key.go:46: calling [(*github.com/go&#45;i2p/logger.Logger).Error]&#10;at aes_key.go:52: calling [(*github.com/go&#45;i2p/logger.Logger).Error]">
<path fill="none" stroke="#8b4513" d="M411.3002,-456.8997C436.7337,-448.1886 465.3592,-440.0107 478.4714,-442 497.6286,-444.9064 518.2172,-450.8809 535.4441,-456.7387"/>
<polygon fill="#8b4513" stroke="#8b4513" points="534.5675,-460.1403 545.1623,-460.1501 536.886,-453.5354 534.5675,-460.1403"/>
</a>
</g>
</g>
<!-- (*github.com/go&#45;i2p/crypto/aes.AESSymmetricKey).NewDecrypter&#45;&gt;(*github.com/sirupsen/logrus.Logger).Debug -->
<g id="edge23" class="edge">
<title>(*github.com/go&#45;i2p/crypto/aes.AESSymmetricKey).NewDecrypter&#45;&gt;(*github.com/sirupsen/logrus.Logger).Debug</title>
<g id="a_edge23"><a xlink:title="at aes_key.go:41: calling [(*github.com/sirupsen/logrus.Logger).Debug]">
<path fill="none" stroke="#8b4513" d="M416.7351,-458.2659C425.6443,-454.5003 434.5531,-450.0835 442.4714,-445 487.8271,-415.8818 530.2923,-369.2003 554.4289,-340.1354"/>
<polygon fill="#8b4513" stroke="#8b4513" points="557.3996,-342.0319 561.026,-332.077 551.9831,-337.5977 557.3996,-342.0319"/>
</a>
</g>
</g>
<!-- (*github.com/go&#45;i2p/crypto/aes.AESSymmetricKey).Zero -->
<g id="node12" class="node">
<title>(*github.com/go&#45;i2p/crypto/aes.AESSymmetricKey).Zero</title>
<g id="a_node12"><a xlink:title="(*github.com/go&#45;i2p/crypto/aes.AESSymmetricKey).Zero | defined in aes_key.go:64&#10;at aes_key.go:65: calling [(*github.com/sirupsen/logrus.Logger).Debug]&#10;at aes_key.go:77: calling [(*github.com/sirupsen/logrus.Logger).Debug]">
<path fill="#add8e6" stroke="#000000" stroke-width="1.5" d="M378.2764,-432C378.2764,-432 348.2764,-432 348.2764,-432 342.2764,-432 336.2764,-426 336.2764,-420 336.2764,-420 336.2764,-408 336.2764,-408 336.2764,-402 342.2764,-396 348.2764,-396 348.2764,-396 378.2764,-396 378.2764,-396 384.2764,-396 390.2764,-402 390.2764,-408 390.2764,-408 390.2764,-420 390.2764,-420 390.2764,-426 384.2764,-432 378.2764,-432"/>
<text text-anchor="middle" x="363.2764" y="-409.8" font-family="Verdana" font-size="14.00" fill="#000000">Zero</text>
</a>
</g>
</g>
<!-- (*github.com/go&#45;i2p/crypto/aes.AESSymmetricKey).Zero&#45;&gt;(*github.com/sirupsen/logrus.Logger).Debug -->
<g id="edge6" class="edge">
<title>(*github.com/go&#45;i2p/crypto/aes.AESSymmetricKey).Zero&#45;&gt;(*github.com/sirupsen/logrus.Logger).Debug</title>
<g id="a_edge6"><a xlink:title="at aes_key.go:65: calling [(*github.com/sirupsen/logrus.Logger).Debug]&#10;at aes_key.go:77: calling [(*github.com/sirupsen/logrus.Logger).Debug]">
<path fill="none" stroke="#8b4513" d="M390.4592,-411.5327C406.8828,-408.8836 427.4695,-403.3904 442.4714,-392 466.4504,-373.7936 452.8801,-351.3706 477.4714,-334 493.9202,-322.3811 515.5959,-317.194 534.3409,-314.9916"/>
<polygon fill="#8b4513" stroke="#8b4513" points="534.7697,-318.4669 544.4014,-314.0533 534.1196,-311.4972 534.7697,-318.4669"/>
</a>
</g>
</g>
</g>
</svg>
