<?xml version="1.0" encoding="UTF-8" standalone="no"?>
<!DOCTYPE svg PUBLIC "-//W3C//DTD SVG 1.1//EN"
 "http://www.w3.org/Graphics/SVG/1.1/DTD/svg11.dtd">
<!-- Generated by graphviz version 2.40.1 (20161225.0304)
 -->
<!-- Title: gocallvis Pages: 1 -->
<svg width="652pt" height="766pt"
 viewBox="0.00 0.00 651.66 766.00" xmlns="http://www.w3.org/2000/svg" xmlns:xlink="http://www.w3.org/1999/xlink">
<g id="graph0" class="graph" transform="scale(1 1) rotate(0) translate(0 766)">
<title>gocallvis</title>
<polygon fill="#d3d3d3" stroke="transparent" points="0,0 0,-766 651.6608,-766 651.6608,0 0,0"/>
<g id="clust1" class="cluster">
<title>cluster_focus</title>
<polygon fill="#e6ecfa" stroke="#000000" stroke-width=".5" points="0,-8 0,-758 643.6608,-758 643.6608,-8 0,-8"/>
<text text-anchor="middle" x="321.8304" y="-737.8" font-family="Arial" font-size="18.00" fill="#000000">aes</text>
</g>
<g id="clust6" class="cluster">
<title>cluster_*github.com/sirupsen/logrus.Logger</title>
<g id="a_clust6"><a xlink:title="type: *github.com/sirupsen/logrus.Logger">
<path fill="#eed8ae" stroke="#000000" stroke-width=".5" d="M548.4055,-208C548.4055,-208 602.7267,-208 602.7267,-208 608.7267,-208 614.7267,-214 614.7267,-220 614.7267,-220 614.7267,-274 614.7267,-274 614.7267,-280 608.7267,-286 602.7267,-286 602.7267,-286 548.4055,-286 548.4055,-286 542.4055,-286 536.4055,-280 536.4055,-274 536.4055,-274 536.4055,-220 536.4055,-220 536.4055,-214 542.4055,-208 548.4055,-208"/>
<text text-anchor="middle" x="575.5661" y="-216.5" font-family="Arial" font-size="15.00" fill="#222222">(*Logger)</text>
</a>
</g>
</g>
<g id="clust5" class="cluster">
<title>cluster_*github.com/go&#45;i2p/logger.Logger</title>
<g id="a_clust5"><a xlink:title="type: *github.com/go&#45;i2p/logger.Logger">
<path fill="#eed8ae" stroke="#000000" stroke-width=".5" d="M535.9567,-339C535.9567,-339 614.1755,-339 614.1755,-339 620.1755,-339 626.1755,-345 626.1755,-351 626.1755,-351 626.1755,-588 626.1755,-588 626.1755,-594 620.1755,-600 614.1755,-600 614.1755,-600 535.9567,-600 535.9567,-600 529.9567,-600 523.9567,-594 523.9567,-588 523.9567,-588 523.9567,-351 523.9567,-351 523.9567,-345 529.9567,-339 535.9567,-339"/>
<text text-anchor="middle" x="575.0661" y="-347.5" font-family="Arial" font-size="15.00" fill="#222222">(*Logger)</text>
</a>
</g>
</g>
<g id="clust4" class="cluster">
<title>cluster_*github.com/go&#45;i2p/crypto/aes.AESSymmetricKey</title>
<g id="a_clust4"><a xlink:title="type: *github.com/go&#45;i2p/crypto/aes.AESSymmetricKey">
<path fill="#b0c4de" stroke="#000000" stroke-width=".5" d="M296.0814,-474C296.0814,-474 430.4714,-474 430.4714,-474 436.4714,-474 442.4714,-480 442.4714,-486 442.4714,-486 442.4714,-662 442.4714,-662 442.4714,-668 436.4714,-674 430.4714,-674 430.4714,-674 296.0814,-674 296.0814,-674 290.0814,-674 284.0814,-668 284.0814,-662 284.0814,-662 284.0814,-486 284.0814,-486 284.0814,-480 290.0814,-474 296.0814,-474"/>
<text text-anchor="middle" x="363.2764" y="-482.5" font-family="Arial" font-size="15.00" fill="#222222">(*AESSymmetricKey)</text>
</a>
</g>
</g>
<g id="clust3" class="cluster">
<title>cluster_*github.com/go&#45;i2p/crypto/aes.AESSymmetricEncrypter</title>
<g id="a_clust3"><a xlink:title="type: *github.com/go&#45;i2p/crypto/aes.AESSymmetricEncrypter">
<path fill="#b0c4de" stroke="#000000" stroke-width=".5" d="M20.3843,-335C20.3843,-335 192.6971,-335 192.6971,-335 198.6971,-335 204.6971,-341 204.6971,-347 204.6971,-347 204.6971,-462 204.6971,-462 204.6971,-468 198.6971,-474 192.6971,-474 192.6971,-474 20.3843,-474 20.3843,-474 14.3843,-474 8.3843,-468 8.3843,-462 8.3843,-462 8.3843,-347 8.3843,-347 8.3843,-341 14.3843,-335 20.3843,-335"/>
<text text-anchor="middle" x="106.5407" y="-343.5" font-family="Arial" font-size="15.00" fill="#222222">(*AESSymmetricEncrypter)</text>
</a>
</g>
</g>
<g id="clust2" class="cluster">
<title>cluster_*github.com/go&#45;i2p/crypto/aes.AESSymmetricDecrypter</title>
<g id="a_clust2"><a xlink:title="type: *github.com/go&#45;i2p/crypto/aes.AESSymmetricDecrypter">
<path fill="#b0c4de" stroke="#000000" stroke-width=".5" d="M20,-144C20,-144 193.0814,-144 193.0814,-144 199.0814,-144 205.0814,-150 205.0814,-156 205.0814,-156 205.0814,-271 205.0814,-271 205.0814,-277 199.0814,-283 193.0814,-283 193.0814,-283 20,-283 20,-283 14,-283 8,-277 8,-271 8,-271 8,-156 8,-156 8,-150 14,-144 20,-144"/>
<text text-anchor="middle" x="106.5407" y="-152.5" font-family="Arial" font-size="15.00" fill="#222222">(*AESSymmetricDecrypter)</text>
</a>
</g>
</g>
<!-- github.com/go&#45;i2p/crypto/aes.pkcs7Unpad -->
<g id="node1" class="node">
<title>github.com/go&#45;i2p/crypto/aes.pkcs7Unpad</title>
<g id="a_node1"><a xlink:title="github.com/go&#45;i2p/crypto/aes.pkcs7Unpad | defined in utils.go:29&#10;at utils.go:30: calling [(*github.com/sirupsen/logrus.Logger).Debug]&#10;at utils.go:51: calling [(*github.com/sirupsen/logrus.Logger).Debug]&#10;at utils.go:30: calling [(*github.com/go&#45;i2p/logger.Logger).WithField]&#10;at utils.go:39: calling [(*github.com/go&#45;i2p/logger.Logger).WithField]&#10;at utils.go:51: calling [(*github.com/go&#45;i2p/logger.Logger).WithField]&#10;at utils.go:34: calling [(*github.com/go&#45;i2p/logger.Logger).Error]&#10;at utils.go:39: calling [(*github.com/go&#45;i2p/logger.Logger).Error]&#10;at utils.go:45: calling [(*github.com/go&#45;i2p/logger.Logger).Error]&#10;at utils.go:35: calling [github.com/samber/oops.Errorf]&#10;at utils.go:40: calling [github.com/samber/oops.Errorf]&#10;at utils.go:46: calling [github.com/samber/oops.Errorf]">
<path fill="#add8e6" stroke="#000000" stroke-width=".5" d="M398.2568,-275C398.2568,-275 328.296,-275 328.296,-275 322.296,-275 316.296,-269 316.296,-263 316.296,-263 316.296,-251 316.296,-251 316.296,-245 322.296,-239 328.296,-239 328.296,-239 398.2568,-239 398.2568,-239 404.2568,-239 410.2568,-245 410.2568,-251 410.2568,-251 410.2568,-263 410.2568,-263 410.2568,-269 404.2568,-275 398.2568,-275"/>
<text text-anchor="middle" x="363.2764" y="-252.8" font-family="Verdana" font-size="14.00" fill="#000000">pkcs7Unpad</text>
</a>
</g>
</g>
<!-- github.com/samber/oops.Errorf -->
<g id="node2" class="node">
<title>github.com/samber/oops.Errorf</title>
<g id="a_node2"><a xlink:title="github.com/samber/oops.Errorf | defined in oops.go:34">
<path fill="#ffe4b5" stroke="#000000" stroke-width="1.5" d="M592.2614,-116C592.2614,-116 557.8708,-116 557.8708,-116 551.8708,-116 545.8708,-110 545.8708,-104 545.8708,-104 545.8708,-92 545.8708,-92 545.8708,-86 551.8708,-80 557.8708,-80 557.8708,-80 592.2614,-80 592.2614,-80 598.2614,-80 604.2614,-86 604.2614,-92 604.2614,-92 604.2614,-104 604.2614,-104 604.2614,-110 598.2614,-116 592.2614,-116"/>
<text text-anchor="middle" x="575.0661" y="-102.2" font-family="Verdana" font-size="14.00" fill="#000000">oops</text>
<text text-anchor="middle" x="575.0661" y="-85.4" font-family="Verdana" font-size="14.00" fill="#000000">Errorf</text>
</a>
</g>
</g>
<!-- github.com/go&#45;i2p/crypto/aes.pkcs7Unpad&#45;&gt;github.com/samber/oops.Errorf -->
<g id="edge20" class="edge">
<title>github.com/go&#45;i2p/crypto/aes.pkcs7Unpad&#45;&gt;github.com/samber/oops.Errorf</title>
<g id="a_edge20"><a xlink:title="at utils.go:35: calling [github.com/samber/oops.Errorf]&#10;at utils.go:40: calling [github.com/samber/oops.Errorf]&#10;at utils.go:46: calling [github.com/samber/oops.Errorf]">
<path fill="none" stroke="#8b4513" d="M387.5714,-238.7607C425.8715,-210.007 500.3067,-154.1253 542.9663,-122.0987"/>
<polygon fill="#8b4513" stroke="#8b4513" points="545.1587,-124.8295 551.0545,-116.0266 540.956,-119.2314 545.1587,-124.8295"/>
</a>
</g>
</g>
<!-- (*github.com/go&#45;i2p/logger.Logger).WithField -->
<g id="node13" class="node">
<title>(*github.com/go&#45;i2p/logger.Logger).WithField</title>
<g id="a_node13"><a xlink:title="(*github.com/go&#45;i2p/logger.Logger).WithField | defined in log.go:54">
<path fill="#ffe4b5" stroke="#000000" stroke-width="1.5" d="M603.3406,-531C603.3406,-531 546.7916,-531 546.7916,-531 540.7916,-531 534.7916,-525 534.7916,-519 534.7916,-519 534.7916,-507 534.7916,-507 534.7916,-501 540.7916,-495 546.7916,-495 546.7916,-495 603.3406,-495 603.3406,-495 609.3406,-495 615.3406,-501 615.3406,-507 615.3406,-507 615.3406,-519 615.3406,-519 615.3406,-525 609.3406,-531 603.3406,-531"/>
<text text-anchor="middle" x="575.0661" y="-517.2" font-family="Verdana" font-size="14.00" fill="#000000">logger</text>
<text text-anchor="middle" x="575.0661" y="-500.4" font-family="Verdana" font-size="14.00" fill="#000000">WithField</text>
</a>
</g>
</g>
<!-- github.com/go&#45;i2p/crypto/aes.pkcs7Unpad&#45;&gt;(*github.com/go&#45;i2p/logger.Logger).WithField -->
<g id="edge18" class="edge">
<title>github.com/go&#45;i2p/crypto/aes.pkcs7Unpad&#45;&gt;(*github.com/go&#45;i2p/logger.Logger).WithField</title>
<g id="a_edge18"><a xlink:title="at utils.go:30: calling [(*github.com/go&#45;i2p/logger.Logger).WithField]&#10;at utils.go:39: calling [(*github.com/go&#45;i2p/logger.Logger).WithField]&#10;at utils.go:51: calling [(*github.com/go&#45;i2p/logger.Logger).WithField]">
<path fill="none" stroke="#8b4513" d="M377.5432,-275.1818C393.8251,-296.1764 420.9779,-331.9432 442.4714,-364 476.8963,-415.3435 468.9556,-441.1724 514.4714,-483 517.9611,-486.2069 521.8573,-489.1485 525.9449,-491.8287"/>
<polygon fill="#8b4513" stroke="#8b4513" points="524.1563,-494.8371 534.5354,-496.9642 527.7481,-488.8289 524.1563,-494.8371"/>
</a>
</g>
</g>
<!-- (*github.com/go&#45;i2p/logger.Logger).Error -->
<g id="node14" class="node">
<title>(*github.com/go&#45;i2p/logger.Logger).Error</title>
<g id="a_node14"><a xlink:title="(*github.com/go&#45;i2p/logger.Logger).Error | defined in log.go:42">
<path fill="#ffe4b5" stroke="#000000" stroke-width="1.5" d="M592.8324,-592C592.8324,-592 557.2998,-592 557.2998,-592 551.2998,-592 545.2998,-586 545.2998,-580 545.2998,-580 545.2998,-568 545.2998,-568 545.2998,-562 551.2998,-556 557.2998,-556 557.2998,-556 592.8324,-556 592.8324,-556 598.8324,-556 604.8324,-562 604.8324,-568 604.8324,-568 604.8324,-580 604.8324,-580 604.8324,-586 598.8324,-592 592.8324,-592"/>
<text text-anchor="middle" x="575.0661" y="-578.2" font-family="Verdana" font-size="14.00" fill="#000000">logger</text>
<text text-anchor="middle" x="575.0661" y="-561.4" font-family="Verdana" font-size="14.00" fill="#000000">Error</text>
</a>
</g>
</g>
<!-- github.com/go&#45;i2p/crypto/aes.pkcs7Unpad&#45;&gt;(*github.com/go&#45;i2p/logger.Logger).Error -->
<g id="edge19" class="edge">
<title>github.com/go&#45;i2p/crypto/aes.pkcs7Unpad&#45;&gt;(*github.com/go&#45;i2p/logger.Logger).Error</title>
<g id="a_edge19"><a xlink:title="at utils.go:34: calling [(*github.com/go&#45;i2p/logger.Logger).Error]&#10;at utils.go:39: calling [(*github.com/go&#45;i2p/logger.Logger).Error]&#10;at utils.go:45: calling [(*github.com/go&#45;i2p/logger.Logger).Error]">
<path fill="none" stroke="#8b4513" d="M379.1408,-275.3248C396.3651,-295.8742 423.8944,-330.6977 442.4714,-364 484.4463,-439.247 456.0053,-480.7093 514.4714,-544 520.4255,-550.4454 528.0687,-555.6846 535.9071,-559.8724"/>
<polygon fill="#8b4513" stroke="#8b4513" points="534.5816,-563.119 545.1087,-564.3149 537.625,-556.8152 534.5816,-563.119"/>
</a>
</g>
</g>
<!-- (*github.com/sirupsen/logrus.Logger).Debug -->
<g id="node17" class="node">
<title>(*github.com/sirupsen/logrus.Logger).Debug</title>
<g id="a_node17"><a xlink:title="(*github.com/sirupsen/logrus.Logger).Debug | defined in logger.go:221">
<path fill="#ffe4b5" stroke="#000000" stroke-width="1.5" d="M593.8881,-278C593.8881,-278 556.2441,-278 556.2441,-278 550.2441,-278 544.2441,-272 544.2441,-266 544.2441,-266 544.2441,-254 544.2441,-254 544.2441,-248 550.2441,-242 556.2441,-242 556.2441,-242 593.8881,-242 593.8881,-242 599.8881,-242 605.8881,-248 605.8881,-254 605.8881,-254 605.8881,-266 605.8881,-266 605.8881,-272 599.8881,-278 593.8881,-278"/>
<text text-anchor="middle" x="575.0661" y="-264.2" font-family="Verdana" font-size="14.00" fill="#000000">logrus</text>
<text text-anchor="middle" x="575.0661" y="-247.4" font-family="Verdana" font-size="14.00" fill="#000000">Debug</text>
</a>
</g>
</g>
<!-- github.com/go&#45;i2p/crypto/aes.pkcs7Unpad&#45;&gt;(*github.com/sirupsen/logrus.Logger).Debug -->
<g id="edge7" class="edge">
<title>github.com/go&#45;i2p/crypto/aes.pkcs7Unpad&#45;&gt;(*github.com/sirupsen/logrus.Logger).Debug</title>
<g id="a_edge7"><a xlink:title="at utils.go:30: calling [(*github.com/sirupsen/logrus.Logger).Debug]&#10;at utils.go:51: calling [(*github.com/sirupsen/logrus.Logger).Debug]">
<path fill="none" stroke="#8b4513" d="M410.3567,-253.8576C431.2248,-252.8538 456.0735,-252.1895 478.4714,-253 496.6999,-253.6596 516.8255,-255.0172 533.9668,-256.3628"/>
<polygon fill="#8b4513" stroke="#8b4513" points="533.9604,-259.8737 544.2105,-257.1927 534.5258,-252.8966 533.9604,-259.8737"/>
</a>
</g>
</g>
<!-- github.com/go&#45;i2p/crypto/aes.pkcs7Pad -->
<g id="node3" class="node">
<title>github.com/go&#45;i2p/crypto/aes.pkcs7Pad</title>
<g id="a_node3"><a xlink:title="github.com/go&#45;i2p/crypto/aes.pkcs7Pad | defined in utils.go:13&#10;at utils.go:14: calling [(*github.com/go&#45;i2p/logger.Logger).WithFields]&#10;at utils.go:17: calling [(*github.com/sirupsen/logrus.Logger).Debug]&#10;at utils.go:23: calling [(*github.com/sirupsen/logrus.Logger).Debug]&#10;at utils.go:23: calling [(*github.com/go&#45;i2p/logger.Logger).WithField]">
<path fill="#add8e6" stroke="#000000" stroke-width=".5" d="M389.9336,-412C389.9336,-412 336.6192,-412 336.6192,-412 330.6192,-412 324.6192,-406 324.6192,-400 324.6192,-400 324.6192,-388 324.6192,-388 324.6192,-382 330.6192,-376 336.6192,-376 336.6192,-376 389.9336,-376 389.9336,-376 395.9336,-376 401.9336,-382 401.9336,-388 401.9336,-388 401.9336,-400 401.9336,-400 401.9336,-406 395.9336,-412 389.9336,-412"/>
<text text-anchor="middle" x="363.2764" y="-389.8" font-family="Verdana" font-size="14.00" fill="#000000">pkcs7Pad</text>
</a>
</g>
</g>
<!-- github.com/go&#45;i2p/crypto/aes.pkcs7Pad&#45;&gt;(*github.com/go&#45;i2p/logger.Logger).WithField -->
<g id="edge25" class="edge">
<title>github.com/go&#45;i2p/crypto/aes.pkcs7Pad&#45;&gt;(*github.com/go&#45;i2p/logger.Logger).WithField</title>
<g id="a_edge25"><a xlink:title="at utils.go:23: calling [(*github.com/go&#45;i2p/logger.Logger).WithField]">
<path fill="none" stroke="#8b4513" d="M402.2903,-410.4585C415.3363,-416.4239 429.78,-423.5421 442.4714,-431 476.5036,-450.9984 480.6679,-462.6175 514.4714,-483 518.5301,-485.4473 522.8159,-487.8689 527.156,-490.2119"/>
<polygon fill="#8b4513" stroke="#8b4513" points="525.6042,-493.3502 536.0859,-494.8943 528.8549,-487.1507 525.6042,-493.3502"/>
</a>
</g>
</g>
<!-- (*github.com/go&#45;i2p/logger.Logger).WithFields -->
<g id="node16" class="node">
<title>(*github.com/go&#45;i2p/logger.Logger).WithFields</title>
<g id="a_node16"><a xlink:title="(*github.com/go&#45;i2p/logger.Logger).WithFields | defined in log.go:60">
<path fill="#ffe4b5" stroke="#000000" stroke-width="1.5" d="M606.2852,-470C606.2852,-470 543.847,-470 543.847,-470 537.847,-470 531.847,-464 531.847,-458 531.847,-458 531.847,-446 531.847,-446 531.847,-440 537.847,-434 543.847,-434 543.847,-434 606.2852,-434 606.2852,-434 612.2852,-434 618.2852,-440 618.2852,-446 618.2852,-446 618.2852,-458 618.2852,-458 618.2852,-464 612.2852,-470 606.2852,-470"/>
<text text-anchor="middle" x="575.0661" y="-456.2" font-family="Verdana" font-size="14.00" fill="#000000">logger</text>
<text text-anchor="middle" x="575.0661" y="-439.4" font-family="Verdana" font-size="14.00" fill="#000000">WithFields</text>
</a>
</g>
</g>
<!-- github.com/go&#45;i2p/crypto/aes.pkcs7Pad&#45;&gt;(*github.com/go&#45;i2p/logger.Logger).WithFields -->
<g id="edge3" class="edge">
<title>github.com/go&#45;i2p/crypto/aes.pkcs7Pad&#45;&gt;(*github.com/go&#45;i2p/logger.Logger).WithFields</title>
<g id="a_edge3"><a xlink:title="at utils.go:14: calling [(*github.com/go&#45;i2p/logger.Logger).WithFields]">
<path fill="none" stroke="#8b4513" d="M402.1219,-404.6381C435.7758,-413.8544 484.778,-427.274 522.0365,-437.4775"/>
<polygon fill="#8b4513" stroke="#8b4513" points="521.1549,-440.8649 531.7242,-440.1305 523.0038,-434.1135 521.1549,-440.8649"/>
</a>
</g>
</g>
<!-- github.com/go&#45;i2p/crypto/aes.pkcs7Pad&#45;&gt;(*github.com/sirupsen/logrus.Logger).Debug -->
<g id="edge22" class="edge">
<title>github.com/go&#45;i2p/crypto/aes.pkcs7Pad&#45;&gt;(*github.com/sirupsen/logrus.Logger).Debug</title>
<g id="a_edge22"><a xlink:title="at utils.go:17: calling [(*github.com/sirupsen/logrus.Logger).Debug]&#10;at utils.go:23: calling [(*github.com/sirupsen/logrus.Logger).Debug]">
<path fill="none" stroke="#8b4513" d="M376.0683,-375.7088C395.0727,-350.0205 433.3064,-303.7467 477.4714,-280 494.7427,-270.7135 515.8586,-265.7298 534.0259,-263.0591"/>
<polygon fill="#8b4513" stroke="#8b4513" points="534.5787,-266.5169 544.0505,-261.7697 533.6857,-259.5741 534.5787,-266.5169"/>
</a>
</g>
</g>
<!-- github.com/go&#45;i2p/crypto/aes.init -->
<g id="node4" class="node">
<title>github.com/go&#45;i2p/crypto/aes.init</title>
<g id="a_node4"><a xlink:title="github.com/go&#45;i2p/crypto/aes.init | defined in .:0&#10;at constants.go:15: calling [github.com/samber/oops.Errorf]&#10;at constants.go:18: calling [github.com/samber/oops.Errorf]&#10;at constants.go:10: calling [github.com/go&#45;i2p/logger.GetGoI2PLogger]">
<path fill="#add8e6" stroke="#000000" stroke-width=".5" d="M378.2764,-52C378.2764,-52 348.2764,-52 348.2764,-52 342.2764,-52 336.2764,-46 336.2764,-40 336.2764,-40 336.2764,-28 336.2764,-28 336.2764,-22 342.2764,-16 348.2764,-16 348.2764,-16 378.2764,-16 378.2764,-16 384.2764,-16 390.2764,-22 390.2764,-28 390.2764,-28 390.2764,-40 390.2764,-40 390.2764,-46 384.2764,-52 378.2764,-52"/>
<text text-anchor="middle" x="363.2764" y="-29.8" font-family="Verdana" font-size="14.00" fill="#000000">init</text>
</a>
</g>
</g>
<!-- github.com/go&#45;i2p/crypto/aes.init&#45;&gt;github.com/samber/oops.Errorf -->
<g id="edge10" class="edge">
<title>github.com/go&#45;i2p/crypto/aes.init&#45;&gt;github.com/samber/oops.Errorf</title>
<g id="a_edge10"><a xlink:title="at constants.go:15: calling [github.com/samber/oops.Errorf]&#10;at constants.go:18: calling [github.com/samber/oops.Errorf]">
<path fill="none" stroke="#8b4513" d="M390.4552,-40.3974C413.9124,-46.0807 448.6281,-54.8792 478.4714,-64 497.5164,-69.8206 518.3887,-77.0571 535.8428,-83.356"/>
<polygon fill="#8b4513" stroke="#8b4513" points="535.0909,-86.8069 545.6849,-86.9385 537.4853,-80.2291 535.0909,-86.8069"/>
</a>
</g>
</g>
<!-- github.com/go&#45;i2p/logger.GetGoI2PLogger -->
<g id="node5" class="node">
<title>github.com/go&#45;i2p/logger.GetGoI2PLogger</title>
<g id="a_node5"><a xlink:title="github.com/go&#45;i2p/logger.GetGoI2PLogger | defined in log.go:120">
<path fill="#ffe4b5" stroke="#000000" stroke-width="1.5" d="M623.7556,-52C623.7556,-52 526.3766,-52 526.3766,-52 520.3766,-52 514.3766,-46 514.3766,-40 514.3766,-40 514.3766,-28 514.3766,-28 514.3766,-22 520.3766,-16 526.3766,-16 526.3766,-16 623.7556,-16 623.7556,-16 629.7556,-16 635.7556,-22 635.7556,-28 635.7556,-28 635.7556,-40 635.7556,-40 635.7556,-46 629.7556,-52 623.7556,-52"/>
<text text-anchor="middle" x="575.0661" y="-38.2" font-family="Verdana" font-size="14.00" fill="#000000">logger</text>
<text text-anchor="middle" x="575.0661" y="-21.4" font-family="Verdana" font-size="14.00" fill="#000000">GetGoI2PLogger</text>
</a>
</g>
</g>
<!-- github.com/go&#45;i2p/crypto/aes.init&#45;&gt;github.com/go&#45;i2p/logger.GetGoI2PLogger -->
<g id="edge14" class="edge">
<title>github.com/go&#45;i2p/crypto/aes.init&#45;&gt;github.com/go&#45;i2p/logger.GetGoI2PLogger</title>
<g id="a_edge14"><a xlink:title="at constants.go:10: calling [github.com/go&#45;i2p/logger.GetGoI2PLogger]">
<path fill="none" stroke="#8b4513" d="M390.5306,-34C419.0412,-34 464.9752,-34 503.8809,-34"/>
<polygon fill="#8b4513" stroke="#8b4513" points="504.1252,-37.5001 514.1252,-34 504.1251,-30.5001 504.1252,-37.5001"/>
</a>
</g>
</g>
<!-- (*github.com/go&#45;i2p/crypto/aes.AESSymmetricDecrypter).Decrypt -->
<g id="node6" class="node">
<title>(*github.com/go&#45;i2p/crypto/aes.AESSymmetricDecrypter).Decrypt</title>
<g id="a_node6"><a xlink:title="(*github.com/go&#45;i2p/crypto/aes.AESSymmetricDecrypter).Decrypt | defined in aes_decrypter.go:17&#10;at aes_decrypter.go:18: calling [(*github.com/go&#45;i2p/logger.Logger).WithField]&#10;at aes_decrypter.go:41: calling [(*github.com/go&#45;i2p/logger.Logger).WithField]&#10;at aes_decrypter.go:18: calling [(*github.com/sirupsen/logrus.Logger).Debug]&#10;at aes_decrypter.go:41: calling [(*github.com/sirupsen/logrus.Logger).Debug]&#10;at aes_decrypter.go:28: calling [github.com/samber/oops.Errorf]&#10;at aes_decrypter.go:35: calling [github.com/go&#45;i2p/crypto/aes.pkcs7Unpad]&#10;at aes_decrypter.go:22: calling [(*github.com/go&#45;i2p/logger.Logger).WithError]&#10;at aes_decrypter.go:37: calling [(*github.com/go&#45;i2p/logger.Logger).WithError]&#10;at aes_decrypter.go:22: calling [(*github.com/go&#45;i2p/logger.Logger).Error]&#10;at aes_decrypter.go:27: calling [(*github.com/go&#45;i2p/logger.Logger).Error]&#10;at aes_decrypter.go:37: calling [(*github.com/go&#45;i2p/logger.Logger).Error]">
<path fill="#add8e6" stroke="#000000" stroke-width="1.5" d="M128.6278,-275C128.6278,-275 83.4536,-275 83.4536,-275 77.4536,-275 71.4536,-269 71.4536,-263 71.4536,-263 71.4536,-251 71.4536,-251 71.4536,-245 77.4536,-239 83.4536,-239 83.4536,-239 128.6278,-239 128.6278,-239 134.6278,-239 140.6278,-245 140.6278,-251 140.6278,-251 140.6278,-263 140.6278,-263 140.6278,-269 134.6278,-275 128.6278,-275"/>
<text text-anchor="middle" x="106.0407" y="-252.8" font-family="Verdana" font-size="14.00" fill="#000000">Decrypt</text>
</a>
</g>
</g>
<!-- (*github.com/go&#45;i2p/crypto/aes.AESSymmetricDecrypter).Decrypt&#45;&gt;github.com/go&#45;i2p/crypto/aes.pkcs7Unpad -->
<g id="edge13" class="edge">
<title>(*github.com/go&#45;i2p/crypto/aes.AESSymmetricDecrypter).Decrypt&#45;&gt;github.com/go&#45;i2p/crypto/aes.pkcs7Unpad</title>
<g id="a_edge13"><a xlink:title="at aes_decrypter.go:35: calling [github.com/go&#45;i2p/crypto/aes.pkcs7Unpad]">
<path fill="none" stroke="#000000" d="M140.7327,-257C183.0711,-257 255.2663,-257 305.9176,-257"/>
<polygon fill="#000000" stroke="#000000" points="306.0627,-260.5001 316.0627,-257 306.0626,-253.5001 306.0627,-260.5001"/>
</a>
</g>
</g>
<!-- (*github.com/go&#45;i2p/crypto/aes.AESSymmetricDecrypter).Decrypt&#45;&gt;github.com/samber/oops.Errorf -->
<g id="edge4" class="edge">
<title>(*github.com/go&#45;i2p/crypto/aes.AESSymmetricDecrypter).Decrypt&#45;&gt;github.com/samber/oops.Errorf</title>
<g id="a_edge4"><a xlink:title="at aes_decrypter.go:28: calling [github.com/samber/oops.Errorf]">
<path fill="none" stroke="#8b4513" d="M140.7076,-253.0836C161.2437,-249.2686 186.7484,-241.7588 205.0814,-227 235.6138,-202.4202 215.9448,-172.4418 248.0814,-150 336.0271,-88.5852 469.5062,-89.0759 535.4038,-93.854"/>
<polygon fill="#8b4513" stroke="#8b4513" points="535.5145,-97.3739 545.7616,-94.6819 536.0723,-90.3961 535.5145,-97.3739"/>
</a>
</g>
</g>
<!-- (*github.com/go&#45;i2p/crypto/aes.AESSymmetricDecrypter).Decrypt&#45;&gt;(*github.com/go&#45;i2p/logger.Logger).WithField -->
<g id="edge1" class="edge">
<title>(*github.com/go&#45;i2p/crypto/aes.AESSymmetricDecrypter).Decrypt&#45;&gt;(*github.com/go&#45;i2p/logger.Logger).WithField</title>
<g id="a_edge1"><a xlink:title="at aes_decrypter.go:18: calling [(*github.com/go&#45;i2p/logger.Logger).WithField]&#10;at aes_decrypter.go:41: calling [(*github.com/go&#45;i2p/logger.Logger).WithField]">
<path fill="none" stroke="#8b4513" d="M135.5195,-275.1267C156.1902,-288.5969 183.817,-308.178 205.0814,-329 246.555,-369.6106 234.2612,-403.2136 284.0814,-433 345.2496,-469.5711 373.8797,-438.6564 442.4714,-458 451.0221,-460.4114 491.1856,-477.2006 525.0919,-491.6023"/>
<polygon fill="#8b4513" stroke="#8b4513" points="523.8857,-494.8927 534.4578,-495.5871 526.6262,-488.4515 523.8857,-494.8927"/>
</a>
</g>
</g>
<!-- (*github.com/go&#45;i2p/crypto/aes.AESSymmetricDecrypter).Decrypt&#45;&gt;(*github.com/go&#45;i2p/logger.Logger).Error -->
<g id="edge27" class="edge">
<title>(*github.com/go&#45;i2p/crypto/aes.AESSymmetricDecrypter).Decrypt&#45;&gt;(*github.com/go&#45;i2p/logger.Logger).Error</title>
<g id="a_edge27"><a xlink:title="at aes_decrypter.go:22: calling [(*github.com/go&#45;i2p/logger.Logger).Error]&#10;at aes_decrypter.go:27: calling [(*github.com/go&#45;i2p/logger.Logger).Error]&#10;at aes_decrypter.go:37: calling [(*github.com/go&#45;i2p/logger.Logger).Error]">
<path fill="none" stroke="#8b4513" d="M137.7775,-275.1229C158.6904,-288.1773 185.6915,-307.2696 205.0814,-329 248.3379,-377.4779 227.5427,-419.9905 284.0814,-452 345.7349,-486.9053 389.0221,-423.4951 442.4714,-470 489.5575,-510.9684 428.144,-567.7598 477.4714,-606 496.9541,-621.1036 523.8567,-610.5616 544.4831,-597.6684"/>
<polygon fill="#8b4513" stroke="#8b4513" points="546.5137,-600.5213 552.8989,-592.0667 542.635,-594.6941 546.5137,-600.5213"/>
</a>
</g>
</g>
<!-- (*github.com/go&#45;i2p/logger.Logger).WithError -->
<g id="node15" class="node">
<title>(*github.com/go&#45;i2p/logger.Logger).WithError</title>
<g id="a_node15"><a xlink:title="(*github.com/go&#45;i2p/logger.Logger).WithError | defined in log.go:66">
<path fill="#ffe4b5" stroke="#000000" stroke-width="1.5" d="M603.5976,-409C603.5976,-409 546.5346,-409 546.5346,-409 540.5346,-409 534.5346,-403 534.5346,-397 534.5346,-397 534.5346,-385 534.5346,-385 534.5346,-379 540.5346,-373 546.5346,-373 546.5346,-373 603.5976,-373 603.5976,-373 609.5976,-373 615.5976,-379 615.5976,-385 615.5976,-385 615.5976,-397 615.5976,-397 615.5976,-403 609.5976,-409 603.5976,-409"/>
<text text-anchor="middle" x="575.0661" y="-395.2" font-family="Verdana" font-size="14.00" fill="#000000">logger</text>
<text text-anchor="middle" x="575.0661" y="-378.4" font-family="Verdana" font-size="14.00" fill="#000000">WithError</text>
</a>
</g>
</g>
<!-- (*github.com/go&#45;i2p/crypto/aes.AESSymmetricDecrypter).Decrypt&#45;&gt;(*github.com/go&#45;i2p/logger.Logger).WithError -->
<g id="edge26" class="edge">
<title>(*github.com/go&#45;i2p/crypto/aes.AESSymmetricDecrypter).Decrypt&#45;&gt;(*github.com/go&#45;i2p/logger.Logger).WithError</title>
<g id="a_edge26"><a xlink:title="at aes_decrypter.go:22: calling [(*github.com/go&#45;i2p/logger.Logger).WithError]&#10;at aes_decrypter.go:37: calling [(*github.com/go&#45;i2p/logger.Logger).WithError]">
<path fill="none" stroke="#8b4513" d="M140.7736,-268.5469C176.3703,-279.9547 233.5133,-297.0926 284.0814,-307 353.6082,-320.6218 374.5308,-304.9101 442.4714,-325 476.2199,-334.9794 511.7813,-353.1525 537.5712,-367.906"/>
<polygon fill="#8b4513" stroke="#8b4513" points="535.8628,-370.9613 546.2669,-372.9628 539.3818,-364.9101 535.8628,-370.9613"/>
</a>
</g>
</g>
<!-- (*github.com/go&#45;i2p/crypto/aes.AESSymmetricDecrypter).Decrypt&#45;&gt;(*github.com/sirupsen/logrus.Logger).Debug -->
<g id="edge2" class="edge">
<title>(*github.com/go&#45;i2p/crypto/aes.AESSymmetricDecrypter).Decrypt&#45;&gt;(*github.com/sirupsen/logrus.Logger).Debug</title>
<g id="a_edge2"><a xlink:title="at aes_decrypter.go:18: calling [(*github.com/sirupsen/logrus.Logger).Debug]&#10;at aes_decrypter.go:41: calling [(*github.com/sirupsen/logrus.Logger).Debug]">
<path fill="none" stroke="#8b4513" d="M140.9605,-252.7186C161.337,-248.7783 186.588,-241.265 205.0814,-227 233.9921,-204.6996 216.2151,-174.8234 248.0814,-157 270.4704,-144.4774 456.8516,-158.1919 478.4714,-172 506.6313,-189.9851 489.129,-216.2237 514.4714,-238 520.2489,-242.9645 527.2375,-246.8443 534.3848,-249.8652"/>
<polygon fill="#8b4513" stroke="#8b4513" points="533.5375,-253.2836 544.1307,-253.4735 535.968,-246.7191 533.5375,-253.2836"/>
</a>
</g>
</g>
<!-- (*github.com/go&#45;i2p/crypto/aes.AESSymmetricDecrypter).DecryptNoPadding -->
<g id="node7" class="node">
<title>(*github.com/go&#45;i2p/crypto/aes.AESSymmetricDecrypter).DecryptNoPadding</title>
<g id="a_node7"><a xlink:title="(*github.com/go&#45;i2p/crypto/aes.AESSymmetricDecrypter).DecryptNoPadding | defined in aes_decrypter.go:46&#10;at aes_decrypter.go:48: calling [github.com/samber/oops.Errorf]">
<path fill="#add8e6" stroke="#000000" stroke-width="1.5" d="M160.1221,-214C160.1221,-214 51.9593,-214 51.9593,-214 45.9593,-214 39.9593,-208 39.9593,-202 39.9593,-202 39.9593,-190 39.9593,-190 39.9593,-184 45.9593,-178 51.9593,-178 51.9593,-178 160.1221,-178 160.1221,-178 166.1221,-178 172.1221,-184 172.1221,-190 172.1221,-190 172.1221,-202 172.1221,-202 172.1221,-208 166.1221,-214 160.1221,-214"/>
<text text-anchor="middle" x="106.0407" y="-191.8" font-family="Verdana" font-size="14.00" fill="#000000">DecryptNoPadding</text>
</a>
</g>
</g>
<!-- (*github.com/go&#45;i2p/crypto/aes.AESSymmetricDecrypter).DecryptNoPadding&#45;&gt;github.com/samber/oops.Errorf -->
<g id="edge15" class="edge">
<title>(*github.com/go&#45;i2p/crypto/aes.AESSymmetricDecrypter).DecryptNoPadding&#45;&gt;github.com/samber/oops.Errorf</title>
<g id="a_edge15"><a xlink:title="at aes_decrypter.go:48: calling [github.com/samber/oops.Errorf]">
<path fill="none" stroke="#8b4513" d="M124.7415,-177.6872C150.1832,-154.1447 198.268,-114.3544 248.0814,-98 347.4542,-65.3746 473.1574,-79.7102 535.8191,-90.3101"/>
<polygon fill="#8b4513" stroke="#8b4513" points="535.2289,-93.7599 545.6827,-92.0369 536.4361,-86.8647 535.2289,-93.7599"/>
</a>
</g>
</g>
<!-- (*github.com/go&#45;i2p/crypto/aes.AESSymmetricEncrypter).EncryptNoPadding -->
<g id="node8" class="node">
<title>(*github.com/go&#45;i2p/crypto/aes.AESSymmetricEncrypter).EncryptNoPadding</title>
<g id="a_node8"><a xlink:title="(*github.com/go&#45;i2p/crypto/aes.AESSymmetricEncrypter).EncryptNoPadding | defined in aes_encrypter.go:36&#10;at aes_encrypter.go:38: calling [github.com/samber/oops.Errorf]">
<path fill="#add8e6" stroke="#000000" stroke-width="1.5" d="M159.8539,-405C159.8539,-405 52.2275,-405 52.2275,-405 46.2275,-405 40.2275,-399 40.2275,-393 40.2275,-393 40.2275,-381 40.2275,-381 40.2275,-375 46.2275,-369 52.2275,-369 52.2275,-369 159.8539,-369 159.8539,-369 165.8539,-369 171.8539,-375 171.8539,-381 171.8539,-381 171.8539,-393 171.8539,-393 171.8539,-399 165.8539,-405 159.8539,-405"/>
<text text-anchor="middle" x="106.0407" y="-382.8" font-family="Verdana" font-size="14.00" fill="#000000">EncryptNoPadding</text>
</a>
</g>
</g>
<!-- (*github.com/go&#45;i2p/crypto/aes.AESSymmetricEncrypter).EncryptNoPadding&#45;&gt;github.com/samber/oops.Errorf -->
<g id="edge24" class="edge">
<title>(*github.com/go&#45;i2p/crypto/aes.AESSymmetricEncrypter).EncryptNoPadding&#45;&gt;github.com/samber/oops.Errorf</title>
<g id="a_edge24"><a xlink:title="at aes_encrypter.go:38: calling [github.com/samber/oops.Errorf]">
<path fill="none" stroke="#8b4513" d="M125.0208,-368.93C145.2285,-349.5282 177.9664,-317.6251 205.0814,-289 241.4542,-250.6014 240.1618,-229.4703 284.0814,-200 364.5952,-145.9747 476.8411,-117.3378 535.613,-105.2079"/>
<polygon fill="#8b4513" stroke="#8b4513" points="536.4885,-108.602 545.6025,-103.1996 535.1088,-101.7393 536.4885,-108.602"/>
</a>
</g>
</g>
<!-- (*github.com/go&#45;i2p/crypto/aes.AESSymmetricEncrypter).Encrypt -->
<g id="node9" class="node">
<title>(*github.com/go&#45;i2p/crypto/aes.AESSymmetricEncrypter).Encrypt</title>
<g id="a_node9"><a xlink:title="(*github.com/go&#45;i2p/crypto/aes.AESSymmetricEncrypter).Encrypt | defined in aes_encrypter.go:17&#10;at aes_encrypter.go:22: calling [(*github.com/go&#45;i2p/logger.Logger).WithError]&#10;at aes_encrypter.go:18: calling [(*github.com/go&#45;i2p/logger.Logger).WithField]&#10;at aes_encrypter.go:31: calling [(*github.com/go&#45;i2p/logger.Logger).WithField]&#10;at aes_encrypter.go:22: calling [(*github.com/go&#45;i2p/logger.Logger).Error]&#10;at aes_encrypter.go:18: calling [(*github.com/sirupsen/logrus.Logger).Debug]&#10;at aes_encrypter.go:31: calling [(*github.com/sirupsen/logrus.Logger).Debug]&#10;at aes_encrypter.go:26: calling [github.com/go&#45;i2p/crypto/aes.pkcs7Pad]">
<path fill="#add8e6" stroke="#000000" stroke-width="1.5" d="M128.3598,-466C128.3598,-466 83.7216,-466 83.7216,-466 77.7216,-466 71.7216,-460 71.7216,-454 71.7216,-454 71.7216,-442 71.7216,-442 71.7216,-436 77.7216,-430 83.7216,-430 83.7216,-430 128.3598,-430 128.3598,-430 134.3598,-430 140.3598,-436 140.3598,-442 140.3598,-442 140.3598,-454 140.3598,-454 140.3598,-460 134.3598,-466 128.3598,-466"/>
<text text-anchor="middle" x="106.0407" y="-443.8" font-family="Verdana" font-size="14.00" fill="#000000">Encrypt</text>
</a>
</g>
</g>
<!-- (*github.com/go&#45;i2p/crypto/aes.AESSymmetricEncrypter).Encrypt&#45;&gt;github.com/go&#45;i2p/crypto/aes.pkcs7Pad -->
<g id="edge21" class="edge">
<title>(*github.com/go&#45;i2p/crypto/aes.AESSymmetricEncrypter).Encrypt&#45;&gt;github.com/go&#45;i2p/crypto/aes.pkcs7Pad</title>
<g id="a_edge21"><a xlink:title="at aes_encrypter.go:26: calling [github.com/go&#45;i2p/crypto/aes.pkcs7Pad]">
<path fill="none" stroke="#000000" d="M140.4657,-440.7734C185.1654,-431.3898 263.4649,-414.9528 314.3325,-404.2745"/>
<polygon fill="#000000" stroke="#000000" points="315.3677,-407.6336 324.4353,-402.1537 313.9296,-400.7829 315.3677,-407.6336"/>
</a>
</g>
</g>
<!-- (*github.com/go&#45;i2p/crypto/aes.AESSymmetricEncrypter).Encrypt&#45;&gt;(*github.com/go&#45;i2p/logger.Logger).WithField -->
<g id="edge8" class="edge">
<title>(*github.com/go&#45;i2p/crypto/aes.AESSymmetricEncrypter).Encrypt&#45;&gt;(*github.com/go&#45;i2p/logger.Logger).WithField</title>
<g id="a_edge8"><a xlink:title="at aes_encrypter.go:18: calling [(*github.com/go&#45;i2p/logger.Logger).WithField]&#10;at aes_encrypter.go:31: calling [(*github.com/go&#45;i2p/logger.Logger).WithField]">
<path fill="none" stroke="#8b4513" d="M110.2891,-466.1628C122.3481,-513.0348 161.6588,-637.8289 248.0814,-687 285.6517,-708.3761 405.849,-702.9624 442.4714,-680 500.4159,-643.6686 465.7728,-592.0206 514.4714,-544 517.9185,-540.6009 521.8142,-537.4958 525.9266,-534.6776"/>
<polygon fill="#8b4513" stroke="#8b4513" points="527.9485,-537.5421 534.598,-529.2937 524.2561,-531.5951 527.9485,-537.5421"/>
</a>
</g>
</g>
<!-- (*github.com/go&#45;i2p/crypto/aes.AESSymmetricEncrypter).Encrypt&#45;&gt;(*github.com/go&#45;i2p/logger.Logger).Error -->
<g id="edge9" class="edge">
<title>(*github.com/go&#45;i2p/crypto/aes.AESSymmetricEncrypter).Encrypt&#45;&gt;(*github.com/go&#45;i2p/logger.Logger).Error</title>
<g id="a_edge9"><a xlink:title="at aes_encrypter.go:22: calling [(*github.com/go&#45;i2p/logger.Logger).Error]">
<path fill="none" stroke="#8b4513" d="M110.3609,-466.2604C122.5932,-513.457 162.2863,-639.5932 248.0814,-694 283.0254,-716.1596 304.8843,-750.9893 442.4714,-697 491.6877,-677.6875 533.5236,-630.5689 556.3962,-600.5768"/>
<polygon fill="#8b4513" stroke="#8b4513" points="559.4395,-602.3501 562.6042,-592.2389 553.8249,-598.1697 559.4395,-602.3501"/>
</a>
</g>
</g>
<!-- (*github.com/go&#45;i2p/crypto/aes.AESSymmetricEncrypter).Encrypt&#45;&gt;(*github.com/go&#45;i2p/logger.Logger).WithError -->
<g id="edge5" class="edge">
<title>(*github.com/go&#45;i2p/crypto/aes.AESSymmetricEncrypter).Encrypt&#45;&gt;(*github.com/go&#45;i2p/logger.Logger).WithError</title>
<g id="a_edge5"><a xlink:title="at aes_encrypter.go:22: calling [(*github.com/go&#45;i2p/logger.Logger).WithError]">
<path fill="none" stroke="#8b4513" d="M140.248,-443.4857C160.6161,-439.4523 186.1057,-431.9229 205.0814,-418 232.4137,-397.9456 218.1055,-370.8329 248.0814,-355 337.2469,-307.9039 458.963,-342.8986 525.9123,-369.1499"/>
<polygon fill="#8b4513" stroke="#8b4513" points="524.798,-372.474 535.3822,-372.9487 527.4043,-365.9772 524.798,-372.474"/>
</a>
</g>
</g>
<!-- (*github.com/go&#45;i2p/crypto/aes.AESSymmetricEncrypter).Encrypt&#45;&gt;(*github.com/sirupsen/logrus.Logger).Debug -->
<g id="edge17" class="edge">
<title>(*github.com/go&#45;i2p/crypto/aes.AESSymmetricEncrypter).Encrypt&#45;&gt;(*github.com/sirupsen/logrus.Logger).Debug</title>
<g id="a_edge17"><a xlink:title="at aes_encrypter.go:18: calling [(*github.com/sirupsen/logrus.Logger).Debug]&#10;at aes_encrypter.go:31: calling [(*github.com/sirupsen/logrus.Logger).Debug]">
<path fill="none" stroke="#8b4513" d="M140.4474,-445.0445C161.4024,-441.5906 187.4459,-434.1231 205.0814,-418 243.6388,-382.7494 230.1017,-357.6729 249.0814,-309 265.126,-267.854 248.5777,-242.2661 284.0814,-216 312.4337,-195.0246 408.9074,-216.8295 442.4714,-206 460.3166,-200.2422 461.939,-175.1521 478.4714,-184 503.9028,-197.6105 491.7827,-220.1892 514.4714,-238 520.4027,-242.6561 527.409,-246.3852 534.5138,-249.3528"/>
<polygon fill="#8b4513" stroke="#8b4513" points="533.5784,-252.739 544.1713,-252.9429 536.0176,-246.1777 533.5784,-252.739"/>
</a>
</g>
</g>
<!-- (*github.com/go&#45;i2p/crypto/aes.AESSymmetricKey).NewEncrypter -->
<g id="node10" class="node">
<title>(*github.com/go&#45;i2p/crypto/aes.AESSymmetricKey).NewEncrypter</title>
<g id="a_node10"><a xlink:title="(*github.com/go&#45;i2p/crypto/aes.AESSymmetricKey).NewEncrypter | defined in aes_key.go:12&#10;at aes_key.go:18: calling [(*github.com/go&#45;i2p/logger.Logger).Error]&#10;at aes_key.go:24: calling [(*github.com/go&#45;i2p/logger.Logger).Error]&#10;at aes_key.go:13: calling [(*github.com/sirupsen/logrus.Logger).Debug]&#10;at aes_key.go:18: calling [(*github.com/go&#45;i2p/logger.Logger).WithField]&#10;at aes_key.go:24: calling [(*github.com/go&#45;i2p/logger.Logger).WithField]">
<path fill="#add8e6" stroke="#000000" stroke-width="1.5" d="M403.8985,-605C403.8985,-605 322.6543,-605 322.6543,-605 316.6543,-605 310.6543,-599 310.6543,-593 310.6543,-593 310.6543,-581 310.6543,-581 310.6543,-575 316.6543,-569 322.6543,-569 322.6543,-569 403.8985,-569 403.8985,-569 409.8985,-569 415.8985,-575 415.8985,-581 415.8985,-581 415.8985,-593 415.8985,-593 415.8985,-599 409.8985,-605 403.8985,-605"/>
<text text-anchor="middle" x="363.2764" y="-582.8" font-family="Verdana" font-size="14.00" fill="#000000">NewEncrypter</text>
</a>
</g>
</g>
<!-- (*github.com/go&#45;i2p/crypto/aes.AESSymmetricKey).NewEncrypter&#45;&gt;(*github.com/go&#45;i2p/logger.Logger).WithField -->
<g id="edge28" class="edge">
<title>(*github.com/go&#45;i2p/crypto/aes.AESSymmetricKey).NewEncrypter&#45;&gt;(*github.com/go&#45;i2p/logger.Logger).WithField</title>
<g id="a_edge28"><a xlink:title="at aes_key.go:18: calling [(*github.com/go&#45;i2p/logger.Logger).WithField]&#10;at aes_key.go:24: calling [(*github.com/go&#45;i2p/logger.Logger).WithField]">
<path fill="none" stroke="#8b4513" d="M414.8152,-568.9922C448.359,-557.2719 491.8863,-542.0633 525.1097,-530.4549"/>
<polygon fill="#8b4513" stroke="#8b4513" points="526.3418,-533.732 534.6276,-527.1293 524.0328,-527.1238 526.3418,-533.732"/>
</a>
</g>
</g>
<!-- (*github.com/go&#45;i2p/crypto/aes.AESSymmetricKey).NewEncrypter&#45;&gt;(*github.com/go&#45;i2p/logger.Logger).Error -->
<g id="edge6" class="edge">
<title>(*github.com/go&#45;i2p/crypto/aes.AESSymmetricKey).NewEncrypter&#45;&gt;(*github.com/go&#45;i2p/logger.Logger).Error</title>
<g id="a_edge6"><a xlink:title="at aes_key.go:18: calling [(*github.com/go&#45;i2p/logger.Logger).Error]&#10;at aes_key.go:24: calling [(*github.com/go&#45;i2p/logger.Logger).Error]">
<path fill="none" stroke="#8b4513" d="M412.3594,-605.0041C437.6155,-613.3008 465.7205,-620.7673 478.4714,-618 498.2245,-613.713 518.7837,-605.022 535.8319,-596.4879"/>
<polygon fill="#8b4513" stroke="#8b4513" points="537.6391,-599.4938 544.9145,-591.7919 534.4241,-593.2757 537.6391,-599.4938"/>
</a>
</g>
</g>
<!-- (*github.com/go&#45;i2p/crypto/aes.AESSymmetricKey).NewEncrypter&#45;&gt;(*github.com/sirupsen/logrus.Logger).Debug -->
<g id="edge11" class="edge">
<title>(*github.com/go&#45;i2p/crypto/aes.AESSymmetricKey).NewEncrypter&#45;&gt;(*github.com/sirupsen/logrus.Logger).Debug</title>
<g id="a_edge11"><a xlink:title="at aes_key.go:13: calling [(*github.com/sirupsen/logrus.Logger).Debug]">
<path fill="none" stroke="#8b4513" d="M415.9012,-574.6777C425.7253,-570.4046 435.1798,-564.6741 442.4714,-557 514.5014,-481.1911 464.1624,-424.6751 514.4714,-333 523.9437,-315.7392 537.782,-298.6812 549.8436,-285.4001"/>
<polygon fill="#8b4513" stroke="#8b4513" points="552.4402,-287.7476 556.6935,-278.0439 547.3172,-282.9772 552.4402,-287.7476"/>
</a>
</g>
</g>
<!-- (*github.com/go&#45;i2p/crypto/aes.AESSymmetricKey).Zero -->
<g id="node11" class="node">
<title>(*github.com/go&#45;i2p/crypto/aes.AESSymmetricKey).Zero</title>
<g id="a_node11"><a xlink:title="(*github.com/go&#45;i2p/crypto/aes.AESSymmetricKey).Zero | defined in aes_key.go:64&#10;at aes_key.go:65: calling [(*github.com/sirupsen/logrus.Logger).Debug]&#10;at aes_key.go:77: calling [(*github.com/sirupsen/logrus.Logger).Debug]">
<path fill="#add8e6" stroke="#000000" stroke-width="1.5" d="M378.2764,-544C378.2764,-544 348.2764,-544 348.2764,-544 342.2764,-544 336.2764,-538 336.2764,-532 336.2764,-532 336.2764,-520 336.2764,-520 336.2764,-514 342.2764,-508 348.2764,-508 348.2764,-508 378.2764,-508 378.2764,-508 384.2764,-508 390.2764,-514 390.2764,-520 390.2764,-520 390.2764,-532 390.2764,-532 390.2764,-538 384.2764,-544 378.2764,-544"/>
<text text-anchor="middle" x="363.2764" y="-521.8" font-family="Verdana" font-size="14.00" fill="#000000">Zero</text>
</a>
</g>
</g>
<!-- (*github.com/go&#45;i2p/crypto/aes.AESSymmetricKey).Zero&#45;&gt;(*github.com/sirupsen/logrus.Logger).Debug -->
<g id="edge29" class="edge">
<title>(*github.com/go&#45;i2p/crypto/aes.AESSymmetricKey).Zero&#45;&gt;(*github.com/sirupsen/logrus.Logger).Debug</title>
<g id="a_edge29"><a xlink:title="at aes_key.go:65: calling [(*github.com/sirupsen/logrus.Logger).Debug]&#10;at aes_key.go:77: calling [(*github.com/sirupsen/logrus.Logger).Debug]">
<path fill="none" stroke="#8b4513" d="M390.561,-525.4956C407.8816,-523.6712 429.4167,-518.3597 442.4714,-504 502.291,-438.2006 423.7314,-377.8517 477.4714,-307 491.4377,-288.5867 514.4849,-277.021 534.6762,-269.9718"/>
<polygon fill="#8b4513" stroke="#8b4513" points="535.8648,-273.266 544.3065,-266.8639 533.7149,-266.6044 535.8648,-273.266"/>
</a>
</g>
</g>
<!-- (*github.com/go&#45;i2p/crypto/aes.AESSymmetricKey).NewDecrypter -->
<g id="node12" class="node">
<title>(*github.com/go&#45;i2p/crypto/aes.AESSymmetricKey).NewDecrypter</title>
<g id="a_node12"><a xlink:title="(*github.com/go&#45;i2p/crypto/aes.AESSymmetricKey).NewDecrypter | defined in aes_key.go:40&#10;at aes_key.go:41: calling [(*github.com/sirupsen/logrus.Logger).Debug]&#10;at aes_key.go:46: calling [(*github.com/go&#45;i2p/logger.Logger).Error]&#10;at aes_key.go:52: calling [(*github.com/go&#45;i2p/logger.Logger).Error]&#10;at aes_key.go:46: calling [(*github.com/go&#45;i2p/logger.Logger).WithField]&#10;at aes_key.go:52: calling [(*github.com/go&#45;i2p/logger.Logger).WithField]">
<path fill="#add8e6" stroke="#000000" stroke-width="1.5" d="M404.6671,-666C404.6671,-666 321.8857,-666 321.8857,-666 315.8857,-666 309.8857,-660 309.8857,-654 309.8857,-654 309.8857,-642 309.8857,-642 309.8857,-636 315.8857,-630 321.8857,-630 321.8857,-630 404.6671,-630 404.6671,-630 410.6671,-630 416.6671,-636 416.6671,-642 416.6671,-642 416.6671,-654 416.6671,-654 416.6671,-660 410.6671,-666 404.6671,-666"/>
<text text-anchor="middle" x="363.2764" y="-643.8" font-family="Verdana" font-size="14.00" fill="#000000">NewDecrypter</text>
</a>
</g>
</g>
<!-- (*github.com/go&#45;i2p/crypto/aes.AESSymmetricKey).NewDecrypter&#45;&gt;(*github.com/go&#45;i2p/logger.Logger).WithField -->
<g id="edge23" class="edge">
<title>(*github.com/go&#45;i2p/crypto/aes.AESSymmetricKey).NewDecrypter&#45;&gt;(*github.com/go&#45;i2p/logger.Logger).WithField</title>
<g id="a_edge23"><a xlink:title="at aes_key.go:46: calling [(*github.com/go&#45;i2p/logger.Logger).WithField]&#10;at aes_key.go:52: calling [(*github.com/go&#45;i2p/logger.Logger).WithField]">
<path fill="none" stroke="#8b4513" d="M416.8204,-631.3974C425.7202,-627.6172 434.6037,-623.1614 442.4714,-618 480.8396,-592.8293 477.5555,-571.256 514.4714,-544 518.1536,-541.2813 522.1088,-538.6756 526.17,-536.211"/>
<polygon fill="#8b4513" stroke="#8b4513" points="528.2322,-539.0631 535.1653,-531.0517 524.7495,-532.991 528.2322,-539.0631"/>
</a>
</g>
</g>
<!-- (*github.com/go&#45;i2p/crypto/aes.AESSymmetricKey).NewDecrypter&#45;&gt;(*github.com/go&#45;i2p/logger.Logger).Error -->
<g id="edge16" class="edge">
<title>(*github.com/go&#45;i2p/crypto/aes.AESSymmetricKey).NewDecrypter&#45;&gt;(*github.com/go&#45;i2p/logger.Logger).Error</title>
<g id="a_edge16"><a xlink:title="at aes_key.go:46: calling [(*github.com/go&#45;i2p/logger.Logger).Error]&#10;at aes_key.go:52: calling [(*github.com/go&#45;i2p/logger.Logger).Error]">
<path fill="none" stroke="#8b4513" d="M416.6128,-640.6582C436.383,-637.0808 458.7743,-631.9992 478.4714,-625 498.7097,-617.8085 519.947,-606.998 537.3382,-597.1783"/>
<polygon fill="#8b4513" stroke="#8b4513" points="539.1371,-600.1813 546.0564,-592.158 535.6439,-594.1152 539.1371,-600.1813"/>
</a>
</g>
</g>
<!-- (*github.com/go&#45;i2p/crypto/aes.AESSymmetricKey).NewDecrypter&#45;&gt;(*github.com/sirupsen/logrus.Logger).Debug -->
<g id="edge12" class="edge">
<title>(*github.com/go&#45;i2p/crypto/aes.AESSymmetricKey).NewDecrypter&#45;&gt;(*github.com/sirupsen/logrus.Logger).Debug</title>
<g id="a_edge12"><a xlink:title="at aes_key.go:41: calling [(*github.com/sirupsen/logrus.Logger).Debug]">
<path fill="none" stroke="#8b4513" d="M416.7035,-635.3035C426.2346,-631.0713 435.3726,-625.4517 442.4714,-618 474.683,-584.1874 511.8413,-338.467 514.4714,-333 522.8879,-315.5056 536.3994,-298.6457 548.53,-285.5447"/>
<polygon fill="#8b4513" stroke="#8b4513" points="551.0853,-287.9367 555.4638,-278.289 546.0245,-283.1005 551.0853,-287.9367"/>
</a>
</g>
</g>
</g>
</svg>
