<?xml version="1.0" encoding="UTF-8" standalone="no"?>
<!DOCTYPE svg PUBLIC "-//W3C//DTD SVG 1.1//EN"
 "http://www.w3.org/Graphics/SVG/1.1/DTD/svg11.dtd">
<!-- Generated by graphviz version 2.40.1 (20161225.0304)
 -->
<!-- Title: gocallvis Pages: 1 -->
<svg width="699pt" height="769pt"
 viewBox="0.00 0.00 699.40 769.00" xmlns="http://www.w3.org/2000/svg" xmlns:xlink="http://www.w3.org/1999/xlink">
<g id="graph0" class="graph" transform="scale(1 1) rotate(0) translate(0 769)">
<title>gocallvis</title>
<polygon fill="#d3d3d3" stroke="transparent" points="0,0 0,-769 699.4028,-769 699.4028,0 0,0"/>
<g id="clust1" class="cluster">
<title>cluster_focus</title>
<polygon fill="#e6ecfa" stroke="#000000" stroke-width=".5" points="8,-8 8,-761 691.4028,-761 691.4028,-8 8,-8"/>
<text text-anchor="middle" x="349.7014" y="-740.8" font-family="Arial" font-size="18.00" fill="#000000">ecies</text>
</g>
<g id="clust2" class="cluster">
<title>cluster_go.step.sm/crypto/x25519.PrivateKey</title>
<g id="a_clust2"><a xlink:title="type: go.step.sm/crypto/x25519.PrivateKey">
<path fill="#eed8ae" stroke="#000000" stroke-width=".5" d="M579.4315,-160C579.4315,-160 657.6251,-160 657.6251,-160 663.6251,-160 669.6251,-166 669.6251,-172 669.6251,-172 669.6251,-226 669.6251,-226 669.6251,-232 663.6251,-238 657.6251,-238 657.6251,-238 579.4315,-238 579.4315,-238 573.4315,-238 567.4315,-232 567.4315,-226 567.4315,-226 567.4315,-172 567.4315,-172 567.4315,-166 573.4315,-160 579.4315,-160"/>
<text text-anchor="middle" x="618.5283" y="-168.5" font-family="Arial" font-size="15.00" fill="#222222">(PrivateKey)</text>
</a>
</g>
</g>
<!-- github.com/go&#45;i2p/crypto/ecies.GenerateKeyPair -->
<g id="node1" class="node">
<title>github.com/go&#45;i2p/crypto/ecies.GenerateKeyPair</title>
<g id="a_node1"><a xlink:title="github.com/go&#45;i2p/crypto/ecies.GenerateKeyPair | defined in utils.go:215&#10;at utils.go:218: calling [github.com/samber/oops.Errorf]&#10;at utils.go:216: calling [go.step.sm/crypto/x25519.GenerateKey]">
<path fill="#add8e6" stroke="#000000" stroke-width="1.5" d="M409.7526,-723C409.7526,-723 312.9798,-723 312.9798,-723 306.9798,-723 300.9798,-717 300.9798,-711 300.9798,-711 300.9798,-699 300.9798,-699 300.9798,-693 306.9798,-687 312.9798,-687 312.9798,-687 409.7526,-687 409.7526,-687 415.7526,-687 421.7526,-693 421.7526,-699 421.7526,-699 421.7526,-711 421.7526,-711 421.7526,-717 415.7526,-723 409.7526,-723"/>
<text text-anchor="middle" x="361.3662" y="-700.8" font-family="Verdana" font-size="14.00" fill="#000000">GenerateKeyPair</text>
</a>
</g>
</g>
<!-- go.step.sm/crypto/x25519.GenerateKey -->
<g id="node2" class="node">
<title>go.step.sm/crypto/x25519.GenerateKey</title>
<g id="a_node2"><a xlink:title="go.step.sm/crypto/x25519.GenerateKey | defined in x25519.go:37">
<path fill="#ffe4b5" stroke="#000000" stroke-width="1.5" d="M655.3658,-692C655.3658,-692 581.6908,-692 581.6908,-692 575.6908,-692 569.6908,-686 569.6908,-680 569.6908,-680 569.6908,-668 569.6908,-668 569.6908,-662 575.6908,-656 581.6908,-656 581.6908,-656 655.3658,-656 655.3658,-656 661.3658,-656 667.3658,-662 667.3658,-668 667.3658,-668 667.3658,-680 667.3658,-680 667.3658,-686 661.3658,-692 655.3658,-692"/>
<text text-anchor="middle" x="618.5283" y="-678.2" font-family="Verdana" font-size="14.00" fill="#000000">x25519</text>
<text text-anchor="middle" x="618.5283" y="-661.4" font-family="Verdana" font-size="14.00" fill="#000000">GenerateKey</text>
</a>
</g>
</g>
<!-- github.com/go&#45;i2p/crypto/ecies.GenerateKeyPair&#45;&gt;go.step.sm/crypto/x25519.GenerateKey -->
<g id="edge14" class="edge">
<title>github.com/go&#45;i2p/crypto/ecies.GenerateKeyPair&#45;&gt;go.step.sm/crypto/x25519.GenerateKey</title>
<g id="a_edge14"><a xlink:title="at utils.go:216: calling [go.step.sm/crypto/x25519.GenerateKey]">
<path fill="none" stroke="#8b4513" d="M421.6593,-697.7319C463.1272,-692.7331 517.9442,-686.1251 559.2024,-681.1515"/>
<polygon fill="#8b4513" stroke="#8b4513" points="559.874,-684.596 569.3832,-679.9243 559.0362,-677.6463 559.874,-684.596"/>
</a>
</g>
</g>
<!-- github.com/samber/oops.Errorf -->
<g id="node3" class="node">
<title>github.com/samber/oops.Errorf</title>
<g id="a_node3"><a xlink:title="github.com/samber/oops.Errorf | defined in oops.go:34">
<path fill="#ffe4b5" stroke="#000000" stroke-width="1.5" d="M635.7236,-492C635.7236,-492 601.333,-492 601.333,-492 595.333,-492 589.333,-486 589.333,-480 589.333,-480 589.333,-468 589.333,-468 589.333,-462 595.333,-456 601.333,-456 601.333,-456 635.7236,-456 635.7236,-456 641.7236,-456 647.7236,-462 647.7236,-468 647.7236,-468 647.7236,-480 647.7236,-480 647.7236,-486 641.7236,-492 635.7236,-492"/>
<text text-anchor="middle" x="618.5283" y="-478.2" font-family="Verdana" font-size="14.00" fill="#000000">oops</text>
<text text-anchor="middle" x="618.5283" y="-461.4" font-family="Verdana" font-size="14.00" fill="#000000">Errorf</text>
</a>
</g>
</g>
<!-- github.com/go&#45;i2p/crypto/ecies.GenerateKeyPair&#45;&gt;github.com/samber/oops.Errorf -->
<g id="edge3" class="edge">
<title>github.com/go&#45;i2p/crypto/ecies.GenerateKeyPair&#45;&gt;github.com/samber/oops.Errorf</title>
<g id="a_edge3"><a xlink:title="at utils.go:218: calling [github.com/samber/oops.Errorf]">
<path fill="none" stroke="#8b4513" d="M421.6589,-698.5497C441.7498,-694.2253 463.3888,-687.0149 480.6538,-675 544.9397,-630.2628 588.3378,-545.151 607.4488,-501.4289"/>
<polygon fill="#8b4513" stroke="#8b4513" points="610.765,-502.575 611.471,-492.0037 604.3267,-499.8274 610.765,-502.575"/>
</a>
</g>
</g>
<!-- github.com/go&#45;i2p/crypto/ecies.init -->
<g id="node4" class="node">
<title>github.com/go&#45;i2p/crypto/ecies.init</title>
<g id="a_node4"><a xlink:title="github.com/go&#45;i2p/crypto/ecies.init | defined in .:0&#10;at constants.go:25: calling [github.com/samber/oops.Errorf]&#10;at constants.go:26: calling [github.com/samber/oops.Errorf]&#10;at constants.go:27: calling [github.com/samber/oops.Errorf]&#10;at constants.go:28: calling [github.com/samber/oops.Errorf]&#10;at constants.go:29: calling [github.com/samber/oops.Errorf]&#10;at constants.go:30: calling [github.com/samber/oops.Errorf]">
<path fill="#add8e6" stroke="#000000" stroke-width=".5" d="M376.3662,-540C376.3662,-540 346.3662,-540 346.3662,-540 340.3662,-540 334.3662,-534 334.3662,-528 334.3662,-528 334.3662,-516 334.3662,-516 334.3662,-510 340.3662,-504 346.3662,-504 346.3662,-504 376.3662,-504 376.3662,-504 382.3662,-504 388.3662,-510 388.3662,-516 388.3662,-516 388.3662,-528 388.3662,-528 388.3662,-534 382.3662,-540 376.3662,-540"/>
<text text-anchor="middle" x="361.3662" y="-517.8" font-family="Verdana" font-size="14.00" fill="#000000">init</text>
</a>
</g>
</g>
<!-- github.com/go&#45;i2p/crypto/ecies.init&#45;&gt;github.com/samber/oops.Errorf -->
<g id="edge4" class="edge">
<title>github.com/go&#45;i2p/crypto/ecies.init&#45;&gt;github.com/samber/oops.Errorf</title>
<g id="a_edge4"><a xlink:title="at constants.go:25: calling [github.com/samber/oops.Errorf]&#10;at constants.go:26: calling [github.com/samber/oops.Errorf]&#10;at constants.go:27: calling [github.com/samber/oops.Errorf]&#10;at constants.go:28: calling [github.com/samber/oops.Errorf]&#10;at constants.go:29: calling [github.com/samber/oops.Errorf]&#10;at constants.go:30: calling [github.com/samber/oops.Errorf]">
<path fill="none" stroke="#8b4513" d="M388.401,-516.9539C433.9788,-508.4467 526.2925,-491.2161 579.0989,-481.3596"/>
<polygon fill="#8b4513" stroke="#8b4513" points="579.9198,-484.7669 589.1078,-479.4914 578.6354,-477.8857 579.9198,-484.7669"/>
</a>
</g>
</g>
<!-- github.com/go&#45;i2p/crypto/ecies.decryptWithAEAD -->
<g id="node5" class="node">
<title>github.com/go&#45;i2p/crypto/ecies.decryptWithAEAD</title>
<g id="a_node5"><a xlink:title="github.com/go&#45;i2p/crypto/ecies.decryptWithAEAD | defined in utils.go:198&#10;at utils.go:199: calling [golang.org/x/crypto/chacha20poly1305.New]&#10;at utils.go:201: calling [github.com/samber/oops.Errorf]&#10;at utils.go:206: calling [github.com/samber/oops.Errorf]">
<path fill="#add8e6" stroke="#000000" stroke-width=".5" d="M415.7149,-357C415.7149,-357 307.0175,-357 307.0175,-357 301.0175,-357 295.0175,-351 295.0175,-345 295.0175,-345 295.0175,-333 295.0175,-333 295.0175,-327 301.0175,-321 307.0175,-321 307.0175,-321 415.7149,-321 415.7149,-321 421.7149,-321 427.7149,-327 427.7149,-333 427.7149,-333 427.7149,-345 427.7149,-345 427.7149,-351 421.7149,-357 415.7149,-357"/>
<text text-anchor="middle" x="361.3662" y="-334.8" font-family="Verdana" font-size="14.00" fill="#000000">decryptWithAEAD</text>
</a>
</g>
</g>
<!-- github.com/go&#45;i2p/crypto/ecies.decryptWithAEAD&#45;&gt;github.com/samber/oops.Errorf -->
<g id="edge20" class="edge">
<title>github.com/go&#45;i2p/crypto/ecies.decryptWithAEAD&#45;&gt;github.com/samber/oops.Errorf</title>
<g id="a_edge20"><a xlink:title="at utils.go:201: calling [github.com/samber/oops.Errorf]&#10;at utils.go:206: calling [github.com/samber/oops.Errorf]">
<path fill="none" stroke="#8b4513" d="M427.7929,-347.0242C446.1724,-351.5978 465.2756,-358.7671 480.6538,-370 504.8494,-387.6735 494.1249,-407.2459 516.6538,-427 534.7775,-442.8915 559.1847,-454.4018 579.5655,-462.0532"/>
<polygon fill="#8b4513" stroke="#8b4513" points="578.6074,-465.4277 589.202,-465.5017 580.966,-458.837 578.6074,-465.4277"/>
</a>
</g>
</g>
<!-- golang.org/x/crypto/chacha20poly1305.New -->
<g id="node6" class="node">
<title>golang.org/x/crypto/chacha20poly1305.New</title>
<g id="a_node6"><a xlink:title="golang.org/x/crypto/chacha20poly1305.New | defined in chacha20poly1305.go:40">
<path fill="#ffe4b5" stroke="#000000" stroke-width="1.5" d="M671.2775,-371C671.2775,-371 565.7791,-371 565.7791,-371 559.7791,-371 553.7791,-365 553.7791,-359 553.7791,-359 553.7791,-347 553.7791,-347 553.7791,-341 559.7791,-335 565.7791,-335 565.7791,-335 671.2775,-335 671.2775,-335 677.2775,-335 683.2775,-341 683.2775,-347 683.2775,-347 683.2775,-359 683.2775,-359 683.2775,-365 677.2775,-371 671.2775,-371"/>
<text text-anchor="middle" x="618.5283" y="-357.2" font-family="Verdana" font-size="14.00" fill="#000000">chacha20poly1305</text>
<text text-anchor="middle" x="618.5283" y="-340.4" font-family="Verdana" font-size="14.00" fill="#000000">New</text>
</a>
</g>
</g>
<!-- github.com/go&#45;i2p/crypto/ecies.decryptWithAEAD&#45;&gt;golang.org/x/crypto/chacha20poly1305.New -->
<g id="edge9" class="edge">
<title>github.com/go&#45;i2p/crypto/ecies.decryptWithAEAD&#45;&gt;golang.org/x/crypto/chacha20poly1305.New</title>
<g id="a_edge9"><a xlink:title="at utils.go:199: calling [golang.org/x/crypto/chacha20poly1305.New]">
<path fill="none" stroke="#8b4513" d="M427.9263,-342.6236C463.2944,-344.549 506.8951,-346.9226 543.4654,-348.9135"/>
<polygon fill="#8b4513" stroke="#8b4513" points="543.4054,-352.4154 553.5809,-349.4642 543.786,-345.4257 543.4054,-352.4154"/>
</a>
</g>
</g>
<!-- github.com/go&#45;i2p/crypto/ecies.EncryptECIESX25519 -->
<g id="node7" class="node">
<title>github.com/go&#45;i2p/crypto/ecies.EncryptECIESX25519</title>
<g id="a_node7"><a xlink:title="github.com/go&#45;i2p/crypto/ecies.EncryptECIESX25519 | defined in utils.go:21&#10;at utils.go:41: calling [github.com/go&#45;i2p/crypto/ecies.buildCiphertextResult]&#10;at utils.go:26: calling [github.com/go&#45;i2p/crypto/ecies.generateEphemeralKeyPair]&#10;at utils.go:36: calling [github.com/go&#45;i2p/crypto/ecies.encryptWithAEAD]&#10;at utils.go:22: calling [github.com/go&#45;i2p/crypto/ecies.validateEncryptionInputs]&#10;at utils.go:31: calling [github.com/go&#45;i2p/crypto/ecies.deriveEncryptionKey]">
<path fill="#add8e6" stroke="#000000" stroke-width="1.5" d="M156.8496,-479C156.8496,-479 28.229,-479 28.229,-479 22.229,-479 16.229,-473 16.229,-467 16.229,-467 16.229,-455 16.229,-455 16.229,-449 22.229,-443 28.229,-443 28.229,-443 156.8496,-443 156.8496,-443 162.8496,-443 168.8496,-449 168.8496,-455 168.8496,-455 168.8496,-467 168.8496,-467 168.8496,-473 162.8496,-479 156.8496,-479"/>
<text text-anchor="middle" x="92.5393" y="-456.8" font-family="Verdana" font-size="14.00" fill="#000000">EncryptECIESX25519</text>
</a>
</g>
</g>
<!-- github.com/go&#45;i2p/crypto/ecies.validateEncryptionInputs -->
<g id="node8" class="node">
<title>github.com/go&#45;i2p/crypto/ecies.validateEncryptionInputs</title>
<g id="a_node8"><a xlink:title="github.com/go&#45;i2p/crypto/ecies.validateEncryptionInputs | defined in utils.go:46">
<path fill="#add8e6" stroke="#000000" stroke-width=".5" d="M431.8873,-479C431.8873,-479 290.8451,-479 290.8451,-479 284.8451,-479 278.8451,-473 278.8451,-467 278.8451,-467 278.8451,-455 278.8451,-455 278.8451,-449 284.8451,-443 290.8451,-443 290.8451,-443 431.8873,-443 431.8873,-443 437.8873,-443 443.8873,-449 443.8873,-455 443.8873,-455 443.8873,-467 443.8873,-467 443.8873,-473 437.8873,-479 431.8873,-479"/>
<text text-anchor="middle" x="361.3662" y="-456.8" font-family="Verdana" font-size="14.00" fill="#000000">validateEncryptionInputs</text>
</a>
</g>
</g>
<!-- github.com/go&#45;i2p/crypto/ecies.EncryptECIESX25519&#45;&gt;github.com/go&#45;i2p/crypto/ecies.validateEncryptionInputs -->
<g id="edge21" class="edge">
<title>github.com/go&#45;i2p/crypto/ecies.EncryptECIESX25519&#45;&gt;github.com/go&#45;i2p/crypto/ecies.validateEncryptionInputs</title>
<g id="a_edge21"><a xlink:title="at utils.go:22: calling [github.com/go&#45;i2p/crypto/ecies.validateEncryptionInputs]">
<path fill="none" stroke="#000000" d="M168.8552,-461C199.8106,-461 235.8566,-461 268.3317,-461"/>
<polygon fill="#000000" stroke="#000000" points="268.7392,-464.5001 278.7392,-461 268.7391,-457.5001 268.7392,-464.5001"/>
</a>
</g>
</g>
<!-- github.com/go&#45;i2p/crypto/ecies.generateEphemeralKeyPair -->
<g id="node9" class="node">
<title>github.com/go&#45;i2p/crypto/ecies.generateEphemeralKeyPair</title>
<g id="a_node9"><a xlink:title="github.com/go&#45;i2p/crypto/ecies.generateEphemeralKeyPair | defined in utils.go:59&#10;at utils.go:62: calling [github.com/samber/oops.Errorf]&#10;at utils.go:60: calling [go.step.sm/crypto/x25519.GenerateKey]">
<path fill="#add8e6" stroke="#000000" stroke-width=".5" d="M438.2836,-662C438.2836,-662 284.4488,-662 284.4488,-662 278.4488,-662 272.4488,-656 272.4488,-650 272.4488,-650 272.4488,-638 272.4488,-638 272.4488,-632 278.4488,-626 284.4488,-626 284.4488,-626 438.2836,-626 438.2836,-626 444.2836,-626 450.2836,-632 450.2836,-638 450.2836,-638 450.2836,-650 450.2836,-650 450.2836,-656 444.2836,-662 438.2836,-662"/>
<text text-anchor="middle" x="361.3662" y="-639.8" font-family="Verdana" font-size="14.00" fill="#000000">generateEphemeralKeyPair</text>
</a>
</g>
</g>
<!-- github.com/go&#45;i2p/crypto/ecies.EncryptECIESX25519&#45;&gt;github.com/go&#45;i2p/crypto/ecies.generateEphemeralKeyPair -->
<g id="edge16" class="edge">
<title>github.com/go&#45;i2p/crypto/ecies.EncryptECIESX25519&#45;&gt;github.com/go&#45;i2p/crypto/ecies.generateEphemeralKeyPair</title>
<g id="a_edge16"><a xlink:title="at utils.go:26: calling [github.com/go&#45;i2p/crypto/ecies.generateEphemeralKeyPair]">
<path fill="none" stroke="#000000" d="M105.032,-479.2531C128.1568,-511.5898 180.8923,-578.8361 242.0786,-614 248.5067,-617.6942 255.3853,-620.9382 262.4739,-623.7862"/>
<polygon fill="#000000" stroke="#000000" points="261.6551,-627.2162 272.2478,-627.4293 264.1001,-620.657 261.6551,-627.2162"/>
</a>
</g>
</g>
<!-- github.com/go&#45;i2p/crypto/ecies.deriveEncryptionKey -->
<g id="node10" class="node">
<title>github.com/go&#45;i2p/crypto/ecies.deriveEncryptionKey</title>
<g id="a_node10"><a xlink:title="github.com/go&#45;i2p/crypto/ecies.deriveEncryptionKey | defined in utils.go:69&#10;at utils.go:74: calling [(go.step.sm/crypto/x25519.PrivateKey).SharedKey]&#10;at utils.go:76: calling [github.com/samber/oops.Errorf]&#10;at utils.go:84: calling [github.com/samber/oops.Errorf]&#10;at utils.go:81: calling [golang.org/x/crypto/hkdf.New]">
<path fill="#add8e6" stroke="#000000" stroke-width=".5" d="M421.3776,-296C421.3776,-296 301.3548,-296 301.3548,-296 295.3548,-296 289.3548,-290 289.3548,-284 289.3548,-284 289.3548,-272 289.3548,-272 289.3548,-266 295.3548,-260 301.3548,-260 301.3548,-260 421.3776,-260 421.3776,-260 427.3776,-260 433.3776,-266 433.3776,-272 433.3776,-272 433.3776,-284 433.3776,-284 433.3776,-290 427.3776,-296 421.3776,-296"/>
<text text-anchor="middle" x="361.3662" y="-273.8" font-family="Verdana" font-size="14.00" fill="#000000">deriveEncryptionKey</text>
</a>
</g>
</g>
<!-- github.com/go&#45;i2p/crypto/ecies.EncryptECIESX25519&#45;&gt;github.com/go&#45;i2p/crypto/ecies.deriveEncryptionKey -->
<g id="edge24" class="edge">
<title>github.com/go&#45;i2p/crypto/ecies.EncryptECIESX25519&#45;&gt;github.com/go&#45;i2p/crypto/ecies.deriveEncryptionKey</title>
<g id="a_edge24"><a xlink:title="at utils.go:31: calling [github.com/go&#45;i2p/crypto/ecies.deriveEncryptionKey]">
<path fill="none" stroke="#000000" d="M105.0888,-442.9165C128.3037,-410.871 181.1771,-344.1864 242.0786,-309 253.5208,-302.3892 266.3846,-297.1638 279.3181,-293.0402"/>
<polygon fill="#000000" stroke="#000000" points="280.6149,-296.306 289.1997,-290.097 278.6166,-289.5973 280.6149,-296.306"/>
</a>
</g>
</g>
<!-- github.com/go&#45;i2p/crypto/ecies.encryptWithAEAD -->
<g id="node12" class="node">
<title>github.com/go&#45;i2p/crypto/ecies.encryptWithAEAD</title>
<g id="a_node12"><a xlink:title="github.com/go&#45;i2p/crypto/ecies.encryptWithAEAD | defined in utils.go:91&#10;at utils.go:93: calling [golang.org/x/crypto/chacha20poly1305.New]&#10;at utils.go:95: calling [github.com/samber/oops.Errorf]&#10;at utils.go:101: calling [github.com/samber/oops.Errorf]">
<path fill="#add8e6" stroke="#000000" stroke-width=".5" d="M415.7149,-418C415.7149,-418 307.0175,-418 307.0175,-418 301.0175,-418 295.0175,-412 295.0175,-406 295.0175,-406 295.0175,-394 295.0175,-394 295.0175,-388 301.0175,-382 307.0175,-382 307.0175,-382 415.7149,-382 415.7149,-382 421.7149,-382 427.7149,-388 427.7149,-394 427.7149,-394 427.7149,-406 427.7149,-406 427.7149,-412 421.7149,-418 415.7149,-418"/>
<text text-anchor="middle" x="361.3662" y="-395.8" font-family="Verdana" font-size="14.00" fill="#000000">encryptWithAEAD</text>
</a>
</g>
</g>
<!-- github.com/go&#45;i2p/crypto/ecies.EncryptECIESX25519&#45;&gt;github.com/go&#45;i2p/crypto/ecies.encryptWithAEAD -->
<g id="edge18" class="edge">
<title>github.com/go&#45;i2p/crypto/ecies.EncryptECIESX25519&#45;&gt;github.com/go&#45;i2p/crypto/ecies.encryptWithAEAD</title>
<g id="a_edge18"><a xlink:title="at utils.go:36: calling [github.com/go&#45;i2p/crypto/ecies.encryptWithAEAD]">
<path fill="none" stroke="#000000" d="M168.8552,-443.683C205.1787,-435.4408 248.5115,-425.6081 284.8594,-417.3603"/>
<polygon fill="#000000" stroke="#000000" points="285.937,-420.7048 294.9146,-415.0787 284.388,-413.8784 285.937,-420.7048"/>
</a>
</g>
</g>
<!-- github.com/go&#45;i2p/crypto/ecies.buildCiphertextResult -->
<g id="node13" class="node">
<title>github.com/go&#45;i2p/crypto/ecies.buildCiphertextResult</title>
<g id="a_node13"><a xlink:title="github.com/go&#45;i2p/crypto/ecies.buildCiphertextResult | defined in utils.go:111">
<path fill="#add8e6" stroke="#000000" stroke-width=".5" d="M423.023,-601C423.023,-601 299.7094,-601 299.7094,-601 293.7094,-601 287.7094,-595 287.7094,-589 287.7094,-589 287.7094,-577 287.7094,-577 287.7094,-571 293.7094,-565 299.7094,-565 299.7094,-565 423.023,-565 423.023,-565 429.023,-565 435.023,-571 435.023,-577 435.023,-577 435.023,-589 435.023,-589 435.023,-595 429.023,-601 423.023,-601"/>
<text text-anchor="middle" x="361.3662" y="-578.8" font-family="Verdana" font-size="14.00" fill="#000000">buildCiphertextResult</text>
</a>
</g>
</g>
<!-- github.com/go&#45;i2p/crypto/ecies.EncryptECIESX25519&#45;&gt;github.com/go&#45;i2p/crypto/ecies.buildCiphertextResult -->
<g id="edge12" class="edge">
<title>github.com/go&#45;i2p/crypto/ecies.EncryptECIESX25519&#45;&gt;github.com/go&#45;i2p/crypto/ecies.buildCiphertextResult</title>
<g id="a_edge12"><a xlink:title="at utils.go:41: calling [github.com/go&#45;i2p/crypto/ecies.buildCiphertextResult]">
<path fill="none" stroke="#000000" d="M116.6741,-479.0876C145.2362,-499.7027 194.8914,-533.1074 242.0786,-553 253.4131,-557.7783 265.6862,-561.9251 277.9017,-565.4827"/>
<polygon fill="#000000" stroke="#000000" points="277.094,-568.891 287.6669,-568.2104 278.9772,-562.1491 277.094,-568.891"/>
</a>
</g>
</g>
<!-- github.com/go&#45;i2p/crypto/ecies.generateEphemeralKeyPair&#45;&gt;go.step.sm/crypto/x25519.GenerateKey -->
<g id="edge22" class="edge">
<title>github.com/go&#45;i2p/crypto/ecies.generateEphemeralKeyPair&#45;&gt;go.step.sm/crypto/x25519.GenerateKey</title>
<g id="a_edge22"><a xlink:title="at utils.go:60: calling [go.step.sm/crypto/x25519.GenerateKey]">
<path fill="none" stroke="#8b4513" d="M450.5873,-654.4084C486.585,-658.6078 527.1377,-663.3386 559.3746,-667.0993"/>
<polygon fill="#8b4513" stroke="#8b4513" points="559.1944,-670.6019 569.5326,-668.2843 560.0056,-663.649 559.1944,-670.6019"/>
</a>
</g>
</g>
<!-- github.com/go&#45;i2p/crypto/ecies.generateEphemeralKeyPair&#45;&gt;github.com/samber/oops.Errorf -->
<g id="edge15" class="edge">
<title>github.com/go&#45;i2p/crypto/ecies.generateEphemeralKeyPair&#45;&gt;github.com/samber/oops.Errorf</title>
<g id="a_edge15"><a xlink:title="at utils.go:62: calling [github.com/samber/oops.Errorf]">
<path fill="none" stroke="#8b4513" d="M450.4649,-627.395C460.9845,-623.7658 471.2937,-619.3557 480.6538,-614 531.2644,-585.0414 575.7568,-532.3396 599.7381,-500.5112"/>
<polygon fill="#8b4513" stroke="#8b4513" points="602.8097,-502.2445 605.9463,-492.1246 597.1834,-498.0797 602.8097,-502.2445"/>
</a>
</g>
</g>
<!-- github.com/go&#45;i2p/crypto/ecies.deriveEncryptionKey&#45;&gt;github.com/samber/oops.Errorf -->
<g id="edge11" class="edge">
<title>github.com/go&#45;i2p/crypto/ecies.deriveEncryptionKey&#45;&gt;github.com/samber/oops.Errorf</title>
<g id="a_edge11"><a xlink:title="at utils.go:76: calling [github.com/samber/oops.Errorf]&#10;at utils.go:84: calling [github.com/samber/oops.Errorf]">
<path fill="none" stroke="#8b4513" d="M433.5626,-285.3852C450.5488,-290.0174 467.511,-297.3756 480.6538,-309 513.2332,-337.8155 489.9989,-365.6304 516.6538,-400 533.7681,-422.0676 559.1708,-440.5385 580.3277,-453.507"/>
<polygon fill="#8b4513" stroke="#8b4513" points="578.7144,-456.6197 589.0985,-458.7225 582.2922,-450.6031 578.7144,-456.6197"/>
</a>
</g>
</g>
<!-- golang.org/x/crypto/hkdf.New -->
<g id="node11" class="node">
<title>golang.org/x/crypto/hkdf.New</title>
<g id="a_node11"><a xlink:title="golang.org/x/crypto/hkdf.New | defined in hkdf.go:92">
<path fill="#ffe4b5" stroke="#000000" stroke-width="1.5" d="M633.5283,-296C633.5283,-296 603.5283,-296 603.5283,-296 597.5283,-296 591.5283,-290 591.5283,-284 591.5283,-284 591.5283,-272 591.5283,-272 591.5283,-266 597.5283,-260 603.5283,-260 603.5283,-260 633.5283,-260 633.5283,-260 639.5283,-260 645.5283,-266 645.5283,-272 645.5283,-272 645.5283,-284 645.5283,-284 645.5283,-290 639.5283,-296 633.5283,-296"/>
<text text-anchor="middle" x="618.5283" y="-282.2" font-family="Verdana" font-size="14.00" fill="#000000">hkdf</text>
<text text-anchor="middle" x="618.5283" y="-265.4" font-family="Verdana" font-size="14.00" fill="#000000">New</text>
</a>
</g>
</g>
<!-- github.com/go&#45;i2p/crypto/ecies.deriveEncryptionKey&#45;&gt;golang.org/x/crypto/hkdf.New -->
<g id="edge23" class="edge">
<title>github.com/go&#45;i2p/crypto/ecies.deriveEncryptionKey&#45;&gt;golang.org/x/crypto/hkdf.New</title>
<g id="a_edge23"><a xlink:title="at utils.go:81: calling [golang.org/x/crypto/hkdf.New]">
<path fill="none" stroke="#8b4513" d="M433.6845,-278C481.6191,-278 542.5485,-278 581.0564,-278"/>
<polygon fill="#8b4513" stroke="#8b4513" points="581.2937,-281.5001 591.2936,-278 581.2936,-274.5001 581.2937,-281.5001"/>
</a>
</g>
</g>
<!-- (go.step.sm/crypto/x25519.PrivateKey).SharedKey -->
<g id="node19" class="node">
<title>(go.step.sm/crypto/x25519.PrivateKey).SharedKey</title>
<g id="a_node19"><a xlink:title="(go.step.sm/crypto/x25519.PrivateKey).SharedKey | defined in x25519.go:101">
<path fill="#ffe4b5" stroke="#000000" stroke-width="1.5" d="M649.7221,-230C649.7221,-230 587.3345,-230 587.3345,-230 581.3345,-230 575.3345,-224 575.3345,-218 575.3345,-218 575.3345,-206 575.3345,-206 575.3345,-200 581.3345,-194 587.3345,-194 587.3345,-194 649.7221,-194 649.7221,-194 655.7221,-194 661.7221,-200 661.7221,-206 661.7221,-206 661.7221,-218 661.7221,-218 661.7221,-224 655.7221,-230 649.7221,-230"/>
<text text-anchor="middle" x="618.5283" y="-216.2" font-family="Verdana" font-size="14.00" fill="#000000">x25519</text>
<text text-anchor="middle" x="618.5283" y="-199.4" font-family="Verdana" font-size="14.00" fill="#000000">SharedKey</text>
</a>
</g>
</g>
<!-- github.com/go&#45;i2p/crypto/ecies.deriveEncryptionKey&#45;&gt;(go.step.sm/crypto/x25519.PrivateKey).SharedKey -->
<g id="edge10" class="edge">
<title>github.com/go&#45;i2p/crypto/ecies.deriveEncryptionKey&#45;&gt;(go.step.sm/crypto/x25519.PrivateKey).SharedKey</title>
<g id="a_edge10"><a xlink:title="at utils.go:74: calling [(go.step.sm/crypto/x25519.PrivateKey).SharedKey]">
<path fill="none" stroke="#8b4513" d="M433.62,-259.94C449.1429,-256.0289 465.4496,-251.8967 480.6538,-248 508.6857,-240.8156 539.8861,-232.6806 565.507,-225.9636"/>
<polygon fill="#8b4513" stroke="#8b4513" points="566.6103,-229.2927 575.3946,-223.3692 564.8337,-222.5218 566.6103,-229.2927"/>
</a>
</g>
</g>
<!-- github.com/go&#45;i2p/crypto/ecies.encryptWithAEAD&#45;&gt;github.com/samber/oops.Errorf -->
<g id="edge25" class="edge">
<title>github.com/go&#45;i2p/crypto/ecies.encryptWithAEAD&#45;&gt;github.com/samber/oops.Errorf</title>
<g id="a_edge25"><a xlink:title="at utils.go:95: calling [github.com/samber/oops.Errorf]&#10;at utils.go:101: calling [github.com/samber/oops.Errorf]">
<path fill="none" stroke="#8b4513" d="M427.931,-413.3625C445.4528,-417.9351 464.0814,-423.7698 480.6538,-431 498.0564,-438.5924 499.0299,-446.9365 516.6538,-454 536.5081,-461.9575 559.8468,-466.8352 579.1729,-469.7785"/>
<polygon fill="#8b4513" stroke="#8b4513" points="578.7703,-473.2562 589.1607,-471.1846 579.7463,-466.3246 578.7703,-473.2562"/>
</a>
</g>
</g>
<!-- github.com/go&#45;i2p/crypto/ecies.encryptWithAEAD&#45;&gt;golang.org/x/crypto/chacha20poly1305.New -->
<g id="edge17" class="edge">
<title>github.com/go&#45;i2p/crypto/ecies.encryptWithAEAD&#45;&gt;golang.org/x/crypto/chacha20poly1305.New</title>
<g id="a_edge17"><a xlink:title="at utils.go:93: calling [golang.org/x/crypto/chacha20poly1305.New]">
<path fill="none" stroke="#8b4513" d="M427.9263,-387.8352C463.2944,-381.3712 506.8951,-373.4025 543.4654,-366.7188"/>
<polygon fill="#8b4513" stroke="#8b4513" points="544.3732,-370.111 553.5809,-364.87 543.1146,-363.225 544.3732,-370.111"/>
</a>
</g>
</g>
<!-- github.com/go&#45;i2p/crypto/ecies.performKeyAgreementAndDerivation -->
<g id="node14" class="node">
<title>github.com/go&#45;i2p/crypto/ecies.performKeyAgreementAndDerivation</title>
<g id="a_node14"><a xlink:title="github.com/go&#45;i2p/crypto/ecies.performKeyAgreementAndDerivation | defined in utils.go:182&#10;at utils.go:188: calling [golang.org/x/crypto/hkdf.New]&#10;at utils.go:183: calling [(go.step.sm/crypto/x25519.PrivateKey).SharedKey]&#10;at utils.go:185: calling [github.com/samber/oops.Errorf]&#10;at utils.go:191: calling [github.com/samber/oops.Errorf]">
<path fill="#add8e6" stroke="#000000" stroke-width=".5" d="M468.4418,-235C468.4418,-235 254.2906,-235 254.2906,-235 248.2906,-235 242.2906,-229 242.2906,-223 242.2906,-223 242.2906,-211 242.2906,-211 242.2906,-205 248.2906,-199 254.2906,-199 254.2906,-199 468.4418,-199 468.4418,-199 474.4418,-199 480.4418,-205 480.4418,-211 480.4418,-211 480.4418,-223 480.4418,-223 480.4418,-229 474.4418,-235 468.4418,-235"/>
<text text-anchor="middle" x="361.3662" y="-212.8" font-family="Verdana" font-size="14.00" fill="#000000">performKeyAgreementAndDerivation</text>
</a>
</g>
</g>
<!-- github.com/go&#45;i2p/crypto/ecies.performKeyAgreementAndDerivation&#45;&gt;github.com/samber/oops.Errorf -->
<g id="edge6" class="edge">
<title>github.com/go&#45;i2p/crypto/ecies.performKeyAgreementAndDerivation&#45;&gt;github.com/samber/oops.Errorf</title>
<g id="a_edge6"><a xlink:title="at utils.go:185: calling [github.com/samber/oops.Errorf]&#10;at utils.go:191: calling [github.com/samber/oops.Errorf]">
<path fill="none" stroke="#8b4513" d="M459.3465,-235.0824C466.9508,-238.6478 474.1773,-242.9088 480.6538,-248 534.5862,-290.3966 517.2952,-325.8259 553.6538,-384 567.5149,-406.1778 584.9227,-430.1484 598.2155,-447.7709"/>
<polygon fill="#8b4513" stroke="#8b4513" points="595.5389,-450.0334 604.377,-455.8763 601.1116,-445.7972 595.5389,-450.0334"/>
</a>
</g>
</g>
<!-- github.com/go&#45;i2p/crypto/ecies.performKeyAgreementAndDerivation&#45;&gt;golang.org/x/crypto/hkdf.New -->
<g id="edge1" class="edge">
<title>github.com/go&#45;i2p/crypto/ecies.performKeyAgreementAndDerivation&#45;&gt;golang.org/x/crypto/hkdf.New</title>
<g id="a_edge1"><a xlink:title="at utils.go:188: calling [golang.org/x/crypto/hkdf.New]">
<path fill="none" stroke="#8b4513" d="M437.4795,-235.0544C484.9976,-246.3259 544.0551,-260.3346 581.5312,-269.2241"/>
<polygon fill="#8b4513" stroke="#8b4513" points="580.9637,-272.6866 591.5015,-271.5891 582.5794,-265.8755 580.9637,-272.6866"/>
</a>
</g>
</g>
<!-- github.com/go&#45;i2p/crypto/ecies.performKeyAgreementAndDerivation&#45;&gt;(go.step.sm/crypto/x25519.PrivateKey).SharedKey -->
<g id="edge5" class="edge">
<title>github.com/go&#45;i2p/crypto/ecies.performKeyAgreementAndDerivation&#45;&gt;(go.step.sm/crypto/x25519.PrivateKey).SharedKey</title>
<g id="a_edge5"><a xlink:title="at utils.go:183: calling [(go.step.sm/crypto/x25519.PrivateKey).SharedKey]">
<path fill="none" stroke="#8b4513" d="M480.5372,-214.683C510.1973,-214.1063 540.5287,-213.5165 565.1733,-213.0374"/>
<polygon fill="#8b4513" stroke="#8b4513" points="565.4385,-216.533 575.3685,-212.8392 565.3023,-209.5343 565.4385,-216.533"/>
</a>
</g>
</g>
<!-- github.com/go&#45;i2p/crypto/ecies.DecryptECIESX25519 -->
<g id="node15" class="node">
<title>github.com/go&#45;i2p/crypto/ecies.DecryptECIESX25519</title>
<g id="a_node15"><a xlink:title="github.com/go&#45;i2p/crypto/ecies.DecryptECIESX25519 | defined in utils.go:130&#10;at utils.go:135: calling [github.com/go&#45;i2p/crypto/ecies.extractCiphertextComponents]&#10;at utils.go:139: calling [github.com/go&#45;i2p/crypto/ecies.performKeyAgreementAndDerivation]&#10;at utils.go:144: calling [github.com/go&#45;i2p/crypto/ecies.decryptWithAEAD]&#10;at utils.go:137: calling [github.com/go&#45;i2p/crypto/ecies.convertKeysToX25519Format]&#10;at utils.go:131: calling [github.com/go&#45;i2p/crypto/ecies.validateDecryptionInputs]">
<path fill="#add8e6" stroke="#000000" stroke-width="1.5" d="M157.1179,-174C157.1179,-174 27.9607,-174 27.9607,-174 21.9607,-174 15.9607,-168 15.9607,-162 15.9607,-162 15.9607,-150 15.9607,-150 15.9607,-144 21.9607,-138 27.9607,-138 27.9607,-138 157.1179,-138 157.1179,-138 163.1179,-138 169.1179,-144 169.1179,-150 169.1179,-150 169.1179,-162 169.1179,-162 169.1179,-168 163.1179,-174 157.1179,-174"/>
<text text-anchor="middle" x="92.5393" y="-151.8" font-family="Verdana" font-size="14.00" fill="#000000">DecryptECIESX25519</text>
</a>
</g>
</g>
<!-- github.com/go&#45;i2p/crypto/ecies.DecryptECIESX25519&#45;&gt;github.com/go&#45;i2p/crypto/ecies.decryptWithAEAD -->
<g id="edge8" class="edge">
<title>github.com/go&#45;i2p/crypto/ecies.DecryptECIESX25519&#45;&gt;github.com/go&#45;i2p/crypto/ecies.decryptWithAEAD</title>
<g id="a_edge8"><a xlink:title="at utils.go:144: calling [github.com/go&#45;i2p/crypto/ecies.decryptWithAEAD]">
<path fill="none" stroke="#000000" d="M105.032,-174.2531C128.1568,-206.5898 180.8923,-273.8361 242.0786,-309 255.2161,-316.5502 270.2353,-322.2197 285.0837,-326.471"/>
<polygon fill="#000000" stroke="#000000" points="284.2305,-329.8658 294.7951,-329.0655 286.0373,-323.1029 284.2305,-329.8658"/>
</a>
</g>
</g>
<!-- github.com/go&#45;i2p/crypto/ecies.DecryptECIESX25519&#45;&gt;github.com/go&#45;i2p/crypto/ecies.performKeyAgreementAndDerivation -->
<g id="edge7" class="edge">
<title>github.com/go&#45;i2p/crypto/ecies.DecryptECIESX25519&#45;&gt;github.com/go&#45;i2p/crypto/ecies.performKeyAgreementAndDerivation</title>
<g id="a_edge7"><a xlink:title="at utils.go:139: calling [github.com/go&#45;i2p/crypto/ecies.performKeyAgreementAndDerivation]">
<path fill="none" stroke="#000000" d="M169.2145,-173.3985C201.1403,-180.6428 238.4316,-189.1047 271.6227,-196.6361"/>
<polygon fill="#000000" stroke="#000000" points="271.2546,-200.1415 281.7813,-198.9412 272.8037,-193.3151 271.2546,-200.1415"/>
</a>
</g>
</g>
<!-- github.com/go&#45;i2p/crypto/ecies.validateDecryptionInputs -->
<g id="node16" class="node">
<title>github.com/go&#45;i2p/crypto/ecies.validateDecryptionInputs</title>
<g id="a_node16"><a xlink:title="github.com/go&#45;i2p/crypto/ecies.validateDecryptionInputs | defined in utils.go:153">
<path fill="#add8e6" stroke="#000000" stroke-width=".5" d="M432.6555,-52C432.6555,-52 290.0769,-52 290.0769,-52 284.0769,-52 278.0769,-46 278.0769,-40 278.0769,-40 278.0769,-28 278.0769,-28 278.0769,-22 284.0769,-16 290.0769,-16 290.0769,-16 432.6555,-16 432.6555,-16 438.6555,-16 444.6555,-22 444.6555,-28 444.6555,-28 444.6555,-40 444.6555,-40 444.6555,-46 438.6555,-52 432.6555,-52"/>
<text text-anchor="middle" x="361.3662" y="-29.8" font-family="Verdana" font-size="14.00" fill="#000000">validateDecryptionInputs</text>
</a>
</g>
</g>
<!-- github.com/go&#45;i2p/crypto/ecies.DecryptECIESX25519&#45;&gt;github.com/go&#45;i2p/crypto/ecies.validateDecryptionInputs -->
<g id="edge19" class="edge">
<title>github.com/go&#45;i2p/crypto/ecies.DecryptECIESX25519&#45;&gt;github.com/go&#45;i2p/crypto/ecies.validateDecryptionInputs</title>
<g id="a_edge19"><a xlink:title="at utils.go:131: calling [github.com/go&#45;i2p/crypto/ecies.validateDecryptionInputs]">
<path fill="none" stroke="#000000" d="M117.2477,-137.8256C145.9448,-117.4825 195.3414,-84.7857 242.0786,-65 250.7071,-61.3472 259.8739,-58.0371 269.1424,-55.0592"/>
<polygon fill="#000000" stroke="#000000" points="270.2947,-58.3666 278.8197,-52.0758 268.2324,-51.6773 270.2947,-58.3666"/>
</a>
</g>
</g>
<!-- github.com/go&#45;i2p/crypto/ecies.extractCiphertextComponents -->
<g id="node17" class="node">
<title>github.com/go&#45;i2p/crypto/ecies.extractCiphertextComponents</title>
<g id="a_node17"><a xlink:title="github.com/go&#45;i2p/crypto/ecies.extractCiphertextComponents | defined in utils.go:167">
<path fill="#add8e6" stroke="#000000" stroke-width=".5" d="M445.327,-113C445.327,-113 277.4054,-113 277.4054,-113 271.4054,-113 265.4054,-107 265.4054,-101 265.4054,-101 265.4054,-89 265.4054,-89 265.4054,-83 271.4054,-77 277.4054,-77 277.4054,-77 445.327,-77 445.327,-77 451.327,-77 457.327,-83 457.327,-89 457.327,-89 457.327,-101 457.327,-101 457.327,-107 451.327,-113 445.327,-113"/>
<text text-anchor="middle" x="361.3662" y="-90.8" font-family="Verdana" font-size="14.00" fill="#000000">extractCiphertextComponents</text>
</a>
</g>
</g>
<!-- github.com/go&#45;i2p/crypto/ecies.DecryptECIESX25519&#45;&gt;github.com/go&#45;i2p/crypto/ecies.extractCiphertextComponents -->
<g id="edge2" class="edge">
<title>github.com/go&#45;i2p/crypto/ecies.DecryptECIESX25519&#45;&gt;github.com/go&#45;i2p/crypto/ecies.extractCiphertextComponents</title>
<g id="a_edge2"><a xlink:title="at utils.go:135: calling [github.com/go&#45;i2p/crypto/ecies.extractCiphertextComponents]">
<path fill="none" stroke="#000000" d="M169.2145,-138.6015C201.1403,-131.3572 238.4316,-122.8953 271.6227,-115.3639"/>
<polygon fill="#000000" stroke="#000000" points="272.8037,-118.6849 281.7813,-113.0588 271.2546,-111.8585 272.8037,-118.6849"/>
</a>
</g>
</g>
<!-- github.com/go&#45;i2p/crypto/ecies.convertKeysToX25519Format -->
<g id="node18" class="node">
<title>github.com/go&#45;i2p/crypto/ecies.convertKeysToX25519Format</title>
<g id="a_node18"><a xlink:title="github.com/go&#45;i2p/crypto/ecies.convertKeysToX25519Format | defined in utils.go:175">
<path fill="#add8e6" stroke="#000000" stroke-width=".5" d="M447.2107,-174C447.2107,-174 275.5217,-174 275.5217,-174 269.5217,-174 263.5217,-168 263.5217,-162 263.5217,-162 263.5217,-150 263.5217,-150 263.5217,-144 269.5217,-138 275.5217,-138 275.5217,-138 447.2107,-138 447.2107,-138 453.2107,-138 459.2107,-144 459.2107,-150 459.2107,-150 459.2107,-162 459.2107,-162 459.2107,-168 453.2107,-174 447.2107,-174"/>
<text text-anchor="middle" x="361.3662" y="-151.8" font-family="Verdana" font-size="14.00" fill="#000000">convertKeysToX25519Format</text>
</a>
</g>
</g>
<!-- github.com/go&#45;i2p/crypto/ecies.DecryptECIESX25519&#45;&gt;github.com/go&#45;i2p/crypto/ecies.convertKeysToX25519Format -->
<g id="edge13" class="edge">
<title>github.com/go&#45;i2p/crypto/ecies.DecryptECIESX25519&#45;&gt;github.com/go&#45;i2p/crypto/ecies.convertKeysToX25519Format</title>
<g id="a_edge13"><a xlink:title="at utils.go:137: calling [github.com/go&#45;i2p/crypto/ecies.convertKeysToX25519Format]">
<path fill="none" stroke="#000000" d="M169.2145,-156C195.3376,-156 225.053,-156 253.1751,-156"/>
<polygon fill="#000000" stroke="#000000" points="253.4542,-159.5001 263.4542,-156 253.4542,-152.5001 253.4542,-159.5001"/>
</a>
</g>
</g>
</g>
</svg>
