<?xml version="1.0" encoding="UTF-8" standalone="no"?>
<!DOCTYPE svg PUBLIC "-//W3C//DTD SVG 1.1//EN"
 "http://www.w3.org/Graphics/SVG/1.1/DTD/svg11.dtd">
<!-- Generated by graphviz version 2.40.1 (20161225.0304)
 -->
<!-- Title: gocallvis Pages: 1 -->
<svg width="691pt" height="870pt"
 viewBox="0.00 0.00 691.20 870.00" xmlns="http://www.w3.org/2000/svg" xmlns:xlink="http://www.w3.org/1999/xlink">
<g id="graph0" class="graph" transform="scale(1 1) rotate(0) translate(0 870)">
<title>gocallvis</title>
<polygon fill="#d3d3d3" stroke="transparent" points="0,0 0,-870 691.1952,-870 691.1952,0 0,0"/>
<g id="clust1" class="cluster">
<title>cluster_focus</title>
<polygon fill="#e6ecfa" stroke="#000000" stroke-width=".5" points="0,-8 0,-862 683.1952,-862 683.1952,-8 0,-8"/>
<text text-anchor="middle" x="341.5976" y="-841.8" font-family="Arial" font-size="18.00" fill="#000000">ed25519</text>
</g>
<g id="clust7" class="cluster">
<title>cluster_github.com/go&#45;i2p/crypto/ed25519.Ed25519PrivateKey</title>
<g id="a_clust7"><a xlink:title="type: github.com/go&#45;i2p/crypto/ed25519.Ed25519PrivateKey">
<path fill="#b0c4de" stroke="#000000" stroke-width=".5" d="M296.3781,-87C296.3781,-87 430.3543,-87 430.3543,-87 436.3543,-87 442.3543,-93 442.3543,-99 442.3543,-99 442.3543,-275 442.3543,-275 442.3543,-281 436.3543,-287 430.3543,-287 430.3543,-287 296.3781,-287 296.3781,-287 290.3781,-287 284.3781,-281 284.3781,-275 284.3781,-275 284.3781,-99 284.3781,-99 284.3781,-93 290.3781,-87 296.3781,-87"/>
<text text-anchor="middle" x="363.3662" y="-95.5" font-family="Arial" font-size="15.00" fill="#222222">(Ed25519PrivateKey)</text>
</a>
</g>
</g>
<g id="clust6" class="cluster">
<title>cluster_*github.com/sirupsen/logrus.Logger</title>
<g id="a_clust6"><a xlink:title="type: *github.com/sirupsen/logrus.Logger">
<path fill="#eed8ae" stroke="#000000" stroke-width=".5" d="M587.9399,-676C587.9399,-676 642.2611,-676 642.2611,-676 648.2611,-676 654.2611,-682 654.2611,-688 654.2611,-688 654.2611,-742 654.2611,-742 654.2611,-748 648.2611,-754 642.2611,-754 642.2611,-754 587.9399,-754 587.9399,-754 581.9399,-754 575.9399,-748 575.9399,-742 575.9399,-742 575.9399,-688 575.9399,-688 575.9399,-682 581.9399,-676 587.9399,-676"/>
<text text-anchor="middle" x="615.1005" y="-684.5" font-family="Arial" font-size="15.00" fill="#222222">(*Logger)</text>
</a>
</g>
</g>
<g id="clust5" class="cluster">
<title>cluster_*github.com/go&#45;i2p/logger.Logger</title>
<g id="a_clust5"><a xlink:title="type: *github.com/go&#45;i2p/logger.Logger">
<path fill="#eed8ae" stroke="#000000" stroke-width=".5" d="M575.4911,-361C575.4911,-361 653.7099,-361 653.7099,-361 659.7099,-361 665.7099,-367 665.7099,-373 665.7099,-373 665.7099,-610 665.7099,-610 665.7099,-616 659.7099,-622 653.7099,-622 653.7099,-622 575.4911,-622 575.4911,-622 569.4911,-622 563.4911,-616 563.4911,-610 563.4911,-610 563.4911,-373 563.4911,-373 563.4911,-367 569.4911,-361 575.4911,-361"/>
<text text-anchor="middle" x="614.6005" y="-369.5" font-family="Arial" font-size="15.00" fill="#222222">(*Logger)</text>
</a>
</g>
</g>
<g id="clust4" class="cluster">
<title>cluster_*github.com/go&#45;i2p/crypto/ed25519.Ed25519Verifier</title>
<g id="a_clust4"><a xlink:title="type: *github.com/go&#45;i2p/crypto/ed25519.Ed25519Verifier">
<path fill="#b0c4de" stroke="#000000" stroke-width=".5" d="M63.0968,-409C63.0968,-409 403.5156,-409 403.5156,-409 409.5156,-409 415.5156,-415 415.5156,-421 415.5156,-421 415.5156,-475 415.5156,-475 415.5156,-481 409.5156,-487 403.5156,-487 403.5156,-487 63.0968,-487 63.0968,-487 57.0968,-487 51.0968,-481 51.0968,-475 51.0968,-475 51.0968,-421 51.0968,-421 51.0968,-415 57.0968,-409 63.0968,-409"/>
<text text-anchor="middle" x="233.3062" y="-417.5" font-family="Arial" font-size="15.00" fill="#222222">(*Ed25519Verifier)</text>
</a>
</g>
</g>
<g id="clust3" class="cluster">
<title>cluster_*github.com/go&#45;i2p/crypto/ed25519.Ed25519Signer</title>
<g id="a_clust3"><a xlink:title="type: *github.com/go&#45;i2p/crypto/ed25519.Ed25519Signer">
<path fill="#b0c4de" stroke="#000000" stroke-width=".5" d="M66.3633,-727C66.3633,-727 398.0857,-727 398.0857,-727 404.0857,-727 410.0857,-733 410.0857,-739 410.0857,-739 410.0857,-793 410.0857,-793 410.0857,-799 404.0857,-805 398.0857,-805 398.0857,-805 66.3633,-805 66.3633,-805 60.3633,-805 54.3633,-799 54.3633,-793 54.3633,-793 54.3633,-739 54.3633,-739 54.3633,-733 60.3633,-727 66.3633,-727"/>
<text text-anchor="middle" x="232.2245" y="-735.5" font-family="Arial" font-size="15.00" fill="#222222">(*Ed25519Signer)</text>
</a>
</g>
</g>
<g id="clust2" class="cluster">
<title>cluster_*github.com/go&#45;i2p/crypto/ed25519.Ed25519PrivateKey</title>
<g id="a_clust2"><a xlink:title="type: *github.com/go&#45;i2p/crypto/ed25519.Ed25519PrivateKey">
<path fill="#b0c4de" stroke="#000000" stroke-width=".5" d="M20,-63C20,-63 159.7266,-63 159.7266,-63 165.7266,-63 171.7266,-69 171.7266,-75 171.7266,-75 171.7266,-129 171.7266,-129 171.7266,-135 165.7266,-141 159.7266,-141 159.7266,-141 20,-141 20,-141 14,-141 8,-135 8,-129 8,-129 8,-75 8,-75 8,-69 14,-63 20,-63"/>
<text text-anchor="middle" x="89.8633" y="-71.5" font-family="Arial" font-size="15.00" fill="#222222">(*Ed25519PrivateKey)</text>
</a>
</g>
</g>
<!-- github.com/samber/oops.Errorf -->
<g id="node1" class="node">
<title>github.com/samber/oops.Errorf</title>
<g id="a_node1"><a xlink:title="github.com/samber/oops.Errorf | defined in oops.go:34">
<path fill="#ffe4b5" stroke="#000000" stroke-width="1.5" d="M631.7958,-247C631.7958,-247 597.4052,-247 597.4052,-247 591.4052,-247 585.4052,-241 585.4052,-235 585.4052,-235 585.4052,-223 585.4052,-223 585.4052,-217 591.4052,-211 597.4052,-211 597.4052,-211 631.7958,-211 631.7958,-211 637.7958,-211 643.7958,-217 643.7958,-223 643.7958,-223 643.7958,-235 643.7958,-235 643.7958,-241 637.7958,-247 631.7958,-247"/>
<text text-anchor="middle" x="614.6005" y="-233.2" font-family="Verdana" font-size="14.00" fill="#000000">oops</text>
<text text-anchor="middle" x="614.6005" y="-216.4" font-family="Verdana" font-size="14.00" fill="#000000">Errorf</text>
</a>
</g>
</g>
<!-- github.com/go&#45;i2p/crypto/ed25519.CreateEd25519PublicKeyFromBytes -->
<g id="node2" class="node">
<title>github.com/go&#45;i2p/crypto/ed25519.CreateEd25519PublicKeyFromBytes</title>
<g id="a_node2"><a xlink:title="github.com/go&#45;i2p/crypto/ed25519.CreateEd25519PublicKeyFromBytes | defined in ed25519_public_key.go:46&#10;at ed25519_public_key.go:47: calling [(*github.com/go&#45;i2p/logger.Logger).WithField]&#10;at ed25519_public_key.go:50: calling [(*github.com/go&#45;i2p/logger.Logger).WithField]&#10;at ed25519_public_key.go:47: calling [(*github.com/sirupsen/logrus.Logger).Debug]&#10;at ed25519_public_key.go:55: calling [(*github.com/sirupsen/logrus.Logger).Debug]&#10;at ed25519_public_key.go:50: calling [(*github.com/go&#45;i2p/logger.Logger).Error]">
<path fill="#add8e6" stroke="#000000" stroke-width="1.5" d="M467.2706,-621C467.2706,-621 258.4618,-621 258.4618,-621 252.4618,-621 246.4618,-615 246.4618,-609 246.4618,-609 246.4618,-597 246.4618,-597 246.4618,-591 252.4618,-585 258.4618,-585 258.4618,-585 467.2706,-585 467.2706,-585 473.2706,-585 479.2706,-591 479.2706,-597 479.2706,-597 479.2706,-609 479.2706,-609 479.2706,-615 473.2706,-621 467.2706,-621"/>
<text text-anchor="middle" x="362.8662" y="-598.8" font-family="Verdana" font-size="14.00" fill="#000000">CreateEd25519PublicKeyFromBytes</text>
</a>
</g>
</g>
<!-- (*github.com/go&#45;i2p/logger.Logger).WithField -->
<g id="node13" class="node">
<title>(*github.com/go&#45;i2p/logger.Logger).WithField</title>
<g id="a_node13"><a xlink:title="(*github.com/go&#45;i2p/logger.Logger).WithField | defined in log.go:54">
<path fill="#ffe4b5" stroke="#000000" stroke-width="1.5" d="M642.875,-614C642.875,-614 586.326,-614 586.326,-614 580.326,-614 574.326,-608 574.326,-602 574.326,-602 574.326,-590 574.326,-590 574.326,-584 580.326,-578 586.326,-578 586.326,-578 642.875,-578 642.875,-578 648.875,-578 654.875,-584 654.875,-590 654.875,-590 654.875,-602 654.875,-602 654.875,-608 648.875,-614 642.875,-614"/>
<text text-anchor="middle" x="614.6005" y="-600.2" font-family="Verdana" font-size="14.00" fill="#000000">logger</text>
<text text-anchor="middle" x="614.6005" y="-583.4" font-family="Verdana" font-size="14.00" fill="#000000">WithField</text>
</a>
</g>
</g>
<!-- github.com/go&#45;i2p/crypto/ed25519.CreateEd25519PublicKeyFromBytes&#45;&gt;(*github.com/go&#45;i2p/logger.Logger).WithField -->
<g id="edge1" class="edge">
<title>github.com/go&#45;i2p/crypto/ed25519.CreateEd25519PublicKeyFromBytes&#45;&gt;(*github.com/go&#45;i2p/logger.Logger).WithField</title>
<g id="a_edge1"><a xlink:title="at ed25519_public_key.go:47: calling [(*github.com/go&#45;i2p/logger.Logger).WithField]&#10;at ed25519_public_key.go:50: calling [(*github.com/go&#45;i2p/logger.Logger).WithField]">
<path fill="none" stroke="#8b4513" d="M479.1541,-599.7664C509.0256,-598.9357 539.6208,-598.085 564.1576,-597.4027"/>
<polygon fill="#8b4513" stroke="#8b4513" points="564.3838,-600.8978 574.2827,-597.1211 564.1892,-593.9005 564.3838,-600.8978"/>
</a>
</g>
</g>
<!-- (*github.com/go&#45;i2p/logger.Logger).Error -->
<g id="node14" class="node">
<title>(*github.com/go&#45;i2p/logger.Logger).Error</title>
<g id="a_node14"><a xlink:title="(*github.com/go&#45;i2p/logger.Logger).Error | defined in log.go:42">
<path fill="#ffe4b5" stroke="#000000" stroke-width="1.5" d="M632.3668,-492C632.3668,-492 596.8342,-492 596.8342,-492 590.8342,-492 584.8342,-486 584.8342,-480 584.8342,-480 584.8342,-468 584.8342,-468 584.8342,-462 590.8342,-456 596.8342,-456 596.8342,-456 632.3668,-456 632.3668,-456 638.3668,-456 644.3668,-462 644.3668,-468 644.3668,-468 644.3668,-480 644.3668,-480 644.3668,-486 638.3668,-492 632.3668,-492"/>
<text text-anchor="middle" x="614.6005" y="-478.2" font-family="Verdana" font-size="14.00" fill="#000000">logger</text>
<text text-anchor="middle" x="614.6005" y="-461.4" font-family="Verdana" font-size="14.00" fill="#000000">Error</text>
</a>
</g>
</g>
<!-- github.com/go&#45;i2p/crypto/ed25519.CreateEd25519PublicKeyFromBytes&#45;&gt;(*github.com/go&#45;i2p/logger.Logger).Error -->
<g id="edge22" class="edge">
<title>github.com/go&#45;i2p/crypto/ed25519.CreateEd25519PublicKeyFromBytes&#45;&gt;(*github.com/go&#45;i2p/logger.Logger).Error</title>
<g id="a_edge22"><a xlink:title="at ed25519_public_key.go:50: calling [(*github.com/go&#45;i2p/logger.Logger).Error]">
<path fill="none" stroke="#8b4513" d="M436.2436,-584.9413C451.4991,-579.8442 467.141,-573.5708 481.0058,-566 518.1147,-545.7371 518.7438,-528.3291 554.0058,-505 560.7273,-500.5531 568.1682,-496.2753 575.4682,-492.3922"/>
<polygon fill="#8b4513" stroke="#8b4513" points="577.2874,-495.3923 584.5747,-487.7016 574.082,-489.1693 577.2874,-495.3923"/>
</a>
</g>
</g>
<!-- (*github.com/sirupsen/logrus.Logger).Debug -->
<g id="node17" class="node">
<title>(*github.com/sirupsen/logrus.Logger).Debug</title>
<g id="a_node17"><a xlink:title="(*github.com/sirupsen/logrus.Logger).Debug | defined in logger.go:221">
<path fill="#ffe4b5" stroke="#000000" stroke-width="1.5" d="M633.4225,-746C633.4225,-746 595.7785,-746 595.7785,-746 589.7785,-746 583.7785,-740 583.7785,-734 583.7785,-734 583.7785,-722 583.7785,-722 583.7785,-716 589.7785,-710 595.7785,-710 595.7785,-710 633.4225,-710 633.4225,-710 639.4225,-710 645.4225,-716 645.4225,-722 645.4225,-722 645.4225,-734 645.4225,-734 645.4225,-740 639.4225,-746 633.4225,-746"/>
<text text-anchor="middle" x="614.6005" y="-732.2" font-family="Verdana" font-size="14.00" fill="#000000">logrus</text>
<text text-anchor="middle" x="614.6005" y="-715.4" font-family="Verdana" font-size="14.00" fill="#000000">Debug</text>
</a>
</g>
</g>
<!-- github.com/go&#45;i2p/crypto/ed25519.CreateEd25519PublicKeyFromBytes&#45;&gt;(*github.com/sirupsen/logrus.Logger).Debug -->
<g id="edge4" class="edge">
<title>github.com/go&#45;i2p/crypto/ed25519.CreateEd25519PublicKeyFromBytes&#45;&gt;(*github.com/sirupsen/logrus.Logger).Debug</title>
<g id="a_edge4"><a xlink:title="at ed25519_public_key.go:47: calling [(*github.com/sirupsen/logrus.Logger).Debug]&#10;at ed25519_public_key.go:55: calling [(*github.com/sirupsen/logrus.Logger).Debug]">
<path fill="none" stroke="#8b4513" d="M451.5487,-621.0275C461.7832,-624.6229 471.8285,-628.906 481.0058,-634 500.2481,-644.6808 499.5395,-654.6107 517.0058,-668 535.018,-681.8078 556.3632,-695.2273 574.4914,-705.8612"/>
<polygon fill="#8b4513" stroke="#8b4513" points="573.2347,-709.1776 583.6433,-711.1555 576.7399,-703.1184 573.2347,-709.1776"/>
</a>
</g>
</g>
<!-- github.com/go&#45;i2p/crypto/ed25519.init -->
<g id="node3" class="node">
<title>github.com/go&#45;i2p/crypto/ed25519.init</title>
<g id="a_node3"><a xlink:title="github.com/go&#45;i2p/crypto/ed25519.init | defined in .:0&#10;at constants.go:15: calling [github.com/samber/oops.Errorf]&#10;at constants.go:10: calling [github.com/go&#45;i2p/logger.GetGoI2PLogger]">
<path fill="#add8e6" stroke="#000000" stroke-width=".5" d="M377.8662,-401C377.8662,-401 347.8662,-401 347.8662,-401 341.8662,-401 335.8662,-395 335.8662,-389 335.8662,-389 335.8662,-377 335.8662,-377 335.8662,-371 341.8662,-365 347.8662,-365 347.8662,-365 377.8662,-365 377.8662,-365 383.8662,-365 389.8662,-371 389.8662,-377 389.8662,-377 389.8662,-389 389.8662,-389 389.8662,-395 383.8662,-401 377.8662,-401"/>
<text text-anchor="middle" x="362.8662" y="-378.8" font-family="Verdana" font-size="14.00" fill="#000000">init</text>
</a>
</g>
</g>
<!-- github.com/go&#45;i2p/crypto/ed25519.init&#45;&gt;github.com/samber/oops.Errorf -->
<g id="edge7" class="edge">
<title>github.com/go&#45;i2p/crypto/ed25519.init&#45;&gt;github.com/samber/oops.Errorf</title>
<g id="a_edge7"><a xlink:title="at constants.go:15: calling [github.com/samber/oops.Errorf]">
<path fill="none" stroke="#8b4513" d="M389.8836,-381.3989C415.331,-378.7443 453.5429,-371.6969 481.0058,-353 503.641,-337.5898 497.884,-322.6006 517.0058,-303 535.3727,-284.1732 558.7755,-266.2635 578.0597,-252.78"/>
<polygon fill="#8b4513" stroke="#8b4513" points="580.0661,-255.648 586.3206,-247.0962 576.0983,-249.8811 580.0661,-255.648"/>
</a>
</g>
</g>
<!-- github.com/go&#45;i2p/logger.GetGoI2PLogger -->
<g id="node4" class="node">
<title>github.com/go&#45;i2p/logger.GetGoI2PLogger</title>
<g id="a_node4"><a xlink:title="github.com/go&#45;i2p/logger.GetGoI2PLogger | defined in log.go:120">
<path fill="#ffe4b5" stroke="#000000" stroke-width="1.5" d="M663.29,-353C663.29,-353 565.911,-353 565.911,-353 559.911,-353 553.911,-347 553.911,-341 553.911,-341 553.911,-329 553.911,-329 553.911,-323 559.911,-317 565.911,-317 565.911,-317 663.29,-317 663.29,-317 669.29,-317 675.29,-323 675.29,-329 675.29,-329 675.29,-341 675.29,-341 675.29,-347 669.29,-353 663.29,-353"/>
<text text-anchor="middle" x="614.6005" y="-339.2" font-family="Verdana" font-size="14.00" fill="#000000">logger</text>
<text text-anchor="middle" x="614.6005" y="-322.4" font-family="Verdana" font-size="14.00" fill="#000000">GetGoI2PLogger</text>
</a>
</g>
</g>
<!-- github.com/go&#45;i2p/crypto/ed25519.init&#45;&gt;github.com/go&#45;i2p/logger.GetGoI2PLogger -->
<g id="edge23" class="edge">
<title>github.com/go&#45;i2p/crypto/ed25519.init&#45;&gt;github.com/go&#45;i2p/logger.GetGoI2PLogger</title>
<g id="a_edge23"><a xlink:title="at constants.go:10: calling [github.com/go&#45;i2p/logger.GetGoI2PLogger]">
<path fill="none" stroke="#8b4513" d="M390.2854,-377.7718C426.8418,-370.8013 492.8542,-358.2143 543.8375,-348.4929"/>
<polygon fill="#8b4513" stroke="#8b4513" points="544.6532,-351.9005 553.8206,-346.5893 543.342,-345.0244 544.6532,-351.9005"/>
</a>
</g>
</g>
<!-- github.com/go&#45;i2p/crypto/ed25519.GenerateEd25519Key -->
<g id="node5" class="node">
<title>github.com/go&#45;i2p/crypto/ed25519.GenerateEd25519Key</title>
<g id="a_node5"><a xlink:title="github.com/go&#45;i2p/crypto/ed25519.GenerateEd25519Key | defined in utils.go:14&#10;at utils.go:17: calling [github.com/samber/oops.Errorf]">
<path fill="#add8e6" stroke="#000000" stroke-width="1.5" d="M425.2567,-340C425.2567,-340 300.4757,-340 300.4757,-340 294.4757,-340 288.4757,-334 288.4757,-328 288.4757,-328 288.4757,-316 288.4757,-316 288.4757,-310 294.4757,-304 300.4757,-304 300.4757,-304 425.2567,-304 425.2567,-304 431.2567,-304 437.2567,-310 437.2567,-316 437.2567,-316 437.2567,-328 437.2567,-328 437.2567,-334 431.2567,-340 425.2567,-340"/>
<text text-anchor="middle" x="362.8662" y="-317.8" font-family="Verdana" font-size="14.00" fill="#000000">GenerateEd25519Key</text>
</a>
</g>
</g>
<!-- github.com/go&#45;i2p/crypto/ed25519.GenerateEd25519Key&#45;&gt;github.com/samber/oops.Errorf -->
<g id="edge8" class="edge">
<title>github.com/go&#45;i2p/crypto/ed25519.GenerateEd25519Key&#45;&gt;github.com/samber/oops.Errorf</title>
<g id="a_edge8"><a xlink:title="at utils.go:17: calling [github.com/samber/oops.Errorf]">
<path fill="none" stroke="#8b4513" d="M437.2944,-306.2091C451.9471,-302.4079 467.0871,-297.9821 481.0058,-293 483.4821,-292.1136 537.3748,-266.2122 575.9424,-247.6367"/>
<polygon fill="#8b4513" stroke="#8b4513" points="577.8869,-250.585 585.377,-243.0916 574.8488,-244.2786 577.8869,-250.585"/>
</a>
</g>
</g>
<!-- github.com/go&#45;i2p/crypto/ed25519.CreateEd25519PrivateKeyFromBytes -->
<g id="node6" class="node">
<title>github.com/go&#45;i2p/crypto/ed25519.CreateEd25519PrivateKeyFromBytes</title>
<g id="a_node6"><a xlink:title="github.com/go&#45;i2p/crypto/ed25519.CreateEd25519PrivateKeyFromBytes | defined in ed25519_private_key.go:74&#10;at ed25519_private_key.go:76: calling [github.com/samber/oops.Errorf]">
<path fill="#add8e6" stroke="#000000" stroke-width="1.5" d="M469.1456,-52C469.1456,-52 256.5868,-52 256.5868,-52 250.5868,-52 244.5868,-46 244.5868,-40 244.5868,-40 244.5868,-28 244.5868,-28 244.5868,-22 250.5868,-16 256.5868,-16 256.5868,-16 469.1456,-16 469.1456,-16 475.1456,-16 481.1456,-22 481.1456,-28 481.1456,-28 481.1456,-40 481.1456,-40 481.1456,-46 475.1456,-52 469.1456,-52"/>
<text text-anchor="middle" x="362.8662" y="-29.8" font-family="Verdana" font-size="14.00" fill="#000000">CreateEd25519PrivateKeyFromBytes</text>
</a>
</g>
</g>
<!-- github.com/go&#45;i2p/crypto/ed25519.CreateEd25519PrivateKeyFromBytes&#45;&gt;github.com/samber/oops.Errorf -->
<g id="edge25" class="edge">
<title>github.com/go&#45;i2p/crypto/ed25519.CreateEd25519PrivateKeyFromBytes&#45;&gt;github.com/samber/oops.Errorf</title>
<g id="a_edge25"><a xlink:title="at ed25519_private_key.go:76: calling [github.com/samber/oops.Errorf]">
<path fill="none" stroke="#8b4513" d="M481.1994,-51.6638C494.3136,-56.6236 506.9154,-62.9462 518.0058,-71 563.3481,-103.9275 591.7245,-165.258 605.219,-201.0525"/>
<polygon fill="#8b4513" stroke="#8b4513" points="602.0762,-202.6517 608.7822,-210.8542 608.655,-200.2601 602.0762,-202.6517"/>
</a>
</g>
</g>
<!-- github.com/go&#45;i2p/crypto/ed25519.createEd25519PublicKey -->
<g id="node7" class="node">
<title>github.com/go&#45;i2p/crypto/ed25519.createEd25519PublicKey</title>
<g id="a_node7"><a xlink:title="github.com/go&#45;i2p/crypto/ed25519.createEd25519PublicKey | defined in ed25519_public_key.go:33&#10;at ed25519_public_key.go:41: calling [(*github.com/go&#45;i2p/logger.Logger).Warn]&#10;at ed25519_public_key.go:34: calling [(*github.com/sirupsen/logrus.Logger).Debug]&#10;at ed25519_public_key.go:39: calling [(*github.com/sirupsen/logrus.Logger).Debug]&#10;at ed25519_public_key.go:34: calling [(*github.com/go&#45;i2p/logger.Logger).WithField]">
<path fill="#add8e6" stroke="#000000" stroke-width=".5" d="M434.428,-682C434.428,-682 291.3044,-682 291.3044,-682 285.3044,-682 279.3044,-676 279.3044,-670 279.3044,-670 279.3044,-658 279.3044,-658 279.3044,-652 285.3044,-646 291.3044,-646 291.3044,-646 434.428,-646 434.428,-646 440.428,-646 446.428,-652 446.428,-658 446.428,-658 446.428,-670 446.428,-670 446.428,-676 440.428,-682 434.428,-682"/>
<text text-anchor="middle" x="362.8662" y="-659.8" font-family="Verdana" font-size="14.00" fill="#000000">createEd25519PublicKey</text>
</a>
</g>
</g>
<!-- github.com/go&#45;i2p/crypto/ed25519.createEd25519PublicKey&#45;&gt;(*github.com/go&#45;i2p/logger.Logger).WithField -->
<g id="edge11" class="edge">
<title>github.com/go&#45;i2p/crypto/ed25519.createEd25519PublicKey&#45;&gt;(*github.com/go&#45;i2p/logger.Logger).WithField</title>
<g id="a_edge11"><a xlink:title="at ed25519_public_key.go:34: calling [(*github.com/go&#45;i2p/logger.Logger).WithField]">
<path fill="none" stroke="#8b4513" d="M435.4256,-645.921C450.5114,-642.065 466.2932,-637.9596 481.0058,-634 508.654,-626.559 539.3948,-617.8456 564.4114,-610.641"/>
<polygon fill="#8b4513" stroke="#8b4513" points="565.4138,-613.9946 574.0506,-607.8582 563.4721,-607.2693 565.4138,-613.9946"/>
</a>
</g>
</g>
<!-- (*github.com/go&#45;i2p/logger.Logger).Warn -->
<g id="node16" class="node">
<title>(*github.com/go&#45;i2p/logger.Logger).Warn</title>
<g id="a_node16"><a xlink:title="(*github.com/go&#45;i2p/logger.Logger).Warn | defined in log.go:30">
<path fill="#ffe4b5" stroke="#000000" stroke-width="1.5" d="M632.3668,-553C632.3668,-553 596.8342,-553 596.8342,-553 590.8342,-553 584.8342,-547 584.8342,-541 584.8342,-541 584.8342,-529 584.8342,-529 584.8342,-523 590.8342,-517 596.8342,-517 596.8342,-517 632.3668,-517 632.3668,-517 638.3668,-517 644.3668,-523 644.3668,-529 644.3668,-529 644.3668,-541 644.3668,-541 644.3668,-547 638.3668,-553 632.3668,-553"/>
<text text-anchor="middle" x="614.6005" y="-539.2" font-family="Verdana" font-size="14.00" fill="#000000">logger</text>
<text text-anchor="middle" x="614.6005" y="-522.4" font-family="Verdana" font-size="14.00" fill="#000000">Warn</text>
</a>
</g>
</g>
<!-- github.com/go&#45;i2p/crypto/ed25519.createEd25519PublicKey&#45;&gt;(*github.com/go&#45;i2p/logger.Logger).Warn -->
<g id="edge5" class="edge">
<title>github.com/go&#45;i2p/crypto/ed25519.createEd25519PublicKey&#45;&gt;(*github.com/go&#45;i2p/logger.Logger).Warn</title>
<g id="a_edge5"><a xlink:title="at ed25519_public_key.go:41: calling [(*github.com/go&#45;i2p/logger.Logger).Warn]">
<path fill="none" stroke="#8b4513" d="M446.5356,-648.3693C458.48,-644.5487 470.3236,-639.8262 481.0058,-634 519.9322,-612.7689 517.6987,-591.4523 554.0058,-566 560.6731,-561.326 568.1413,-556.9222 575.4961,-552.9818"/>
<polygon fill="#8b4513" stroke="#8b4513" points="577.3935,-555.9417 584.6829,-548.253 574.1898,-549.7178 577.3935,-555.9417"/>
</a>
</g>
</g>
<!-- github.com/go&#45;i2p/crypto/ed25519.createEd25519PublicKey&#45;&gt;(*github.com/sirupsen/logrus.Logger).Debug -->
<g id="edge9" class="edge">
<title>github.com/go&#45;i2p/crypto/ed25519.createEd25519PublicKey&#45;&gt;(*github.com/sirupsen/logrus.Logger).Debug</title>
<g id="a_edge9"><a xlink:title="at ed25519_public_key.go:34: calling [(*github.com/sirupsen/logrus.Logger).Debug]&#10;at ed25519_public_key.go:39: calling [(*github.com/sirupsen/logrus.Logger).Debug]">
<path fill="none" stroke="#8b4513" d="M433.9938,-682.0832C479.1788,-693.5709 536.0529,-708.0304 573.7776,-717.6213"/>
<polygon fill="#8b4513" stroke="#8b4513" points="573.3303,-721.1189 583.8844,-720.1909 575.0552,-714.3347 573.3303,-721.1189"/>
</a>
</g>
</g>
<!-- (*github.com/go&#45;i2p/crypto/ed25519.Ed25519PrivateKey).NewVerifier -->
<g id="node8" class="node">
<title>(*github.com/go&#45;i2p/crypto/ed25519.Ed25519PrivateKey).NewVerifier</title>
<g id="a_node8"><a xlink:title="(*github.com/go&#45;i2p/crypto/ed25519.Ed25519PrivateKey).NewVerifier | defined in ed25519_private_key.go:15&#10;at ed25519_private_key.go:17: calling [github.com/samber/oops.Errorf]&#10;at ed25519_private_key.go:21: calling [github.com/samber/oops.Errorf]&#10;at ed25519_private_key.go:19: calling [(github.com/go&#45;i2p/crypto/ed25519.Ed25519PrivateKey).Public]">
<path fill="#add8e6" stroke="#000000" stroke-width="1.5" d="M124.5903,-133C124.5903,-133 54.1363,-133 54.1363,-133 48.1363,-133 42.1363,-127 42.1363,-121 42.1363,-121 42.1363,-109 42.1363,-109 42.1363,-103 48.1363,-97 54.1363,-97 54.1363,-97 124.5903,-97 124.5903,-97 130.5903,-97 136.5903,-103 136.5903,-109 136.5903,-109 136.5903,-121 136.5903,-121 136.5903,-127 130.5903,-133 124.5903,-133"/>
<text text-anchor="middle" x="89.3633" y="-110.8" font-family="Verdana" font-size="14.00" fill="#000000">NewVerifier</text>
</a>
</g>
</g>
<!-- (*github.com/go&#45;i2p/crypto/ed25519.Ed25519PrivateKey).NewVerifier&#45;&gt;github.com/samber/oops.Errorf -->
<g id="edge28" class="edge">
<title>(*github.com/go&#45;i2p/crypto/ed25519.Ed25519PrivateKey).NewVerifier&#45;&gt;github.com/samber/oops.Errorf</title>
<g id="a_edge28"><a xlink:title="at ed25519_private_key.go:17: calling [github.com/samber/oops.Errorf]&#10;at ed25519_private_key.go:21: calling [github.com/samber/oops.Errorf]">
<path fill="none" stroke="#8b4513" d="M136.9166,-102.5912C167.4727,-95.2696 208.1515,-86.7275 244.7266,-83 296.9625,-77.6764 432.9535,-61.8362 481.0058,-83 536.2792,-107.3442 578.6365,-167.0989 599.7528,-202.1534"/>
<polygon fill="#8b4513" stroke="#8b4513" points="596.8169,-204.0657 604.899,-210.9163 602.853,-200.5209 596.8169,-204.0657"/>
</a>
</g>
</g>
<!-- (github.com/go&#45;i2p/crypto/ed25519.Ed25519PrivateKey).Public -->
<g id="node18" class="node">
<title>(github.com/go&#45;i2p/crypto/ed25519.Ed25519PrivateKey).Public</title>
<g id="a_node18"><a xlink:title="(github.com/go&#45;i2p/crypto/ed25519.Ed25519PrivateKey).Public | defined in ed25519_private_key.go:62&#10;at ed25519_private_key.go:65: calling [github.com/samber/oops.Errorf]">
<path fill="#add8e6" stroke="#000000" stroke-width="1.5" d="M380.645,-218C380.645,-218 345.0874,-218 345.0874,-218 339.0874,-218 333.0874,-212 333.0874,-206 333.0874,-206 333.0874,-194 333.0874,-194 333.0874,-188 339.0874,-182 345.0874,-182 345.0874,-182 380.645,-182 380.645,-182 386.645,-182 392.645,-188 392.645,-194 392.645,-194 392.645,-206 392.645,-206 392.645,-212 386.645,-218 380.645,-218"/>
<text text-anchor="middle" x="362.8662" y="-195.8" font-family="Verdana" font-size="14.00" fill="#000000">Public</text>
</a>
</g>
</g>
<!-- (*github.com/go&#45;i2p/crypto/ed25519.Ed25519PrivateKey).NewVerifier&#45;&gt;(github.com/go&#45;i2p/crypto/ed25519.Ed25519PrivateKey).Public -->
<g id="edge29" class="edge">
<title>(*github.com/go&#45;i2p/crypto/ed25519.Ed25519PrivateKey).NewVerifier&#45;&gt;(github.com/go&#45;i2p/crypto/ed25519.Ed25519PrivateKey).Public</title>
<g id="a_edge29"><a xlink:title="at ed25519_private_key.go:19: calling [(github.com/go&#45;i2p/crypto/ed25519.Ed25519PrivateKey).Public]">
<path fill="none" stroke="#000000" d="M136.9309,-133.1132C167.4925,-144.4332 208.1723,-158.9139 244.7266,-170 270.6575,-177.8643 300.2056,-185.3671 323.2643,-190.9025"/>
<polygon fill="#000000" stroke="#000000" points="322.5039,-194.3191 333.0421,-193.2254 324.1219,-187.5087 322.5039,-194.3191"/>
</a>
</g>
</g>
<!-- (*github.com/go&#45;i2p/crypto/ed25519.Ed25519Signer).Sign -->
<g id="node9" class="node">
<title>(*github.com/go&#45;i2p/crypto/ed25519.Ed25519Signer).Sign</title>
<g id="a_node9"><a xlink:title="(*github.com/go&#45;i2p/crypto/ed25519.Ed25519Signer).Sign | defined in ed25519_signer.go:14&#10;at ed25519_signer.go:15: calling [(*github.com/go&#45;i2p/logger.Logger).WithField]&#10;at ed25519_signer.go:19: calling [github.com/samber/oops.Errorf]&#10;at ed25519_signer.go:15: calling [(*github.com/sirupsen/logrus.Logger).Debug]&#10;at ed25519_signer.go:23: calling [(*github.com/go&#45;i2p/crypto/ed25519.Ed25519Signer).SignHash]&#10;at ed25519_signer.go:18: calling [(*github.com/go&#45;i2p/logger.Logger).Error]">
<path fill="#add8e6" stroke="#000000" stroke-width="1.5" d="M104.3633,-797C104.3633,-797 74.3633,-797 74.3633,-797 68.3633,-797 62.3633,-791 62.3633,-785 62.3633,-785 62.3633,-773 62.3633,-773 62.3633,-767 68.3633,-761 74.3633,-761 74.3633,-761 104.3633,-761 104.3633,-761 110.3633,-761 116.3633,-767 116.3633,-773 116.3633,-773 116.3633,-785 116.3633,-785 116.3633,-791 110.3633,-797 104.3633,-797"/>
<text text-anchor="middle" x="89.3633" y="-774.8" font-family="Verdana" font-size="14.00" fill="#000000">Sign</text>
</a>
</g>
</g>
<!-- (*github.com/go&#45;i2p/crypto/ed25519.Ed25519Signer).Sign&#45;&gt;github.com/samber/oops.Errorf -->
<g id="edge12" class="edge">
<title>(*github.com/go&#45;i2p/crypto/ed25519.Ed25519Signer).Sign&#45;&gt;github.com/samber/oops.Errorf</title>
<g id="a_edge12"><a xlink:title="at ed25519_signer.go:19: calling [github.com/samber/oops.Errorf]">
<path fill="none" stroke="#8b4513" d="M95.0137,-760.7337C110.3273,-714.8177 157.4545,-594.9053 244.7266,-548 339.6991,-496.956 399.5602,-563.6532 481.0058,-493 548.7133,-434.2644 509.3338,-382.7083 554.0058,-305 564.2702,-287.1448 578.5199,-269.0406 590.622,-254.9831"/>
<polygon fill="#8b4513" stroke="#8b4513" points="593.4832,-257.0293 597.4531,-247.2063 588.224,-252.4097 593.4832,-257.0293"/>
</a>
</g>
</g>
<!-- (*github.com/go&#45;i2p/crypto/ed25519.Ed25519Signer).SignHash -->
<g id="node10" class="node">
<title>(*github.com/go&#45;i2p/crypto/ed25519.Ed25519Signer).SignHash</title>
<g id="a_node10"><a xlink:title="(*github.com/go&#45;i2p/crypto/ed25519.Ed25519Signer).SignHash | defined in ed25519_signer.go:27&#10;at ed25519_signer.go:28: calling [(*github.com/go&#45;i2p/logger.Logger).WithField]&#10;at ed25519_signer.go:30: calling [(*github.com/go&#45;i2p/logger.Logger).WithField]&#10;at ed25519_signer.go:28: calling [(*github.com/sirupsen/logrus.Logger).Debug]&#10;at ed25519_signer.go:30: calling [(*github.com/sirupsen/logrus.Logger).Debug]">
<path fill="#add8e6" stroke="#000000" stroke-width="1.5" d="M390.3064,-797C390.3064,-797 335.426,-797 335.426,-797 329.426,-797 323.426,-791 323.426,-785 323.426,-785 323.426,-773 323.426,-773 323.426,-767 329.426,-761 335.426,-761 335.426,-761 390.3064,-761 390.3064,-761 396.3064,-761 402.3064,-767 402.3064,-773 402.3064,-773 402.3064,-785 402.3064,-785 402.3064,-791 396.3064,-797 390.3064,-797"/>
<text text-anchor="middle" x="362.8662" y="-774.8" font-family="Verdana" font-size="14.00" fill="#000000">SignHash</text>
</a>
</g>
</g>
<!-- (*github.com/go&#45;i2p/crypto/ed25519.Ed25519Signer).Sign&#45;&gt;(*github.com/go&#45;i2p/crypto/ed25519.Ed25519Signer).SignHash -->
<g id="edge20" class="edge">
<title>(*github.com/go&#45;i2p/crypto/ed25519.Ed25519Signer).Sign&#45;&gt;(*github.com/go&#45;i2p/crypto/ed25519.Ed25519Signer).SignHash</title>
<g id="a_edge20"><a xlink:title="at ed25519_signer.go:23: calling [(*github.com/go&#45;i2p/crypto/ed25519.Ed25519Signer).SignHash]">
<path fill="none" stroke="#000000" d="M116.5877,-779C162.3793,-779 255.4556,-779 313.1552,-779"/>
<polygon fill="#000000" stroke="#000000" points="313.498,-782.5001 323.4979,-779 313.4979,-775.5001 313.498,-782.5001"/>
</a>
</g>
</g>
<!-- (*github.com/go&#45;i2p/crypto/ed25519.Ed25519Signer).Sign&#45;&gt;(*github.com/go&#45;i2p/logger.Logger).WithField -->
<g id="edge2" class="edge">
<title>(*github.com/go&#45;i2p/crypto/ed25519.Ed25519Signer).Sign&#45;&gt;(*github.com/go&#45;i2p/logger.Logger).WithField</title>
<g id="a_edge2"><a xlink:title="at ed25519_signer.go:15: calling [(*github.com/go&#45;i2p/logger.Logger).WithField]">
<path fill="none" stroke="#8b4513" d="M116.4361,-772.829C147.318,-766.0103 199.4065,-755.1785 244.7266,-749 296.9198,-741.8845 433.204,-752.1302 481.0058,-730 507.5691,-717.7023 561.8908,-657.5879 592.4502,-622.1911"/>
<polygon fill="#8b4513" stroke="#8b4513" points="595.4586,-624.0599 599.3153,-614.1919 590.1466,-619.5011 595.4586,-624.0599"/>
</a>
</g>
</g>
<!-- (*github.com/go&#45;i2p/crypto/ed25519.Ed25519Signer).Sign&#45;&gt;(*github.com/go&#45;i2p/logger.Logger).Error -->
<g id="edge26" class="edge">
<title>(*github.com/go&#45;i2p/crypto/ed25519.Ed25519Signer).Sign&#45;&gt;(*github.com/go&#45;i2p/logger.Logger).Error</title>
<g id="a_edge26"><a xlink:title="at ed25519_signer.go:18: calling [(*github.com/go&#45;i2p/logger.Logger).Error]">
<path fill="none" stroke="#8b4513" d="M95.9979,-760.8661C112.9473,-717.5346 162.4033,-608.2995 244.7266,-564 267.8658,-551.5484 459.1404,-568.573 481.0058,-554 512.4414,-533.0486 485.4495,-497.7693 517.0058,-477 533.6126,-466.07 555.4868,-464.525 574.3165,-466.06"/>
<polygon fill="#8b4513" stroke="#8b4513" points="574.0842,-469.5558 584.4114,-467.1896 574.8627,-462.5992 574.0842,-469.5558"/>
</a>
</g>
</g>
<!-- (*github.com/go&#45;i2p/crypto/ed25519.Ed25519Signer).Sign&#45;&gt;(*github.com/sirupsen/logrus.Logger).Debug -->
<g id="edge16" class="edge">
<title>(*github.com/go&#45;i2p/crypto/ed25519.Ed25519Signer).Sign&#45;&gt;(*github.com/sirupsen/logrus.Logger).Debug</title>
<g id="a_edge16"><a xlink:title="at ed25519_signer.go:15: calling [(*github.com/sirupsen/logrus.Logger).Debug]">
<path fill="none" stroke="#8b4513" d="M116.591,-787.5545C181.225,-806.4964 348.4157,-847.4461 481.0058,-810 520.5358,-798.8359 559.8933,-772.3311 585.54,-752.4562"/>
<polygon fill="#8b4513" stroke="#8b4513" points="588.0245,-754.9533 593.6923,-746.0019 583.6795,-749.465 588.0245,-754.9533"/>
</a>
</g>
</g>
<!-- (*github.com/go&#45;i2p/crypto/ed25519.Ed25519Signer).SignHash&#45;&gt;(*github.com/go&#45;i2p/logger.Logger).WithField -->
<g id="edge13" class="edge">
<title>(*github.com/go&#45;i2p/crypto/ed25519.Ed25519Signer).SignHash&#45;&gt;(*github.com/go&#45;i2p/logger.Logger).WithField</title>
<g id="a_edge13"><a xlink:title="at ed25519_signer.go:28: calling [(*github.com/go&#45;i2p/logger.Logger).WithField]&#10;at ed25519_signer.go:30: calling [(*github.com/go&#45;i2p/logger.Logger).WithField]">
<path fill="none" stroke="#8b4513" d="M402.3201,-772.0859C426.4076,-766.5901 457.0692,-757.2289 481.0058,-742 507.2143,-725.3257 563.0518,-659.3643 593.5857,-622.0623"/>
<polygon fill="#8b4513" stroke="#8b4513" points="596.4507,-624.0871 600.0555,-614.1244 591.0246,-619.6646 596.4507,-624.0871"/>
</a>
</g>
</g>
<!-- (*github.com/go&#45;i2p/crypto/ed25519.Ed25519Signer).SignHash&#45;&gt;(*github.com/sirupsen/logrus.Logger).Debug -->
<g id="edge17" class="edge">
<title>(*github.com/go&#45;i2p/crypto/ed25519.Ed25519Signer).SignHash&#45;&gt;(*github.com/sirupsen/logrus.Logger).Debug</title>
<g id="a_edge17"><a xlink:title="at ed25519_signer.go:28: calling [(*github.com/sirupsen/logrus.Logger).Debug]&#10;at ed25519_signer.go:30: calling [(*github.com/sirupsen/logrus.Logger).Debug]">
<path fill="none" stroke="#8b4513" d="M402.3727,-782.9564C434.0985,-785.0135 479.5429,-785.423 518.0058,-776 538.9154,-770.8773 560.5247,-760.6758 577.9887,-750.9899"/>
<polygon fill="#8b4513" stroke="#8b4513" points="579.7721,-754.0021 586.7177,-746.0015 576.2988,-747.9245 579.7721,-754.0021"/>
</a>
</g>
</g>
<!-- (*github.com/go&#45;i2p/crypto/ed25519.Ed25519Verifier).Verify -->
<g id="node11" class="node">
<title>(*github.com/go&#45;i2p/crypto/ed25519.Ed25519Verifier).Verify</title>
<g id="a_node11"><a xlink:title="(*github.com/go&#45;i2p/crypto/ed25519.Ed25519Verifier).Verify | defined in ed25519_verifier.go:43&#10;at ed25519_verifier.go:44: calling [(*github.com/go&#45;i2p/logger.Logger).WithFields]&#10;at ed25519_verifier.go:50: calling [(*github.com/go&#45;i2p/crypto/ed25519.Ed25519Verifier).VerifyHash]&#10;at ed25519_verifier.go:47: calling [(*github.com/sirupsen/logrus.Logger).Debug]">
<path fill="#add8e6" stroke="#000000" stroke-width="1.5" d="M107.3981,-479C107.3981,-479 71.3285,-479 71.3285,-479 65.3285,-479 59.3285,-473 59.3285,-467 59.3285,-467 59.3285,-455 59.3285,-455 59.3285,-449 65.3285,-443 71.3285,-443 71.3285,-443 107.3981,-443 107.3981,-443 113.3981,-443 119.3981,-449 119.3981,-455 119.3981,-455 119.3981,-467 119.3981,-467 119.3981,-473 113.3981,-479 107.3981,-479"/>
<text text-anchor="middle" x="89.3633" y="-456.8" font-family="Verdana" font-size="14.00" fill="#000000">Verify</text>
</a>
</g>
</g>
<!-- (*github.com/go&#45;i2p/crypto/ed25519.Ed25519Verifier).VerifyHash -->
<g id="node12" class="node">
<title>(*github.com/go&#45;i2p/crypto/ed25519.Ed25519Verifier).VerifyHash</title>
<g id="a_node12"><a xlink:title="(*github.com/go&#45;i2p/crypto/ed25519.Ed25519Verifier).VerifyHash | defined in ed25519_verifier.go:16&#10;at ed25519_verifier.go:20: calling [(*github.com/sirupsen/logrus.Logger).Debug]&#10;at ed25519_verifier.go:38: calling [(*github.com/sirupsen/logrus.Logger).Debug]&#10;at ed25519_verifier.go:17: calling [(*github.com/go&#45;i2p/logger.Logger).WithFields]&#10;at ed25519_verifier.go:29: calling [github.com/samber/oops.Errorf]&#10;at ed25519_verifier.go:36: calling [github.com/samber/oops.Errorf]&#10;at ed25519_verifier.go:35: calling [(*github.com/go&#45;i2p/logger.Logger).Warn]&#10;at ed25519_verifier.go:23: calling [(*github.com/go&#45;i2p/logger.Logger).Error]&#10;at ed25519_verifier.go:28: calling [(*github.com/go&#45;i2p/logger.Logger).Error]">
<path fill="#add8e6" stroke="#000000" stroke-width="1.5" d="M395.6655,-479C395.6655,-479 330.0669,-479 330.0669,-479 324.0669,-479 318.0669,-473 318.0669,-467 318.0669,-467 318.0669,-455 318.0669,-455 318.0669,-449 324.0669,-443 330.0669,-443 330.0669,-443 395.6655,-443 395.6655,-443 401.6655,-443 407.6655,-449 407.6655,-455 407.6655,-455 407.6655,-467 407.6655,-467 407.6655,-473 401.6655,-479 395.6655,-479"/>
<text text-anchor="middle" x="362.8662" y="-456.8" font-family="Verdana" font-size="14.00" fill="#000000">VerifyHash</text>
</a>
</g>
</g>
<!-- (*github.com/go&#45;i2p/crypto/ed25519.Ed25519Verifier).Verify&#45;&gt;(*github.com/go&#45;i2p/crypto/ed25519.Ed25519Verifier).VerifyHash -->
<g id="edge15" class="edge">
<title>(*github.com/go&#45;i2p/crypto/ed25519.Ed25519Verifier).Verify&#45;&gt;(*github.com/go&#45;i2p/crypto/ed25519.Ed25519Verifier).VerifyHash</title>
<g id="a_edge15"><a xlink:title="at ed25519_verifier.go:50: calling [(*github.com/go&#45;i2p/crypto/ed25519.Ed25519Verifier).VerifyHash]">
<path fill="none" stroke="#000000" d="M119.4153,-461C164.6153,-461 250.8363,-461 307.5906,-461"/>
<polygon fill="#000000" stroke="#000000" points="307.8285,-464.5001 317.8285,-461 307.8284,-457.5001 307.8285,-464.5001"/>
</a>
</g>
</g>
<!-- (*github.com/go&#45;i2p/logger.Logger).WithFields -->
<g id="node15" class="node">
<title>(*github.com/go&#45;i2p/logger.Logger).WithFields</title>
<g id="a_node15"><a xlink:title="(*github.com/go&#45;i2p/logger.Logger).WithFields | defined in log.go:60">
<path fill="#ffe4b5" stroke="#000000" stroke-width="1.5" d="M645.8196,-431C645.8196,-431 583.3814,-431 583.3814,-431 577.3814,-431 571.3814,-425 571.3814,-419 571.3814,-419 571.3814,-407 571.3814,-407 571.3814,-401 577.3814,-395 583.3814,-395 583.3814,-395 645.8196,-395 645.8196,-395 651.8196,-395 657.8196,-401 657.8196,-407 657.8196,-407 657.8196,-419 657.8196,-419 657.8196,-425 651.8196,-431 645.8196,-431"/>
<text text-anchor="middle" x="614.6005" y="-417.2" font-family="Verdana" font-size="14.00" fill="#000000">logger</text>
<text text-anchor="middle" x="614.6005" y="-400.4" font-family="Verdana" font-size="14.00" fill="#000000">WithFields</text>
</a>
</g>
</g>
<!-- (*github.com/go&#45;i2p/crypto/ed25519.Ed25519Verifier).Verify&#45;&gt;(*github.com/go&#45;i2p/logger.Logger).WithFields -->
<g id="edge10" class="edge">
<title>(*github.com/go&#45;i2p/crypto/ed25519.Ed25519Verifier).Verify&#45;&gt;(*github.com/go&#45;i2p/logger.Logger).WithFields</title>
<g id="a_edge10"><a xlink:title="at ed25519_verifier.go:44: calling [(*github.com/go&#45;i2p/logger.Logger).WithFields]">
<path fill="none" stroke="#8b4513" d="M119.5614,-471.2305C186.5947,-492.2744 352.079,-534.9756 481.0058,-492 499.9795,-485.6754 500.2751,-475.9582 517.0058,-465 532.8234,-454.6398 537.3629,-452.9747 554.0058,-444 558.9462,-441.3359 564.1393,-438.5931 569.3214,-435.8927"/>
<polygon fill="#8b4513" stroke="#8b4513" points="571.306,-438.8067 578.5801,-431.1036 568.09,-432.5892 571.306,-438.8067"/>
</a>
</g>
</g>
<!-- (*github.com/go&#45;i2p/crypto/ed25519.Ed25519Verifier).Verify&#45;&gt;(*github.com/sirupsen/logrus.Logger).Debug -->
<g id="edge18" class="edge">
<title>(*github.com/go&#45;i2p/crypto/ed25519.Ed25519Verifier).Verify&#45;&gt;(*github.com/sirupsen/logrus.Logger).Debug</title>
<g id="a_edge18"><a xlink:title="at ed25519_verifier.go:47: calling [(*github.com/sirupsen/logrus.Logger).Debug]">
<path fill="none" stroke="#8b4513" d="M94.721,-479.0568C109.6263,-525.7112 156.4088,-650.2934 244.7266,-703 289.945,-729.9856 429.947,-708.1186 481.0058,-721 498.3776,-725.3827 500.109,-737.8319 518.0058,-737 536.2576,-736.1516 556.3867,-734.406 573.5244,-732.676"/>
<polygon fill="#8b4513" stroke="#8b4513" points="574.1816,-736.1266 583.765,-731.609 573.4561,-729.1643 574.1816,-736.1266"/>
</a>
</g>
</g>
<!-- (*github.com/go&#45;i2p/crypto/ed25519.Ed25519Verifier).VerifyHash&#45;&gt;github.com/samber/oops.Errorf -->
<g id="edge19" class="edge">
<title>(*github.com/go&#45;i2p/crypto/ed25519.Ed25519Verifier).VerifyHash&#45;&gt;github.com/samber/oops.Errorf</title>
<g id="a_edge19"><a xlink:title="at ed25519_verifier.go:29: calling [github.com/samber/oops.Errorf]&#10;at ed25519_verifier.go:36: calling [github.com/samber/oops.Errorf]">
<path fill="none" stroke="#8b4513" d="M407.7209,-461.6296C431.4714,-459.8822 459.9879,-454.2615 481.0058,-439 487.8656,-434.019 549.3178,-312.0633 554.0058,-305 565.551,-287.6053 580.0894,-269.2732 592.0315,-254.9725"/>
<polygon fill="#8b4513" stroke="#8b4513" points="594.94,-256.9532 598.7205,-247.0558 589.593,-252.4354 594.94,-256.9532"/>
</a>
</g>
</g>
<!-- (*github.com/go&#45;i2p/crypto/ed25519.Ed25519Verifier).VerifyHash&#45;&gt;(*github.com/go&#45;i2p/logger.Logger).Error -->
<g id="edge30" class="edge">
<title>(*github.com/go&#45;i2p/crypto/ed25519.Ed25519Verifier).VerifyHash&#45;&gt;(*github.com/go&#45;i2p/logger.Logger).Error</title>
<g id="a_edge30"><a xlink:title="at ed25519_verifier.go:23: calling [(*github.com/go&#45;i2p/logger.Logger).Error]&#10;at ed25519_verifier.go:28: calling [(*github.com/go&#45;i2p/logger.Logger).Error]">
<path fill="none" stroke="#8b4513" d="M407.7071,-461.3606C438.7079,-461.8048 480.89,-462.7949 518.0058,-465 536.5236,-466.1002 556.9874,-467.9196 574.295,-469.6357"/>
<polygon fill="#8b4513" stroke="#8b4513" points="574.3155,-473.1557 584.6179,-470.6836 575.0225,-466.1915 574.3155,-473.1557"/>
</a>
</g>
</g>
<!-- (*github.com/go&#45;i2p/crypto/ed25519.Ed25519Verifier).VerifyHash&#45;&gt;(*github.com/go&#45;i2p/logger.Logger).WithFields -->
<g id="edge14" class="edge">
<title>(*github.com/go&#45;i2p/crypto/ed25519.Ed25519Verifier).VerifyHash&#45;&gt;(*github.com/go&#45;i2p/logger.Logger).WithFields</title>
<g id="a_edge14"><a xlink:title="at ed25519_verifier.go:17: calling [(*github.com/go&#45;i2p/logger.Logger).WithFields]">
<path fill="none" stroke="#8b4513" d="M407.5316,-460.9246C431.0852,-458.9528 459.4759,-453.343 481.0058,-439 505.3197,-422.8023 491.3058,-397.894 517.0058,-384 521.4386,-381.6035 541.2875,-387.0964 561.9387,-393.9255"/>
<polygon fill="#8b4513" stroke="#8b4513" points="560.8369,-397.2476 571.4311,-397.1337 563.0782,-390.6161 560.8369,-397.2476"/>
</a>
</g>
</g>
<!-- (*github.com/go&#45;i2p/crypto/ed25519.Ed25519Verifier).VerifyHash&#45;&gt;(*github.com/go&#45;i2p/logger.Logger).Warn -->
<g id="edge21" class="edge">
<title>(*github.com/go&#45;i2p/crypto/ed25519.Ed25519Verifier).VerifyHash&#45;&gt;(*github.com/go&#45;i2p/logger.Logger).Warn</title>
<g id="a_edge21"><a xlink:title="at ed25519_verifier.go:35: calling [(*github.com/go&#45;i2p/logger.Logger).Warn]">
<path fill="none" stroke="#8b4513" d="M407.642,-467.3115C429.9234,-470.9627 457.1297,-476.195 481.0058,-483 513.5149,-492.2656 549.1331,-506.3365 575.4107,-517.5058"/>
<polygon fill="#8b4513" stroke="#8b4513" points="574.0768,-520.742 584.6462,-521.4752 576.8409,-514.3108 574.0768,-520.742"/>
</a>
</g>
</g>
<!-- (*github.com/go&#45;i2p/crypto/ed25519.Ed25519Verifier).VerifyHash&#45;&gt;(*github.com/sirupsen/logrus.Logger).Debug -->
<g id="edge3" class="edge">
<title>(*github.com/go&#45;i2p/crypto/ed25519.Ed25519Verifier).VerifyHash&#45;&gt;(*github.com/sirupsen/logrus.Logger).Debug</title>
<g id="a_edge3"><a xlink:title="at ed25519_verifier.go:20: calling [(*github.com/sirupsen/logrus.Logger).Debug]&#10;at ed25519_verifier.go:38: calling [(*github.com/sirupsen/logrus.Logger).Debug]">
<path fill="none" stroke="#8b4513" d="M407.6323,-460.0824C431.4992,-461.7248 460.1546,-467.3371 481.0058,-483 538.6938,-526.3338 519.0614,-564.8762 554.0058,-628 567.9882,-653.258 585.1362,-681.3149 597.6171,-701.2656"/>
<polygon fill="#8b4513" stroke="#8b4513" points="594.7105,-703.2183 602.995,-709.8226 600.6371,-699.4934 594.7105,-703.2183"/>
</a>
</g>
</g>
<!-- (github.com/go&#45;i2p/crypto/ed25519.Ed25519PrivateKey).Public&#45;&gt;github.com/samber/oops.Errorf -->
<g id="edge27" class="edge">
<title>(github.com/go&#45;i2p/crypto/ed25519.Ed25519PrivateKey).Public&#45;&gt;github.com/samber/oops.Errorf</title>
<g id="a_edge27"><a xlink:title="at ed25519_private_key.go:65: calling [github.com/samber/oops.Errorf]">
<path fill="none" stroke="#8b4513" d="M392.732,-203.4406C438.0848,-208.6652 524.3788,-218.6064 574.9431,-224.4314"/>
<polygon fill="#8b4513" stroke="#8b4513" points="574.8282,-227.9413 585.1631,-225.6088 575.6294,-220.9873 574.8282,-227.9413"/>
</a>
</g>
</g>
<!-- (github.com/go&#45;i2p/crypto/ed25519.Ed25519PrivateKey).NewSigner -->
<g id="node19" class="node">
<title>(github.com/go&#45;i2p/crypto/ed25519.Ed25519PrivateKey).NewSigner</title>
<g id="a_node19"><a xlink:title="(github.com/go&#45;i2p/crypto/ed25519.Ed25519PrivateKey).NewSigner | defined in ed25519_private_key.go:40&#10;at ed25519_private_key.go:42: calling [github.com/samber/oops.Errorf]">
<path fill="#add8e6" stroke="#000000" stroke-width="1.5" d="M394.3424,-279C394.3424,-279 331.39,-279 331.39,-279 325.39,-279 319.39,-273 319.39,-267 319.39,-267 319.39,-255 319.39,-255 319.39,-249 325.39,-243 331.39,-243 331.39,-243 394.3424,-243 394.3424,-243 400.3424,-243 406.3424,-249 406.3424,-255 406.3424,-255 406.3424,-267 406.3424,-267 406.3424,-273 400.3424,-279 394.3424,-279"/>
<text text-anchor="middle" x="362.8662" y="-256.8" font-family="Verdana" font-size="14.00" fill="#000000">NewSigner</text>
</a>
</g>
</g>
<!-- (github.com/go&#45;i2p/crypto/ed25519.Ed25519PrivateKey).NewSigner&#45;&gt;github.com/samber/oops.Errorf -->
<g id="edge24" class="edge">
<title>(github.com/go&#45;i2p/crypto/ed25519.Ed25519PrivateKey).NewSigner&#45;&gt;github.com/samber/oops.Errorf</title>
<g id="a_edge24"><a xlink:title="at ed25519_private_key.go:42: calling [github.com/samber/oops.Errorf]">
<path fill="none" stroke="#8b4513" d="M406.4276,-255.4626C453.9487,-249.4218 529.3432,-239.8377 575.1701,-234.0123"/>
<polygon fill="#8b4513" stroke="#8b4513" points="575.8349,-237.4561 585.3137,-232.7229 574.9521,-230.5119 575.8349,-237.4561"/>
</a>
</g>
</g>
<!-- (github.com/go&#45;i2p/crypto/ed25519.Ed25519PrivateKey).Generate -->
<g id="node20" class="node">
<title>(github.com/go&#45;i2p/crypto/ed25519.Ed25519PrivateKey).Generate</title>
<g id="a_node20"><a xlink:title="(github.com/go&#45;i2p/crypto/ed25519.Ed25519PrivateKey).Generate | defined in ed25519_private_key.go:51&#10;at ed25519_private_key.go:54: calling [github.com/samber/oops.Errorf]">
<path fill="#add8e6" stroke="#000000" stroke-width="1.5" d="M387.884,-157C387.884,-157 337.8484,-157 337.8484,-157 331.8484,-157 325.8484,-151 325.8484,-145 325.8484,-145 325.8484,-133 325.8484,-133 325.8484,-127 331.8484,-121 337.8484,-121 337.8484,-121 387.884,-121 387.884,-121 393.884,-121 399.884,-127 399.884,-133 399.884,-133 399.884,-145 399.884,-145 399.884,-151 393.884,-157 387.884,-157"/>
<text text-anchor="middle" x="362.8662" y="-134.8" font-family="Verdana" font-size="14.00" fill="#000000">Generate</text>
</a>
</g>
</g>
<!-- (github.com/go&#45;i2p/crypto/ed25519.Ed25519PrivateKey).Generate&#45;&gt;github.com/samber/oops.Errorf -->
<g id="edge6" class="edge">
<title>(github.com/go&#45;i2p/crypto/ed25519.Ed25519PrivateKey).Generate&#45;&gt;github.com/samber/oops.Errorf</title>
<g id="a_edge6"><a xlink:title="at ed25519_private_key.go:54: calling [github.com/samber/oops.Errorf]">
<path fill="none" stroke="#8b4513" d="M400.0389,-147.1479C423.5354,-152.691 454.3829,-160.6948 481.0058,-170 513.8339,-181.474 549.8334,-197.589 576.1829,-210.0783"/>
<polygon fill="#8b4513" stroke="#8b4513" points="574.8987,-213.3438 585.4302,-214.5003 577.9186,-207.0287 574.8987,-213.3438"/>
</a>
</g>
</g>
</g>
</svg>
