<?xml version="1.0" encoding="UTF-8" standalone="no"?>
<!DOCTYPE svg PUBLIC "-//W3C//DTD SVG 1.1//EN"
 "http://www.w3.org/Graphics/SVG/1.1/DTD/svg11.dtd">
<!-- Generated by graphviz version 2.40.1 (20161225.0304)
 -->
<!-- Title: gocallvis Pages: 1 -->
<svg width="970pt" height="689pt"
 viewBox="0.00 0.00 969.80 689.00" xmlns="http://www.w3.org/2000/svg" xmlns:xlink="http://www.w3.org/1999/xlink">
<g id="graph0" class="graph" transform="scale(1 1) rotate(0) translate(0 689)">
<title>gocallvis</title>
<polygon fill="#d3d3d3" stroke="transparent" points="0,0 0,-689 969.804,-689 969.804,0 0,0"/>
<g id="clust1" class="cluster">
<title>cluster_focus</title>
<polygon fill="#e6ecfa" stroke="#000000" stroke-width=".5" points="8,-8 8,-681 961.804,-681 961.804,-8 8,-8"/>
<text text-anchor="middle" x="484.902" y="-660.8" font-family="Arial" font-size="18.00" fill="#000000">elligator2</text>
</g>
<g id="clust2" class="cluster">
<title>cluster_*filippo.io/edwards25519/field.Element</title>
<g id="a_clust2"><a xlink:title="type: *filippo.io/edwards25519/field.Element">
<path fill="#eed8ae" stroke="#000000" stroke-width=".5" d="M872.1378,-16C872.1378,-16 941.804,-16 941.804,-16 947.804,-16 953.804,-22 953.804,-28 953.804,-28 953.804,-631 953.804,-631 953.804,-637 947.804,-643 941.804,-643 941.804,-643 872.1378,-643 872.1378,-643 866.1378,-643 860.1378,-637 860.1378,-631 860.1378,-631 860.1378,-28 860.1378,-28 860.1378,-22 866.1378,-16 872.1378,-16"/>
<text text-anchor="middle" x="906.9709" y="-24.5" font-family="Arial" font-size="15.00" fill="#222222">(*Element)</text>
</a>
</g>
</g>
<!-- github.com/go&#45;i2p/crypto/elligator2.publicKeyToRepresentative -->
<g id="node1" class="node">
<title>github.com/go&#45;i2p/crypto/elligator2.publicKeyToRepresentative</title>
<g id="a_node1"><a xlink:title="github.com/go&#45;i2p/crypto/elligator2.publicKeyToRepresentative | defined in elligator2.go:147&#10;at elligator2.go:168: calling [(*filippo.io/edwards25519/field.Element).One]&#10;at elligator2.go:170: calling [(*filippo.io/edwards25519/field.Element).Multiply]&#10;at elligator2.go:164: calling [(*filippo.io/edwards25519/field.Element).Negate]&#10;at elligator2.go:196: calling [(*filippo.io/edwards25519/field.Element).Negate]&#10;at elligator2.go:165: calling [(*filippo.io/edwards25519/field.Element).Subtract]&#10;at elligator2.go:181: calling [(*filippo.io/edwards25519/field.Element).Bytes]&#10;at elligator2.go:194: calling [(*filippo.io/edwards25519/field.Element).Bytes]&#10;at elligator2.go:194: calling [(*filippo.io/edwards25519/field.Element).Bytes]&#10;at elligator2.go:197: calling [(*filippo.io/edwards25519/field.Element).Bytes]&#10;at elligator2.go:205: calling [(*filippo.io/edwards25519/field.Element).Bytes]&#10;at elligator2.go:205: calling [(*filippo.io/edwards25519/field.Element).Bytes]&#10;at elligator2.go:169: calling [(*filippo.io/edwards25519/field.Element).Add]&#10;at elligator2.go:191: calling [github.com/go&#45;i2p/crypto/elligator2.computeForwardMap]&#10;at elligator2.go:203: calling [github.com/go&#45;i2p/crypto/elligator2.computeForwardMap]&#10;at elligator2.go:149: calling [(*filippo.io/edwards25519/field.Element).SetBytes]&#10;at elligator2.go:159: calling [(*filippo.io/edwards25519/field.Element).SetBytes]&#10;at elligator2.go:190: calling [(*filippo.io/edwards25519/field.Element).SetBytes]&#10;at elligator2.go:202: calling [(*filippo.io/edwards25519/field.Element).SetBytes]&#10;at elligator2.go:174: calling [(*filippo.io/edwards25519/field.Element).SqrtRatio]">
<path fill="#add8e6" stroke="#000000" stroke-width=".5" d="M564.8713,-404C564.8713,-404 407.7589,-404 407.7589,-404 401.7589,-404 395.7589,-398 395.7589,-392 395.7589,-392 395.7589,-380 395.7589,-380 395.7589,-374 401.7589,-368 407.7589,-368 407.7589,-368 564.8713,-368 564.8713,-368 570.8713,-368 576.8713,-374 576.8713,-380 576.8713,-380 576.8713,-392 576.8713,-392 576.8713,-398 570.8713,-404 564.8713,-404"/>
<text text-anchor="middle" x="486.3151" y="-381.8" font-family="Verdana" font-size="14.00" fill="#000000">publicKeyToRepresentative</text>
</a>
</g>
</g>
<!-- github.com/go&#45;i2p/crypto/elligator2.computeForwardMap -->
<g id="node2" class="node">
<title>github.com/go&#45;i2p/crypto/elligator2.computeForwardMap</title>
<g id="a_node2"><a xlink:title="github.com/go&#45;i2p/crypto/elligator2.computeForwardMap | defined in elligator2.go:219&#10;at elligator2.go:246: calling [(*filippo.io/edwards25519/field.Element).Invert]&#10;at elligator2.go:228: calling [(*filippo.io/edwards25519/field.Element).Add]&#10;at elligator2.go:232: calling [(*filippo.io/edwards25519/field.Element).Add]&#10;at elligator2.go:227: calling [(*filippo.io/edwards25519/field.Element).One]&#10;at elligator2.go:224: calling [(*filippo.io/edwards25519/field.Element).Square]&#10;at elligator2.go:229: calling [(*filippo.io/edwards25519/field.Element).Multiply]&#10;at elligator2.go:246: calling [(*filippo.io/edwards25519/field.Element).Multiply]&#10;at elligator2.go:240: calling [(*filippo.io/edwards25519/field.Element).SetBytes]&#10;at elligator2.go:243: calling [(*filippo.io/edwards25519/field.Element).Negate]">
<path fill="#add8e6" stroke="#000000" stroke-width=".5" d="M783.2854,-296C783.2854,-296 661.6956,-296 661.6956,-296 655.6956,-296 649.6956,-290 649.6956,-284 649.6956,-284 649.6956,-272 649.6956,-272 649.6956,-266 655.6956,-260 661.6956,-260 661.6956,-260 783.2854,-260 783.2854,-260 789.2854,-260 795.2854,-266 795.2854,-272 795.2854,-272 795.2854,-284 795.2854,-284 795.2854,-290 789.2854,-296 783.2854,-296"/>
<text text-anchor="middle" x="722.4905" y="-273.8" font-family="Verdana" font-size="14.00" fill="#000000">computeForwardMap</text>
</a>
</g>
</g>
<!-- github.com/go&#45;i2p/crypto/elligator2.publicKeyToRepresentative&#45;&gt;github.com/go&#45;i2p/crypto/elligator2.computeForwardMap -->
<g id="edge20" class="edge">
<title>github.com/go&#45;i2p/crypto/elligator2.publicKeyToRepresentative&#45;&gt;github.com/go&#45;i2p/crypto/elligator2.computeForwardMap</title>
<g id="a_edge20"><a xlink:title="at elligator2.go:191: calling [github.com/go&#45;i2p/crypto/elligator2.computeForwardMap]&#10;at elligator2.go:203: calling [github.com/go&#45;i2p/crypto/elligator2.computeForwardMap]">
<path fill="none" stroke="#000000" d="M522.6572,-367.9522C547.8385,-355.5768 582.2131,-338.94 612.8432,-325 631.3036,-316.5985 651.6857,-307.7471 669.8178,-300.0193"/>
<polygon fill="#000000" stroke="#000000" points="671.2363,-303.2195 679.0725,-296.089 668.5,-296.7764 671.2363,-303.2195"/>
</a>
</g>
</g>
<!-- (*filippo.io/edwards25519/field.Element).SetBytes -->
<g id="node12" class="node">
<title>(*filippo.io/edwards25519/field.Element).SetBytes</title>
<g id="a_node12"><a xlink:title="(*filippo.io/edwards25519/field.Element).SetBytes | defined in fe.go:198">
<path fill="#ffe4b5" stroke="#000000" stroke-width="1.5" d="M931.7454,-86C931.7454,-86 882.1964,-86 882.1964,-86 876.1964,-86 870.1964,-80 870.1964,-74 870.1964,-74 870.1964,-62 870.1964,-62 870.1964,-56 876.1964,-50 882.1964,-50 882.1964,-50 931.7454,-50 931.7454,-50 937.7454,-50 943.7454,-56 943.7454,-62 943.7454,-62 943.7454,-74 943.7454,-74 943.7454,-80 937.7454,-86 931.7454,-86"/>
<text text-anchor="middle" x="906.9709" y="-72.2" font-family="Verdana" font-size="14.00" fill="#000000">field</text>
<text text-anchor="middle" x="906.9709" y="-55.4" font-family="Verdana" font-size="14.00" fill="#000000">SetBytes</text>
</a>
</g>
</g>
<!-- github.com/go&#45;i2p/crypto/elligator2.publicKeyToRepresentative&#45;&gt;(*filippo.io/edwards25519/field.Element).SetBytes -->
<g id="edge22" class="edge">
<title>github.com/go&#45;i2p/crypto/elligator2.publicKeyToRepresentative&#45;&gt;(*filippo.io/edwards25519/field.Element).SetBytes</title>
<g id="a_edge22"><a xlink:title="at elligator2.go:149: calling [(*filippo.io/edwards25519/field.Element).SetBytes]&#10;at elligator2.go:159: calling [(*filippo.io/edwards25519/field.Element).SetBytes]&#10;at elligator2.go:190: calling [(*filippo.io/edwards25519/field.Element).SetBytes]&#10;at elligator2.go:202: calling [(*filippo.io/edwards25519/field.Element).SetBytes]">
<path fill="none" stroke="#8b4513" d="M497.9128,-367.9216C528.3399,-320.9396 610.7952,-196.5902 649.8432,-167 714.2673,-118.18 805.6749,-90.6751 860.3724,-77.6173"/>
<polygon fill="#8b4513" stroke="#8b4513" points="861.1961,-81.0192 870.1436,-75.3453 859.6108,-74.2011 861.1961,-81.0192"/>
</a>
</g>
</g>
<!-- (*filippo.io/edwards25519/field.Element).Negate -->
<g id="node13" class="node">
<title>(*filippo.io/edwards25519/field.Element).Negate</title>
<g id="a_node13"><a xlink:title="(*filippo.io/edwards25519/field.Element).Negate | defined in fe.go:113">
<path fill="#ffe4b5" stroke="#000000" stroke-width="1.5" d="M926.6129,-330C926.6129,-330 887.3289,-330 887.3289,-330 881.3289,-330 875.3289,-324 875.3289,-318 875.3289,-318 875.3289,-306 875.3289,-306 875.3289,-300 881.3289,-294 887.3289,-294 887.3289,-294 926.6129,-294 926.6129,-294 932.6129,-294 938.6129,-300 938.6129,-306 938.6129,-306 938.6129,-318 938.6129,-318 938.6129,-324 932.6129,-330 926.6129,-330"/>
<text text-anchor="middle" x="906.9709" y="-316.2" font-family="Verdana" font-size="14.00" fill="#000000">field</text>
<text text-anchor="middle" x="906.9709" y="-299.4" font-family="Verdana" font-size="14.00" fill="#000000">Negate</text>
</a>
</g>
</g>
<!-- github.com/go&#45;i2p/crypto/elligator2.publicKeyToRepresentative&#45;&gt;(*filippo.io/edwards25519/field.Element).Negate -->
<g id="edge7" class="edge">
<title>github.com/go&#45;i2p/crypto/elligator2.publicKeyToRepresentative&#45;&gt;(*filippo.io/edwards25519/field.Element).Negate</title>
<g id="a_edge7"><a xlink:title="at elligator2.go:164: calling [(*filippo.io/edwards25519/field.Element).Negate]&#10;at elligator2.go:196: calling [(*filippo.io/edwards25519/field.Element).Negate]">
<path fill="none" stroke="#8b4513" d="M577.0733,-370.0342C666.2558,-354.3456 798.3861,-331.1018 865.1333,-319.3599"/>
<polygon fill="#8b4513" stroke="#8b4513" points="866.0255,-322.7568 875.2679,-317.5771 864.8127,-315.8626 866.0255,-322.7568"/>
</a>
</g>
</g>
<!-- (*filippo.io/edwards25519/field.Element).Subtract -->
<g id="node14" class="node">
<title>(*filippo.io/edwards25519/field.Element).Subtract</title>
<g id="a_node14"><a xlink:title="(*filippo.io/edwards25519/field.Element).Subtract | defined in fe.go:101">
<path fill="#ffe4b5" stroke="#000000" stroke-width="1.5" d="M930.1253,-574C930.1253,-574 883.8165,-574 883.8165,-574 877.8165,-574 871.8165,-568 871.8165,-562 871.8165,-562 871.8165,-550 871.8165,-550 871.8165,-544 877.8165,-538 883.8165,-538 883.8165,-538 930.1253,-538 930.1253,-538 936.1253,-538 942.1253,-544 942.1253,-550 942.1253,-550 942.1253,-562 942.1253,-562 942.1253,-568 936.1253,-574 930.1253,-574"/>
<text text-anchor="middle" x="906.9709" y="-560.2" font-family="Verdana" font-size="14.00" fill="#000000">field</text>
<text text-anchor="middle" x="906.9709" y="-543.4" font-family="Verdana" font-size="14.00" fill="#000000">Subtract</text>
</a>
</g>
</g>
<!-- github.com/go&#45;i2p/crypto/elligator2.publicKeyToRepresentative&#45;&gt;(*filippo.io/edwards25519/field.Element).Subtract -->
<g id="edge13" class="edge">
<title>github.com/go&#45;i2p/crypto/elligator2.publicKeyToRepresentative&#45;&gt;(*filippo.io/edwards25519/field.Element).Subtract</title>
<g id="a_edge13"><a xlink:title="at elligator2.go:165: calling [(*filippo.io/edwards25519/field.Element).Subtract]">
<path fill="none" stroke="#8b4513" d="M529.2736,-404.0896C562.2091,-417.9037 608.8229,-437.3364 649.8432,-454 724.037,-484.1396 810.6721,-518.2926 862.0604,-538.4425"/>
<polygon fill="#8b4513" stroke="#8b4513" points="860.9566,-541.769 871.5443,-542.1591 863.5108,-535.2516 860.9566,-541.769"/>
</a>
</g>
</g>
<!-- (*filippo.io/edwards25519/field.Element).One -->
<g id="node15" class="node">
<title>(*filippo.io/edwards25519/field.Element).One</title>
<g id="a_node15"><a xlink:title="(*filippo.io/edwards25519/field.Element).One | defined in fe.go:48">
<path fill="#ffe4b5" stroke="#000000" stroke-width="1.5" d="M921.9709,-452C921.9709,-452 891.9709,-452 891.9709,-452 885.9709,-452 879.9709,-446 879.9709,-440 879.9709,-440 879.9709,-428 879.9709,-428 879.9709,-422 885.9709,-416 891.9709,-416 891.9709,-416 921.9709,-416 921.9709,-416 927.9709,-416 933.9709,-422 933.9709,-428 933.9709,-428 933.9709,-440 933.9709,-440 933.9709,-446 927.9709,-452 921.9709,-452"/>
<text text-anchor="middle" x="906.9709" y="-438.2" font-family="Verdana" font-size="14.00" fill="#000000">field</text>
<text text-anchor="middle" x="906.9709" y="-421.4" font-family="Verdana" font-size="14.00" fill="#000000">One</text>
</a>
</g>
</g>
<!-- github.com/go&#45;i2p/crypto/elligator2.publicKeyToRepresentative&#45;&gt;(*filippo.io/edwards25519/field.Element).One -->
<g id="edge1" class="edge">
<title>github.com/go&#45;i2p/crypto/elligator2.publicKeyToRepresentative&#45;&gt;(*filippo.io/edwards25519/field.Element).One</title>
<g id="a_edge1"><a xlink:title="at elligator2.go:168: calling [(*filippo.io/edwards25519/field.Element).One]">
<path fill="none" stroke="#8b4513" d="M577.0733,-396.3562C668.3601,-406.7727 804.6456,-422.3239 869.7477,-429.7525"/>
<polygon fill="#8b4513" stroke="#8b4513" points="869.6061,-433.259 879.9385,-430.9154 870.3998,-426.3042 869.6061,-433.259"/>
</a>
</g>
</g>
<!-- (*filippo.io/edwards25519/field.Element).Add -->
<g id="node16" class="node">
<title>(*filippo.io/edwards25519/field.Element).Add</title>
<g id="a_node16"><a xlink:title="(*filippo.io/edwards25519/field.Element).Add | defined in fe.go:87">
<path fill="#ffe4b5" stroke="#000000" stroke-width="1.5" d="M921.9709,-391C921.9709,-391 891.9709,-391 891.9709,-391 885.9709,-391 879.9709,-385 879.9709,-379 879.9709,-379 879.9709,-367 879.9709,-367 879.9709,-361 885.9709,-355 891.9709,-355 891.9709,-355 921.9709,-355 921.9709,-355 927.9709,-355 933.9709,-361 933.9709,-367 933.9709,-367 933.9709,-379 933.9709,-379 933.9709,-385 927.9709,-391 921.9709,-391"/>
<text text-anchor="middle" x="906.9709" y="-377.2" font-family="Verdana" font-size="14.00" fill="#000000">field</text>
<text text-anchor="middle" x="906.9709" y="-360.4" font-family="Verdana" font-size="14.00" fill="#000000">Add</text>
</a>
</g>
</g>
<!-- github.com/go&#45;i2p/crypto/elligator2.publicKeyToRepresentative&#45;&gt;(*filippo.io/edwards25519/field.Element).Add -->
<g id="edge18" class="edge">
<title>github.com/go&#45;i2p/crypto/elligator2.publicKeyToRepresentative&#45;&gt;(*filippo.io/edwards25519/field.Element).Add</title>
<g id="a_edge18"><a xlink:title="at elligator2.go:169: calling [(*filippo.io/edwards25519/field.Element).Add]">
<path fill="none" stroke="#8b4513" d="M577.0733,-383.1952C668.3601,-380.3741 804.6456,-376.1623 869.7477,-374.1504"/>
<polygon fill="#8b4513" stroke="#8b4513" points="870.0514,-377.6427 879.9385,-373.8354 869.8351,-370.6461 870.0514,-377.6427"/>
</a>
</g>
</g>
<!-- (*filippo.io/edwards25519/field.Element).Multiply -->
<g id="node17" class="node">
<title>(*filippo.io/edwards25519/field.Element).Multiply</title>
<g id="a_node17"><a xlink:title="(*filippo.io/edwards25519/field.Element).Multiply | defined in fe.go:302">
<path fill="#ffe4b5" stroke="#000000" stroke-width="1.5" d="M931.4779,-513C931.4779,-513 882.4639,-513 882.4639,-513 876.4639,-513 870.4639,-507 870.4639,-501 870.4639,-501 870.4639,-489 870.4639,-489 870.4639,-483 876.4639,-477 882.4639,-477 882.4639,-477 931.4779,-477 931.4779,-477 937.4779,-477 943.4779,-483 943.4779,-489 943.4779,-489 943.4779,-501 943.4779,-501 943.4779,-507 937.4779,-513 931.4779,-513"/>
<text text-anchor="middle" x="906.9709" y="-499.2" font-family="Verdana" font-size="14.00" fill="#000000">field</text>
<text text-anchor="middle" x="906.9709" y="-482.4" font-family="Verdana" font-size="14.00" fill="#000000">Multiply</text>
</a>
</g>
</g>
<!-- github.com/go&#45;i2p/crypto/elligator2.publicKeyToRepresentative&#45;&gt;(*filippo.io/edwards25519/field.Element).Multiply -->
<g id="edge2" class="edge">
<title>github.com/go&#45;i2p/crypto/elligator2.publicKeyToRepresentative&#45;&gt;(*filippo.io/edwards25519/field.Element).Multiply</title>
<g id="a_edge2"><a xlink:title="at elligator2.go:170: calling [(*filippo.io/edwards25519/field.Element).Multiply]">
<path fill="none" stroke="#8b4513" d="M556.2501,-404.1215C642.4893,-426.4677 786.6813,-463.8307 860.4342,-482.9415"/>
<polygon fill="#8b4513" stroke="#8b4513" points="859.802,-486.3932 870.3602,-485.5135 861.5579,-479.6169 859.802,-486.3932"/>
</a>
</g>
</g>
<!-- (*filippo.io/edwards25519/field.Element).SqrtRatio -->
<g id="node18" class="node">
<title>(*filippo.io/edwards25519/field.Element).SqrtRatio</title>
<g id="a_node18"><a xlink:title="(*filippo.io/edwards25519/field.Element).SqrtRatio | defined in fe.go:398">
<path fill="#ffe4b5" stroke="#000000" stroke-width="1.5" d="M933.6378,-635C933.6378,-635 880.304,-635 880.304,-635 874.304,-635 868.304,-629 868.304,-623 868.304,-623 868.304,-611 868.304,-611 868.304,-605 874.304,-599 880.304,-599 880.304,-599 933.6378,-599 933.6378,-599 939.6378,-599 945.6378,-605 945.6378,-611 945.6378,-611 945.6378,-623 945.6378,-623 945.6378,-629 939.6378,-635 933.6378,-635"/>
<text text-anchor="middle" x="906.9709" y="-621.2" font-family="Verdana" font-size="14.00" fill="#000000">field</text>
<text text-anchor="middle" x="906.9709" y="-604.4" font-family="Verdana" font-size="14.00" fill="#000000">SqrtRatio</text>
</a>
</g>
</g>
<!-- github.com/go&#45;i2p/crypto/elligator2.publicKeyToRepresentative&#45;&gt;(*filippo.io/edwards25519/field.Element).SqrtRatio -->
<g id="edge23" class="edge">
<title>github.com/go&#45;i2p/crypto/elligator2.publicKeyToRepresentative&#45;&gt;(*filippo.io/edwards25519/field.Element).SqrtRatio</title>
<g id="a_edge23"><a xlink:title="at elligator2.go:174: calling [(*filippo.io/edwards25519/field.Element).SqrtRatio]">
<path fill="none" stroke="#8b4513" d="M512.686,-404.017C544.5688,-425.5059 600.1444,-462.0299 649.8432,-490 720.9164,-529.9995 806.3096,-570.8074 858.5981,-595.0125"/>
<polygon fill="#8b4513" stroke="#8b4513" points="857.419,-598.323 867.9654,-599.335 860.352,-591.9671 857.419,-598.323"/>
</a>
</g>
</g>
<!-- (*filippo.io/edwards25519/field.Element).Bytes -->
<g id="node19" class="node">
<title>(*filippo.io/edwards25519/field.Element).Bytes</title>
<g id="a_node19"><a xlink:title="(*filippo.io/edwards25519/field.Element).Bytes | defined in fe.go:224">
<path fill="#ffe4b5" stroke="#000000" stroke-width="1.5" d="M922.8574,-147C922.8574,-147 891.0844,-147 891.0844,-147 885.0844,-147 879.0844,-141 879.0844,-135 879.0844,-135 879.0844,-123 879.0844,-123 879.0844,-117 885.0844,-111 891.0844,-111 891.0844,-111 922.8574,-111 922.8574,-111 928.8574,-111 934.8574,-117 934.8574,-123 934.8574,-123 934.8574,-135 934.8574,-135 934.8574,-141 928.8574,-147 922.8574,-147"/>
<text text-anchor="middle" x="906.9709" y="-133.2" font-family="Verdana" font-size="14.00" fill="#000000">field</text>
<text text-anchor="middle" x="906.9709" y="-116.4" font-family="Verdana" font-size="14.00" fill="#000000">Bytes</text>
</a>
</g>
</g>
<!-- github.com/go&#45;i2p/crypto/elligator2.publicKeyToRepresentative&#45;&gt;(*filippo.io/edwards25519/field.Element).Bytes -->
<g id="edge14" class="edge">
<title>github.com/go&#45;i2p/crypto/elligator2.publicKeyToRepresentative&#45;&gt;(*filippo.io/edwards25519/field.Element).Bytes</title>
<g id="a_edge14"><a xlink:title="at elligator2.go:181: calling [(*filippo.io/edwards25519/field.Element).Bytes]&#10;at elligator2.go:194: calling [(*filippo.io/edwards25519/field.Element).Bytes]&#10;at elligator2.go:194: calling [(*filippo.io/edwards25519/field.Element).Bytes]&#10;at elligator2.go:197: calling [(*filippo.io/edwards25519/field.Element).Bytes]&#10;at elligator2.go:205: calling [(*filippo.io/edwards25519/field.Element).Bytes]&#10;at elligator2.go:205: calling [(*filippo.io/edwards25519/field.Element).Bytes]">
<path fill="none" stroke="#8b4513" d="M504.6362,-367.6455C533.5803,-339.3485 592.5066,-284.5244 649.8432,-248 723.3107,-201.1999 818.1753,-162.2044 869.6792,-142.6103"/>
<polygon fill="#8b4513" stroke="#8b4513" points="870.957,-145.8691 879.0796,-139.0667 868.4878,-139.319 870.957,-145.8691"/>
</a>
</g>
</g>
<!-- github.com/go&#45;i2p/crypto/elligator2.computeForwardMap&#45;&gt;(*filippo.io/edwards25519/field.Element).SetBytes -->
<g id="edge26" class="edge">
<title>github.com/go&#45;i2p/crypto/elligator2.computeForwardMap&#45;&gt;(*filippo.io/edwards25519/field.Element).SetBytes</title>
<g id="a_edge26"><a xlink:title="at elligator2.go:240: calling [(*filippo.io/edwards25519/field.Element).SetBytes]">
<path fill="none" stroke="#8b4513" d="M733.5042,-259.9182C754.9146,-225.731 804.9207,-150.4386 860.1378,-99 862.5635,-96.7403 865.171,-94.534 867.8692,-92.4067"/>
<polygon fill="#8b4513" stroke="#8b4513" points="870.1847,-95.0475 876.1448,-86.2881 866.0231,-89.4189 870.1847,-95.0475"/>
</a>
</g>
</g>
<!-- github.com/go&#45;i2p/crypto/elligator2.computeForwardMap&#45;&gt;(*filippo.io/edwards25519/field.Element).Negate -->
<g id="edge27" class="edge">
<title>github.com/go&#45;i2p/crypto/elligator2.computeForwardMap&#45;&gt;(*filippo.io/edwards25519/field.Element).Negate</title>
<g id="a_edge27"><a xlink:title="at elligator2.go:243: calling [(*filippo.io/edwards25519/field.Element).Negate]">
<path fill="none" stroke="#8b4513" d="M795.339,-291.2401C807.6241,-293.4866 820.2452,-295.8029 832.1378,-298 842.8738,-299.9834 854.4725,-302.1444 865.2595,-304.1619"/>
<polygon fill="#8b4513" stroke="#8b4513" points="864.8249,-307.6413 875.2983,-306.0418 866.1134,-300.7609 864.8249,-307.6413"/>
</a>
</g>
</g>
<!-- github.com/go&#45;i2p/crypto/elligator2.computeForwardMap&#45;&gt;(*filippo.io/edwards25519/field.Element).One -->
<g id="edge19" class="edge">
<title>github.com/go&#45;i2p/crypto/elligator2.computeForwardMap&#45;&gt;(*filippo.io/edwards25519/field.Element).One</title>
<g id="a_edge19"><a xlink:title="at elligator2.go:227: calling [(*filippo.io/edwards25519/field.Element).One]">
<path fill="none" stroke="#8b4513" d="M740.3069,-296.1739C765.7328,-321.6642 814.4219,-368.8493 860.1378,-404 863.6781,-406.7221 867.4678,-409.4398 871.3012,-412.0659"/>
<polygon fill="#8b4513" stroke="#8b4513" points="869.4171,-415.0162 879.6833,-417.6346 873.2907,-409.1856 869.4171,-415.0162"/>
</a>
</g>
</g>
<!-- github.com/go&#45;i2p/crypto/elligator2.computeForwardMap&#45;&gt;(*filippo.io/edwards25519/field.Element).Add -->
<g id="edge10" class="edge">
<title>github.com/go&#45;i2p/crypto/elligator2.computeForwardMap&#45;&gt;(*filippo.io/edwards25519/field.Element).Add</title>
<g id="a_edge10"><a xlink:title="at elligator2.go:228: calling [(*filippo.io/edwards25519/field.Element).Add]&#10;at elligator2.go:232: calling [(*filippo.io/edwards25519/field.Element).Add]">
<path fill="none" stroke="#8b4513" d="M757.6241,-296.0924C789.9748,-312.7517 837.7763,-337.3676 870.534,-354.2365"/>
<polygon fill="#8b4513" stroke="#8b4513" points="869.2728,-357.5238 879.7657,-358.9904 872.4776,-351.3005 869.2728,-357.5238"/>
</a>
</g>
</g>
<!-- github.com/go&#45;i2p/crypto/elligator2.computeForwardMap&#45;&gt;(*filippo.io/edwards25519/field.Element).Multiply -->
<g id="edge25" class="edge">
<title>github.com/go&#45;i2p/crypto/elligator2.computeForwardMap&#45;&gt;(*filippo.io/edwards25519/field.Element).Multiply</title>
<g id="a_edge25"><a xlink:title="at elligator2.go:229: calling [(*filippo.io/edwards25519/field.Element).Multiply]&#10;at elligator2.go:246: calling [(*filippo.io/edwards25519/field.Element).Multiply]">
<path fill="none" stroke="#8b4513" d="M732.7599,-296.1821C753.4501,-331.7059 803.0754,-411.5212 860.1378,-465 862.2514,-466.9809 864.5128,-468.9095 866.8583,-470.7708"/>
<polygon fill="#8b4513" stroke="#8b4513" points="864.938,-473.7034 875.0645,-476.8186 869.0909,-468.0684 864.938,-473.7034"/>
</a>
</g>
</g>
<!-- (*filippo.io/edwards25519/field.Element).Square -->
<g id="node20" class="node">
<title>(*filippo.io/edwards25519/field.Element).Square</title>
<g id="a_node20"><a xlink:title="(*filippo.io/edwards25519/field.Element).Square | defined in fe.go:308">
<path fill="#ffe4b5" stroke="#000000" stroke-width="1.5" d="M926.3434,-208C926.3434,-208 887.5984,-208 887.5984,-208 881.5984,-208 875.5984,-202 875.5984,-196 875.5984,-196 875.5984,-184 875.5984,-184 875.5984,-178 881.5984,-172 887.5984,-172 887.5984,-172 926.3434,-172 926.3434,-172 932.3434,-172 938.3434,-178 938.3434,-184 938.3434,-184 938.3434,-196 938.3434,-196 938.3434,-202 932.3434,-208 926.3434,-208"/>
<text text-anchor="middle" x="906.9709" y="-194.2" font-family="Verdana" font-size="14.00" fill="#000000">field</text>
<text text-anchor="middle" x="906.9709" y="-177.4" font-family="Verdana" font-size="14.00" fill="#000000">Square</text>
</a>
</g>
</g>
<!-- github.com/go&#45;i2p/crypto/elligator2.computeForwardMap&#45;&gt;(*filippo.io/edwards25519/field.Element).Square -->
<g id="edge24" class="edge">
<title>github.com/go&#45;i2p/crypto/elligator2.computeForwardMap&#45;&gt;(*filippo.io/edwards25519/field.Element).Square</title>
<g id="a_edge24"><a xlink:title="at elligator2.go:224: calling [(*filippo.io/edwards25519/field.Element).Square]">
<path fill="none" stroke="#8b4513" d="M760.268,-259.9795C791.0293,-245.306 834.3808,-224.6266 865.9786,-209.554"/>
<polygon fill="#8b4513" stroke="#8b4513" points="867.8617,-212.5336 875.3805,-205.0691 864.8478,-206.2156 867.8617,-212.5336"/>
</a>
</g>
</g>
<!-- (*filippo.io/edwards25519/field.Element).Invert -->
<g id="node21" class="node">
<title>(*filippo.io/edwards25519/field.Element).Invert</title>
<g id="a_node21"><a xlink:title="(*filippo.io/edwards25519/field.Element).Invert | defined in fe.go:120">
<path fill="#ffe4b5" stroke="#000000" stroke-width="1.5" d="M923.8989,-269C923.8989,-269 890.0429,-269 890.0429,-269 884.0429,-269 878.0429,-263 878.0429,-257 878.0429,-257 878.0429,-245 878.0429,-245 878.0429,-239 884.0429,-233 890.0429,-233 890.0429,-233 923.8989,-233 923.8989,-233 929.8989,-233 935.8989,-239 935.8989,-245 935.8989,-245 935.8989,-257 935.8989,-257 935.8989,-263 929.8989,-269 923.8989,-269"/>
<text text-anchor="middle" x="906.9709" y="-255.2" font-family="Verdana" font-size="14.00" fill="#000000">field</text>
<text text-anchor="middle" x="906.9709" y="-238.4" font-family="Verdana" font-size="14.00" fill="#000000">Invert</text>
</a>
</g>
</g>
<!-- github.com/go&#45;i2p/crypto/elligator2.computeForwardMap&#45;&gt;(*filippo.io/edwards25519/field.Element).Invert -->
<g id="edge3" class="edge">
<title>github.com/go&#45;i2p/crypto/elligator2.computeForwardMap&#45;&gt;(*filippo.io/edwards25519/field.Element).Invert</title>
<g id="a_edge3"><a xlink:title="at elligator2.go:246: calling [(*filippo.io/edwards25519/field.Element).Invert]">
<path fill="none" stroke="#8b4513" d="M795.402,-267.3289C820.2154,-263.6973 846.9826,-259.7797 868.0776,-256.6923"/>
<polygon fill="#8b4513" stroke="#8b4513" points="868.8594,-260.1153 878.2471,-255.2039 867.8456,-253.189 868.8594,-260.1153"/>
</a>
</g>
</g>
<!-- github.com/go&#45;i2p/crypto/elligator2.IsRepresentable -->
<g id="node3" class="node">
<title>github.com/go&#45;i2p/crypto/elligator2.IsRepresentable</title>
<g id="a_node3"><a xlink:title="github.com/go&#45;i2p/crypto/elligator2.IsRepresentable | defined in elligator2.go:101&#10;at elligator2.go:106: calling [github.com/go&#45;i2p/crypto/elligator2.publicKeyToRepresentative]">
<path fill="#add8e6" stroke="#000000" stroke-width="1.5" d="M310.9883,-405C310.9883,-405 221.1845,-405 221.1845,-405 215.1845,-405 209.1845,-399 209.1845,-393 209.1845,-393 209.1845,-381 209.1845,-381 209.1845,-375 215.1845,-369 221.1845,-369 221.1845,-369 310.9883,-369 310.9883,-369 316.9883,-369 322.9883,-375 322.9883,-381 322.9883,-381 322.9883,-393 322.9883,-393 322.9883,-399 316.9883,-405 310.9883,-405"/>
<text text-anchor="middle" x="266.0864" y="-382.8" font-family="Verdana" font-size="14.00" fill="#000000">IsRepresentable</text>
</a>
</g>
</g>
<!-- github.com/go&#45;i2p/crypto/elligator2.IsRepresentable&#45;&gt;github.com/go&#45;i2p/crypto/elligator2.publicKeyToRepresentative -->
<g id="edge28" class="edge">
<title>github.com/go&#45;i2p/crypto/elligator2.IsRepresentable&#45;&gt;github.com/go&#45;i2p/crypto/elligator2.publicKeyToRepresentative</title>
<g id="a_edge28"><a xlink:title="at elligator2.go:106: calling [github.com/go&#45;i2p/crypto/elligator2.publicKeyToRepresentative]">
<path fill="none" stroke="#000000" d="M322.8008,-386.7425C341.9445,-386.6555 363.9295,-386.5557 385.4408,-386.458"/>
<polygon fill="#000000" stroke="#000000" points="385.6284,-389.9573 395.6123,-386.4119 385.5965,-382.9574 385.6284,-389.9573"/>
</a>
</g>
</g>
<!-- github.com/go&#45;i2p/crypto/elligator2.representativeToPublicKey -->
<g id="node4" class="node">
<title>github.com/go&#45;i2p/crypto/elligator2.representativeToPublicKey</title>
<g id="a_node4"><a xlink:title="github.com/go&#45;i2p/crypto/elligator2.representativeToPublicKey | defined in elligator2.go:253&#10;at elligator2.go:255: calling [(*filippo.io/edwards25519/field.Element).SetBytes]&#10;at elligator2.go:257: calling [github.com/go&#45;i2p/crypto/elligator2.computeForwardMap]&#10;at elligator2.go:258: calling [(*filippo.io/edwards25519/field.Element).Bytes]">
<path fill="#add8e6" stroke="#000000" stroke-width=".5" d="M562.978,-134C562.978,-134 409.6522,-134 409.6522,-134 403.6522,-134 397.6522,-128 397.6522,-122 397.6522,-122 397.6522,-110 397.6522,-110 397.6522,-104 403.6522,-98 409.6522,-98 409.6522,-98 562.978,-98 562.978,-98 568.978,-98 574.978,-104 574.978,-110 574.978,-110 574.978,-122 574.978,-122 574.978,-128 568.978,-134 562.978,-134"/>
<text text-anchor="middle" x="486.3151" y="-111.8" font-family="Verdana" font-size="14.00" fill="#000000">representativeToPublicKey</text>
</a>
</g>
</g>
<!-- github.com/go&#45;i2p/crypto/elligator2.representativeToPublicKey&#45;&gt;github.com/go&#45;i2p/crypto/elligator2.computeForwardMap -->
<g id="edge15" class="edge">
<title>github.com/go&#45;i2p/crypto/elligator2.representativeToPublicKey&#45;&gt;github.com/go&#45;i2p/crypto/elligator2.computeForwardMap</title>
<g id="a_edge15"><a xlink:title="at elligator2.go:257: calling [github.com/go&#45;i2p/crypto/elligator2.computeForwardMap]">
<path fill="none" stroke="#000000" d="M512.9483,-134.2686C555.7634,-163.6368 639.9069,-221.3534 687.5096,-254.0055"/>
<polygon fill="#000000" stroke="#000000" points="685.7283,-257.0279 695.9546,-259.7982 689.6879,-251.2554 685.7283,-257.0279"/>
</a>
</g>
</g>
<!-- github.com/go&#45;i2p/crypto/elligator2.representativeToPublicKey&#45;&gt;(*filippo.io/edwards25519/field.Element).SetBytes -->
<g id="edge5" class="edge">
<title>github.com/go&#45;i2p/crypto/elligator2.representativeToPublicKey&#45;&gt;(*filippo.io/edwards25519/field.Element).SetBytes</title>
<g id="a_edge5"><a xlink:title="at elligator2.go:255: calling [(*filippo.io/edwards25519/field.Element).SetBytes]">
<path fill="none" stroke="#8b4513" d="M575.0114,-105.8791C662.0217,-95.9505 791.3453,-81.1938 860.0701,-73.3517"/>
<polygon fill="#8b4513" stroke="#8b4513" points="860.6223,-76.8115 870.161,-72.2003 859.8287,-69.8567 860.6223,-76.8115"/>
</a>
</g>
</g>
<!-- github.com/go&#45;i2p/crypto/elligator2.representativeToPublicKey&#45;&gt;(*filippo.io/edwards25519/field.Element).Bytes -->
<g id="edge16" class="edge">
<title>github.com/go&#45;i2p/crypto/elligator2.representativeToPublicKey&#45;&gt;(*filippo.io/edwards25519/field.Element).Bytes</title>
<g id="a_edge16"><a xlink:title="at elligator2.go:258: calling [(*filippo.io/edwards25519/field.Element).Bytes]">
<path fill="none" stroke="#8b4513" d="M575.0114,-118.7411C665.6603,-121.5425 802.2351,-125.7632 868.3663,-127.807"/>
<polygon fill="#8b4513" stroke="#8b4513" points="868.6325,-131.3168 878.7359,-128.1274 868.8488,-124.3201 868.6325,-131.3168"/>
</a>
</g>
</g>
<!-- github.com/go&#45;i2p/crypto/elligator2.Encode -->
<g id="node5" class="node">
<title>github.com/go&#45;i2p/crypto/elligator2.Encode</title>
<g id="a_node5"><a xlink:title="github.com/go&#45;i2p/crypto/elligator2.Encode | defined in elligator2.go:55&#10;at elligator2.go:57: calling [github.com/samber/oops.Wrapf]&#10;at elligator2.go:69: calling [github.com/samber/oops.Wrapf]&#10;at elligator2.go:61: calling [github.com/go&#45;i2p/crypto/elligator2.publicKeyToRepresentative]">
<path fill="#add8e6" stroke="#000000" stroke-width="1.5" d="M287.0682,-344C287.0682,-344 245.1046,-344 245.1046,-344 239.1046,-344 233.1046,-338 233.1046,-332 233.1046,-332 233.1046,-320 233.1046,-320 233.1046,-314 239.1046,-308 245.1046,-308 245.1046,-308 287.0682,-308 287.0682,-308 293.0682,-308 299.0682,-314 299.0682,-320 299.0682,-320 299.0682,-332 299.0682,-332 299.0682,-338 293.0682,-344 287.0682,-344"/>
<text text-anchor="middle" x="266.0864" y="-321.8" font-family="Verdana" font-size="14.00" fill="#000000">Encode</text>
</a>
</g>
</g>
<!-- github.com/go&#45;i2p/crypto/elligator2.Encode&#45;&gt;github.com/go&#45;i2p/crypto/elligator2.publicKeyToRepresentative -->
<g id="edge11" class="edge">
<title>github.com/go&#45;i2p/crypto/elligator2.Encode&#45;&gt;github.com/go&#45;i2p/crypto/elligator2.publicKeyToRepresentative</title>
<g id="a_edge11"><a xlink:title="at elligator2.go:61: calling [github.com/go&#45;i2p/crypto/elligator2.publicKeyToRepresentative]">
<path fill="none" stroke="#000000" d="M299.5344,-335.1127C328.8058,-343.0875 372.4261,-354.9716 410.1526,-365.25"/>
<polygon fill="#000000" stroke="#000000" points="409.5426,-368.7113 420.1109,-367.9631 411.3827,-361.9575 409.5426,-368.7113"/>
</a>
</g>
</g>
<!-- github.com/samber/oops.Wrapf -->
<g id="node6" class="node">
<title>github.com/samber/oops.Wrapf</title>
<g id="a_node6"><a xlink:title="github.com/samber/oops.Wrapf | defined in oops.go:20">
<path fill="#ffe4b5" stroke="#000000" stroke-width="1.5" d="M504.066,-239C504.066,-239 468.5642,-239 468.5642,-239 462.5642,-239 456.5642,-233 456.5642,-227 456.5642,-227 456.5642,-215 456.5642,-215 456.5642,-209 462.5642,-203 468.5642,-203 468.5642,-203 504.066,-203 504.066,-203 510.066,-203 516.066,-209 516.066,-215 516.066,-215 516.066,-227 516.066,-227 516.066,-233 510.066,-239 504.066,-239"/>
<text text-anchor="middle" x="486.3151" y="-225.2" font-family="Verdana" font-size="14.00" fill="#000000">oops</text>
<text text-anchor="middle" x="486.3151" y="-208.4" font-family="Verdana" font-size="14.00" fill="#000000">Wrapf</text>
</a>
</g>
</g>
<!-- github.com/go&#45;i2p/crypto/elligator2.Encode&#45;&gt;github.com/samber/oops.Wrapf -->
<g id="edge4" class="edge">
<title>github.com/go&#45;i2p/crypto/elligator2.Encode&#45;&gt;github.com/samber/oops.Wrapf</title>
<g id="a_edge4"><a xlink:title="at elligator2.go:57: calling [github.com/samber/oops.Wrapf]&#10;at elligator2.go:69: calling [github.com/samber/oops.Wrapf]">
<path fill="none" stroke="#8b4513" d="M299.5344,-310.0528C339.2476,-291.1184 405.3728,-259.5914 447.3577,-239.574"/>
<polygon fill="#8b4513" stroke="#8b4513" points="448.9274,-242.7031 456.4476,-235.2401 445.9148,-236.3845 448.9274,-242.7031"/>
</a>
</g>
</g>
<!-- github.com/go&#45;i2p/crypto/elligator2.GenerateKeyPair -->
<g id="node7" class="node">
<title>github.com/go&#45;i2p/crypto/elligator2.GenerateKeyPair</title>
<g id="a_node7"><a xlink:title="github.com/go&#45;i2p/crypto/elligator2.GenerateKeyPair | defined in elligator2.go:116&#10;at elligator2.go:138: calling [github.com/samber/oops.Errorf]&#10;at elligator2.go:123: calling [github.com/samber/oops.Wrapf]&#10;at elligator2.go:129: calling [github.com/samber/oops.Wrapf]&#10;at elligator2.go:127: calling [golang.org/x/crypto/curve25519.X25519]&#10;at elligator2.go:133: calling [github.com/go&#45;i2p/crypto/elligator2.IsRepresentable]">
<path fill="#add8e6" stroke="#000000" stroke-width="1.5" d="M124.5793,-256C124.5793,-256 27.8065,-256 27.8065,-256 21.8065,-256 15.8065,-250 15.8065,-244 15.8065,-244 15.8065,-232 15.8065,-232 15.8065,-226 21.8065,-220 27.8065,-220 27.8065,-220 124.5793,-220 124.5793,-220 130.5793,-220 136.5793,-226 136.5793,-232 136.5793,-232 136.5793,-244 136.5793,-244 136.5793,-250 130.5793,-256 124.5793,-256"/>
<text text-anchor="middle" x="76.1929" y="-233.8" font-family="Verdana" font-size="14.00" fill="#000000">GenerateKeyPair</text>
</a>
</g>
</g>
<!-- github.com/go&#45;i2p/crypto/elligator2.GenerateKeyPair&#45;&gt;github.com/go&#45;i2p/crypto/elligator2.IsRepresentable -->
<g id="edge29" class="edge">
<title>github.com/go&#45;i2p/crypto/elligator2.GenerateKeyPair&#45;&gt;github.com/go&#45;i2p/crypto/elligator2.IsRepresentable</title>
<g id="a_edge29"><a xlink:title="at elligator2.go:133: calling [github.com/go&#45;i2p/crypto/elligator2.IsRepresentable]">
<path fill="none" stroke="#000000" d="M93.5455,-256.0471C117.9084,-280.7653 164.3338,-325.6519 209.3858,-357 212.7796,-359.3615 216.3815,-361.6689 220.0598,-363.8884"/>
<polygon fill="#000000" stroke="#000000" points="218.3095,-366.9193 228.7191,-368.8915 221.8114,-360.8582 218.3095,-366.9193"/>
</a>
</g>
</g>
<!-- github.com/go&#45;i2p/crypto/elligator2.GenerateKeyPair&#45;&gt;github.com/samber/oops.Wrapf -->
<g id="edge12" class="edge">
<title>github.com/go&#45;i2p/crypto/elligator2.GenerateKeyPair&#45;&gt;github.com/samber/oops.Wrapf</title>
<g id="a_edge12"><a xlink:title="at elligator2.go:123: calling [github.com/samber/oops.Wrapf]&#10;at elligator2.go:129: calling [github.com/samber/oops.Wrapf]">
<path fill="none" stroke="#8b4513" d="M136.7078,-235.4916C221.6569,-231.9704 373.9424,-225.658 446.1811,-222.6636"/>
<polygon fill="#8b4513" stroke="#8b4513" points="446.3945,-226.1579 456.241,-222.2466 446.1046,-219.1639 446.3945,-226.1579"/>
</a>
</g>
</g>
<!-- github.com/samber/oops.Errorf -->
<g id="node8" class="node">
<title>github.com/samber/oops.Errorf</title>
<g id="a_node8"><a xlink:title="github.com/samber/oops.Errorf | defined in oops.go:34">
<path fill="#ffe4b5" stroke="#000000" stroke-width="1.5" d="M283.2817,-195C283.2817,-195 248.8911,-195 248.8911,-195 242.8911,-195 236.8911,-189 236.8911,-183 236.8911,-183 236.8911,-171 236.8911,-171 236.8911,-165 242.8911,-159 248.8911,-159 248.8911,-159 283.2817,-159 283.2817,-159 289.2817,-159 295.2817,-165 295.2817,-171 295.2817,-171 295.2817,-183 295.2817,-183 295.2817,-189 289.2817,-195 283.2817,-195"/>
<text text-anchor="middle" x="266.0864" y="-181.2" font-family="Verdana" font-size="14.00" fill="#000000">oops</text>
<text text-anchor="middle" x="266.0864" y="-164.4" font-family="Verdana" font-size="14.00" fill="#000000">Errorf</text>
</a>
</g>
</g>
<!-- github.com/go&#45;i2p/crypto/elligator2.GenerateKeyPair&#45;&gt;github.com/samber/oops.Errorf -->
<g id="edge8" class="edge">
<title>github.com/go&#45;i2p/crypto/elligator2.GenerateKeyPair&#45;&gt;github.com/samber/oops.Errorf</title>
<g id="a_edge8"><a xlink:title="at elligator2.go:138: calling [github.com/samber/oops.Errorf]">
<path fill="none" stroke="#8b4513" d="M132.3965,-219.9456C162.9811,-210.1208 200.0397,-198.2164 227.3755,-189.4352"/>
<polygon fill="#8b4513" stroke="#8b4513" points="228.5263,-192.7418 236.9767,-186.351 226.3854,-186.0772 228.5263,-192.7418"/>
</a>
</g>
</g>
<!-- golang.org/x/crypto/curve25519.X25519 -->
<g id="node9" class="node">
<title>golang.org/x/crypto/curve25519.X25519</title>
<g id="a_node9"><a xlink:title="golang.org/x/crypto/curve25519.X25519 | defined in curve25519.go:67">
<path fill="#ffe4b5" stroke="#000000" stroke-width="1.5" d="M299.1762,-283C299.1762,-283 232.9966,-283 232.9966,-283 226.9966,-283 220.9966,-277 220.9966,-271 220.9966,-271 220.9966,-259 220.9966,-259 220.9966,-253 226.9966,-247 232.9966,-247 232.9966,-247 299.1762,-247 299.1762,-247 305.1762,-247 311.1762,-253 311.1762,-259 311.1762,-259 311.1762,-271 311.1762,-271 311.1762,-277 305.1762,-283 299.1762,-283"/>
<text text-anchor="middle" x="266.0864" y="-269.2" font-family="Verdana" font-size="14.00" fill="#000000">curve25519</text>
<text text-anchor="middle" x="266.0864" y="-252.4" font-family="Verdana" font-size="14.00" fill="#000000">X25519</text>
</a>
</g>
</g>
<!-- github.com/go&#45;i2p/crypto/elligator2.GenerateKeyPair&#45;&gt;golang.org/x/crypto/curve25519.X25519 -->
<g id="edge21" class="edge">
<title>github.com/go&#45;i2p/crypto/elligator2.GenerateKeyPair&#45;&gt;golang.org/x/crypto/curve25519.X25519</title>
<g id="a_edge21"><a xlink:title="at elligator2.go:127: calling [golang.org/x/crypto/curve25519.X25519]">
<path fill="none" stroke="#8b4513" d="M136.5373,-246.5801C160.3769,-249.9697 187.588,-253.8387 210.8975,-257.153"/>
<polygon fill="#8b4513" stroke="#8b4513" points="210.5726,-260.6419 220.9658,-258.5845 211.5581,-253.7116 210.5726,-260.6419"/>
</a>
</g>
</g>
<!-- github.com/go&#45;i2p/crypto/elligator2.init -->
<g id="node10" class="node">
<title>github.com/go&#45;i2p/crypto/elligator2.init</title>
<g id="a_node10"><a xlink:title="github.com/go&#45;i2p/crypto/elligator2.init | defined in .:0&#10;at elligator2.go:41: calling [github.com/samber/oops.Errorf]&#10;at elligator2.go:44: calling [github.com/samber/oops.Errorf]">
<path fill="#add8e6" stroke="#000000" stroke-width=".5" d="M91.1929,-185C91.1929,-185 61.1929,-185 61.1929,-185 55.1929,-185 49.1929,-179 49.1929,-173 49.1929,-173 49.1929,-161 49.1929,-161 49.1929,-155 55.1929,-149 61.1929,-149 61.1929,-149 91.1929,-149 91.1929,-149 97.1929,-149 103.1929,-155 103.1929,-161 103.1929,-161 103.1929,-173 103.1929,-173 103.1929,-179 97.1929,-185 91.1929,-185"/>
<text text-anchor="middle" x="76.1929" y="-162.8" font-family="Verdana" font-size="14.00" fill="#000000">init</text>
</a>
</g>
</g>
<!-- github.com/go&#45;i2p/crypto/elligator2.init&#45;&gt;github.com/samber/oops.Errorf -->
<g id="edge9" class="edge">
<title>github.com/go&#45;i2p/crypto/elligator2.init&#45;&gt;github.com/samber/oops.Errorf</title>
<g id="a_edge9"><a xlink:title="at elligator2.go:41: calling [github.com/samber/oops.Errorf]&#10;at elligator2.go:44: calling [github.com/samber/oops.Errorf]">
<path fill="none" stroke="#8b4513" d="M103.4,-168.4328C135.6021,-170.1286 189.496,-172.9667 226.363,-174.9081"/>
<polygon fill="#8b4513" stroke="#8b4513" points="226.5755,-178.4241 236.7457,-175.4549 226.9436,-171.4338 226.5755,-178.4241"/>
</a>
</g>
</g>
<!-- github.com/go&#45;i2p/crypto/elligator2.Decode -->
<g id="node11" class="node">
<title>github.com/go&#45;i2p/crypto/elligator2.Decode</title>
<g id="a_node11"><a xlink:title="github.com/go&#45;i2p/crypto/elligator2.Decode | defined in elligator2.go:82&#10;at elligator2.go:95: calling [github.com/go&#45;i2p/crypto/elligator2.representativeToPublicKey]&#10;at elligator2.go:84: calling [github.com/samber/oops.Wrapf]">
<path fill="#add8e6" stroke="#000000" stroke-width="1.5" d="M287.3373,-134C287.3373,-134 244.8355,-134 244.8355,-134 238.8355,-134 232.8355,-128 232.8355,-122 232.8355,-122 232.8355,-110 232.8355,-110 232.8355,-104 238.8355,-98 244.8355,-98 244.8355,-98 287.3373,-98 287.3373,-98 293.3373,-98 299.3373,-104 299.3373,-110 299.3373,-110 299.3373,-122 299.3373,-122 299.3373,-128 293.3373,-134 287.3373,-134"/>
<text text-anchor="middle" x="266.0864" y="-111.8" font-family="Verdana" font-size="14.00" fill="#000000">Decode</text>
</a>
</g>
</g>
<!-- github.com/go&#45;i2p/crypto/elligator2.Decode&#45;&gt;github.com/go&#45;i2p/crypto/elligator2.representativeToPublicKey -->
<g id="edge6" class="edge">
<title>github.com/go&#45;i2p/crypto/elligator2.Decode&#45;&gt;github.com/go&#45;i2p/crypto/elligator2.representativeToPublicKey</title>
<g id="a_edge6"><a xlink:title="at elligator2.go:95: calling [github.com/go&#45;i2p/crypto/elligator2.representativeToPublicKey]">
<path fill="none" stroke="#000000" d="M299.5344,-116C322.9872,-116 355.6514,-116 387.1152,-116"/>
<polygon fill="#000000" stroke="#000000" points="387.2753,-119.5001 397.2753,-116 387.2753,-112.5001 387.2753,-119.5001"/>
</a>
</g>
</g>
<!-- github.com/go&#45;i2p/crypto/elligator2.Decode&#45;&gt;github.com/samber/oops.Wrapf -->
<g id="edge17" class="edge">
<title>github.com/go&#45;i2p/crypto/elligator2.Decode&#45;&gt;github.com/samber/oops.Wrapf</title>
<g id="a_edge17"><a xlink:title="at elligator2.go:84: calling [github.com/samber/oops.Wrapf]">
<path fill="none" stroke="#8b4513" d="M299.5344,-131.9472C339.2476,-150.8816 405.3728,-182.4086 447.3577,-202.426"/>
<polygon fill="#8b4513" stroke="#8b4513" points="445.9148,-205.6155 456.4476,-206.7599 448.9274,-199.2969 445.9148,-205.6155"/>
</a>
</g>
</g>
</g>
</svg>
