<?xml version="1.0" encoding="UTF-8" standalone="no"?>
<!DOCTYPE svg PUBLIC "-//W3C//DTD SVG 1.1//EN"
 "http://www.w3.org/Graphics/SVG/1.1/DTD/svg11.dtd">
<!-- Generated by graphviz version 2.40.1 (20161225.0304)
 -->
<!-- Title: gocallvis Pages: 1 -->
<svg width="765pt" height="575pt"
 viewBox="0.00 0.00 764.52 575.00" xmlns="http://www.w3.org/2000/svg" xmlns:xlink="http://www.w3.org/1999/xlink">
<g id="graph0" class="graph" transform="scale(1 1) rotate(0) translate(0 575)">
<title>gocallvis</title>
<polygon fill="#d3d3d3" stroke="transparent" points="0,0 0,-575 764.5164,-575 764.5164,0 0,0"/>
<g id="clust1" class="cluster">
<title>cluster_focus</title>
<polygon fill="#e6ecfa" stroke="#000000" stroke-width=".5" points="8,-8 8,-567 756.5164,-567 756.5164,-8 8,-8"/>
<text text-anchor="middle" x="382.2582" y="-546.8" font-family="Arial" font-size="18.00" fill="#000000">rand</text>
</g>
<g id="clust4" class="cluster">
<title>cluster_*github.com/sirupsen/logrus.Logger</title>
<g id="a_clust4"><a xlink:title="type: *github.com/sirupsen/logrus.Logger">
<path fill="#eed8ae" stroke="#000000" stroke-width=".5" d="M657.7779,-451C657.7779,-451 712.0991,-451 712.0991,-451 718.0991,-451 724.0991,-457 724.0991,-463 724.0991,-463 724.0991,-517 724.0991,-517 724.0991,-523 718.0991,-529 712.0991,-529 712.0991,-529 657.7779,-529 657.7779,-529 651.7779,-529 645.7779,-523 645.7779,-517 645.7779,-517 645.7779,-463 645.7779,-463 645.7779,-457 651.7779,-451 657.7779,-451"/>
<text text-anchor="middle" x="684.9385" y="-459.5" font-family="Arial" font-size="15.00" fill="#222222">(*Logger)</text>
</a>
</g>
</g>
<g id="clust3" class="cluster">
<title>cluster_*github.com/go&#45;i2p/logger.Logger</title>
<g id="a_clust3"><a xlink:title="type: *github.com/go&#45;i2p/logger.Logger">
<path fill="#eed8ae" stroke="#000000" stroke-width=".5" d="M645.3291,-182C645.3291,-182 723.5479,-182 723.5479,-182 729.5479,-182 735.5479,-188 735.5479,-194 735.5479,-194 735.5479,-431 735.5479,-431 735.5479,-437 729.5479,-443 723.5479,-443 723.5479,-443 645.3291,-443 645.3291,-443 639.3291,-443 633.3291,-437 633.3291,-431 633.3291,-431 633.3291,-194 633.3291,-194 633.3291,-188 639.3291,-182 645.3291,-182"/>
<text text-anchor="middle" x="684.4385" y="-190.5" font-family="Arial" font-size="15.00" fill="#222222">(*Logger)</text>
</a>
</g>
</g>
<g id="clust2" class="cluster">
<title>cluster_*github.com/go&#45;i2p/crypto/rand.SecureReader</title>
<g id="a_clust2"><a xlink:title="type: *github.com/go&#45;i2p/crypto/rand.SecureReader">
<path fill="#b0c4de" stroke="#000000" stroke-width=".5" d="M228.9706,-198C228.9706,-198 543.3606,-198 543.3606,-198 549.3606,-198 555.3606,-204 555.3606,-210 555.3606,-210 555.3606,-325 555.3606,-325 555.3606,-331 549.3606,-337 543.3606,-337 543.3606,-337 228.9706,-337 228.9706,-337 222.9706,-337 216.9706,-331 216.9706,-325 216.9706,-325 216.9706,-210 216.9706,-210 216.9706,-204 222.9706,-198 228.9706,-198"/>
<text text-anchor="middle" x="386.1656" y="-206.5" font-family="Arial" font-size="15.00" fill="#222222">(*SecureReader)</text>
</a>
</g>
</g>
<!-- github.com/go&#45;i2p/logger.GetGoI2PLogger -->
<g id="node1" class="node">
<title>github.com/go&#45;i2p/logger.GetGoI2PLogger</title>
<g id="a_node1"><a xlink:title="github.com/go&#45;i2p/logger.GetGoI2PLogger | defined in log.go:120">
<path fill="#ffe4b5" stroke="#000000" stroke-width="1.5" d="M733.128,-52C733.128,-52 635.749,-52 635.749,-52 629.749,-52 623.749,-46 623.749,-40 623.749,-40 623.749,-28 623.749,-28 623.749,-22 629.749,-16 635.749,-16 635.749,-16 733.128,-16 733.128,-16 739.128,-16 745.128,-22 745.128,-28 745.128,-28 745.128,-40 745.128,-40 745.128,-46 739.128,-52 733.128,-52"/>
<text text-anchor="middle" x="684.4385" y="-38.2" font-family="Verdana" font-size="14.00" fill="#000000">logger</text>
<text text-anchor="middle" x="684.4385" y="-21.4" font-family="Verdana" font-size="14.00" fill="#000000">GetGoI2PLogger</text>
</a>
</g>
</g>
<!-- github.com/samber/oops.Errorf -->
<g id="node2" class="node">
<title>github.com/samber/oops.Errorf</title>
<g id="a_node2"><a xlink:title="github.com/samber/oops.Errorf | defined in oops.go:34">
<path fill="#ffe4b5" stroke="#000000" stroke-width="1.5" d="M701.6338,-174C701.6338,-174 667.2432,-174 667.2432,-174 661.2432,-174 655.2432,-168 655.2432,-162 655.2432,-162 655.2432,-150 655.2432,-150 655.2432,-144 661.2432,-138 667.2432,-138 667.2432,-138 701.6338,-138 701.6338,-138 707.6338,-138 713.6338,-144 713.6338,-150 713.6338,-150 713.6338,-162 713.6338,-162 713.6338,-168 707.6338,-174 701.6338,-174"/>
<text text-anchor="middle" x="684.4385" y="-160.2" font-family="Verdana" font-size="14.00" fill="#000000">oops</text>
<text text-anchor="middle" x="684.4385" y="-143.4" font-family="Verdana" font-size="14.00" fill="#000000">Errorf</text>
</a>
</g>
</g>
<!-- github.com/go&#45;i2p/crypto/rand.ReadBigIntInRange -->
<g id="node3" class="node">
<title>github.com/go&#45;i2p/crypto/rand.ReadBigIntInRange</title>
<g id="a_node3"><a xlink:title="github.com/go&#45;i2p/crypto/rand.ReadBigIntInRange | defined in secure_reader.go:160&#10;at secure_reader.go:161: calling [(*github.com/go&#45;i2p/crypto/rand.SecureReader).ReadBigIntInRange]">
<path fill="#add8e6" stroke="#000000" stroke-width="1.5" d="M139.9559,-268C139.9559,-268 28.0147,-268 28.0147,-268 22.0147,-268 16.0147,-262 16.0147,-256 16.0147,-256 16.0147,-244 16.0147,-244 16.0147,-238 22.0147,-232 28.0147,-232 28.0147,-232 139.9559,-232 139.9559,-232 145.9559,-232 151.9559,-238 151.9559,-244 151.9559,-244 151.9559,-256 151.9559,-256 151.9559,-262 145.9559,-268 139.9559,-268"/>
<text text-anchor="middle" x="83.9853" y="-245.8" font-family="Verdana" font-size="14.00" fill="#000000">ReadBigIntInRange</text>
</a>
</g>
</g>
<!-- (*github.com/go&#45;i2p/crypto/rand.SecureReader).ReadBigIntInRange -->
<g id="node10" class="node">
<title>(*github.com/go&#45;i2p/crypto/rand.SecureReader).ReadBigIntInRange</title>
<g id="a_node10"><a xlink:title="(*github.com/go&#45;i2p/crypto/rand.SecureReader).ReadBigIntInRange | defined in secure_reader.go:87&#10;at secure_reader.go:88: calling [github.com/go&#45;i2p/logger.GetGoI2PLogger]&#10;at secure_reader.go:110: calling [(*github.com/sirupsen/logrus.Logger).Debug]&#10;at secure_reader.go:106: calling [(*github.com/go&#45;i2p/logger.Logger).WithFields]&#10;at secure_reader.go:91: calling [github.com/samber/oops.Errorf]&#10;at secure_reader.go:100: calling [github.com/samber/oops.Errorf]&#10;at secure_reader.go:98: calling [(*github.com/go&#45;i2p/crypto/rand.SecureReader).ReadBigInt]">
<path fill="#add8e6" stroke="#000000" stroke-width="1.5" d="M348.9265,-268C348.9265,-268 236.9853,-268 236.9853,-268 230.9853,-268 224.9853,-262 224.9853,-256 224.9853,-256 224.9853,-244 224.9853,-244 224.9853,-238 230.9853,-232 236.9853,-232 236.9853,-232 348.9265,-232 348.9265,-232 354.9265,-232 360.9265,-238 360.9265,-244 360.9265,-244 360.9265,-256 360.9265,-256 360.9265,-262 354.9265,-268 348.9265,-268"/>
<text text-anchor="middle" x="292.9559" y="-245.8" font-family="Verdana" font-size="14.00" fill="#000000">ReadBigIntInRange</text>
</a>
</g>
</g>
<!-- github.com/go&#45;i2p/crypto/rand.ReadBigIntInRange&#45;&gt;(*github.com/go&#45;i2p/crypto/rand.SecureReader).ReadBigIntInRange -->
<g id="edge18" class="edge">
<title>github.com/go&#45;i2p/crypto/rand.ReadBigIntInRange&#45;&gt;(*github.com/go&#45;i2p/crypto/rand.SecureReader).ReadBigIntInRange</title>
<g id="a_edge18"><a xlink:title="at secure_reader.go:161: calling [(*github.com/go&#45;i2p/crypto/rand.SecureReader).ReadBigIntInRange]">
<path fill="none" stroke="#000000" d="M152.1209,-250C172.0915,-250 194.0859,-250 214.6369,-250"/>
<polygon fill="#000000" stroke="#000000" points="214.9129,-253.5001 224.9128,-250 214.9128,-246.5001 214.9129,-253.5001"/>
</a>
</g>
</g>
<!-- github.com/go&#45;i2p/crypto/rand.ReadBigInt -->
<g id="node4" class="node">
<title>github.com/go&#45;i2p/crypto/rand.ReadBigInt</title>
<g id="a_node4"><a xlink:title="github.com/go&#45;i2p/crypto/rand.ReadBigInt | defined in secure_reader.go:155&#10;at secure_reader.go:156: calling [(*github.com/go&#45;i2p/crypto/rand.SecureReader).ReadBigInt]">
<path fill="#add8e6" stroke="#000000" stroke-width="1.5" d="M325.0013,-190C325.0013,-190 260.9105,-190 260.9105,-190 254.9105,-190 248.9105,-184 248.9105,-178 248.9105,-178 248.9105,-166 248.9105,-166 248.9105,-160 254.9105,-154 260.9105,-154 260.9105,-154 325.0013,-154 325.0013,-154 331.0013,-154 337.0013,-160 337.0013,-166 337.0013,-166 337.0013,-178 337.0013,-178 337.0013,-184 331.0013,-190 325.0013,-190"/>
<text text-anchor="middle" x="292.9559" y="-167.8" font-family="Verdana" font-size="14.00" fill="#000000">ReadBigInt</text>
</a>
</g>
</g>
<!-- (*github.com/go&#45;i2p/crypto/rand.SecureReader).ReadBigInt -->
<g id="node11" class="node">
<title>(*github.com/go&#45;i2p/crypto/rand.SecureReader).ReadBigInt</title>
<g id="a_node11"><a xlink:title="(*github.com/go&#45;i2p/crypto/rand.SecureReader).ReadBigInt | defined in secure_reader.go:57&#10;at secure_reader.go:82: calling [(*github.com/go&#45;i2p/logger.Logger).WithError]&#10;at secure_reader.go:68: calling [(*github.com/go&#45;i2p/logger.Logger).WithError]&#10;at secure_reader.go:74: calling [(*github.com/sirupsen/logrus.Logger).Debug]&#10;at secure_reader.go:78: calling [(*github.com/sirupsen/logrus.Logger).Debug]&#10;at secure_reader.go:82: calling [(*github.com/go&#45;i2p/logger.Logger).Error]&#10;at secure_reader.go:68: calling [(*github.com/go&#45;i2p/logger.Logger).Error]&#10;at secure_reader.go:74: calling [(*github.com/go&#45;i2p/logger.Logger).WithField]&#10;at secure_reader.go:78: calling [(*github.com/go&#45;i2p/logger.Logger).WithField]&#10;at secure_reader.go:58: calling [github.com/go&#45;i2p/logger.GetGoI2PLogger]&#10;at secure_reader.go:61: calling [github.com/samber/oops.Errorf]&#10;at secure_reader.go:81: calling [github.com/samber/oops.Errorf]&#10;at secure_reader.go:69: calling [github.com/samber/oops.Errorf]">
<path fill="#add8e6" stroke="#000000" stroke-width="1.5" d="M522.6963,-268C522.6963,-268 458.6055,-268 458.6055,-268 452.6055,-268 446.6055,-262 446.6055,-256 446.6055,-256 446.6055,-244 446.6055,-244 446.6055,-238 452.6055,-232 458.6055,-232 458.6055,-232 522.6963,-232 522.6963,-232 528.6963,-232 534.6963,-238 534.6963,-244 534.6963,-244 534.6963,-256 534.6963,-256 534.6963,-262 528.6963,-268 522.6963,-268"/>
<text text-anchor="middle" x="490.6509" y="-245.8" font-family="Verdana" font-size="14.00" fill="#000000">ReadBigInt</text>
</a>
</g>
</g>
<!-- github.com/go&#45;i2p/crypto/rand.ReadBigInt&#45;&gt;(*github.com/go&#45;i2p/crypto/rand.SecureReader).ReadBigInt -->
<g id="edge7" class="edge">
<title>github.com/go&#45;i2p/crypto/rand.ReadBigInt&#45;&gt;(*github.com/go&#45;i2p/crypto/rand.SecureReader).ReadBigInt</title>
<g id="a_edge7"><a xlink:title="at secure_reader.go:156: calling [(*github.com/go&#45;i2p/crypto/rand.SecureReader).ReadBigInt]">
<path fill="none" stroke="#000000" d="M337.1218,-185.4186C345.1108,-188.0927 353.3207,-191.0055 360.9412,-194 394.2525,-207.0899 401.0172,-213.9645 433.9412,-228 434.9612,-228.4348 435.993,-228.871 437.0338,-229.3077"/>
<polygon fill="#000000" stroke="#000000" points="435.9932,-232.664 446.573,-233.2285 438.6543,-226.1896 435.9932,-232.664"/>
</a>
</g>
</g>
<!-- github.com/go&#45;i2p/crypto/rand.Read -->
<g id="node5" class="node">
<title>github.com/go&#45;i2p/crypto/rand.Read</title>
<g id="a_node5"><a xlink:title="github.com/go&#45;i2p/crypto/rand.Read | defined in secure_reader.go:150&#10;at secure_reader.go:151: calling [(*github.com/go&#45;i2p/crypto/rand.SecureReader).Read]">
<path fill="#add8e6" stroke="#000000" stroke-width="1.5" d="M98.9853,-329C98.9853,-329 68.9853,-329 68.9853,-329 62.9853,-329 56.9853,-323 56.9853,-317 56.9853,-317 56.9853,-305 56.9853,-305 56.9853,-299 62.9853,-293 68.9853,-293 68.9853,-293 98.9853,-293 98.9853,-293 104.9853,-293 110.9853,-299 110.9853,-305 110.9853,-305 110.9853,-317 110.9853,-317 110.9853,-323 104.9853,-329 98.9853,-329"/>
<text text-anchor="middle" x="83.9853" y="-306.8" font-family="Verdana" font-size="14.00" fill="#000000">Read</text>
</a>
</g>
</g>
<!-- (*github.com/go&#45;i2p/crypto/rand.SecureReader).Read -->
<g id="node8" class="node">
<title>(*github.com/go&#45;i2p/crypto/rand.SecureReader).Read</title>
<g id="a_node8"><a xlink:title="(*github.com/go&#45;i2p/crypto/rand.SecureReader).Read | defined in secure_reader.go:28&#10;at secure_reader.go:51: calling [github.com/samber/oops.Errorf]&#10;at secure_reader.go:36: calling [github.com/samber/oops.Errorf]&#10;at secure_reader.go:47: calling [(*github.com/go&#45;i2p/logger.Logger).WithField]&#10;at secure_reader.go:42: calling [(*github.com/go&#45;i2p/logger.Logger).WithField]&#10;at secure_reader.go:52: calling [(*github.com/go&#45;i2p/logger.Logger).Error]&#10;at secure_reader.go:35: calling [(*github.com/go&#45;i2p/logger.Logger).Error]&#10;at secure_reader.go:41: calling [(*github.com/go&#45;i2p/crypto/rand.SecureReader).validateEntropy]&#10;at secure_reader.go:47: calling [(*github.com/sirupsen/logrus.Logger).Debug]&#10;at secure_reader.go:42: calling [(*github.com/sirupsen/logrus.Logger).Debug]&#10;at secure_reader.go:29: calling [github.com/go&#45;i2p/logger.GetGoI2PLogger]&#10;at secure_reader.go:52: calling [(*github.com/go&#45;i2p/logger.Logger).WithError]&#10;at secure_reader.go:35: calling [(*github.com/go&#45;i2p/logger.Logger).WithError]">
<path fill="#add8e6" stroke="#000000" stroke-width="1.5" d="M307.9559,-329C307.9559,-329 277.9559,-329 277.9559,-329 271.9559,-329 265.9559,-323 265.9559,-317 265.9559,-317 265.9559,-305 265.9559,-305 265.9559,-299 271.9559,-293 277.9559,-293 277.9559,-293 307.9559,-293 307.9559,-293 313.9559,-293 319.9559,-299 319.9559,-305 319.9559,-305 319.9559,-317 319.9559,-317 319.9559,-323 313.9559,-329 307.9559,-329"/>
<text text-anchor="middle" x="292.9559" y="-306.8" font-family="Verdana" font-size="14.00" fill="#000000">Read</text>
</a>
</g>
</g>
<!-- github.com/go&#45;i2p/crypto/rand.Read&#45;&gt;(*github.com/go&#45;i2p/crypto/rand.SecureReader).Read -->
<g id="edge19" class="edge">
<title>github.com/go&#45;i2p/crypto/rand.Read&#45;&gt;(*github.com/go&#45;i2p/crypto/rand.SecureReader).Read</title>
<g id="a_edge19"><a xlink:title="at secure_reader.go:151: calling [(*github.com/go&#45;i2p/crypto/rand.SecureReader).Read]">
<path fill="none" stroke="#000000" d="M111.3046,-311C148.1466,-311 213.9089,-311 255.3856,-311"/>
<polygon fill="#000000" stroke="#000000" points="255.63,-314.5001 265.6299,-311 255.6299,-307.5001 255.63,-314.5001"/>
</a>
</g>
</g>
<!-- github.com/go&#45;i2p/crypto/rand.init -->
<g id="node6" class="node">
<title>github.com/go&#45;i2p/crypto/rand.init</title>
<g id="a_node6"><a xlink:title="github.com/go&#45;i2p/crypto/rand.init | defined in .:0&#10;at constants.go:9: calling [github.com/go&#45;i2p/logger.GetGoI2PLogger]&#10;at constants.go:13: calling [github.com/samber/oops.Errorf]&#10;at constants.go:14: calling [github.com/samber/oops.Errorf]&#10;at constants.go:15: calling [github.com/samber/oops.Errorf]&#10;at secure_reader.go:147: calling [github.com/go&#45;i2p/crypto/rand.NewSecureReader]">
<path fill="#add8e6" stroke="#000000" stroke-width=".5" d="M505.6509,-116C505.6509,-116 475.6509,-116 475.6509,-116 469.6509,-116 463.6509,-110 463.6509,-104 463.6509,-104 463.6509,-92 463.6509,-92 463.6509,-86 469.6509,-80 475.6509,-80 475.6509,-80 505.6509,-80 505.6509,-80 511.6509,-80 517.6509,-86 517.6509,-92 517.6509,-92 517.6509,-104 517.6509,-104 517.6509,-110 511.6509,-116 505.6509,-116"/>
<text text-anchor="middle" x="490.6509" y="-93.8" font-family="Verdana" font-size="14.00" fill="#000000">init</text>
</a>
</g>
</g>
<!-- github.com/go&#45;i2p/crypto/rand.init&#45;&gt;github.com/go&#45;i2p/logger.GetGoI2PLogger -->
<g id="edge14" class="edge">
<title>github.com/go&#45;i2p/crypto/rand.init&#45;&gt;github.com/go&#45;i2p/logger.GetGoI2PLogger</title>
<g id="a_edge14"><a xlink:title="at constants.go:9: calling [github.com/go&#45;i2p/logger.GetGoI2PLogger]">
<path fill="none" stroke="#8b4513" d="M518.0049,-88.9661C544.4211,-80.2419 585.4122,-66.7043 620.1029,-55.2474"/>
<polygon fill="#8b4513" stroke="#8b4513" points="621.305,-58.5364 629.703,-52.0769 619.1098,-51.8895 621.305,-58.5364"/>
</a>
</g>
</g>
<!-- github.com/go&#45;i2p/crypto/rand.init&#45;&gt;github.com/samber/oops.Errorf -->
<g id="edge23" class="edge">
<title>github.com/go&#45;i2p/crypto/rand.init&#45;&gt;github.com/samber/oops.Errorf</title>
<g id="a_edge23"><a xlink:title="at constants.go:13: calling [github.com/samber/oops.Errorf]&#10;at constants.go:14: calling [github.com/samber/oops.Errorf]&#10;at constants.go:15: calling [github.com/samber/oops.Errorf]">
<path fill="none" stroke="#8b4513" d="M518.0049,-106.187C551.3339,-116.1622 607.864,-133.0815 645.6686,-144.3963"/>
<polygon fill="#8b4513" stroke="#8b4513" points="644.7413,-147.7721 655.325,-147.2864 646.7484,-141.066 644.7413,-147.7721"/>
</a>
</g>
</g>
<!-- github.com/go&#45;i2p/crypto/rand.NewSecureReader -->
<g id="node7" class="node">
<title>github.com/go&#45;i2p/crypto/rand.NewSecureReader</title>
<g id="a_node7"><a xlink:title="github.com/go&#45;i2p/crypto/rand.NewSecureReader | defined in secure_reader.go:20">
<path fill="#add8e6" stroke="#000000" stroke-width="1.5" d="M736.5944,-113C736.5944,-113 632.2826,-113 632.2826,-113 626.2826,-113 620.2826,-107 620.2826,-101 620.2826,-101 620.2826,-89 620.2826,-89 620.2826,-83 626.2826,-77 632.2826,-77 632.2826,-77 736.5944,-77 736.5944,-77 742.5944,-77 748.5944,-83 748.5944,-89 748.5944,-89 748.5944,-101 748.5944,-101 748.5944,-107 742.5944,-113 736.5944,-113"/>
<text text-anchor="middle" x="684.4385" y="-90.8" font-family="Verdana" font-size="14.00" fill="#000000">NewSecureReader</text>
</a>
</g>
</g>
<!-- github.com/go&#45;i2p/crypto/rand.init&#45;&gt;github.com/go&#45;i2p/crypto/rand.NewSecureReader -->
<g id="edge24" class="edge">
<title>github.com/go&#45;i2p/crypto/rand.init&#45;&gt;github.com/go&#45;i2p/crypto/rand.NewSecureReader</title>
<g id="a_edge24"><a xlink:title="at secure_reader.go:147: calling [github.com/go&#45;i2p/crypto/rand.NewSecureReader]">
<path fill="none" stroke="#000000" d="M518.0049,-97.5765C541.823,-97.2078 577.4901,-96.6557 609.7042,-96.157"/>
<polygon fill="#000000" stroke="#000000" points="610.078,-99.6517 620.0226,-95.9972 609.9696,-92.6525 610.078,-99.6517"/>
</a>
</g>
</g>
<!-- (*github.com/go&#45;i2p/crypto/rand.SecureReader).Read&#45;&gt;github.com/go&#45;i2p/logger.GetGoI2PLogger -->
<g id="edge20" class="edge">
<title>(*github.com/go&#45;i2p/crypto/rand.SecureReader).Read&#45;&gt;github.com/go&#45;i2p/logger.GetGoI2PLogger</title>
<g id="a_edge20"><a xlink:title="at secure_reader.go:29: calling [github.com/go&#45;i2p/logger.GetGoI2PLogger]">
<path fill="none" stroke="#8b4513" d="M320.2496,-304.5868C334.0962,-300.0714 350.2098,-292.6893 360.9412,-281 428.6179,-207.2824 356.6187,-131.5267 433.9412,-68 460.6579,-46.0501 549.3871,-38.24 613.6686,-35.4791"/>
<polygon fill="#8b4513" stroke="#8b4513" points="613.9092,-38.9724 623.7623,-35.0779 613.6311,-31.9779 613.9092,-38.9724"/>
</a>
</g>
</g>
<!-- (*github.com/go&#45;i2p/crypto/rand.SecureReader).Read&#45;&gt;github.com/samber/oops.Errorf -->
<g id="edge1" class="edge">
<title>(*github.com/go&#45;i2p/crypto/rand.SecureReader).Read&#45;&gt;github.com/samber/oops.Errorf</title>
<g id="a_edge1"><a xlink:title="at secure_reader.go:51: calling [github.com/samber/oops.Errorf]&#10;at secure_reader.go:36: calling [github.com/samber/oops.Errorf]">
<path fill="none" stroke="#8b4513" d="M319.9793,-301.1153C332.8167,-295.9152 348.1192,-288.9644 360.9412,-281 396.8571,-258.6907 396.3049,-239.2656 433.9412,-220 470.7674,-201.1491 584.4395,-176.2625 645.1959,-163.8064"/>
<polygon fill="#8b4513" stroke="#8b4513" points="646.0832,-167.1976 655.184,-161.7729 644.6867,-160.3383 646.0832,-167.1976"/>
</a>
</g>
</g>
<!-- (*github.com/go&#45;i2p/crypto/rand.SecureReader).validateEntropy -->
<g id="node9" class="node">
<title>(*github.com/go&#45;i2p/crypto/rand.SecureReader).validateEntropy</title>
<g id="a_node9"><a xlink:title="(*github.com/go&#45;i2p/crypto/rand.SecureReader).validateEntropy | defined in secure_reader.go:116">
<path fill="#add8e6" stroke="#000000" stroke-width=".5" d="M535.5711,-329C535.5711,-329 445.7307,-329 445.7307,-329 439.7307,-329 433.7307,-323 433.7307,-317 433.7307,-317 433.7307,-305 433.7307,-305 433.7307,-299 439.7307,-293 445.7307,-293 445.7307,-293 535.5711,-293 535.5711,-293 541.5711,-293 547.5711,-299 547.5711,-305 547.5711,-305 547.5711,-317 547.5711,-317 547.5711,-323 541.5711,-329 535.5711,-329"/>
<text text-anchor="middle" x="490.6509" y="-306.8" font-family="Verdana" font-size="14.00" fill="#000000">validateEntropy</text>
</a>
</g>
</g>
<!-- (*github.com/go&#45;i2p/crypto/rand.SecureReader).Read&#45;&gt;(*github.com/go&#45;i2p/crypto/rand.SecureReader).validateEntropy -->
<g id="edge9" class="edge">
<title>(*github.com/go&#45;i2p/crypto/rand.SecureReader).Read&#45;&gt;(*github.com/go&#45;i2p/crypto/rand.SecureReader).validateEntropy</title>
<g id="a_edge9"><a xlink:title="at secure_reader.go:41: calling [(*github.com/go&#45;i2p/crypto/rand.SecureReader).validateEntropy]">
<path fill="none" stroke="#000000" d="M320.03,-311C346.5946,-311 388.164,-311 423.62,-311"/>
<polygon fill="#000000" stroke="#000000" points="423.9209,-314.5001 433.9208,-311 423.9208,-307.5001 423.9209,-314.5001"/>
</a>
</g>
</g>
<!-- (*github.com/go&#45;i2p/logger.Logger).WithError -->
<g id="node12" class="node">
<title>(*github.com/go&#45;i2p/logger.Logger).WithError</title>
<g id="a_node12"><a xlink:title="(*github.com/go&#45;i2p/logger.Logger).WithError | defined in log.go:66">
<path fill="#ffe4b5" stroke="#000000" stroke-width="1.5" d="M712.97,-435C712.97,-435 655.907,-435 655.907,-435 649.907,-435 643.907,-429 643.907,-423 643.907,-423 643.907,-411 643.907,-411 643.907,-405 649.907,-399 655.907,-399 655.907,-399 712.97,-399 712.97,-399 718.97,-399 724.97,-405 724.97,-411 724.97,-411 724.97,-423 724.97,-423 724.97,-429 718.97,-435 712.97,-435"/>
<text text-anchor="middle" x="684.4385" y="-421.2" font-family="Verdana" font-size="14.00" fill="#000000">logger</text>
<text text-anchor="middle" x="684.4385" y="-404.4" font-family="Verdana" font-size="14.00" fill="#000000">WithError</text>
</a>
</g>
</g>
<!-- (*github.com/go&#45;i2p/crypto/rand.SecureReader).Read&#45;&gt;(*github.com/go&#45;i2p/logger.Logger).WithError -->
<g id="edge21" class="edge">
<title>(*github.com/go&#45;i2p/crypto/rand.SecureReader).Read&#45;&gt;(*github.com/go&#45;i2p/logger.Logger).WithError</title>
<g id="a_edge21"><a xlink:title="at secure_reader.go:52: calling [(*github.com/go&#45;i2p/logger.Logger).WithError]&#10;at secure_reader.go:35: calling [(*github.com/go&#45;i2p/logger.Logger).WithError]">
<path fill="none" stroke="#8b4513" d="M309.9773,-329.0856C329.2585,-348.4989 362.5007,-378.8531 396.9412,-396 472.7483,-433.7421 573.9475,-430.7654 633.8517,-424.4093"/>
<polygon fill="#8b4513" stroke="#8b4513" points="634.2786,-427.8834 643.8208,-423.2794 633.4902,-420.9279 634.2786,-427.8834"/>
</a>
</g>
</g>
<!-- (*github.com/go&#45;i2p/logger.Logger).Error -->
<g id="node13" class="node">
<title>(*github.com/go&#45;i2p/logger.Logger).Error</title>
<g id="a_node13"><a xlink:title="(*github.com/go&#45;i2p/logger.Logger).Error | defined in log.go:42">
<path fill="#ffe4b5" stroke="#000000" stroke-width="1.5" d="M702.2048,-252C702.2048,-252 666.6722,-252 666.6722,-252 660.6722,-252 654.6722,-246 654.6722,-240 654.6722,-240 654.6722,-228 654.6722,-228 654.6722,-222 660.6722,-216 666.6722,-216 666.6722,-216 702.2048,-216 702.2048,-216 708.2048,-216 714.2048,-222 714.2048,-228 714.2048,-228 714.2048,-240 714.2048,-240 714.2048,-246 708.2048,-252 702.2048,-252"/>
<text text-anchor="middle" x="684.4385" y="-238.2" font-family="Verdana" font-size="14.00" fill="#000000">logger</text>
<text text-anchor="middle" x="684.4385" y="-221.4" font-family="Verdana" font-size="14.00" fill="#000000">Error</text>
</a>
</g>
</g>
<!-- (*github.com/go&#45;i2p/crypto/rand.SecureReader).Read&#45;&gt;(*github.com/go&#45;i2p/logger.Logger).Error -->
<g id="edge8" class="edge">
<title>(*github.com/go&#45;i2p/crypto/rand.SecureReader).Read&#45;&gt;(*github.com/go&#45;i2p/logger.Logger).Error</title>
<g id="a_edge8"><a xlink:title="at secure_reader.go:52: calling [(*github.com/go&#45;i2p/logger.Logger).Error]&#10;at secure_reader.go:35: calling [(*github.com/go&#45;i2p/logger.Logger).Error]">
<path fill="none" stroke="#8b4513" d="M320.1346,-323.2798C369.4988,-343.6727 476.1052,-378.8147 555.3606,-342 595.9779,-323.133 584.9846,-292.4639 620.3606,-265 627.8878,-259.1563 636.694,-254.0205 645.3259,-249.6962"/>
<polygon fill="#8b4513" stroke="#8b4513" points="647.0142,-252.7694 654.5552,-245.3273 644.0192,-246.4425 647.0142,-252.7694"/>
</a>
</g>
</g>
<!-- (*github.com/go&#45;i2p/logger.Logger).WithField -->
<g id="node14" class="node">
<title>(*github.com/go&#45;i2p/logger.Logger).WithField</title>
<g id="a_node14"><a xlink:title="(*github.com/go&#45;i2p/logger.Logger).WithField | defined in log.go:54">
<path fill="#ffe4b5" stroke="#000000" stroke-width="1.5" d="M712.713,-313C712.713,-313 656.164,-313 656.164,-313 650.164,-313 644.164,-307 644.164,-301 644.164,-301 644.164,-289 644.164,-289 644.164,-283 650.164,-277 656.164,-277 656.164,-277 712.713,-277 712.713,-277 718.713,-277 724.713,-283 724.713,-289 724.713,-289 724.713,-301 724.713,-301 724.713,-307 718.713,-313 712.713,-313"/>
<text text-anchor="middle" x="684.4385" y="-299.2" font-family="Verdana" font-size="14.00" fill="#000000">logger</text>
<text text-anchor="middle" x="684.4385" y="-282.4" font-family="Verdana" font-size="14.00" fill="#000000">WithField</text>
</a>
</g>
</g>
<!-- (*github.com/go&#45;i2p/crypto/rand.SecureReader).Read&#45;&gt;(*github.com/go&#45;i2p/logger.Logger).WithField -->
<g id="edge2" class="edge">
<title>(*github.com/go&#45;i2p/crypto/rand.SecureReader).Read&#45;&gt;(*github.com/go&#45;i2p/logger.Logger).WithField</title>
<g id="a_edge2"><a xlink:title="at secure_reader.go:47: calling [(*github.com/go&#45;i2p/logger.Logger).WithField]&#10;at secure_reader.go:42: calling [(*github.com/go&#45;i2p/logger.Logger).WithField]">
<path fill="none" stroke="#8b4513" d="M309.642,-329.0967C328.6297,-348.225 361.6162,-377.2237 396.9412,-389 463.7359,-411.2674 490.103,-415.4352 555.3606,-389 592.6487,-373.8949 587.3892,-349.0533 620.3606,-326 624.9182,-322.8134 629.8535,-319.7892 634.8928,-316.9687"/>
<polygon fill="#8b4513" stroke="#8b4513" points="636.8281,-319.9039 644.0169,-312.121 633.5437,-313.7222 636.8281,-319.9039"/>
</a>
</g>
</g>
<!-- (*github.com/sirupsen/logrus.Logger).Debug -->
<g id="node16" class="node">
<title>(*github.com/sirupsen/logrus.Logger).Debug</title>
<g id="a_node16"><a xlink:title="(*github.com/sirupsen/logrus.Logger).Debug | defined in logger.go:221">
<path fill="#ffe4b5" stroke="#000000" stroke-width="1.5" d="M703.2605,-521C703.2605,-521 665.6165,-521 665.6165,-521 659.6165,-521 653.6165,-515 653.6165,-509 653.6165,-509 653.6165,-497 653.6165,-497 653.6165,-491 659.6165,-485 665.6165,-485 665.6165,-485 703.2605,-485 703.2605,-485 709.2605,-485 715.2605,-491 715.2605,-497 715.2605,-497 715.2605,-509 715.2605,-509 715.2605,-515 709.2605,-521 703.2605,-521"/>
<text text-anchor="middle" x="684.4385" y="-507.2" font-family="Verdana" font-size="14.00" fill="#000000">logrus</text>
<text text-anchor="middle" x="684.4385" y="-490.4" font-family="Verdana" font-size="14.00" fill="#000000">Debug</text>
</a>
</g>
</g>
<!-- (*github.com/go&#45;i2p/crypto/rand.SecureReader).Read&#45;&gt;(*github.com/sirupsen/logrus.Logger).Debug -->
<g id="edge10" class="edge">
<title>(*github.com/go&#45;i2p/crypto/rand.SecureReader).Read&#45;&gt;(*github.com/sirupsen/logrus.Logger).Debug</title>
<g id="a_edge10"><a xlink:title="at secure_reader.go:47: calling [(*github.com/sirupsen/logrus.Logger).Debug]&#10;at secure_reader.go:42: calling [(*github.com/sirupsen/logrus.Logger).Debug]">
<path fill="none" stroke="#8b4513" d="M296.8098,-329.2122C306.1433,-368.1836 333.9903,-459.1844 396.9412,-497 473.8492,-543.1998 584.4562,-527.4926 643.5496,-514.0279"/>
<polygon fill="#8b4513" stroke="#8b4513" points="644.6954,-517.3533 653.6182,-511.6407 643.0805,-510.5421 644.6954,-517.3533"/>
</a>
</g>
</g>
<!-- (*github.com/go&#45;i2p/crypto/rand.SecureReader).ReadBigIntInRange&#45;&gt;github.com/go&#45;i2p/logger.GetGoI2PLogger -->
<g id="edge3" class="edge">
<title>(*github.com/go&#45;i2p/crypto/rand.SecureReader).ReadBigIntInRange&#45;&gt;github.com/go&#45;i2p/logger.GetGoI2PLogger</title>
<g id="a_edge3"><a xlink:title="at secure_reader.go:88: calling [github.com/go&#45;i2p/logger.GetGoI2PLogger]">
<path fill="none" stroke="#8b4513" d="M356.3658,-231.8331C357.9649,-230.636 359.4955,-229.3601 360.9412,-228 425.623,-167.1503 361.4135,-93.246 433.9412,-42 485.7107,-5.4212 559.6809,-7.8836 613.819,-16.7985"/>
<polygon fill="#8b4513" stroke="#8b4513" points="613.2327,-20.249 623.6872,-18.5303 614.4427,-13.3544 613.2327,-20.249"/>
</a>
</g>
</g>
<!-- (*github.com/go&#45;i2p/crypto/rand.SecureReader).ReadBigIntInRange&#45;&gt;github.com/samber/oops.Errorf -->
<g id="edge15" class="edge">
<title>(*github.com/go&#45;i2p/crypto/rand.SecureReader).ReadBigIntInRange&#45;&gt;github.com/samber/oops.Errorf</title>
<g id="a_edge15"><a xlink:title="at secure_reader.go:91: calling [github.com/samber/oops.Errorf]&#10;at secure_reader.go:100: calling [github.com/samber/oops.Errorf]">
<path fill="none" stroke="#8b4513" d="M353.1556,-231.8726C355.8233,-230.6473 358.4311,-229.3568 360.9412,-228 379.0154,-218.2304 378.1254,-207.2517 396.9412,-199 480.0464,-162.5541 588.2413,-156.0924 645.2825,-155.4744"/>
<polygon fill="#8b4513" stroke="#8b4513" points="645.3392,-158.9743 655.3204,-155.4211 645.302,-151.9744 645.3392,-158.9743"/>
</a>
</g>
</g>
<!-- (*github.com/go&#45;i2p/crypto/rand.SecureReader).ReadBigIntInRange&#45;&gt;(*github.com/go&#45;i2p/crypto/rand.SecureReader).ReadBigInt -->
<g id="edge17" class="edge">
<title>(*github.com/go&#45;i2p/crypto/rand.SecureReader).ReadBigIntInRange&#45;&gt;(*github.com/go&#45;i2p/crypto/rand.SecureReader).ReadBigInt</title>
<g id="a_edge17"><a xlink:title="at secure_reader.go:98: calling [(*github.com/go&#45;i2p/crypto/rand.SecureReader).ReadBigInt]">
<path fill="none" stroke="#000000" d="M360.992,-254.7204C373.287,-255.1518 385.9936,-255.3219 397.9412,-255 410.2777,-254.6676 423.5275,-254.0868 436.041,-253.4359"/>
<polygon fill="#000000" stroke="#000000" points="436.5473,-256.9136 446.3428,-252.8766 436.1678,-249.9239 436.5473,-256.9136"/>
</a>
</g>
</g>
<!-- (*github.com/go&#45;i2p/logger.Logger).WithFields -->
<g id="node15" class="node">
<title>(*github.com/go&#45;i2p/logger.Logger).WithFields</title>
<g id="a_node15"><a xlink:title="(*github.com/go&#45;i2p/logger.Logger).WithFields | defined in log.go:60">
<path fill="#ffe4b5" stroke="#000000" stroke-width="1.5" d="M715.6576,-374C715.6576,-374 653.2194,-374 653.2194,-374 647.2194,-374 641.2194,-368 641.2194,-362 641.2194,-362 641.2194,-350 641.2194,-350 641.2194,-344 647.2194,-338 653.2194,-338 653.2194,-338 715.6576,-338 715.6576,-338 721.6576,-338 727.6576,-344 727.6576,-350 727.6576,-350 727.6576,-362 727.6576,-362 727.6576,-368 721.6576,-374 715.6576,-374"/>
<text text-anchor="middle" x="684.4385" y="-360.2" font-family="Verdana" font-size="14.00" fill="#000000">logger</text>
<text text-anchor="middle" x="684.4385" y="-343.4" font-family="Verdana" font-size="14.00" fill="#000000">WithFields</text>
</a>
</g>
</g>
<!-- (*github.com/go&#45;i2p/crypto/rand.SecureReader).ReadBigIntInRange&#45;&gt;(*github.com/go&#45;i2p/logger.Logger).WithFields -->
<g id="edge13" class="edge">
<title>(*github.com/go&#45;i2p/crypto/rand.SecureReader).ReadBigIntInRange&#45;&gt;(*github.com/go&#45;i2p/logger.Logger).WithFields</title>
<g id="a_edge13"><a xlink:title="at secure_reader.go:106: calling [(*github.com/go&#45;i2p/logger.Logger).WithFields]">
<path fill="none" stroke="#8b4513" d="M337.3821,-268.1687C345.4247,-272.0385 353.5864,-276.3689 360.9412,-281 396.7198,-303.5287 394.6136,-326.4761 433.9412,-342 498.1319,-367.3382 578.8165,-366.6754 630.9918,-362.4901"/>
<polygon fill="#8b4513" stroke="#8b4513" points="631.376,-365.97 641.0334,-361.6127 630.7667,-358.9965 631.376,-365.97"/>
</a>
</g>
</g>
<!-- (*github.com/go&#45;i2p/crypto/rand.SecureReader).ReadBigIntInRange&#45;&gt;(*github.com/sirupsen/logrus.Logger).Debug -->
<g id="edge6" class="edge">
<title>(*github.com/go&#45;i2p/crypto/rand.SecureReader).ReadBigIntInRange&#45;&gt;(*github.com/sirupsen/logrus.Logger).Debug</title>
<g id="a_edge6"><a xlink:title="at secure_reader.go:110: calling [(*github.com/sirupsen/logrus.Logger).Debug]">
<path fill="none" stroke="#8b4513" d="M339.7876,-268.1617C347.1691,-271.9115 354.4855,-276.2032 360.9412,-281 380.4059,-295.4629 380.4772,-304.1959 396.9412,-322 412.9453,-339.3068 415.3008,-345.5712 433.9412,-360 502.5343,-413.0955 592.989,-459.8089 644.3162,-484.4679"/>
<polygon fill="#8b4513" stroke="#8b4513" points="642.8977,-487.669 653.4307,-488.8122 645.9096,-481.3501 642.8977,-487.669"/>
</a>
</g>
</g>
<!-- (*github.com/go&#45;i2p/crypto/rand.SecureReader).ReadBigInt&#45;&gt;github.com/go&#45;i2p/logger.GetGoI2PLogger -->
<g id="edge16" class="edge">
<title>(*github.com/go&#45;i2p/crypto/rand.SecureReader).ReadBigInt&#45;&gt;github.com/go&#45;i2p/logger.GetGoI2PLogger</title>
<g id="a_edge16"><a xlink:title="at secure_reader.go:58: calling [github.com/go&#45;i2p/logger.GetGoI2PLogger]">
<path fill="none" stroke="#8b4513" d="M534.9566,-240.6835C542.4157,-237.5901 549.5955,-233.4743 555.3606,-228 611.9171,-174.2959 567.2081,-122.0752 620.3606,-65 622.7491,-62.4352 625.3947,-60.0583 628.2113,-57.859"/>
<polygon fill="#8b4513" stroke="#8b4513" points="630.284,-60.6813 636.5297,-52.1231 626.3102,-54.9185 630.284,-60.6813"/>
</a>
</g>
</g>
<!-- (*github.com/go&#45;i2p/crypto/rand.SecureReader).ReadBigInt&#45;&gt;github.com/samber/oops.Errorf -->
<g id="edge22" class="edge">
<title>(*github.com/go&#45;i2p/crypto/rand.SecureReader).ReadBigInt&#45;&gt;github.com/samber/oops.Errorf</title>
<g id="a_edge22"><a xlink:title="at secure_reader.go:61: calling [github.com/samber/oops.Errorf]&#10;at secure_reader.go:81: calling [github.com/samber/oops.Errorf]&#10;at secure_reader.go:69: calling [github.com/samber/oops.Errorf]">
<path fill="none" stroke="#8b4513" d="M534.8437,-235.9637C541.7756,-233.4793 548.8101,-230.7891 555.3606,-228 568.7117,-222.3153 572.5871,-221.4824 584.3606,-213 602.4663,-199.9555 601.3481,-189.6833 620.3606,-178 628.0785,-173.2573 636.952,-169.3771 645.5875,-166.2697"/>
<polygon fill="#8b4513" stroke="#8b4513" points="646.7776,-169.5624 655.1616,-163.0848 644.5681,-162.9202 646.7776,-169.5624"/>
</a>
</g>
</g>
<!-- (*github.com/go&#45;i2p/crypto/rand.SecureReader).ReadBigInt&#45;&gt;(*github.com/go&#45;i2p/logger.Logger).WithError -->
<g id="edge4" class="edge">
<title>(*github.com/go&#45;i2p/crypto/rand.SecureReader).ReadBigInt&#45;&gt;(*github.com/go&#45;i2p/logger.Logger).WithError</title>
<g id="a_edge4"><a xlink:title="at secure_reader.go:82: calling [(*github.com/go&#45;i2p/logger.Logger).WithError]&#10;at secure_reader.go:68: calling [(*github.com/go&#45;i2p/logger.Logger).WithError]">
<path fill="none" stroke="#8b4513" d="M534.9216,-266.9645C542.2157,-270.9106 549.3472,-275.5778 555.3606,-281 596.4032,-318.0071 579.1539,-350.1756 620.3606,-387 624.7026,-390.8802 629.6338,-394.3521 634.7872,-397.4338"/>
<polygon fill="#8b4513" stroke="#8b4513" points="633.1516,-400.5285 643.6048,-402.255 636.5098,-394.3866 633.1516,-400.5285"/>
</a>
</g>
</g>
<!-- (*github.com/go&#45;i2p/crypto/rand.SecureReader).ReadBigInt&#45;&gt;(*github.com/go&#45;i2p/logger.Logger).Error -->
<g id="edge11" class="edge">
<title>(*github.com/go&#45;i2p/crypto/rand.SecureReader).ReadBigInt&#45;&gt;(*github.com/go&#45;i2p/logger.Logger).Error</title>
<g id="a_edge11"><a xlink:title="at secure_reader.go:82: calling [(*github.com/go&#45;i2p/logger.Logger).Error]&#10;at secure_reader.go:68: calling [(*github.com/go&#45;i2p/logger.Logger).Error]">
<path fill="none" stroke="#8b4513" d="M534.959,-252.8766C550.2828,-253.742 567.5699,-254.5745 583.3606,-255 603.7686,-255.5499 626.0268,-251.4529 644.4484,-246.7354"/>
<polygon fill="#8b4513" stroke="#8b4513" points="645.5168,-250.0722 654.2518,-244.0763 643.6842,-243.3163 645.5168,-250.0722"/>
</a>
</g>
</g>
<!-- (*github.com/go&#45;i2p/crypto/rand.SecureReader).ReadBigInt&#45;&gt;(*github.com/go&#45;i2p/logger.Logger).WithField -->
<g id="edge12" class="edge">
<title>(*github.com/go&#45;i2p/crypto/rand.SecureReader).ReadBigInt&#45;&gt;(*github.com/go&#45;i2p/logger.Logger).WithField</title>
<g id="a_edge12"><a xlink:title="at secure_reader.go:74: calling [(*github.com/go&#45;i2p/logger.Logger).WithField]&#10;at secure_reader.go:78: calling [(*github.com/go&#45;i2p/logger.Logger).WithField]">
<path fill="none" stroke="#8b4513" d="M535.1097,-260.3239C564.6257,-267.1779 603.4314,-276.1891 634.0858,-283.3075"/>
<polygon fill="#8b4513" stroke="#8b4513" points="633.6115,-286.7904 644.144,-285.6431 635.1949,-279.9718 633.6115,-286.7904"/>
</a>
</g>
</g>
<!-- (*github.com/go&#45;i2p/crypto/rand.SecureReader).ReadBigInt&#45;&gt;(*github.com/sirupsen/logrus.Logger).Debug -->
<g id="edge5" class="edge">
<title>(*github.com/go&#45;i2p/crypto/rand.SecureReader).ReadBigInt&#45;&gt;(*github.com/sirupsen/logrus.Logger).Debug</title>
<g id="a_edge5"><a xlink:title="at secure_reader.go:74: calling [(*github.com/sirupsen/logrus.Logger).Debug]&#10;at secure_reader.go:78: calling [(*github.com/sirupsen/logrus.Logger).Debug]">
<path fill="none" stroke="#8b4513" d="M534.7813,-265.5408C542.3454,-269.6808 549.6077,-274.7825 555.3606,-281 582.5471,-310.3822 597.1064,-416.4169 620.3606,-449 628.1628,-459.9322 638.6711,-470.0023 648.919,-478.4104"/>
<polygon fill="#8b4513" stroke="#8b4513" points="647.0001,-481.3539 657.0251,-484.7818 651.3259,-475.8504 647.0001,-481.3539"/>
</a>
</g>
</g>
</g>
</svg>
