<?xml version="1.0" encoding="UTF-8" standalone="no"?>
<!DOCTYPE svg PUBLIC "-//W3C//DTD SVG 1.1//EN"
 "http://www.w3.org/Graphics/SVG/1.1/DTD/svg11.dtd">
<!-- Generated by graphviz version 2.40.1 (20161225.0304)
 -->
<!-- Title: gocallvis Pages: 1 -->
<svg width="546pt" height="717pt"
 viewBox="0.00 0.00 545.58 717.00" xmlns="http://www.w3.org/2000/svg" xmlns:xlink="http://www.w3.org/1999/xlink">
<g id="graph0" class="graph" transform="scale(1 1) rotate(0) translate(0 717)">
<title>gocallvis</title>
<polygon fill="#d3d3d3" stroke="transparent" points="0,0 0,-717 545.5752,-717 545.5752,0 0,0"/>
<g id="clust1" class="cluster">
<title>cluster_focus</title>
<polygon fill="#e6ecfa" stroke="#000000" stroke-width=".5" points="0,-8 0,-709 537.5752,-709 537.5752,-8 0,-8"/>
<text text-anchor="middle" x="268.7876" y="-688.8" font-family="Arial" font-size="18.00" fill="#000000">dsa</text>
</g>
<g id="clust7" class="cluster">
<title>cluster_github.com/go&#45;i2p/crypto/dsa.DSAPublicKey</title>
<g id="a_clust7"><a xlink:title="type: github.com/go&#45;i2p/crypto/dsa.DSAPublicKey">
<path fill="#b0c4de" stroke="#000000" stroke-width=".5" d="M23.1248,-591C23.1248,-591 121.8514,-591 121.8514,-591 127.8514,-591 133.8514,-597 133.8514,-603 133.8514,-603 133.8514,-657 133.8514,-657 133.8514,-663 127.8514,-669 121.8514,-669 121.8514,-669 23.1248,-669 23.1248,-669 17.1248,-669 11.1248,-663 11.1248,-657 11.1248,-657 11.1248,-603 11.1248,-603 11.1248,-597 17.1248,-591 23.1248,-591"/>
<text text-anchor="middle" x="72.4881" y="-599.5" font-family="Arial" font-size="15.00" fill="#222222">(DSAPublicKey)</text>
</a>
</g>
</g>
<g id="clust6" class="cluster">
<title>cluster_github.com/go&#45;i2p/crypto/dsa.DSAPrivateKey</title>
<g id="a_clust6"><a xlink:title="type: github.com/go&#45;i2p/crypto/dsa.DSAPrivateKey">
<path fill="#b0c4de" stroke="#000000" stroke-width=".5" d="M20,-381C20,-381 124.9762,-381 124.9762,-381 130.9762,-381 136.9762,-387 136.9762,-393 136.9762,-393 136.9762,-569 136.9762,-569 136.9762,-575 130.9762,-581 124.9762,-581 124.9762,-581 20,-581 20,-581 14,-581 8,-575 8,-569 8,-569 8,-393 8,-393 8,-387 14,-381 20,-381"/>
<text text-anchor="middle" x="72.4881" y="-389.5" font-family="Arial" font-size="15.00" fill="#222222">(DSAPrivateKey)</text>
</a>
</g>
</g>
<g id="clust5" class="cluster">
<title>cluster_*github.com/sirupsen/logrus.Logger</title>
<g id="a_clust5"><a xlink:title="type: *github.com/sirupsen/logrus.Logger">
<path fill="#eed8ae" stroke="#000000" stroke-width=".5" d="M451.8052,-451C451.8052,-451 506.1264,-451 506.1264,-451 512.1264,-451 518.1264,-457 518.1264,-463 518.1264,-463 518.1264,-517 518.1264,-517 518.1264,-523 512.1264,-529 506.1264,-529 506.1264,-529 451.8052,-529 451.8052,-529 445.8052,-529 439.8052,-523 439.8052,-517 439.8052,-517 439.8052,-463 439.8052,-463 439.8052,-457 445.8052,-451 451.8052,-451"/>
<text text-anchor="middle" x="478.9658" y="-459.5" font-family="Arial" font-size="15.00" fill="#222222">(*Logger)</text>
</a>
</g>
</g>
<g id="clust4" class="cluster">
<title>cluster_*github.com/go&#45;i2p/logger.Logger</title>
<g id="a_clust4"><a xlink:title="type: *github.com/go&#45;i2p/logger.Logger">
<path fill="#eed8ae" stroke="#000000" stroke-width=".5" d="M439.3564,-55C439.3564,-55 517.5752,-55 517.5752,-55 523.5752,-55 529.5752,-61 529.5752,-67 529.5752,-67 529.5752,-365 529.5752,-365 529.5752,-371 523.5752,-377 517.5752,-377 517.5752,-377 439.3564,-377 439.3564,-377 433.3564,-377 427.3564,-371 427.3564,-365 427.3564,-365 427.3564,-67 427.3564,-67 427.3564,-61 433.3564,-55 439.3564,-55"/>
<text text-anchor="middle" x="478.4658" y="-63.5" font-family="Arial" font-size="15.00" fill="#222222">(*Logger)</text>
</a>
</g>
</g>
<g id="clust3" class="cluster">
<title>cluster_*github.com/go&#45;i2p/crypto/dsa.DSAVerifier</title>
<g id="a_clust3"><a xlink:title="type: *github.com/go&#45;i2p/crypto/dsa.DSAVerifier">
<path fill="#b0c4de" stroke="#000000" stroke-width=".5" d="M46.2216,-175C46.2216,-175 330.7533,-175 330.7533,-175 336.7533,-175 342.7533,-181 342.7533,-187 342.7533,-187 342.7533,-241 342.7533,-241 342.7533,-247 336.7533,-253 330.7533,-253 330.7533,-253 46.2216,-253 46.2216,-253 40.2216,-253 34.2216,-247 34.2216,-241 34.2216,-241 34.2216,-187 34.2216,-187 34.2216,-181 40.2216,-175 46.2216,-175"/>
<text text-anchor="middle" x="188.4874" y="-183.5" font-family="Arial" font-size="15.00" fill="#222222">(*DSAVerifier)</text>
</a>
</g>
</g>
<g id="clust2" class="cluster">
<title>cluster_*github.com/go&#45;i2p/crypto/dsa.DSASigner</title>
<g id="a_clust2"><a xlink:title="type: *github.com/go&#45;i2p/crypto/dsa.DSASigner">
<path fill="#b0c4de" stroke="#000000" stroke-width=".5" d="M49.4881,-70C49.4881,-70 325.3234,-70 325.3234,-70 331.3234,-70 337.3234,-76 337.3234,-82 337.3234,-82 337.3234,-136 337.3234,-136 337.3234,-142 331.3234,-148 325.3234,-148 325.3234,-148 49.4881,-148 49.4881,-148 43.4881,-148 37.4881,-142 37.4881,-136 37.4881,-136 37.4881,-82 37.4881,-82 37.4881,-76 43.4881,-70 49.4881,-70"/>
<text text-anchor="middle" x="187.4058" y="-78.5" font-family="Arial" font-size="15.00" fill="#222222">(*DSASigner)</text>
</a>
</g>
</g>
<!-- github.com/go&#45;i2p/crypto/dsa.generateDSA -->
<g id="node1" class="node">
<title>github.com/go&#45;i2p/crypto/dsa.generateDSA</title>
<g id="a_node1"><a xlink:title="github.com/go&#45;i2p/crypto/dsa.generateDSA | defined in utils.go:11&#10;at utils.go:20: calling [(*github.com/go&#45;i2p/logger.Logger).Error]&#10;at utils.go:12: calling [(*github.com/sirupsen/logrus.Logger).Debug]&#10;at utils.go:22: calling [(*github.com/sirupsen/logrus.Logger).Debug]&#10;at utils.go:20: calling [(*github.com/go&#45;i2p/logger.Logger).WithError]">
<path fill="#add8e6" stroke="#000000" stroke-width=".5" d="M328.0101,-360C328.0101,-360 252.1977,-360 252.1977,-360 246.1977,-360 240.1977,-354 240.1977,-348 240.1977,-348 240.1977,-336 240.1977,-336 240.1977,-330 246.1977,-324 252.1977,-324 252.1977,-324 328.0101,-324 328.0101,-324 334.0101,-324 340.0101,-330 340.0101,-336 340.0101,-336 340.0101,-348 340.0101,-348 340.0101,-354 334.0101,-360 328.0101,-360"/>
<text text-anchor="middle" x="290.1039" y="-337.8" font-family="Verdana" font-size="14.00" fill="#000000">generateDSA</text>
</a>
</g>
</g>
<!-- (*github.com/go&#45;i2p/logger.Logger).WithError -->
<g id="node10" class="node">
<title>(*github.com/go&#45;i2p/logger.Logger).WithError</title>
<g id="a_node10"><a xlink:title="(*github.com/go&#45;i2p/logger.Logger).WithError | defined in log.go:66">
<path fill="#ffe4b5" stroke="#000000" stroke-width="1.5" d="M506.9973,-247C506.9973,-247 449.9343,-247 449.9343,-247 443.9343,-247 437.9343,-241 437.9343,-235 437.9343,-235 437.9343,-223 437.9343,-223 437.9343,-217 443.9343,-211 449.9343,-211 449.9343,-211 506.9973,-211 506.9973,-211 512.9973,-211 518.9973,-217 518.9973,-223 518.9973,-223 518.9973,-235 518.9973,-235 518.9973,-241 512.9973,-247 506.9973,-247"/>
<text text-anchor="middle" x="478.4658" y="-233.2" font-family="Verdana" font-size="14.00" fill="#000000">logger</text>
<text text-anchor="middle" x="478.4658" y="-216.4" font-family="Verdana" font-size="14.00" fill="#000000">WithError</text>
</a>
</g>
</g>
<!-- github.com/go&#45;i2p/crypto/dsa.generateDSA&#45;&gt;(*github.com/go&#45;i2p/logger.Logger).WithError -->
<g id="edge30" class="edge">
<title>github.com/go&#45;i2p/crypto/dsa.generateDSA&#45;&gt;(*github.com/go&#45;i2p/logger.Logger).WithError</title>
<g id="a_edge30"><a xlink:title="at utils.go:20: calling [(*github.com/go&#45;i2p/logger.Logger).WithError]">
<path fill="none" stroke="#8b4513" d="M327.7446,-323.9112C339.0424,-318.1664 351.3528,-311.5871 362.3564,-305 392.5039,-286.9529 397.8775,-279.1196 427.3564,-260 431.182,-257.5188 435.1999,-254.9761 439.2314,-252.4662"/>
<polygon fill="#8b4513" stroke="#8b4513" points="441.3301,-255.2843 448.0097,-247.0603 437.6595,-249.3238 441.3301,-255.2843"/>
</a>
</g>
</g>
<!-- (*github.com/go&#45;i2p/logger.Logger).Error -->
<g id="node11" class="node">
<title>(*github.com/go&#45;i2p/logger.Logger).Error</title>
<g id="a_node11"><a xlink:title="(*github.com/go&#45;i2p/logger.Logger).Error | defined in log.go:42">
<path fill="#ffe4b5" stroke="#000000" stroke-width="1.5" d="M496.2321,-308C496.2321,-308 460.6995,-308 460.6995,-308 454.6995,-308 448.6995,-302 448.6995,-296 448.6995,-296 448.6995,-284 448.6995,-284 448.6995,-278 454.6995,-272 460.6995,-272 460.6995,-272 496.2321,-272 496.2321,-272 502.2321,-272 508.2321,-278 508.2321,-284 508.2321,-284 508.2321,-296 508.2321,-296 508.2321,-302 502.2321,-308 496.2321,-308"/>
<text text-anchor="middle" x="478.4658" y="-294.2" font-family="Verdana" font-size="14.00" fill="#000000">logger</text>
<text text-anchor="middle" x="478.4658" y="-277.4" font-family="Verdana" font-size="14.00" fill="#000000">Error</text>
</a>
</g>
</g>
<!-- github.com/go&#45;i2p/crypto/dsa.generateDSA&#45;&gt;(*github.com/go&#45;i2p/logger.Logger).Error -->
<g id="edge1" class="edge">
<title>github.com/go&#45;i2p/crypto/dsa.generateDSA&#45;&gt;(*github.com/go&#45;i2p/logger.Logger).Error</title>
<g id="a_edge1"><a xlink:title="at utils.go:20: calling [(*github.com/go&#45;i2p/logger.Logger).Error]">
<path fill="none" stroke="#8b4513" d="M340.0869,-328.2015C370.993,-319.6694 410.1112,-308.8703 438.8651,-300.9323"/>
<polygon fill="#8b4513" stroke="#8b4513" points="439.8649,-304.2873 448.573,-298.2523 438.0021,-297.5397 439.8649,-304.2873"/>
</a>
</g>
</g>
<!-- (*github.com/sirupsen/logrus.Logger).Debug -->
<g id="node15" class="node">
<title>(*github.com/sirupsen/logrus.Logger).Debug</title>
<g id="a_node15"><a xlink:title="(*github.com/sirupsen/logrus.Logger).Debug | defined in logger.go:221">
<path fill="#ffe4b5" stroke="#000000" stroke-width="1.5" d="M497.2878,-521C497.2878,-521 459.6438,-521 459.6438,-521 453.6438,-521 447.6438,-515 447.6438,-509 447.6438,-509 447.6438,-497 447.6438,-497 447.6438,-491 453.6438,-485 459.6438,-485 459.6438,-485 497.2878,-485 497.2878,-485 503.2878,-485 509.2878,-491 509.2878,-497 509.2878,-497 509.2878,-509 509.2878,-509 509.2878,-515 503.2878,-521 497.2878,-521"/>
<text text-anchor="middle" x="478.4658" y="-507.2" font-family="Verdana" font-size="14.00" fill="#000000">logrus</text>
<text text-anchor="middle" x="478.4658" y="-490.4" font-family="Verdana" font-size="14.00" fill="#000000">Debug</text>
</a>
</g>
</g>
<!-- github.com/go&#45;i2p/crypto/dsa.generateDSA&#45;&gt;(*github.com/sirupsen/logrus.Logger).Debug -->
<g id="edge29" class="edge">
<title>github.com/go&#45;i2p/crypto/dsa.generateDSA&#45;&gt;(*github.com/sirupsen/logrus.Logger).Debug</title>
<g id="a_edge29"><a xlink:title="at utils.go:12: calling [(*github.com/sirupsen/logrus.Logger).Debug]&#10;at utils.go:22: calling [(*github.com/sirupsen/logrus.Logger).Debug]">
<path fill="none" stroke="#8b4513" d="M311.3453,-360.1558C345.2091,-389.1005 411.4896,-445.7529 449.6155,-478.3406"/>
<polygon fill="#8b4513" stroke="#8b4513" points="447.4264,-481.0737 457.3021,-484.9106 451.9745,-475.7526 447.4264,-481.0737"/>
</a>
</g>
</g>
<!-- github.com/go&#45;i2p/crypto/dsa.createDSAPublicKey -->
<g id="node2" class="node">
<title>github.com/go&#45;i2p/crypto/dsa.createDSAPublicKey</title>
<g id="a_node2"><a xlink:title="github.com/go&#45;i2p/crypto/dsa.createDSAPublicKey | defined in utils.go:29&#10;at utils.go:30: calling [(*github.com/sirupsen/logrus.Logger).Debug]">
<path fill="#add8e6" stroke="#000000" stroke-width=".5" d="M350.1097,-644C350.1097,-644 230.0981,-644 230.0981,-644 224.0981,-644 218.0981,-638 218.0981,-632 218.0981,-632 218.0981,-620 218.0981,-620 218.0981,-614 224.0981,-608 230.0981,-608 230.0981,-608 350.1097,-608 350.1097,-608 356.1097,-608 362.1097,-614 362.1097,-620 362.1097,-620 362.1097,-632 362.1097,-632 362.1097,-638 356.1097,-644 350.1097,-644"/>
<text text-anchor="middle" x="290.1039" y="-621.8" font-family="Verdana" font-size="14.00" fill="#000000">createDSAPublicKey</text>
</a>
</g>
</g>
<!-- github.com/go&#45;i2p/crypto/dsa.createDSAPublicKey&#45;&gt;(*github.com/sirupsen/logrus.Logger).Debug -->
<g id="edge10" class="edge">
<title>github.com/go&#45;i2p/crypto/dsa.createDSAPublicKey&#45;&gt;(*github.com/sirupsen/logrus.Logger).Debug</title>
<g id="a_edge10"><a xlink:title="at utils.go:30: calling [(*github.com/sirupsen/logrus.Logger).Debug]">
<path fill="none" stroke="#8b4513" d="M362.1751,-629.802C375.1704,-628.0134 388.1377,-624.4333 399.3564,-618 433.2444,-598.5671 455.8225,-558.008 467.897,-530.6346"/>
<polygon fill="#8b4513" stroke="#8b4513" points="471.2108,-531.784 471.8718,-521.2098 464.7609,-529.0638 471.2108,-531.784"/>
</a>
</g>
</g>
<!-- github.com/go&#45;i2p/crypto/dsa.createDSAPrivkey -->
<g id="node3" class="node">
<title>github.com/go&#45;i2p/crypto/dsa.createDSAPrivkey</title>
<g id="a_node3"><a xlink:title="github.com/go&#45;i2p/crypto/dsa.createDSAPrivkey | defined in utils.go:39&#10;at utils.go:40: calling [(*github.com/sirupsen/logrus.Logger).Debug]&#10;at utils.go:51: calling [(*github.com/sirupsen/logrus.Logger).Debug]&#10;at utils.go:53: calling [(*github.com/go&#45;i2p/logger.Logger).Warn]">
<path fill="#add8e6" stroke="#000000" stroke-width=".5" d="M342.5577,-529C342.5577,-529 237.6501,-529 237.6501,-529 231.6501,-529 225.6501,-523 225.6501,-517 225.6501,-517 225.6501,-505 225.6501,-505 225.6501,-499 231.6501,-493 237.6501,-493 237.6501,-493 342.5577,-493 342.5577,-493 348.5577,-493 354.5577,-499 354.5577,-505 354.5577,-505 354.5577,-517 354.5577,-517 354.5577,-523 348.5577,-529 342.5577,-529"/>
<text text-anchor="middle" x="290.1039" y="-506.8" font-family="Verdana" font-size="14.00" fill="#000000">createDSAPrivkey</text>
</a>
</g>
</g>
<!-- (*github.com/go&#45;i2p/logger.Logger).Warn -->
<g id="node13" class="node">
<title>(*github.com/go&#45;i2p/logger.Logger).Warn</title>
<g id="a_node13"><a xlink:title="(*github.com/go&#45;i2p/logger.Logger).Warn | defined in log.go:30">
<path fill="#ffe4b5" stroke="#000000" stroke-width="1.5" d="M496.2321,-369C496.2321,-369 460.6995,-369 460.6995,-369 454.6995,-369 448.6995,-363 448.6995,-357 448.6995,-357 448.6995,-345 448.6995,-345 448.6995,-339 454.6995,-333 460.6995,-333 460.6995,-333 496.2321,-333 496.2321,-333 502.2321,-333 508.2321,-339 508.2321,-345 508.2321,-345 508.2321,-357 508.2321,-357 508.2321,-363 502.2321,-369 496.2321,-369"/>
<text text-anchor="middle" x="478.4658" y="-355.2" font-family="Verdana" font-size="14.00" fill="#000000">logger</text>
<text text-anchor="middle" x="478.4658" y="-338.4" font-family="Verdana" font-size="14.00" fill="#000000">Warn</text>
</a>
</g>
</g>
<!-- github.com/go&#45;i2p/crypto/dsa.createDSAPrivkey&#45;&gt;(*github.com/go&#45;i2p/logger.Logger).Warn -->
<g id="edge21" class="edge">
<title>github.com/go&#45;i2p/crypto/dsa.createDSAPrivkey&#45;&gt;(*github.com/go&#45;i2p/logger.Logger).Warn</title>
<g id="a_edge21"><a xlink:title="at utils.go:53: calling [(*github.com/go&#45;i2p/logger.Logger).Warn]">
<path fill="none" stroke="#8b4513" d="M331.301,-492.9587C341.8536,-487.5311 352.8877,-481.1051 362.3564,-474 400.2945,-445.5321 436.5804,-404.0232 458.1966,-377.2619"/>
<polygon fill="#8b4513" stroke="#8b4513" points="461.1854,-379.1275 464.6829,-369.1266 455.7121,-374.7636 461.1854,-379.1275"/>
</a>
</g>
</g>
<!-- github.com/go&#45;i2p/crypto/dsa.createDSAPrivkey&#45;&gt;(*github.com/sirupsen/logrus.Logger).Debug -->
<g id="edge7" class="edge">
<title>github.com/go&#45;i2p/crypto/dsa.createDSAPrivkey&#45;&gt;(*github.com/sirupsen/logrus.Logger).Debug</title>
<g id="a_edge7"><a xlink:title="at utils.go:40: calling [(*github.com/sirupsen/logrus.Logger).Debug]&#10;at utils.go:51: calling [(*github.com/sirupsen/logrus.Logger).Debug]">
<path fill="none" stroke="#8b4513" d="M329.9289,-529.0326C350.5779,-536.2068 376.2491,-541.7553 399.3564,-537 412.412,-534.3133 425.9699,-529.3735 438.0965,-524.0762"/>
<polygon fill="#8b4513" stroke="#8b4513" points="439.8386,-527.1282 447.478,-519.7873 436.9281,-520.7619 439.8386,-527.1282"/>
</a>
</g>
</g>
<!-- github.com/go&#45;i2p/crypto/dsa.init -->
<g id="node4" class="node">
<title>github.com/go&#45;i2p/crypto/dsa.init</title>
<g id="a_node4"><a xlink:title="github.com/go&#45;i2p/crypto/dsa.init | defined in .:0&#10;at constants.go:7: calling [github.com/go&#45;i2p/logger.GetGoI2PLogger]">
<path fill="#add8e6" stroke="#000000" stroke-width=".5" d="M87.4881,-52C87.4881,-52 57.4881,-52 57.4881,-52 51.4881,-52 45.4881,-46 45.4881,-40 45.4881,-40 45.4881,-28 45.4881,-28 45.4881,-22 51.4881,-16 57.4881,-16 57.4881,-16 87.4881,-16 87.4881,-16 93.4881,-16 99.4881,-22 99.4881,-28 99.4881,-28 99.4881,-40 99.4881,-40 99.4881,-46 93.4881,-52 87.4881,-52"/>
<text text-anchor="middle" x="72.4881" y="-29.8" font-family="Verdana" font-size="14.00" fill="#000000">init</text>
</a>
</g>
</g>
<!-- github.com/go&#45;i2p/logger.GetGoI2PLogger -->
<g id="node5" class="node">
<title>github.com/go&#45;i2p/logger.GetGoI2PLogger</title>
<g id="a_node5"><a xlink:title="github.com/go&#45;i2p/logger.GetGoI2PLogger | defined in log.go:120">
<path fill="#ffe4b5" stroke="#000000" stroke-width="1.5" d="M338.7934,-52C338.7934,-52 241.4144,-52 241.4144,-52 235.4144,-52 229.4144,-46 229.4144,-40 229.4144,-40 229.4144,-28 229.4144,-28 229.4144,-22 235.4144,-16 241.4144,-16 241.4144,-16 338.7934,-16 338.7934,-16 344.7934,-16 350.7934,-22 350.7934,-28 350.7934,-28 350.7934,-40 350.7934,-40 350.7934,-46 344.7934,-52 338.7934,-52"/>
<text text-anchor="middle" x="290.1039" y="-38.2" font-family="Verdana" font-size="14.00" fill="#000000">logger</text>
<text text-anchor="middle" x="290.1039" y="-21.4" font-family="Verdana" font-size="14.00" fill="#000000">GetGoI2PLogger</text>
</a>
</g>
</g>
<!-- github.com/go&#45;i2p/crypto/dsa.init&#45;&gt;github.com/go&#45;i2p/logger.GetGoI2PLogger -->
<g id="edge26" class="edge">
<title>github.com/go&#45;i2p/crypto/dsa.init&#45;&gt;github.com/go&#45;i2p/logger.GetGoI2PLogger</title>
<g id="a_edge26"><a xlink:title="at constants.go:7: calling [github.com/go&#45;i2p/logger.GetGoI2PLogger]">
<path fill="none" stroke="#8b4513" d="M99.6093,-34C129.3344,-34 178.2272,-34 219.0358,-34"/>
<polygon fill="#8b4513" stroke="#8b4513" points="219.2202,-37.5001 229.2201,-34 219.2201,-30.5001 219.2202,-37.5001"/>
</a>
</g>
</g>
<!-- (*github.com/go&#45;i2p/crypto/dsa.DSASigner).Sign -->
<g id="node6" class="node">
<title>(*github.com/go&#45;i2p/crypto/dsa.DSASigner).Sign</title>
<g id="a_node6"><a xlink:title="(*github.com/go&#45;i2p/crypto/dsa.DSASigner).Sign | defined in dsa_signer.go:14&#10;at dsa_signer.go:15: calling [(*github.com/sirupsen/logrus.Logger).Debug]&#10;at dsa_signer.go:17: calling [(*github.com/go&#45;i2p/crypto/dsa.DSASigner).SignHash]&#10;at dsa_signer.go:15: calling [(*github.com/go&#45;i2p/logger.Logger).WithField]">
<path fill="#add8e6" stroke="#000000" stroke-width="1.5" d="M87.4881,-140C87.4881,-140 57.4881,-140 57.4881,-140 51.4881,-140 45.4881,-134 45.4881,-128 45.4881,-128 45.4881,-116 45.4881,-116 45.4881,-110 51.4881,-104 57.4881,-104 57.4881,-104 87.4881,-104 87.4881,-104 93.4881,-104 99.4881,-110 99.4881,-116 99.4881,-116 99.4881,-128 99.4881,-128 99.4881,-134 93.4881,-140 87.4881,-140"/>
<text text-anchor="middle" x="72.4881" y="-117.8" font-family="Verdana" font-size="14.00" fill="#000000">Sign</text>
</a>
</g>
</g>
<!-- (*github.com/go&#45;i2p/crypto/dsa.DSASigner).SignHash -->
<g id="node7" class="node">
<title>(*github.com/go&#45;i2p/crypto/dsa.DSASigner).SignHash</title>
<g id="a_node7"><a xlink:title="(*github.com/go&#45;i2p/crypto/dsa.DSASigner).SignHash | defined in dsa_signer.go:21&#10;at dsa_signer.go:22: calling [(*github.com/sirupsen/logrus.Logger).Debug]&#10;at dsa_signer.go:33: calling [(*github.com/sirupsen/logrus.Logger).Debug]&#10;at dsa_signer.go:35: calling [(*github.com/go&#45;i2p/logger.Logger).WithError]&#10;at dsa_signer.go:22: calling [(*github.com/go&#45;i2p/logger.Logger).WithField]&#10;at dsa_signer.go:33: calling [(*github.com/go&#45;i2p/logger.Logger).WithField]&#10;at dsa_signer.go:35: calling [(*github.com/go&#45;i2p/logger.Logger).Error]">
<path fill="#add8e6" stroke="#000000" stroke-width="1.5" d="M317.5441,-140C317.5441,-140 262.6637,-140 262.6637,-140 256.6637,-140 250.6637,-134 250.6637,-128 250.6637,-128 250.6637,-116 250.6637,-116 250.6637,-110 256.6637,-104 262.6637,-104 262.6637,-104 317.5441,-104 317.5441,-104 323.5441,-104 329.5441,-110 329.5441,-116 329.5441,-116 329.5441,-128 329.5441,-128 329.5441,-134 323.5441,-140 317.5441,-140"/>
<text text-anchor="middle" x="290.1039" y="-117.8" font-family="Verdana" font-size="14.00" fill="#000000">SignHash</text>
</a>
</g>
</g>
<!-- (*github.com/go&#45;i2p/crypto/dsa.DSASigner).Sign&#45;&gt;(*github.com/go&#45;i2p/crypto/dsa.DSASigner).SignHash -->
<g id="edge12" class="edge">
<title>(*github.com/go&#45;i2p/crypto/dsa.DSASigner).Sign&#45;&gt;(*github.com/go&#45;i2p/crypto/dsa.DSASigner).SignHash</title>
<g id="a_edge12"><a xlink:title="at dsa_signer.go:17: calling [(*github.com/go&#45;i2p/crypto/dsa.DSASigner).SignHash]">
<path fill="none" stroke="#000000" d="M99.6093,-122C134.8399,-122 196.9958,-122 240.7056,-122"/>
<polygon fill="#000000" stroke="#000000" points="240.8391,-125.5001 250.8391,-122 240.839,-118.5001 240.8391,-125.5001"/>
</a>
</g>
</g>
<!-- (*github.com/go&#45;i2p/logger.Logger).WithField -->
<g id="node14" class="node">
<title>(*github.com/go&#45;i2p/logger.Logger).WithField</title>
<g id="a_node14"><a xlink:title="(*github.com/go&#45;i2p/logger.Logger).WithField | defined in log.go:54">
<path fill="#ffe4b5" stroke="#000000" stroke-width="1.5" d="M506.7403,-125C506.7403,-125 450.1913,-125 450.1913,-125 444.1913,-125 438.1913,-119 438.1913,-113 438.1913,-113 438.1913,-101 438.1913,-101 438.1913,-95 444.1913,-89 450.1913,-89 450.1913,-89 506.7403,-89 506.7403,-89 512.7403,-89 518.7403,-95 518.7403,-101 518.7403,-101 518.7403,-113 518.7403,-113 518.7403,-119 512.7403,-125 506.7403,-125"/>
<text text-anchor="middle" x="478.4658" y="-111.2" font-family="Verdana" font-size="14.00" fill="#000000">logger</text>
<text text-anchor="middle" x="478.4658" y="-94.4" font-family="Verdana" font-size="14.00" fill="#000000">WithField</text>
</a>
</g>
</g>
<!-- (*github.com/go&#45;i2p/crypto/dsa.DSASigner).Sign&#45;&gt;(*github.com/go&#45;i2p/logger.Logger).WithField -->
<g id="edge27" class="edge">
<title>(*github.com/go&#45;i2p/crypto/dsa.DSASigner).Sign&#45;&gt;(*github.com/go&#45;i2p/logger.Logger).WithField</title>
<g id="a_edge27"><a xlink:title="at dsa_signer.go:15: calling [(*github.com/go&#45;i2p/logger.Logger).WithField]">
<path fill="none" stroke="#8b4513" d="M99.7039,-115.7654C128.8272,-109.2389 176.4339,-98.9872 217.8514,-92 281.7261,-81.2243 299.8026,-89.8258 362.3564,-73 379.0948,-68.4977 381.3597,-61.3993 398.3564,-58 419.866,-53.6981 440.8943,-67.4533 456.0056,-81.4732"/>
<polygon fill="#8b4513" stroke="#8b4513" points="453.771,-84.186 463.3397,-88.7346 458.696,-79.2116 453.771,-84.186"/>
</a>
</g>
</g>
<!-- (*github.com/go&#45;i2p/crypto/dsa.DSASigner).Sign&#45;&gt;(*github.com/sirupsen/logrus.Logger).Debug -->
<g id="edge11" class="edge">
<title>(*github.com/go&#45;i2p/crypto/dsa.DSASigner).Sign&#45;&gt;(*github.com/sirupsen/logrus.Logger).Debug</title>
<g id="a_edge11"><a xlink:title="at dsa_signer.go:15: calling [(*github.com/sirupsen/logrus.Logger).Debug]">
<path fill="none" stroke="#8b4513" d="M99.6809,-128.5326C128.785,-135.3519 176.3759,-146.0077 217.8514,-153 249.7615,-158.3797 337.5768,-150.1873 362.3564,-171 437.821,-234.3837 393.5565,-290.4259 427.3564,-383 439.165,-415.3424 454.9763,-451.5983 465.8697,-475.7093"/>
<polygon fill="#8b4513" stroke="#8b4513" points="462.7427,-477.2881 470.069,-484.9416 469.1146,-474.3898 462.7427,-477.2881"/>
</a>
</g>
</g>
<!-- (*github.com/go&#45;i2p/crypto/dsa.DSASigner).SignHash&#45;&gt;(*github.com/go&#45;i2p/logger.Logger).WithError -->
<g id="edge18" class="edge">
<title>(*github.com/go&#45;i2p/crypto/dsa.DSASigner).SignHash&#45;&gt;(*github.com/go&#45;i2p/logger.Logger).WithError</title>
<g id="a_edge18"><a xlink:title="at dsa_signer.go:35: calling [(*github.com/go&#45;i2p/logger.Logger).WithError]">
<path fill="none" stroke="#8b4513" d="M329.3665,-109.5347C351.8289,-104.9205 379.4147,-103.7939 399.3564,-118 430.3796,-140.1004 403.2161,-169.5363 427.3564,-199 428.8399,-200.8106 430.4633,-202.5363 432.1901,-204.1779"/>
<polygon fill="#8b4513" stroke="#8b4513" points="430.3586,-207.2025 440.3097,-210.8393 434.7985,-201.7907 430.3586,-207.2025"/>
</a>
</g>
</g>
<!-- (*github.com/go&#45;i2p/crypto/dsa.DSASigner).SignHash&#45;&gt;(*github.com/go&#45;i2p/logger.Logger).Error -->
<g id="edge28" class="edge">
<title>(*github.com/go&#45;i2p/crypto/dsa.DSASigner).SignHash&#45;&gt;(*github.com/go&#45;i2p/logger.Logger).Error</title>
<g id="a_edge28"><a xlink:title="at dsa_signer.go:35: calling [(*github.com/go&#45;i2p/logger.Logger).Error]">
<path fill="none" stroke="#8b4513" d="M329.503,-120.442C352.7261,-121.6775 381.0528,-127.2612 399.3564,-145 437.1315,-181.6094 395.9659,-217.7881 427.3564,-260 430.7716,-264.5925 435.1156,-268.6056 439.8237,-272.0743"/>
<polygon fill="#8b4513" stroke="#8b4513" points="438.273,-275.2399 448.5692,-277.7375 442.0778,-269.3642 438.273,-275.2399"/>
</a>
</g>
</g>
<!-- (*github.com/go&#45;i2p/crypto/dsa.DSASigner).SignHash&#45;&gt;(*github.com/go&#45;i2p/logger.Logger).WithField -->
<g id="edge25" class="edge">
<title>(*github.com/go&#45;i2p/crypto/dsa.DSASigner).SignHash&#45;&gt;(*github.com/go&#45;i2p/logger.Logger).WithField</title>
<g id="a_edge25"><a xlink:title="at dsa_signer.go:22: calling [(*github.com/go&#45;i2p/logger.Logger).WithField]&#10;at dsa_signer.go:33: calling [(*github.com/go&#45;i2p/logger.Logger).WithField]">
<path fill="none" stroke="#8b4513" d="M326.3243,-103.9416C337.9066,-98.0366 350.735,-91.359 362.3564,-85 378.6061,-76.1085 380.4751,-68.8342 398.3564,-64 418.156,-58.6472 438.4945,-69.8061 453.724,-82.0941"/>
<polygon fill="#8b4513" stroke="#8b4513" points="451.7739,-85.0355 461.6233,-88.9393 456.3581,-79.7454 451.7739,-85.0355"/>
</a>
</g>
</g>
<!-- (*github.com/go&#45;i2p/crypto/dsa.DSASigner).SignHash&#45;&gt;(*github.com/sirupsen/logrus.Logger).Debug -->
<g id="edge17" class="edge">
<title>(*github.com/go&#45;i2p/crypto/dsa.DSASigner).SignHash&#45;&gt;(*github.com/sirupsen/logrus.Logger).Debug</title>
<g id="a_edge17"><a xlink:title="at dsa_signer.go:22: calling [(*github.com/sirupsen/logrus.Logger).Debug]&#10;at dsa_signer.go:33: calling [(*github.com/sirupsen/logrus.Logger).Debug]">
<path fill="none" stroke="#8b4513" d="M329.4868,-137.6072C354.8019,-150.0264 385.464,-170.1476 399.3564,-199 435.2422,-273.5297 404.7487,-303.4302 427.3564,-383 436.7122,-415.9284 452.8407,-451.8123 464.4808,-475.6788"/>
<polygon fill="#8b4513" stroke="#8b4513" points="461.4331,-477.4115 469.007,-484.8201 467.7063,-474.3054 461.4331,-477.4115"/>
</a>
</g>
</g>
<!-- (*github.com/go&#45;i2p/crypto/dsa.DSAVerifier).Verify -->
<g id="node8" class="node">
<title>(*github.com/go&#45;i2p/crypto/dsa.DSAVerifier).Verify</title>
<g id="a_node8"><a xlink:title="(*github.com/go&#45;i2p/crypto/dsa.DSAVerifier).Verify | defined in dsa_verifier.go:17&#10;at dsa_verifier.go:21: calling [(*github.com/sirupsen/logrus.Logger).Debug]&#10;at dsa_verifier.go:23: calling [(*github.com/go&#45;i2p/crypto/dsa.DSAVerifier).VerifyHash]&#10;at dsa_verifier.go:18: calling [(*github.com/go&#45;i2p/logger.Logger).WithFields]">
<path fill="#add8e6" stroke="#000000" stroke-width="1.5" d="M90.5229,-245C90.5229,-245 54.4533,-245 54.4533,-245 48.4533,-245 42.4533,-239 42.4533,-233 42.4533,-233 42.4533,-221 42.4533,-221 42.4533,-215 48.4533,-209 54.4533,-209 54.4533,-209 90.5229,-209 90.5229,-209 96.5229,-209 102.5229,-215 102.5229,-221 102.5229,-221 102.5229,-233 102.5229,-233 102.5229,-239 96.5229,-245 90.5229,-245"/>
<text text-anchor="middle" x="72.4881" y="-222.8" font-family="Verdana" font-size="14.00" fill="#000000">Verify</text>
</a>
</g>
</g>
<!-- (*github.com/go&#45;i2p/crypto/dsa.DSAVerifier).VerifyHash -->
<g id="node9" class="node">
<title>(*github.com/go&#45;i2p/crypto/dsa.DSAVerifier).VerifyHash</title>
<g id="a_node9"><a xlink:title="(*github.com/go&#45;i2p/crypto/dsa.DSAVerifier).VerifyHash | defined in dsa_verifier.go:28&#10;at dsa_verifier.go:41: calling [(*github.com/go&#45;i2p/logger.Logger).Warn]&#10;at dsa_verifier.go:32: calling [(*github.com/sirupsen/logrus.Logger).Debug]&#10;at dsa_verifier.go:38: calling [(*github.com/sirupsen/logrus.Logger).Debug]&#10;at dsa_verifier.go:45: calling [(*github.com/go&#45;i2p/logger.Logger).Error]&#10;at dsa_verifier.go:29: calling [(*github.com/go&#45;i2p/logger.Logger).WithFields]">
<path fill="#add8e6" stroke="#000000" stroke-width="1.5" d="M322.9032,-245C322.9032,-245 257.3046,-245 257.3046,-245 251.3046,-245 245.3046,-239 245.3046,-233 245.3046,-233 245.3046,-221 245.3046,-221 245.3046,-215 251.3046,-209 257.3046,-209 257.3046,-209 322.9032,-209 322.9032,-209 328.9032,-209 334.9032,-215 334.9032,-221 334.9032,-221 334.9032,-233 334.9032,-233 334.9032,-239 328.9032,-245 322.9032,-245"/>
<text text-anchor="middle" x="290.1039" y="-222.8" font-family="Verdana" font-size="14.00" fill="#000000">VerifyHash</text>
</a>
</g>
</g>
<!-- (*github.com/go&#45;i2p/crypto/dsa.DSAVerifier).Verify&#45;&gt;(*github.com/go&#45;i2p/crypto/dsa.DSAVerifier).VerifyHash -->
<g id="edge3" class="edge">
<title>(*github.com/go&#45;i2p/crypto/dsa.DSAVerifier).Verify&#45;&gt;(*github.com/go&#45;i2p/crypto/dsa.DSAVerifier).VerifyHash</title>
<g id="a_edge3"><a xlink:title="at dsa_verifier.go:23: calling [(*github.com/go&#45;i2p/crypto/dsa.DSAVerifier).VerifyHash]">
<path fill="none" stroke="#000000" d="M102.7466,-227C136.9481,-227 193.3204,-227 235.3116,-227"/>
<polygon fill="#000000" stroke="#000000" points="235.3847,-230.5001 245.3847,-227 235.3846,-223.5001 235.3847,-230.5001"/>
</a>
</g>
</g>
<!-- (*github.com/go&#45;i2p/logger.Logger).WithFields -->
<g id="node12" class="node">
<title>(*github.com/go&#45;i2p/logger.Logger).WithFields</title>
<g id="a_node12"><a xlink:title="(*github.com/go&#45;i2p/logger.Logger).WithFields | defined in log.go:60">
<path fill="#ffe4b5" stroke="#000000" stroke-width="1.5" d="M509.6849,-186C509.6849,-186 447.2467,-186 447.2467,-186 441.2467,-186 435.2467,-180 435.2467,-174 435.2467,-174 435.2467,-162 435.2467,-162 435.2467,-156 441.2467,-150 447.2467,-150 447.2467,-150 509.6849,-150 509.6849,-150 515.6849,-150 521.6849,-156 521.6849,-162 521.6849,-162 521.6849,-174 521.6849,-174 521.6849,-180 515.6849,-186 509.6849,-186"/>
<text text-anchor="middle" x="478.4658" y="-172.2" font-family="Verdana" font-size="14.00" fill="#000000">logger</text>
<text text-anchor="middle" x="478.4658" y="-155.4" font-family="Verdana" font-size="14.00" fill="#000000">WithFields</text>
</a>
</g>
</g>
<!-- (*github.com/go&#45;i2p/crypto/dsa.DSAVerifier).Verify&#45;&gt;(*github.com/go&#45;i2p/logger.Logger).WithFields -->
<g id="edge31" class="edge">
<title>(*github.com/go&#45;i2p/crypto/dsa.DSAVerifier).Verify&#45;&gt;(*github.com/go&#45;i2p/logger.Logger).WithFields</title>
<g id="a_edge31"><a xlink:title="at dsa_verifier.go:18: calling [(*github.com/go&#45;i2p/logger.Logger).WithFields]">
<path fill="none" stroke="#8b4513" d="M102.8939,-239.1828C157.0419,-258.9634 272.8872,-292.55 362.3564,-258 366.9058,-256.2432 423.448,-201.9169 427.3564,-199 430.7248,-196.4862 434.3065,-193.9919 437.9499,-191.5738"/>
<polygon fill="#8b4513" stroke="#8b4513" points="439.9626,-194.441 446.4914,-186.0968 436.1841,-188.5484 439.9626,-194.441"/>
</a>
</g>
</g>
<!-- (*github.com/go&#45;i2p/crypto/dsa.DSAVerifier).Verify&#45;&gt;(*github.com/sirupsen/logrus.Logger).Debug -->
<g id="edge2" class="edge">
<title>(*github.com/go&#45;i2p/crypto/dsa.DSAVerifier).Verify&#45;&gt;(*github.com/sirupsen/logrus.Logger).Debug</title>
<g id="a_edge2"><a xlink:title="at dsa_verifier.go:21: calling [(*github.com/sirupsen/logrus.Logger).Debug]">
<path fill="none" stroke="#8b4513" d="M80.8408,-245.0703C99.3864,-282.8684 147.9513,-369.9226 217.8514,-408 274.5537,-438.8881 306.1736,-391.1768 362.3564,-423 385.5594,-436.1427 377.1868,-454.784 398.3564,-471 410.0282,-479.9407 424.529,-486.7301 437.9726,-491.7033"/>
<polygon fill="#8b4513" stroke="#8b4513" points="436.9244,-495.0442 447.5192,-495.0084 439.2146,-488.4294 436.9244,-495.0442"/>
</a>
</g>
</g>
<!-- (*github.com/go&#45;i2p/crypto/dsa.DSAVerifier).VerifyHash&#45;&gt;(*github.com/go&#45;i2p/logger.Logger).Error -->
<g id="edge14" class="edge">
<title>(*github.com/go&#45;i2p/crypto/dsa.DSAVerifier).VerifyHash&#45;&gt;(*github.com/go&#45;i2p/logger.Logger).Error</title>
<g id="a_edge14"><a xlink:title="at dsa_verifier.go:45: calling [(*github.com/go&#45;i2p/logger.Logger).Error]">
<path fill="none" stroke="#8b4513" d="M334.9096,-240.3083C344.0157,-243.1069 353.5119,-246.0935 362.3564,-249 388.0086,-257.43 416.6129,-267.5223 439.0115,-275.5844"/>
<polygon fill="#8b4513" stroke="#8b4513" points="437.9235,-278.9127 448.5178,-279.0182 440.3017,-272.329 437.9235,-278.9127"/>
</a>
</g>
</g>
<!-- (*github.com/go&#45;i2p/crypto/dsa.DSAVerifier).VerifyHash&#45;&gt;(*github.com/go&#45;i2p/logger.Logger).WithFields -->
<g id="edge20" class="edge">
<title>(*github.com/go&#45;i2p/crypto/dsa.DSAVerifier).VerifyHash&#45;&gt;(*github.com/go&#45;i2p/logger.Logger).WithFields</title>
<g id="a_edge20"><a xlink:title="at dsa_verifier.go:29: calling [(*github.com/go&#45;i2p/logger.Logger).WithFields]">
<path fill="none" stroke="#8b4513" d="M317.7312,-208.8415C338.8607,-196.0027 369.2245,-179.7493 398.3564,-172 406.8628,-169.7372 416.0526,-168.348 425.0697,-167.5389"/>
<polygon fill="#8b4513" stroke="#8b4513" points="425.3911,-171.0253 435.1312,-166.8563 424.9172,-164.0413 425.3911,-171.0253"/>
</a>
</g>
</g>
<!-- (*github.com/go&#45;i2p/crypto/dsa.DSAVerifier).VerifyHash&#45;&gt;(*github.com/go&#45;i2p/logger.Logger).Warn -->
<g id="edge9" class="edge">
<title>(*github.com/go&#45;i2p/crypto/dsa.DSAVerifier).VerifyHash&#45;&gt;(*github.com/go&#45;i2p/logger.Logger).Warn</title>
<g id="a_edge9"><a xlink:title="at dsa_verifier.go:41: calling [(*github.com/go&#45;i2p/logger.Logger).Warn]">
<path fill="none" stroke="#8b4513" d="M334.9373,-236.5325C344.4173,-239.6542 354.0558,-243.7262 362.3564,-249 398.7442,-272.1191 393.9327,-293.7709 427.3564,-321 431.2937,-324.2076 435.6128,-327.2935 440.0199,-330.1855"/>
<polygon fill="#8b4513" stroke="#8b4513" points="438.189,-333.1685 448.5266,-335.4888 441.8923,-327.2283 438.189,-333.1685"/>
</a>
</g>
</g>
<!-- (*github.com/go&#45;i2p/crypto/dsa.DSAVerifier).VerifyHash&#45;&gt;(*github.com/sirupsen/logrus.Logger).Debug -->
<g id="edge13" class="edge">
<title>(*github.com/go&#45;i2p/crypto/dsa.DSAVerifier).VerifyHash&#45;&gt;(*github.com/sirupsen/logrus.Logger).Debug</title>
<g id="a_edge13"><a xlink:title="at dsa_verifier.go:32: calling [(*github.com/sirupsen/logrus.Logger).Debug]&#10;at dsa_verifier.go:38: calling [(*github.com/sirupsen/logrus.Logger).Debug]">
<path fill="none" stroke="#8b4513" d="M334.7807,-234.2255C344.6954,-237.4726 354.5604,-242.1789 362.3564,-249 371.5786,-257.069 438.6573,-410.8255 466.4523,-475.1144"/>
<polygon fill="#8b4513" stroke="#8b4513" points="463.383,-476.8355 470.5611,-484.6282 469.8094,-474.0601 463.383,-476.8355"/>
</a>
</g>
</g>
<!-- (github.com/go&#45;i2p/crypto/dsa.DSAPrivateKey).Generate -->
<g id="node16" class="node">
<title>(github.com/go&#45;i2p/crypto/dsa.DSAPrivateKey).Generate</title>
<g id="a_node16"><a xlink:title="(github.com/go&#45;i2p/crypto/dsa.DSAPrivateKey).Generate | defined in dsa_public_key.go:26&#10;at dsa_public_key.go:27: calling [(*github.com/sirupsen/logrus.Logger).Debug]&#10;at dsa_public_key.go:33: calling [(*github.com/sirupsen/logrus.Logger).Debug]&#10;at dsa_public_key.go:29: calling [github.com/go&#45;i2p/crypto/dsa.generateDSA]&#10;at dsa_public_key.go:35: calling [(*github.com/go&#45;i2p/logger.Logger).Error]&#10;at dsa_public_key.go:35: calling [(*github.com/go&#45;i2p/logger.Logger).WithError]">
<path fill="#add8e6" stroke="#000000" stroke-width="1.5" d="M97.5059,-451C97.5059,-451 47.4703,-451 47.4703,-451 41.4703,-451 35.4703,-445 35.4703,-439 35.4703,-439 35.4703,-427 35.4703,-427 35.4703,-421 41.4703,-415 47.4703,-415 47.4703,-415 97.5059,-415 97.5059,-415 103.5059,-415 109.5059,-421 109.5059,-427 109.5059,-427 109.5059,-439 109.5059,-439 109.5059,-445 103.5059,-451 97.5059,-451"/>
<text text-anchor="middle" x="72.4881" y="-428.8" font-family="Verdana" font-size="14.00" fill="#000000">Generate</text>
</a>
</g>
</g>
<!-- (github.com/go&#45;i2p/crypto/dsa.DSAPrivateKey).Generate&#45;&gt;github.com/go&#45;i2p/crypto/dsa.generateDSA -->
<g id="edge6" class="edge">
<title>(github.com/go&#45;i2p/crypto/dsa.DSAPrivateKey).Generate&#45;&gt;github.com/go&#45;i2p/crypto/dsa.generateDSA</title>
<g id="a_edge6"><a xlink:title="at dsa_public_key.go:29: calling [github.com/go&#45;i2p/crypto/dsa.generateDSA]">
<path fill="none" stroke="#000000" d="M109.8976,-417.3565C144.9626,-402.6935 197.7397,-380.6238 237.128,-364.1528"/>
<polygon fill="#000000" stroke="#000000" points="238.959,-367.1809 246.8346,-360.0939 236.2584,-360.7228 238.959,-367.1809"/>
</a>
</g>
</g>
<!-- (github.com/go&#45;i2p/crypto/dsa.DSAPrivateKey).Generate&#45;&gt;(*github.com/go&#45;i2p/logger.Logger).WithError -->
<g id="edge23" class="edge">
<title>(github.com/go&#45;i2p/crypto/dsa.DSAPrivateKey).Generate&#45;&gt;(*github.com/go&#45;i2p/logger.Logger).WithError</title>
<g id="a_edge23"><a xlink:title="at dsa_public_key.go:35: calling [(*github.com/go&#45;i2p/logger.Logger).WithError]">
<path fill="none" stroke="#8b4513" d="M82.0009,-414.8082C98.133,-385.9381 133.7482,-330.1287 180.8514,-303 251.7675,-262.1564 289.1354,-308.5511 362.3564,-272 382.0472,-262.1706 378.3922,-247.2615 398.3564,-238 407.3079,-233.8474 417.4054,-231.2995 427.3386,-229.7873"/>
<polygon fill="#8b4513" stroke="#8b4513" points="428.0622,-233.2258 437.5756,-228.5627 427.2306,-226.2754 428.0622,-233.2258"/>
</a>
</g>
</g>
<!-- (github.com/go&#45;i2p/crypto/dsa.DSAPrivateKey).Generate&#45;&gt;(*github.com/go&#45;i2p/logger.Logger).Error -->
<g id="edge8" class="edge">
<title>(github.com/go&#45;i2p/crypto/dsa.DSAPrivateKey).Generate&#45;&gt;(*github.com/go&#45;i2p/logger.Logger).Error</title>
<g id="a_edge8"><a xlink:title="at dsa_public_key.go:35: calling [(*github.com/go&#45;i2p/logger.Logger).Error]">
<path fill="none" stroke="#8b4513" d="M109.6922,-429.1163C192.9629,-420.2873 387.9785,-398.7949 399.3564,-390 425.541,-369.7596 405.8959,-346.1944 427.3564,-321 430.9735,-316.7536 435.3247,-312.9238 439.9424,-309.5228"/>
<polygon fill="#8b4513" stroke="#8b4513" points="442.0552,-312.321 448.441,-303.8668 438.1769,-306.4936 442.0552,-312.321"/>
</a>
</g>
</g>
<!-- (github.com/go&#45;i2p/crypto/dsa.DSAPrivateKey).Generate&#45;&gt;(*github.com/sirupsen/logrus.Logger).Debug -->
<g id="edge5" class="edge">
<title>(github.com/go&#45;i2p/crypto/dsa.DSAPrivateKey).Generate&#45;&gt;(*github.com/sirupsen/logrus.Logger).Debug</title>
<g id="a_edge5"><a xlink:title="at dsa_public_key.go:27: calling [(*github.com/sirupsen/logrus.Logger).Debug]&#10;at dsa_public_key.go:33: calling [(*github.com/sirupsen/logrus.Logger).Debug]">
<path fill="none" stroke="#8b4513" d="M109.5275,-431.1212C177.2988,-428.2398 318.343,-424.9796 362.3564,-445 383.533,-454.6326 378.2665,-471.2684 398.3564,-483 410.2922,-489.97 424.6014,-494.5268 437.8029,-497.4994"/>
<polygon fill="#8b4513" stroke="#8b4513" points="437.1304,-500.9342 447.6246,-499.4776 438.5125,-494.072 437.1304,-500.9342"/>
</a>
</g>
</g>
<!-- (github.com/go&#45;i2p/crypto/dsa.DSAPrivateKey).Public -->
<g id="node17" class="node">
<title>(github.com/go&#45;i2p/crypto/dsa.DSAPrivateKey).Public</title>
<g id="a_node17"><a xlink:title="(github.com/go&#45;i2p/crypto/dsa.DSAPrivateKey).Public | defined in dsa_private_key.go:20&#10;at dsa_private_key.go:27: calling [(*github.com/sirupsen/logrus.Logger).Debug]&#10;at dsa_private_key.go:21: calling [github.com/go&#45;i2p/crypto/dsa.createDSAPrivkey]&#10;at dsa_private_key.go:23: calling [(*github.com/go&#45;i2p/logger.Logger).Error]">
<path fill="#add8e6" stroke="#000000" stroke-width="1.5" d="M90.2669,-512C90.2669,-512 54.7093,-512 54.7093,-512 48.7093,-512 42.7093,-506 42.7093,-500 42.7093,-500 42.7093,-488 42.7093,-488 42.7093,-482 48.7093,-476 54.7093,-476 54.7093,-476 90.2669,-476 90.2669,-476 96.2669,-476 102.2669,-482 102.2669,-488 102.2669,-488 102.2669,-500 102.2669,-500 102.2669,-506 96.2669,-512 90.2669,-512"/>
<text text-anchor="middle" x="72.4881" y="-489.8" font-family="Verdana" font-size="14.00" fill="#000000">Public</text>
</a>
</g>
</g>
<!-- (github.com/go&#45;i2p/crypto/dsa.DSAPrivateKey).Public&#45;&gt;github.com/go&#45;i2p/crypto/dsa.createDSAPrivkey -->
<g id="edge16" class="edge">
<title>(github.com/go&#45;i2p/crypto/dsa.DSAPrivateKey).Public&#45;&gt;github.com/go&#45;i2p/crypto/dsa.createDSAPrivkey</title>
<g id="a_edge16"><a xlink:title="at dsa_private_key.go:21: calling [github.com/go&#45;i2p/crypto/dsa.createDSAPrivkey]">
<path fill="none" stroke="#000000" d="M102.2904,-496.3281C131.2484,-498.5903 176.4049,-502.1179 215.1825,-505.1472"/>
<polygon fill="#000000" stroke="#000000" points="215.167,-508.6566 225.4092,-505.9461 215.7122,-501.6778 215.167,-508.6566"/>
</a>
</g>
</g>
<!-- (github.com/go&#45;i2p/crypto/dsa.DSAPrivateKey).Public&#45;&gt;(*github.com/go&#45;i2p/logger.Logger).Error -->
<g id="edge24" class="edge">
<title>(github.com/go&#45;i2p/crypto/dsa.DSAPrivateKey).Public&#45;&gt;(*github.com/go&#45;i2p/logger.Logger).Error</title>
<g id="a_edge24"><a xlink:title="at dsa_private_key.go:23: calling [(*github.com/go&#45;i2p/logger.Logger).Error]">
<path fill="none" stroke="#8b4513" d="M102.3756,-486.9722C179.1317,-468.6701 378.6287,-419.4042 399.3564,-397 423.8024,-370.5766 404.4627,-348.7791 427.3564,-321 430.9452,-316.6454 435.3153,-312.742 439.9728,-309.2948"/>
<polygon fill="#8b4513" stroke="#8b4513" points="442.172,-312.0356 448.5601,-303.5832 438.2953,-306.207 442.172,-312.0356"/>
</a>
</g>
</g>
<!-- (github.com/go&#45;i2p/crypto/dsa.DSAPrivateKey).Public&#45;&gt;(*github.com/sirupsen/logrus.Logger).Debug -->
<g id="edge4" class="edge">
<title>(github.com/go&#45;i2p/crypto/dsa.DSAPrivateKey).Public&#45;&gt;(*github.com/sirupsen/logrus.Logger).Debug</title>
<g id="a_edge4"><a xlink:title="at dsa_private_key.go:27: calling [(*github.com/sirupsen/logrus.Logger).Debug]">
<path fill="none" stroke="#8b4513" d="M102.4997,-507.6853C131.4716,-520.3837 176.857,-538.9404 217.8514,-550 237.4635,-555.291 378.1075,-577.3838 398.3564,-579 428.0853,-581.3729 451.2653,-552.7969 464.8776,-530.0098"/>
<polygon fill="#8b4513" stroke="#8b4513" points="468.0857,-531.4462 469.9512,-521.0169 461.9891,-528.0066 468.0857,-531.4462"/>
</a>
</g>
</g>
<!-- (github.com/go&#45;i2p/crypto/dsa.DSAPrivateKey).NewSigner -->
<g id="node18" class="node">
<title>(github.com/go&#45;i2p/crypto/dsa.DSAPrivateKey).NewSigner</title>
<g id="a_node18"><a xlink:title="(github.com/go&#45;i2p/crypto/dsa.DSAPrivateKey).NewSigner | defined in dsa_private_key.go:12&#10;at dsa_private_key.go:15: calling [github.com/go&#45;i2p/crypto/dsa.createDSAPrivkey]&#10;at dsa_private_key.go:13: calling [(*github.com/sirupsen/logrus.Logger).Debug]">
<path fill="#add8e6" stroke="#000000" stroke-width="1.5" d="M103.9643,-573C103.9643,-573 41.0119,-573 41.0119,-573 35.0119,-573 29.0119,-567 29.0119,-561 29.0119,-561 29.0119,-549 29.0119,-549 29.0119,-543 35.0119,-537 41.0119,-537 41.0119,-537 103.9643,-537 103.9643,-537 109.9643,-537 115.9643,-543 115.9643,-549 115.9643,-549 115.9643,-561 115.9643,-561 115.9643,-567 109.9643,-573 103.9643,-573"/>
<text text-anchor="middle" x="72.4881" y="-550.8" font-family="Verdana" font-size="14.00" fill="#000000">NewSigner</text>
</a>
</g>
</g>
<!-- (github.com/go&#45;i2p/crypto/dsa.DSAPrivateKey).NewSigner&#45;&gt;github.com/go&#45;i2p/crypto/dsa.createDSAPrivkey -->
<g id="edge19" class="edge">
<title>(github.com/go&#45;i2p/crypto/dsa.DSAPrivateKey).NewSigner&#45;&gt;github.com/go&#45;i2p/crypto/dsa.createDSAPrivkey</title>
<g id="a_edge19"><a xlink:title="at dsa_private_key.go:15: calling [github.com/go&#45;i2p/crypto/dsa.createDSAPrivkey]">
<path fill="none" stroke="#000000" d="M116.0029,-546.2017C144.4417,-540.4516 182.3238,-532.7922 215.4884,-526.0866"/>
<polygon fill="#000000" stroke="#000000" points="216.5057,-529.4518 225.6137,-524.0393 215.1184,-522.5907 216.5057,-529.4518"/>
</a>
</g>
</g>
<!-- (github.com/go&#45;i2p/crypto/dsa.DSAPrivateKey).NewSigner&#45;&gt;(*github.com/sirupsen/logrus.Logger).Debug -->
<g id="edge22" class="edge">
<title>(github.com/go&#45;i2p/crypto/dsa.DSAPrivateKey).NewSigner&#45;&gt;(*github.com/sirupsen/logrus.Logger).Debug</title>
<g id="a_edge22"><a xlink:title="at dsa_private_key.go:13: calling [(*github.com/sirupsen/logrus.Logger).Debug]">
<path fill="none" stroke="#8b4513" d="M115.9924,-565.4772C135.6801,-569.7925 159.3171,-574.3853 180.8514,-577 192.9123,-578.4644 388.1884,-590.7837 399.3564,-586 426.1351,-574.5296 448.1496,-549.0499 462.0958,-529.3262"/>
<polygon fill="#8b4513" stroke="#8b4513" points="465.02,-531.2503 467.7464,-521.0122 459.2306,-527.3154 465.02,-531.2503"/>
</a>
</g>
</g>
<!-- (github.com/go&#45;i2p/crypto/dsa.DSAPublicKey).NewVerifier -->
<g id="node19" class="node">
<title>(github.com/go&#45;i2p/crypto/dsa.DSAPublicKey).NewVerifier</title>
<g id="a_node19"><a xlink:title="(github.com/go&#45;i2p/crypto/dsa.DSAPublicKey).NewVerifier | defined in dsa_public_key.go:18&#10;at dsa_public_key.go:21: calling [github.com/go&#45;i2p/crypto/dsa.createDSAPublicKey]&#10;at dsa_public_key.go:19: calling [(*github.com/sirupsen/logrus.Logger).Debug]">
<path fill="#add8e6" stroke="#000000" stroke-width="1.5" d="M107.7151,-661C107.7151,-661 37.2611,-661 37.2611,-661 31.2611,-661 25.2611,-655 25.2611,-649 25.2611,-649 25.2611,-637 25.2611,-637 25.2611,-631 31.2611,-625 37.2611,-625 37.2611,-625 107.7151,-625 107.7151,-625 113.7151,-625 119.7151,-631 119.7151,-637 119.7151,-637 119.7151,-649 119.7151,-649 119.7151,-655 113.7151,-661 107.7151,-661"/>
<text text-anchor="middle" x="72.4881" y="-638.8" font-family="Verdana" font-size="14.00" fill="#000000">NewVerifier</text>
</a>
</g>
</g>
<!-- (github.com/go&#45;i2p/crypto/dsa.DSAPublicKey).NewVerifier&#45;&gt;github.com/go&#45;i2p/crypto/dsa.createDSAPublicKey -->
<g id="edge15" class="edge">
<title>(github.com/go&#45;i2p/crypto/dsa.DSAPublicKey).NewVerifier&#45;&gt;github.com/go&#45;i2p/crypto/dsa.createDSAPublicKey</title>
<g id="a_edge15"><a xlink:title="at dsa_public_key.go:21: calling [github.com/go&#45;i2p/crypto/dsa.createDSAPublicKey]">
<path fill="none" stroke="#000000" d="M119.9759,-639.2903C145.5943,-637.289 177.9464,-634.7617 207.5431,-632.4496"/>
<polygon fill="#000000" stroke="#000000" points="208.1843,-635.9103 217.8813,-631.642 207.639,-628.9315 208.1843,-635.9103"/>
</a>
</g>
</g>
<!-- (github.com/go&#45;i2p/crypto/dsa.DSAPublicKey).NewVerifier&#45;&gt;(*github.com/sirupsen/logrus.Logger).Debug -->
<g id="edge32" class="edge">
<title>(github.com/go&#45;i2p/crypto/dsa.DSAPublicKey).NewVerifier&#45;&gt;(*github.com/sirupsen/logrus.Logger).Debug</title>
<g id="a_edge32"><a xlink:title="at dsa_public_key.go:19: calling [(*github.com/sirupsen/logrus.Logger).Debug]">
<path fill="none" stroke="#8b4513" d="M116.3513,-661.0968C183.0357,-685.4868 311.4369,-719.9087 399.3564,-665 446.4322,-635.5995 466.2483,-569.1995 473.9819,-531.165"/>
<polygon fill="#8b4513" stroke="#8b4513" points="477.439,-531.7196 475.8554,-521.2438 470.5605,-530.4207 477.439,-531.7196"/>
</a>
</g>
</g>
</g>
</svg>
