<?xml version="1.0" encoding="UTF-8" standalone="no"?>
<!DOCTYPE svg PUBLIC "-//W3C//DTD SVG 1.1//EN"
 "http://www.w3.org/Graphics/SVG/1.1/DTD/svg11.dtd">
<!-- Generated by graphviz version 2.40.1 (20161225.0304)
 -->
<!-- Title: gocallvis Pages: 1 -->
<svg width="546pt" height="717pt"
 viewBox="0.00 0.00 545.58 717.00" xmlns="http://www.w3.org/2000/svg" xmlns:xlink="http://www.w3.org/1999/xlink">
<g id="graph0" class="graph" transform="scale(1 1) rotate(0) translate(0 717)">
<title>gocallvis</title>
<polygon fill="#d3d3d3" stroke="transparent" points="0,0 0,-717 545.5752,-717 545.5752,0 0,0"/>
<g id="clust1" class="cluster">
<title>cluster_focus</title>
<polygon fill="#e6ecfa" stroke="#000000" stroke-width=".5" points="0,-8 0,-709 537.5752,-709 537.5752,-8 0,-8"/>
<text text-anchor="middle" x="268.7876" y="-688.8" font-family="Arial" font-size="18.00" fill="#000000">dsa</text>
</g>
<g id="clust7" class="cluster">
<title>cluster_github.com/go&#45;i2p/crypto/dsa.DSAPublicKey</title>
<g id="a_clust7"><a xlink:title="type: github.com/go&#45;i2p/crypto/dsa.DSAPublicKey">
<path fill="#b0c4de" stroke="#000000" stroke-width=".5" d="M23.1248,-588C23.1248,-588 121.8514,-588 121.8514,-588 127.8514,-588 133.8514,-594 133.8514,-600 133.8514,-600 133.8514,-654 133.8514,-654 133.8514,-660 127.8514,-666 121.8514,-666 121.8514,-666 23.1248,-666 23.1248,-666 17.1248,-666 11.1248,-660 11.1248,-654 11.1248,-654 11.1248,-600 11.1248,-600 11.1248,-594 17.1248,-588 23.1248,-588"/>
<text text-anchor="middle" x="72.4881" y="-596.5" font-family="Arial" font-size="15.00" fill="#222222">(DSAPublicKey)</text>
</a>
</g>
</g>
<g id="clust6" class="cluster">
<title>cluster_github.com/go&#45;i2p/crypto/dsa.DSAPrivateKey</title>
<g id="a_clust6"><a xlink:title="type: github.com/go&#45;i2p/crypto/dsa.DSAPrivateKey">
<path fill="#b0c4de" stroke="#000000" stroke-width=".5" d="M20,-347C20,-347 124.9762,-347 124.9762,-347 130.9762,-347 136.9762,-353 136.9762,-359 136.9762,-359 136.9762,-535 136.9762,-535 136.9762,-541 130.9762,-547 124.9762,-547 124.9762,-547 20,-547 20,-547 14,-547 8,-541 8,-535 8,-535 8,-359 8,-359 8,-353 14,-347 20,-347"/>
<text text-anchor="middle" x="72.4881" y="-355.5" font-family="Arial" font-size="15.00" fill="#222222">(DSAPrivateKey)</text>
</a>
</g>
</g>
<g id="clust5" class="cluster">
<title>cluster_*github.com/sirupsen/logrus.Logger</title>
<g id="a_clust5"><a xlink:title="type: *github.com/sirupsen/logrus.Logger">
<path fill="#eed8ae" stroke="#000000" stroke-width=".5" d="M451.8052,-478C451.8052,-478 506.1264,-478 506.1264,-478 512.1264,-478 518.1264,-484 518.1264,-490 518.1264,-490 518.1264,-544 518.1264,-544 518.1264,-550 512.1264,-556 506.1264,-556 506.1264,-556 451.8052,-556 451.8052,-556 445.8052,-556 439.8052,-550 439.8052,-544 439.8052,-544 439.8052,-490 439.8052,-490 439.8052,-484 445.8052,-478 451.8052,-478"/>
<text text-anchor="middle" x="478.9658" y="-486.5" font-family="Arial" font-size="15.00" fill="#222222">(*Logger)</text>
</a>
</g>
</g>
<g id="clust4" class="cluster">
<title>cluster_*github.com/go&#45;i2p/logger.Logger</title>
<g id="a_clust4"><a xlink:title="type: *github.com/go&#45;i2p/logger.Logger">
<path fill="#eed8ae" stroke="#000000" stroke-width=".5" d="M439.3564,-62C439.3564,-62 517.5752,-62 517.5752,-62 523.5752,-62 529.5752,-68 529.5752,-74 529.5752,-74 529.5752,-372 529.5752,-372 529.5752,-378 523.5752,-384 517.5752,-384 517.5752,-384 439.3564,-384 439.3564,-384 433.3564,-384 427.3564,-378 427.3564,-372 427.3564,-372 427.3564,-74 427.3564,-74 427.3564,-68 433.3564,-62 439.3564,-62"/>
<text text-anchor="middle" x="478.4658" y="-70.5" font-family="Arial" font-size="15.00" fill="#222222">(*Logger)</text>
</a>
</g>
</g>
<g id="clust3" class="cluster">
<title>cluster_*github.com/go&#45;i2p/crypto/dsa.DSAVerifier</title>
<g id="a_clust3"><a xlink:title="type: *github.com/go&#45;i2p/crypto/dsa.DSAVerifier">
<path fill="#b0c4de" stroke="#000000" stroke-width=".5" d="M46.2216,-175C46.2216,-175 330.7533,-175 330.7533,-175 336.7533,-175 342.7533,-181 342.7533,-187 342.7533,-187 342.7533,-241 342.7533,-241 342.7533,-247 336.7533,-253 330.7533,-253 330.7533,-253 46.2216,-253 46.2216,-253 40.2216,-253 34.2216,-247 34.2216,-241 34.2216,-241 34.2216,-187 34.2216,-187 34.2216,-181 40.2216,-175 46.2216,-175"/>
<text text-anchor="middle" x="188.4874" y="-183.5" font-family="Arial" font-size="15.00" fill="#222222">(*DSAVerifier)</text>
</a>
</g>
</g>
<g id="clust2" class="cluster">
<title>cluster_*github.com/go&#45;i2p/crypto/dsa.DSASigner</title>
<g id="a_clust2"><a xlink:title="type: *github.com/go&#45;i2p/crypto/dsa.DSASigner">
<path fill="#b0c4de" stroke="#000000" stroke-width=".5" d="M49.4881,-70C49.4881,-70 325.3234,-70 325.3234,-70 331.3234,-70 337.3234,-76 337.3234,-82 337.3234,-82 337.3234,-136 337.3234,-136 337.3234,-142 331.3234,-148 325.3234,-148 325.3234,-148 49.4881,-148 49.4881,-148 43.4881,-148 37.4881,-142 37.4881,-136 37.4881,-136 37.4881,-82 37.4881,-82 37.4881,-76 43.4881,-70 49.4881,-70"/>
<text text-anchor="middle" x="187.4058" y="-78.5" font-family="Arial" font-size="15.00" fill="#222222">(*DSASigner)</text>
</a>
</g>
</g>
<!-- github.com/go&#45;i2p/crypto/dsa.createDSAPublicKey -->
<g id="node1" class="node">
<title>github.com/go&#45;i2p/crypto/dsa.createDSAPublicKey</title>
<g id="a_node1"><a xlink:title="github.com/go&#45;i2p/crypto/dsa.createDSAPublicKey | defined in utils.go:29&#10;at utils.go:30: calling [(*github.com/sirupsen/logrus.Logger).Debug]">
<path fill="#add8e6" stroke="#000000" stroke-width=".5" d="M350.1097,-644C350.1097,-644 230.0981,-644 230.0981,-644 224.0981,-644 218.0981,-638 218.0981,-632 218.0981,-632 218.0981,-620 218.0981,-620 218.0981,-614 224.0981,-608 230.0981,-608 230.0981,-608 350.1097,-608 350.1097,-608 356.1097,-608 362.1097,-614 362.1097,-620 362.1097,-620 362.1097,-632 362.1097,-632 362.1097,-638 356.1097,-644 350.1097,-644"/>
<text text-anchor="middle" x="290.1039" y="-621.8" font-family="Verdana" font-size="14.00" fill="#000000">createDSAPublicKey</text>
</a>
</g>
</g>
<!-- (*github.com/sirupsen/logrus.Logger).Debug -->
<g id="node15" class="node">
<title>(*github.com/sirupsen/logrus.Logger).Debug</title>
<g id="a_node15"><a xlink:title="(*github.com/sirupsen/logrus.Logger).Debug | defined in logger.go:221">
<path fill="#ffe4b5" stroke="#000000" stroke-width="1.5" d="M497.2878,-548C497.2878,-548 459.6438,-548 459.6438,-548 453.6438,-548 447.6438,-542 447.6438,-536 447.6438,-536 447.6438,-524 447.6438,-524 447.6438,-518 453.6438,-512 459.6438,-512 459.6438,-512 497.2878,-512 497.2878,-512 503.2878,-512 509.2878,-518 509.2878,-524 509.2878,-524 509.2878,-536 509.2878,-536 509.2878,-542 503.2878,-548 497.2878,-548"/>
<text text-anchor="middle" x="478.4658" y="-534.2" font-family="Verdana" font-size="14.00" fill="#000000">logrus</text>
<text text-anchor="middle" x="478.4658" y="-517.4" font-family="Verdana" font-size="14.00" fill="#000000">Debug</text>
</a>
</g>
</g>
<!-- github.com/go&#45;i2p/crypto/dsa.createDSAPublicKey&#45;&gt;(*github.com/sirupsen/logrus.Logger).Debug -->
<g id="edge26" class="edge">
<title>github.com/go&#45;i2p/crypto/dsa.createDSAPublicKey&#45;&gt;(*github.com/sirupsen/logrus.Logger).Debug</title>
<g id="a_edge26"><a xlink:title="at utils.go:30: calling [(*github.com/sirupsen/logrus.Logger).Debug]">
<path fill="none" stroke="#8b4513" d="M362.1148,-628.529C374.9793,-626.8302 387.9152,-623.6091 399.3564,-618 426.5118,-604.6869 448.5962,-577.5845 462.4617,-556.9547"/>
<polygon fill="#8b4513" stroke="#8b4513" points="465.5756,-558.5848 468.0671,-548.287 459.6977,-554.7835 465.5756,-558.5848"/>
</a>
</g>
</g>
<!-- github.com/go&#45;i2p/crypto/dsa.init -->
<g id="node2" class="node">
<title>github.com/go&#45;i2p/crypto/dsa.init</title>
<g id="a_node2"><a xlink:title="github.com/go&#45;i2p/crypto/dsa.init | defined in .:0&#10;at constants.go:7: calling [github.com/go&#45;i2p/logger.GetGoI2PLogger]">
<path fill="#add8e6" stroke="#000000" stroke-width=".5" d="M87.4881,-52C87.4881,-52 57.4881,-52 57.4881,-52 51.4881,-52 45.4881,-46 45.4881,-40 45.4881,-40 45.4881,-28 45.4881,-28 45.4881,-22 51.4881,-16 57.4881,-16 57.4881,-16 87.4881,-16 87.4881,-16 93.4881,-16 99.4881,-22 99.4881,-28 99.4881,-28 99.4881,-40 99.4881,-40 99.4881,-46 93.4881,-52 87.4881,-52"/>
<text text-anchor="middle" x="72.4881" y="-29.8" font-family="Verdana" font-size="14.00" fill="#000000">init</text>
</a>
</g>
</g>
<!-- github.com/go&#45;i2p/logger.GetGoI2PLogger -->
<g id="node3" class="node">
<title>github.com/go&#45;i2p/logger.GetGoI2PLogger</title>
<g id="a_node3"><a xlink:title="github.com/go&#45;i2p/logger.GetGoI2PLogger | defined in log.go:120">
<path fill="#ffe4b5" stroke="#000000" stroke-width="1.5" d="M338.7934,-52C338.7934,-52 241.4144,-52 241.4144,-52 235.4144,-52 229.4144,-46 229.4144,-40 229.4144,-40 229.4144,-28 229.4144,-28 229.4144,-22 235.4144,-16 241.4144,-16 241.4144,-16 338.7934,-16 338.7934,-16 344.7934,-16 350.7934,-22 350.7934,-28 350.7934,-28 350.7934,-40 350.7934,-40 350.7934,-46 344.7934,-52 338.7934,-52"/>
<text text-anchor="middle" x="290.1039" y="-38.2" font-family="Verdana" font-size="14.00" fill="#000000">logger</text>
<text text-anchor="middle" x="290.1039" y="-21.4" font-family="Verdana" font-size="14.00" fill="#000000">GetGoI2PLogger</text>
</a>
</g>
</g>
<!-- github.com/go&#45;i2p/crypto/dsa.init&#45;&gt;github.com/go&#45;i2p/logger.GetGoI2PLogger -->
<g id="edge31" class="edge">
<title>github.com/go&#45;i2p/crypto/dsa.init&#45;&gt;github.com/go&#45;i2p/logger.GetGoI2PLogger</title>
<g id="a_edge31"><a xlink:title="at constants.go:7: calling [github.com/go&#45;i2p/logger.GetGoI2PLogger]">
<path fill="none" stroke="#8b4513" d="M99.6093,-34C129.3344,-34 178.2272,-34 219.0358,-34"/>
<polygon fill="#8b4513" stroke="#8b4513" points="219.2202,-37.5001 229.2201,-34 219.2201,-30.5001 219.2202,-37.5001"/>
</a>
</g>
</g>
<!-- github.com/go&#45;i2p/crypto/dsa.createDSAPrivkey -->
<g id="node4" class="node">
<title>github.com/go&#45;i2p/crypto/dsa.createDSAPrivkey</title>
<g id="a_node4"><a xlink:title="github.com/go&#45;i2p/crypto/dsa.createDSAPrivkey | defined in utils.go:39&#10;at utils.go:40: calling [(*github.com/sirupsen/logrus.Logger).Debug]&#10;at utils.go:51: calling [(*github.com/sirupsen/logrus.Logger).Debug]&#10;at utils.go:53: calling [(*github.com/go&#45;i2p/logger.Logger).Warn]">
<path fill="#add8e6" stroke="#000000" stroke-width=".5" d="M342.5577,-529C342.5577,-529 237.6501,-529 237.6501,-529 231.6501,-529 225.6501,-523 225.6501,-517 225.6501,-517 225.6501,-505 225.6501,-505 225.6501,-499 231.6501,-493 237.6501,-493 237.6501,-493 342.5577,-493 342.5577,-493 348.5577,-493 354.5577,-499 354.5577,-505 354.5577,-505 354.5577,-517 354.5577,-517 354.5577,-523 348.5577,-529 342.5577,-529"/>
<text text-anchor="middle" x="290.1039" y="-506.8" font-family="Verdana" font-size="14.00" fill="#000000">createDSAPrivkey</text>
</a>
</g>
</g>
<!-- (*github.com/go&#45;i2p/logger.Logger).Warn -->
<g id="node12" class="node">
<title>(*github.com/go&#45;i2p/logger.Logger).Warn</title>
<g id="a_node12"><a xlink:title="(*github.com/go&#45;i2p/logger.Logger).Warn | defined in log.go:30">
<path fill="#ffe4b5" stroke="#000000" stroke-width="1.5" d="M496.2321,-376C496.2321,-376 460.6995,-376 460.6995,-376 454.6995,-376 448.6995,-370 448.6995,-364 448.6995,-364 448.6995,-352 448.6995,-352 448.6995,-346 454.6995,-340 460.6995,-340 460.6995,-340 496.2321,-340 496.2321,-340 502.2321,-340 508.2321,-346 508.2321,-352 508.2321,-352 508.2321,-364 508.2321,-364 508.2321,-370 502.2321,-376 496.2321,-376"/>
<text text-anchor="middle" x="478.4658" y="-362.2" font-family="Verdana" font-size="14.00" fill="#000000">logger</text>
<text text-anchor="middle" x="478.4658" y="-345.4" font-family="Verdana" font-size="14.00" fill="#000000">Warn</text>
</a>
</g>
</g>
<!-- github.com/go&#45;i2p/crypto/dsa.createDSAPrivkey&#45;&gt;(*github.com/go&#45;i2p/logger.Logger).Warn -->
<g id="edge16" class="edge">
<title>github.com/go&#45;i2p/crypto/dsa.createDSAPrivkey&#45;&gt;(*github.com/go&#45;i2p/logger.Logger).Warn</title>
<g id="a_edge16"><a xlink:title="at utils.go:53: calling [(*github.com/go&#45;i2p/logger.Logger).Warn]">
<path fill="none" stroke="#8b4513" d="M315.7547,-492.7245C338.2079,-476.4983 371.5007,-451.8801 399.3564,-429 417.2078,-414.3372 436.5166,-397.0377 451.5891,-383.1861"/>
<polygon fill="#8b4513" stroke="#8b4513" points="454.0845,-385.6457 459.0547,-376.289 449.3344,-380.504 454.0845,-385.6457"/>
</a>
</g>
</g>
<!-- github.com/go&#45;i2p/crypto/dsa.createDSAPrivkey&#45;&gt;(*github.com/sirupsen/logrus.Logger).Debug -->
<g id="edge9" class="edge">
<title>github.com/go&#45;i2p/crypto/dsa.createDSAPrivkey&#45;&gt;(*github.com/sirupsen/logrus.Logger).Debug</title>
<g id="a_edge9"><a xlink:title="at utils.go:40: calling [(*github.com/sirupsen/logrus.Logger).Debug]&#10;at utils.go:51: calling [(*github.com/sirupsen/logrus.Logger).Debug]">
<path fill="none" stroke="#8b4513" d="M340.122,-529.0076C358.528,-534.0049 379.6834,-537.8687 399.3564,-537 411.8396,-536.4488 425.3984,-535.4106 437.707,-534.2993"/>
<polygon fill="#8b4513" stroke="#8b4513" points="438.0736,-537.7804 447.7011,-533.3577 437.4169,-530.8112 438.0736,-537.7804"/>
</a>
</g>
</g>
<!-- github.com/go&#45;i2p/crypto/dsa.generateDSA -->
<g id="node5" class="node">
<title>github.com/go&#45;i2p/crypto/dsa.generateDSA</title>
<g id="a_node5"><a xlink:title="github.com/go&#45;i2p/crypto/dsa.generateDSA | defined in utils.go:11&#10;at utils.go:20: calling [(*github.com/go&#45;i2p/logger.Logger).WithError]&#10;at utils.go:20: calling [(*github.com/go&#45;i2p/logger.Logger).Error]&#10;at utils.go:12: calling [(*github.com/sirupsen/logrus.Logger).Debug]&#10;at utils.go:22: calling [(*github.com/sirupsen/logrus.Logger).Debug]">
<path fill="#add8e6" stroke="#000000" stroke-width=".5" d="M328.0101,-360C328.0101,-360 252.1977,-360 252.1977,-360 246.1977,-360 240.1977,-354 240.1977,-348 240.1977,-348 240.1977,-336 240.1977,-336 240.1977,-330 246.1977,-324 252.1977,-324 252.1977,-324 328.0101,-324 328.0101,-324 334.0101,-324 340.0101,-330 340.0101,-336 340.0101,-336 340.0101,-348 340.0101,-348 340.0101,-354 334.0101,-360 328.0101,-360"/>
<text text-anchor="middle" x="290.1039" y="-337.8" font-family="Verdana" font-size="14.00" fill="#000000">generateDSA</text>
</a>
</g>
</g>
<!-- (*github.com/go&#45;i2p/logger.Logger).Error -->
<g id="node11" class="node">
<title>(*github.com/go&#45;i2p/logger.Logger).Error</title>
<g id="a_node11"><a xlink:title="(*github.com/go&#45;i2p/logger.Logger).Error | defined in log.go:42">
<path fill="#ffe4b5" stroke="#000000" stroke-width="1.5" d="M496.2321,-315C496.2321,-315 460.6995,-315 460.6995,-315 454.6995,-315 448.6995,-309 448.6995,-303 448.6995,-303 448.6995,-291 448.6995,-291 448.6995,-285 454.6995,-279 460.6995,-279 460.6995,-279 496.2321,-279 496.2321,-279 502.2321,-279 508.2321,-285 508.2321,-291 508.2321,-291 508.2321,-303 508.2321,-303 508.2321,-309 502.2321,-315 496.2321,-315"/>
<text text-anchor="middle" x="478.4658" y="-301.2" font-family="Verdana" font-size="14.00" fill="#000000">logger</text>
<text text-anchor="middle" x="478.4658" y="-284.4" font-family="Verdana" font-size="14.00" fill="#000000">Error</text>
</a>
</g>
</g>
<!-- github.com/go&#45;i2p/crypto/dsa.generateDSA&#45;&gt;(*github.com/go&#45;i2p/logger.Logger).Error -->
<g id="edge23" class="edge">
<title>github.com/go&#45;i2p/crypto/dsa.generateDSA&#45;&gt;(*github.com/go&#45;i2p/logger.Logger).Error</title>
<g id="a_edge23"><a xlink:title="at utils.go:20: calling [(*github.com/go&#45;i2p/logger.Logger).Error]">
<path fill="none" stroke="#8b4513" d="M340.0869,-330.059C370.858,-322.7077 409.7697,-313.4116 438.4878,-306.5508"/>
<polygon fill="#8b4513" stroke="#8b4513" points="439.66,-309.8694 448.573,-304.1415 438.0334,-303.061 439.66,-309.8694"/>
</a>
</g>
</g>
<!-- (*github.com/go&#45;i2p/logger.Logger).WithError -->
<g id="node13" class="node">
<title>(*github.com/go&#45;i2p/logger.Logger).WithError</title>
<g id="a_node13"><a xlink:title="(*github.com/go&#45;i2p/logger.Logger).WithError | defined in log.go:66">
<path fill="#ffe4b5" stroke="#000000" stroke-width="1.5" d="M506.9973,-254C506.9973,-254 449.9343,-254 449.9343,-254 443.9343,-254 437.9343,-248 437.9343,-242 437.9343,-242 437.9343,-230 437.9343,-230 437.9343,-224 443.9343,-218 449.9343,-218 449.9343,-218 506.9973,-218 506.9973,-218 512.9973,-218 518.9973,-224 518.9973,-230 518.9973,-230 518.9973,-242 518.9973,-242 518.9973,-248 512.9973,-254 506.9973,-254"/>
<text text-anchor="middle" x="478.4658" y="-240.2" font-family="Verdana" font-size="14.00" fill="#000000">logger</text>
<text text-anchor="middle" x="478.4658" y="-223.4" font-family="Verdana" font-size="14.00" fill="#000000">WithError</text>
</a>
</g>
</g>
<!-- github.com/go&#45;i2p/crypto/dsa.generateDSA&#45;&gt;(*github.com/go&#45;i2p/logger.Logger).WithError -->
<g id="edge11" class="edge">
<title>github.com/go&#45;i2p/crypto/dsa.generateDSA&#45;&gt;(*github.com/go&#45;i2p/logger.Logger).WithError</title>
<g id="a_edge11"><a xlink:title="at utils.go:20: calling [(*github.com/go&#45;i2p/logger.Logger).WithError]">
<path fill="none" stroke="#8b4513" d="M326.3554,-323.9983C337.9393,-318.0963 350.761,-311.4061 362.3564,-305 377.1727,-296.8145 412.2066,-275.9158 439.9416,-259.2469"/>
<polygon fill="#8b4513" stroke="#8b4513" points="441.8904,-262.1591 448.6551,-254.0051 438.2819,-256.1609 441.8904,-262.1591"/>
</a>
</g>
</g>
<!-- github.com/go&#45;i2p/crypto/dsa.generateDSA&#45;&gt;(*github.com/sirupsen/logrus.Logger).Debug -->
<g id="edge29" class="edge">
<title>github.com/go&#45;i2p/crypto/dsa.generateDSA&#45;&gt;(*github.com/sirupsen/logrus.Logger).Debug</title>
<g id="a_edge29"><a xlink:title="at utils.go:12: calling [(*github.com/sirupsen/logrus.Logger).Debug]&#10;at utils.go:22: calling [(*github.com/sirupsen/logrus.Logger).Debug]">
<path fill="none" stroke="#8b4513" d="M308.1648,-360.0262C341.8319,-393.6287 414.2608,-465.9183 452.9222,-504.5055"/>
<polygon fill="#8b4513" stroke="#8b4513" points="450.6324,-507.1651 460.1828,-511.7521 455.5774,-502.2106 450.6324,-507.1651"/>
</a>
</g>
</g>
<!-- (*github.com/go&#45;i2p/crypto/dsa.DSASigner).SignHash -->
<g id="node6" class="node">
<title>(*github.com/go&#45;i2p/crypto/dsa.DSASigner).SignHash</title>
<g id="a_node6"><a xlink:title="(*github.com/go&#45;i2p/crypto/dsa.DSASigner).SignHash | defined in dsa_signer.go:21&#10;at dsa_signer.go:35: calling [(*github.com/go&#45;i2p/logger.Logger).WithError]&#10;at dsa_signer.go:35: calling [(*github.com/go&#45;i2p/logger.Logger).Error]&#10;at dsa_signer.go:22: calling [(*github.com/sirupsen/logrus.Logger).Debug]&#10;at dsa_signer.go:33: calling [(*github.com/sirupsen/logrus.Logger).Debug]&#10;at dsa_signer.go:22: calling [(*github.com/go&#45;i2p/logger.Logger).WithField]&#10;at dsa_signer.go:33: calling [(*github.com/go&#45;i2p/logger.Logger).WithField]">
<path fill="#add8e6" stroke="#000000" stroke-width="1.5" d="M317.5441,-140C317.5441,-140 262.6637,-140 262.6637,-140 256.6637,-140 250.6637,-134 250.6637,-128 250.6637,-128 250.6637,-116 250.6637,-116 250.6637,-110 256.6637,-104 262.6637,-104 262.6637,-104 317.5441,-104 317.5441,-104 323.5441,-104 329.5441,-110 329.5441,-116 329.5441,-116 329.5441,-128 329.5441,-128 329.5441,-134 323.5441,-140 317.5441,-140"/>
<text text-anchor="middle" x="290.1039" y="-117.8" font-family="Verdana" font-size="14.00" fill="#000000">SignHash</text>
</a>
</g>
</g>
<!-- (*github.com/go&#45;i2p/crypto/dsa.DSASigner).SignHash&#45;&gt;(*github.com/go&#45;i2p/logger.Logger).Error -->
<g id="edge3" class="edge">
<title>(*github.com/go&#45;i2p/crypto/dsa.DSASigner).SignHash&#45;&gt;(*github.com/go&#45;i2p/logger.Logger).Error</title>
<g id="a_edge3"><a xlink:title="at dsa_signer.go:35: calling [(*github.com/go&#45;i2p/logger.Logger).Error]">
<path fill="none" stroke="#8b4513" d="M329.4244,-122.7831C352.7667,-125.3458 381.2477,-132.4772 399.3564,-151 436.4323,-188.9238 395.7503,-224.4102 427.3564,-267 430.767,-271.5959 435.1085,-275.6109 439.8153,-279.0805"/>
<polygon fill="#8b4513" stroke="#8b4513" points="438.264,-282.2457 448.5599,-284.7445 442.0694,-276.3704 438.264,-282.2457"/>
</a>
</g>
</g>
<!-- (*github.com/go&#45;i2p/crypto/dsa.DSASigner).SignHash&#45;&gt;(*github.com/go&#45;i2p/logger.Logger).WithError -->
<g id="edge2" class="edge">
<title>(*github.com/go&#45;i2p/crypto/dsa.DSASigner).SignHash&#45;&gt;(*github.com/go&#45;i2p/logger.Logger).WithError</title>
<g id="a_edge2"><a xlink:title="at dsa_signer.go:35: calling [(*github.com/go&#45;i2p/logger.Logger).WithError]">
<path fill="none" stroke="#8b4513" d="M329.4975,-109.3531C352.005,-104.6766 379.5921,-103.548 399.3564,-118 432.4872,-142.2258 401.7397,-173.9324 427.3564,-206 428.8173,-207.8288 430.4222,-209.5695 432.134,-211.2233"/>
<polygon fill="#8b4513" stroke="#8b4513" points="430.277,-214.2304 440.2081,-217.9215 434.7464,-208.8429 430.277,-214.2304"/>
</a>
</g>
</g>
<!-- (*github.com/go&#45;i2p/logger.Logger).WithField -->
<g id="node14" class="node">
<title>(*github.com/go&#45;i2p/logger.Logger).WithField</title>
<g id="a_node14"><a xlink:title="(*github.com/go&#45;i2p/logger.Logger).WithField | defined in log.go:54">
<path fill="#ffe4b5" stroke="#000000" stroke-width="1.5" d="M506.7403,-132C506.7403,-132 450.1913,-132 450.1913,-132 444.1913,-132 438.1913,-126 438.1913,-120 438.1913,-120 438.1913,-108 438.1913,-108 438.1913,-102 444.1913,-96 450.1913,-96 450.1913,-96 506.7403,-96 506.7403,-96 512.7403,-96 518.7403,-102 518.7403,-108 518.7403,-108 518.7403,-120 518.7403,-120 518.7403,-126 512.7403,-132 506.7403,-132"/>
<text text-anchor="middle" x="478.4658" y="-118.2" font-family="Verdana" font-size="14.00" fill="#000000">logger</text>
<text text-anchor="middle" x="478.4658" y="-101.4" font-family="Verdana" font-size="14.00" fill="#000000">WithField</text>
</a>
</g>
</g>
<!-- (*github.com/go&#45;i2p/crypto/dsa.DSASigner).SignHash&#45;&gt;(*github.com/go&#45;i2p/logger.Logger).WithField -->
<g id="edge20" class="edge">
<title>(*github.com/go&#45;i2p/crypto/dsa.DSASigner).SignHash&#45;&gt;(*github.com/go&#45;i2p/logger.Logger).WithField</title>
<g id="a_edge20"><a xlink:title="at dsa_signer.go:22: calling [(*github.com/go&#45;i2p/logger.Logger).WithField]&#10;at dsa_signer.go:33: calling [(*github.com/go&#45;i2p/logger.Logger).WithField]">
<path fill="none" stroke="#8b4513" d="M326.3243,-103.9416C337.9066,-98.0366 350.735,-91.359 362.3564,-85 378.6061,-76.1085 380.4751,-68.8342 398.3564,-64 420.3897,-58.0433 442.1504,-73.3526 457.4188,-88.5596"/>
<polygon fill="#8b4513" stroke="#8b4513" points="454.9573,-91.0509 464.3654,-95.9231 460.0491,-86.2473 454.9573,-91.0509"/>
</a>
</g>
</g>
<!-- (*github.com/go&#45;i2p/crypto/dsa.DSASigner).SignHash&#45;&gt;(*github.com/sirupsen/logrus.Logger).Debug -->
<g id="edge6" class="edge">
<title>(*github.com/go&#45;i2p/crypto/dsa.DSASigner).SignHash&#45;&gt;(*github.com/sirupsen/logrus.Logger).Debug</title>
<g id="a_edge6"><a xlink:title="at dsa_signer.go:22: calling [(*github.com/sirupsen/logrus.Logger).Debug]&#10;at dsa_signer.go:33: calling [(*github.com/sirupsen/logrus.Logger).Debug]">
<path fill="none" stroke="#8b4513" d="M329.6062,-136.9892C341.0962,-142.6601 353.0461,-149.9765 362.3564,-159 386.7831,-182.6743 388.114,-193.8948 399.3564,-226 423.7946,-295.7885 408.3778,-318.5334 427.3564,-390 437.9437,-429.8679 455.1653,-474.374 466.6524,-502.2804"/>
<polygon fill="#8b4513" stroke="#8b4513" points="463.5286,-503.8837 470.6022,-511.7714 469.9913,-501.1942 463.5286,-503.8837"/>
</a>
</g>
</g>
<!-- (*github.com/go&#45;i2p/crypto/dsa.DSASigner).Sign -->
<g id="node7" class="node">
<title>(*github.com/go&#45;i2p/crypto/dsa.DSASigner).Sign</title>
<g id="a_node7"><a xlink:title="(*github.com/go&#45;i2p/crypto/dsa.DSASigner).Sign | defined in dsa_signer.go:14&#10;at dsa_signer.go:17: calling [(*github.com/go&#45;i2p/crypto/dsa.DSASigner).SignHash]&#10;at dsa_signer.go:15: calling [(*github.com/sirupsen/logrus.Logger).Debug]&#10;at dsa_signer.go:15: calling [(*github.com/go&#45;i2p/logger.Logger).WithField]">
<path fill="#add8e6" stroke="#000000" stroke-width="1.5" d="M87.4881,-140C87.4881,-140 57.4881,-140 57.4881,-140 51.4881,-140 45.4881,-134 45.4881,-128 45.4881,-128 45.4881,-116 45.4881,-116 45.4881,-110 51.4881,-104 57.4881,-104 57.4881,-104 87.4881,-104 87.4881,-104 93.4881,-104 99.4881,-110 99.4881,-116 99.4881,-116 99.4881,-128 99.4881,-128 99.4881,-134 93.4881,-140 87.4881,-140"/>
<text text-anchor="middle" x="72.4881" y="-117.8" font-family="Verdana" font-size="14.00" fill="#000000">Sign</text>
</a>
</g>
</g>
<!-- (*github.com/go&#45;i2p/crypto/dsa.DSASigner).Sign&#45;&gt;(*github.com/go&#45;i2p/crypto/dsa.DSASigner).SignHash -->
<g id="edge4" class="edge">
<title>(*github.com/go&#45;i2p/crypto/dsa.DSASigner).Sign&#45;&gt;(*github.com/go&#45;i2p/crypto/dsa.DSASigner).SignHash</title>
<g id="a_edge4"><a xlink:title="at dsa_signer.go:17: calling [(*github.com/go&#45;i2p/crypto/dsa.DSASigner).SignHash]">
<path fill="none" stroke="#000000" d="M99.6093,-122C134.8399,-122 196.9958,-122 240.7056,-122"/>
<polygon fill="#000000" stroke="#000000" points="240.8391,-125.5001 250.8391,-122 240.839,-118.5001 240.8391,-125.5001"/>
</a>
</g>
</g>
<!-- (*github.com/go&#45;i2p/crypto/dsa.DSASigner).Sign&#45;&gt;(*github.com/go&#45;i2p/logger.Logger).WithField -->
<g id="edge21" class="edge">
<title>(*github.com/go&#45;i2p/crypto/dsa.DSASigner).Sign&#45;&gt;(*github.com/go&#45;i2p/logger.Logger).WithField</title>
<g id="a_edge21"><a xlink:title="at dsa_signer.go:15: calling [(*github.com/go&#45;i2p/logger.Logger).WithField]">
<path fill="none" stroke="#8b4513" d="M99.7039,-115.7654C128.8272,-109.2389 176.4339,-98.9872 217.8514,-92 281.7261,-81.2243 299.8026,-89.8258 362.3564,-73 379.0948,-68.4977 381.3597,-61.3993 398.3564,-58 421.9508,-53.2811 443.9851,-70.9705 458.9488,-87.6922"/>
<polygon fill="#8b4513" stroke="#8b4513" points="456.5867,-90.3214 465.7024,-95.721 461.9435,-85.8153 456.5867,-90.3214"/>
</a>
</g>
</g>
<!-- (*github.com/go&#45;i2p/crypto/dsa.DSASigner).Sign&#45;&gt;(*github.com/sirupsen/logrus.Logger).Debug -->
<g id="edge17" class="edge">
<title>(*github.com/go&#45;i2p/crypto/dsa.DSASigner).Sign&#45;&gt;(*github.com/sirupsen/logrus.Logger).Debug</title>
<g id="a_edge17"><a xlink:title="at dsa_signer.go:15: calling [(*github.com/sirupsen/logrus.Logger).Debug]">
<path fill="none" stroke="#8b4513" d="M99.6809,-128.5326C128.785,-135.3519 176.3759,-146.0077 217.8514,-153 249.7615,-158.3797 337.6705,-150.0762 362.3564,-171 401.0821,-203.8239 411.4222,-341.8005 427.3564,-390 440.3039,-429.165 456.9461,-473.8437 467.6602,-501.9803"/>
<polygon fill="#8b4513" stroke="#8b4513" points="464.4812,-503.4664 471.3214,-511.5572 471.0196,-500.9667 464.4812,-503.4664"/>
</a>
</g>
</g>
<!-- (*github.com/go&#45;i2p/crypto/dsa.DSAVerifier).Verify -->
<g id="node8" class="node">
<title>(*github.com/go&#45;i2p/crypto/dsa.DSAVerifier).Verify</title>
<g id="a_node8"><a xlink:title="(*github.com/go&#45;i2p/crypto/dsa.DSAVerifier).Verify | defined in dsa_verifier.go:17&#10;at dsa_verifier.go:18: calling [(*github.com/go&#45;i2p/logger.Logger).WithFields]&#10;at dsa_verifier.go:23: calling [(*github.com/go&#45;i2p/crypto/dsa.DSAVerifier).VerifyHash]&#10;at dsa_verifier.go:21: calling [(*github.com/sirupsen/logrus.Logger).Debug]">
<path fill="#add8e6" stroke="#000000" stroke-width="1.5" d="M90.5229,-245C90.5229,-245 54.4533,-245 54.4533,-245 48.4533,-245 42.4533,-239 42.4533,-233 42.4533,-233 42.4533,-221 42.4533,-221 42.4533,-215 48.4533,-209 54.4533,-209 54.4533,-209 90.5229,-209 90.5229,-209 96.5229,-209 102.5229,-215 102.5229,-221 102.5229,-221 102.5229,-233 102.5229,-233 102.5229,-239 96.5229,-245 90.5229,-245"/>
<text text-anchor="middle" x="72.4881" y="-222.8" font-family="Verdana" font-size="14.00" fill="#000000">Verify</text>
</a>
</g>
</g>
<!-- (*github.com/go&#45;i2p/crypto/dsa.DSAVerifier).VerifyHash -->
<g id="node9" class="node">
<title>(*github.com/go&#45;i2p/crypto/dsa.DSAVerifier).VerifyHash</title>
<g id="a_node9"><a xlink:title="(*github.com/go&#45;i2p/crypto/dsa.DSAVerifier).VerifyHash | defined in dsa_verifier.go:28&#10;at dsa_verifier.go:29: calling [(*github.com/go&#45;i2p/logger.Logger).WithFields]&#10;at dsa_verifier.go:45: calling [(*github.com/go&#45;i2p/logger.Logger).Error]&#10;at dsa_verifier.go:41: calling [(*github.com/go&#45;i2p/logger.Logger).Warn]&#10;at dsa_verifier.go:32: calling [(*github.com/sirupsen/logrus.Logger).Debug]&#10;at dsa_verifier.go:38: calling [(*github.com/sirupsen/logrus.Logger).Debug]">
<path fill="#add8e6" stroke="#000000" stroke-width="1.5" d="M322.9032,-245C322.9032,-245 257.3046,-245 257.3046,-245 251.3046,-245 245.3046,-239 245.3046,-233 245.3046,-233 245.3046,-221 245.3046,-221 245.3046,-215 251.3046,-209 257.3046,-209 257.3046,-209 322.9032,-209 322.9032,-209 328.9032,-209 334.9032,-215 334.9032,-221 334.9032,-221 334.9032,-233 334.9032,-233 334.9032,-239 328.9032,-245 322.9032,-245"/>
<text text-anchor="middle" x="290.1039" y="-222.8" font-family="Verdana" font-size="14.00" fill="#000000">VerifyHash</text>
</a>
</g>
</g>
<!-- (*github.com/go&#45;i2p/crypto/dsa.DSAVerifier).Verify&#45;&gt;(*github.com/go&#45;i2p/crypto/dsa.DSAVerifier).VerifyHash -->
<g id="edge15" class="edge">
<title>(*github.com/go&#45;i2p/crypto/dsa.DSAVerifier).Verify&#45;&gt;(*github.com/go&#45;i2p/crypto/dsa.DSAVerifier).VerifyHash</title>
<g id="a_edge15"><a xlink:title="at dsa_verifier.go:23: calling [(*github.com/go&#45;i2p/crypto/dsa.DSAVerifier).VerifyHash]">
<path fill="none" stroke="#000000" d="M102.7466,-227C136.9481,-227 193.3204,-227 235.3116,-227"/>
<polygon fill="#000000" stroke="#000000" points="235.3847,-230.5001 245.3847,-227 235.3846,-223.5001 235.3847,-230.5001"/>
</a>
</g>
</g>
<!-- (*github.com/go&#45;i2p/logger.Logger).WithFields -->
<g id="node10" class="node">
<title>(*github.com/go&#45;i2p/logger.Logger).WithFields</title>
<g id="a_node10"><a xlink:title="(*github.com/go&#45;i2p/logger.Logger).WithFields | defined in log.go:60">
<path fill="#ffe4b5" stroke="#000000" stroke-width="1.5" d="M509.6849,-193C509.6849,-193 447.2467,-193 447.2467,-193 441.2467,-193 435.2467,-187 435.2467,-181 435.2467,-181 435.2467,-169 435.2467,-169 435.2467,-163 441.2467,-157 447.2467,-157 447.2467,-157 509.6849,-157 509.6849,-157 515.6849,-157 521.6849,-163 521.6849,-169 521.6849,-169 521.6849,-181 521.6849,-181 521.6849,-187 515.6849,-193 509.6849,-193"/>
<text text-anchor="middle" x="478.4658" y="-179.2" font-family="Verdana" font-size="14.00" fill="#000000">logger</text>
<text text-anchor="middle" x="478.4658" y="-162.4" font-family="Verdana" font-size="14.00" fill="#000000">WithFields</text>
</a>
</g>
</g>
<!-- (*github.com/go&#45;i2p/crypto/dsa.DSAVerifier).Verify&#45;&gt;(*github.com/go&#45;i2p/logger.Logger).WithFields -->
<g id="edge13" class="edge">
<title>(*github.com/go&#45;i2p/crypto/dsa.DSAVerifier).Verify&#45;&gt;(*github.com/go&#45;i2p/logger.Logger).WithFields</title>
<g id="a_edge13"><a xlink:title="at dsa_verifier.go:18: calling [(*github.com/go&#45;i2p/logger.Logger).WithFields]">
<path fill="none" stroke="#8b4513" d="M102.6848,-238.6153C156.5054,-257.5069 271.8545,-289.7464 362.3564,-258 397.2667,-245.7541 397.0324,-227.1931 427.3564,-206 430.9955,-203.4567 434.8456,-200.8977 438.7346,-198.3993"/>
<polygon fill="#8b4513" stroke="#8b4513" points="440.6361,-201.3381 447.2437,-193.0561 436.9136,-195.41 440.6361,-201.3381"/>
</a>
</g>
</g>
<!-- (*github.com/go&#45;i2p/crypto/dsa.DSAVerifier).Verify&#45;&gt;(*github.com/sirupsen/logrus.Logger).Debug -->
<g id="edge25" class="edge">
<title>(*github.com/go&#45;i2p/crypto/dsa.DSAVerifier).Verify&#45;&gt;(*github.com/sirupsen/logrus.Logger).Debug</title>
<g id="a_edge25"><a xlink:title="at dsa_verifier.go:21: calling [(*github.com/sirupsen/logrus.Logger).Debug]">
<path fill="none" stroke="#8b4513" d="M82.438,-245.1467C108.2988,-291.5856 178.359,-412.6515 217.8514,-435 245.8659,-450.8532 334.448,-428.9609 362.3564,-445 387.0453,-459.1889 376.1624,-480.1593 398.3564,-498 409.9096,-507.2871 424.504,-514.1762 438.0611,-519.1335"/>
<polygon fill="#8b4513" stroke="#8b4513" points="437.0966,-522.5023 447.691,-522.4083 439.3504,-515.875 437.0966,-522.5023"/>
</a>
</g>
</g>
<!-- (*github.com/go&#45;i2p/crypto/dsa.DSAVerifier).VerifyHash&#45;&gt;(*github.com/go&#45;i2p/logger.Logger).WithFields -->
<g id="edge7" class="edge">
<title>(*github.com/go&#45;i2p/crypto/dsa.DSAVerifier).VerifyHash&#45;&gt;(*github.com/go&#45;i2p/logger.Logger).WithFields</title>
<g id="a_edge7"><a xlink:title="at dsa_verifier.go:29: calling [(*github.com/go&#45;i2p/logger.Logger).WithFields]">
<path fill="none" stroke="#8b4513" d="M306.7251,-208.7054C326.338,-188.6146 361.0332,-157.5402 398.3564,-145 405.5163,-142.5944 419.6339,-146.8368 434.0497,-152.824"/>
<polygon fill="#8b4513" stroke="#8b4513" points="432.9315,-156.1551 443.4958,-156.9581 435.738,-149.7423 432.9315,-156.1551"/>
</a>
</g>
</g>
<!-- (*github.com/go&#45;i2p/crypto/dsa.DSAVerifier).VerifyHash&#45;&gt;(*github.com/go&#45;i2p/logger.Logger).Error -->
<g id="edge14" class="edge">
<title>(*github.com/go&#45;i2p/crypto/dsa.DSAVerifier).VerifyHash&#45;&gt;(*github.com/go&#45;i2p/logger.Logger).Error</title>
<g id="a_edge14"><a xlink:title="at dsa_verifier.go:45: calling [(*github.com/go&#45;i2p/logger.Logger).Error]">
<path fill="none" stroke="#8b4513" d="M309.0413,-208.8649C335.8396,-184.2191 383.3496,-144.5573 399.3564,-157 439.1859,-187.9612 397.0421,-226.6759 427.3564,-267 430.7955,-271.5746 435.153,-275.5777 439.8676,-279.0415"/>
<polygon fill="#8b4513" stroke="#8b4513" points="438.3204,-282.2091 448.618,-284.7011 442.122,-276.3313 438.3204,-282.2091"/>
</a>
</g>
</g>
<!-- (*github.com/go&#45;i2p/crypto/dsa.DSAVerifier).VerifyHash&#45;&gt;(*github.com/go&#45;i2p/logger.Logger).Warn -->
<g id="edge18" class="edge">
<title>(*github.com/go&#45;i2p/crypto/dsa.DSAVerifier).VerifyHash&#45;&gt;(*github.com/go&#45;i2p/logger.Logger).Warn</title>
<g id="a_edge18"><a xlink:title="at dsa_verifier.go:41: calling [(*github.com/go&#45;i2p/logger.Logger).Warn]">
<path fill="none" stroke="#8b4513" d="M335.122,-236.2492C344.5914,-239.387 354.1789,-243.5372 362.3564,-249 400.1645,-274.2568 392.7731,-298.4814 427.3564,-328 431.2668,-331.3377 435.5979,-334.5155 440.0365,-337.4685"/>
<polygon fill="#8b4513" stroke="#8b4513" points="438.2908,-340.505 448.6222,-342.8533 442.0102,-334.5749 438.2908,-340.505"/>
</a>
</g>
</g>
<!-- (*github.com/go&#45;i2p/crypto/dsa.DSAVerifier).VerifyHash&#45;&gt;(*github.com/sirupsen/logrus.Logger).Debug -->
<g id="edge22" class="edge">
<title>(*github.com/go&#45;i2p/crypto/dsa.DSAVerifier).VerifyHash&#45;&gt;(*github.com/sirupsen/logrus.Logger).Debug</title>
<g id="a_edge22"><a xlink:title="at dsa_verifier.go:32: calling [(*github.com/sirupsen/logrus.Logger).Debug]&#10;at dsa_verifier.go:38: calling [(*github.com/sirupsen/logrus.Logger).Debug]">
<path fill="none" stroke="#8b4513" d="M334.9632,-234.0208C344.8714,-237.2752 354.6877,-242.0361 362.3564,-249 382.2885,-267.1001 444.1994,-434.8333 468.5164,-502.1943"/>
<polygon fill="#8b4513" stroke="#8b4513" points="465.2728,-503.5176 471.9533,-511.7409 471.859,-501.1464 465.2728,-503.5176"/>
</a>
</g>
</g>
<!-- (github.com/go&#45;i2p/crypto/dsa.DSAPrivateKey).NewSigner -->
<g id="node16" class="node">
<title>(github.com/go&#45;i2p/crypto/dsa.DSAPrivateKey).NewSigner</title>
<g id="a_node16"><a xlink:title="(github.com/go&#45;i2p/crypto/dsa.DSAPrivateKey).NewSigner | defined in dsa_private_key.go:12&#10;at dsa_private_key.go:13: calling [(*github.com/sirupsen/logrus.Logger).Debug]&#10;at dsa_private_key.go:15: calling [github.com/go&#45;i2p/crypto/dsa.createDSAPrivkey]">
<path fill="#add8e6" stroke="#000000" stroke-width="1.5" d="M103.9643,-539C103.9643,-539 41.0119,-539 41.0119,-539 35.0119,-539 29.0119,-533 29.0119,-527 29.0119,-527 29.0119,-515 29.0119,-515 29.0119,-509 35.0119,-503 41.0119,-503 41.0119,-503 103.9643,-503 103.9643,-503 109.9643,-503 115.9643,-509 115.9643,-515 115.9643,-515 115.9643,-527 115.9643,-527 115.9643,-533 109.9643,-539 103.9643,-539"/>
<text text-anchor="middle" x="72.4881" y="-516.8" font-family="Verdana" font-size="14.00" fill="#000000">NewSigner</text>
</a>
</g>
</g>
<!-- (github.com/go&#45;i2p/crypto/dsa.DSAPrivateKey).NewSigner&#45;&gt;github.com/go&#45;i2p/crypto/dsa.createDSAPrivkey -->
<g id="edge10" class="edge">
<title>(github.com/go&#45;i2p/crypto/dsa.DSAPrivateKey).NewSigner&#45;&gt;github.com/go&#45;i2p/crypto/dsa.createDSAPrivkey</title>
<g id="a_edge10"><a xlink:title="at dsa_private_key.go:15: calling [github.com/go&#45;i2p/crypto/dsa.createDSAPrivkey]">
<path fill="none" stroke="#000000" d="M116.0029,-519.0004C144.4417,-517.6935 182.3238,-515.9528 215.4884,-514.4288"/>
<polygon fill="#000000" stroke="#000000" points="215.785,-517.9189 225.6137,-513.9635 215.4636,-510.9263 215.785,-517.9189"/>
</a>
</g>
</g>
<!-- (github.com/go&#45;i2p/crypto/dsa.DSAPrivateKey).NewSigner&#45;&gt;(*github.com/sirupsen/logrus.Logger).Debug -->
<g id="edge8" class="edge">
<title>(github.com/go&#45;i2p/crypto/dsa.DSAPrivateKey).NewSigner&#45;&gt;(*github.com/sirupsen/logrus.Logger).Debug</title>
<g id="a_edge8"><a xlink:title="at dsa_private_key.go:13: calling [(*github.com/sirupsen/logrus.Logger).Debug]">
<path fill="none" stroke="#8b4513" d="M113.4546,-539.0444C133.4366,-547.1843 158.0323,-556.243 180.8514,-562 192.6716,-564.9821 386.1926,-590.1927 398.3564,-591 423.2393,-592.6515 445.2664,-573.5202 459.8937,-556.2557"/>
<polygon fill="#8b4513" stroke="#8b4513" points="462.9569,-558.0285 466.46,-548.0296 457.486,-553.6615 462.9569,-558.0285"/>
</a>
</g>
</g>
<!-- (github.com/go&#45;i2p/crypto/dsa.DSAPrivateKey).Generate -->
<g id="node17" class="node">
<title>(github.com/go&#45;i2p/crypto/dsa.DSAPrivateKey).Generate</title>
<g id="a_node17"><a xlink:title="(github.com/go&#45;i2p/crypto/dsa.DSAPrivateKey).Generate | defined in dsa_public_key.go:26&#10;at dsa_public_key.go:35: calling [(*github.com/go&#45;i2p/logger.Logger).WithError]&#10;at dsa_public_key.go:35: calling [(*github.com/go&#45;i2p/logger.Logger).Error]&#10;at dsa_public_key.go:29: calling [github.com/go&#45;i2p/crypto/dsa.generateDSA]&#10;at dsa_public_key.go:27: calling [(*github.com/sirupsen/logrus.Logger).Debug]&#10;at dsa_public_key.go:33: calling [(*github.com/sirupsen/logrus.Logger).Debug]">
<path fill="#add8e6" stroke="#000000" stroke-width="1.5" d="M97.5059,-417C97.5059,-417 47.4703,-417 47.4703,-417 41.4703,-417 35.4703,-411 35.4703,-405 35.4703,-405 35.4703,-393 35.4703,-393 35.4703,-387 41.4703,-381 47.4703,-381 47.4703,-381 97.5059,-381 97.5059,-381 103.5059,-381 109.5059,-387 109.5059,-393 109.5059,-393 109.5059,-405 109.5059,-405 109.5059,-411 103.5059,-417 97.5059,-417"/>
<text text-anchor="middle" x="72.4881" y="-394.8" font-family="Verdana" font-size="14.00" fill="#000000">Generate</text>
</a>
</g>
</g>
<!-- (github.com/go&#45;i2p/crypto/dsa.DSAPrivateKey).Generate&#45;&gt;github.com/go&#45;i2p/crypto/dsa.generateDSA -->
<g id="edge19" class="edge">
<title>(github.com/go&#45;i2p/crypto/dsa.DSAPrivateKey).Generate&#45;&gt;github.com/go&#45;i2p/crypto/dsa.generateDSA</title>
<g id="a_edge19"><a xlink:title="at dsa_public_key.go:29: calling [github.com/go&#45;i2p/crypto/dsa.generateDSA]">
<path fill="none" stroke="#000000" d="M109.8976,-389.2014C142.9176,-380.5524 191.644,-367.7896 230.1061,-357.7152"/>
<polygon fill="#000000" stroke="#000000" points="231.366,-361.0033 240.1528,-355.0837 229.5923,-354.2318 231.366,-361.0033"/>
</a>
</g>
</g>
<!-- (github.com/go&#45;i2p/crypto/dsa.DSAPrivateKey).Generate&#45;&gt;(*github.com/go&#45;i2p/logger.Logger).Error -->
<g id="edge12" class="edge">
<title>(github.com/go&#45;i2p/crypto/dsa.DSAPrivateKey).Generate&#45;&gt;(*github.com/go&#45;i2p/logger.Logger).Error</title>
<g id="a_edge12"><a xlink:title="at dsa_public_key.go:35: calling [(*github.com/go&#45;i2p/logger.Logger).Error]">
<path fill="none" stroke="#8b4513" d="M109.8238,-401.2525C165.7407,-403.6107 274.1004,-404.2323 362.3564,-381 380.0411,-376.3447 385.0728,-374.4193 399.3564,-363 414.916,-350.5606 412.3882,-341.145 427.3564,-328 431.2528,-324.5782 435.5754,-321.3111 440.0093,-318.2687"/>
<polygon fill="#8b4513" stroke="#8b4513" points="442.098,-321.086 448.5903,-312.7134 438.2938,-315.2099 442.098,-321.086"/>
</a>
</g>
</g>
<!-- (github.com/go&#45;i2p/crypto/dsa.DSAPrivateKey).Generate&#45;&gt;(*github.com/go&#45;i2p/logger.Logger).WithError -->
<g id="edge1" class="edge">
<title>(github.com/go&#45;i2p/crypto/dsa.DSAPrivateKey).Generate&#45;&gt;(*github.com/go&#45;i2p/logger.Logger).WithError</title>
<g id="a_edge1"><a xlink:title="at dsa_public_key.go:35: calling [(*github.com/go&#45;i2p/logger.Logger).WithError]">
<path fill="none" stroke="#8b4513" d="M87.258,-380.8455C106.3858,-358.6693 141.9201,-321.7936 180.8514,-303 254.6189,-267.3896 282.669,-289.9648 362.3564,-271 384.0943,-265.8266 407.7645,-258.9271 428.0286,-252.6218"/>
<polygon fill="#8b4513" stroke="#8b4513" points="429.1915,-255.9252 437.6795,-249.5845 427.09,-249.2481 429.1915,-255.9252"/>
</a>
</g>
</g>
<!-- (github.com/go&#45;i2p/crypto/dsa.DSAPrivateKey).Generate&#45;&gt;(*github.com/sirupsen/logrus.Logger).Debug -->
<g id="edge28" class="edge">
<title>(github.com/go&#45;i2p/crypto/dsa.DSAPrivateKey).Generate&#45;&gt;(*github.com/sirupsen/logrus.Logger).Debug</title>
<g id="a_edge28"><a xlink:title="at dsa_public_key.go:27: calling [(*github.com/sirupsen/logrus.Logger).Debug]&#10;at dsa_public_key.go:33: calling [(*github.com/sirupsen/logrus.Logger).Debug]">
<path fill="none" stroke="#8b4513" d="M109.69,-412.9723C138.797,-423.491 180.4668,-437.6482 217.8514,-447 281.0816,-462.8171 304.9045,-441.2182 362.3564,-472 382.8629,-482.9871 378.2665,-498.2684 398.3564,-510 410.2922,-516.97 424.6014,-521.5268 437.8029,-524.4994"/>
<polygon fill="#8b4513" stroke="#8b4513" points="437.1304,-527.9342 447.6246,-526.4776 438.5125,-521.072 437.1304,-527.9342"/>
</a>
</g>
</g>
<!-- (github.com/go&#45;i2p/crypto/dsa.DSAPrivateKey).Public -->
<g id="node18" class="node">
<title>(github.com/go&#45;i2p/crypto/dsa.DSAPrivateKey).Public</title>
<g id="a_node18"><a xlink:title="(github.com/go&#45;i2p/crypto/dsa.DSAPrivateKey).Public | defined in dsa_private_key.go:20&#10;at dsa_private_key.go:27: calling [(*github.com/sirupsen/logrus.Logger).Debug]&#10;at dsa_private_key.go:21: calling [github.com/go&#45;i2p/crypto/dsa.createDSAPrivkey]&#10;at dsa_private_key.go:23: calling [(*github.com/go&#45;i2p/logger.Logger).Error]">
<path fill="#add8e6" stroke="#000000" stroke-width="1.5" d="M90.2669,-478C90.2669,-478 54.7093,-478 54.7093,-478 48.7093,-478 42.7093,-472 42.7093,-466 42.7093,-466 42.7093,-454 42.7093,-454 42.7093,-448 48.7093,-442 54.7093,-442 54.7093,-442 90.2669,-442 90.2669,-442 96.2669,-442 102.2669,-448 102.2669,-454 102.2669,-454 102.2669,-466 102.2669,-466 102.2669,-472 96.2669,-478 90.2669,-478"/>
<text text-anchor="middle" x="72.4881" y="-455.8" font-family="Verdana" font-size="14.00" fill="#000000">Public</text>
</a>
</g>
</g>
<!-- (github.com/go&#45;i2p/crypto/dsa.DSAPrivateKey).Public&#45;&gt;github.com/go&#45;i2p/crypto/dsa.createDSAPrivkey -->
<g id="edge24" class="edge">
<title>(github.com/go&#45;i2p/crypto/dsa.DSAPrivateKey).Public&#45;&gt;github.com/go&#45;i2p/crypto/dsa.createDSAPrivkey</title>
<g id="a_edge24"><a xlink:title="at dsa_private_key.go:21: calling [github.com/go&#45;i2p/crypto/dsa.createDSAPrivkey]">
<path fill="none" stroke="#000000" d="M102.2904,-466.9844C131.2484,-473.771 176.4049,-484.3537 215.1825,-493.4416"/>
<polygon fill="#000000" stroke="#000000" points="214.8744,-496.9641 225.4092,-495.8383 216.4717,-490.1488 214.8744,-496.9641"/>
</a>
</g>
</g>
<!-- (github.com/go&#45;i2p/crypto/dsa.DSAPrivateKey).Public&#45;&gt;(*github.com/go&#45;i2p/logger.Logger).Error -->
<g id="edge30" class="edge">
<title>(github.com/go&#45;i2p/crypto/dsa.DSAPrivateKey).Public&#45;&gt;(*github.com/go&#45;i2p/logger.Logger).Error</title>
<g id="a_edge30"><a xlink:title="at dsa_private_key.go:23: calling [(*github.com/go&#45;i2p/logger.Logger).Error]">
<path fill="none" stroke="#8b4513" d="M102.631,-445.8736C124.0021,-436.4697 153.608,-424.6598 180.8514,-418 259.6872,-398.7282 286.9519,-428.0108 362.3564,-398 381.517,-390.3741 385.2167,-385.0117 399.3564,-370 414.7386,-353.6692 411.1571,-343.5206 427.3564,-328 431.1465,-324.3687 435.4339,-320.9623 439.8743,-317.8335"/>
<polygon fill="#8b4513" stroke="#8b4513" points="442.066,-320.5819 448.5113,-312.173 438.2289,-314.7272 442.066,-320.5819"/>
</a>
</g>
</g>
<!-- (github.com/go&#45;i2p/crypto/dsa.DSAPrivateKey).Public&#45;&gt;(*github.com/sirupsen/logrus.Logger).Debug -->
<g id="edge5" class="edge">
<title>(github.com/go&#45;i2p/crypto/dsa.DSAPrivateKey).Public&#45;&gt;(*github.com/sirupsen/logrus.Logger).Debug</title>
<g id="a_edge5"><a xlink:title="at dsa_private_key.go:27: calling [(*github.com/sirupsen/logrus.Logger).Debug]">
<path fill="none" stroke="#8b4513" d="M102.5011,-470.8267C114.0163,-475.866 126.8185,-482.621 136.9762,-491 162.1846,-511.7941 152.1105,-534.4495 180.8514,-550 216.3913,-569.2291 323.3279,-550.5302 362.3564,-561 380.0191,-565.7382 381.7678,-584.0059 399.3564,-579 416.8565,-574.0193 434.27,-563.9371 448.2861,-554.2062"/>
<polygon fill="#8b4513" stroke="#8b4513" points="450.4871,-556.934 456.5444,-548.2415 446.3885,-551.2594 450.4871,-556.934"/>
</a>
</g>
</g>
<!-- (github.com/go&#45;i2p/crypto/dsa.DSAPublicKey).NewVerifier -->
<g id="node19" class="node">
<title>(github.com/go&#45;i2p/crypto/dsa.DSAPublicKey).NewVerifier</title>
<g id="a_node19"><a xlink:title="(github.com/go&#45;i2p/crypto/dsa.DSAPublicKey).NewVerifier | defined in dsa_public_key.go:18&#10;at dsa_public_key.go:19: calling [(*github.com/sirupsen/logrus.Logger).Debug]&#10;at dsa_public_key.go:21: calling [github.com/go&#45;i2p/crypto/dsa.createDSAPublicKey]">
<path fill="#add8e6" stroke="#000000" stroke-width="1.5" d="M107.7151,-658C107.7151,-658 37.2611,-658 37.2611,-658 31.2611,-658 25.2611,-652 25.2611,-646 25.2611,-646 25.2611,-634 25.2611,-634 25.2611,-628 31.2611,-622 37.2611,-622 37.2611,-622 107.7151,-622 107.7151,-622 113.7151,-622 119.7151,-628 119.7151,-634 119.7151,-634 119.7151,-646 119.7151,-646 119.7151,-652 113.7151,-658 107.7151,-658"/>
<text text-anchor="middle" x="72.4881" y="-635.8" font-family="Verdana" font-size="14.00" fill="#000000">NewVerifier</text>
</a>
</g>
</g>
<!-- (github.com/go&#45;i2p/crypto/dsa.DSAPublicKey).NewVerifier&#45;&gt;github.com/go&#45;i2p/crypto/dsa.createDSAPublicKey -->
<g id="edge32" class="edge">
<title>(github.com/go&#45;i2p/crypto/dsa.DSAPublicKey).NewVerifier&#45;&gt;github.com/go&#45;i2p/crypto/dsa.createDSAPublicKey</title>
<g id="a_edge32"><a xlink:title="at dsa_public_key.go:21: calling [github.com/go&#45;i2p/crypto/dsa.createDSAPublicKey]">
<path fill="none" stroke="#000000" d="M119.9759,-636.9449C145.5943,-635.2968 177.9464,-633.2155 207.5431,-631.3114"/>
<polygon fill="#000000" stroke="#000000" points="208.1267,-634.7812 217.8813,-630.6463 207.6772,-627.7957 208.1267,-634.7812"/>
</a>
</g>
</g>
<!-- (github.com/go&#45;i2p/crypto/dsa.DSAPublicKey).NewVerifier&#45;&gt;(*github.com/sirupsen/logrus.Logger).Debug -->
<g id="edge27" class="edge">
<title>(github.com/go&#45;i2p/crypto/dsa.DSAPublicKey).NewVerifier&#45;&gt;(*github.com/sirupsen/logrus.Logger).Debug</title>
<g id="a_edge27"><a xlink:title="at dsa_public_key.go:19: calling [(*github.com/sirupsen/logrus.Logger).Debug]">
<path fill="none" stroke="#8b4513" d="M116.379,-658.0687C182.5389,-682.2327 309.6076,-716.4307 399.3564,-665 439.3398,-642.0874 461.0708,-590.2606 471.1822,-557.9013"/>
<polygon fill="#8b4513" stroke="#8b4513" points="474.5891,-558.7223 474.0652,-548.1404 467.8758,-556.7394 474.5891,-558.7223"/>
</a>
</g>
</g>
</g>
</svg>
