<?xml version="1.0" encoding="UTF-8" standalone="no"?>
<!DOCTYPE svg PUBLIC "-//W3C//DTD SVG 1.1//EN"
 "http://www.w3.org/Graphics/SVG/1.1/DTD/svg11.dtd">
<!-- Generated by graphviz version 2.40.1 (20161225.0304)
 -->
<!-- Title: gocallvis Pages: 1 -->
<svg width="698pt" height="613pt"
 viewBox="0.00 0.00 697.87 613.00" xmlns="http://www.w3.org/2000/svg" xmlns:xlink="http://www.w3.org/1999/xlink">
<g id="graph0" class="graph" transform="scale(1 1) rotate(0) translate(0 613)">
<title>gocallvis</title>
<polygon fill="#d3d3d3" stroke="transparent" points="0,0 0,-613 697.8712,-613 697.8712,0 0,0"/>
<g id="clust1" class="cluster">
<title>cluster_focus</title>
<polygon fill="#e6ecfa" stroke="#000000" stroke-width=".5" points="8,-8 8,-605 689.8712,-605 689.8712,-8 8,-8"/>
<text text-anchor="middle" x="348.9356" y="-584.8" font-family="Arial" font-size="18.00" fill="#000000">chacha20</text>
</g>
<g id="clust5" class="cluster">
<title>cluster_*github.com/sirupsen/logrus.Logger</title>
<g id="a_clust5"><a xlink:title="type: *github.com/sirupsen/logrus.Logger">
<path fill="#eed8ae" stroke="#000000" stroke-width=".5" d="M393.8185,-348C393.8185,-348 448.1397,-348 448.1397,-348 454.1397,-348 460.1397,-354 460.1397,-360 460.1397,-360 460.1397,-414 460.1397,-414 460.1397,-420 454.1397,-426 448.1397,-426 448.1397,-426 393.8185,-426 393.8185,-426 387.8185,-426 381.8185,-420 381.8185,-414 381.8185,-414 381.8185,-360 381.8185,-360 381.8185,-354 387.8185,-348 393.8185,-348"/>
<text text-anchor="middle" x="420.9791" y="-356.5" font-family="Arial" font-size="15.00" fill="#222222">(*Logger)</text>
</a>
</g>
</g>
<g id="clust4" class="cluster">
<title>cluster_*github.com/go&#45;i2p/logger.Logger</title>
<g id="a_clust4"><a xlink:title="type: *github.com/go&#45;i2p/logger.Logger">
<path fill="#eed8ae" stroke="#000000" stroke-width=".5" d="M383.714,-87C383.714,-87 457.2442,-87 457.2442,-87 463.2442,-87 469.2442,-93 469.2442,-99 469.2442,-99 469.2442,-275 469.2442,-275 469.2442,-281 463.2442,-287 457.2442,-287 457.2442,-287 383.714,-287 383.714,-287 377.714,-287 371.714,-281 371.714,-275 371.714,-275 371.714,-99 371.714,-99 371.714,-93 377.714,-87 383.714,-87"/>
<text text-anchor="middle" x="420.4791" y="-95.5" font-family="Arial" font-size="15.00" fill="#222222">(*Logger)</text>
</a>
</g>
</g>
<g id="clust3" class="cluster">
<title>cluster_*github.com/go&#45;i2p/crypto/chacha20.ChaCha20PolyEncrypter</title>
<g id="a_clust3"><a xlink:title="type: *github.com/go&#45;i2p/crypto/chacha20.ChaCha20PolyEncrypter">
<path fill="#b0c4de" stroke="#000000" stroke-width=".5" d="M28.3843,-348C28.3843,-348 275.8921,-348 275.8921,-348 281.8921,-348 287.8921,-354 287.8921,-360 287.8921,-360 287.8921,-414 287.8921,-414 287.8921,-420 281.8921,-426 275.8921,-426 275.8921,-426 28.3843,-426 28.3843,-426 22.3843,-426 16.3843,-420 16.3843,-414 16.3843,-414 16.3843,-360 16.3843,-360 16.3843,-354 22.3843,-348 28.3843,-348"/>
<text text-anchor="middle" x="152.1382" y="-356.5" font-family="Arial" font-size="15.00" fill="#222222">(*ChaCha20PolyEncrypter)</text>
</a>
</g>
</g>
<g id="clust2" class="cluster">
<title>cluster_*github.com/go&#45;i2p/crypto/chacha20.ChaCha20PolyDecrypter</title>
<g id="a_clust2"><a xlink:title="type: *github.com/go&#45;i2p/crypto/chacha20.ChaCha20PolyDecrypter">
<path fill="#b0c4de" stroke="#000000" stroke-width=".5" d="M28,-178C28,-178 276.2764,-178 276.2764,-178 282.2764,-178 288.2764,-184 288.2764,-190 288.2764,-190 288.2764,-244 288.2764,-244 288.2764,-250 282.2764,-256 276.2764,-256 276.2764,-256 28,-256 28,-256 22,-256 16,-250 16,-244 16,-244 16,-190 16,-190 16,-184 22,-178 28,-178"/>
<text text-anchor="middle" x="152.1382" y="-186.5" font-family="Arial" font-size="15.00" fill="#222222">(*ChaCha20PolyDecrypter)</text>
</a>
</g>
</g>
<!-- golang.org/x/crypto/chacha20poly1305.New -->
<g id="node1" class="node">
<title>golang.org/x/crypto/chacha20poly1305.New</title>
<g id="a_node1"><a xlink:title="golang.org/x/crypto/chacha20poly1305.New | defined in chacha20poly1305.go:40">
<path fill="#ffe4b5" stroke="#000000" stroke-width="1.5" d="M473.2283,-340C473.2283,-340 367.7299,-340 367.7299,-340 361.7299,-340 355.7299,-334 355.7299,-328 355.7299,-328 355.7299,-316 355.7299,-316 355.7299,-310 361.7299,-304 367.7299,-304 367.7299,-304 473.2283,-304 473.2283,-304 479.2283,-304 485.2283,-310 485.2283,-316 485.2283,-316 485.2283,-328 485.2283,-328 485.2283,-334 479.2283,-340 473.2283,-340"/>
<text text-anchor="middle" x="420.4791" y="-326.2" font-family="Verdana" font-size="14.00" fill="#000000">chacha20poly1305</text>
<text text-anchor="middle" x="420.4791" y="-309.4" font-family="Verdana" font-size="14.00" fill="#000000">New</text>
</a>
</g>
</g>
<!-- github.com/samber/oops.Errorf -->
<g id="node2" class="node">
<title>github.com/samber/oops.Errorf</title>
<g id="a_node2"><a xlink:title="github.com/samber/oops.Errorf | defined in oops.go:34">
<path fill="#ffe4b5" stroke="#000000" stroke-width="1.5" d="M638.4718,-462C638.4718,-462 604.0812,-462 604.0812,-462 598.0812,-462 592.0812,-456 592.0812,-450 592.0812,-450 592.0812,-438 592.0812,-438 592.0812,-432 598.0812,-426 604.0812,-426 604.0812,-426 638.4718,-426 638.4718,-426 644.4718,-426 650.4718,-432 650.4718,-438 650.4718,-438 650.4718,-450 650.4718,-450 650.4718,-456 644.4718,-462 638.4718,-462"/>
<text text-anchor="middle" x="621.2765" y="-448.2" font-family="Verdana" font-size="14.00" fill="#000000">oops</text>
<text text-anchor="middle" x="621.2765" y="-431.4" font-family="Verdana" font-size="14.00" fill="#000000">Errorf</text>
</a>
</g>
</g>
<!-- github.com/go&#45;i2p/crypto/chacha20.NewRandomNonce -->
<g id="node3" class="node">
<title>github.com/go&#45;i2p/crypto/chacha20.NewRandomNonce</title>
<g id="a_node3"><a xlink:title="github.com/go&#45;i2p/crypto/chacha20.NewRandomNonce | defined in utils.go:13&#10;at utils.go:17: calling [github.com/samber/oops.Errorf]">
<path fill="#add8e6" stroke="#000000" stroke-width="1.5" d="M475.8851,-506C475.8851,-506 365.0731,-506 365.0731,-506 359.0731,-506 353.0731,-500 353.0731,-494 353.0731,-494 353.0731,-482 353.0731,-482 353.0731,-476 359.0731,-470 365.0731,-470 365.0731,-470 475.8851,-470 475.8851,-470 481.8851,-470 487.8851,-476 487.8851,-482 487.8851,-482 487.8851,-494 487.8851,-494 487.8851,-500 481.8851,-506 475.8851,-506"/>
<text text-anchor="middle" x="420.4791" y="-483.8" font-family="Verdana" font-size="14.00" fill="#000000">NewRandomNonce</text>
</a>
</g>
</g>
<!-- github.com/go&#45;i2p/crypto/chacha20.NewRandomNonce&#45;&gt;github.com/samber/oops.Errorf -->
<g id="edge6" class="edge">
<title>github.com/go&#45;i2p/crypto/chacha20.NewRandomNonce&#45;&gt;github.com/samber/oops.Errorf</title>
<g id="a_edge6"><a xlink:title="at utils.go:17: calling [github.com/samber/oops.Errorf]">
<path fill="none" stroke="#8b4513" d="M487.9003,-473.2262C519.1812,-466.3718 555.2667,-458.4645 582.009,-452.6045"/>
<polygon fill="#8b4513" stroke="#8b4513" points="583.1126,-455.9458 592.1317,-450.3864 581.6142,-449.1081 583.1126,-455.9458"/>
</a>
</g>
</g>
<!-- github.com/go&#45;i2p/crypto/chacha20.init -->
<g id="node4" class="node">
<title>github.com/go&#45;i2p/crypto/chacha20.init</title>
<g id="a_node4"><a xlink:title="github.com/go&#45;i2p/crypto/chacha20.init | defined in .:0&#10;at constants.go:10: calling [github.com/go&#45;i2p/logger.GetGoI2PLogger]&#10;at constants.go:23: calling [github.com/samber/oops.Errorf]&#10;at constants.go:24: calling [github.com/samber/oops.Errorf]&#10;at constants.go:25: calling [github.com/samber/oops.Errorf]&#10;at constants.go:26: calling [github.com/samber/oops.Errorf]&#10;at constants.go:27: calling [github.com/samber/oops.Errorf]">
<path fill="#add8e6" stroke="#000000" stroke-width=".5" d="M435.4791,-52C435.4791,-52 405.4791,-52 405.4791,-52 399.4791,-52 393.4791,-46 393.4791,-40 393.4791,-40 393.4791,-28 393.4791,-28 393.4791,-22 399.4791,-16 405.4791,-16 405.4791,-16 435.4791,-16 435.4791,-16 441.4791,-16 447.4791,-22 447.4791,-28 447.4791,-28 447.4791,-40 447.4791,-40 447.4791,-46 441.4791,-52 435.4791,-52"/>
<text text-anchor="middle" x="420.4791" y="-29.8" font-family="Verdana" font-size="14.00" fill="#000000">init</text>
</a>
</g>
</g>
<!-- github.com/go&#45;i2p/crypto/chacha20.init&#45;&gt;github.com/samber/oops.Errorf -->
<g id="edge4" class="edge">
<title>github.com/go&#45;i2p/crypto/chacha20.init&#45;&gt;github.com/samber/oops.Errorf</title>
<g id="a_edge4"><a xlink:title="at constants.go:23: calling [github.com/samber/oops.Errorf]&#10;at constants.go:24: calling [github.com/samber/oops.Errorf]&#10;at constants.go:25: calling [github.com/samber/oops.Errorf]&#10;at constants.go:26: calling [github.com/samber/oops.Errorf]&#10;at constants.go:27: calling [github.com/samber/oops.Errorf]">
<path fill="none" stroke="#8b4513" d="M447.8765,-36.6298C471.4982,-40.354 504.8441,-49.3395 524.6818,-71 571.823,-122.4727 606.2957,-337.8888 617.4282,-415.7594"/>
<polygon fill="#8b4513" stroke="#8b4513" points="613.9822,-416.389 618.843,-425.803 620.9138,-415.4125 613.9822,-416.389"/>
</a>
</g>
</g>
<!-- github.com/go&#45;i2p/logger.GetGoI2PLogger -->
<g id="node5" class="node">
<title>github.com/go&#45;i2p/logger.GetGoI2PLogger</title>
<g id="a_node5"><a xlink:title="github.com/go&#45;i2p/logger.GetGoI2PLogger | defined in log.go:120">
<path fill="#ffe4b5" stroke="#000000" stroke-width="1.5" d="M669.966,-52C669.966,-52 572.587,-52 572.587,-52 566.587,-52 560.587,-46 560.587,-40 560.587,-40 560.587,-28 560.587,-28 560.587,-22 566.587,-16 572.587,-16 572.587,-16 669.966,-16 669.966,-16 675.966,-16 681.966,-22 681.966,-28 681.966,-28 681.966,-40 681.966,-40 681.966,-46 675.966,-52 669.966,-52"/>
<text text-anchor="middle" x="621.2765" y="-38.2" font-family="Verdana" font-size="14.00" fill="#000000">logger</text>
<text text-anchor="middle" x="621.2765" y="-21.4" font-family="Verdana" font-size="14.00" fill="#000000">GetGoI2PLogger</text>
</a>
</g>
</g>
<!-- github.com/go&#45;i2p/crypto/chacha20.init&#45;&gt;github.com/go&#45;i2p/logger.GetGoI2PLogger -->
<g id="edge3" class="edge">
<title>github.com/go&#45;i2p/crypto/chacha20.init&#45;&gt;github.com/go&#45;i2p/logger.GetGoI2PLogger</title>
<g id="a_edge3"><a xlink:title="at constants.go:10: calling [github.com/go&#45;i2p/logger.GetGoI2PLogger]">
<path fill="none" stroke="#8b4513" d="M447.5595,-34C473.7686,-34 514.6346,-34 550.1471,-34"/>
<polygon fill="#8b4513" stroke="#8b4513" points="550.4879,-37.5001 560.4879,-34 550.4878,-30.5001 550.4879,-37.5001"/>
</a>
</g>
</g>
<!-- github.com/go&#45;i2p/crypto/chacha20.GenerateKey -->
<g id="node6" class="node">
<title>github.com/go&#45;i2p/crypto/chacha20.GenerateKey</title>
<g id="a_node6"><a xlink:title="github.com/go&#45;i2p/crypto/chacha20.GenerateKey | defined in chacha20_key.go:12&#10;at chacha20_key.go:16: calling [github.com/samber/oops.Errorf]">
<path fill="#add8e6" stroke="#000000" stroke-width="1.5" d="M457.3166,-567C457.3166,-567 383.6416,-567 383.6416,-567 377.6416,-567 371.6416,-561 371.6416,-555 371.6416,-555 371.6416,-543 371.6416,-543 371.6416,-537 377.6416,-531 383.6416,-531 383.6416,-531 457.3166,-531 457.3166,-531 463.3166,-531 469.3166,-537 469.3166,-543 469.3166,-543 469.3166,-555 469.3166,-555 469.3166,-561 463.3166,-567 457.3166,-567"/>
<text text-anchor="middle" x="420.4791" y="-544.8" font-family="Verdana" font-size="14.00" fill="#000000">GenerateKey</text>
</a>
</g>
</g>
<!-- github.com/go&#45;i2p/crypto/chacha20.GenerateKey&#45;&gt;github.com/samber/oops.Errorf -->
<g id="edge5" class="edge">
<title>github.com/go&#45;i2p/crypto/chacha20.GenerateKey&#45;&gt;github.com/samber/oops.Errorf</title>
<g id="a_edge5"><a xlink:title="at chacha20_key.go:16: calling [github.com/samber/oops.Errorf]">
<path fill="none" stroke="#8b4513" d="M462.7001,-530.863C471.0448,-527.0792 479.6905,-523.0163 487.6818,-519 520.4211,-502.5459 556.6103,-482.0825 583.0561,-466.6894"/>
<polygon fill="#8b4513" stroke="#8b4513" points="585.1158,-469.5396 591.9823,-461.471 581.5829,-463.4965 585.1158,-469.5396"/>
</a>
</g>
</g>
<!-- (*github.com/go&#45;i2p/crypto/chacha20.ChaCha20PolyDecrypter).DecryptWithAd -->
<g id="node7" class="node">
<title>(*github.com/go&#45;i2p/crypto/chacha20.ChaCha20PolyDecrypter).DecryptWithAd</title>
<g id="a_node7"><a xlink:title="(*github.com/go&#45;i2p/crypto/chacha20.ChaCha20PolyDecrypter).DecryptWithAd | defined in chacha20_decrypter.go:20&#10;at chacha20_decrypter.go:21: calling [(*github.com/go&#45;i2p/logger.Logger).WithField]&#10;at chacha20_decrypter.go:45: calling [(*github.com/go&#45;i2p/logger.Logger).WithField]&#10;at chacha20_decrypter.go:29: calling [golang.org/x/crypto/chacha20poly1305.New]&#10;at chacha20_decrypter.go:41: calling [(*github.com/go&#45;i2p/logger.Logger).WithError]&#10;at chacha20_decrypter.go:25: calling [github.com/samber/oops.Errorf]&#10;at chacha20_decrypter.go:31: calling [github.com/samber/oops.Errorf]&#10;at chacha20_decrypter.go:41: calling [(*github.com/go&#45;i2p/logger.Logger).Error]&#10;at chacha20_decrypter.go:21: calling [(*github.com/sirupsen/logrus.Logger).Debug]&#10;at chacha20_decrypter.go:45: calling [(*github.com/sirupsen/logrus.Logger).Debug]">
<path fill="#add8e6" stroke="#000000" stroke-width="1.5" d="M268.3713,-248C268.3713,-248 177.9921,-248 177.9921,-248 171.9921,-248 165.9921,-242 165.9921,-236 165.9921,-236 165.9921,-224 165.9921,-224 165.9921,-218 171.9921,-212 177.9921,-212 177.9921,-212 268.3713,-212 268.3713,-212 274.3713,-212 280.3713,-218 280.3713,-224 280.3713,-224 280.3713,-236 280.3713,-236 280.3713,-242 274.3713,-248 268.3713,-248"/>
<text text-anchor="middle" x="223.1817" y="-225.8" font-family="Verdana" font-size="14.00" fill="#000000">DecryptWithAd</text>
</a>
</g>
</g>
<!-- (*github.com/go&#45;i2p/crypto/chacha20.ChaCha20PolyDecrypter).DecryptWithAd&#45;&gt;golang.org/x/crypto/chacha20poly1305.New -->
<g id="edge7" class="edge">
<title>(*github.com/go&#45;i2p/crypto/chacha20.ChaCha20PolyDecrypter).DecryptWithAd&#45;&gt;golang.org/x/crypto/chacha20poly1305.New</title>
<g id="a_edge7"><a xlink:title="at chacha20_decrypter.go:29: calling [golang.org/x/crypto/chacha20poly1305.New]">
<path fill="none" stroke="#8b4513" d="M259.4306,-248.078C285.4172,-260.9093 321.33,-278.3802 353.2764,-293 358.1871,-295.2473 363.3195,-297.5477 368.4646,-299.8217"/>
<polygon fill="#8b4513" stroke="#8b4513" points="367.1307,-303.0584 377.6945,-303.869 369.9418,-296.6476 367.1307,-303.0584"/>
</a>
</g>
</g>
<!-- (*github.com/go&#45;i2p/crypto/chacha20.ChaCha20PolyDecrypter).DecryptWithAd&#45;&gt;github.com/samber/oops.Errorf -->
<g id="edge15" class="edge">
<title>(*github.com/go&#45;i2p/crypto/chacha20.ChaCha20PolyDecrypter).DecryptWithAd&#45;&gt;github.com/samber/oops.Errorf</title>
<g id="a_edge15"><a xlink:title="at chacha20_decrypter.go:25: calling [github.com/samber/oops.Errorf]&#10;at chacha20_decrypter.go:31: calling [github.com/samber/oops.Errorf]">
<path fill="none" stroke="#8b4513" d="M232.4632,-211.8113C250.4932,-178.7622 293.7701,-109.8001 353.2764,-83 380.5097,-70.7348 463.1695,-65.9343 487.6818,-83 544.908,-122.8415 597.6104,-337.6152 615.1371,-415.6456"/>
<polygon fill="#8b4513" stroke="#8b4513" points="611.7887,-416.7127 617.3735,-425.7161 618.6222,-415.1951 611.7887,-416.7127"/>
</a>
</g>
</g>
<!-- (*github.com/go&#45;i2p/logger.Logger).WithField -->
<g id="node11" class="node">
<title>(*github.com/go&#45;i2p/logger.Logger).WithField</title>
<g id="a_node11"><a xlink:title="(*github.com/go&#45;i2p/logger.Logger).WithField | defined in log.go:54">
<path fill="#ffe4b5" stroke="#000000" stroke-width="1.5" d="M448.7536,-279C448.7536,-279 392.2046,-279 392.2046,-279 386.2046,-279 380.2046,-273 380.2046,-267 380.2046,-267 380.2046,-255 380.2046,-255 380.2046,-249 386.2046,-243 392.2046,-243 392.2046,-243 448.7536,-243 448.7536,-243 454.7536,-243 460.7536,-249 460.7536,-255 460.7536,-255 460.7536,-267 460.7536,-267 460.7536,-273 454.7536,-279 448.7536,-279"/>
<text text-anchor="middle" x="420.4791" y="-265.2" font-family="Verdana" font-size="14.00" fill="#000000">logger</text>
<text text-anchor="middle" x="420.4791" y="-248.4" font-family="Verdana" font-size="14.00" fill="#000000">WithField</text>
</a>
</g>
</g>
<!-- (*github.com/go&#45;i2p/crypto/chacha20.ChaCha20PolyDecrypter).DecryptWithAd&#45;&gt;(*github.com/go&#45;i2p/logger.Logger).WithField -->
<g id="edge2" class="edge">
<title>(*github.com/go&#45;i2p/crypto/chacha20.ChaCha20PolyDecrypter).DecryptWithAd&#45;&gt;(*github.com/go&#45;i2p/logger.Logger).WithField</title>
<g id="a_edge2"><a xlink:title="at chacha20_decrypter.go:21: calling [(*github.com/go&#45;i2p/logger.Logger).WithField]&#10;at chacha20_decrypter.go:45: calling [(*github.com/go&#45;i2p/logger.Logger).WithField]">
<path fill="none" stroke="#8b4513" d="M280.5133,-239.0081C308.7614,-243.4466 342.5263,-248.7518 369.815,-253.0395"/>
<polygon fill="#8b4513" stroke="#8b4513" points="369.5094,-256.5343 379.9315,-254.629 370.596,-249.6192 369.5094,-256.5343"/>
</a>
</g>
</g>
<!-- (*github.com/go&#45;i2p/logger.Logger).WithError -->
<g id="node12" class="node">
<title>(*github.com/go&#45;i2p/logger.Logger).WithError</title>
<g id="a_node12"><a xlink:title="(*github.com/go&#45;i2p/logger.Logger).WithError | defined in log.go:66">
<path fill="#ffe4b5" stroke="#000000" stroke-width="1.5" d="M449.0106,-157C449.0106,-157 391.9476,-157 391.9476,-157 385.9476,-157 379.9476,-151 379.9476,-145 379.9476,-145 379.9476,-133 379.9476,-133 379.9476,-127 385.9476,-121 391.9476,-121 391.9476,-121 449.0106,-121 449.0106,-121 455.0106,-121 461.0106,-127 461.0106,-133 461.0106,-133 461.0106,-145 461.0106,-145 461.0106,-151 455.0106,-157 449.0106,-157"/>
<text text-anchor="middle" x="420.4791" y="-143.2" font-family="Verdana" font-size="14.00" fill="#000000">logger</text>
<text text-anchor="middle" x="420.4791" y="-126.4" font-family="Verdana" font-size="14.00" fill="#000000">WithError</text>
</a>
</g>
</g>
<!-- (*github.com/go&#45;i2p/crypto/chacha20.ChaCha20PolyDecrypter).DecryptWithAd&#45;&gt;(*github.com/go&#45;i2p/logger.Logger).WithError -->
<g id="edge8" class="edge">
<title>(*github.com/go&#45;i2p/crypto/chacha20.ChaCha20PolyDecrypter).DecryptWithAd&#45;&gt;(*github.com/go&#45;i2p/logger.Logger).WithError</title>
<g id="a_edge8"><a xlink:title="at chacha20_decrypter.go:41: calling [(*github.com/go&#45;i2p/logger.Logger).WithError]">
<path fill="none" stroke="#8b4513" d="M262.6336,-211.8035C294.1901,-197.2486 338.5711,-176.7786 372.2397,-161.2496"/>
<polygon fill="#8b4513" stroke="#8b4513" points="373.8175,-164.3763 381.4323,-157.0097 370.8857,-158.0198 373.8175,-164.3763"/>
</a>
</g>
</g>
<!-- (*github.com/go&#45;i2p/logger.Logger).Error -->
<g id="node13" class="node">
<title>(*github.com/go&#45;i2p/logger.Logger).Error</title>
<g id="a_node13"><a xlink:title="(*github.com/go&#45;i2p/logger.Logger).Error | defined in log.go:42">
<path fill="#ffe4b5" stroke="#000000" stroke-width="1.5" d="M438.2454,-218C438.2454,-218 402.7128,-218 402.7128,-218 396.7128,-218 390.7128,-212 390.7128,-206 390.7128,-206 390.7128,-194 390.7128,-194 390.7128,-188 396.7128,-182 402.7128,-182 402.7128,-182 438.2454,-182 438.2454,-182 444.2454,-182 450.2454,-188 450.2454,-194 450.2454,-194 450.2454,-206 450.2454,-206 450.2454,-212 444.2454,-218 438.2454,-218"/>
<text text-anchor="middle" x="420.4791" y="-204.2" font-family="Verdana" font-size="14.00" fill="#000000">logger</text>
<text text-anchor="middle" x="420.4791" y="-187.4" font-family="Verdana" font-size="14.00" fill="#000000">Error</text>
</a>
</g>
</g>
<!-- (*github.com/go&#45;i2p/crypto/chacha20.ChaCha20PolyDecrypter).DecryptWithAd&#45;&gt;(*github.com/go&#45;i2p/logger.Logger).Error -->
<g id="edge16" class="edge">
<title>(*github.com/go&#45;i2p/crypto/chacha20.ChaCha20PolyDecrypter).DecryptWithAd&#45;&gt;(*github.com/go&#45;i2p/logger.Logger).Error</title>
<g id="a_edge16"><a xlink:title="at chacha20_decrypter.go:41: calling [(*github.com/go&#45;i2p/logger.Logger).Error]">
<path fill="none" stroke="#8b4513" d="M280.5133,-221.2825C312.5337,-216.4136 351.6428,-210.4669 380.3725,-206.0984"/>
<polygon fill="#8b4513" stroke="#8b4513" points="381.095,-209.5289 390.4552,-204.5653 380.0427,-202.6084 381.095,-209.5289"/>
</a>
</g>
</g>
<!-- (*github.com/sirupsen/logrus.Logger).Debug -->
<g id="node14" class="node">
<title>(*github.com/sirupsen/logrus.Logger).Debug</title>
<g id="a_node14"><a xlink:title="(*github.com/sirupsen/logrus.Logger).Debug | defined in logger.go:221">
<path fill="#ffe4b5" stroke="#000000" stroke-width="1.5" d="M439.3011,-418C439.3011,-418 401.6571,-418 401.6571,-418 395.6571,-418 389.6571,-412 389.6571,-406 389.6571,-406 389.6571,-394 389.6571,-394 389.6571,-388 395.6571,-382 401.6571,-382 401.6571,-382 439.3011,-382 439.3011,-382 445.3011,-382 451.3011,-388 451.3011,-394 451.3011,-394 451.3011,-406 451.3011,-406 451.3011,-412 445.3011,-418 439.3011,-418"/>
<text text-anchor="middle" x="420.4791" y="-404.2" font-family="Verdana" font-size="14.00" fill="#000000">logrus</text>
<text text-anchor="middle" x="420.4791" y="-387.4" font-family="Verdana" font-size="14.00" fill="#000000">Debug</text>
</a>
</g>
</g>
<!-- (*github.com/go&#45;i2p/crypto/chacha20.ChaCha20PolyDecrypter).DecryptWithAd&#45;&gt;(*github.com/sirupsen/logrus.Logger).Debug -->
<g id="edge17" class="edge">
<title>(*github.com/go&#45;i2p/crypto/chacha20.ChaCha20PolyDecrypter).DecryptWithAd&#45;&gt;(*github.com/sirupsen/logrus.Logger).Debug</title>
<g id="a_edge17"><a xlink:title="at chacha20_decrypter.go:21: calling [(*github.com/sirupsen/logrus.Logger).Debug]&#10;at chacha20_decrypter.go:45: calling [(*github.com/sirupsen/logrus.Logger).Debug]">
<path fill="none" stroke="#8b4513" d="M234.4779,-248.2846C254.5927,-279.3715 299.5866,-342.5909 353.2764,-378 361.2541,-383.2614 370.5938,-387.3572 379.7297,-390.5098"/>
<polygon fill="#8b4513" stroke="#8b4513" points="378.8998,-393.9176 389.489,-393.5711 380.9949,-387.2385 378.8998,-393.9176"/>
</a>
</g>
</g>
<!-- (*github.com/go&#45;i2p/crypto/chacha20.ChaCha20PolyDecrypter).Decrypt -->
<g id="node8" class="node">
<title>(*github.com/go&#45;i2p/crypto/chacha20.ChaCha20PolyDecrypter).Decrypt</title>
<g id="a_node8"><a xlink:title="(*github.com/go&#45;i2p/crypto/chacha20.ChaCha20PolyDecrypter).Decrypt | defined in chacha20_decrypter.go:15&#10;at chacha20_decrypter.go:16: calling [(*github.com/go&#45;i2p/crypto/chacha20.ChaCha20PolyDecrypter).DecryptWithAd]">
<path fill="#add8e6" stroke="#000000" stroke-width="1.5" d="M81.1306,-248C81.1306,-248 35.9564,-248 35.9564,-248 29.9564,-248 23.9564,-242 23.9564,-236 23.9564,-236 23.9564,-224 23.9564,-224 23.9564,-218 29.9564,-212 35.9564,-212 35.9564,-212 81.1306,-212 81.1306,-212 87.1306,-212 93.1306,-218 93.1306,-224 93.1306,-224 93.1306,-236 93.1306,-236 93.1306,-242 87.1306,-248 81.1306,-248"/>
<text text-anchor="middle" x="58.5435" y="-225.8" font-family="Verdana" font-size="14.00" fill="#000000">Decrypt</text>
</a>
</g>
</g>
<!-- (*github.com/go&#45;i2p/crypto/chacha20.ChaCha20PolyDecrypter).Decrypt&#45;&gt;(*github.com/go&#45;i2p/crypto/chacha20.ChaCha20PolyDecrypter).DecryptWithAd -->
<g id="edge10" class="edge">
<title>(*github.com/go&#45;i2p/crypto/chacha20.ChaCha20PolyDecrypter).Decrypt&#45;&gt;(*github.com/go&#45;i2p/crypto/chacha20.ChaCha20PolyDecrypter).DecryptWithAd</title>
<g id="a_edge10"><a xlink:title="at chacha20_decrypter.go:16: calling [(*github.com/go&#45;i2p/crypto/chacha20.ChaCha20PolyDecrypter).DecryptWithAd]">
<path fill="none" stroke="#000000" d="M93.459,-230C111.6303,-230 134.4765,-230 155.913,-230"/>
<polygon fill="#000000" stroke="#000000" points="155.9675,-233.5001 165.9675,-230 155.9675,-226.5001 155.9675,-233.5001"/>
</a>
</g>
</g>
<!-- (*github.com/go&#45;i2p/crypto/chacha20.ChaCha20PolyEncrypter).EncryptWithAd -->
<g id="node9" class="node">
<title>(*github.com/go&#45;i2p/crypto/chacha20.ChaCha20PolyEncrypter).EncryptWithAd</title>
<g id="a_node9"><a xlink:title="(*github.com/go&#45;i2p/crypto/chacha20.ChaCha20PolyEncrypter).EncryptWithAd | defined in chacha20_encrypter.go:21&#10;at chacha20_encrypter.go:25: calling [golang.org/x/crypto/chacha20poly1305.New]&#10;at chacha20_encrypter.go:22: calling [(*github.com/go&#45;i2p/logger.Logger).WithField]&#10;at chacha20_encrypter.go:44: calling [(*github.com/go&#45;i2p/logger.Logger).WithField]&#10;at chacha20_encrypter.go:22: calling [(*github.com/sirupsen/logrus.Logger).Debug]&#10;at chacha20_encrypter.go:44: calling [(*github.com/sirupsen/logrus.Logger).Debug]&#10;at chacha20_encrypter.go:27: calling [github.com/samber/oops.Errorf]&#10;at chacha20_encrypter.go:31: calling [github.com/go&#45;i2p/crypto/chacha20.NewRandomNonce]">
<path fill="#add8e6" stroke="#000000" stroke-width="1.5" d="M268.1033,-418C268.1033,-418 178.2601,-418 178.2601,-418 172.2601,-418 166.2601,-412 166.2601,-406 166.2601,-406 166.2601,-394 166.2601,-394 166.2601,-388 172.2601,-382 178.2601,-382 178.2601,-382 268.1033,-382 268.1033,-382 274.1033,-382 280.1033,-388 280.1033,-394 280.1033,-394 280.1033,-406 280.1033,-406 280.1033,-412 274.1033,-418 268.1033,-418"/>
<text text-anchor="middle" x="223.1817" y="-395.8" font-family="Verdana" font-size="14.00" fill="#000000">EncryptWithAd</text>
</a>
</g>
</g>
<!-- (*github.com/go&#45;i2p/crypto/chacha20.ChaCha20PolyEncrypter).EncryptWithAd&#45;&gt;golang.org/x/crypto/chacha20poly1305.New -->
<g id="edge1" class="edge">
<title>(*github.com/go&#45;i2p/crypto/chacha20.ChaCha20PolyEncrypter).EncryptWithAd&#45;&gt;golang.org/x/crypto/chacha20poly1305.New</title>
<g id="a_edge1"><a xlink:title="at chacha20_encrypter.go:25: calling [golang.org/x/crypto/chacha20poly1305.New]">
<path fill="none" stroke="#8b4513" d="M262.6592,-381.9058C288.2558,-370.4485 322.4553,-355.6514 353.2764,-344 353.5994,-343.8779 353.9233,-343.7558 354.2483,-343.6338"/>
<polygon fill="#8b4513" stroke="#8b4513" points="355.6881,-346.8343 363.8834,-340.1195 353.2894,-340.2581 355.6881,-346.8343"/>
</a>
</g>
</g>
<!-- (*github.com/go&#45;i2p/crypto/chacha20.ChaCha20PolyEncrypter).EncryptWithAd&#45;&gt;github.com/samber/oops.Errorf -->
<g id="edge13" class="edge">
<title>(*github.com/go&#45;i2p/crypto/chacha20.ChaCha20PolyEncrypter).EncryptWithAd&#45;&gt;github.com/samber/oops.Errorf</title>
<g id="a_edge13"><a xlink:title="at chacha20_encrypter.go:27: calling [github.com/samber/oops.Errorf]">
<path fill="none" stroke="#8b4513" d="M280.0206,-416.5503C302.6245,-422.4545 328.9884,-428.5038 353.2764,-432 433.9258,-443.6094 529.5066,-444.9556 581.9462,-444.6442"/>
<polygon fill="#8b4513" stroke="#8b4513" points="582.1808,-448.1425 592.1512,-444.5591 582.1223,-441.1427 582.1808,-448.1425"/>
</a>
</g>
</g>
<!-- (*github.com/go&#45;i2p/crypto/chacha20.ChaCha20PolyEncrypter).EncryptWithAd&#45;&gt;github.com/go&#45;i2p/crypto/chacha20.NewRandomNonce -->
<g id="edge14" class="edge">
<title>(*github.com/go&#45;i2p/crypto/chacha20.ChaCha20PolyEncrypter).EncryptWithAd&#45;&gt;github.com/go&#45;i2p/crypto/chacha20.NewRandomNonce</title>
<g id="a_edge14"><a xlink:title="at chacha20_encrypter.go:31: calling [github.com/go&#45;i2p/crypto/chacha20.NewRandomNonce]">
<path fill="none" stroke="#000000" d="M253.1653,-418.0251C271.1118,-428.4066 294.581,-441.2807 316.2764,-451 328.4922,-456.4726 341.7839,-461.7089 354.6591,-466.4316"/>
<polygon fill="#000000" stroke="#000000" points="353.8046,-469.8439 364.399,-469.9385 356.176,-463.2578 353.8046,-469.8439"/>
</a>
</g>
</g>
<!-- (*github.com/go&#45;i2p/crypto/chacha20.ChaCha20PolyEncrypter).EncryptWithAd&#45;&gt;(*github.com/go&#45;i2p/logger.Logger).WithField -->
<g id="edge11" class="edge">
<title>(*github.com/go&#45;i2p/crypto/chacha20.ChaCha20PolyEncrypter).EncryptWithAd&#45;&gt;(*github.com/go&#45;i2p/logger.Logger).WithField</title>
<g id="a_edge11"><a xlink:title="at chacha20_encrypter.go:22: calling [(*github.com/go&#45;i2p/logger.Logger).WithField]&#10;at chacha20_encrypter.go:44: calling [(*github.com/go&#45;i2p/logger.Logger).WithField]">
<path fill="none" stroke="#8b4513" d="M239.0189,-381.5738C261.8598,-356.0624 306.4726,-310.073 353.2764,-283 358.6462,-279.8939 364.5145,-277.1569 370.4752,-274.7642"/>
<polygon fill="#8b4513" stroke="#8b4513" points="371.7007,-278.0428 379.8599,-271.2842 369.2669,-271.4795 371.7007,-278.0428"/>
</a>
</g>
</g>
<!-- (*github.com/go&#45;i2p/crypto/chacha20.ChaCha20PolyEncrypter).EncryptWithAd&#45;&gt;(*github.com/sirupsen/logrus.Logger).Debug -->
<g id="edge12" class="edge">
<title>(*github.com/go&#45;i2p/crypto/chacha20.ChaCha20PolyEncrypter).EncryptWithAd&#45;&gt;(*github.com/sirupsen/logrus.Logger).Debug</title>
<g id="a_edge12"><a xlink:title="at chacha20_encrypter.go:22: calling [(*github.com/sirupsen/logrus.Logger).Debug]&#10;at chacha20_encrypter.go:44: calling [(*github.com/sirupsen/logrus.Logger).Debug]">
<path fill="none" stroke="#8b4513" d="M279.9836,-400C311.8194,-400 350.7927,-400 379.6087,-400"/>
<polygon fill="#8b4513" stroke="#8b4513" points="379.7335,-403.5001 389.7335,-400 379.7334,-396.5001 379.7335,-403.5001"/>
</a>
</g>
</g>
<!-- (*github.com/go&#45;i2p/crypto/chacha20.ChaCha20PolyEncrypter).Encrypt -->
<g id="node10" class="node">
<title>(*github.com/go&#45;i2p/crypto/chacha20.ChaCha20PolyEncrypter).Encrypt</title>
<g id="a_node10"><a xlink:title="(*github.com/go&#45;i2p/crypto/chacha20.ChaCha20PolyEncrypter).Encrypt | defined in chacha20_encrypter.go:15&#10;at chacha20_encrypter.go:16: calling [(*github.com/go&#45;i2p/crypto/chacha20.ChaCha20PolyEncrypter).EncryptWithAd]">
<path fill="#add8e6" stroke="#000000" stroke-width="1.5" d="M80.8626,-418C80.8626,-418 36.2244,-418 36.2244,-418 30.2244,-418 24.2244,-412 24.2244,-406 24.2244,-406 24.2244,-394 24.2244,-394 24.2244,-388 30.2244,-382 36.2244,-382 36.2244,-382 80.8626,-382 80.8626,-382 86.8626,-382 92.8626,-388 92.8626,-394 92.8626,-394 92.8626,-406 92.8626,-406 92.8626,-412 86.8626,-418 80.8626,-418"/>
<text text-anchor="middle" x="58.5435" y="-395.8" font-family="Verdana" font-size="14.00" fill="#000000">Encrypt</text>
</a>
</g>
</g>
<!-- (*github.com/go&#45;i2p/crypto/chacha20.ChaCha20PolyEncrypter).Encrypt&#45;&gt;(*github.com/go&#45;i2p/crypto/chacha20.ChaCha20PolyEncrypter).EncryptWithAd -->
<g id="edge9" class="edge">
<title>(*github.com/go&#45;i2p/crypto/chacha20.ChaCha20PolyEncrypter).Encrypt&#45;&gt;(*github.com/go&#45;i2p/crypto/chacha20.ChaCha20PolyEncrypter).EncryptWithAd</title>
<g id="a_edge9"><a xlink:title="at chacha20_encrypter.go:16: calling [(*github.com/go&#45;i2p/crypto/chacha20.ChaCha20PolyEncrypter).EncryptWithAd]">
<path fill="none" stroke="#000000" d="M93.0571,-400C111.3721,-400 134.5186,-400 156.1948,-400"/>
<polygon fill="#000000" stroke="#000000" points="156.3578,-403.5001 166.3578,-400 156.3578,-396.5001 156.3578,-403.5001"/>
</a>
</g>
</g>
</g>
</svg>
