<?xml version="1.0" encoding="UTF-8" standalone="no"?>
<!DOCTYPE svg PUBLIC "-//W3C//DTD SVG 1.1//EN"
 "http://www.w3.org/Graphics/SVG/1.1/DTD/svg11.dtd">
<!-- Generated by graphviz version 2.40.1 (20161225.0304)
 -->
<!-- Title: gocallvis Pages: 1 -->
<svg width="698pt" height="621pt"
 viewBox="0.00 0.00 697.87 621.00" xmlns="http://www.w3.org/2000/svg" xmlns:xlink="http://www.w3.org/1999/xlink">
<g id="graph0" class="graph" transform="scale(1 1) rotate(0) translate(0 621)">
<title>gocallvis</title>
<polygon fill="#d3d3d3" stroke="transparent" points="0,0 0,-621 697.8712,-621 697.8712,0 0,0"/>
<g id="clust1" class="cluster">
<title>cluster_focus</title>
<polygon fill="#e6ecfa" stroke="#000000" stroke-width=".5" points="8,-8 8,-613 689.8712,-613 689.8712,-8 8,-8"/>
<text text-anchor="middle" x="348.9356" y="-592.8" font-family="Arial" font-size="18.00" fill="#000000">chacha20</text>
</g>
<g id="clust5" class="cluster">
<title>cluster_*github.com/sirupsen/logrus.Logger</title>
<g id="a_clust5"><a xlink:title="type: *github.com/sirupsen/logrus.Logger">
<path fill="#eed8ae" stroke="#000000" stroke-width=".5" d="M393.8185,-209C393.8185,-209 448.1397,-209 448.1397,-209 454.1397,-209 460.1397,-215 460.1397,-221 460.1397,-221 460.1397,-275 460.1397,-275 460.1397,-281 454.1397,-287 448.1397,-287 448.1397,-287 393.8185,-287 393.8185,-287 387.8185,-287 381.8185,-281 381.8185,-275 381.8185,-275 381.8185,-221 381.8185,-221 381.8185,-215 387.8185,-209 393.8185,-209"/>
<text text-anchor="middle" x="420.9791" y="-217.5" font-family="Arial" font-size="15.00" fill="#222222">(*Logger)</text>
</a>
</g>
</g>
<g id="clust4" class="cluster">
<title>cluster_*github.com/go&#45;i2p/logger.Logger</title>
<g id="a_clust4"><a xlink:title="type: *github.com/go&#45;i2p/logger.Logger">
<path fill="#eed8ae" stroke="#000000" stroke-width=".5" d="M383.714,-295C383.714,-295 457.2442,-295 457.2442,-295 463.2442,-295 469.2442,-301 469.2442,-307 469.2442,-307 469.2442,-483 469.2442,-483 469.2442,-489 463.2442,-495 457.2442,-495 457.2442,-495 383.714,-495 383.714,-495 377.714,-495 371.714,-489 371.714,-483 371.714,-483 371.714,-307 371.714,-307 371.714,-301 377.714,-295 383.714,-295"/>
<text text-anchor="middle" x="420.4791" y="-303.5" font-family="Arial" font-size="15.00" fill="#222222">(*Logger)</text>
</a>
</g>
</g>
<g id="clust3" class="cluster">
<title>cluster_*github.com/go&#45;i2p/crypto/chacha20.ChaCha20PolyEncrypter</title>
<g id="a_clust3"><a xlink:title="type: *github.com/go&#45;i2p/crypto/chacha20.ChaCha20PolyEncrypter">
<path fill="#b0c4de" stroke="#000000" stroke-width=".5" d="M28.3843,-131C28.3843,-131 275.8921,-131 275.8921,-131 281.8921,-131 287.8921,-137 287.8921,-143 287.8921,-143 287.8921,-197 287.8921,-197 287.8921,-203 281.8921,-209 275.8921,-209 275.8921,-209 28.3843,-209 28.3843,-209 22.3843,-209 16.3843,-203 16.3843,-197 16.3843,-197 16.3843,-143 16.3843,-143 16.3843,-137 22.3843,-131 28.3843,-131"/>
<text text-anchor="middle" x="152.1382" y="-139.5" font-family="Arial" font-size="15.00" fill="#222222">(*ChaCha20PolyEncrypter)</text>
</a>
</g>
</g>
<g id="clust2" class="cluster">
<title>cluster_*github.com/go&#45;i2p/crypto/chacha20.ChaCha20PolyDecrypter</title>
<g id="a_clust2"><a xlink:title="type: *github.com/go&#45;i2p/crypto/chacha20.ChaCha20PolyDecrypter">
<path fill="#b0c4de" stroke="#000000" stroke-width=".5" d="M28,-325C28,-325 276.2764,-325 276.2764,-325 282.2764,-325 288.2764,-331 288.2764,-337 288.2764,-337 288.2764,-391 288.2764,-391 288.2764,-397 282.2764,-403 276.2764,-403 276.2764,-403 28,-403 28,-403 22,-403 16,-397 16,-391 16,-391 16,-337 16,-337 16,-331 22,-325 28,-325"/>
<text text-anchor="middle" x="152.1382" y="-333.5" font-family="Arial" font-size="15.00" fill="#222222">(*ChaCha20PolyDecrypter)</text>
</a>
</g>
</g>
<!-- github.com/go&#45;i2p/crypto/chacha20.GenerateKey -->
<g id="node1" class="node">
<title>github.com/go&#45;i2p/crypto/chacha20.GenerateKey</title>
<g id="a_node1"><a xlink:title="github.com/go&#45;i2p/crypto/chacha20.GenerateKey | defined in chacha20_key.go:10&#10;at chacha20_key.go:12: calling [github.com/go&#45;i2p/crypto/rand.Read]&#10;at chacha20_key.go:14: calling [github.com/samber/oops.Errorf]">
<path fill="#add8e6" stroke="#000000" stroke-width="1.5" d="M457.3166,-52C457.3166,-52 383.6416,-52 383.6416,-52 377.6416,-52 371.6416,-46 371.6416,-40 371.6416,-40 371.6416,-28 371.6416,-28 371.6416,-22 377.6416,-16 383.6416,-16 383.6416,-16 457.3166,-16 457.3166,-16 463.3166,-16 469.3166,-22 469.3166,-28 469.3166,-28 469.3166,-40 469.3166,-40 469.3166,-46 463.3166,-52 457.3166,-52"/>
<text text-anchor="middle" x="420.4791" y="-29.8" font-family="Verdana" font-size="14.00" fill="#000000">GenerateKey</text>
</a>
</g>
</g>
<!-- github.com/go&#45;i2p/crypto/rand.Read -->
<g id="node2" class="node">
<title>github.com/go&#45;i2p/crypto/rand.Read</title>
<g id="a_node2"><a xlink:title="github.com/go&#45;i2p/crypto/rand.Read | defined in secure_reader.go:150">
<path fill="#ffe4b5" stroke="#000000" stroke-width="1.5" d="M636.2765,-64C636.2765,-64 606.2765,-64 606.2765,-64 600.2765,-64 594.2765,-58 594.2765,-52 594.2765,-52 594.2765,-40 594.2765,-40 594.2765,-34 600.2765,-28 606.2765,-28 606.2765,-28 636.2765,-28 636.2765,-28 642.2765,-28 648.2765,-34 648.2765,-40 648.2765,-40 648.2765,-52 648.2765,-52 648.2765,-58 642.2765,-64 636.2765,-64"/>
<text text-anchor="middle" x="621.2765" y="-50.2" font-family="Verdana" font-size="14.00" fill="#000000">rand</text>
<text text-anchor="middle" x="621.2765" y="-33.4" font-family="Verdana" font-size="14.00" fill="#000000">Read</text>
</a>
</g>
</g>
<!-- github.com/go&#45;i2p/crypto/chacha20.GenerateKey&#45;&gt;github.com/go&#45;i2p/crypto/rand.Read -->
<g id="edge1" class="edge">
<title>github.com/go&#45;i2p/crypto/chacha20.GenerateKey&#45;&gt;github.com/go&#45;i2p/crypto/rand.Read</title>
<g id="a_edge1"><a xlink:title="at chacha20_key.go:12: calling [github.com/go&#45;i2p/crypto/rand.Read]">
<path fill="none" stroke="#8b4513" d="M469.3429,-36.9202C504.5953,-39.0269 551.4776,-41.8287 583.7932,-43.7599"/>
<polygon fill="#8b4513" stroke="#8b4513" points="583.9651,-47.2764 594.1561,-44.3792 584.3828,-40.2888 583.9651,-47.2764"/>
</a>
</g>
</g>
<!-- github.com/samber/oops.Errorf -->
<g id="node3" class="node">
<title>github.com/samber/oops.Errorf</title>
<g id="a_node3"><a xlink:title="github.com/samber/oops.Errorf | defined in oops.go:34">
<path fill="#ffe4b5" stroke="#000000" stroke-width="1.5" d="M638.4718,-157C638.4718,-157 604.0812,-157 604.0812,-157 598.0812,-157 592.0812,-151 592.0812,-145 592.0812,-145 592.0812,-133 592.0812,-133 592.0812,-127 598.0812,-121 604.0812,-121 604.0812,-121 638.4718,-121 638.4718,-121 644.4718,-121 650.4718,-127 650.4718,-133 650.4718,-133 650.4718,-145 650.4718,-145 650.4718,-151 644.4718,-157 638.4718,-157"/>
<text text-anchor="middle" x="621.2765" y="-143.2" font-family="Verdana" font-size="14.00" fill="#000000">oops</text>
<text text-anchor="middle" x="621.2765" y="-126.4" font-family="Verdana" font-size="14.00" fill="#000000">Errorf</text>
</a>
</g>
</g>
<!-- github.com/go&#45;i2p/crypto/chacha20.GenerateKey&#45;&gt;github.com/samber/oops.Errorf -->
<g id="edge8" class="edge">
<title>github.com/go&#45;i2p/crypto/chacha20.GenerateKey&#45;&gt;github.com/samber/oops.Errorf</title>
<g id="a_edge8"><a xlink:title="at chacha20_key.go:14: calling [github.com/samber/oops.Errorf]">
<path fill="none" stroke="#8b4513" d="M462.7001,-52.137C471.0448,-55.9208 479.6905,-59.9837 487.6818,-64 520.4211,-80.4541 556.6103,-100.9175 583.0561,-116.3106"/>
<polygon fill="#8b4513" stroke="#8b4513" points="581.5829,-119.5035 591.9823,-121.529 585.1158,-113.4604 581.5829,-119.5035"/>
</a>
</g>
</g>
<!-- golang.org/x/crypto/chacha20poly1305.New -->
<g id="node4" class="node">
<title>golang.org/x/crypto/chacha20poly1305.New</title>
<g id="a_node4"><a xlink:title="golang.org/x/crypto/chacha20poly1305.New | defined in chacha20poly1305.go:40">
<path fill="#ffe4b5" stroke="#000000" stroke-width="1.5" d="M473.2283,-201C473.2283,-201 367.7299,-201 367.7299,-201 361.7299,-201 355.7299,-195 355.7299,-189 355.7299,-189 355.7299,-177 355.7299,-177 355.7299,-171 361.7299,-165 367.7299,-165 367.7299,-165 473.2283,-165 473.2283,-165 479.2283,-165 485.2283,-171 485.2283,-177 485.2283,-177 485.2283,-189 485.2283,-189 485.2283,-195 479.2283,-201 473.2283,-201"/>
<text text-anchor="middle" x="420.4791" y="-187.2" font-family="Verdana" font-size="14.00" fill="#000000">chacha20poly1305</text>
<text text-anchor="middle" x="420.4791" y="-170.4" font-family="Verdana" font-size="14.00" fill="#000000">New</text>
</a>
</g>
</g>
<!-- github.com/go&#45;i2p/crypto/chacha20.NewRandomNonce -->
<g id="node5" class="node">
<title>github.com/go&#45;i2p/crypto/chacha20.NewRandomNonce</title>
<g id="a_node5"><a xlink:title="github.com/go&#45;i2p/crypto/chacha20.NewRandomNonce | defined in utils.go:11&#10;at utils.go:13: calling [github.com/go&#45;i2p/crypto/rand.Read]&#10;at utils.go:15: calling [github.com/samber/oops.Errorf]">
<path fill="#add8e6" stroke="#000000" stroke-width="1.5" d="M475.8851,-113C475.8851,-113 365.0731,-113 365.0731,-113 359.0731,-113 353.0731,-107 353.0731,-101 353.0731,-101 353.0731,-89 353.0731,-89 353.0731,-83 359.0731,-77 365.0731,-77 365.0731,-77 475.8851,-77 475.8851,-77 481.8851,-77 487.8851,-83 487.8851,-89 487.8851,-89 487.8851,-101 487.8851,-101 487.8851,-107 481.8851,-113 475.8851,-113"/>
<text text-anchor="middle" x="420.4791" y="-90.8" font-family="Verdana" font-size="14.00" fill="#000000">NewRandomNonce</text>
</a>
</g>
</g>
<!-- github.com/go&#45;i2p/crypto/chacha20.NewRandomNonce&#45;&gt;github.com/go&#45;i2p/crypto/rand.Read -->
<g id="edge5" class="edge">
<title>github.com/go&#45;i2p/crypto/chacha20.NewRandomNonce&#45;&gt;github.com/go&#45;i2p/crypto/rand.Read</title>
<g id="a_edge5"><a xlink:title="at utils.go:13: calling [github.com/go&#45;i2p/crypto/rand.Read]">
<path fill="none" stroke="#8b4513" d="M487.9003,-78.5474C520.1278,-70.683 557.4551,-61.5741 584.4108,-54.9962"/>
<polygon fill="#8b4513" stroke="#8b4513" points="585.3166,-58.378 594.2018,-52.607 583.6571,-51.5775 585.3166,-58.378"/>
</a>
</g>
</g>
<!-- github.com/go&#45;i2p/crypto/chacha20.NewRandomNonce&#45;&gt;github.com/samber/oops.Errorf -->
<g id="edge10" class="edge">
<title>github.com/go&#45;i2p/crypto/chacha20.NewRandomNonce&#45;&gt;github.com/samber/oops.Errorf</title>
<g id="a_edge10"><a xlink:title="at utils.go:15: calling [github.com/samber/oops.Errorf]">
<path fill="none" stroke="#8b4513" d="M487.9003,-109.7738C519.1812,-116.6282 555.2667,-124.5355 582.009,-130.3955"/>
<polygon fill="#8b4513" stroke="#8b4513" points="581.6142,-133.8919 592.1317,-132.6136 583.1126,-127.0542 581.6142,-133.8919"/>
</a>
</g>
</g>
<!-- github.com/go&#45;i2p/crypto/chacha20.init -->
<g id="node6" class="node">
<title>github.com/go&#45;i2p/crypto/chacha20.init</title>
<g id="a_node6"><a xlink:title="github.com/go&#45;i2p/crypto/chacha20.init | defined in .:0&#10;at constants.go:10: calling [github.com/go&#45;i2p/logger.GetGoI2PLogger]&#10;at constants.go:23: calling [github.com/samber/oops.Errorf]&#10;at constants.go:24: calling [github.com/samber/oops.Errorf]&#10;at constants.go:25: calling [github.com/samber/oops.Errorf]&#10;at constants.go:26: calling [github.com/samber/oops.Errorf]&#10;at constants.go:27: calling [github.com/samber/oops.Errorf]">
<path fill="#add8e6" stroke="#000000" stroke-width=".5" d="M435.4791,-575C435.4791,-575 405.4791,-575 405.4791,-575 399.4791,-575 393.4791,-569 393.4791,-563 393.4791,-563 393.4791,-551 393.4791,-551 393.4791,-545 399.4791,-539 405.4791,-539 405.4791,-539 435.4791,-539 435.4791,-539 441.4791,-539 447.4791,-545 447.4791,-551 447.4791,-551 447.4791,-563 447.4791,-563 447.4791,-569 441.4791,-575 435.4791,-575"/>
<text text-anchor="middle" x="420.4791" y="-552.8" font-family="Verdana" font-size="14.00" fill="#000000">init</text>
</a>
</g>
</g>
<!-- github.com/go&#45;i2p/crypto/chacha20.init&#45;&gt;github.com/samber/oops.Errorf -->
<g id="edge12" class="edge">
<title>github.com/go&#45;i2p/crypto/chacha20.init&#45;&gt;github.com/samber/oops.Errorf</title>
<g id="a_edge12"><a xlink:title="at constants.go:23: calling [github.com/samber/oops.Errorf]&#10;at constants.go:24: calling [github.com/samber/oops.Errorf]&#10;at constants.go:25: calling [github.com/samber/oops.Errorf]&#10;at constants.go:26: calling [github.com/samber/oops.Errorf]&#10;at constants.go:27: calling [github.com/samber/oops.Errorf]">
<path fill="none" stroke="#8b4513" d="M447.9033,-554.3948C471.5427,-550.6867 504.8994,-541.711 524.6818,-520 572.7468,-467.2491 606.7519,-246.3594 617.5862,-167.2971"/>
<polygon fill="#8b4513" stroke="#8b4513" points="621.0914,-167.4928 618.9602,-157.1146 614.1543,-166.5567 621.0914,-167.4928"/>
</a>
</g>
</g>
<!-- github.com/go&#45;i2p/logger.GetGoI2PLogger -->
<g id="node7" class="node">
<title>github.com/go&#45;i2p/logger.GetGoI2PLogger</title>
<g id="a_node7"><a xlink:title="github.com/go&#45;i2p/logger.GetGoI2PLogger | defined in log.go:120">
<path fill="#ffe4b5" stroke="#000000" stroke-width="1.5" d="M669.966,-575C669.966,-575 572.587,-575 572.587,-575 566.587,-575 560.587,-569 560.587,-563 560.587,-563 560.587,-551 560.587,-551 560.587,-545 566.587,-539 572.587,-539 572.587,-539 669.966,-539 669.966,-539 675.966,-539 681.966,-545 681.966,-551 681.966,-551 681.966,-563 681.966,-563 681.966,-569 675.966,-575 669.966,-575"/>
<text text-anchor="middle" x="621.2765" y="-561.2" font-family="Verdana" font-size="14.00" fill="#000000">logger</text>
<text text-anchor="middle" x="621.2765" y="-544.4" font-family="Verdana" font-size="14.00" fill="#000000">GetGoI2PLogger</text>
</a>
</g>
</g>
<!-- github.com/go&#45;i2p/crypto/chacha20.init&#45;&gt;github.com/go&#45;i2p/logger.GetGoI2PLogger -->
<g id="edge11" class="edge">
<title>github.com/go&#45;i2p/crypto/chacha20.init&#45;&gt;github.com/go&#45;i2p/logger.GetGoI2PLogger</title>
<g id="a_edge11"><a xlink:title="at constants.go:10: calling [github.com/go&#45;i2p/logger.GetGoI2PLogger]">
<path fill="none" stroke="#8b4513" d="M447.5595,-557C473.7686,-557 514.6346,-557 550.1471,-557"/>
<polygon fill="#8b4513" stroke="#8b4513" points="550.4879,-560.5001 560.4879,-557 550.4878,-553.5001 550.4879,-560.5001"/>
</a>
</g>
</g>
<!-- (*github.com/go&#45;i2p/crypto/chacha20.ChaCha20PolyDecrypter).DecryptWithAd -->
<g id="node8" class="node">
<title>(*github.com/go&#45;i2p/crypto/chacha20.ChaCha20PolyDecrypter).DecryptWithAd</title>
<g id="a_node8"><a xlink:title="(*github.com/go&#45;i2p/crypto/chacha20.ChaCha20PolyDecrypter).DecryptWithAd | defined in chacha20_decrypter.go:20&#10;at chacha20_decrypter.go:21: calling [(*github.com/sirupsen/logrus.Logger).Debug]&#10;at chacha20_decrypter.go:45: calling [(*github.com/sirupsen/logrus.Logger).Debug]&#10;at chacha20_decrypter.go:25: calling [github.com/samber/oops.Errorf]&#10;at chacha20_decrypter.go:31: calling [github.com/samber/oops.Errorf]&#10;at chacha20_decrypter.go:41: calling [(*github.com/go&#45;i2p/logger.Logger).Error]&#10;at chacha20_decrypter.go:21: calling [(*github.com/go&#45;i2p/logger.Logger).WithField]&#10;at chacha20_decrypter.go:45: calling [(*github.com/go&#45;i2p/logger.Logger).WithField]&#10;at chacha20_decrypter.go:29: calling [golang.org/x/crypto/chacha20poly1305.New]&#10;at chacha20_decrypter.go:41: calling [(*github.com/go&#45;i2p/logger.Logger).WithError]">
<path fill="#add8e6" stroke="#000000" stroke-width="1.5" d="M268.3713,-395C268.3713,-395 177.9921,-395 177.9921,-395 171.9921,-395 165.9921,-389 165.9921,-383 165.9921,-383 165.9921,-371 165.9921,-371 165.9921,-365 171.9921,-359 177.9921,-359 177.9921,-359 268.3713,-359 268.3713,-359 274.3713,-359 280.3713,-365 280.3713,-371 280.3713,-371 280.3713,-383 280.3713,-383 280.3713,-389 274.3713,-395 268.3713,-395"/>
<text text-anchor="middle" x="223.1817" y="-372.8" font-family="Verdana" font-size="14.00" fill="#000000">DecryptWithAd</text>
</a>
</g>
</g>
<!-- (*github.com/go&#45;i2p/crypto/chacha20.ChaCha20PolyDecrypter).DecryptWithAd&#45;&gt;github.com/samber/oops.Errorf -->
<g id="edge3" class="edge">
<title>(*github.com/go&#45;i2p/crypto/chacha20.ChaCha20PolyDecrypter).DecryptWithAd&#45;&gt;github.com/samber/oops.Errorf</title>
<g id="a_edge3"><a xlink:title="at chacha20_decrypter.go:25: calling [github.com/samber/oops.Errorf]&#10;at chacha20_decrypter.go:31: calling [github.com/samber/oops.Errorf]">
<path fill="none" stroke="#8b4513" d="M235.285,-395.3739C255.6106,-424.3458 299.6855,-479.5511 353.2764,-501 408.7352,-523.1965 438.6726,-535.1534 487.6818,-501 545.0295,-461.0356 597.6553,-245.6749 615.1495,-167.4316"/>
<polygon fill="#8b4513" stroke="#8b4513" points="618.6407,-167.8535 617.3817,-157.3337 611.8057,-166.3425 618.6407,-167.8535"/>
</a>
</g>
</g>
<!-- (*github.com/go&#45;i2p/crypto/chacha20.ChaCha20PolyDecrypter).DecryptWithAd&#45;&gt;golang.org/x/crypto/chacha20poly1305.New -->
<g id="edge14" class="edge">
<title>(*github.com/go&#45;i2p/crypto/chacha20.ChaCha20PolyDecrypter).DecryptWithAd&#45;&gt;golang.org/x/crypto/chacha20poly1305.New</title>
<g id="a_edge14"><a xlink:title="at chacha20_decrypter.go:29: calling [golang.org/x/crypto/chacha20poly1305.New]">
<path fill="none" stroke="#8b4513" d="M232.1132,-358.7749C249.3801,-325.3182 290.5585,-253.6002 350.962,-207.254"/>
<polygon fill="#8b4513" stroke="#8b4513" points="353.2416,-209.9219 359.2138,-201.1707 349.0878,-204.2875 353.2416,-209.9219"/>
</a>
</g>
</g>
<!-- (*github.com/go&#45;i2p/logger.Logger).WithField -->
<g id="node12" class="node">
<title>(*github.com/go&#45;i2p/logger.Logger).WithField</title>
<g id="a_node12"><a xlink:title="(*github.com/go&#45;i2p/logger.Logger).WithField | defined in log.go:54">
<path fill="#ffe4b5" stroke="#000000" stroke-width="1.5" d="M448.7536,-365C448.7536,-365 392.2046,-365 392.2046,-365 386.2046,-365 380.2046,-359 380.2046,-353 380.2046,-353 380.2046,-341 380.2046,-341 380.2046,-335 386.2046,-329 392.2046,-329 392.2046,-329 448.7536,-329 448.7536,-329 454.7536,-329 460.7536,-335 460.7536,-341 460.7536,-341 460.7536,-353 460.7536,-353 460.7536,-359 454.7536,-365 448.7536,-365"/>
<text text-anchor="middle" x="420.4791" y="-351.2" font-family="Verdana" font-size="14.00" fill="#000000">logger</text>
<text text-anchor="middle" x="420.4791" y="-334.4" font-family="Verdana" font-size="14.00" fill="#000000">WithField</text>
</a>
</g>
</g>
<!-- (*github.com/go&#45;i2p/crypto/chacha20.ChaCha20PolyDecrypter).DecryptWithAd&#45;&gt;(*github.com/go&#45;i2p/logger.Logger).WithField -->
<g id="edge13" class="edge">
<title>(*github.com/go&#45;i2p/crypto/chacha20.ChaCha20PolyDecrypter).DecryptWithAd&#45;&gt;(*github.com/go&#45;i2p/logger.Logger).WithField</title>
<g id="a_edge13"><a xlink:title="at chacha20_decrypter.go:21: calling [(*github.com/go&#45;i2p/logger.Logger).WithField]&#10;at chacha20_decrypter.go:45: calling [(*github.com/go&#45;i2p/logger.Logger).WithField]">
<path fill="none" stroke="#8b4513" d="M280.5133,-368.2825C308.7614,-363.9872 342.5263,-358.8531 369.815,-354.7037"/>
<polygon fill="#8b4513" stroke="#8b4513" points="370.5713,-358.129 379.9315,-353.1655 369.519,-351.2086 370.5713,-358.129"/>
</a>
</g>
</g>
<!-- (*github.com/go&#45;i2p/logger.Logger).WithError -->
<g id="node13" class="node">
<title>(*github.com/go&#45;i2p/logger.Logger).WithError</title>
<g id="a_node13"><a xlink:title="(*github.com/go&#45;i2p/logger.Logger).WithError | defined in log.go:66">
<path fill="#ffe4b5" stroke="#000000" stroke-width="1.5" d="M449.0106,-426C449.0106,-426 391.9476,-426 391.9476,-426 385.9476,-426 379.9476,-420 379.9476,-414 379.9476,-414 379.9476,-402 379.9476,-402 379.9476,-396 385.9476,-390 391.9476,-390 391.9476,-390 449.0106,-390 449.0106,-390 455.0106,-390 461.0106,-396 461.0106,-402 461.0106,-402 461.0106,-414 461.0106,-414 461.0106,-420 455.0106,-426 449.0106,-426"/>
<text text-anchor="middle" x="420.4791" y="-412.2" font-family="Verdana" font-size="14.00" fill="#000000">logger</text>
<text text-anchor="middle" x="420.4791" y="-395.4" font-family="Verdana" font-size="14.00" fill="#000000">WithError</text>
</a>
</g>
</g>
<!-- (*github.com/go&#45;i2p/crypto/chacha20.ChaCha20PolyDecrypter).DecryptWithAd&#45;&gt;(*github.com/go&#45;i2p/logger.Logger).WithError -->
<g id="edge15" class="edge">
<title>(*github.com/go&#45;i2p/crypto/chacha20.ChaCha20PolyDecrypter).DecryptWithAd&#45;&gt;(*github.com/go&#45;i2p/logger.Logger).WithError</title>
<g id="a_edge15"><a xlink:title="at chacha20_decrypter.go:41: calling [(*github.com/go&#45;i2p/logger.Logger).WithError]">
<path fill="none" stroke="#8b4513" d="M280.5133,-386.0081C308.7614,-390.4466 342.5263,-395.7518 369.815,-400.0395"/>
<polygon fill="#8b4513" stroke="#8b4513" points="369.5094,-403.5343 379.9315,-401.629 370.596,-396.6192 369.5094,-403.5343"/>
</a>
</g>
</g>
<!-- (*github.com/go&#45;i2p/logger.Logger).Error -->
<g id="node14" class="node">
<title>(*github.com/go&#45;i2p/logger.Logger).Error</title>
<g id="a_node14"><a xlink:title="(*github.com/go&#45;i2p/logger.Logger).Error | defined in log.go:42">
<path fill="#ffe4b5" stroke="#000000" stroke-width="1.5" d="M438.2454,-487C438.2454,-487 402.7128,-487 402.7128,-487 396.7128,-487 390.7128,-481 390.7128,-475 390.7128,-475 390.7128,-463 390.7128,-463 390.7128,-457 396.7128,-451 402.7128,-451 402.7128,-451 438.2454,-451 438.2454,-451 444.2454,-451 450.2454,-457 450.2454,-463 450.2454,-463 450.2454,-475 450.2454,-475 450.2454,-481 444.2454,-487 438.2454,-487"/>
<text text-anchor="middle" x="420.4791" y="-473.2" font-family="Verdana" font-size="14.00" fill="#000000">logger</text>
<text text-anchor="middle" x="420.4791" y="-456.4" font-family="Verdana" font-size="14.00" fill="#000000">Error</text>
</a>
</g>
</g>
<!-- (*github.com/go&#45;i2p/crypto/chacha20.ChaCha20PolyDecrypter).DecryptWithAd&#45;&gt;(*github.com/go&#45;i2p/logger.Logger).Error -->
<g id="edge6" class="edge">
<title>(*github.com/go&#45;i2p/crypto/chacha20.ChaCha20PolyDecrypter).DecryptWithAd&#45;&gt;(*github.com/go&#45;i2p/logger.Logger).Error</title>
<g id="a_edge6"><a xlink:title="at chacha20_decrypter.go:41: calling [(*github.com/go&#45;i2p/logger.Logger).Error]">
<path fill="none" stroke="#8b4513" d="M260.3576,-395.0188C286.3146,-407.5258 321.812,-424.4821 353.2764,-439 362.3174,-443.1716 372.0815,-447.5834 381.2906,-451.7026"/>
<polygon fill="#8b4513" stroke="#8b4513" points="380.0744,-454.9924 390.6331,-455.8671 382.9244,-448.5989 380.0744,-454.9924"/>
</a>
</g>
</g>
<!-- (*github.com/sirupsen/logrus.Logger).Debug -->
<g id="node15" class="node">
<title>(*github.com/sirupsen/logrus.Logger).Debug</title>
<g id="a_node15"><a xlink:title="(*github.com/sirupsen/logrus.Logger).Debug | defined in logger.go:221">
<path fill="#ffe4b5" stroke="#000000" stroke-width="1.5" d="M439.3011,-279C439.3011,-279 401.6571,-279 401.6571,-279 395.6571,-279 389.6571,-273 389.6571,-267 389.6571,-267 389.6571,-255 389.6571,-255 389.6571,-249 395.6571,-243 401.6571,-243 401.6571,-243 439.3011,-243 439.3011,-243 445.3011,-243 451.3011,-249 451.3011,-255 451.3011,-255 451.3011,-267 451.3011,-267 451.3011,-273 445.3011,-279 439.3011,-279"/>
<text text-anchor="middle" x="420.4791" y="-265.2" font-family="Verdana" font-size="14.00" fill="#000000">logrus</text>
<text text-anchor="middle" x="420.4791" y="-248.4" font-family="Verdana" font-size="14.00" fill="#000000">Debug</text>
</a>
</g>
</g>
<!-- (*github.com/go&#45;i2p/crypto/chacha20.ChaCha20PolyDecrypter).DecryptWithAd&#45;&gt;(*github.com/sirupsen/logrus.Logger).Debug -->
<g id="edge2" class="edge">
<title>(*github.com/go&#45;i2p/crypto/chacha20.ChaCha20PolyDecrypter).DecryptWithAd&#45;&gt;(*github.com/sirupsen/logrus.Logger).Debug</title>
<g id="a_edge2"><a xlink:title="at chacha20_decrypter.go:21: calling [(*github.com/sirupsen/logrus.Logger).Debug]&#10;at chacha20_decrypter.go:45: calling [(*github.com/sirupsen/logrus.Logger).Debug]">
<path fill="none" stroke="#8b4513" d="M246.7273,-358.9525C272.1139,-340.0094 314.1597,-310.1039 353.2764,-289 361.8625,-284.3677 371.3804,-279.9833 380.4876,-276.1185"/>
<polygon fill="#8b4513" stroke="#8b4513" points="381.8621,-279.3376 389.7733,-272.2903 379.1941,-272.866 381.8621,-279.3376"/>
</a>
</g>
</g>
<!-- (*github.com/go&#45;i2p/crypto/chacha20.ChaCha20PolyDecrypter).Decrypt -->
<g id="node9" class="node">
<title>(*github.com/go&#45;i2p/crypto/chacha20.ChaCha20PolyDecrypter).Decrypt</title>
<g id="a_node9"><a xlink:title="(*github.com/go&#45;i2p/crypto/chacha20.ChaCha20PolyDecrypter).Decrypt | defined in chacha20_decrypter.go:15&#10;at chacha20_decrypter.go:16: calling [(*github.com/go&#45;i2p/crypto/chacha20.ChaCha20PolyDecrypter).DecryptWithAd]">
<path fill="#add8e6" stroke="#000000" stroke-width="1.5" d="M81.1306,-395C81.1306,-395 35.9564,-395 35.9564,-395 29.9564,-395 23.9564,-389 23.9564,-383 23.9564,-383 23.9564,-371 23.9564,-371 23.9564,-365 29.9564,-359 35.9564,-359 35.9564,-359 81.1306,-359 81.1306,-359 87.1306,-359 93.1306,-365 93.1306,-371 93.1306,-371 93.1306,-383 93.1306,-383 93.1306,-389 87.1306,-395 81.1306,-395"/>
<text text-anchor="middle" x="58.5435" y="-372.8" font-family="Verdana" font-size="14.00" fill="#000000">Decrypt</text>
</a>
</g>
</g>
<!-- (*github.com/go&#45;i2p/crypto/chacha20.ChaCha20PolyDecrypter).Decrypt&#45;&gt;(*github.com/go&#45;i2p/crypto/chacha20.ChaCha20PolyDecrypter).DecryptWithAd -->
<g id="edge16" class="edge">
<title>(*github.com/go&#45;i2p/crypto/chacha20.ChaCha20PolyDecrypter).Decrypt&#45;&gt;(*github.com/go&#45;i2p/crypto/chacha20.ChaCha20PolyDecrypter).DecryptWithAd</title>
<g id="a_edge16"><a xlink:title="at chacha20_decrypter.go:16: calling [(*github.com/go&#45;i2p/crypto/chacha20.ChaCha20PolyDecrypter).DecryptWithAd]">
<path fill="none" stroke="#000000" d="M93.459,-377C111.6303,-377 134.4765,-377 155.913,-377"/>
<polygon fill="#000000" stroke="#000000" points="155.9675,-380.5001 165.9675,-377 155.9675,-373.5001 155.9675,-380.5001"/>
</a>
</g>
</g>
<!-- (*github.com/go&#45;i2p/crypto/chacha20.ChaCha20PolyEncrypter).EncryptWithAd -->
<g id="node10" class="node">
<title>(*github.com/go&#45;i2p/crypto/chacha20.ChaCha20PolyEncrypter).EncryptWithAd</title>
<g id="a_node10"><a xlink:title="(*github.com/go&#45;i2p/crypto/chacha20.ChaCha20PolyEncrypter).EncryptWithAd | defined in chacha20_encrypter.go:21&#10;at chacha20_encrypter.go:25: calling [golang.org/x/crypto/chacha20poly1305.New]&#10;at chacha20_encrypter.go:27: calling [github.com/samber/oops.Errorf]&#10;at chacha20_encrypter.go:22: calling [(*github.com/go&#45;i2p/logger.Logger).WithField]&#10;at chacha20_encrypter.go:44: calling [(*github.com/go&#45;i2p/logger.Logger).WithField]&#10;at chacha20_encrypter.go:22: calling [(*github.com/sirupsen/logrus.Logger).Debug]&#10;at chacha20_encrypter.go:44: calling [(*github.com/sirupsen/logrus.Logger).Debug]&#10;at chacha20_encrypter.go:31: calling [github.com/go&#45;i2p/crypto/chacha20.NewRandomNonce]">
<path fill="#add8e6" stroke="#000000" stroke-width="1.5" d="M268.1033,-201C268.1033,-201 178.2601,-201 178.2601,-201 172.2601,-201 166.2601,-195 166.2601,-189 166.2601,-189 166.2601,-177 166.2601,-177 166.2601,-171 172.2601,-165 178.2601,-165 178.2601,-165 268.1033,-165 268.1033,-165 274.1033,-165 280.1033,-171 280.1033,-177 280.1033,-177 280.1033,-189 280.1033,-189 280.1033,-195 274.1033,-201 268.1033,-201"/>
<text text-anchor="middle" x="223.1817" y="-178.8" font-family="Verdana" font-size="14.00" fill="#000000">EncryptWithAd</text>
</a>
</g>
</g>
<!-- (*github.com/go&#45;i2p/crypto/chacha20.ChaCha20PolyEncrypter).EncryptWithAd&#45;&gt;github.com/samber/oops.Errorf -->
<g id="edge9" class="edge">
<title>(*github.com/go&#45;i2p/crypto/chacha20.ChaCha20PolyEncrypter).EncryptWithAd&#45;&gt;github.com/samber/oops.Errorf</title>
<g id="a_edge9"><a xlink:title="at chacha20_encrypter.go:27: calling [github.com/samber/oops.Errorf]">
<path fill="none" stroke="#8b4513" d="M280.0585,-167.0294C302.6674,-161.318 329.0249,-155.4472 353.2764,-152 433.9602,-140.5313 529.5284,-138.6665 581.9566,-138.6353"/>
<polygon fill="#8b4513" stroke="#8b4513" points="582.1533,-142.1356 592.1592,-138.6524 582.1652,-135.1356 582.1533,-142.1356"/>
</a>
</g>
</g>
<!-- (*github.com/go&#45;i2p/crypto/chacha20.ChaCha20PolyEncrypter).EncryptWithAd&#45;&gt;golang.org/x/crypto/chacha20poly1305.New -->
<g id="edge4" class="edge">
<title>(*github.com/go&#45;i2p/crypto/chacha20.ChaCha20PolyEncrypter).EncryptWithAd&#45;&gt;golang.org/x/crypto/chacha20poly1305.New</title>
<g id="a_edge4"><a xlink:title="at chacha20_encrypter.go:25: calling [golang.org/x/crypto/chacha20poly1305.New]">
<path fill="none" stroke="#8b4513" d="M279.9836,-183C300.3265,-183 323.5838,-183 345.2431,-183"/>
<polygon fill="#8b4513" stroke="#8b4513" points="345.3955,-186.5001 355.3955,-183 345.3955,-179.5001 345.3955,-186.5001"/>
</a>
</g>
</g>
<!-- (*github.com/go&#45;i2p/crypto/chacha20.ChaCha20PolyEncrypter).EncryptWithAd&#45;&gt;github.com/go&#45;i2p/crypto/chacha20.NewRandomNonce -->
<g id="edge19" class="edge">
<title>(*github.com/go&#45;i2p/crypto/chacha20.ChaCha20PolyEncrypter).EncryptWithAd&#45;&gt;github.com/go&#45;i2p/crypto/chacha20.NewRandomNonce</title>
<g id="a_edge19"><a xlink:title="at chacha20_encrypter.go:31: calling [github.com/go&#45;i2p/crypto/chacha20.NewRandomNonce]">
<path fill="none" stroke="#000000" d="M253.1653,-164.9749C271.1118,-154.5934 294.581,-141.7193 316.2764,-132 328.4922,-126.5274 341.7839,-121.2911 354.6591,-116.5684"/>
<polygon fill="#000000" stroke="#000000" points="356.176,-119.7422 364.399,-113.0615 353.8046,-113.1561 356.176,-119.7422"/>
</a>
</g>
</g>
<!-- (*github.com/go&#45;i2p/crypto/chacha20.ChaCha20PolyEncrypter).EncryptWithAd&#45;&gt;(*github.com/go&#45;i2p/logger.Logger).WithField -->
<g id="edge17" class="edge">
<title>(*github.com/go&#45;i2p/crypto/chacha20.ChaCha20PolyEncrypter).EncryptWithAd&#45;&gt;(*github.com/go&#45;i2p/logger.Logger).WithField</title>
<g id="a_edge17"><a xlink:title="at chacha20_encrypter.go:22: calling [(*github.com/go&#45;i2p/logger.Logger).WithField]&#10;at chacha20_encrypter.go:44: calling [(*github.com/go&#45;i2p/logger.Logger).WithField]">
<path fill="none" stroke="#8b4513" d="M244.2267,-201.0731C269.8394,-223.0039 314.4775,-261.0172 353.2764,-293 365.079,-302.7291 378.1678,-313.296 389.6352,-322.4813"/>
<polygon fill="#8b4513" stroke="#8b4513" points="387.6605,-325.3836 397.657,-328.8938 392.0313,-319.9159 387.6605,-325.3836"/>
</a>
</g>
</g>
<!-- (*github.com/go&#45;i2p/crypto/chacha20.ChaCha20PolyEncrypter).EncryptWithAd&#45;&gt;(*github.com/sirupsen/logrus.Logger).Debug -->
<g id="edge18" class="edge">
<title>(*github.com/go&#45;i2p/crypto/chacha20.ChaCha20PolyEncrypter).EncryptWithAd&#45;&gt;(*github.com/sirupsen/logrus.Logger).Debug</title>
<g id="a_edge18"><a xlink:title="at chacha20_encrypter.go:22: calling [(*github.com/sirupsen/logrus.Logger).Debug]&#10;at chacha20_encrypter.go:44: calling [(*github.com/sirupsen/logrus.Logger).Debug]">
<path fill="none" stroke="#8b4513" d="M262.6592,-201.0942C288.2558,-212.5515 322.4553,-227.3486 353.2764,-239 361.7866,-242.2171 371.0014,-245.4153 379.7997,-248.3359"/>
<polygon fill="#8b4513" stroke="#8b4513" points="378.9041,-251.7252 389.4966,-251.5016 381.0766,-245.0709 378.9041,-251.7252"/>
</a>
</g>
</g>
<!-- (*github.com/go&#45;i2p/crypto/chacha20.ChaCha20PolyEncrypter).Encrypt -->
<g id="node11" class="node">
<title>(*github.com/go&#45;i2p/crypto/chacha20.ChaCha20PolyEncrypter).Encrypt</title>
<g id="a_node11"><a xlink:title="(*github.com/go&#45;i2p/crypto/chacha20.ChaCha20PolyEncrypter).Encrypt | defined in chacha20_encrypter.go:15&#10;at chacha20_encrypter.go:16: calling [(*github.com/go&#45;i2p/crypto/chacha20.ChaCha20PolyEncrypter).EncryptWithAd]">
<path fill="#add8e6" stroke="#000000" stroke-width="1.5" d="M80.8626,-201C80.8626,-201 36.2244,-201 36.2244,-201 30.2244,-201 24.2244,-195 24.2244,-189 24.2244,-189 24.2244,-177 24.2244,-177 24.2244,-171 30.2244,-165 36.2244,-165 36.2244,-165 80.8626,-165 80.8626,-165 86.8626,-165 92.8626,-171 92.8626,-177 92.8626,-177 92.8626,-189 92.8626,-189 92.8626,-195 86.8626,-201 80.8626,-201"/>
<text text-anchor="middle" x="58.5435" y="-178.8" font-family="Verdana" font-size="14.00" fill="#000000">Encrypt</text>
</a>
</g>
</g>
<!-- (*github.com/go&#45;i2p/crypto/chacha20.ChaCha20PolyEncrypter).Encrypt&#45;&gt;(*github.com/go&#45;i2p/crypto/chacha20.ChaCha20PolyEncrypter).EncryptWithAd -->
<g id="edge7" class="edge">
<title>(*github.com/go&#45;i2p/crypto/chacha20.ChaCha20PolyEncrypter).Encrypt&#45;&gt;(*github.com/go&#45;i2p/crypto/chacha20.ChaCha20PolyEncrypter).EncryptWithAd</title>
<g id="a_edge7"><a xlink:title="at chacha20_encrypter.go:16: calling [(*github.com/go&#45;i2p/crypto/chacha20.ChaCha20PolyEncrypter).EncryptWithAd]">
<path fill="none" stroke="#000000" d="M93.0571,-183C111.3721,-183 134.5186,-183 156.1948,-183"/>
<polygon fill="#000000" stroke="#000000" points="156.3578,-186.5001 166.3578,-183 156.3578,-179.5001 156.3578,-186.5001"/>
</a>
</g>
</g>
</g>
</svg>
