<?xml version="1.0" encoding="UTF-8" standalone="no"?>
<!DOCTYPE svg PUBLIC "-//W3C//DTD SVG 1.1//EN"
 "http://www.w3.org/Graphics/SVG/1.1/DTD/svg11.dtd">
<!-- Generated by graphviz version 2.40.1 (20161225.0304)
 -->
<!-- Title: gocallvis Pages: 1 -->
<svg width="698pt" height="614pt"
 viewBox="0.00 0.00 697.87 614.22" xmlns="http://www.w3.org/2000/svg" xmlns:xlink="http://www.w3.org/1999/xlink">
<g id="graph0" class="graph" transform="scale(1 1) rotate(0) translate(0 614.2153)">
<title>gocallvis</title>
<polygon fill="#d3d3d3" stroke="transparent" points="0,0 0,-614.2153 697.8712,-614.2153 697.8712,0 0,0"/>
<g id="clust1" class="cluster">
<title>cluster_focus</title>
<polygon fill="#e6ecfa" stroke="#000000" stroke-width=".5" points="8,-9.2153 8,-606.2153 689.8712,-606.2153 689.8712,-9.2153 8,-9.2153"/>
<text text-anchor="middle" x="348.9356" y="-586.0153" font-family="Arial" font-size="18.00" fill="#000000">chacha20</text>
</g>
<g id="clust5" class="cluster">
<title>cluster_*github.com/sirupsen/logrus.Logger</title>
<g id="a_clust5"><a xlink:title="type: *github.com/sirupsen/logrus.Logger">
<path fill="#eed8ae" stroke="#000000" stroke-width=".5" d="M393.8185,-288.2153C393.8185,-288.2153 448.1397,-288.2153 448.1397,-288.2153 454.1397,-288.2153 460.1397,-294.2153 460.1397,-300.2153 460.1397,-300.2153 460.1397,-354.2153 460.1397,-354.2153 460.1397,-360.2153 454.1397,-366.2153 448.1397,-366.2153 448.1397,-366.2153 393.8185,-366.2153 393.8185,-366.2153 387.8185,-366.2153 381.8185,-360.2153 381.8185,-354.2153 381.8185,-354.2153 381.8185,-300.2153 381.8185,-300.2153 381.8185,-294.2153 387.8185,-288.2153 393.8185,-288.2153"/>
<text text-anchor="middle" x="420.9791" y="-296.7153" font-family="Arial" font-size="15.00" fill="#222222">(*Logger)</text>
</a>
</g>
</g>
<g id="clust4" class="cluster">
<title>cluster_*github.com/go&#45;i2p/logger.Logger</title>
<g id="a_clust4"><a xlink:title="type: *github.com/go&#45;i2p/logger.Logger">
<path fill="#eed8ae" stroke="#000000" stroke-width=".5" d="M383.714,-27.2153C383.714,-27.2153 457.2442,-27.2153 457.2442,-27.2153 463.2442,-27.2153 469.2442,-33.2153 469.2442,-39.2153 469.2442,-39.2153 469.2442,-215.2153 469.2442,-215.2153 469.2442,-221.2153 463.2442,-227.2153 457.2442,-227.2153 457.2442,-227.2153 383.714,-227.2153 383.714,-227.2153 377.714,-227.2153 371.714,-221.2153 371.714,-215.2153 371.714,-215.2153 371.714,-39.2153 371.714,-39.2153 371.714,-33.2153 377.714,-27.2153 383.714,-27.2153"/>
<text text-anchor="middle" x="420.4791" y="-35.7153" font-family="Arial" font-size="15.00" fill="#222222">(*Logger)</text>
</a>
</g>
</g>
<g id="clust3" class="cluster">
<title>cluster_*github.com/go&#45;i2p/crypto/chacha20.ChaCha20PolyEncrypter</title>
<g id="a_clust3"><a xlink:title="type: *github.com/go&#45;i2p/crypto/chacha20.ChaCha20PolyEncrypter">
<path fill="#b0c4de" stroke="#000000" stroke-width=".5" d="M28.3843,-349.2153C28.3843,-349.2153 275.8921,-349.2153 275.8921,-349.2153 281.8921,-349.2153 287.8921,-355.2153 287.8921,-361.2153 287.8921,-361.2153 287.8921,-415.2153 287.8921,-415.2153 287.8921,-421.2153 281.8921,-427.2153 275.8921,-427.2153 275.8921,-427.2153 28.3843,-427.2153 28.3843,-427.2153 22.3843,-427.2153 16.3843,-421.2153 16.3843,-415.2153 16.3843,-415.2153 16.3843,-361.2153 16.3843,-361.2153 16.3843,-355.2153 22.3843,-349.2153 28.3843,-349.2153"/>
<text text-anchor="middle" x="152.1382" y="-357.7153" font-family="Arial" font-size="15.00" fill="#222222">(*ChaCha20PolyEncrypter)</text>
</a>
</g>
</g>
<g id="clust2" class="cluster">
<title>cluster_*github.com/go&#45;i2p/crypto/chacha20.ChaCha20PolyDecrypter</title>
<g id="a_clust2"><a xlink:title="type: *github.com/go&#45;i2p/crypto/chacha20.ChaCha20PolyDecrypter">
<path fill="#b0c4de" stroke="#000000" stroke-width=".5" d="M28,-119.2153C28,-119.2153 276.2764,-119.2153 276.2764,-119.2153 282.2764,-119.2153 288.2764,-125.2153 288.2764,-131.2153 288.2764,-131.2153 288.2764,-185.2153 288.2764,-185.2153 288.2764,-191.2153 282.2764,-197.2153 276.2764,-197.2153 276.2764,-197.2153 28,-197.2153 28,-197.2153 22,-197.2153 16,-191.2153 16,-185.2153 16,-185.2153 16,-131.2153 16,-131.2153 16,-125.2153 22,-119.2153 28,-119.2153"/>
<text text-anchor="middle" x="152.1382" y="-127.7153" font-family="Arial" font-size="15.00" fill="#222222">(*ChaCha20PolyDecrypter)</text>
</a>
</g>
</g>
<!-- golang.org/x/crypto/chacha20poly1305.New -->
<g id="node1" class="node">
<title>golang.org/x/crypto/chacha20poly1305.New</title>
<g id="a_node1"><a xlink:title="golang.org/x/crypto/chacha20poly1305.New | defined in chacha20poly1305.go:40">
<path fill="#ffe4b5" stroke="#000000" stroke-width="1.5" d="M473.2283,-419.2153C473.2283,-419.2153 367.7299,-419.2153 367.7299,-419.2153 361.7299,-419.2153 355.7299,-413.2153 355.7299,-407.2153 355.7299,-407.2153 355.7299,-395.2153 355.7299,-395.2153 355.7299,-389.2153 361.7299,-383.2153 367.7299,-383.2153 367.7299,-383.2153 473.2283,-383.2153 473.2283,-383.2153 479.2283,-383.2153 485.2283,-389.2153 485.2283,-395.2153 485.2283,-395.2153 485.2283,-407.2153 485.2283,-407.2153 485.2283,-413.2153 479.2283,-419.2153 473.2283,-419.2153"/>
<text text-anchor="middle" x="420.4791" y="-405.4153" font-family="Verdana" font-size="14.00" fill="#000000">chacha20poly1305</text>
<text text-anchor="middle" x="420.4791" y="-388.6153" font-family="Verdana" font-size="14.00" fill="#000000">New</text>
</a>
</g>
</g>
<!-- github.com/samber/oops.Errorf -->
<g id="node2" class="node">
<title>github.com/samber/oops.Errorf</title>
<g id="a_node2"><a xlink:title="github.com/samber/oops.Errorf | defined in oops.go:34">
<path fill="#ffe4b5" stroke="#000000" stroke-width="1.5" d="M638.4718,-463.2153C638.4718,-463.2153 604.0812,-463.2153 604.0812,-463.2153 598.0812,-463.2153 592.0812,-457.2153 592.0812,-451.2153 592.0812,-451.2153 592.0812,-439.2153 592.0812,-439.2153 592.0812,-433.2153 598.0812,-427.2153 604.0812,-427.2153 604.0812,-427.2153 638.4718,-427.2153 638.4718,-427.2153 644.4718,-427.2153 650.4718,-433.2153 650.4718,-439.2153 650.4718,-439.2153 650.4718,-451.2153 650.4718,-451.2153 650.4718,-457.2153 644.4718,-463.2153 638.4718,-463.2153"/>
<text text-anchor="middle" x="621.2765" y="-449.4153" font-family="Verdana" font-size="14.00" fill="#000000">oops</text>
<text text-anchor="middle" x="621.2765" y="-432.6153" font-family="Verdana" font-size="14.00" fill="#000000">Errorf</text>
</a>
</g>
</g>
<!-- github.com/go&#45;i2p/crypto/chacha20.NewRandomNonce -->
<g id="node3" class="node">
<title>github.com/go&#45;i2p/crypto/chacha20.NewRandomNonce</title>
<g id="a_node3"><a xlink:title="github.com/go&#45;i2p/crypto/chacha20.NewRandomNonce | defined in utils.go:11&#10;at utils.go:13: calling [github.com/go&#45;i2p/crypto/rand.Read]&#10;at utils.go:15: calling [github.com/samber/oops.Errorf]">
<path fill="#add8e6" stroke="#000000" stroke-width="1.5" d="M475.8851,-507.2153C475.8851,-507.2153 365.0731,-507.2153 365.0731,-507.2153 359.0731,-507.2153 353.0731,-501.2153 353.0731,-495.2153 353.0731,-495.2153 353.0731,-483.2153 353.0731,-483.2153 353.0731,-477.2153 359.0731,-471.2153 365.0731,-471.2153 365.0731,-471.2153 475.8851,-471.2153 475.8851,-471.2153 481.8851,-471.2153 487.8851,-477.2153 487.8851,-483.2153 487.8851,-483.2153 487.8851,-495.2153 487.8851,-495.2153 487.8851,-501.2153 481.8851,-507.2153 475.8851,-507.2153"/>
<text text-anchor="middle" x="420.4791" y="-485.0153" font-family="Verdana" font-size="14.00" fill="#000000">NewRandomNonce</text>
</a>
</g>
</g>
<!-- github.com/go&#45;i2p/crypto/chacha20.NewRandomNonce&#45;&gt;github.com/samber/oops.Errorf -->
<g id="edge17" class="edge">
<title>github.com/go&#45;i2p/crypto/chacha20.NewRandomNonce&#45;&gt;github.com/samber/oops.Errorf</title>
<g id="a_edge17"><a xlink:title="at utils.go:15: calling [github.com/samber/oops.Errorf]">
<path fill="none" stroke="#8b4513" d="M487.9003,-474.4415C519.1812,-467.587 555.2667,-459.6798 582.009,-453.8198"/>
<polygon fill="#8b4513" stroke="#8b4513" points="583.1126,-457.1611 592.1317,-451.6017 581.6142,-450.3233 583.1126,-457.1611"/>
</a>
</g>
</g>
<!-- github.com/go&#45;i2p/crypto/rand.Read -->
<g id="node4" class="node">
<title>github.com/go&#45;i2p/crypto/rand.Read</title>
<g id="a_node4"><a xlink:title="github.com/go&#45;i2p/crypto/rand.Read | defined in secure_reader.go:150">
<path fill="#ffe4b5" stroke="#000000" stroke-width="1.5" d="M636.2765,-546.2153C636.2765,-546.2153 606.2765,-546.2153 606.2765,-546.2153 600.2765,-546.2153 594.2765,-540.2153 594.2765,-534.2153 594.2765,-534.2153 594.2765,-522.2153 594.2765,-522.2153 594.2765,-516.2153 600.2765,-510.2153 606.2765,-510.2153 606.2765,-510.2153 636.2765,-510.2153 636.2765,-510.2153 642.2765,-510.2153 648.2765,-516.2153 648.2765,-522.2153 648.2765,-522.2153 648.2765,-534.2153 648.2765,-534.2153 648.2765,-540.2153 642.2765,-546.2153 636.2765,-546.2153"/>
<text text-anchor="middle" x="621.2765" y="-532.4153" font-family="Verdana" font-size="14.00" fill="#000000">rand</text>
<text text-anchor="middle" x="621.2765" y="-515.6153" font-family="Verdana" font-size="14.00" fill="#000000">Read</text>
</a>
</g>
</g>
<!-- github.com/go&#45;i2p/crypto/chacha20.NewRandomNonce&#45;&gt;github.com/go&#45;i2p/crypto/rand.Read -->
<g id="edge6" class="edge">
<title>github.com/go&#45;i2p/crypto/chacha20.NewRandomNonce&#45;&gt;github.com/go&#45;i2p/crypto/rand.Read</title>
<g id="a_edge6"><a xlink:title="at utils.go:13: calling [github.com/go&#45;i2p/crypto/rand.Read]">
<path fill="none" stroke="#8b4513" d="M487.9003,-502.3102C519.9858,-508.542 557.1264,-515.7557 584.054,-520.9857"/>
<polygon fill="#8b4513" stroke="#8b4513" points="583.7179,-524.4858 594.2018,-522.9567 585.0526,-517.6142 583.7179,-524.4858"/>
</a>
</g>
</g>
<!-- github.com/go&#45;i2p/crypto/chacha20.GenerateKey -->
<g id="node5" class="node">
<title>github.com/go&#45;i2p/crypto/chacha20.GenerateKey</title>
<g id="a_node5"><a xlink:title="github.com/go&#45;i2p/crypto/chacha20.GenerateKey | defined in chacha20_key.go:10&#10;at chacha20_key.go:12: calling [github.com/go&#45;i2p/crypto/rand.Read]&#10;at chacha20_key.go:14: calling [github.com/samber/oops.Errorf]">
<path fill="#add8e6" stroke="#000000" stroke-width="1.5" d="M457.3166,-568.2153C457.3166,-568.2153 383.6416,-568.2153 383.6416,-568.2153 377.6416,-568.2153 371.6416,-562.2153 371.6416,-556.2153 371.6416,-556.2153 371.6416,-544.2153 371.6416,-544.2153 371.6416,-538.2153 377.6416,-532.2153 383.6416,-532.2153 383.6416,-532.2153 457.3166,-532.2153 457.3166,-532.2153 463.3166,-532.2153 469.3166,-538.2153 469.3166,-544.2153 469.3166,-544.2153 469.3166,-556.2153 469.3166,-556.2153 469.3166,-562.2153 463.3166,-568.2153 457.3166,-568.2153"/>
<text text-anchor="middle" x="420.4791" y="-546.0153" font-family="Verdana" font-size="14.00" fill="#000000">GenerateKey</text>
</a>
</g>
</g>
<!-- github.com/go&#45;i2p/crypto/chacha20.GenerateKey&#45;&gt;github.com/samber/oops.Errorf -->
<g id="edge14" class="edge">
<title>github.com/go&#45;i2p/crypto/chacha20.GenerateKey&#45;&gt;github.com/samber/oops.Errorf</title>
<g id="a_edge14"><a xlink:title="at chacha20_key.go:14: calling [github.com/samber/oops.Errorf]">
<path fill="none" stroke="#8b4513" d="M462.7001,-532.0782C471.0448,-528.2945 479.6905,-524.2315 487.6818,-520.2153 520.4211,-503.7611 556.6103,-483.2978 583.0561,-467.9047"/>
<polygon fill="#8b4513" stroke="#8b4513" points="585.1158,-470.7548 591.9823,-462.6863 581.5829,-464.7117 585.1158,-470.7548"/>
</a>
</g>
</g>
<!-- github.com/go&#45;i2p/crypto/chacha20.GenerateKey&#45;&gt;github.com/go&#45;i2p/crypto/rand.Read -->
<g id="edge9" class="edge">
<title>github.com/go&#45;i2p/crypto/chacha20.GenerateKey&#45;&gt;github.com/go&#45;i2p/crypto/rand.Read</title>
<g id="a_edge9"><a xlink:title="at chacha20_key.go:12: calling [github.com/go&#45;i2p/crypto/rand.Read]">
<path fill="none" stroke="#8b4513" d="M469.3429,-544.8616C504.7485,-540.9824 551.8855,-535.818 584.2139,-532.276"/>
<polygon fill="#8b4513" stroke="#8b4513" points="584.5968,-535.755 594.1561,-531.1867 583.8344,-528.7967 584.5968,-535.755"/>
</a>
</g>
</g>
<!-- github.com/go&#45;i2p/crypto/chacha20.init -->
<g id="node6" class="node">
<title>github.com/go&#45;i2p/crypto/chacha20.init</title>
<g id="a_node6"><a xlink:title="github.com/go&#45;i2p/crypto/chacha20.init | defined in .:0&#10;at constants.go:10: calling [github.com/go&#45;i2p/logger.GetGoI2PLogger]&#10;at constants.go:23: calling [github.com/samber/oops.Errorf]&#10;at constants.go:24: calling [github.com/samber/oops.Errorf]&#10;at constants.go:25: calling [github.com/samber/oops.Errorf]&#10;at constants.go:26: calling [github.com/samber/oops.Errorf]&#10;at constants.go:27: calling [github.com/samber/oops.Errorf]">
<path fill="#add8e6" stroke="#000000" stroke-width=".5" d="M435.4791,-280.2153C435.4791,-280.2153 405.4791,-280.2153 405.4791,-280.2153 399.4791,-280.2153 393.4791,-274.2153 393.4791,-268.2153 393.4791,-268.2153 393.4791,-256.2153 393.4791,-256.2153 393.4791,-250.2153 399.4791,-244.2153 405.4791,-244.2153 405.4791,-244.2153 435.4791,-244.2153 435.4791,-244.2153 441.4791,-244.2153 447.4791,-250.2153 447.4791,-256.2153 447.4791,-256.2153 447.4791,-268.2153 447.4791,-268.2153 447.4791,-274.2153 441.4791,-280.2153 435.4791,-280.2153"/>
<text text-anchor="middle" x="420.4791" y="-258.0153" font-family="Verdana" font-size="14.00" fill="#000000">init</text>
</a>
</g>
</g>
<!-- github.com/go&#45;i2p/crypto/chacha20.init&#45;&gt;github.com/samber/oops.Errorf -->
<g id="edge16" class="edge">
<title>github.com/go&#45;i2p/crypto/chacha20.init&#45;&gt;github.com/samber/oops.Errorf</title>
<g id="a_edge16"><a xlink:title="at constants.go:23: calling [github.com/samber/oops.Errorf]&#10;at constants.go:24: calling [github.com/samber/oops.Errorf]&#10;at constants.go:25: calling [github.com/samber/oops.Errorf]&#10;at constants.go:26: calling [github.com/samber/oops.Errorf]&#10;at constants.go:27: calling [github.com/samber/oops.Errorf]">
<path fill="none" stroke="#8b4513" d="M447.5679,-267.3996C460.4896,-270.7578 475.7035,-276.0685 487.6818,-284.2153 540.4772,-320.123 583.7596,-382.6333 605.699,-418.2793"/>
<polygon fill="#8b4513" stroke="#8b4513" points="602.8939,-420.4046 611.0609,-427.1537 608.8852,-416.7847 602.8939,-420.4046"/>
</a>
</g>
</g>
<!-- github.com/go&#45;i2p/logger.GetGoI2PLogger -->
<g id="node7" class="node">
<title>github.com/go&#45;i2p/logger.GetGoI2PLogger</title>
<g id="a_node7"><a xlink:title="github.com/go&#45;i2p/logger.GetGoI2PLogger | defined in log.go:120">
<path fill="#ffe4b5" stroke="#000000" stroke-width="1.5" d="M669.966,-280.2153C669.966,-280.2153 572.587,-280.2153 572.587,-280.2153 566.587,-280.2153 560.587,-274.2153 560.587,-268.2153 560.587,-268.2153 560.587,-256.2153 560.587,-256.2153 560.587,-250.2153 566.587,-244.2153 572.587,-244.2153 572.587,-244.2153 669.966,-244.2153 669.966,-244.2153 675.966,-244.2153 681.966,-250.2153 681.966,-256.2153 681.966,-256.2153 681.966,-268.2153 681.966,-268.2153 681.966,-274.2153 675.966,-280.2153 669.966,-280.2153"/>
<text text-anchor="middle" x="621.2765" y="-266.4153" font-family="Verdana" font-size="14.00" fill="#000000">logger</text>
<text text-anchor="middle" x="621.2765" y="-249.6153" font-family="Verdana" font-size="14.00" fill="#000000">GetGoI2PLogger</text>
</a>
</g>
</g>
<!-- github.com/go&#45;i2p/crypto/chacha20.init&#45;&gt;github.com/go&#45;i2p/logger.GetGoI2PLogger -->
<g id="edge15" class="edge">
<title>github.com/go&#45;i2p/crypto/chacha20.init&#45;&gt;github.com/go&#45;i2p/logger.GetGoI2PLogger</title>
<g id="a_edge15"><a xlink:title="at constants.go:10: calling [github.com/go&#45;i2p/logger.GetGoI2PLogger]">
<path fill="none" stroke="#8b4513" d="M447.5595,-262.2153C473.7686,-262.2153 514.6346,-262.2153 550.1471,-262.2153"/>
<polygon fill="#8b4513" stroke="#8b4513" points="550.4879,-265.7154 560.4879,-262.2153 550.4878,-258.7154 550.4879,-265.7154"/>
</a>
</g>
</g>
<!-- (*github.com/go&#45;i2p/crypto/chacha20.ChaCha20PolyDecrypter).DecryptWithAd -->
<g id="node8" class="node">
<title>(*github.com/go&#45;i2p/crypto/chacha20.ChaCha20PolyDecrypter).DecryptWithAd</title>
<g id="a_node8"><a xlink:title="(*github.com/go&#45;i2p/crypto/chacha20.ChaCha20PolyDecrypter).DecryptWithAd | defined in chacha20_decrypter.go:20&#10;at chacha20_decrypter.go:21: calling [(*github.com/sirupsen/logrus.Logger).Debug]&#10;at chacha20_decrypter.go:45: calling [(*github.com/sirupsen/logrus.Logger).Debug]&#10;at chacha20_decrypter.go:29: calling [golang.org/x/crypto/chacha20poly1305.New]&#10;at chacha20_decrypter.go:41: calling [(*github.com/go&#45;i2p/logger.Logger).Error]&#10;at chacha20_decrypter.go:21: calling [(*github.com/go&#45;i2p/logger.Logger).WithField]&#10;at chacha20_decrypter.go:45: calling [(*github.com/go&#45;i2p/logger.Logger).WithField]&#10;at chacha20_decrypter.go:25: calling [github.com/samber/oops.Errorf]&#10;at chacha20_decrypter.go:31: calling [github.com/samber/oops.Errorf]&#10;at chacha20_decrypter.go:41: calling [(*github.com/go&#45;i2p/logger.Logger).WithError]">
<path fill="#add8e6" stroke="#000000" stroke-width="1.5" d="M268.3713,-189.2153C268.3713,-189.2153 177.9921,-189.2153 177.9921,-189.2153 171.9921,-189.2153 165.9921,-183.2153 165.9921,-177.2153 165.9921,-177.2153 165.9921,-165.2153 165.9921,-165.2153 165.9921,-159.2153 171.9921,-153.2153 177.9921,-153.2153 177.9921,-153.2153 268.3713,-153.2153 268.3713,-153.2153 274.3713,-153.2153 280.3713,-159.2153 280.3713,-165.2153 280.3713,-165.2153 280.3713,-177.2153 280.3713,-177.2153 280.3713,-183.2153 274.3713,-189.2153 268.3713,-189.2153"/>
<text text-anchor="middle" x="223.1817" y="-167.0153" font-family="Verdana" font-size="14.00" fill="#000000">DecryptWithAd</text>
</a>
</g>
</g>
<!-- (*github.com/go&#45;i2p/crypto/chacha20.ChaCha20PolyDecrypter).DecryptWithAd&#45;&gt;golang.org/x/crypto/chacha20poly1305.New -->
<g id="edge7" class="edge">
<title>(*github.com/go&#45;i2p/crypto/chacha20.ChaCha20PolyDecrypter).DecryptWithAd&#45;&gt;golang.org/x/crypto/chacha20poly1305.New</title>
<g id="a_edge7"><a xlink:title="at chacha20_decrypter.go:29: calling [golang.org/x/crypto/chacha20poly1305.New]">
<path fill="none" stroke="#8b4513" d="M230.511,-189.3095C246.9744,-227.8972 290.427,-319.076 353.2764,-372.2153 355.6265,-374.2023 358.1334,-376.0729 360.7464,-377.8313"/>
<polygon fill="#8b4513" stroke="#8b4513" points="359.0246,-380.8804 369.3906,-383.0707 362.653,-374.8942 359.0246,-380.8804"/>
</a>
</g>
</g>
<!-- (*github.com/go&#45;i2p/crypto/chacha20.ChaCha20PolyDecrypter).DecryptWithAd&#45;&gt;github.com/samber/oops.Errorf -->
<g id="edge12" class="edge">
<title>(*github.com/go&#45;i2p/crypto/chacha20.ChaCha20PolyDecrypter).DecryptWithAd&#45;&gt;github.com/samber/oops.Errorf</title>
<g id="a_edge12"><a xlink:title="at chacha20_decrypter.go:25: calling [github.com/samber/oops.Errorf]&#10;at chacha20_decrypter.go:31: calling [github.com/samber/oops.Errorf]">
<path fill="none" stroke="#8b4513" d="M232.2882,-153.1665C250.1761,-120.002 293.4323,-50.2887 353.2764,-23.2153 407.7017,1.4067 440.2492,13.096 487.6818,-23.2153 586.3878,-98.7782 521.378,-175.2837 560.6818,-293.2153 575.369,-337.2846 596.0152,-387.0698 609.0159,-417.2896"/>
<polygon fill="#8b4513" stroke="#8b4513" points="605.9273,-418.965 613.1121,-426.7515 612.3512,-416.184 605.9273,-418.965"/>
</a>
</g>
</g>
<!-- (*github.com/go&#45;i2p/logger.Logger).WithField -->
<g id="node12" class="node">
<title>(*github.com/go&#45;i2p/logger.Logger).WithField</title>
<g id="a_node12"><a xlink:title="(*github.com/go&#45;i2p/logger.Logger).WithField | defined in log.go:54">
<path fill="#ffe4b5" stroke="#000000" stroke-width="1.5" d="M448.7536,-219.2153C448.7536,-219.2153 392.2046,-219.2153 392.2046,-219.2153 386.2046,-219.2153 380.2046,-213.2153 380.2046,-207.2153 380.2046,-207.2153 380.2046,-195.2153 380.2046,-195.2153 380.2046,-189.2153 386.2046,-183.2153 392.2046,-183.2153 392.2046,-183.2153 448.7536,-183.2153 448.7536,-183.2153 454.7536,-183.2153 460.7536,-189.2153 460.7536,-195.2153 460.7536,-195.2153 460.7536,-207.2153 460.7536,-207.2153 460.7536,-213.2153 454.7536,-219.2153 448.7536,-219.2153"/>
<text text-anchor="middle" x="420.4791" y="-205.4153" font-family="Verdana" font-size="14.00" fill="#000000">logger</text>
<text text-anchor="middle" x="420.4791" y="-188.6153" font-family="Verdana" font-size="14.00" fill="#000000">WithField</text>
</a>
</g>
</g>
<!-- (*github.com/go&#45;i2p/crypto/chacha20.ChaCha20PolyDecrypter).DecryptWithAd&#45;&gt;(*github.com/go&#45;i2p/logger.Logger).WithField -->
<g id="edge11" class="edge">
<title>(*github.com/go&#45;i2p/crypto/chacha20.ChaCha20PolyDecrypter).DecryptWithAd&#45;&gt;(*github.com/go&#45;i2p/logger.Logger).WithField</title>
<g id="a_edge11"><a xlink:title="at chacha20_decrypter.go:21: calling [(*github.com/go&#45;i2p/logger.Logger).WithField]&#10;at chacha20_decrypter.go:45: calling [(*github.com/go&#45;i2p/logger.Logger).WithField]">
<path fill="none" stroke="#8b4513" d="M280.5133,-179.9328C308.7614,-184.2281 342.5263,-189.3622 369.815,-193.5115"/>
<polygon fill="#8b4513" stroke="#8b4513" points="369.519,-197.0067 379.9315,-195.0498 370.5713,-190.0862 369.519,-197.0067"/>
</a>
</g>
</g>
<!-- (*github.com/go&#45;i2p/logger.Logger).WithError -->
<g id="node13" class="node">
<title>(*github.com/go&#45;i2p/logger.Logger).WithError</title>
<g id="a_node13"><a xlink:title="(*github.com/go&#45;i2p/logger.Logger).WithError | defined in log.go:66">
<path fill="#ffe4b5" stroke="#000000" stroke-width="1.5" d="M449.0106,-97.2153C449.0106,-97.2153 391.9476,-97.2153 391.9476,-97.2153 385.9476,-97.2153 379.9476,-91.2153 379.9476,-85.2153 379.9476,-85.2153 379.9476,-73.2153 379.9476,-73.2153 379.9476,-67.2153 385.9476,-61.2153 391.9476,-61.2153 391.9476,-61.2153 449.0106,-61.2153 449.0106,-61.2153 455.0106,-61.2153 461.0106,-67.2153 461.0106,-73.2153 461.0106,-73.2153 461.0106,-85.2153 461.0106,-85.2153 461.0106,-91.2153 455.0106,-97.2153 449.0106,-97.2153"/>
<text text-anchor="middle" x="420.4791" y="-83.4153" font-family="Verdana" font-size="14.00" fill="#000000">logger</text>
<text text-anchor="middle" x="420.4791" y="-66.6153" font-family="Verdana" font-size="14.00" fill="#000000">WithError</text>
</a>
</g>
</g>
<!-- (*github.com/go&#45;i2p/crypto/chacha20.ChaCha20PolyDecrypter).DecryptWithAd&#45;&gt;(*github.com/go&#45;i2p/logger.Logger).WithError -->
<g id="edge13" class="edge">
<title>(*github.com/go&#45;i2p/crypto/chacha20.ChaCha20PolyDecrypter).DecryptWithAd&#45;&gt;(*github.com/go&#45;i2p/logger.Logger).WithError</title>
<g id="a_edge13"><a xlink:title="at chacha20_decrypter.go:41: calling [(*github.com/go&#45;i2p/logger.Logger).WithError]">
<path fill="none" stroke="#8b4513" d="M260.3576,-153.1965C286.3146,-140.6895 321.812,-123.7332 353.2764,-109.2153 358.9104,-106.6157 364.8251,-103.9229 370.7114,-101.2657"/>
<polygon fill="#8b4513" stroke="#8b4513" points="372.2077,-104.4305 379.8934,-97.1379 369.3375,-98.0459 372.2077,-104.4305"/>
</a>
</g>
</g>
<!-- (*github.com/go&#45;i2p/logger.Logger).Error -->
<g id="node14" class="node">
<title>(*github.com/go&#45;i2p/logger.Logger).Error</title>
<g id="a_node14"><a xlink:title="(*github.com/go&#45;i2p/logger.Logger).Error | defined in log.go:42">
<path fill="#ffe4b5" stroke="#000000" stroke-width="1.5" d="M438.2454,-158.2153C438.2454,-158.2153 402.7128,-158.2153 402.7128,-158.2153 396.7128,-158.2153 390.7128,-152.2153 390.7128,-146.2153 390.7128,-146.2153 390.7128,-134.2153 390.7128,-134.2153 390.7128,-128.2153 396.7128,-122.2153 402.7128,-122.2153 402.7128,-122.2153 438.2454,-122.2153 438.2454,-122.2153 444.2454,-122.2153 450.2454,-128.2153 450.2454,-134.2153 450.2454,-134.2153 450.2454,-146.2153 450.2454,-146.2153 450.2454,-152.2153 444.2454,-158.2153 438.2454,-158.2153"/>
<text text-anchor="middle" x="420.4791" y="-144.4153" font-family="Verdana" font-size="14.00" fill="#000000">logger</text>
<text text-anchor="middle" x="420.4791" y="-127.6153" font-family="Verdana" font-size="14.00" fill="#000000">Error</text>
</a>
</g>
</g>
<!-- (*github.com/go&#45;i2p/crypto/chacha20.ChaCha20PolyDecrypter).DecryptWithAd&#45;&gt;(*github.com/go&#45;i2p/logger.Logger).Error -->
<g id="edge8" class="edge">
<title>(*github.com/go&#45;i2p/crypto/chacha20.ChaCha20PolyDecrypter).DecryptWithAd&#45;&gt;(*github.com/go&#45;i2p/logger.Logger).Error</title>
<g id="a_edge8"><a xlink:title="at chacha20_decrypter.go:41: calling [(*github.com/go&#45;i2p/logger.Logger).Error]">
<path fill="none" stroke="#8b4513" d="M280.5133,-162.2071C312.5337,-157.176 351.6428,-151.031 380.3725,-146.5169"/>
<polygon fill="#8b4513" stroke="#8b4513" points="381.1197,-149.9426 390.4552,-144.9327 380.0331,-143.0274 381.1197,-149.9426"/>
</a>
</g>
</g>
<!-- (*github.com/sirupsen/logrus.Logger).Debug -->
<g id="node15" class="node">
<title>(*github.com/sirupsen/logrus.Logger).Debug</title>
<g id="a_node15"><a xlink:title="(*github.com/sirupsen/logrus.Logger).Debug | defined in logger.go:221">
<path fill="#ffe4b5" stroke="#000000" stroke-width="1.5" d="M439.3011,-358.2153C439.3011,-358.2153 401.6571,-358.2153 401.6571,-358.2153 395.6571,-358.2153 389.6571,-352.2153 389.6571,-346.2153 389.6571,-346.2153 389.6571,-334.2153 389.6571,-334.2153 389.6571,-328.2153 395.6571,-322.2153 401.6571,-322.2153 401.6571,-322.2153 439.3011,-322.2153 439.3011,-322.2153 445.3011,-322.2153 451.3011,-328.2153 451.3011,-334.2153 451.3011,-334.2153 451.3011,-346.2153 451.3011,-346.2153 451.3011,-352.2153 445.3011,-358.2153 439.3011,-358.2153"/>
<text text-anchor="middle" x="420.4791" y="-344.4153" font-family="Verdana" font-size="14.00" fill="#000000">logrus</text>
<text text-anchor="middle" x="420.4791" y="-327.6153" font-family="Verdana" font-size="14.00" fill="#000000">Debug</text>
</a>
</g>
</g>
<!-- (*github.com/go&#45;i2p/crypto/chacha20.ChaCha20PolyDecrypter).DecryptWithAd&#45;&gt;(*github.com/sirupsen/logrus.Logger).Debug -->
<g id="edge2" class="edge">
<title>(*github.com/go&#45;i2p/crypto/chacha20.ChaCha20PolyDecrypter).DecryptWithAd&#45;&gt;(*github.com/sirupsen/logrus.Logger).Debug</title>
<g id="a_edge2"><a xlink:title="at chacha20_decrypter.go:21: calling [(*github.com/sirupsen/logrus.Logger).Debug]&#10;at chacha20_decrypter.go:45: calling [(*github.com/sirupsen/logrus.Logger).Debug]">
<path fill="none" stroke="#8b4513" d="M257.1038,-189.287C276.7272,-201.1036 300.7332,-218.0663 317.2764,-238.2153 342.0178,-268.3493 324.2784,-292.1516 353.2764,-318.2153 360.7305,-324.9151 370.2649,-329.5791 379.7948,-332.8244"/>
<polygon fill="#8b4513" stroke="#8b4513" points="379.0555,-336.2552 389.6367,-335.7186 381.0304,-329.5395 379.0555,-336.2552"/>
</a>
</g>
</g>
<!-- (*github.com/go&#45;i2p/crypto/chacha20.ChaCha20PolyDecrypter).Decrypt -->
<g id="node9" class="node">
<title>(*github.com/go&#45;i2p/crypto/chacha20.ChaCha20PolyDecrypter).Decrypt</title>
<g id="a_node9"><a xlink:title="(*github.com/go&#45;i2p/crypto/chacha20.ChaCha20PolyDecrypter).Decrypt | defined in chacha20_decrypter.go:15&#10;at chacha20_decrypter.go:16: calling [(*github.com/go&#45;i2p/crypto/chacha20.ChaCha20PolyDecrypter).DecryptWithAd]">
<path fill="#add8e6" stroke="#000000" stroke-width="1.5" d="M81.1306,-189.2153C81.1306,-189.2153 35.9564,-189.2153 35.9564,-189.2153 29.9564,-189.2153 23.9564,-183.2153 23.9564,-177.2153 23.9564,-177.2153 23.9564,-165.2153 23.9564,-165.2153 23.9564,-159.2153 29.9564,-153.2153 35.9564,-153.2153 35.9564,-153.2153 81.1306,-153.2153 81.1306,-153.2153 87.1306,-153.2153 93.1306,-159.2153 93.1306,-165.2153 93.1306,-165.2153 93.1306,-177.2153 93.1306,-177.2153 93.1306,-183.2153 87.1306,-189.2153 81.1306,-189.2153"/>
<text text-anchor="middle" x="58.5435" y="-167.0153" font-family="Verdana" font-size="14.00" fill="#000000">Decrypt</text>
</a>
</g>
</g>
<!-- (*github.com/go&#45;i2p/crypto/chacha20.ChaCha20PolyDecrypter).Decrypt&#45;&gt;(*github.com/go&#45;i2p/crypto/chacha20.ChaCha20PolyDecrypter).DecryptWithAd -->
<g id="edge3" class="edge">
<title>(*github.com/go&#45;i2p/crypto/chacha20.ChaCha20PolyDecrypter).Decrypt&#45;&gt;(*github.com/go&#45;i2p/crypto/chacha20.ChaCha20PolyDecrypter).DecryptWithAd</title>
<g id="a_edge3"><a xlink:title="at chacha20_decrypter.go:16: calling [(*github.com/go&#45;i2p/crypto/chacha20.ChaCha20PolyDecrypter).DecryptWithAd]">
<path fill="none" stroke="#000000" d="M93.459,-171.2153C111.6303,-171.2153 134.4765,-171.2153 155.913,-171.2153"/>
<polygon fill="#000000" stroke="#000000" points="155.9675,-174.7154 165.9675,-171.2153 155.9675,-167.7154 155.9675,-174.7154"/>
</a>
</g>
</g>
<!-- (*github.com/go&#45;i2p/crypto/chacha20.ChaCha20PolyEncrypter).EncryptWithAd -->
<g id="node10" class="node">
<title>(*github.com/go&#45;i2p/crypto/chacha20.ChaCha20PolyEncrypter).EncryptWithAd</title>
<g id="a_node10"><a xlink:title="(*github.com/go&#45;i2p/crypto/chacha20.ChaCha20PolyEncrypter).EncryptWithAd | defined in chacha20_encrypter.go:21&#10;at chacha20_encrypter.go:25: calling [golang.org/x/crypto/chacha20poly1305.New]&#10;at chacha20_encrypter.go:22: calling [(*github.com/go&#45;i2p/logger.Logger).WithField]&#10;at chacha20_encrypter.go:44: calling [(*github.com/go&#45;i2p/logger.Logger).WithField]&#10;at chacha20_encrypter.go:22: calling [(*github.com/sirupsen/logrus.Logger).Debug]&#10;at chacha20_encrypter.go:44: calling [(*github.com/sirupsen/logrus.Logger).Debug]&#10;at chacha20_encrypter.go:27: calling [github.com/samber/oops.Errorf]&#10;at chacha20_encrypter.go:31: calling [github.com/go&#45;i2p/crypto/chacha20.NewRandomNonce]">
<path fill="#add8e6" stroke="#000000" stroke-width="1.5" d="M268.1033,-419.2153C268.1033,-419.2153 178.2601,-419.2153 178.2601,-419.2153 172.2601,-419.2153 166.2601,-413.2153 166.2601,-407.2153 166.2601,-407.2153 166.2601,-395.2153 166.2601,-395.2153 166.2601,-389.2153 172.2601,-383.2153 178.2601,-383.2153 178.2601,-383.2153 268.1033,-383.2153 268.1033,-383.2153 274.1033,-383.2153 280.1033,-389.2153 280.1033,-395.2153 280.1033,-395.2153 280.1033,-407.2153 280.1033,-407.2153 280.1033,-413.2153 274.1033,-419.2153 268.1033,-419.2153"/>
<text text-anchor="middle" x="223.1817" y="-397.0153" font-family="Verdana" font-size="14.00" fill="#000000">EncryptWithAd</text>
</a>
</g>
</g>
<!-- (*github.com/go&#45;i2p/crypto/chacha20.ChaCha20PolyEncrypter).EncryptWithAd&#45;&gt;golang.org/x/crypto/chacha20poly1305.New -->
<g id="edge1" class="edge">
<title>(*github.com/go&#45;i2p/crypto/chacha20.ChaCha20PolyEncrypter).EncryptWithAd&#45;&gt;golang.org/x/crypto/chacha20poly1305.New</title>
<g id="a_edge1"><a xlink:title="at chacha20_encrypter.go:25: calling [golang.org/x/crypto/chacha20poly1305.New]">
<path fill="none" stroke="#8b4513" d="M279.9836,-401.2153C300.3265,-401.2153 323.5838,-401.2153 345.2431,-401.2153"/>
<polygon fill="#8b4513" stroke="#8b4513" points="345.3955,-404.7154 355.3955,-401.2153 345.3955,-397.7154 345.3955,-404.7154"/>
</a>
</g>
</g>
<!-- (*github.com/go&#45;i2p/crypto/chacha20.ChaCha20PolyEncrypter).EncryptWithAd&#45;&gt;github.com/samber/oops.Errorf -->
<g id="edge10" class="edge">
<title>(*github.com/go&#45;i2p/crypto/chacha20.ChaCha20PolyEncrypter).EncryptWithAd&#45;&gt;github.com/samber/oops.Errorf</title>
<g id="a_edge10"><a xlink:title="at chacha20_encrypter.go:27: calling [github.com/samber/oops.Errorf]">
<path fill="none" stroke="#8b4513" d="M280.0585,-417.1859C302.6674,-422.8973 329.0249,-428.7681 353.2764,-432.2153 433.9602,-443.6839 529.5284,-445.5488 581.9566,-445.5799"/>
<polygon fill="#8b4513" stroke="#8b4513" points="582.1652,-449.0797 592.1592,-445.5628 582.1533,-442.0797 582.1652,-449.0797"/>
</a>
</g>
</g>
<!-- (*github.com/go&#45;i2p/crypto/chacha20.ChaCha20PolyEncrypter).EncryptWithAd&#45;&gt;github.com/go&#45;i2p/crypto/chacha20.NewRandomNonce -->
<g id="edge18" class="edge">
<title>(*github.com/go&#45;i2p/crypto/chacha20.ChaCha20PolyEncrypter).EncryptWithAd&#45;&gt;github.com/go&#45;i2p/crypto/chacha20.NewRandomNonce</title>
<g id="a_edge18"><a xlink:title="at chacha20_encrypter.go:31: calling [github.com/go&#45;i2p/crypto/chacha20.NewRandomNonce]">
<path fill="none" stroke="#000000" d="M253.1653,-419.2404C271.1118,-429.6219 294.581,-442.4959 316.2764,-452.2153 328.4922,-457.6879 341.7839,-462.9242 354.6591,-467.6469"/>
<polygon fill="#000000" stroke="#000000" points="353.8046,-471.0591 364.399,-471.1537 356.176,-464.473 353.8046,-471.0591"/>
</a>
</g>
</g>
<!-- (*github.com/go&#45;i2p/crypto/chacha20.ChaCha20PolyEncrypter).EncryptWithAd&#45;&gt;(*github.com/go&#45;i2p/logger.Logger).WithField -->
<g id="edge4" class="edge">
<title>(*github.com/go&#45;i2p/crypto/chacha20.ChaCha20PolyEncrypter).EncryptWithAd&#45;&gt;(*github.com/go&#45;i2p/logger.Logger).WithField</title>
<g id="a_edge4"><a xlink:title="at chacha20_encrypter.go:22: calling [(*github.com/go&#45;i2p/logger.Logger).WithField]&#10;at chacha20_encrypter.go:44: calling [(*github.com/go&#45;i2p/logger.Logger).WithField]">
<path fill="none" stroke="#8b4513" d="M231.5333,-383.1819C249.01,-347.3925 292.8783,-267.0688 353.2764,-223.2153 358.4918,-219.4285 364.3944,-216.2697 370.483,-213.6405"/>
<polygon fill="#8b4513" stroke="#8b4513" points="372.0541,-216.7863 380.1319,-209.9307 369.5419,-210.2525 372.0541,-216.7863"/>
</a>
</g>
</g>
<!-- (*github.com/go&#45;i2p/crypto/chacha20.ChaCha20PolyEncrypter).EncryptWithAd&#45;&gt;(*github.com/sirupsen/logrus.Logger).Debug -->
<g id="edge5" class="edge">
<title>(*github.com/go&#45;i2p/crypto/chacha20.ChaCha20PolyEncrypter).EncryptWithAd&#45;&gt;(*github.com/sirupsen/logrus.Logger).Debug</title>
<g id="a_edge5"><a xlink:title="at chacha20_encrypter.go:22: calling [(*github.com/sirupsen/logrus.Logger).Debug]&#10;at chacha20_encrypter.go:44: calling [(*github.com/sirupsen/logrus.Logger).Debug]">
<path fill="none" stroke="#8b4513" d="M279.9836,-383.6534C311.959,-373.7673 351.1347,-361.655 379.9872,-352.7345"/>
<polygon fill="#8b4513" stroke="#8b4513" points="381.2135,-356.0189 389.7335,-349.7211 379.1458,-349.3312 381.2135,-356.0189"/>
</a>
</g>
</g>
<!-- (*github.com/go&#45;i2p/crypto/chacha20.ChaCha20PolyEncrypter).Encrypt -->
<g id="node11" class="node">
<title>(*github.com/go&#45;i2p/crypto/chacha20.ChaCha20PolyEncrypter).Encrypt</title>
<g id="a_node11"><a xlink:title="(*github.com/go&#45;i2p/crypto/chacha20.ChaCha20PolyEncrypter).Encrypt | defined in chacha20_encrypter.go:15&#10;at chacha20_encrypter.go:16: calling [(*github.com/go&#45;i2p/crypto/chacha20.ChaCha20PolyEncrypter).EncryptWithAd]">
<path fill="#add8e6" stroke="#000000" stroke-width="1.5" d="M80.8626,-419.2153C80.8626,-419.2153 36.2244,-419.2153 36.2244,-419.2153 30.2244,-419.2153 24.2244,-413.2153 24.2244,-407.2153 24.2244,-407.2153 24.2244,-395.2153 24.2244,-395.2153 24.2244,-389.2153 30.2244,-383.2153 36.2244,-383.2153 36.2244,-383.2153 80.8626,-383.2153 80.8626,-383.2153 86.8626,-383.2153 92.8626,-389.2153 92.8626,-395.2153 92.8626,-395.2153 92.8626,-407.2153 92.8626,-407.2153 92.8626,-413.2153 86.8626,-419.2153 80.8626,-419.2153"/>
<text text-anchor="middle" x="58.5435" y="-397.0153" font-family="Verdana" font-size="14.00" fill="#000000">Encrypt</text>
</a>
</g>
</g>
<!-- (*github.com/go&#45;i2p/crypto/chacha20.ChaCha20PolyEncrypter).Encrypt&#45;&gt;(*github.com/go&#45;i2p/crypto/chacha20.ChaCha20PolyEncrypter).EncryptWithAd -->
<g id="edge19" class="edge">
<title>(*github.com/go&#45;i2p/crypto/chacha20.ChaCha20PolyEncrypter).Encrypt&#45;&gt;(*github.com/go&#45;i2p/crypto/chacha20.ChaCha20PolyEncrypter).EncryptWithAd</title>
<g id="a_edge19"><a xlink:title="at chacha20_encrypter.go:16: calling [(*github.com/go&#45;i2p/crypto/chacha20.ChaCha20PolyEncrypter).EncryptWithAd]">
<path fill="none" stroke="#000000" d="M93.0571,-401.2153C111.3721,-401.2153 134.5186,-401.2153 156.1948,-401.2153"/>
<polygon fill="#000000" stroke="#000000" points="156.3578,-404.7154 166.3578,-401.2153 156.3578,-397.7154 156.3578,-404.7154"/>
</a>
</g>
</g>
</g>
</svg>
