<?xml version="1.0" encoding="UTF-8" standalone="no"?>
<!DOCTYPE svg PUBLIC "-//W3C//DTD SVG 1.1//EN"
 "http://www.w3.org/Graphics/SVG/1.1/DTD/svg11.dtd">
<!-- Generated by graphviz version 2.40.1 (20161225.0304)
 -->
<!-- Title: gocallvis Pages: 1 -->
<svg width="691pt" height="887pt"
 viewBox="0.00 0.00 691.20 887.00" xmlns="http://www.w3.org/2000/svg" xmlns:xlink="http://www.w3.org/1999/xlink">
<g id="graph0" class="graph" transform="scale(1 1) rotate(0) translate(0 887)">
<title>gocallvis</title>
<polygon fill="#d3d3d3" stroke="transparent" points="0,0 0,-887 691.1952,-887 691.1952,0 0,0"/>
<g id="clust1" class="cluster">
<title>cluster_focus</title>
<polygon fill="#e6ecfa" stroke="#000000" stroke-width=".5" points="0,-8 0,-879 683.1952,-879 683.1952,-8 0,-8"/>
<text text-anchor="middle" x="341.5976" y="-858.8" font-family="Arial" font-size="18.00" fill="#000000">ed25519</text>
</g>
<g id="clust7" class="cluster">
<title>cluster_github.com/go&#45;i2p/crypto/ed25519.Ed25519PrivateKey</title>
<g id="a_clust7"><a xlink:title="type: github.com/go&#45;i2p/crypto/ed25519.Ed25519PrivateKey">
<path fill="#b0c4de" stroke="#000000" stroke-width=".5" d="M296.3781,-87C296.3781,-87 430.3543,-87 430.3543,-87 436.3543,-87 442.3543,-93 442.3543,-99 442.3543,-99 442.3543,-275 442.3543,-275 442.3543,-281 436.3543,-287 430.3543,-287 430.3543,-287 296.3781,-287 296.3781,-287 290.3781,-287 284.3781,-281 284.3781,-275 284.3781,-275 284.3781,-99 284.3781,-99 284.3781,-93 290.3781,-87 296.3781,-87"/>
<text text-anchor="middle" x="363.3662" y="-95.5" font-family="Arial" font-size="15.00" fill="#222222">(Ed25519PrivateKey)</text>
</a>
</g>
</g>
<g id="clust6" class="cluster">
<title>cluster_*github.com/sirupsen/logrus.Logger</title>
<g id="a_clust6"><a xlink:title="type: *github.com/sirupsen/logrus.Logger">
<path fill="#eed8ae" stroke="#000000" stroke-width=".5" d="M587.9399,-720C587.9399,-720 642.2611,-720 642.2611,-720 648.2611,-720 654.2611,-726 654.2611,-732 654.2611,-732 654.2611,-786 654.2611,-786 654.2611,-792 648.2611,-798 642.2611,-798 642.2611,-798 587.9399,-798 587.9399,-798 581.9399,-798 575.9399,-792 575.9399,-786 575.9399,-786 575.9399,-732 575.9399,-732 575.9399,-726 581.9399,-720 587.9399,-720"/>
<text text-anchor="middle" x="615.1005" y="-728.5" font-family="Arial" font-size="15.00" fill="#222222">(*Logger)</text>
</a>
</g>
</g>
<g id="clust5" class="cluster">
<title>cluster_*github.com/go&#45;i2p/logger.Logger</title>
<g id="a_clust5"><a xlink:title="type: *github.com/go&#45;i2p/logger.Logger">
<path fill="#eed8ae" stroke="#000000" stroke-width=".5" d="M575.4911,-379C575.4911,-379 653.7099,-379 653.7099,-379 659.7099,-379 665.7099,-385 665.7099,-391 665.7099,-391 665.7099,-628 665.7099,-628 665.7099,-634 659.7099,-640 653.7099,-640 653.7099,-640 575.4911,-640 575.4911,-640 569.4911,-640 563.4911,-634 563.4911,-628 563.4911,-628 563.4911,-391 563.4911,-391 563.4911,-385 569.4911,-379 575.4911,-379"/>
<text text-anchor="middle" x="614.6005" y="-387.5" font-family="Arial" font-size="15.00" fill="#222222">(*Logger)</text>
</a>
</g>
</g>
<g id="clust4" class="cluster">
<title>cluster_*github.com/go&#45;i2p/crypto/ed25519.Ed25519Verifier</title>
<g id="a_clust4"><a xlink:title="type: *github.com/go&#45;i2p/crypto/ed25519.Ed25519Verifier">
<path fill="#b0c4de" stroke="#000000" stroke-width=".5" d="M63.0968,-409C63.0968,-409 403.5156,-409 403.5156,-409 409.5156,-409 415.5156,-415 415.5156,-421 415.5156,-421 415.5156,-475 415.5156,-475 415.5156,-481 409.5156,-487 403.5156,-487 403.5156,-487 63.0968,-487 63.0968,-487 57.0968,-487 51.0968,-481 51.0968,-475 51.0968,-475 51.0968,-421 51.0968,-421 51.0968,-415 57.0968,-409 63.0968,-409"/>
<text text-anchor="middle" x="233.3062" y="-417.5" font-family="Arial" font-size="15.00" fill="#222222">(*Ed25519Verifier)</text>
</a>
</g>
</g>
<g id="clust3" class="cluster">
<title>cluster_*github.com/go&#45;i2p/crypto/ed25519.Ed25519Signer</title>
<g id="a_clust3"><a xlink:title="type: *github.com/go&#45;i2p/crypto/ed25519.Ed25519Signer">
<path fill="#b0c4de" stroke="#000000" stroke-width=".5" d="M66.3633,-744C66.3633,-744 398.0857,-744 398.0857,-744 404.0857,-744 410.0857,-750 410.0857,-756 410.0857,-756 410.0857,-810 410.0857,-810 410.0857,-816 404.0857,-822 398.0857,-822 398.0857,-822 66.3633,-822 66.3633,-822 60.3633,-822 54.3633,-816 54.3633,-810 54.3633,-810 54.3633,-756 54.3633,-756 54.3633,-750 60.3633,-744 66.3633,-744"/>
<text text-anchor="middle" x="232.2245" y="-752.5" font-family="Arial" font-size="15.00" fill="#222222">(*Ed25519Signer)</text>
</a>
</g>
</g>
<g id="clust2" class="cluster">
<title>cluster_*github.com/go&#45;i2p/crypto/ed25519.Ed25519PrivateKey</title>
<g id="a_clust2"><a xlink:title="type: *github.com/go&#45;i2p/crypto/ed25519.Ed25519PrivateKey">
<path fill="#b0c4de" stroke="#000000" stroke-width=".5" d="M20,-63C20,-63 159.7266,-63 159.7266,-63 165.7266,-63 171.7266,-69 171.7266,-75 171.7266,-75 171.7266,-129 171.7266,-129 171.7266,-135 165.7266,-141 159.7266,-141 159.7266,-141 20,-141 20,-141 14,-141 8,-135 8,-129 8,-129 8,-75 8,-75 8,-69 14,-63 20,-63"/>
<text text-anchor="middle" x="89.8633" y="-71.5" font-family="Arial" font-size="15.00" fill="#222222">(*Ed25519PrivateKey)</text>
</a>
</g>
</g>
<!-- github.com/samber/oops.Errorf -->
<g id="node1" class="node">
<title>github.com/samber/oops.Errorf</title>
<g id="a_node1"><a xlink:title="github.com/samber/oops.Errorf | defined in oops.go:34">
<path fill="#ffe4b5" stroke="#000000" stroke-width="1.5" d="M631.7958,-264C631.7958,-264 597.4052,-264 597.4052,-264 591.4052,-264 585.4052,-258 585.4052,-252 585.4052,-252 585.4052,-240 585.4052,-240 585.4052,-234 591.4052,-228 597.4052,-228 597.4052,-228 631.7958,-228 631.7958,-228 637.7958,-228 643.7958,-234 643.7958,-240 643.7958,-240 643.7958,-252 643.7958,-252 643.7958,-258 637.7958,-264 631.7958,-264"/>
<text text-anchor="middle" x="614.6005" y="-250.2" font-family="Verdana" font-size="14.00" fill="#000000">oops</text>
<text text-anchor="middle" x="614.6005" y="-233.4" font-family="Verdana" font-size="14.00" fill="#000000">Errorf</text>
</a>
</g>
</g>
<!-- github.com/go&#45;i2p/crypto/ed25519.init -->
<g id="node2" class="node">
<title>github.com/go&#45;i2p/crypto/ed25519.init</title>
<g id="a_node2"><a xlink:title="github.com/go&#45;i2p/crypto/ed25519.init | defined in .:0&#10;at constants.go:15: calling [github.com/samber/oops.Errorf]&#10;at constants.go:10: calling [github.com/go&#45;i2p/logger.GetGoI2PLogger]">
<path fill="#add8e6" stroke="#000000" stroke-width=".5" d="M377.8662,-401C377.8662,-401 347.8662,-401 347.8662,-401 341.8662,-401 335.8662,-395 335.8662,-389 335.8662,-389 335.8662,-377 335.8662,-377 335.8662,-371 341.8662,-365 347.8662,-365 347.8662,-365 377.8662,-365 377.8662,-365 383.8662,-365 389.8662,-371 389.8662,-377 389.8662,-377 389.8662,-389 389.8662,-389 389.8662,-395 383.8662,-401 377.8662,-401"/>
<text text-anchor="middle" x="362.8662" y="-378.8" font-family="Verdana" font-size="14.00" fill="#000000">init</text>
</a>
</g>
</g>
<!-- github.com/go&#45;i2p/crypto/ed25519.init&#45;&gt;github.com/samber/oops.Errorf -->
<g id="edge14" class="edge">
<title>github.com/go&#45;i2p/crypto/ed25519.init&#45;&gt;github.com/samber/oops.Errorf</title>
<g id="a_edge14"><a xlink:title="at constants.go:15: calling [github.com/samber/oops.Errorf]">
<path fill="none" stroke="#8b4513" d="M390.0474,-379.9557C414.9259,-376.2993 452.1477,-368.5901 481.0058,-353 500.1024,-342.6834 500.34,-333.9055 517.0058,-320 537.77,-302.6749 561.9901,-284.3003 581.1075,-270.1948"/>
<polygon fill="#8b4513" stroke="#8b4513" points="583.242,-272.9697 589.2317,-264.2304 579.0994,-267.3271 583.242,-272.9697"/>
</a>
</g>
</g>
<!-- github.com/go&#45;i2p/logger.GetGoI2PLogger -->
<g id="node3" class="node">
<title>github.com/go&#45;i2p/logger.GetGoI2PLogger</title>
<g id="a_node3"><a xlink:title="github.com/go&#45;i2p/logger.GetGoI2PLogger | defined in log.go:120">
<path fill="#ffe4b5" stroke="#000000" stroke-width="1.5" d="M663.29,-371C663.29,-371 565.911,-371 565.911,-371 559.911,-371 553.911,-365 553.911,-359 553.911,-359 553.911,-347 553.911,-347 553.911,-341 559.911,-335 565.911,-335 565.911,-335 663.29,-335 663.29,-335 669.29,-335 675.29,-341 675.29,-347 675.29,-347 675.29,-359 675.29,-359 675.29,-365 669.29,-371 663.29,-371"/>
<text text-anchor="middle" x="614.6005" y="-357.2" font-family="Verdana" font-size="14.00" fill="#000000">logger</text>
<text text-anchor="middle" x="614.6005" y="-340.4" font-family="Verdana" font-size="14.00" fill="#000000">GetGoI2PLogger</text>
</a>
</g>
</g>
<!-- github.com/go&#45;i2p/crypto/ed25519.init&#45;&gt;github.com/go&#45;i2p/logger.GetGoI2PLogger -->
<g id="edge20" class="edge">
<title>github.com/go&#45;i2p/crypto/ed25519.init&#45;&gt;github.com/go&#45;i2p/logger.GetGoI2PLogger</title>
<g id="a_edge20"><a xlink:title="at constants.go:10: calling [github.com/go&#45;i2p/logger.GetGoI2PLogger]">
<path fill="none" stroke="#8b4513" d="M390.2854,-379.7324C426.8418,-375.3758 492.8542,-367.5089 543.8375,-361.4331"/>
<polygon fill="#8b4513" stroke="#8b4513" points="544.3051,-364.9022 553.8206,-360.2433 543.4767,-357.9514 544.3051,-364.9022"/>
</a>
</g>
</g>
<!-- github.com/go&#45;i2p/crypto/ed25519.CreateEd25519PrivateKeyFromBytes -->
<g id="node4" class="node">
<title>github.com/go&#45;i2p/crypto/ed25519.CreateEd25519PrivateKeyFromBytes</title>
<g id="a_node4"><a xlink:title="github.com/go&#45;i2p/crypto/ed25519.CreateEd25519PrivateKeyFromBytes | defined in ed25519_private_key.go:74&#10;at ed25519_private_key.go:76: calling [github.com/samber/oops.Errorf]">
<path fill="#add8e6" stroke="#000000" stroke-width="1.5" d="M469.1456,-340C469.1456,-340 256.5868,-340 256.5868,-340 250.5868,-340 244.5868,-334 244.5868,-328 244.5868,-328 244.5868,-316 244.5868,-316 244.5868,-310 250.5868,-304 256.5868,-304 256.5868,-304 469.1456,-304 469.1456,-304 475.1456,-304 481.1456,-310 481.1456,-316 481.1456,-316 481.1456,-328 481.1456,-328 481.1456,-334 475.1456,-340 469.1456,-340"/>
<text text-anchor="middle" x="362.8662" y="-317.8" font-family="Verdana" font-size="14.00" fill="#000000">CreateEd25519PrivateKeyFromBytes</text>
</a>
</g>
</g>
<!-- github.com/go&#45;i2p/crypto/ed25519.CreateEd25519PrivateKeyFromBytes&#45;&gt;github.com/samber/oops.Errorf -->
<g id="edge2" class="edge">
<title>github.com/go&#45;i2p/crypto/ed25519.CreateEd25519PrivateKeyFromBytes&#45;&gt;github.com/samber/oops.Errorf</title>
<g id="a_edge2"><a xlink:title="at ed25519_private_key.go:76: calling [github.com/samber/oops.Errorf]">
<path fill="none" stroke="#8b4513" d="M441.0034,-303.9618C454.4078,-300.5418 468.1531,-296.8284 481.0058,-293 513.2878,-283.3842 549.2779,-270.6001 575.7622,-260.7926"/>
<polygon fill="#8b4513" stroke="#8b4513" points="577.2722,-263.965 585.4196,-257.1923 574.8269,-257.406 577.2722,-263.965"/>
</a>
</g>
</g>
<!-- github.com/go&#45;i2p/crypto/ed25519.createEd25519PublicKey -->
<g id="node5" class="node">
<title>github.com/go&#45;i2p/crypto/ed25519.createEd25519PublicKey</title>
<g id="a_node5"><a xlink:title="github.com/go&#45;i2p/crypto/ed25519.createEd25519PublicKey | defined in ed25519_public_key.go:33&#10;at ed25519_public_key.go:41: calling [(*github.com/go&#45;i2p/logger.Logger).Warn]&#10;at ed25519_public_key.go:34: calling [(*github.com/sirupsen/logrus.Logger).Debug]&#10;at ed25519_public_key.go:39: calling [(*github.com/sirupsen/logrus.Logger).Debug]&#10;at ed25519_public_key.go:34: calling [(*github.com/go&#45;i2p/logger.Logger).WithField]">
<path fill="#add8e6" stroke="#000000" stroke-width=".5" d="M434.428,-621C434.428,-621 291.3044,-621 291.3044,-621 285.3044,-621 279.3044,-615 279.3044,-609 279.3044,-609 279.3044,-597 279.3044,-597 279.3044,-591 285.3044,-585 291.3044,-585 291.3044,-585 434.428,-585 434.428,-585 440.428,-585 446.428,-591 446.428,-597 446.428,-597 446.428,-609 446.428,-609 446.428,-615 440.428,-621 434.428,-621"/>
<text text-anchor="middle" x="362.8662" y="-598.8" font-family="Verdana" font-size="14.00" fill="#000000">createEd25519PublicKey</text>
</a>
</g>
</g>
<!-- (*github.com/go&#45;i2p/logger.Logger).WithField -->
<g id="node13" class="node">
<title>(*github.com/go&#45;i2p/logger.Logger).WithField</title>
<g id="a_node13"><a xlink:title="(*github.com/go&#45;i2p/logger.Logger).WithField | defined in log.go:54">
<path fill="#ffe4b5" stroke="#000000" stroke-width="1.5" d="M642.875,-632C642.875,-632 586.326,-632 586.326,-632 580.326,-632 574.326,-626 574.326,-620 574.326,-620 574.326,-608 574.326,-608 574.326,-602 580.326,-596 586.326,-596 586.326,-596 642.875,-596 642.875,-596 648.875,-596 654.875,-602 654.875,-608 654.875,-608 654.875,-620 654.875,-620 654.875,-626 648.875,-632 642.875,-632"/>
<text text-anchor="middle" x="614.6005" y="-618.2" font-family="Verdana" font-size="14.00" fill="#000000">logger</text>
<text text-anchor="middle" x="614.6005" y="-601.4" font-family="Verdana" font-size="14.00" fill="#000000">WithField</text>
</a>
</g>
</g>
<!-- github.com/go&#45;i2p/crypto/ed25519.createEd25519PublicKey&#45;&gt;(*github.com/go&#45;i2p/logger.Logger).WithField -->
<g id="edge28" class="edge">
<title>github.com/go&#45;i2p/crypto/ed25519.createEd25519PublicKey&#45;&gt;(*github.com/go&#45;i2p/logger.Logger).WithField</title>
<g id="a_edge28"><a xlink:title="at ed25519_public_key.go:34: calling [(*github.com/go&#45;i2p/logger.Logger).WithField]">
<path fill="none" stroke="#8b4513" d="M446.6901,-606.6628C485.5755,-608.362 530.5093,-610.3255 564.1037,-611.7935"/>
<polygon fill="#8b4513" stroke="#8b4513" points="564.003,-615.2923 574.1463,-612.2323 564.3087,-608.299 564.003,-615.2923"/>
</a>
</g>
</g>
<!-- (*github.com/go&#45;i2p/logger.Logger).Warn -->
<g id="node16" class="node">
<title>(*github.com/go&#45;i2p/logger.Logger).Warn</title>
<g id="a_node16"><a xlink:title="(*github.com/go&#45;i2p/logger.Logger).Warn | defined in log.go:30">
<path fill="#ffe4b5" stroke="#000000" stroke-width="1.5" d="M632.3668,-510C632.3668,-510 596.8342,-510 596.8342,-510 590.8342,-510 584.8342,-504 584.8342,-498 584.8342,-498 584.8342,-486 584.8342,-486 584.8342,-480 590.8342,-474 596.8342,-474 596.8342,-474 632.3668,-474 632.3668,-474 638.3668,-474 644.3668,-480 644.3668,-486 644.3668,-486 644.3668,-498 644.3668,-498 644.3668,-504 638.3668,-510 632.3668,-510"/>
<text text-anchor="middle" x="614.6005" y="-496.2" font-family="Verdana" font-size="14.00" fill="#000000">logger</text>
<text text-anchor="middle" x="614.6005" y="-479.4" font-family="Verdana" font-size="14.00" fill="#000000">Warn</text>
</a>
</g>
</g>
<!-- github.com/go&#45;i2p/crypto/ed25519.createEd25519PublicKey&#45;&gt;(*github.com/go&#45;i2p/logger.Logger).Warn -->
<g id="edge11" class="edge">
<title>github.com/go&#45;i2p/crypto/ed25519.createEd25519PublicKey&#45;&gt;(*github.com/go&#45;i2p/logger.Logger).Warn</title>
<g id="a_edge11"><a xlink:title="at ed25519_public_key.go:41: calling [(*github.com/go&#45;i2p/logger.Logger).Warn]">
<path fill="none" stroke="#8b4513" d="M403.8719,-584.9189C451.3159,-563.9989 528.8702,-529.802 575.493,-509.2441"/>
<polygon fill="#8b4513" stroke="#8b4513" points="576.9308,-512.4354 584.6686,-505.1982 574.1065,-506.0304 576.9308,-512.4354"/>
</a>
</g>
</g>
<!-- (*github.com/sirupsen/logrus.Logger).Debug -->
<g id="node17" class="node">
<title>(*github.com/sirupsen/logrus.Logger).Debug</title>
<g id="a_node17"><a xlink:title="(*github.com/sirupsen/logrus.Logger).Debug | defined in logger.go:221">
<path fill="#ffe4b5" stroke="#000000" stroke-width="1.5" d="M633.4225,-790C633.4225,-790 595.7785,-790 595.7785,-790 589.7785,-790 583.7785,-784 583.7785,-778 583.7785,-778 583.7785,-766 583.7785,-766 583.7785,-760 589.7785,-754 595.7785,-754 595.7785,-754 633.4225,-754 633.4225,-754 639.4225,-754 645.4225,-760 645.4225,-766 645.4225,-766 645.4225,-778 645.4225,-778 645.4225,-784 639.4225,-790 633.4225,-790"/>
<text text-anchor="middle" x="614.6005" y="-776.2" font-family="Verdana" font-size="14.00" fill="#000000">logrus</text>
<text text-anchor="middle" x="614.6005" y="-759.4" font-family="Verdana" font-size="14.00" fill="#000000">Debug</text>
</a>
</g>
</g>
<!-- github.com/go&#45;i2p/crypto/ed25519.createEd25519PublicKey&#45;&gt;(*github.com/sirupsen/logrus.Logger).Debug -->
<g id="edge22" class="edge">
<title>github.com/go&#45;i2p/crypto/ed25519.createEd25519PublicKey&#45;&gt;(*github.com/sirupsen/logrus.Logger).Debug</title>
<g id="a_edge22"><a xlink:title="at ed25519_public_key.go:34: calling [(*github.com/sirupsen/logrus.Logger).Debug]&#10;at ed25519_public_key.go:39: calling [(*github.com/sirupsen/logrus.Logger).Debug]">
<path fill="none" stroke="#8b4513" d="M446.5183,-614.9869C458.9997,-619.483 471.0106,-625.6238 481.0058,-634 510.2695,-658.5238 491.6584,-683.4468 517.0058,-712 532.8503,-729.8484 555.2838,-744.1472 574.6481,-754.3025"/>
<polygon fill="#8b4513" stroke="#8b4513" points="573.075,-757.4291 583.579,-758.8133 576.2309,-751.1808 573.075,-757.4291"/>
</a>
</g>
</g>
<!-- github.com/go&#45;i2p/crypto/ed25519.CreateEd25519PublicKeyFromBytes -->
<g id="node6" class="node">
<title>github.com/go&#45;i2p/crypto/ed25519.CreateEd25519PublicKeyFromBytes</title>
<g id="a_node6"><a xlink:title="github.com/go&#45;i2p/crypto/ed25519.CreateEd25519PublicKeyFromBytes | defined in ed25519_public_key.go:46&#10;at ed25519_public_key.go:47: calling [(*github.com/go&#45;i2p/logger.Logger).WithField]&#10;at ed25519_public_key.go:50: calling [(*github.com/go&#45;i2p/logger.Logger).WithField]&#10;at ed25519_public_key.go:47: calling [(*github.com/sirupsen/logrus.Logger).Debug]&#10;at ed25519_public_key.go:55: calling [(*github.com/sirupsen/logrus.Logger).Debug]&#10;at ed25519_public_key.go:50: calling [(*github.com/go&#45;i2p/logger.Logger).Error]">
<path fill="#add8e6" stroke="#000000" stroke-width="1.5" d="M467.2706,-682C467.2706,-682 258.4618,-682 258.4618,-682 252.4618,-682 246.4618,-676 246.4618,-670 246.4618,-670 246.4618,-658 246.4618,-658 246.4618,-652 252.4618,-646 258.4618,-646 258.4618,-646 467.2706,-646 467.2706,-646 473.2706,-646 479.2706,-652 479.2706,-658 479.2706,-658 479.2706,-670 479.2706,-670 479.2706,-676 473.2706,-682 467.2706,-682"/>
<text text-anchor="middle" x="362.8662" y="-659.8" font-family="Verdana" font-size="14.00" fill="#000000">CreateEd25519PublicKeyFromBytes</text>
</a>
</g>
</g>
<!-- github.com/go&#45;i2p/crypto/ed25519.CreateEd25519PublicKeyFromBytes&#45;&gt;(*github.com/go&#45;i2p/logger.Logger).WithField -->
<g id="edge8" class="edge">
<title>github.com/go&#45;i2p/crypto/ed25519.CreateEd25519PublicKeyFromBytes&#45;&gt;(*github.com/go&#45;i2p/logger.Logger).WithField</title>
<g id="a_edge8"><a xlink:title="at ed25519_public_key.go:47: calling [(*github.com/go&#45;i2p/logger.Logger).WithField]&#10;at ed25519_public_key.go:50: calling [(*github.com/go&#45;i2p/logger.Logger).WithField]">
<path fill="none" stroke="#8b4513" d="M453.7481,-645.9489C490.9823,-638.5533 532.6536,-630.2765 564.251,-624.0005"/>
<polygon fill="#8b4513" stroke="#8b4513" points="565.0111,-627.418 574.1376,-622.0368 563.6473,-620.5521 565.0111,-627.418"/>
</a>
</g>
</g>
<!-- (*github.com/go&#45;i2p/logger.Logger).Error -->
<g id="node15" class="node">
<title>(*github.com/go&#45;i2p/logger.Logger).Error</title>
<g id="a_node15"><a xlink:title="(*github.com/go&#45;i2p/logger.Logger).Error | defined in log.go:42">
<path fill="#ffe4b5" stroke="#000000" stroke-width="1.5" d="M632.3668,-571C632.3668,-571 596.8342,-571 596.8342,-571 590.8342,-571 584.8342,-565 584.8342,-559 584.8342,-559 584.8342,-547 584.8342,-547 584.8342,-541 590.8342,-535 596.8342,-535 596.8342,-535 632.3668,-535 632.3668,-535 638.3668,-535 644.3668,-541 644.3668,-547 644.3668,-547 644.3668,-559 644.3668,-559 644.3668,-565 638.3668,-571 632.3668,-571"/>
<text text-anchor="middle" x="614.6005" y="-557.2" font-family="Verdana" font-size="14.00" fill="#000000">logger</text>
<text text-anchor="middle" x="614.6005" y="-540.4" font-family="Verdana" font-size="14.00" fill="#000000">Error</text>
</a>
</g>
</g>
<!-- github.com/go&#45;i2p/crypto/ed25519.CreateEd25519PublicKeyFromBytes&#45;&gt;(*github.com/go&#45;i2p/logger.Logger).Error -->
<g id="edge29" class="edge">
<title>github.com/go&#45;i2p/crypto/ed25519.CreateEd25519PublicKeyFromBytes&#45;&gt;(*github.com/go&#45;i2p/logger.Logger).Error</title>
<g id="a_edge29"><a xlink:title="at ed25519_public_key.go:50: calling [(*github.com/go&#45;i2p/logger.Logger).Error]">
<path fill="none" stroke="#8b4513" d="M448.9474,-645.9439C459.943,-642.5381 470.8827,-638.5768 481.0058,-634 516.8389,-617.7994 520.2099,-604.1074 554.0058,-584 560.8606,-579.9216 568.3132,-575.8388 575.5719,-572.0373"/>
<polygon fill="#8b4513" stroke="#8b4513" points="577.3099,-575.0793 584.6029,-567.3941 574.1091,-568.8539 577.3099,-575.0793"/>
</a>
</g>
</g>
<!-- github.com/go&#45;i2p/crypto/ed25519.CreateEd25519PublicKeyFromBytes&#45;&gt;(*github.com/sirupsen/logrus.Logger).Debug -->
<g id="edge23" class="edge">
<title>github.com/go&#45;i2p/crypto/ed25519.CreateEd25519PublicKeyFromBytes&#45;&gt;(*github.com/sirupsen/logrus.Logger).Debug</title>
<g id="a_edge23"><a xlink:title="at ed25519_public_key.go:47: calling [(*github.com/sirupsen/logrus.Logger).Debug]&#10;at ed25519_public_key.go:55: calling [(*github.com/sirupsen/logrus.Logger).Debug]">
<path fill="none" stroke="#8b4513" d="M396.8852,-682.1005C427.7461,-698.1459 474.745,-721.6554 517.0058,-739 535.4022,-746.5502 556.2273,-753.7666 573.9017,-759.5151"/>
<polygon fill="#8b4513" stroke="#8b4513" points="573.3107,-763.001 583.9018,-762.7215 575.448,-756.3353 573.3107,-763.001"/>
</a>
</g>
</g>
<!-- github.com/go&#45;i2p/crypto/ed25519.GenerateEd25519Key -->
<g id="node7" class="node">
<title>github.com/go&#45;i2p/crypto/ed25519.GenerateEd25519Key</title>
<g id="a_node7"><a xlink:title="github.com/go&#45;i2p/crypto/ed25519.GenerateEd25519Key | defined in utils.go:14&#10;at utils.go:17: calling [github.com/samber/oops.Errorf]">
<path fill="#add8e6" stroke="#000000" stroke-width="1.5" d="M425.2567,-52C425.2567,-52 300.4757,-52 300.4757,-52 294.4757,-52 288.4757,-46 288.4757,-40 288.4757,-40 288.4757,-28 288.4757,-28 288.4757,-22 294.4757,-16 300.4757,-16 300.4757,-16 425.2567,-16 425.2567,-16 431.2567,-16 437.2567,-22 437.2567,-28 437.2567,-28 437.2567,-40 437.2567,-40 437.2567,-46 431.2567,-52 425.2567,-52"/>
<text text-anchor="middle" x="362.8662" y="-29.8" font-family="Verdana" font-size="14.00" fill="#000000">GenerateEd25519Key</text>
</a>
</g>
</g>
<!-- github.com/go&#45;i2p/crypto/ed25519.GenerateEd25519Key&#45;&gt;github.com/samber/oops.Errorf -->
<g id="edge12" class="edge">
<title>github.com/go&#45;i2p/crypto/ed25519.GenerateEd25519Key&#45;&gt;github.com/samber/oops.Errorf</title>
<g id="a_edge12"><a xlink:title="at utils.go:17: calling [github.com/samber/oops.Errorf]">
<path fill="none" stroke="#8b4513" d="M437.361,-39.1321C464.8967,-44.1007 494.9757,-53.4822 518.0058,-71 567.4476,-108.6079 594.9745,-179.1848 607.0603,-218.237"/>
<polygon fill="#8b4513" stroke="#8b4513" points="603.73,-219.3174 609.935,-227.9051 610.4397,-217.3223 603.73,-219.3174"/>
</a>
</g>
</g>
<!-- (*github.com/go&#45;i2p/crypto/ed25519.Ed25519PrivateKey).NewVerifier -->
<g id="node8" class="node">
<title>(*github.com/go&#45;i2p/crypto/ed25519.Ed25519PrivateKey).NewVerifier</title>
<g id="a_node8"><a xlink:title="(*github.com/go&#45;i2p/crypto/ed25519.Ed25519PrivateKey).NewVerifier | defined in ed25519_private_key.go:15&#10;at ed25519_private_key.go:19: calling [(github.com/go&#45;i2p/crypto/ed25519.Ed25519PrivateKey).Public]&#10;at ed25519_private_key.go:17: calling [github.com/samber/oops.Errorf]&#10;at ed25519_private_key.go:21: calling [github.com/samber/oops.Errorf]">
<path fill="#add8e6" stroke="#000000" stroke-width="1.5" d="M124.5903,-133C124.5903,-133 54.1363,-133 54.1363,-133 48.1363,-133 42.1363,-127 42.1363,-121 42.1363,-121 42.1363,-109 42.1363,-109 42.1363,-103 48.1363,-97 54.1363,-97 54.1363,-97 124.5903,-97 124.5903,-97 130.5903,-97 136.5903,-103 136.5903,-109 136.5903,-109 136.5903,-121 136.5903,-121 136.5903,-127 130.5903,-133 124.5903,-133"/>
<text text-anchor="middle" x="89.3633" y="-110.8" font-family="Verdana" font-size="14.00" fill="#000000">NewVerifier</text>
</a>
</g>
</g>
<!-- (*github.com/go&#45;i2p/crypto/ed25519.Ed25519PrivateKey).NewVerifier&#45;&gt;github.com/samber/oops.Errorf -->
<g id="edge9" class="edge">
<title>(*github.com/go&#45;i2p/crypto/ed25519.Ed25519PrivateKey).NewVerifier&#45;&gt;github.com/samber/oops.Errorf</title>
<g id="a_edge9"><a xlink:title="at ed25519_private_key.go:17: calling [github.com/samber/oops.Errorf]&#10;at ed25519_private_key.go:21: calling [github.com/samber/oops.Errorf]">
<path fill="none" stroke="#8b4513" d="M136.9166,-102.5912C167.4727,-95.2696 208.1515,-86.7275 244.7266,-83 296.9625,-77.6764 433.5477,-60.5353 481.0058,-83 540.456,-111.1413 582.2885,-180.1354 601.9312,-218.7315"/>
<polygon fill="#8b4513" stroke="#8b4513" points="598.8702,-220.4373 606.4442,-227.8457 605.1433,-217.331 598.8702,-220.4373"/>
</a>
</g>
</g>
<!-- (github.com/go&#45;i2p/crypto/ed25519.Ed25519PrivateKey).Public -->
<g id="node18" class="node">
<title>(github.com/go&#45;i2p/crypto/ed25519.Ed25519PrivateKey).Public</title>
<g id="a_node18"><a xlink:title="(github.com/go&#45;i2p/crypto/ed25519.Ed25519PrivateKey).Public | defined in ed25519_private_key.go:62&#10;at ed25519_private_key.go:65: calling [github.com/samber/oops.Errorf]">
<path fill="#add8e6" stroke="#000000" stroke-width="1.5" d="M380.645,-218C380.645,-218 345.0874,-218 345.0874,-218 339.0874,-218 333.0874,-212 333.0874,-206 333.0874,-206 333.0874,-194 333.0874,-194 333.0874,-188 339.0874,-182 345.0874,-182 345.0874,-182 380.645,-182 380.645,-182 386.645,-182 392.645,-188 392.645,-194 392.645,-194 392.645,-206 392.645,-206 392.645,-212 386.645,-218 380.645,-218"/>
<text text-anchor="middle" x="362.8662" y="-195.8" font-family="Verdana" font-size="14.00" fill="#000000">Public</text>
</a>
</g>
</g>
<!-- (*github.com/go&#45;i2p/crypto/ed25519.Ed25519PrivateKey).NewVerifier&#45;&gt;(github.com/go&#45;i2p/crypto/ed25519.Ed25519PrivateKey).Public -->
<g id="edge4" class="edge">
<title>(*github.com/go&#45;i2p/crypto/ed25519.Ed25519PrivateKey).NewVerifier&#45;&gt;(github.com/go&#45;i2p/crypto/ed25519.Ed25519PrivateKey).Public</title>
<g id="a_edge4"><a xlink:title="at ed25519_private_key.go:19: calling [(github.com/go&#45;i2p/crypto/ed25519.Ed25519PrivateKey).Public]">
<path fill="none" stroke="#000000" d="M136.9309,-133.1132C167.4925,-144.4332 208.1723,-158.9139 244.7266,-170 270.6575,-177.8643 300.2056,-185.3671 323.2643,-190.9025"/>
<polygon fill="#000000" stroke="#000000" points="322.5039,-194.3191 333.0421,-193.2254 324.1219,-187.5087 322.5039,-194.3191"/>
</a>
</g>
</g>
<!-- (*github.com/go&#45;i2p/crypto/ed25519.Ed25519Signer).SignHash -->
<g id="node9" class="node">
<title>(*github.com/go&#45;i2p/crypto/ed25519.Ed25519Signer).SignHash</title>
<g id="a_node9"><a xlink:title="(*github.com/go&#45;i2p/crypto/ed25519.Ed25519Signer).SignHash | defined in ed25519_signer.go:27&#10;at ed25519_signer.go:28: calling [(*github.com/sirupsen/logrus.Logger).Debug]&#10;at ed25519_signer.go:30: calling [(*github.com/sirupsen/logrus.Logger).Debug]&#10;at ed25519_signer.go:28: calling [(*github.com/go&#45;i2p/logger.Logger).WithField]&#10;at ed25519_signer.go:30: calling [(*github.com/go&#45;i2p/logger.Logger).WithField]">
<path fill="#add8e6" stroke="#000000" stroke-width="1.5" d="M390.3064,-814C390.3064,-814 335.426,-814 335.426,-814 329.426,-814 323.426,-808 323.426,-802 323.426,-802 323.426,-790 323.426,-790 323.426,-784 329.426,-778 335.426,-778 335.426,-778 390.3064,-778 390.3064,-778 396.3064,-778 402.3064,-784 402.3064,-790 402.3064,-790 402.3064,-802 402.3064,-802 402.3064,-808 396.3064,-814 390.3064,-814"/>
<text text-anchor="middle" x="362.8662" y="-791.8" font-family="Verdana" font-size="14.00" fill="#000000">SignHash</text>
</a>
</g>
</g>
<!-- (*github.com/go&#45;i2p/crypto/ed25519.Ed25519Signer).SignHash&#45;&gt;(*github.com/go&#45;i2p/logger.Logger).WithField -->
<g id="edge19" class="edge">
<title>(*github.com/go&#45;i2p/crypto/ed25519.Ed25519Signer).SignHash&#45;&gt;(*github.com/go&#45;i2p/logger.Logger).WithField</title>
<g id="a_edge19"><a xlink:title="at ed25519_signer.go:28: calling [(*github.com/go&#45;i2p/logger.Logger).WithField]&#10;at ed25519_signer.go:30: calling [(*github.com/go&#45;i2p/logger.Logger).WithField]">
<path fill="none" stroke="#8b4513" d="M390.3309,-777.6949C414.4357,-761.5049 450.3335,-737.0913 481.0058,-715 516.3462,-689.5466 556.0675,-659.3013 582.944,-638.5859"/>
<polygon fill="#8b4513" stroke="#8b4513" points="585.4211,-641.0952 591.1969,-632.2131 581.1428,-635.5547 585.4211,-641.0952"/>
</a>
</g>
</g>
<!-- (*github.com/go&#45;i2p/crypto/ed25519.Ed25519Signer).SignHash&#45;&gt;(*github.com/sirupsen/logrus.Logger).Debug -->
<g id="edge10" class="edge">
<title>(*github.com/go&#45;i2p/crypto/ed25519.Ed25519Signer).SignHash&#45;&gt;(*github.com/sirupsen/logrus.Logger).Debug</title>
<g id="a_edge10"><a xlink:title="at ed25519_signer.go:28: calling [(*github.com/sirupsen/logrus.Logger).Debug]&#10;at ed25519_signer.go:30: calling [(*github.com/sirupsen/logrus.Logger).Debug]">
<path fill="none" stroke="#8b4513" d="M402.2221,-797.3452C433.6675,-797.9136 478.8086,-797.5953 518.0058,-793 536.3557,-790.8487 556.3547,-786.793 573.3706,-782.8151"/>
<polygon fill="#8b4513" stroke="#8b4513" points="574.6362,-786.1104 583.5385,-780.366 572.997,-779.305 574.6362,-786.1104"/>
</a>
</g>
</g>
<!-- (*github.com/go&#45;i2p/crypto/ed25519.Ed25519Signer).Sign -->
<g id="node10" class="node">
<title>(*github.com/go&#45;i2p/crypto/ed25519.Ed25519Signer).Sign</title>
<g id="a_node10"><a xlink:title="(*github.com/go&#45;i2p/crypto/ed25519.Ed25519Signer).Sign | defined in ed25519_signer.go:14&#10;at ed25519_signer.go:15: calling [(*github.com/sirupsen/logrus.Logger).Debug]&#10;at ed25519_signer.go:18: calling [(*github.com/go&#45;i2p/logger.Logger).Error]&#10;at ed25519_signer.go:23: calling [(*github.com/go&#45;i2p/crypto/ed25519.Ed25519Signer).SignHash]&#10;at ed25519_signer.go:15: calling [(*github.com/go&#45;i2p/logger.Logger).WithField]&#10;at ed25519_signer.go:19: calling [github.com/samber/oops.Errorf]">
<path fill="#add8e6" stroke="#000000" stroke-width="1.5" d="M104.3633,-814C104.3633,-814 74.3633,-814 74.3633,-814 68.3633,-814 62.3633,-808 62.3633,-802 62.3633,-802 62.3633,-790 62.3633,-790 62.3633,-784 68.3633,-778 74.3633,-778 74.3633,-778 104.3633,-778 104.3633,-778 110.3633,-778 116.3633,-784 116.3633,-790 116.3633,-790 116.3633,-802 116.3633,-802 116.3633,-808 110.3633,-814 104.3633,-814"/>
<text text-anchor="middle" x="89.3633" y="-791.8" font-family="Verdana" font-size="14.00" fill="#000000">Sign</text>
</a>
</g>
</g>
<!-- (*github.com/go&#45;i2p/crypto/ed25519.Ed25519Signer).Sign&#45;&gt;github.com/samber/oops.Errorf -->
<g id="edge27" class="edge">
<title>(*github.com/go&#45;i2p/crypto/ed25519.Ed25519Signer).Sign&#45;&gt;github.com/samber/oops.Errorf</title>
<g id="a_edge27"><a xlink:title="at ed25519_signer.go:19: calling [github.com/samber/oops.Errorf]">
<path fill="none" stroke="#8b4513" d="M93.3936,-777.7587C105.7438,-726.6385 148.236,-581.5811 244.7266,-518 332.9038,-459.897 396.01,-555.665 481.0058,-493 514.0977,-468.6023 533.0032,-358.3442 554.0058,-323 564.6842,-305.0297 579.0728,-286.5697 591.1493,-272.2306"/>
<polygon fill="#8b4513" stroke="#8b4513" points="594.097,-274.1697 597.947,-264.2991 588.7819,-269.6144 594.097,-274.1697"/>
</a>
</g>
</g>
<!-- (*github.com/go&#45;i2p/crypto/ed25519.Ed25519Signer).Sign&#45;&gt;(*github.com/go&#45;i2p/crypto/ed25519.Ed25519Signer).SignHash -->
<g id="edge25" class="edge">
<title>(*github.com/go&#45;i2p/crypto/ed25519.Ed25519Signer).Sign&#45;&gt;(*github.com/go&#45;i2p/crypto/ed25519.Ed25519Signer).SignHash</title>
<g id="a_edge25"><a xlink:title="at ed25519_signer.go:23: calling [(*github.com/go&#45;i2p/crypto/ed25519.Ed25519Signer).SignHash]">
<path fill="none" stroke="#000000" d="M116.5877,-796C162.3793,-796 255.4556,-796 313.1552,-796"/>
<polygon fill="#000000" stroke="#000000" points="313.498,-799.5001 323.4979,-796 313.4979,-792.5001 313.498,-799.5001"/>
</a>
</g>
</g>
<!-- (*github.com/go&#45;i2p/crypto/ed25519.Ed25519Signer).Sign&#45;&gt;(*github.com/go&#45;i2p/logger.Logger).WithField -->
<g id="edge26" class="edge">
<title>(*github.com/go&#45;i2p/crypto/ed25519.Ed25519Signer).Sign&#45;&gt;(*github.com/go&#45;i2p/logger.Logger).WithField</title>
<g id="a_edge26"><a xlink:title="at ed25519_signer.go:15: calling [(*github.com/go&#45;i2p/logger.Logger).WithField]">
<path fill="none" stroke="#8b4513" d="M116.5129,-790.8537C193.8088,-775.9979 413.801,-732.242 481.0058,-703 491.5632,-698.4063 544.1583,-662.6578 580.1199,-637.8904"/>
<polygon fill="#8b4513" stroke="#8b4513" points="582.1732,-640.726 588.418,-632.1672 578.1989,-634.9637 582.1732,-640.726"/>
</a>
</g>
</g>
<!-- (*github.com/go&#45;i2p/crypto/ed25519.Ed25519Signer).Sign&#45;&gt;(*github.com/go&#45;i2p/logger.Logger).Error -->
<g id="edge7" class="edge">
<title>(*github.com/go&#45;i2p/crypto/ed25519.Ed25519Signer).Sign&#45;&gt;(*github.com/go&#45;i2p/logger.Logger).Error</title>
<g id="a_edge7"><a xlink:title="at ed25519_signer.go:18: calling [(*github.com/go&#45;i2p/logger.Logger).Error]">
<path fill="none" stroke="#8b4513" d="M95.1351,-777.9218C110.7334,-732.4337 158.4736,-613.3516 244.7266,-564 350.754,-503.334 503.3347,-526.7207 574.8165,-542.7666"/>
<polygon fill="#8b4513" stroke="#8b4513" points="574.2274,-546.2227 584.7593,-545.0698 575.8072,-539.4033 574.2274,-546.2227"/>
</a>
</g>
</g>
<!-- (*github.com/go&#45;i2p/crypto/ed25519.Ed25519Signer).Sign&#45;&gt;(*github.com/sirupsen/logrus.Logger).Debug -->
<g id="edge1" class="edge">
<title>(*github.com/go&#45;i2p/crypto/ed25519.Ed25519Signer).Sign&#45;&gt;(*github.com/sirupsen/logrus.Logger).Debug</title>
<g id="a_edge1"><a xlink:title="at ed25519_signer.go:15: calling [(*github.com/sirupsen/logrus.Logger).Debug]">
<path fill="none" stroke="#8b4513" d="M116.7246,-803.2426C180.9619,-819.1486 346.1824,-853.6672 481.0058,-827 513.8772,-820.4983 548.8223,-805.8044 574.7249,-793.2391"/>
<polygon fill="#8b4513" stroke="#8b4513" points="576.4307,-796.3 583.8383,-788.7252 573.3237,-790.0273 576.4307,-796.3"/>
</a>
</g>
</g>
<!-- (*github.com/go&#45;i2p/crypto/ed25519.Ed25519Verifier).VerifyHash -->
<g id="node11" class="node">
<title>(*github.com/go&#45;i2p/crypto/ed25519.Ed25519Verifier).VerifyHash</title>
<g id="a_node11"><a xlink:title="(*github.com/go&#45;i2p/crypto/ed25519.Ed25519Verifier).VerifyHash | defined in ed25519_verifier.go:16&#10;at ed25519_verifier.go:17: calling [(*github.com/go&#45;i2p/logger.Logger).WithFields]&#10;at ed25519_verifier.go:23: calling [(*github.com/go&#45;i2p/logger.Logger).Error]&#10;at ed25519_verifier.go:28: calling [(*github.com/go&#45;i2p/logger.Logger).Error]&#10;at ed25519_verifier.go:29: calling [github.com/samber/oops.Errorf]&#10;at ed25519_verifier.go:36: calling [github.com/samber/oops.Errorf]&#10;at ed25519_verifier.go:35: calling [(*github.com/go&#45;i2p/logger.Logger).Warn]&#10;at ed25519_verifier.go:20: calling [(*github.com/sirupsen/logrus.Logger).Debug]&#10;at ed25519_verifier.go:38: calling [(*github.com/sirupsen/logrus.Logger).Debug]">
<path fill="#add8e6" stroke="#000000" stroke-width="1.5" d="M395.6655,-479C395.6655,-479 330.0669,-479 330.0669,-479 324.0669,-479 318.0669,-473 318.0669,-467 318.0669,-467 318.0669,-455 318.0669,-455 318.0669,-449 324.0669,-443 330.0669,-443 330.0669,-443 395.6655,-443 395.6655,-443 401.6655,-443 407.6655,-449 407.6655,-455 407.6655,-455 407.6655,-467 407.6655,-467 407.6655,-473 401.6655,-479 395.6655,-479"/>
<text text-anchor="middle" x="362.8662" y="-456.8" font-family="Verdana" font-size="14.00" fill="#000000">VerifyHash</text>
</a>
</g>
</g>
<!-- (*github.com/go&#45;i2p/crypto/ed25519.Ed25519Verifier).VerifyHash&#45;&gt;github.com/samber/oops.Errorf -->
<g id="edge16" class="edge">
<title>(*github.com/go&#45;i2p/crypto/ed25519.Ed25519Verifier).VerifyHash&#45;&gt;github.com/samber/oops.Errorf</title>
<g id="a_edge16"><a xlink:title="at ed25519_verifier.go:29: calling [github.com/samber/oops.Errorf]&#10;at ed25519_verifier.go:36: calling [github.com/samber/oops.Errorf]">
<path fill="none" stroke="#8b4513" d="M407.6484,-462.7021C431.8122,-461.3435 460.7479,-455.7523 481.0058,-439 514.8427,-411.0185 493.2888,-383.9514 517.0058,-347 535.6919,-317.8869 563.6412,-290.0219 584.8473,-270.9633"/>
<polygon fill="#8b4513" stroke="#8b4513" points="587.4331,-273.3492 592.6112,-264.1059 582.7991,-268.1026 587.4331,-273.3492"/>
</a>
</g>
</g>
<!-- (*github.com/go&#45;i2p/logger.Logger).WithFields -->
<g id="node14" class="node">
<title>(*github.com/go&#45;i2p/logger.Logger).WithFields</title>
<g id="a_node14"><a xlink:title="(*github.com/go&#45;i2p/logger.Logger).WithFields | defined in log.go:60">
<path fill="#ffe4b5" stroke="#000000" stroke-width="1.5" d="M645.8196,-449C645.8196,-449 583.3814,-449 583.3814,-449 577.3814,-449 571.3814,-443 571.3814,-437 571.3814,-437 571.3814,-425 571.3814,-425 571.3814,-419 577.3814,-413 583.3814,-413 583.3814,-413 645.8196,-413 645.8196,-413 651.8196,-413 657.8196,-419 657.8196,-425 657.8196,-425 657.8196,-437 657.8196,-437 657.8196,-443 651.8196,-449 645.8196,-449"/>
<text text-anchor="middle" x="614.6005" y="-435.2" font-family="Verdana" font-size="14.00" fill="#000000">logger</text>
<text text-anchor="middle" x="614.6005" y="-418.4" font-family="Verdana" font-size="14.00" fill="#000000">WithFields</text>
</a>
</g>
</g>
<!-- (*github.com/go&#45;i2p/crypto/ed25519.Ed25519Verifier).VerifyHash&#45;&gt;(*github.com/go&#45;i2p/logger.Logger).WithFields -->
<g id="edge6" class="edge">
<title>(*github.com/go&#45;i2p/crypto/ed25519.Ed25519Verifier).VerifyHash&#45;&gt;(*github.com/go&#45;i2p/logger.Logger).WithFields</title>
<g id="a_edge6"><a xlink:title="at ed25519_verifier.go:17: calling [(*github.com/go&#45;i2p/logger.Logger).WithFields]">
<path fill="none" stroke="#8b4513" d="M407.7186,-453.8704C429.8981,-450.0351 456.9937,-444.8845 481.0058,-439 497.6685,-434.9165 500.8521,-427.7337 518.0058,-428 532.0452,-428.218 547.2282,-428.614 561.3069,-429.0484"/>
<polygon fill="#8b4513" stroke="#8b4513" points="561.224,-432.5475 571.331,-429.3695 561.4482,-425.5511 561.224,-432.5475"/>
</a>
</g>
</g>
<!-- (*github.com/go&#45;i2p/crypto/ed25519.Ed25519Verifier).VerifyHash&#45;&gt;(*github.com/go&#45;i2p/logger.Logger).Error -->
<g id="edge15" class="edge">
<title>(*github.com/go&#45;i2p/crypto/ed25519.Ed25519Verifier).VerifyHash&#45;&gt;(*github.com/go&#45;i2p/logger.Logger).Error</title>
<g id="a_edge15"><a xlink:title="at ed25519_verifier.go:23: calling [(*github.com/go&#45;i2p/logger.Logger).Error]&#10;at ed25519_verifier.go:28: calling [(*github.com/go&#45;i2p/logger.Logger).Error]">
<path fill="none" stroke="#8b4513" d="M407.5812,-477.3417C455.0988,-494.7078 529.5166,-521.9048 574.9908,-538.5241"/>
<polygon fill="#8b4513" stroke="#8b4513" points="573.9175,-541.8582 584.5113,-542.0035 576.3204,-535.2835 573.9175,-541.8582"/>
</a>
</g>
</g>
<!-- (*github.com/go&#45;i2p/crypto/ed25519.Ed25519Verifier).VerifyHash&#45;&gt;(*github.com/go&#45;i2p/logger.Logger).Warn -->
<g id="edge21" class="edge">
<title>(*github.com/go&#45;i2p/crypto/ed25519.Ed25519Verifier).VerifyHash&#45;&gt;(*github.com/go&#45;i2p/logger.Logger).Warn</title>
<g id="a_edge21"><a xlink:title="at ed25519_verifier.go:35: calling [(*github.com/go&#45;i2p/logger.Logger).Warn]">
<path fill="none" stroke="#8b4513" d="M407.5701,-460.2003C438.6921,-460.2598 481.0713,-461.5706 518.0058,-467 536.9168,-469.7799 557.4715,-474.8081 574.7394,-479.6299"/>
<polygon fill="#8b4513" stroke="#8b4513" points="573.912,-483.0336 584.4894,-482.4265 575.842,-476.3049 573.912,-483.0336"/>
</a>
</g>
</g>
<!-- (*github.com/go&#45;i2p/crypto/ed25519.Ed25519Verifier).VerifyHash&#45;&gt;(*github.com/sirupsen/logrus.Logger).Debug -->
<g id="edge24" class="edge">
<title>(*github.com/go&#45;i2p/crypto/ed25519.Ed25519Verifier).VerifyHash&#45;&gt;(*github.com/sirupsen/logrus.Logger).Debug</title>
<g id="a_edge24"><a xlink:title="at ed25519_verifier.go:20: calling [(*github.com/sirupsen/logrus.Logger).Debug]&#10;at ed25519_verifier.go:38: calling [(*github.com/sirupsen/logrus.Logger).Debug]">
<path fill="none" stroke="#8b4513" d="M407.6282,-459.6961C431.6388,-461.2004 460.433,-466.804 481.0058,-483 543.3754,-532.1007 520.5794,-574.0034 554.0058,-646 569.8671,-680.1635 588.7636,-719.2057 601.1878,-744.6596"/>
<polygon fill="#8b4513" stroke="#8b4513" points="598.0764,-746.2644 605.6128,-753.7112 604.3652,-743.1901 598.0764,-746.2644"/>
</a>
</g>
</g>
<!-- (*github.com/go&#45;i2p/crypto/ed25519.Ed25519Verifier).Verify -->
<g id="node12" class="node">
<title>(*github.com/go&#45;i2p/crypto/ed25519.Ed25519Verifier).Verify</title>
<g id="a_node12"><a xlink:title="(*github.com/go&#45;i2p/crypto/ed25519.Ed25519Verifier).Verify | defined in ed25519_verifier.go:43&#10;at ed25519_verifier.go:50: calling [(*github.com/go&#45;i2p/crypto/ed25519.Ed25519Verifier).VerifyHash]&#10;at ed25519_verifier.go:47: calling [(*github.com/sirupsen/logrus.Logger).Debug]&#10;at ed25519_verifier.go:44: calling [(*github.com/go&#45;i2p/logger.Logger).WithFields]">
<path fill="#add8e6" stroke="#000000" stroke-width="1.5" d="M107.3981,-479C107.3981,-479 71.3285,-479 71.3285,-479 65.3285,-479 59.3285,-473 59.3285,-467 59.3285,-467 59.3285,-455 59.3285,-455 59.3285,-449 65.3285,-443 71.3285,-443 71.3285,-443 107.3981,-443 107.3981,-443 113.3981,-443 119.3981,-449 119.3981,-455 119.3981,-455 119.3981,-467 119.3981,-467 119.3981,-473 113.3981,-479 107.3981,-479"/>
<text text-anchor="middle" x="89.3633" y="-456.8" font-family="Verdana" font-size="14.00" fill="#000000">Verify</text>
</a>
</g>
</g>
<!-- (*github.com/go&#45;i2p/crypto/ed25519.Ed25519Verifier).Verify&#45;&gt;(*github.com/go&#45;i2p/crypto/ed25519.Ed25519Verifier).VerifyHash -->
<g id="edge3" class="edge">
<title>(*github.com/go&#45;i2p/crypto/ed25519.Ed25519Verifier).Verify&#45;&gt;(*github.com/go&#45;i2p/crypto/ed25519.Ed25519Verifier).VerifyHash</title>
<g id="a_edge3"><a xlink:title="at ed25519_verifier.go:50: calling [(*github.com/go&#45;i2p/crypto/ed25519.Ed25519Verifier).VerifyHash]">
<path fill="none" stroke="#000000" d="M119.4153,-461C164.6153,-461 250.8363,-461 307.5906,-461"/>
<polygon fill="#000000" stroke="#000000" points="307.8285,-464.5001 317.8285,-461 307.8284,-457.5001 307.8285,-464.5001"/>
</a>
</g>
</g>
<!-- (*github.com/go&#45;i2p/crypto/ed25519.Ed25519Verifier).Verify&#45;&gt;(*github.com/go&#45;i2p/logger.Logger).WithFields -->
<g id="edge18" class="edge">
<title>(*github.com/go&#45;i2p/crypto/ed25519.Ed25519Verifier).Verify&#45;&gt;(*github.com/go&#45;i2p/logger.Logger).WithFields</title>
<g id="a_edge18"><a xlink:title="at ed25519_verifier.go:44: calling [(*github.com/go&#45;i2p/logger.Logger).WithFields]">
<path fill="none" stroke="#8b4513" d="M119.4638,-468.8401C150.5703,-476.5076 200.6589,-487.6464 244.7266,-492 349.2308,-502.3242 387.9875,-540.7372 481.0058,-492 505.9043,-478.9544 492.7332,-454.1763 517.0058,-440 530.1377,-432.3304 545.9957,-428.9191 561.0758,-427.7275"/>
<polygon fill="#8b4513" stroke="#8b4513" points="561.5287,-431.2098 571.3485,-427.2322 561.1915,-424.218 561.5287,-431.2098"/>
</a>
</g>
</g>
<!-- (*github.com/go&#45;i2p/crypto/ed25519.Ed25519Verifier).Verify&#45;&gt;(*github.com/sirupsen/logrus.Logger).Debug -->
<g id="edge13" class="edge">
<title>(*github.com/go&#45;i2p/crypto/ed25519.Ed25519Verifier).Verify&#45;&gt;(*github.com/sirupsen/logrus.Logger).Debug</title>
<g id="a_edge13"><a xlink:title="at ed25519_verifier.go:47: calling [(*github.com/sirupsen/logrus.Logger).Debug]">
<path fill="none" stroke="#8b4513" d="M93.4915,-479.3289C105.9789,-529.9424 148.5516,-671.7377 244.7266,-730 289.6755,-757.2298 433.5992,-717.3177 481.0058,-740 502.8806,-750.4663 494.9146,-770.9987 517.0058,-781 534.5805,-788.9566 555.731,-788.1001 573.8428,-784.6763"/>
<polygon fill="#8b4513" stroke="#8b4513" points="574.8121,-788.0468 583.827,-782.4807 573.3087,-781.2102 574.8121,-788.0468"/>
</a>
</g>
</g>
<!-- (github.com/go&#45;i2p/crypto/ed25519.Ed25519PrivateKey).Public&#45;&gt;github.com/samber/oops.Errorf -->
<g id="edge30" class="edge">
<title>(github.com/go&#45;i2p/crypto/ed25519.Ed25519PrivateKey).Public&#45;&gt;github.com/samber/oops.Errorf</title>
<g id="a_edge30"><a xlink:title="at ed25519_private_key.go:65: calling [github.com/samber/oops.Errorf]">
<path fill="none" stroke="#8b4513" d="M392.732,-205.4574C438.1797,-213.7622 524.7401,-229.5796 575.26,-238.8112"/>
<polygon fill="#8b4513" stroke="#8b4513" points="574.6968,-242.2662 585.1631,-240.6208 575.9551,-235.3802 574.6968,-242.2662"/>
</a>
</g>
</g>
<!-- (github.com/go&#45;i2p/crypto/ed25519.Ed25519PrivateKey).NewSigner -->
<g id="node19" class="node">
<title>(github.com/go&#45;i2p/crypto/ed25519.Ed25519PrivateKey).NewSigner</title>
<g id="a_node19"><a xlink:title="(github.com/go&#45;i2p/crypto/ed25519.Ed25519PrivateKey).NewSigner | defined in ed25519_private_key.go:40&#10;at ed25519_private_key.go:42: calling [github.com/samber/oops.Errorf]">
<path fill="#add8e6" stroke="#000000" stroke-width="1.5" d="M394.3424,-279C394.3424,-279 331.39,-279 331.39,-279 325.39,-279 319.39,-273 319.39,-267 319.39,-267 319.39,-255 319.39,-255 319.39,-249 325.39,-243 331.39,-243 331.39,-243 394.3424,-243 394.3424,-243 400.3424,-243 406.3424,-249 406.3424,-255 406.3424,-255 406.3424,-267 406.3424,-267 406.3424,-273 400.3424,-279 394.3424,-279"/>
<text text-anchor="middle" x="362.8662" y="-256.8" font-family="Verdana" font-size="14.00" fill="#000000">NewSigner</text>
</a>
</g>
</g>
<!-- (github.com/go&#45;i2p/crypto/ed25519.Ed25519PrivateKey).NewSigner&#45;&gt;github.com/samber/oops.Errorf -->
<g id="edge5" class="edge">
<title>(github.com/go&#45;i2p/crypto/ed25519.Ed25519PrivateKey).NewSigner&#45;&gt;github.com/samber/oops.Errorf</title>
<g id="a_edge5"><a xlink:title="at ed25519_private_key.go:42: calling [github.com/samber/oops.Errorf]">
<path fill="none" stroke="#8b4513" d="M406.4276,-258.4043C453.9487,-255.5727 529.3432,-251.0802 575.1701,-248.3495"/>
<polygon fill="#8b4513" stroke="#8b4513" points="575.5396,-251.8338 585.3137,-247.7451 575.1232,-244.8462 575.5396,-251.8338"/>
</a>
</g>
</g>
<!-- (github.com/go&#45;i2p/crypto/ed25519.Ed25519PrivateKey).Generate -->
<g id="node20" class="node">
<title>(github.com/go&#45;i2p/crypto/ed25519.Ed25519PrivateKey).Generate</title>
<g id="a_node20"><a xlink:title="(github.com/go&#45;i2p/crypto/ed25519.Ed25519PrivateKey).Generate | defined in ed25519_private_key.go:51&#10;at ed25519_private_key.go:54: calling [github.com/samber/oops.Errorf]">
<path fill="#add8e6" stroke="#000000" stroke-width="1.5" d="M387.884,-157C387.884,-157 337.8484,-157 337.8484,-157 331.8484,-157 325.8484,-151 325.8484,-145 325.8484,-145 325.8484,-133 325.8484,-133 325.8484,-127 331.8484,-121 337.8484,-121 337.8484,-121 387.884,-121 387.884,-121 393.884,-121 399.884,-127 399.884,-133 399.884,-133 399.884,-145 399.884,-145 399.884,-151 393.884,-157 387.884,-157"/>
<text text-anchor="middle" x="362.8662" y="-134.8" font-family="Verdana" font-size="14.00" fill="#000000">Generate</text>
</a>
</g>
</g>
<!-- (github.com/go&#45;i2p/crypto/ed25519.Ed25519PrivateKey).Generate&#45;&gt;github.com/samber/oops.Errorf -->
<g id="edge17" class="edge">
<title>(github.com/go&#45;i2p/crypto/ed25519.Ed25519PrivateKey).Generate&#45;&gt;github.com/samber/oops.Errorf</title>
<g id="a_edge17"><a xlink:title="at ed25519_private_key.go:54: calling [github.com/samber/oops.Errorf]">
<path fill="none" stroke="#8b4513" d="M400.1228,-146.1639C423.7891,-151.3468 454.7902,-159.3182 481.0058,-170 515.8623,-184.2026 552.866,-205.8274 579.0685,-222.3833"/>
<polygon fill="#8b4513" stroke="#8b4513" points="577.2107,-225.3497 587.5217,-227.7855 580.9802,-219.4513 577.2107,-225.3497"/>
</a>
</g>
</g>
</g>
</svg>
