<?xml version="1.0" encoding="UTF-8" standalone="no"?>
<!DOCTYPE svg PUBLIC "-//W3C//DTD SVG 1.1//EN"
 "http://www.w3.org/Graphics/SVG/1.1/DTD/svg11.dtd">
<!-- Generated by graphviz version 2.40.1 (20161225.0304)
 -->
<!-- Title: gocallvis Pages: 1 -->
<svg width="640pt" height="1028pt"
 viewBox="0.00 0.00 639.95 1028.00" xmlns="http://www.w3.org/2000/svg" xmlns:xlink="http://www.w3.org/1999/xlink">
<g id="graph0" class="graph" transform="scale(1 1) rotate(0) translate(0 1028)">
<title>gocallvis</title>
<polygon fill="#d3d3d3" stroke="transparent" points="0,0 0,-1028 639.954,-1028 639.954,0 0,0"/>
<g id="clust1" class="cluster">
<title>cluster_focus</title>
<polygon fill="#e6ecfa" stroke="#000000" stroke-width=".5" points="8,-8 8,-1020 631.954,-1020 631.954,-8 8,-8"/>
<text text-anchor="middle" x="319.977" y="-999.8" font-family="Arial" font-size="18.00" fill="#000000">ratchet</text>
</g>
<g id="clust6" class="cluster">
<title>cluster_go.step.sm/crypto/x25519.PrivateKey</title>
<g id="a_clust6"><a xlink:title="type: go.step.sm/crypto/x25519.PrivateKey">
<path fill="#eed8ae" stroke="#000000" stroke-width=".5" d="M533.7604,-172C533.7604,-172 611.954,-172 611.954,-172 617.954,-172 623.954,-178 623.954,-184 623.954,-184 623.954,-299 623.954,-299 623.954,-305 617.954,-311 611.954,-311 611.954,-311 533.7604,-311 533.7604,-311 527.7604,-311 521.7604,-305 521.7604,-299 521.7604,-299 521.7604,-184 521.7604,-184 521.7604,-178 527.7604,-172 533.7604,-172"/>
<text text-anchor="middle" x="572.8572" y="-180.5" font-family="Arial" font-size="15.00" fill="#222222">(PrivateKey)</text>
</a>
</g>
</g>
<g id="clust5" class="cluster">
<title>cluster_*github.com/sirupsen/logrus.Logger</title>
<g id="a_clust5"><a xlink:title="type: *github.com/sirupsen/logrus.Logger">
<path fill="#eed8ae" stroke="#000000" stroke-width=".5" d="M354.341,-610C354.341,-610 408.6622,-610 408.6622,-610 414.6622,-610 420.6622,-616 420.6622,-622 420.6622,-622 420.6622,-676 420.6622,-676 420.6622,-682 414.6622,-688 408.6622,-688 408.6622,-688 354.341,-688 354.341,-688 348.341,-688 342.341,-682 342.341,-676 342.341,-676 342.341,-622 342.341,-622 342.341,-616 348.341,-610 354.341,-610"/>
<text text-anchor="middle" x="381.5016" y="-618.5" font-family="Arial" font-size="15.00" fill="#222222">(*Logger)</text>
</a>
</g>
</g>
<g id="clust4" class="cluster">
<title>cluster_*github.com/go&#45;i2p/crypto/ratchet.TagRatchet</title>
<g id="a_clust4"><a xlink:title="type: *github.com/go&#45;i2p/crypto/ratchet.TagRatchet">
<path fill="#b0c4de" stroke="#000000" stroke-width=".5" d="M70.3738,-843C70.3738,-843 417.3754,-843 417.3754,-843 423.3754,-843 429.3754,-849 429.3754,-855 429.3754,-855 429.3754,-970 429.3754,-970 429.3754,-976 423.3754,-982 417.3754,-982 417.3754,-982 70.3738,-982 70.3738,-982 64.3738,-982 58.3738,-976 58.3738,-970 58.3738,-970 58.3738,-855 58.3738,-855 58.3738,-849 64.3738,-843 70.3738,-843"/>
<text text-anchor="middle" x="243.8746" y="-851.5" font-family="Arial" font-size="15.00" fill="#222222">(*TagRatchet)</text>
</a>
</g>
</g>
<g id="clust3" class="cluster">
<title>cluster_*github.com/go&#45;i2p/crypto/ratchet.SymmetricRatchet</title>
<g id="a_clust3"><a xlink:title="type: *github.com/go&#45;i2p/crypto/ratchet.SymmetricRatchet">
<path fill="#b0c4de" stroke="#000000" stroke-width=".5" d="M28,-696C28,-696 444.1945,-696 444.1945,-696 450.1945,-696 456.1945,-702 456.1945,-708 456.1945,-708 456.1945,-823 456.1945,-823 456.1945,-829 450.1945,-835 444.1945,-835 444.1945,-835 28,-835 28,-835 22,-835 16,-829 16,-823 16,-823 16,-708 16,-708 16,-702 22,-696 28,-696"/>
<text text-anchor="middle" x="236.0972" y="-704.5" font-family="Arial" font-size="15.00" fill="#222222">(*SymmetricRatchet)</text>
</a>
</g>
</g>
<g id="clust2" class="cluster">
<title>cluster_*github.com/go&#45;i2p/crypto/ratchet.DHRatchet</title>
<g id="a_clust2"><a xlink:title="type: *github.com/go&#45;i2p/crypto/ratchet.DHRatchet">
<path fill="#b0c4de" stroke="#000000" stroke-width=".5" d="M58.7146,-121C58.7146,-121 421.6517,-121 421.6517,-121 427.6517,-121 433.6517,-127 433.6517,-133 433.6517,-133 433.6517,-370 433.6517,-370 433.6517,-376 427.6517,-382 421.6517,-382 421.6517,-382 58.7146,-382 58.7146,-382 52.7146,-382 46.7146,-376 46.7146,-370 46.7146,-370 46.7146,-133 46.7146,-133 46.7146,-127 52.7146,-121 58.7146,-121"/>
<text text-anchor="middle" x="240.1831" y="-129.5" font-family="Arial" font-size="15.00" fill="#222222">(*DHRatchet)</text>
</a>
</g>
</g>
<!-- github.com/go&#45;i2p/crypto/ratchet.init -->
<g id="node1" class="node">
<title>github.com/go&#45;i2p/crypto/ratchet.init</title>
<g id="a_node1"><a xlink:title="github.com/go&#45;i2p/crypto/ratchet.init | defined in .:0&#10;at constants.go:18: calling [github.com/go&#45;i2p/logger.GetGoI2PLogger]&#10;at constants.go:36: calling [github.com/samber/oops.Errorf]&#10;at constants.go:37: calling [github.com/samber/oops.Errorf]&#10;at constants.go:38: calling [github.com/samber/oops.Errorf]&#10;at constants.go:39: calling [github.com/samber/oops.Errorf]&#10;at constants.go:40: calling [github.com/samber/oops.Errorf]&#10;at constants.go:41: calling [github.com/samber/oops.Errorf]">
<path fill="#add8e6" stroke="#000000" stroke-width=".5" d="M143.1214,-82C143.1214,-82 113.1214,-82 113.1214,-82 107.1214,-82 101.1214,-76 101.1214,-70 101.1214,-70 101.1214,-58 101.1214,-58 101.1214,-52 107.1214,-46 113.1214,-46 113.1214,-46 143.1214,-46 143.1214,-46 149.1214,-46 155.1214,-52 155.1214,-58 155.1214,-58 155.1214,-70 155.1214,-70 155.1214,-76 149.1214,-82 143.1214,-82"/>
<text text-anchor="middle" x="128.1214" y="-59.8" font-family="Verdana" font-size="14.00" fill="#000000">init</text>
</a>
</g>
</g>
<!-- github.com/go&#45;i2p/logger.GetGoI2PLogger -->
<g id="node2" class="node">
<title>github.com/go&#45;i2p/logger.GetGoI2PLogger</title>
<g id="a_node2"><a xlink:title="github.com/go&#45;i2p/logger.GetGoI2PLogger | defined in log.go:148">
<path fill="#ffe4b5" stroke="#000000" stroke-width="1.5" d="M429.6911,-113C429.6911,-113 332.3121,-113 332.3121,-113 326.3121,-113 320.3121,-107 320.3121,-101 320.3121,-101 320.3121,-89 320.3121,-89 320.3121,-83 326.3121,-77 332.3121,-77 332.3121,-77 429.6911,-77 429.6911,-77 435.6911,-77 441.6911,-83 441.6911,-89 441.6911,-89 441.6911,-101 441.6911,-101 441.6911,-107 435.6911,-113 429.6911,-113"/>
<text text-anchor="middle" x="381.0016" y="-99.2" font-family="Verdana" font-size="14.00" fill="#000000">logger</text>
<text text-anchor="middle" x="381.0016" y="-82.4" font-family="Verdana" font-size="14.00" fill="#000000">GetGoI2PLogger</text>
</a>
</g>
</g>
<!-- github.com/go&#45;i2p/crypto/ratchet.init&#45;&gt;github.com/go&#45;i2p/logger.GetGoI2PLogger -->
<g id="edge1" class="edge">
<title>github.com/go&#45;i2p/crypto/ratchet.init&#45;&gt;github.com/go&#45;i2p/logger.GetGoI2PLogger</title>
<g id="a_edge1"><a xlink:title="at constants.go:18: calling [github.com/go&#45;i2p/logger.GetGoI2PLogger]">
<path fill="none" stroke="#8b4513" d="M155.184,-67.3175C191.8555,-71.813 258.6555,-80.0019 310.1235,-86.3112"/>
<polygon fill="#8b4513" stroke="#8b4513" points="309.8476,-89.8035 320.1992,-87.5464 310.6994,-82.8555 309.8476,-89.8035"/>
</a>
</g>
</g>
<!-- github.com/samber/oops.Errorf -->
<g id="node3" class="node">
<title>github.com/samber/oops.Errorf</title>
<g id="a_node3"><a xlink:title="github.com/samber/oops.Errorf | defined in oops.go:34">
<path fill="#ffe4b5" stroke="#000000" stroke-width="1.5" d="M398.1969,-52C398.1969,-52 363.8063,-52 363.8063,-52 357.8063,-52 351.8063,-46 351.8063,-40 351.8063,-40 351.8063,-28 351.8063,-28 351.8063,-22 357.8063,-16 363.8063,-16 363.8063,-16 398.1969,-16 398.1969,-16 404.1969,-16 410.1969,-22 410.1969,-28 410.1969,-28 410.1969,-40 410.1969,-40 410.1969,-46 404.1969,-52 398.1969,-52"/>
<text text-anchor="middle" x="381.0016" y="-38.2" font-family="Verdana" font-size="14.00" fill="#000000">oops</text>
<text text-anchor="middle" x="381.0016" y="-21.4" font-family="Verdana" font-size="14.00" fill="#000000">Errorf</text>
</a>
</g>
</g>
<!-- github.com/go&#45;i2p/crypto/ratchet.init&#45;&gt;github.com/samber/oops.Errorf -->
<g id="edge2" class="edge">
<title>github.com/go&#45;i2p/crypto/ratchet.init&#45;&gt;github.com/samber/oops.Errorf</title>
<g id="a_edge2"><a xlink:title="at constants.go:36: calling [github.com/samber/oops.Errorf]&#10;at constants.go:37: calling [github.com/samber/oops.Errorf]&#10;at constants.go:38: calling [github.com/samber/oops.Errorf]&#10;at constants.go:39: calling [github.com/samber/oops.Errorf]&#10;at constants.go:40: calling [github.com/samber/oops.Errorf]&#10;at constants.go:41: calling [github.com/samber/oops.Errorf]">
<path fill="none" stroke="#8b4513" d="M155.184,-60.7895C200.004,-55.4723 289.8296,-44.816 341.663,-38.6669"/>
<polygon fill="#8b4513" stroke="#8b4513" points="342.2898,-42.1171 351.8078,-37.4634 341.4651,-35.1659 342.2898,-42.1171"/>
</a>
</g>
</g>
<!-- github.com/go&#45;i2p/crypto/hmac.I2PHMAC -->
<g id="node4" class="node">
<title>github.com/go&#45;i2p/crypto/hmac.I2PHMAC</title>
<g id="a_node4"><a xlink:title="github.com/go&#45;i2p/crypto/hmac.I2PHMAC | defined in utils.go:11">
<path fill="#ffe4b5" stroke="#000000" stroke-width="1.5" d="M603.7959,-827C603.7959,-827 541.9185,-827 541.9185,-827 535.9185,-827 529.9185,-821 529.9185,-815 529.9185,-815 529.9185,-803 529.9185,-803 529.9185,-797 535.9185,-791 541.9185,-791 541.9185,-791 603.7959,-791 603.7959,-791 609.7959,-791 615.7959,-797 615.7959,-803 615.7959,-803 615.7959,-815 615.7959,-815 615.7959,-821 609.7959,-827 603.7959,-827"/>
<text text-anchor="middle" x="572.8572" y="-813.2" font-family="Verdana" font-size="14.00" fill="#000000">hmac</text>
<text text-anchor="middle" x="572.8572" y="-796.4" font-family="Verdana" font-size="14.00" fill="#000000">I2PHMAC</text>
</a>
</g>
</g>
<!-- github.com/samber/oops.Wrapf -->
<g id="node5" class="node">
<title>github.com/samber/oops.Wrapf</title>
<g id="a_node5"><a xlink:title="github.com/samber/oops.Wrapf | defined in oops.go:20">
<path fill="#ffe4b5" stroke="#000000" stroke-width="1.5" d="M590.6081,-426C590.6081,-426 555.1063,-426 555.1063,-426 549.1063,-426 543.1063,-420 543.1063,-414 543.1063,-414 543.1063,-402 543.1063,-402 543.1063,-396 549.1063,-390 555.1063,-390 555.1063,-390 590.6081,-390 590.6081,-390 596.6081,-390 602.6081,-396 602.6081,-402 602.6081,-402 602.6081,-414 602.6081,-414 602.6081,-420 596.6081,-426 590.6081,-426"/>
<text text-anchor="middle" x="572.8572" y="-412.2" font-family="Verdana" font-size="14.00" fill="#000000">oops</text>
<text text-anchor="middle" x="572.8572" y="-395.4" font-family="Verdana" font-size="14.00" fill="#000000">Wrapf</text>
</a>
</g>
</g>
<!-- github.com/go&#45;i2p/crypto/hkdf.NewHKDF -->
<g id="node6" class="node">
<title>github.com/go&#45;i2p/crypto/hkdf.NewHKDF</title>
<g id="a_node6"><a xlink:title="github.com/go&#45;i2p/crypto/hkdf.NewHKDF | defined in types.go:33">
<path fill="#ffe4b5" stroke="#000000" stroke-width="1.5" d="M413.033,-602C413.033,-602 348.9702,-602 348.9702,-602 342.9702,-602 336.9702,-596 336.9702,-590 336.9702,-590 336.9702,-578 336.9702,-578 336.9702,-572 342.9702,-566 348.9702,-566 348.9702,-566 413.033,-566 413.033,-566 419.033,-566 425.033,-572 425.033,-578 425.033,-578 425.033,-590 425.033,-590 425.033,-596 419.033,-602 413.033,-602"/>
<text text-anchor="middle" x="381.0016" y="-588.2" font-family="Verdana" font-size="14.00" fill="#000000">hkdf</text>
<text text-anchor="middle" x="381.0016" y="-571.4" font-family="Verdana" font-size="14.00" fill="#000000">NewHKDF</text>
</a>
</g>
</g>
<!-- go.step.sm/crypto/x25519.GenerateKey -->
<g id="node7" class="node">
<title>go.step.sm/crypto/x25519.GenerateKey</title>
<g id="a_node7"><a xlink:title="go.step.sm/crypto/x25519.GenerateKey | defined in x25519.go:37">
<path fill="#ffe4b5" stroke="#000000" stroke-width="1.5" d="M417.8391,-426C417.8391,-426 344.1641,-426 344.1641,-426 338.1641,-426 332.1641,-420 332.1641,-414 332.1641,-414 332.1641,-402 332.1641,-402 332.1641,-396 338.1641,-390 344.1641,-390 344.1641,-390 417.8391,-390 417.8391,-390 423.8391,-390 429.8391,-396 429.8391,-402 429.8391,-402 429.8391,-414 429.8391,-414 429.8391,-420 423.8391,-426 417.8391,-426"/>
<text text-anchor="middle" x="381.0016" y="-412.2" font-family="Verdana" font-size="14.00" fill="#000000">x25519</text>
<text text-anchor="middle" x="381.0016" y="-395.4" font-family="Verdana" font-size="14.00" fill="#000000">GenerateKey</text>
</a>
</g>
</g>
<!-- github.com/go&#45;i2p/crypto/ratchet.RatchetSymmetricKey -->
<g id="node8" class="node">
<title>github.com/go&#45;i2p/crypto/ratchet.RatchetSymmetricKey</title>
<g id="a_node8"><a xlink:title="github.com/go&#45;i2p/crypto/ratchet.RatchetSymmetricKey | defined in utils.go:13&#10;at utils.go:21: calling [github.com/go&#45;i2p/crypto/hmac.I2PHMAC]&#10;at utils.go:33: calling [github.com/go&#45;i2p/crypto/hmac.I2PHMAC]">
<path fill="#add8e6" stroke="#000000" stroke-width="1.5" d="M444.52,-541C444.52,-541 317.4832,-541 317.4832,-541 311.4832,-541 305.4832,-535 305.4832,-529 305.4832,-529 305.4832,-517 305.4832,-517 305.4832,-511 311.4832,-505 317.4832,-505 317.4832,-505 444.52,-505 444.52,-505 450.52,-505 456.52,-511 456.52,-517 456.52,-517 456.52,-529 456.52,-529 456.52,-535 450.52,-541 444.52,-541"/>
<text text-anchor="middle" x="381.0016" y="-518.8" font-family="Verdana" font-size="14.00" fill="#000000">RatchetSymmetricKey</text>
</a>
</g>
</g>
<!-- github.com/go&#45;i2p/crypto/ratchet.RatchetSymmetricKey&#45;&gt;github.com/go&#45;i2p/crypto/hmac.I2PHMAC -->
<g id="edge22" class="edge">
<title>github.com/go&#45;i2p/crypto/ratchet.RatchetSymmetricKey&#45;&gt;github.com/go&#45;i2p/crypto/hmac.I2PHMAC</title>
<g id="a_edge22"><a xlink:title="at utils.go:21: calling [github.com/go&#45;i2p/crypto/hmac.I2PHMAC]&#10;at utils.go:33: calling [github.com/go&#45;i2p/crypto/hmac.I2PHMAC]">
<path fill="none" stroke="#8b4513" d="M438.8897,-541.1335C445.3881,-544.7228 451.537,-548.9756 456.7604,-554 523.9956,-618.6738 555.6495,-729.5641 567.2989,-781.1246"/>
<polygon fill="#8b4513" stroke="#8b4513" points="563.8802,-781.8749 569.4269,-790.9018 570.7201,-780.3862 563.8802,-781.8749"/>
</a>
</g>
</g>
<!-- (*github.com/go&#45;i2p/crypto/ratchet.DHRatchet).performDH -->
<g id="node9" class="node">
<title>(*github.com/go&#45;i2p/crypto/ratchet.DHRatchet).performDH</title>
<g id="a_node9"><a xlink:title="(*github.com/go&#45;i2p/crypto/ratchet.DHRatchet).performDH | defined in dh_ratchet.go:100&#10;at dh_ratchet.go:102: calling [github.com/samber/oops.Wrapf]&#10;at dh_ratchet.go:105: calling [github.com/samber/oops.Wrapf]&#10;at dh_ratchet.go:115: calling [github.com/samber/oops.Wrapf]&#10;at dh_ratchet.go:113: calling [(go.step.sm/crypto/x25519.PrivateKey).SharedKey]">
<path fill="#add8e6" stroke="#000000" stroke-width=".5" d="M413.8023,-338C413.8023,-338 348.2009,-338 348.2009,-338 342.2009,-338 336.2009,-332 336.2009,-326 336.2009,-326 336.2009,-314 336.2009,-314 336.2009,-308 342.2009,-302 348.2009,-302 348.2009,-302 413.8023,-302 413.8023,-302 419.8023,-302 425.8023,-308 425.8023,-314 425.8023,-314 425.8023,-326 425.8023,-326 425.8023,-332 419.8023,-338 413.8023,-338"/>
<text text-anchor="middle" x="381.0016" y="-315.8" font-family="Verdana" font-size="14.00" fill="#000000">performDH</text>
</a>
</g>
</g>
<!-- (*github.com/go&#45;i2p/crypto/ratchet.DHRatchet).performDH&#45;&gt;github.com/samber/oops.Wrapf -->
<g id="edge6" class="edge">
<title>(*github.com/go&#45;i2p/crypto/ratchet.DHRatchet).performDH&#45;&gt;github.com/samber/oops.Wrapf</title>
<g id="a_edge6"><a xlink:title="at dh_ratchet.go:102: calling [github.com/samber/oops.Wrapf]&#10;at dh_ratchet.go:105: calling [github.com/samber/oops.Wrapf]&#10;at dh_ratchet.go:115: calling [github.com/samber/oops.Wrapf]">
<path fill="none" stroke="#8b4513" d="M425.7083,-332.1572C435.9733,-335.1765 446.7969,-338.5439 456.7604,-342 473.5249,-347.8152 478.0124,-348.8229 493.7604,-357 509.1052,-364.9677 525.2791,-375.0626 538.9749,-384.1646"/>
<polygon fill="#8b4513" stroke="#8b4513" points="537.3356,-387.2807 547.5834,-389.9702 541.2496,-381.4771 537.3356,-387.2807"/>
</a>
</g>
</g>
<!-- (go.step.sm/crypto/x25519.PrivateKey).SharedKey -->
<g id="node22" class="node">
<title>(go.step.sm/crypto/x25519.PrivateKey).SharedKey</title>
<g id="a_node22"><a xlink:title="(go.step.sm/crypto/x25519.PrivateKey).SharedKey | defined in x25519.go:101">
<path fill="#ffe4b5" stroke="#000000" stroke-width="1.5" d="M604.051,-303C604.051,-303 541.6634,-303 541.6634,-303 535.6634,-303 529.6634,-297 529.6634,-291 529.6634,-291 529.6634,-279 529.6634,-279 529.6634,-273 535.6634,-267 541.6634,-267 541.6634,-267 604.051,-267 604.051,-267 610.051,-267 616.051,-273 616.051,-279 616.051,-279 616.051,-291 616.051,-291 616.051,-297 610.051,-303 604.051,-303"/>
<text text-anchor="middle" x="572.8572" y="-289.2" font-family="Verdana" font-size="14.00" fill="#000000">x25519</text>
<text text-anchor="middle" x="572.8572" y="-272.4" font-family="Verdana" font-size="14.00" fill="#000000">SharedKey</text>
</a>
</g>
</g>
<!-- (*github.com/go&#45;i2p/crypto/ratchet.DHRatchet).performDH&#45;&gt;(go.step.sm/crypto/x25519.PrivateKey).SharedKey -->
<g id="edge7" class="edge">
<title>(*github.com/go&#45;i2p/crypto/ratchet.DHRatchet).performDH&#45;&gt;(go.step.sm/crypto/x25519.PrivateKey).SharedKey</title>
<g id="a_edge7"><a xlink:title="at dh_ratchet.go:113: calling [(go.step.sm/crypto/x25519.PrivateKey).SharedKey]">
<path fill="none" stroke="#8b4513" d="M425.8006,-310.8254C446.1983,-306.7397 470.669,-301.966 492.7604,-298 501.4245,-296.4446 510.6309,-294.874 519.5986,-293.3883"/>
<polygon fill="#8b4513" stroke="#8b4513" points="520.2784,-296.8236 529.5806,-291.7523 519.1461,-289.9158 520.2784,-296.8236"/>
</a>
</g>
</g>
<!-- (*github.com/go&#45;i2p/crypto/ratchet.DHRatchet).PerformRatchet -->
<g id="node10" class="node">
<title>(*github.com/go&#45;i2p/crypto/ratchet.DHRatchet).PerformRatchet</title>
<g id="a_node10"><a xlink:title="(*github.com/go&#45;i2p/crypto/ratchet.DHRatchet).PerformRatchet | defined in dh_ratchet.go:35&#10;at dh_ratchet.go:39: calling [github.com/samber/oops.Wrapf]&#10;at dh_ratchet.go:47: calling [github.com/samber/oops.Wrapf]&#10;at dh_ratchet.go:59: calling [(*github.com/sirupsen/logrus.Logger).Debug]&#10;at dh_ratchet.go:37: calling [(*github.com/go&#45;i2p/crypto/ratchet.DHRatchet).performDH]&#10;at dh_ratchet.go:44: calling [github.com/go&#45;i2p/crypto/hkdf.NewHKDF]">
<path fill="#add8e6" stroke="#000000" stroke-width="1.5" d="M172.2532,-374C172.2532,-374 83.9896,-374 83.9896,-374 77.9896,-374 71.9896,-368 71.9896,-362 71.9896,-362 71.9896,-350 71.9896,-350 71.9896,-344 77.9896,-338 83.9896,-338 83.9896,-338 172.2532,-338 172.2532,-338 178.2532,-338 184.2532,-344 184.2532,-350 184.2532,-350 184.2532,-362 184.2532,-362 184.2532,-368 178.2532,-374 172.2532,-374"/>
<text text-anchor="middle" x="128.1214" y="-351.8" font-family="Verdana" font-size="14.00" fill="#000000">PerformRatchet</text>
</a>
</g>
</g>
<!-- (*github.com/go&#45;i2p/crypto/ratchet.DHRatchet).PerformRatchet&#45;&gt;github.com/samber/oops.Wrapf -->
<g id="edge8" class="edge">
<title>(*github.com/go&#45;i2p/crypto/ratchet.DHRatchet).PerformRatchet&#45;&gt;github.com/samber/oops.Wrapf</title>
<g id="a_edge8"><a xlink:title="at dh_ratchet.go:39: calling [github.com/samber/oops.Wrapf]&#10;at dh_ratchet.go:47: calling [github.com/samber/oops.Wrapf]">
<path fill="none" stroke="#8b4513" d="M144.9971,-374.1943C169.3821,-398.9972 217.178,-442.2508 268.2428,-459 363.4807,-490.2378 397.6116,-487.3101 493.7604,-459 511.8024,-453.6877 529.6113,-442.8415 543.749,-432.5119"/>
<polygon fill="#8b4513" stroke="#8b4513" points="546.2057,-435.0407 552.0465,-426.2012 541.9682,-429.4691 546.2057,-435.0407"/>
</a>
</g>
</g>
<!-- (*github.com/go&#45;i2p/crypto/ratchet.DHRatchet).PerformRatchet&#45;&gt;github.com/go&#45;i2p/crypto/hkdf.NewHKDF -->
<g id="edge19" class="edge">
<title>(*github.com/go&#45;i2p/crypto/ratchet.DHRatchet).PerformRatchet&#45;&gt;github.com/go&#45;i2p/crypto/hkdf.NewHKDF</title>
<g id="a_edge19"><a xlink:title="at dh_ratchet.go:44: calling [github.com/go&#45;i2p/crypto/hkdf.NewHKDF]">
<path fill="none" stroke="#8b4513" d="M139.9373,-374.1294C165.676,-412.3369 230.5297,-501.8902 305.2428,-554 312.0069,-558.7177 319.619,-562.8425 327.3421,-566.3998"/>
<polygon fill="#8b4513" stroke="#8b4513" points="326.1992,-569.7183 336.7681,-570.4591 328.9679,-563.2891 326.1992,-569.7183"/>
</a>
</g>
</g>
<!-- (*github.com/go&#45;i2p/crypto/ratchet.DHRatchet).PerformRatchet&#45;&gt;(*github.com/go&#45;i2p/crypto/ratchet.DHRatchet).performDH -->
<g id="edge14" class="edge">
<title>(*github.com/go&#45;i2p/crypto/ratchet.DHRatchet).PerformRatchet&#45;&gt;(*github.com/go&#45;i2p/crypto/ratchet.DHRatchet).performDH</title>
<g id="a_edge14"><a xlink:title="at dh_ratchet.go:37: calling [(*github.com/go&#45;i2p/crypto/ratchet.DHRatchet).performDH]">
<path fill="none" stroke="#000000" d="M184.277,-346.1511C209.8489,-341.8289 240.5314,-336.8695 268.2428,-333 287.0976,-330.3672 307.7802,-327.8701 326.2258,-325.7813"/>
<polygon fill="#000000" stroke="#000000" points="326.668,-329.2538 336.2174,-324.6646 325.8905,-322.2971 326.668,-329.2538"/>
</a>
</g>
</g>
<!-- (*github.com/sirupsen/logrus.Logger).Debug -->
<g id="node21" class="node">
<title>(*github.com/sirupsen/logrus.Logger).Debug</title>
<g id="a_node21"><a xlink:title="(*github.com/sirupsen/logrus.Logger).Debug | defined in logger.go:221">
<path fill="#ffe4b5" stroke="#000000" stroke-width="1.5" d="M399.8236,-680C399.8236,-680 362.1796,-680 362.1796,-680 356.1796,-680 350.1796,-674 350.1796,-668 350.1796,-668 350.1796,-656 350.1796,-656 350.1796,-650 356.1796,-644 362.1796,-644 362.1796,-644 399.8236,-644 399.8236,-644 405.8236,-644 411.8236,-650 411.8236,-656 411.8236,-656 411.8236,-668 411.8236,-668 411.8236,-674 405.8236,-680 399.8236,-680"/>
<text text-anchor="middle" x="381.0016" y="-666.2" font-family="Verdana" font-size="14.00" fill="#000000">logrus</text>
<text text-anchor="middle" x="381.0016" y="-649.4" font-family="Verdana" font-size="14.00" fill="#000000">Debug</text>
</a>
</g>
</g>
<!-- (*github.com/go&#45;i2p/crypto/ratchet.DHRatchet).PerformRatchet&#45;&gt;(*github.com/sirupsen/logrus.Logger).Debug -->
<g id="edge10" class="edge">
<title>(*github.com/go&#45;i2p/crypto/ratchet.DHRatchet).PerformRatchet&#45;&gt;(*github.com/sirupsen/logrus.Logger).Debug</title>
<g id="a_edge10"><a xlink:title="at dh_ratchet.go:59: calling [(*github.com/sirupsen/logrus.Logger).Debug]">
<path fill="none" stroke="#8b4513" d="M134.8852,-374.0343C152.0734,-418.2148 200.8865,-533.9356 268.2428,-612 281.7148,-627.6137 286.812,-630.7484 305.2428,-640 316.13,-645.465 328.5972,-649.7882 340.2322,-653.1033"/>
<polygon fill="#8b4513" stroke="#8b4513" points="339.6175,-656.5618 350.182,-655.7605 341.4237,-649.7988 339.6175,-656.5618"/>
</a>
</g>
</g>
<!-- (*github.com/go&#45;i2p/crypto/ratchet.DHRatchet).GetPublicKey -->
<g id="node11" class="node">
<title>(*github.com/go&#45;i2p/crypto/ratchet.DHRatchet).GetPublicKey</title>
<g id="a_node11"><a xlink:title="(*github.com/go&#45;i2p/crypto/ratchet.DHRatchet).GetPublicKey | defined in dh_ratchet.go:88&#10;at dh_ratchet.go:91: calling [(go.step.sm/crypto/x25519.PrivateKey).Public]">
<path fill="#add8e6" stroke="#000000" stroke-width="1.5" d="M167.9333,-191C167.9333,-191 88.3095,-191 88.3095,-191 82.3095,-191 76.3095,-185 76.3095,-179 76.3095,-179 76.3095,-167 76.3095,-167 76.3095,-161 82.3095,-155 88.3095,-155 88.3095,-155 167.9333,-155 167.9333,-155 173.9333,-155 179.9333,-161 179.9333,-167 179.9333,-167 179.9333,-179 179.9333,-179 179.9333,-185 173.9333,-191 167.9333,-191"/>
<text text-anchor="middle" x="128.1214" y="-168.8" font-family="Verdana" font-size="14.00" fill="#000000">GetPublicKey</text>
</a>
</g>
</g>
<!-- (go.step.sm/crypto/x25519.PrivateKey).Public -->
<g id="node23" class="node">
<title>(go.step.sm/crypto/x25519.PrivateKey).Public</title>
<g id="a_node23"><a xlink:title="(go.step.sm/crypto/x25519.PrivateKey).Public | defined in x25519.go:74">
<path fill="#ffe4b5" stroke="#000000" stroke-width="1.5" d="M593.8572,-242C593.8572,-242 551.8572,-242 551.8572,-242 545.8572,-242 539.8572,-236 539.8572,-230 539.8572,-230 539.8572,-218 539.8572,-218 539.8572,-212 545.8572,-206 551.8572,-206 551.8572,-206 593.8572,-206 593.8572,-206 599.8572,-206 605.8572,-212 605.8572,-218 605.8572,-218 605.8572,-230 605.8572,-230 605.8572,-236 599.8572,-242 593.8572,-242"/>
<text text-anchor="middle" x="572.8572" y="-228.2" font-family="Verdana" font-size="14.00" fill="#000000">x25519</text>
<text text-anchor="middle" x="572.8572" y="-211.4" font-family="Verdana" font-size="14.00" fill="#000000">Public</text>
</a>
</g>
</g>
<!-- (*github.com/go&#45;i2p/crypto/ratchet.DHRatchet).GetPublicKey&#45;&gt;(go.step.sm/crypto/x25519.PrivateKey).Public -->
<g id="edge11" class="edge">
<title>(*github.com/go&#45;i2p/crypto/ratchet.DHRatchet).GetPublicKey&#45;&gt;(go.step.sm/crypto/x25519.PrivateKey).Public</title>
<g id="a_edge11"><a xlink:title="at dh_ratchet.go:91: calling [(go.step.sm/crypto/x25519.PrivateKey).Public]">
<path fill="none" stroke="#8b4513" d="M180.0715,-185.4569C206.354,-191.3232 238.839,-197.9136 268.2428,-202 360.8879,-214.8753 470.4971,-220.4527 529.698,-222.6763"/>
<polygon fill="#8b4513" stroke="#8b4513" points="529.6819,-226.1779 539.8018,-223.0414 529.9347,-219.1824 529.6819,-226.1779"/>
</a>
</g>
</g>
<!-- (*github.com/go&#45;i2p/crypto/ratchet.DHRatchet).UpdateKeys -->
<g id="node12" class="node">
<title>(*github.com/go&#45;i2p/crypto/ratchet.DHRatchet).UpdateKeys</title>
<g id="a_node12"><a xlink:title="(*github.com/go&#45;i2p/crypto/ratchet.DHRatchet).UpdateKeys | defined in dh_ratchet.go:64&#10;at dh_ratchet.go:66: calling [github.com/samber/oops.Wrapf]">
<path fill="#add8e6" stroke="#000000" stroke-width="1.5" d="M162.8138,-313C162.8138,-313 93.429,-313 93.429,-313 87.429,-313 81.429,-307 81.429,-301 81.429,-301 81.429,-289 81.429,-289 81.429,-283 87.429,-277 93.429,-277 93.429,-277 162.8138,-277 162.8138,-277 168.8138,-277 174.8138,-283 174.8138,-289 174.8138,-289 174.8138,-301 174.8138,-301 174.8138,-307 168.8138,-313 162.8138,-313"/>
<text text-anchor="middle" x="128.1214" y="-290.8" font-family="Verdana" font-size="14.00" fill="#000000">UpdateKeys</text>
</a>
</g>
</g>
<!-- (*github.com/go&#45;i2p/crypto/ratchet.DHRatchet).UpdateKeys&#45;&gt;github.com/samber/oops.Wrapf -->
<g id="edge15" class="edge">
<title>(*github.com/go&#45;i2p/crypto/ratchet.DHRatchet).UpdateKeys&#45;&gt;github.com/samber/oops.Wrapf</title>
<g id="a_edge15"><a xlink:title="at dh_ratchet.go:66: calling [github.com/samber/oops.Wrapf]">
<path fill="none" stroke="#8b4513" d="M174.8935,-301.6048C194.0843,-306.0816 215.6428,-313.5552 232.2428,-326 280.0825,-361.8647 252.7319,-410.4077 305.2428,-439 378.2871,-478.7728 478.9789,-448.334 533.6653,-426.0343"/>
<polygon fill="#8b4513" stroke="#8b4513" points="535.1313,-429.2149 543.0021,-422.1225 532.4264,-422.7586 535.1313,-429.2149"/>
</a>
</g>
</g>
<!-- (*github.com/go&#45;i2p/crypto/ratchet.DHRatchet).GenerateNewKeyPair -->
<g id="node13" class="node">
<title>(*github.com/go&#45;i2p/crypto/ratchet.DHRatchet).GenerateNewKeyPair</title>
<g id="a_node13"><a xlink:title="(*github.com/go&#45;i2p/crypto/ratchet.DHRatchet).GenerateNewKeyPair | defined in dh_ratchet.go:74&#10;at dh_ratchet.go:75: calling [go.step.sm/crypto/x25519.GenerateKey]&#10;at dh_ratchet.go:77: calling [github.com/samber/oops.Wrapf]">
<path fill="#add8e6" stroke="#000000" stroke-width="1.5" d="M189.4351,-252C189.4351,-252 66.8077,-252 66.8077,-252 60.8077,-252 54.8077,-246 54.8077,-240 54.8077,-240 54.8077,-228 54.8077,-228 54.8077,-222 60.8077,-216 66.8077,-216 66.8077,-216 189.4351,-216 189.4351,-216 195.4351,-216 201.4351,-222 201.4351,-228 201.4351,-228 201.4351,-240 201.4351,-240 201.4351,-246 195.4351,-252 189.4351,-252"/>
<text text-anchor="middle" x="128.1214" y="-229.8" font-family="Verdana" font-size="14.00" fill="#000000">GenerateNewKeyPair</text>
</a>
</g>
</g>
<!-- (*github.com/go&#45;i2p/crypto/ratchet.DHRatchet).GenerateNewKeyPair&#45;&gt;github.com/samber/oops.Wrapf -->
<g id="edge21" class="edge">
<title>(*github.com/go&#45;i2p/crypto/ratchet.DHRatchet).GenerateNewKeyPair&#45;&gt;github.com/samber/oops.Wrapf</title>
<g id="a_edge21"><a xlink:title="at dh_ratchet.go:77: calling [github.com/samber/oops.Wrapf]">
<path fill="none" stroke="#8b4513" d="M201.6447,-250.0155C212.3695,-253.9938 222.9236,-258.9187 232.2428,-265 274.2294,-292.3989 261.7756,-326.0163 305.2428,-351 364.5468,-385.0862 389.9276,-363.4327 456.7604,-378 482.3366,-383.5748 510.797,-390.9108 533.1379,-396.933"/>
<polygon fill="#8b4513" stroke="#8b4513" points="532.3718,-400.3517 542.9396,-399.5965 534.2074,-393.5966 532.3718,-400.3517"/>
</a>
</g>
</g>
<!-- (*github.com/go&#45;i2p/crypto/ratchet.DHRatchet).GenerateNewKeyPair&#45;&gt;go.step.sm/crypto/x25519.GenerateKey -->
<g id="edge13" class="edge">
<title>(*github.com/go&#45;i2p/crypto/ratchet.DHRatchet).GenerateNewKeyPair&#45;&gt;go.step.sm/crypto/x25519.GenerateKey</title>
<g id="a_edge13"><a xlink:title="at dh_ratchet.go:75: calling [go.step.sm/crypto/x25519.GenerateKey]">
<path fill="none" stroke="#8b4513" d="M201.566,-246.1344C212.8605,-250.6009 223.6146,-256.6938 232.2428,-265 268.0867,-299.5061 234.092,-334.8175 268.2428,-371 282.3974,-385.9967 302.7203,-394.9226 322.2246,-400.2323"/>
<polygon fill="#8b4513" stroke="#8b4513" points="321.4611,-403.6487 332.0065,-402.6257 323.1249,-396.8493 321.4611,-403.6487"/>
</a>
</g>
</g>
<!-- (*github.com/go&#45;i2p/crypto/ratchet.SymmetricRatchet).DeriveMessageKey -->
<g id="node14" class="node">
<title>(*github.com/go&#45;i2p/crypto/ratchet.SymmetricRatchet).DeriveMessageKey</title>
<g id="a_node14"><a xlink:title="(*github.com/go&#45;i2p/crypto/ratchet.SymmetricRatchet).DeriveMessageKey | defined in symmetric_ratchet.go:28&#10;at symmetric_ratchet.go:37: calling [github.com/go&#45;i2p/crypto/hmac.I2PHMAC]">
<path fill="#add8e6" stroke="#000000" stroke-width="1.5" d="M436.388,-827C436.388,-827 325.6152,-827 325.6152,-827 319.6152,-827 313.6152,-821 313.6152,-815 313.6152,-815 313.6152,-803 313.6152,-803 313.6152,-797 319.6152,-791 325.6152,-791 325.6152,-791 436.388,-791 436.388,-791 442.388,-791 448.388,-797 448.388,-803 448.388,-803 448.388,-815 448.388,-815 448.388,-821 442.388,-827 436.388,-827"/>
<text text-anchor="middle" x="381.0016" y="-804.8" font-family="Verdana" font-size="14.00" fill="#000000">DeriveMessageKey</text>
</a>
</g>
</g>
<!-- (*github.com/go&#45;i2p/crypto/ratchet.SymmetricRatchet).DeriveMessageKey&#45;&gt;github.com/go&#45;i2p/crypto/hmac.I2PHMAC -->
<g id="edge3" class="edge">
<title>(*github.com/go&#45;i2p/crypto/ratchet.SymmetricRatchet).DeriveMessageKey&#45;&gt;github.com/go&#45;i2p/crypto/hmac.I2PHMAC</title>
<g id="a_edge3"><a xlink:title="at symmetric_ratchet.go:37: calling [github.com/go&#45;i2p/crypto/hmac.I2PHMAC]">
<path fill="none" stroke="#8b4513" d="M448.3729,-809C471.7685,-809 497.6576,-809 519.7393,-809"/>
<polygon fill="#8b4513" stroke="#8b4513" points="519.9191,-812.5001 529.9191,-809 519.9191,-805.5001 519.9191,-812.5001"/>
</a>
</g>
</g>
<!-- (*github.com/go&#45;i2p/crypto/ratchet.SymmetricRatchet).DeriveMessageKeyAndAdvance -->
<g id="node15" class="node">
<title>(*github.com/go&#45;i2p/crypto/ratchet.SymmetricRatchet).DeriveMessageKeyAndAdvance</title>
<g id="a_node15"><a xlink:title="(*github.com/go&#45;i2p/crypto/ratchet.SymmetricRatchet).DeriveMessageKeyAndAdvance | defined in symmetric_ratchet.go:77&#10;at symmetric_ratchet.go:88: calling [(*github.com/go&#45;i2p/crypto/ratchet.SymmetricRatchet).Advance]&#10;at symmetric_ratchet.go:79: calling [(*github.com/go&#45;i2p/crypto/ratchet.SymmetricRatchet).DeriveMessageKey]">
<path fill="#add8e6" stroke="#000000" stroke-width="1.5" d="M220.3643,-779C220.3643,-779 35.8785,-779 35.8785,-779 29.8785,-779 23.8785,-773 23.8785,-767 23.8785,-767 23.8785,-755 23.8785,-755 23.8785,-749 29.8785,-743 35.8785,-743 35.8785,-743 220.3643,-743 220.3643,-743 226.3643,-743 232.3643,-749 232.3643,-755 232.3643,-755 232.3643,-767 232.3643,-767 232.3643,-773 226.3643,-779 220.3643,-779"/>
<text text-anchor="middle" x="128.1214" y="-756.8" font-family="Verdana" font-size="14.00" fill="#000000">DeriveMessageKeyAndAdvance</text>
</a>
</g>
</g>
<!-- (*github.com/go&#45;i2p/crypto/ratchet.SymmetricRatchet).DeriveMessageKeyAndAdvance&#45;&gt;(*github.com/go&#45;i2p/crypto/ratchet.SymmetricRatchet).DeriveMessageKey -->
<g id="edge9" class="edge">
<title>(*github.com/go&#45;i2p/crypto/ratchet.SymmetricRatchet).DeriveMessageKeyAndAdvance&#45;&gt;(*github.com/go&#45;i2p/crypto/ratchet.SymmetricRatchet).DeriveMessageKey</title>
<g id="a_edge9"><a xlink:title="at symmetric_ratchet.go:79: calling [(*github.com/go&#45;i2p/crypto/ratchet.SymmetricRatchet).DeriveMessageKey]">
<path fill="none" stroke="#000000" d="M223.0041,-779.01C249.6049,-784.0592 278.1964,-789.4862 303.647,-794.3171"/>
<polygon fill="#000000" stroke="#000000" points="303.1268,-797.7808 313.6041,-796.2071 304.4323,-790.9036 303.1268,-797.7808"/>
</a>
</g>
</g>
<!-- (*github.com/go&#45;i2p/crypto/ratchet.SymmetricRatchet).Advance -->
<g id="node16" class="node">
<title>(*github.com/go&#45;i2p/crypto/ratchet.SymmetricRatchet).Advance</title>
<g id="a_node16"><a xlink:title="(*github.com/go&#45;i2p/crypto/ratchet.SymmetricRatchet).Advance | defined in symmetric_ratchet.go:48&#10;at symmetric_ratchet.go:55: calling [github.com/go&#45;i2p/crypto/hmac.I2PHMAC]">
<path fill="#add8e6" stroke="#000000" stroke-width="1.5" d="M405.7524,-766C405.7524,-766 356.2508,-766 356.2508,-766 350.2508,-766 344.2508,-760 344.2508,-754 344.2508,-754 344.2508,-742 344.2508,-742 344.2508,-736 350.2508,-730 356.2508,-730 356.2508,-730 405.7524,-730 405.7524,-730 411.7524,-730 417.7524,-736 417.7524,-742 417.7524,-742 417.7524,-754 417.7524,-754 417.7524,-760 411.7524,-766 405.7524,-766"/>
<text text-anchor="middle" x="381.0016" y="-743.8" font-family="Verdana" font-size="14.00" fill="#000000">Advance</text>
</a>
</g>
</g>
<!-- (*github.com/go&#45;i2p/crypto/ratchet.SymmetricRatchet).DeriveMessageKeyAndAdvance&#45;&gt;(*github.com/go&#45;i2p/crypto/ratchet.SymmetricRatchet).Advance -->
<g id="edge5" class="edge">
<title>(*github.com/go&#45;i2p/crypto/ratchet.SymmetricRatchet).DeriveMessageKeyAndAdvance&#45;&gt;(*github.com/go&#45;i2p/crypto/ratchet.SymmetricRatchet).Advance</title>
<g id="a_edge5"><a xlink:title="at symmetric_ratchet.go:88: calling [(*github.com/go&#45;i2p/crypto/ratchet.SymmetricRatchet).Advance]">
<path fill="none" stroke="#000000" d="M232.4374,-755.6373C267.6983,-753.8247 305.3286,-751.8902 333.8944,-750.4217"/>
<polygon fill="#000000" stroke="#000000" points="334.1803,-753.9117 343.9874,-749.9028 333.8208,-746.9209 334.1803,-753.9117"/>
</a>
</g>
</g>
<!-- (*github.com/go&#45;i2p/crypto/ratchet.SymmetricRatchet).Advance&#45;&gt;github.com/go&#45;i2p/crypto/hmac.I2PHMAC -->
<g id="edge4" class="edge">
<title>(*github.com/go&#45;i2p/crypto/ratchet.SymmetricRatchet).Advance&#45;&gt;github.com/go&#45;i2p/crypto/hmac.I2PHMAC</title>
<g id="a_edge4"><a xlink:title="at symmetric_ratchet.go:55: calling [github.com/go&#45;i2p/crypto/hmac.I2PHMAC]">
<path fill="none" stroke="#8b4513" d="M417.9933,-759.7614C447.0053,-768.9857 487.7598,-781.9435 520.179,-792.2511"/>
<polygon fill="#8b4513" stroke="#8b4513" points="519.3599,-795.6633 529.9504,-795.3579 521.481,-788.9923 519.3599,-795.6633"/>
</a>
</g>
</g>
<!-- (*github.com/go&#45;i2p/crypto/ratchet.TagRatchet).Advance -->
<g id="node17" class="node">
<title>(*github.com/go&#45;i2p/crypto/ratchet.TagRatchet).Advance</title>
<g id="a_node17"><a xlink:title="(*github.com/go&#45;i2p/crypto/ratchet.TagRatchet).Advance | defined in tag_ratchet.go:73&#10;at tag_ratchet.go:82: calling [github.com/go&#45;i2p/crypto/hmac.I2PHMAC]">
<path fill="#add8e6" stroke="#000000" stroke-width="1.5" d="M405.7524,-974C405.7524,-974 356.2508,-974 356.2508,-974 350.2508,-974 344.2508,-968 344.2508,-962 344.2508,-962 344.2508,-950 344.2508,-950 344.2508,-944 350.2508,-938 356.2508,-938 356.2508,-938 405.7524,-938 405.7524,-938 411.7524,-938 417.7524,-944 417.7524,-950 417.7524,-950 417.7524,-962 417.7524,-962 417.7524,-968 411.7524,-974 405.7524,-974"/>
<text text-anchor="middle" x="381.0016" y="-951.8" font-family="Verdana" font-size="14.00" fill="#000000">Advance</text>
</a>
</g>
</g>
<!-- (*github.com/go&#45;i2p/crypto/ratchet.TagRatchet).Advance&#45;&gt;github.com/go&#45;i2p/crypto/hmac.I2PHMAC -->
<g id="edge18" class="edge">
<title>(*github.com/go&#45;i2p/crypto/ratchet.TagRatchet).Advance&#45;&gt;github.com/go&#45;i2p/crypto/hmac.I2PHMAC</title>
<g id="a_edge18"><a xlink:title="at tag_ratchet.go:82: calling [github.com/go&#45;i2p/crypto/hmac.I2PHMAC]">
<path fill="none" stroke="#8b4513" d="M417.9574,-944.8346C430.8092,-940.0715 444.9521,-933.7898 456.7604,-926 495.1257,-900.6906 531.0502,-861.0836 552.4944,-835.0828"/>
<polygon fill="#8b4513" stroke="#8b4513" points="555.3458,-837.1237 558.9328,-827.1545 549.9119,-832.7109 555.3458,-837.1237"/>
</a>
</g>
</g>
<!-- (*github.com/go&#45;i2p/crypto/ratchet.TagRatchet).deriveTag -->
<g id="node18" class="node">
<title>(*github.com/go&#45;i2p/crypto/ratchet.TagRatchet).deriveTag</title>
<g id="a_node18"><a xlink:title="(*github.com/go&#45;i2p/crypto/ratchet.TagRatchet).deriveTag | defined in tag_ratchet.go:53&#10;at tag_ratchet.go:62: calling [github.com/go&#45;i2p/crypto/hmac.I2PHMAC]">
<path fill="#add8e6" stroke="#000000" stroke-width=".5" d="M409.2496,-913C409.2496,-913 352.7536,-913 352.7536,-913 346.7536,-913 340.7536,-907 340.7536,-901 340.7536,-901 340.7536,-889 340.7536,-889 340.7536,-883 346.7536,-877 352.7536,-877 352.7536,-877 409.2496,-877 409.2496,-877 415.2496,-877 421.2496,-883 421.2496,-889 421.2496,-889 421.2496,-901 421.2496,-901 421.2496,-907 415.2496,-913 409.2496,-913"/>
<text text-anchor="middle" x="381.0016" y="-890.8" font-family="Verdana" font-size="14.00" fill="#000000">deriveTag</text>
</a>
</g>
</g>
<!-- (*github.com/go&#45;i2p/crypto/ratchet.TagRatchet).deriveTag&#45;&gt;github.com/go&#45;i2p/crypto/hmac.I2PHMAC -->
<g id="edge16" class="edge">
<title>(*github.com/go&#45;i2p/crypto/ratchet.TagRatchet).deriveTag&#45;&gt;github.com/go&#45;i2p/crypto/hmac.I2PHMAC</title>
<g id="a_edge16"><a xlink:title="at tag_ratchet.go:62: calling [github.com/go&#45;i2p/crypto/hmac.I2PHMAC]">
<path fill="none" stroke="#8b4513" d="M421.2208,-876.9716C450.8951,-863.67 491.4534,-845.4896 523.1577,-831.278"/>
<polygon fill="#8b4513" stroke="#8b4513" points="524.9974,-834.2889 532.6909,-827.0047 522.1341,-827.9013 524.9974,-834.2889"/>
</a>
</g>
</g>
<!-- (*github.com/go&#45;i2p/crypto/ratchet.TagRatchet).GenerateNextTag -->
<g id="node19" class="node">
<title>(*github.com/go&#45;i2p/crypto/ratchet.TagRatchet).GenerateNextTag</title>
<g id="a_node19"><a xlink:title="(*github.com/go&#45;i2p/crypto/ratchet.TagRatchet).GenerateNextTag | defined in tag_ratchet.go:31&#10;at tag_ratchet.go:38: calling [(*github.com/go&#45;i2p/crypto/ratchet.TagRatchet).Advance]&#10;at tag_ratchet.go:32: calling [(*github.com/go&#45;i2p/crypto/ratchet.TagRatchet).deriveTag]">
<path fill="#add8e6" stroke="#000000" stroke-width="1.5" d="M178.1176,-974C178.1176,-974 78.1252,-974 78.1252,-974 72.1252,-974 66.1252,-968 66.1252,-962 66.1252,-962 66.1252,-950 66.1252,-950 66.1252,-944 72.1252,-938 78.1252,-938 78.1252,-938 178.1176,-938 178.1176,-938 184.1176,-938 190.1176,-944 190.1176,-950 190.1176,-950 190.1176,-962 190.1176,-962 190.1176,-968 184.1176,-974 178.1176,-974"/>
<text text-anchor="middle" x="128.1214" y="-951.8" font-family="Verdana" font-size="14.00" fill="#000000">GenerateNextTag</text>
</a>
</g>
</g>
<!-- (*github.com/go&#45;i2p/crypto/ratchet.TagRatchet).GenerateNextTag&#45;&gt;(*github.com/go&#45;i2p/crypto/ratchet.TagRatchet).Advance -->
<g id="edge12" class="edge">
<title>(*github.com/go&#45;i2p/crypto/ratchet.TagRatchet).GenerateNextTag&#45;&gt;(*github.com/go&#45;i2p/crypto/ratchet.TagRatchet).Advance</title>
<g id="a_edge12"><a xlink:title="at tag_ratchet.go:38: calling [(*github.com/go&#45;i2p/crypto/ratchet.TagRatchet).Advance]">
<path fill="none" stroke="#000000" d="M189.9829,-956C234.3716,-956 293.2756,-956 333.8772,-956"/>
<polygon fill="#000000" stroke="#000000" points="334.0425,-959.5001 344.0424,-956 334.0424,-952.5001 334.0425,-959.5001"/>
</a>
</g>
</g>
<!-- (*github.com/go&#45;i2p/crypto/ratchet.TagRatchet).GenerateNextTag&#45;&gt;(*github.com/go&#45;i2p/crypto/ratchet.TagRatchet).deriveTag -->
<g id="edge20" class="edge">
<title>(*github.com/go&#45;i2p/crypto/ratchet.TagRatchet).GenerateNextTag&#45;&gt;(*github.com/go&#45;i2p/crypto/ratchet.TagRatchet).deriveTag</title>
<g id="a_edge20"><a xlink:title="at tag_ratchet.go:32: calling [(*github.com/go&#45;i2p/crypto/ratchet.TagRatchet).deriveTag]">
<path fill="none" stroke="#000000" d="M189.9829,-941.0777C233.2527,-930.6401 290.3152,-916.8755 330.7724,-907.1163"/>
<polygon fill="#000000" stroke="#000000" points="331.7815,-910.4734 340.6819,-904.726 330.1399,-903.6686 331.7815,-910.4734"/>
</a>
</g>
</g>
<!-- (*github.com/go&#45;i2p/crypto/ratchet.TagRatchet).PeekNextTag -->
<g id="node20" class="node">
<title>(*github.com/go&#45;i2p/crypto/ratchet.TagRatchet).PeekNextTag</title>
<g id="a_node20"><a xlink:title="(*github.com/go&#45;i2p/crypto/ratchet.TagRatchet).PeekNextTag | defined in tag_ratchet.go:47&#10;at tag_ratchet.go:48: calling [(*github.com/go&#45;i2p/crypto/ratchet.TagRatchet).deriveTag]">
<path fill="#add8e6" stroke="#000000" stroke-width="1.5" d="M166.3124,-913C166.3124,-913 89.9304,-913 89.9304,-913 83.9304,-913 77.9304,-907 77.9304,-901 77.9304,-901 77.9304,-889 77.9304,-889 77.9304,-883 83.9304,-877 89.9304,-877 89.9304,-877 166.3124,-877 166.3124,-877 172.3124,-877 178.3124,-883 178.3124,-889 178.3124,-889 178.3124,-901 178.3124,-901 178.3124,-907 172.3124,-913 166.3124,-913"/>
<text text-anchor="middle" x="128.1214" y="-890.8" font-family="Verdana" font-size="14.00" fill="#000000">PeekNextTag</text>
</a>
</g>
</g>
<!-- (*github.com/go&#45;i2p/crypto/ratchet.TagRatchet).PeekNextTag&#45;&gt;(*github.com/go&#45;i2p/crypto/ratchet.TagRatchet).deriveTag -->
<g id="edge17" class="edge">
<title>(*github.com/go&#45;i2p/crypto/ratchet.TagRatchet).PeekNextTag&#45;&gt;(*github.com/go&#45;i2p/crypto/ratchet.TagRatchet).deriveTag</title>
<g id="a_edge17"><a xlink:title="at tag_ratchet.go:48: calling [(*github.com/go&#45;i2p/crypto/ratchet.TagRatchet).deriveTag]">
<path fill="none" stroke="#000000" d="M178.3847,-895C222.3895,-895 286.0201,-895 330.1876,-895"/>
<polygon fill="#000000" stroke="#000000" points="330.4148,-898.5001 340.4148,-895 330.4147,-891.5001 330.4148,-898.5001"/>
</a>
</g>
</g>
</g>
</svg>
